<?xml version="1.0" encoding="UTF-8" standalone="no"?>
<!DOCTYPE svg PUBLIC "-//W3C//DTD SVG 1.1//EN"
 "http://www.w3.org/Graphics/SVG/1.1/DTD/svg11.dtd">
<!-- Generated by graphviz version 2.38.0 (20140413.2041)
 -->
<!-- Title: dendrogram Pages: 1 -->
<svg width="2031pt" height="1104pt"
 viewBox="0.00 0.00 2031.09 1103.79" xmlns="http://www.w3.org/2000/svg" xmlns:xlink="http://www.w3.org/1999/xlink">
<g id="graph0" class="graph" transform="scale(1 1) rotate(0) translate(4 1099.79)">
<title>dendrogram</title>
<polygon fill="white" stroke="none" points="-4,4 -4,-1099.79 2027.09,-1099.79 2027.09,4 -4,4"/>
<!-- n34 (0.06 &#45; 36) -->
<g id="node1" class="node"><title>n34 (0.06 &#45; 36)</title>
<ellipse fill="none" stroke="black" cx="414.84" cy="-1077.79" rx="64.189" ry="18"/>
<text text-anchor="middle" x="414.84" y="-1074.09" font-family="Times,serif" font-size="14.00">n34 (0.06 &#45; 36)</text>
</g>
<!-- n28 (0.41 &#45; 3) -->
<g id="node2" class="node"><title>n28 (0.41 &#45; 3)</title>
<ellipse fill="none" stroke="black" cx="300.84" cy="-1005.79" rx="59.5901" ry="18"/>
<text text-anchor="middle" x="300.84" y="-1002.09" font-family="Times,serif" font-size="14.00">n28 (0.41 &#45; 3)</text>
</g>
<!-- n34 (0.06 &#45; 36)&#45;&gt;n28 (0.41 &#45; 3) -->
<g id="edge1" class="edge"><title>n34 (0.06 &#45; 36)&#45;&gt;n28 (0.41 &#45; 3)</title>
<path fill="none" stroke="black" d="M389.256,-1061.08C373.157,-1051.19 352.194,-1038.32 334.721,-1027.59"/>
<polygon fill="black" stroke="black" points="336.299,-1024.45 325.946,-1022.2 332.637,-1030.42 336.299,-1024.45"/>
</g>
<!-- n33 (0.12 &#45; 33) -->
<g id="node7" class="node"><title>n33 (0.12 &#45; 33)</title>
<ellipse fill="none" stroke="black" cx="528.84" cy="-1005.79" rx="64.189" ry="18"/>
<text text-anchor="middle" x="528.84" y="-1002.09" font-family="Times,serif" font-size="14.00">n33 (0.12 &#45; 33)</text>
</g>
<!-- n34 (0.06 &#45; 36)&#45;&gt;n33 (0.12 &#45; 33) -->
<g id="edge6" class="edge"><title>n34 (0.06 &#45; 36)&#45;&gt;n33 (0.12 &#45; 33)</title>
<path fill="none" stroke="black" d="M440.424,-1061.08C456.412,-1051.26 477.196,-1038.5 494.595,-1027.81"/>
<polygon fill="black" stroke="black" points="496.652,-1030.66 503.342,-1022.44 492.989,-1024.69 496.652,-1030.66"/>
</g>
<!-- RECALL -->
<g id="node3" class="node"><title>RECALL</title>
<ellipse fill="none" stroke="black" cx="177.84" cy="-933.786" rx="44.6926" ry="18"/>
<text text-anchor="middle" x="177.84" y="-930.086" font-family="Times,serif" font-size="14.00">RECALL</text>
</g>
<!-- n28 (0.41 &#45; 3)&#45;&gt;RECALL -->
<g id="edge2" class="edge"><title>n28 (0.41 &#45; 3)&#45;&gt;RECALL</title>
<path fill="none" stroke="black" d="M274.151,-989.597C255.853,-979.183 231.424,-965.28 211.748,-954.083"/>
<polygon fill="black" stroke="black" points="213.223,-950.895 202.801,-948.991 209.761,-956.979 213.223,-950.895"/>
</g>
<!-- n19 (0.72 &#45; 2) -->
<g id="node4" class="node"><title>n19 (0.72 &#45; 2)</title>
<ellipse fill="none" stroke="black" cx="300.84" cy="-933.786" rx="59.5901" ry="18"/>
<text text-anchor="middle" x="300.84" y="-930.086" font-family="Times,serif" font-size="14.00">n19 (0.72 &#45; 2)</text>
</g>
<!-- n28 (0.41 &#45; 3)&#45;&gt;n19 (0.72 &#45; 2) -->
<g id="edge3" class="edge"><title>n28 (0.41 &#45; 3)&#45;&gt;n19 (0.72 &#45; 2)</title>
<path fill="none" stroke="black" d="M300.84,-987.483C300.84,-979.769 300.84,-970.498 300.84,-961.898"/>
<polygon fill="black" stroke="black" points="304.34,-961.89 300.84,-951.89 297.34,-961.89 304.34,-961.89"/>
</g>
<!-- COLLECTIVE_STRENGH -->
<g id="node5" class="node"><title>COLLECTIVE_STRENGH</title>
<ellipse fill="none" stroke="black" cx="109.84" cy="-789.276" rx="109.681" ry="18"/>
<text text-anchor="middle" x="109.84" y="-785.576" font-family="Times,serif" font-size="14.00">COLLECTIVE_STRENGH</text>
</g>
<!-- n19 (0.72 &#45; 2)&#45;&gt;COLLECTIVE_STRENGH -->
<g id="edge4" class="edge"><title>n19 (0.72 &#45; 2)&#45;&gt;COLLECTIVE_STRENGH</title>
<path fill="none" stroke="black" d="M279.057,-916.841C264.754,-906.35 245.651,-892.295 228.84,-879.786 198.6,-857.284 164.203,-831.377 140.195,-813.244"/>
<polygon fill="black" stroke="black" points="142.248,-810.409 132.16,-807.173 138.028,-815.994 142.248,-810.409"/>
</g>
<!-- SPECIFICITY -->
<g id="node6" class="node"><title>SPECIFICITY</title>
<ellipse fill="none" stroke="black" cx="300.84" cy="-789.276" rx="63.0888" ry="18"/>
<text text-anchor="middle" x="300.84" y="-785.576" font-family="Times,serif" font-size="14.00">SPECIFICITY</text>
</g>
<!-- n19 (0.72 &#45; 2)&#45;&gt;SPECIFICITY -->
<g id="edge5" class="edge"><title>n19 (0.72 &#45; 2)&#45;&gt;SPECIFICITY</title>
<path fill="none" stroke="black" d="M300.84,-915.596C300.84,-891.308 300.84,-846.689 300.84,-817.768"/>
<polygon fill="black" stroke="black" points="304.34,-817.527 300.84,-807.527 297.34,-817.527 304.34,-817.527"/>
</g>
<!-- n31 (0.26 &#45; 9) -->
<g id="node8" class="node"><title>n31 (0.26 &#45; 9)</title>
<ellipse fill="none" stroke="black" cx="528.84" cy="-933.786" rx="59.5901" ry="18"/>
<text text-anchor="middle" x="528.84" y="-930.086" font-family="Times,serif" font-size="14.00">n31 (0.26 &#45; 9)</text>
</g>
<!-- n33 (0.12 &#45; 33)&#45;&gt;n31 (0.26 &#45; 9) -->
<g id="edge7" class="edge"><title>n33 (0.12 &#45; 33)&#45;&gt;n31 (0.26 &#45; 9)</title>
<path fill="none" stroke="black" d="M528.84,-987.483C528.84,-979.769 528.84,-970.498 528.84,-961.898"/>
<polygon fill="black" stroke="black" points="532.34,-961.89 528.84,-951.89 525.34,-961.89 532.34,-961.89"/>
</g>
<!-- n32 (0.17 &#45; 24) -->
<g id="node11" class="node"><title>n32 (0.17 &#45; 24)</title>
<ellipse fill="none" stroke="black" cx="787.84" cy="-933.786" rx="64.189" ry="18"/>
<text text-anchor="middle" x="787.84" y="-930.086" font-family="Times,serif" font-size="14.00">n32 (0.17 &#45; 24)</text>
</g>
<!-- n33 (0.12 &#45; 33)&#45;&gt;n32 (0.17 &#45; 24) -->
<g id="edge10" class="edge"><title>n33 (0.12 &#45; 33)&#45;&gt;n32 (0.17 &#45; 24)</title>
<path fill="none" stroke="black" d="M573.364,-992.753C617.653,-980.782 685.684,-962.396 733.215,-949.549"/>
<polygon fill="black" stroke="black" points="734.29,-952.885 743.031,-946.897 732.464,-946.127 734.29,-952.885"/>
</g>
<!-- ACCURACY -->
<g id="node9" class="node"><title>ACCURACY</title>
<ellipse fill="none" stroke="black" cx="441.84" cy="-789.276" rx="59.5901" ry="18"/>
<text text-anchor="middle" x="441.84" y="-785.576" font-family="Times,serif" font-size="14.00">ACCURACY</text>
</g>
<!-- n31 (0.26 &#45; 9)&#45;&gt;ACCURACY -->
<g id="edge8" class="edge"><title>n31 (0.26 &#45; 9)&#45;&gt;ACCURACY</title>
<path fill="none" stroke="black" d="M518.519,-915.879C503.41,-891.13 475.154,-844.845 457.484,-815.901"/>
<polygon fill="black" stroke="black" points="460.346,-813.873 452.149,-807.162 454.372,-817.521 460.346,-813.873"/>
</g>
<!-- RELATIVE_RISK\nLIFT\nBAYES\nZHANG\nODD_MULTIPLIER\nYULE_Y\nYULE_Q\nODDS_RATIO -->
<g id="node10" class="node"><title>RELATIVE_RISK\nLIFT\nBAYES\nZHANG\nODD_MULTIPLIER\nYULE_Y\nYULE_Q\nODDS_RATIO</title>
<ellipse fill="none" stroke="black" cx="614.84" cy="-789.276" rx="94.5053" ry="90.5193"/>
<text text-anchor="middle" x="614.84" y="-838.076" font-family="Times,serif" font-size="14.00">RELATIVE_RISK</text>
<text text-anchor="middle" x="614.84" y="-823.076" font-family="Times,serif" font-size="14.00">LIFT</text>
<text text-anchor="middle" x="614.84" y="-808.076" font-family="Times,serif" font-size="14.00">BAYES</text>
<text text-anchor="middle" x="614.84" y="-793.076" font-family="Times,serif" font-size="14.00">ZHANG</text>
<text text-anchor="middle" x="614.84" y="-778.076" font-family="Times,serif" font-size="14.00">ODD_MULTIPLIER</text>
<text text-anchor="middle" x="614.84" y="-763.076" font-family="Times,serif" font-size="14.00">YULE_Y</text>
<text text-anchor="middle" x="614.84" y="-748.076" font-family="Times,serif" font-size="14.00">YULE_Q</text>
<text text-anchor="middle" x="614.84" y="-733.076" font-family="Times,serif" font-size="14.00">ODDS_RATIO</text>
</g>
<!-- n31 (0.26 &#45; 9)&#45;&gt;RELATIVE_RISK\nLIFT\nBAYES\nZHANG\nODD_MULTIPLIER\nYULE_Y\nYULE_Q\nODDS_RATIO -->
<g id="edge9" class="edge"><title>n31 (0.26 &#45; 9)&#45;&gt;RELATIVE_RISK\nLIFT\nBAYES\nZHANG\nODD_MULTIPLIER\nYULE_Y\nYULE_Q\nODDS_RATIO</title>
<path fill="none" stroke="black" d="M539.043,-915.879C545.217,-905.648 553.613,-891.736 562.571,-876.891"/>
<polygon fill="black" stroke="black" points="565.728,-878.433 567.899,-868.063 559.735,-874.816 565.728,-878.433"/>
</g>
<!-- n26 (0.52 &#45; 5) -->
<g id="node12" class="node"><title>n26 (0.52 &#45; 5)</title>
<ellipse fill="none" stroke="black" cx="787.84" cy="-789.276" rx="59.5901" ry="18"/>
<text text-anchor="middle" x="787.84" y="-785.576" font-family="Times,serif" font-size="14.00">n26 (0.52 &#45; 5)</text>
</g>
<!-- n32 (0.17 &#45; 24)&#45;&gt;n26 (0.52 &#45; 5) -->
<g id="edge11" class="edge"><title>n32 (0.17 &#45; 24)&#45;&gt;n26 (0.52 &#45; 5)</title>
<path fill="none" stroke="black" d="M787.84,-915.596C787.84,-891.308 787.84,-846.689 787.84,-817.768"/>
<polygon fill="black" stroke="black" points="791.34,-817.527 787.84,-807.527 784.34,-817.527 791.34,-817.527"/>
</g>
<!-- n30 (0.32 &#45; 19) -->
<g id="node15" class="node"><title>n30 (0.32 &#45; 19)</title>
<ellipse fill="none" stroke="black" cx="1002.84" cy="-789.276" rx="64.189" ry="18"/>
<text text-anchor="middle" x="1002.84" y="-785.576" font-family="Times,serif" font-size="14.00">n30 (0.32 &#45; 19)</text>
</g>
<!-- n32 (0.17 &#45; 24)&#45;&gt;n30 (0.32 &#45; 19) -->
<g id="edge14" class="edge"><title>n32 (0.17 &#45; 24)&#45;&gt;n30 (0.32 &#45; 19)</title>
<path fill="none" stroke="black" d="M811.67,-916.99C850.334,-891.363 926.788,-840.686 970.384,-811.79"/>
<polygon fill="black" stroke="black" points="972.502,-814.585 978.903,-806.143 968.634,-808.75 972.502,-814.585"/>
</g>
<!-- LEAST_CONTRADICTION -->
<g id="node13" class="node"><title>LEAST_CONTRADICTION</title>
<ellipse fill="none" stroke="black" cx="517.84" cy="-614.683" rx="114.28" ry="18"/>
<text text-anchor="middle" x="517.84" y="-610.983" font-family="Times,serif" font-size="14.00">LEAST_CONTRADICTION</text>
</g>
<!-- n26 (0.52 &#45; 5)&#45;&gt;LEAST_CONTRADICTION -->
<g id="edge12" class="edge"><title>n26 (0.52 &#45; 5)&#45;&gt;LEAST_CONTRADICTION</title>
<path fill="none" stroke="black" d="M778.475,-771.27C766.812,-751.469 745.177,-718.914 718.84,-698.767 706.321,-689.19 624.623,-656.76 569.315,-635.363"/>
<polygon fill="black" stroke="black" points="570.248,-631.972 559.659,-631.636 567.728,-638.502 570.248,-631.972"/>
</g>
<!-- LEVERAGE\nCOUNTER_EXAMPLE_RATE\nSEBAG_SCHOENAUER\nCONFIDENCE -->
<g id="node14" class="node"><title>LEVERAGE\nCOUNTER_EXAMPLE_RATE\nSEBAG_SCHOENAUER\nCONFIDENCE</title>
<ellipse fill="none" stroke="black" cx="787.84" cy="-614.683" rx="137.358" ry="48.1667"/>
<text text-anchor="middle" x="787.84" y="-633.483" font-family="Times,serif" font-size="14.00">LEVERAGE</text>
<text text-anchor="middle" x="787.84" y="-618.483" font-family="Times,serif" font-size="14.00">COUNTER_EXAMPLE_RATE</text>
<text text-anchor="middle" x="787.84" y="-603.483" font-family="Times,serif" font-size="14.00">SEBAG_SCHOENAUER</text>
<text text-anchor="middle" x="787.84" y="-588.483" font-family="Times,serif" font-size="14.00">CONFIDENCE</text>
</g>
<!-- n26 (0.52 &#45; 5)&#45;&gt;LEVERAGE\nCOUNTER_EXAMPLE_RATE\nSEBAG_SCHOENAUER\nCONFIDENCE -->
<g id="edge13" class="edge"><title>n26 (0.52 &#45; 5)&#45;&gt;LEVERAGE\nCOUNTER_EXAMPLE_RATE\nSEBAG_SCHOENAUER\nCONFIDENCE</title>
<path fill="none" stroke="black" d="M787.84,-771.096C787.84,-748.456 787.84,-707.499 787.84,-673.313"/>
<polygon fill="black" stroke="black" points="791.34,-672.948 787.84,-662.949 784.34,-672.949 791.34,-672.948"/>
</g>
<!-- n18 (0.80 &#45; 6) -->
<g id="node16" class="node"><title>n18 (0.80 &#45; 6)</title>
<ellipse fill="none" stroke="black" cx="1002.84" cy="-614.683" rx="59.5901" ry="18"/>
<text text-anchor="middle" x="1002.84" y="-610.983" font-family="Times,serif" font-size="14.00">n18 (0.80 &#45; 6)</text>
</g>
<!-- n30 (0.32 &#45; 19)&#45;&gt;n18 (0.80 &#45; 6) -->
<g id="edge15" class="edge"><title>n30 (0.32 &#45; 19)&#45;&gt;n18 (0.80 &#45; 6)</title>
<path fill="none" stroke="black" d="M1002.84,-771.096C1002.84,-741.115 1002.84,-679.014 1002.84,-643.051"/>
<polygon fill="black" stroke="black" points="1006.34,-642.794 1002.84,-632.794 999.34,-642.794 1006.34,-642.794"/>
</g>
<!-- n29 (0.37 &#45; 13) -->
<g id="node21" class="node"><title>n29 (0.37 &#45; 13)</title>
<ellipse fill="none" stroke="black" cx="1208.84" cy="-614.683" rx="64.189" ry="18"/>
<text text-anchor="middle" x="1208.84" y="-610.983" font-family="Times,serif" font-size="14.00">n29 (0.37 &#45; 13)</text>
</g>
<!-- n30 (0.32 &#45; 19)&#45;&gt;n29 (0.37 &#45; 13) -->
<g id="edge20" class="edge"><title>n30 (0.32 &#45; 19)&#45;&gt;n29 (0.37 &#45; 13)</title>
<path fill="none" stroke="black" d="M1022.22,-772.039C1059.1,-741.136 1139.48,-673.798 1181.7,-638.426"/>
<polygon fill="black" stroke="black" points="1183.94,-641.108 1189.36,-632.003 1179.45,-635.742 1183.94,-641.108"/>
</g>
<!-- CENTERED_CONFIDENCE -->
<g id="node17" class="node"><title>CENTERED_CONFIDENCE</title>
<ellipse fill="none" stroke="black" cx="808.84" cy="-512.6" rx="116.18" ry="18"/>
<text text-anchor="middle" x="808.84" y="-508.9" font-family="Times,serif" font-size="14.00">CENTERED_CONFIDENCE</text>
</g>
<!-- n18 (0.80 &#45; 6)&#45;&gt;CENTERED_CONFIDENCE -->
<g id="edge16" class="edge"><title>n18 (0.80 &#45; 6)&#45;&gt;CENTERED_CONFIDENCE</title>
<path fill="none" stroke="black" d="M981.782,-597.704C968.461,-588.007 950.641,-575.776 933.84,-566.6 910.761,-553.995 884.058,-542.311 861.273,-533.139"/>
<polygon fill="black" stroke="black" points="862.356,-529.803 851.77,-529.366 859.773,-536.309 862.356,-529.803"/>
</g>
<!-- n17 (0.89 &#45; 5) -->
<g id="node18" class="node"><title>n17 (0.89 &#45; 5)</title>
<ellipse fill="none" stroke="black" cx="1002.84" cy="-512.6" rx="59.5901" ry="18"/>
<text text-anchor="middle" x="1002.84" y="-508.9" font-family="Times,serif" font-size="14.00">n17 (0.89 &#45; 5)</text>
</g>
<!-- n18 (0.80 &#45; 6)&#45;&gt;n17 (0.89 &#45; 5) -->
<g id="edge17" class="edge"><title>n18 (0.80 &#45; 6)&#45;&gt;n17 (0.89 &#45; 5)</title>
<path fill="none" stroke="black" d="M1002.84,-596.25C1002.84,-581.038 1002.84,-558.705 1002.84,-541.087"/>
<polygon fill="black" stroke="black" points="1006.34,-540.833 1002.84,-530.833 999.34,-540.834 1006.34,-540.833"/>
</g>
<!-- ONE_WAY_SUPPORT -->
<g id="node19" class="node"><title>ONE_WAY_SUPPORT</title>
<ellipse fill="none" stroke="black" cx="778.84" cy="-410.517" rx="97.4827" ry="18"/>
<text text-anchor="middle" x="778.84" y="-406.817" font-family="Times,serif" font-size="14.00">ONE_WAY_SUPPORT</text>
</g>
<!-- n17 (0.89 &#45; 5)&#45;&gt;ONE_WAY_SUPPORT -->
<g id="edge18" class="edge"><title>n17 (0.89 &#45; 5)&#45;&gt;ONE_WAY_SUPPORT</title>
<path fill="none" stroke="black" d="M970.747,-497.261C932.089,-479.989 866.932,-450.876 823.412,-431.431"/>
<polygon fill="black" stroke="black" points="824.758,-428.2 814.2,-427.316 821.903,-434.591 824.758,-428.2"/>
</g>
<!-- ADDED_VALUE\nLOEVINGER\nCONVICTION\nCERTAINTY_FACTOR -->
<g id="node20" class="node"><title>ADDED_VALUE\nLOEVINGER\nCONVICTION\nCERTAINTY_FACTOR</title>
<ellipse fill="none" stroke="black" cx="1002.84" cy="-410.517" rx="108.375" ry="48.1667"/>
<text text-anchor="middle" x="1002.84" y="-429.317" font-family="Times,serif" font-size="14.00">ADDED_VALUE</text>
<text text-anchor="middle" x="1002.84" y="-414.317" font-family="Times,serif" font-size="14.00">LOEVINGER</text>
<text text-anchor="middle" x="1002.84" y="-399.317" font-family="Times,serif" font-size="14.00">CONVICTION</text>
<text text-anchor="middle" x="1002.84" y="-384.317" font-family="Times,serif" font-size="14.00">CERTAINTY_FACTOR</text>
</g>
<!-- n17 (0.89 &#45; 5)&#45;&gt;ADDED_VALUE\nLOEVINGER\nCONVICTION\nCERTAINTY_FACTOR -->
<g id="edge19" class="edge"><title>n17 (0.89 &#45; 5)&#45;&gt;ADDED_VALUE\nLOEVINGER\nCONVICTION\nCERTAINTY_FACTOR</title>
<path fill="none" stroke="black" d="M1002.84,-494.167C1002.84,-486.928 1002.84,-478.077 1002.84,-468.889"/>
<polygon fill="black" stroke="black" points="1006.34,-468.847 1002.84,-458.847 999.34,-468.847 1006.34,-468.847"/>
</g>
<!-- n22 (0.66 &#45; 2) -->
<g id="node22" class="node"><title>n22 (0.66 &#45; 2)</title>
<ellipse fill="none" stroke="black" cx="1208.84" cy="-512.6" rx="59.5901" ry="18"/>
<text text-anchor="middle" x="1208.84" y="-508.9" font-family="Times,serif" font-size="14.00">n22 (0.66 &#45; 2)</text>
</g>
<!-- n29 (0.37 &#45; 13)&#45;&gt;n22 (0.66 &#45; 2) -->
<g id="edge21" class="edge"><title>n29 (0.37 &#45; 13)&#45;&gt;n22 (0.66 &#45; 2)</title>
<path fill="none" stroke="black" d="M1208.84,-596.25C1208.84,-581.038 1208.84,-558.705 1208.84,-541.087"/>
<polygon fill="black" stroke="black" points="1212.34,-540.833 1208.84,-530.833 1205.34,-540.834 1212.34,-540.833"/>
</g>
<!-- n27 (0.46 &#45; 11) -->
<g id="node25" class="node"><title>n27 (0.46 &#45; 11)</title>
<ellipse fill="none" stroke="black" cx="1389.84" cy="-512.6" rx="64.189" ry="18"/>
<text text-anchor="middle" x="1389.84" y="-508.9" font-family="Times,serif" font-size="14.00">n27 (0.46 &#45; 11)</text>
</g>
<!-- n29 (0.37 &#45; 13)&#45;&gt;n27 (0.46 &#45; 11) -->
<g id="edge24" class="edge"><title>n29 (0.37 &#45; 13)&#45;&gt;n27 (0.46 &#45; 11)</title>
<path fill="none" stroke="black" d="M1236.72,-598.265C1268.04,-580.95 1318.97,-552.787 1353.41,-533.744"/>
<polygon fill="black" stroke="black" points="1355.16,-536.774 1362.22,-528.872 1351.78,-530.648 1355.16,-536.774"/>
</g>
<!-- COSINE -->
<g id="node23" class="node"><title>COSINE</title>
<ellipse fill="none" stroke="black" cx="1170.84" cy="-410.517" rx="42.4939" ry="18"/>
<text text-anchor="middle" x="1170.84" y="-406.817" font-family="Times,serif" font-size="14.00">COSINE</text>
</g>
<!-- n22 (0.66 &#45; 2)&#45;&gt;COSINE -->
<g id="edge22" class="edge"><title>n22 (0.66 &#45; 2)&#45;&gt;COSINE</title>
<path fill="none" stroke="black" d="M1202.39,-494.622C1196.53,-479.166 1187.76,-456.092 1180.96,-438.176"/>
<polygon fill="black" stroke="black" points="1184.14,-436.684 1177.32,-428.578 1177.6,-439.169 1184.14,-436.684"/>
</g>
<!-- JACCARD -->
<g id="node24" class="node"><title>JACCARD</title>
<ellipse fill="none" stroke="black" cx="1281.84" cy="-410.517" rx="50.8918" ry="18"/>
<text text-anchor="middle" x="1281.84" y="-406.817" font-family="Times,serif" font-size="14.00">JACCARD</text>
</g>
<!-- n22 (0.66 &#45; 2)&#45;&gt;JACCARD -->
<g id="edge23" class="edge"><title>n22 (0.66 &#45; 2)&#45;&gt;JACCARD</title>
<path fill="none" stroke="black" d="M1221.22,-494.622C1232.83,-478.71 1250.32,-454.726 1263.54,-436.606"/>
<polygon fill="black" stroke="black" points="1266.57,-438.386 1269.64,-428.244 1260.92,-434.261 1266.57,-438.386"/>
</g>
<!-- KAPPA -->
<g id="node26" class="node"><title>KAPPA</title>
<ellipse fill="none" stroke="black" cx="1389.84" cy="-410.517" rx="39.7935" ry="18"/>
<text text-anchor="middle" x="1389.84" y="-406.817" font-family="Times,serif" font-size="14.00">KAPPA</text>
</g>
<!-- n27 (0.46 &#45; 11)&#45;&gt;KAPPA -->
<g id="edge25" class="edge"><title>n27 (0.46 &#45; 11)&#45;&gt;KAPPA</title>
<path fill="none" stroke="black" d="M1389.84,-494.167C1389.84,-478.955 1389.84,-456.621 1389.84,-439.004"/>
<polygon fill="black" stroke="black" points="1393.34,-438.75 1389.84,-428.75 1386.34,-438.75 1393.34,-438.75"/>
</g>
<!-- n25 (0.53 &#45; 10) -->
<g id="node27" class="node"><title>n25 (0.53 &#45; 10)</title>
<ellipse fill="none" stroke="black" cx="1511.84" cy="-410.517" rx="64.189" ry="18"/>
<text text-anchor="middle" x="1511.84" y="-406.817" font-family="Times,serif" font-size="14.00">n25 (0.53 &#45; 10)</text>
</g>
<!-- n27 (0.46 &#45; 11)&#45;&gt;n25 (0.53 &#45; 10) -->
<g id="edge26" class="edge"><title>n27 (0.46 &#45; 11)&#45;&gt;n25 (0.53 &#45; 10)</title>
<path fill="none" stroke="black" d="M1409.71,-495.297C1429.92,-478.722 1461.39,-452.902 1484.06,-434.306"/>
<polygon fill="black" stroke="black" points="1486.46,-436.861 1491.98,-427.813 1482.02,-431.449 1486.46,-436.861"/>
</g>
<!-- n23 (0.64 &#45; 4) -->
<g id="node28" class="node"><title>n23 (0.64 &#45; 4)</title>
<ellipse fill="none" stroke="black" cx="1392.84" cy="-308.434" rx="59.5901" ry="18"/>
<text text-anchor="middle" x="1392.84" y="-304.734" font-family="Times,serif" font-size="14.00">n23 (0.64 &#45; 4)</text>
</g>
<!-- n25 (0.53 &#45; 10)&#45;&gt;n23 (0.64 &#45; 4) -->
<g id="edge27" class="edge"><title>n25 (0.53 &#45; 10)&#45;&gt;n23 (0.64 &#45; 4)</title>
<path fill="none" stroke="black" d="M1492.46,-393.214C1472.75,-376.638 1442.05,-350.819 1419.94,-332.223"/>
<polygon fill="black" stroke="black" points="1422.12,-329.487 1412.22,-325.729 1417.62,-334.845 1422.12,-329.487"/>
</g>
<!-- n24 (0.63 &#45; 6) -->
<g id="node31" class="node"><title>n24 (0.63 &#45; 6)</title>
<ellipse fill="none" stroke="black" cx="1629.84" cy="-308.434" rx="59.5901" ry="18"/>
<text text-anchor="middle" x="1629.84" y="-304.734" font-family="Times,serif" font-size="14.00">n24 (0.63 &#45; 6)</text>
</g>
<!-- n25 (0.53 &#45; 10)&#45;&gt;n24 (0.63 &#45; 6) -->
<g id="edge30" class="edge"><title>n25 (0.53 &#45; 10)&#45;&gt;n24 (0.63 &#45; 6)</title>
<path fill="none" stroke="black" d="M1531.06,-393.214C1550.6,-376.638 1581.05,-350.819 1602.97,-332.223"/>
<polygon fill="black" stroke="black" points="1605.26,-334.867 1610.63,-325.729 1600.74,-329.529 1605.26,-334.867"/>
</g>
<!-- GINI -->
<g id="node29" class="node"><title>GINI</title>
<ellipse fill="none" stroke="black" cx="1178.84" cy="-216.957" rx="29.4969" ry="18"/>
<text text-anchor="middle" x="1178.84" y="-213.257" font-family="Times,serif" font-size="14.00">GINI</text>
</g>
<!-- n23 (0.64 &#45; 4)&#45;&gt;GINI -->
<g id="edge28" class="edge"><title>n23 (0.64 &#45; 4)&#45;&gt;GINI</title>
<path fill="none" stroke="black" d="M1342.11,-298.78C1305.49,-291.001 1255.83,-277.211 1216.84,-254.434 1210.47,-250.714 1204.35,-245.72 1198.94,-240.622"/>
<polygon fill="black" stroke="black" points="1201.12,-237.85 1191.6,-233.216 1196.15,-242.78 1201.12,-237.85"/>
</g>
<!-- CHI_SQUARE\nTWO_WAY_SUPPORT_VARIATION\nJ_MEASURE -->
<g id="node30" class="node"><title>CHI_SQUARE\nTWO_WAY_SUPPORT_VARIATION\nJ_MEASURE</title>
<ellipse fill="none" stroke="black" cx="1392.84" cy="-216.957" rx="166.754" ry="37.4533"/>
<text text-anchor="middle" x="1392.84" y="-228.257" font-family="Times,serif" font-size="14.00">CHI_SQUARE</text>
<text text-anchor="middle" x="1392.84" y="-213.257" font-family="Times,serif" font-size="14.00">TWO_WAY_SUPPORT_VARIATION</text>
<text text-anchor="middle" x="1392.84" y="-198.257" font-family="Times,serif" font-size="14.00">J_MEASURE</text>
</g>
<!-- n23 (0.64 &#45; 4)&#45;&gt;CHI_SQUARE\nTWO_WAY_SUPPORT_VARIATION\nJ_MEASURE -->
<g id="edge29" class="edge"><title>n23 (0.64 &#45; 4)&#45;&gt;CHI_SQUARE\nTWO_WAY_SUPPORT_VARIATION\nJ_MEASURE</title>
<path fill="none" stroke="black" d="M1392.84,-290.182C1392.84,-282.876 1392.84,-273.974 1392.84,-264.949"/>
<polygon fill="black" stroke="black" points="1396.34,-264.786 1392.84,-254.786 1389.34,-264.786 1396.34,-264.786"/>
</g>
<!-- KLOSGEN -->
<g id="node32" class="node"><title>KLOSGEN</title>
<ellipse fill="none" stroke="black" cx="1629.84" cy="-216.957" rx="51.9908" ry="18"/>
<text text-anchor="middle" x="1629.84" y="-213.257" font-family="Times,serif" font-size="14.00">KLOSGEN</text>
</g>
<!-- n24 (0.63 &#45; 6)&#45;&gt;KLOSGEN -->
<g id="edge31" class="edge"><title>n24 (0.63 &#45; 6)&#45;&gt;KLOSGEN</title>
<path fill="none" stroke="black" d="M1629.84,-290.182C1629.84,-277.432 1629.84,-259.82 1629.84,-245.179"/>
<polygon fill="black" stroke="black" points="1633.34,-245.156 1629.84,-235.156 1626.34,-245.156 1633.34,-245.156"/>
</g>
<!-- n21 (0.68 &#45; 5) -->
<g id="node33" class="node"><title>n21 (0.68 &#45; 5)</title>
<ellipse fill="none" stroke="black" cx="1759.84" cy="-216.957" rx="59.5901" ry="18"/>
<text text-anchor="middle" x="1759.84" y="-213.257" font-family="Times,serif" font-size="14.00">n21 (0.68 &#45; 5)</text>
</g>
<!-- n24 (0.63 &#45; 6)&#45;&gt;n21 (0.68 &#45; 5) -->
<g id="edge32" class="edge"><title>n24 (0.63 &#45; 6)&#45;&gt;n21 (0.68 &#45; 5)</title>
<path fill="none" stroke="black" d="M1652.78,-291.643C1673.72,-277.229 1704.87,-255.79 1728.18,-239.749"/>
<polygon fill="black" stroke="black" points="1730.44,-242.443 1736.69,-233.891 1726.47,-236.677 1730.44,-242.443"/>
</g>
<!-- PIATETSKY_SHAPIRO\nTWO_WAY_SUPPORT -->
<g id="node34" class="node"><title>PIATETSKY_SHAPIRO\nTWO_WAY_SUPPORT</title>
<ellipse fill="none" stroke="black" cx="1665.84" cy="-116.61" rx="109.703" ry="26.7407"/>
<text text-anchor="middle" x="1665.84" y="-120.41" font-family="Times,serif" font-size="14.00">PIATETSKY_SHAPIRO</text>
<text text-anchor="middle" x="1665.84" y="-105.41" font-family="Times,serif" font-size="14.00">TWO_WAY_SUPPORT</text>
</g>
<!-- n21 (0.68 &#45; 5)&#45;&gt;PIATETSKY_SHAPIRO\nTWO_WAY_SUPPORT -->
<g id="edge33" class="edge"><title>n21 (0.68 &#45; 5)&#45;&gt;PIATETSKY_SHAPIRO\nTWO_WAY_SUPPORT</title>
<path fill="none" stroke="black" d="M1743.89,-199.274C1731.09,-185.872 1712.71,-166.642 1697,-150.209"/>
<polygon fill="black" stroke="black" points="1699.44,-147.698 1690,-142.887 1694.38,-152.534 1699.44,-147.698"/>
</g>
<!-- n20 (0.72 &#45; 3) -->
<g id="node35" class="node"><title>n20 (0.72 &#45; 3)</title>
<ellipse fill="none" stroke="black" cx="1852.84" cy="-116.61" rx="59.5901" ry="18"/>
<text text-anchor="middle" x="1852.84" y="-112.91" font-family="Times,serif" font-size="14.00">n20 (0.72 &#45; 3)</text>
</g>
<!-- n21 (0.68 &#45; 5)&#45;&gt;n20 (0.72 &#45; 3) -->
<g id="edge34" class="edge"><title>n21 (0.68 &#45; 5)&#45;&gt;n20 (0.72 &#45; 3)</title>
<path fill="none" stroke="black" d="M1775.62,-199.274C1790.54,-183.496 1813.1,-159.64 1829.98,-141.78"/>
<polygon fill="black" stroke="black" points="1832.97,-143.718 1837.3,-134.047 1827.88,-138.908 1832.97,-143.718"/>
</g>
<!-- IMPLICATION_INDEX -->
<g id="node36" class="node"><title>IMPLICATION_INDEX</title>
<ellipse fill="none" stroke="black" cx="1756.84" cy="-26.8701" rx="100.182" ry="18"/>
<text text-anchor="middle" x="1756.84" y="-23.1701" font-family="Times,serif" font-size="14.00">IMPLICATION_INDEX</text>
</g>
<!-- n20 (0.72 &#45; 3)&#45;&gt;IMPLICATION_INDEX -->
<g id="edge35" class="edge"><title>n20 (0.72 &#45; 3)&#45;&gt;IMPLICATION_INDEX</title>
<path fill="none" stroke="black" d="M1834.78,-99.1069C1820.13,-85.7116 1799.27,-66.6486 1782.82,-51.6128"/>
<polygon fill="black" stroke="black" points="1784.89,-48.7605 1775.14,-44.5976 1780.16,-53.9276 1784.89,-48.7605"/>
</g>
<!-- PHI\nFISHER_PVAL -->
<g id="node37" class="node"><title>PHI\nFISHER_PVAL</title>
<ellipse fill="none" stroke="black" cx="1948.84" cy="-26.8701" rx="74.4932" ry="26.7407"/>
<text text-anchor="middle" x="1948.84" y="-30.6701" font-family="Times,serif" font-size="14.00">PHI</text>
<text text-anchor="middle" x="1948.84" y="-15.6701" font-family="Times,serif" font-size="14.00">FISHER_PVAL</text>
</g>
<!-- n20 (0.72 &#45; 3)&#45;&gt;PHI\nFISHER_PVAL -->
<g id="edge36" class="edge"><title>n20 (0.72 &#45; 3)&#45;&gt;PHI\nFISHER_PVAL</title>
<path fill="none" stroke="black" d="M1870.9,-99.1069C1883.2,-87.8625 1899.87,-72.6243 1914.64,-59.1269"/>
<polygon fill="black" stroke="black" points="1917.14,-61.5877 1922.16,-52.2578 1912.41,-56.4206 1917.14,-61.5877"/>
</g>
</g>
</svg>
