<?xml version="1.0" encoding="UTF-8" standalone="no"?>
<!DOCTYPE svg PUBLIC "-//W3C//DTD SVG 1.1//EN"
 "http://www.w3.org/Graphics/SVG/1.1/DTD/svg11.dtd">
<!-- Generated by graphviz version 2.38.0 (20140413.2041)
 -->
<!-- Title: dendrogram Pages: 1 -->
<svg width="1267pt" height="860pt"
 viewBox="0.00 0.00 1266.99 860.27" xmlns="http://www.w3.org/2000/svg" xmlns:xlink="http://www.w3.org/1999/xlink">
<g id="graph0" class="graph" transform="scale(1 1) rotate(0) translate(4 856.271)">
<title>dendrogram</title>
<polygon fill="white" stroke="none" points="-4,4 -4,-856.271 1262.99,-856.271 1262.99,4 -4,4"/>
<!-- n34 (0.32 &#45; 36) -->
<g id="node1" class="node"><title>n34 (0.32 &#45; 36)</title>
<ellipse fill="none" stroke="black" cx="731.091" cy="-834.271" rx="64.189" ry="18"/>
<text text-anchor="middle" x="731.091" y="-830.571" font-family="Times,serif" font-size="14.00">n34 (0.32 &#45; 36)</text>
</g>
<!-- n33 (0.50 &#45; 16) -->
<g id="node2" class="node"><title>n33 (0.50 &#45; 16)</title>
<ellipse fill="none" stroke="black" cx="630.091" cy="-762.271" rx="64.189" ry="18"/>
<text text-anchor="middle" x="630.091" y="-758.571" font-family="Times,serif" font-size="14.00">n33 (0.50 &#45; 16)</text>
</g>
<!-- n34 (0.32 &#45; 36)&#45;&gt;n33 (0.50 &#45; 16) -->
<g id="edge1" class="edge"><title>n34 (0.32 &#45; 36)&#45;&gt;n33 (0.50 &#45; 16)</title>
<path fill="none" stroke="black" d="M708.173,-817.387C694.453,-807.878 676.814,-795.654 661.774,-785.23"/>
<polygon fill="black" stroke="black" points="663.481,-782.154 653.268,-779.335 659.494,-787.908 663.481,-782.154"/>
</g>
<!-- n31 (0.59 &#45; 20) -->
<g id="node19" class="node"><title>n31 (0.59 &#45; 20)</title>
<ellipse fill="none" stroke="black" cx="832.091" cy="-762.271" rx="64.189" ry="18"/>
<text text-anchor="middle" x="832.091" y="-758.571" font-family="Times,serif" font-size="14.00">n31 (0.59 &#45; 20)</text>
</g>
<!-- n34 (0.32 &#45; 36)&#45;&gt;n31 (0.59 &#45; 20) -->
<g id="edge18" class="edge"><title>n34 (0.32 &#45; 36)&#45;&gt;n31 (0.59 &#45; 20)</title>
<path fill="none" stroke="black" d="M754.01,-817.387C767.73,-807.878 785.368,-795.654 800.408,-785.23"/>
<polygon fill="black" stroke="black" points="802.688,-787.908 808.914,-779.335 798.701,-782.154 802.688,-787.908"/>
</g>
<!-- n32 (0.58 &#45; 7) -->
<g id="node3" class="node"><title>n32 (0.58 &#45; 7)</title>
<ellipse fill="none" stroke="black" cx="387.091" cy="-511.696" rx="59.5901" ry="18"/>
<text text-anchor="middle" x="387.091" y="-507.996" font-family="Times,serif" font-size="14.00">n32 (0.58 &#45; 7)</text>
</g>
<!-- n33 (0.50 &#45; 16)&#45;&gt;n32 (0.58 &#45; 7) -->
<g id="edge2" class="edge"><title>n33 (0.50 &#45; 16)&#45;&gt;n32 (0.58 &#45; 7)</title>
<path fill="none" stroke="black" d="M607.166,-745.343C593.307,-735.312 575.578,-721.75 561.091,-708.271 500.152,-651.574 437.349,-575.9 406.539,-537.422"/>
<polygon fill="black" stroke="black" points="409.081,-534.995 400.113,-529.354 403.606,-539.356 409.081,-534.995"/>
</g>
<!-- n29 (0.80 &#45; 9) -->
<g id="node12" class="node"><title>n29 (0.80 &#45; 9)</title>
<ellipse fill="none" stroke="black" cx="630.091" cy="-511.696" rx="59.5901" ry="18"/>
<text text-anchor="middle" x="630.091" y="-507.996" font-family="Times,serif" font-size="14.00">n29 (0.80 &#45; 9)</text>
</g>
<!-- n33 (0.50 &#45; 16)&#45;&gt;n29 (0.80 &#45; 9) -->
<g id="edge11" class="edge"><title>n33 (0.50 &#45; 16)&#45;&gt;n29 (0.80 &#45; 9)</title>
<path fill="none" stroke="black" d="M630.091,-744.186C630.091,-701.79 630.091,-591.484 630.091,-539.958"/>
<polygon fill="black" stroke="black" points="633.591,-539.901 630.091,-529.901 626.591,-539.901 633.591,-539.901"/>
</g>
<!-- COLLECTIVE_STRENGH -->
<g id="node4" class="node"><title>COLLECTIVE_STRENGH</title>
<ellipse fill="none" stroke="black" cx="199.091" cy="-261.12" rx="109.681" ry="18"/>
<text text-anchor="middle" x="199.091" y="-257.42" font-family="Times,serif" font-size="14.00">COLLECTIVE_STRENGH</text>
</g>
<!-- n32 (0.58 &#45; 7)&#45;&gt;COLLECTIVE_STRENGH -->
<g id="edge3" class="edge"><title>n32 (0.58 &#45; 7)&#45;&gt;COLLECTIVE_STRENGH</title>
<path fill="none" stroke="black" d="M374.464,-494C342.166,-451.295 256.403,-337.898 218.068,-287.212"/>
<polygon fill="black" stroke="black" points="220.735,-284.935 211.911,-279.07 215.152,-289.157 220.735,-284.935"/>
</g>
<!-- n30 (0.75 &#45; 6) -->
<g id="node5" class="node"><title>n30 (0.75 &#45; 6)</title>
<ellipse fill="none" stroke="black" cx="387.091" cy="-261.12" rx="59.5901" ry="18"/>
<text text-anchor="middle" x="387.091" y="-257.42" font-family="Times,serif" font-size="14.00">n30 (0.75 &#45; 6)</text>
</g>
<!-- n32 (0.58 &#45; 7)&#45;&gt;n30 (0.75 &#45; 6) -->
<g id="edge4" class="edge"><title>n32 (0.58 &#45; 7)&#45;&gt;n30 (0.75 &#45; 6)</title>
<path fill="none" stroke="black" d="M387.091,-493.61C387.091,-451.215 387.091,-340.908 387.091,-289.382"/>
<polygon fill="black" stroke="black" points="390.591,-289.325 387.091,-279.325 383.591,-289.325 390.591,-289.325"/>
</g>
<!-- n28 (0.83 &#45; 2) -->
<g id="node6" class="node"><title>n28 (0.83 &#45; 2)</title>
<ellipse fill="none" stroke="black" cx="249.091" cy="-159.037" rx="59.5901" ry="18"/>
<text text-anchor="middle" x="249.091" y="-155.337" font-family="Times,serif" font-size="14.00">n28 (0.83 &#45; 2)</text>
</g>
<!-- n30 (0.75 &#45; 6)&#45;&gt;n28 (0.83 &#45; 2) -->
<g id="edge5" class="edge"><title>n30 (0.75 &#45; 6)&#45;&gt;n28 (0.83 &#45; 2)</title>
<path fill="none" stroke="black" d="M365.225,-244.261C342.009,-227.424 305.157,-200.698 279.204,-181.875"/>
<polygon fill="black" stroke="black" points="281.005,-178.859 270.855,-175.821 276.896,-184.525 281.005,-178.859"/>
</g>
<!-- n27 (0.84 &#45; 4) -->
<g id="node9" class="node"><title>n27 (0.84 &#45; 4)</title>
<ellipse fill="none" stroke="black" cx="387.091" cy="-159.037" rx="59.5901" ry="18"/>
<text text-anchor="middle" x="387.091" y="-155.337" font-family="Times,serif" font-size="14.00">n27 (0.84 &#45; 4)</text>
</g>
<!-- n30 (0.75 &#45; 6)&#45;&gt;n27 (0.84 &#45; 4) -->
<g id="edge8" class="edge"><title>n30 (0.75 &#45; 6)&#45;&gt;n27 (0.84 &#45; 4)</title>
<path fill="none" stroke="black" d="M387.091,-242.687C387.091,-227.474 387.091,-205.141 387.091,-187.524"/>
<polygon fill="black" stroke="black" points="390.591,-187.27 387.091,-177.27 383.591,-187.27 390.591,-187.27"/>
</g>
<!-- TWO_WAY_SUPPORT -->
<g id="node7" class="node"><title>TWO_WAY_SUPPORT</title>
<ellipse fill="none" stroke="black" cx="100.091" cy="-37.4767" rx="100.182" ry="18"/>
<text text-anchor="middle" x="100.091" y="-33.7767" font-family="Times,serif" font-size="14.00">TWO_WAY_SUPPORT</text>
</g>
<!-- n28 (0.83 &#45; 2)&#45;&gt;TWO_WAY_SUPPORT -->
<g id="edge6" class="edge"><title>n28 (0.83 &#45; 2)&#45;&gt;TWO_WAY_SUPPORT</title>
<path fill="none" stroke="black" d="M228.996,-141.912C203.148,-121.171 158.086,-85.013 128.675,-61.4129"/>
<polygon fill="black" stroke="black" points="130.814,-58.6414 120.824,-55.1127 126.433,-64.101 130.814,-58.6414"/>
</g>
<!-- KAPPA -->
<g id="node8" class="node"><title>KAPPA</title>
<ellipse fill="none" stroke="black" cx="258.091" cy="-37.4767" rx="39.7935" ry="18"/>
<text text-anchor="middle" x="258.091" y="-33.7767" font-family="Times,serif" font-size="14.00">KAPPA</text>
</g>
<!-- n28 (0.83 &#45; 2)&#45;&gt;KAPPA -->
<g id="edge7" class="edge"><title>n28 (0.83 &#45; 2)&#45;&gt;KAPPA</title>
<path fill="none" stroke="black" d="M250.381,-140.907C251.858,-121.286 254.297,-88.8741 256.037,-65.7661"/>
<polygon fill="black" stroke="black" points="259.543,-65.8094 256.804,-55.5749 252.563,-65.2839 259.543,-65.8094"/>
</g>
<!-- RECALL -->
<g id="node10" class="node"><title>RECALL</title>
<ellipse fill="none" stroke="black" cx="378.091" cy="-37.4767" rx="44.6926" ry="18"/>
<text text-anchor="middle" x="378.091" y="-33.7767" font-family="Times,serif" font-size="14.00">RECALL</text>
</g>
<!-- n27 (0.84 &#45; 4)&#45;&gt;RECALL -->
<g id="edge9" class="edge"><title>n27 (0.84 &#45; 4)&#45;&gt;RECALL</title>
<path fill="none" stroke="black" d="M385.802,-140.907C384.325,-121.286 381.885,-88.8741 380.145,-65.7661"/>
<polygon fill="black" stroke="black" points="383.619,-65.2839 379.378,-55.5749 376.639,-65.8094 383.619,-65.2839"/>
</g>
<!-- JACCARD\nPIATETSKY_SHAPIRO\nSPECIFICITY -->
<g id="node11" class="node"><title>JACCARD\nPIATETSKY_SHAPIRO\nSPECIFICITY</title>
<ellipse fill="none" stroke="black" cx="550.091" cy="-37.4767" rx="109.703" ry="37.4533"/>
<text text-anchor="middle" x="550.091" y="-48.7767" font-family="Times,serif" font-size="14.00">JACCARD</text>
<text text-anchor="middle" x="550.091" y="-33.7767" font-family="Times,serif" font-size="14.00">PIATETSKY_SHAPIRO</text>
<text text-anchor="middle" x="550.091" y="-18.7767" font-family="Times,serif" font-size="14.00">SPECIFICITY</text>
</g>
<!-- n27 (0.84 &#45; 4)&#45;&gt;JACCARD\nPIATETSKY_SHAPIRO\nSPECIFICITY -->
<g id="edge10" class="edge"><title>n27 (0.84 &#45; 4)&#45;&gt;JACCARD\nPIATETSKY_SHAPIRO\nSPECIFICITY</title>
<path fill="none" stroke="black" d="M408.736,-142.16C430.98,-125.845 466.48,-99.8053 496.338,-77.9043"/>
<polygon fill="black" stroke="black" points="498.601,-80.5852 504.594,-71.8484 494.461,-74.9408 498.601,-80.5852"/>
</g>
<!-- n25 (0.86 &#45; 4) -->
<g id="node13" class="node"><title>n25 (0.86 &#45; 4)</title>
<ellipse fill="none" stroke="black" cx="630.091" cy="-261.12" rx="59.5901" ry="18"/>
<text text-anchor="middle" x="630.091" y="-257.42" font-family="Times,serif" font-size="14.00">n25 (0.86 &#45; 4)</text>
</g>
<!-- n29 (0.80 &#45; 9)&#45;&gt;n25 (0.86 &#45; 4) -->
<g id="edge12" class="edge"><title>n29 (0.80 &#45; 9)&#45;&gt;n25 (0.86 &#45; 4)</title>
<path fill="none" stroke="black" d="M630.091,-493.61C630.091,-451.215 630.091,-340.908 630.091,-289.382"/>
<polygon fill="black" stroke="black" points="633.591,-289.325 630.091,-279.325 626.591,-289.325 633.591,-289.325"/>
</g>
<!-- n26 (0.84 &#45; 5) -->
<g id="node16" class="node"><title>n26 (0.84 &#45; 5)</title>
<ellipse fill="none" stroke="black" cx="971.091" cy="-261.12" rx="59.5901" ry="18"/>
<text text-anchor="middle" x="971.091" y="-257.42" font-family="Times,serif" font-size="14.00">n26 (0.84 &#45; 5)</text>
</g>
<!-- n29 (0.80 &#45; 9)&#45;&gt;n26 (0.84 &#45; 5) -->
<g id="edge15" class="edge"><title>n29 (0.80 &#45; 9)&#45;&gt;n26 (0.84 &#45; 5)</title>
<path fill="none" stroke="black" d="M630.726,-493.468C633.127,-455.074 644.577,-362.17 699.091,-315.12 729.162,-289.166 833.61,-274.643 903.973,-267.603"/>
<polygon fill="black" stroke="black" points="904.48,-271.07 914.094,-266.618 903.802,-264.103 904.48,-271.07"/>
</g>
<!-- COSINE -->
<g id="node14" class="node"><title>COSINE</title>
<ellipse fill="none" stroke="black" cx="507.091" cy="-159.037" rx="42.4939" ry="18"/>
<text text-anchor="middle" x="507.091" y="-155.337" font-family="Times,serif" font-size="14.00">COSINE</text>
</g>
<!-- n25 (0.86 &#45; 4)&#45;&gt;COSINE -->
<g id="edge13" class="edge"><title>n25 (0.86 &#45; 4)&#45;&gt;COSINE</title>
<path fill="none" stroke="black" d="M607.226,-244.272C592.824,-234.053 574.012,-220.261 558.091,-207.12 548.841,-199.485 539.074,-190.67 530.591,-182.746"/>
<polygon fill="black" stroke="black" points="532.887,-180.1 523.213,-175.779 528.081,-185.19 532.887,-180.1"/>
</g>
<!-- J_MEASURE\nTWO_WAY_SUPPORT_VARIATION\nFISHER_PVAL -->
<g id="node15" class="node"><title>J_MEASURE\nTWO_WAY_SUPPORT_VARIATION\nFISHER_PVAL</title>
<ellipse fill="none" stroke="black" cx="734.091" cy="-159.037" rx="166.754" ry="37.4533"/>
<text text-anchor="middle" x="734.091" y="-170.337" font-family="Times,serif" font-size="14.00">J_MEASURE</text>
<text text-anchor="middle" x="734.091" y="-155.337" font-family="Times,serif" font-size="14.00">TWO_WAY_SUPPORT_VARIATION</text>
<text text-anchor="middle" x="734.091" y="-140.337" font-family="Times,serif" font-size="14.00">FISHER_PVAL</text>
</g>
<!-- n25 (0.86 &#45; 4)&#45;&gt;J_MEASURE\nTWO_WAY_SUPPORT_VARIATION\nFISHER_PVAL -->
<g id="edge14" class="edge"><title>n25 (0.86 &#45; 4)&#45;&gt;J_MEASURE\nTWO_WAY_SUPPORT_VARIATION\nFISHER_PVAL</title>
<path fill="none" stroke="black" d="M647.265,-243.593C658.866,-232.428 674.749,-217.144 689.759,-202.699"/>
<polygon fill="black" stroke="black" points="692.257,-205.153 697.036,-195.697 687.403,-200.109 692.257,-205.153"/>
</g>
<!-- KLOSGEN -->
<g id="node17" class="node"><title>KLOSGEN</title>
<ellipse fill="none" stroke="black" cx="971.091" cy="-159.037" rx="51.9908" ry="18"/>
<text text-anchor="middle" x="971.091" y="-155.337" font-family="Times,serif" font-size="14.00">KLOSGEN</text>
</g>
<!-- n26 (0.84 &#45; 5)&#45;&gt;KLOSGEN -->
<g id="edge16" class="edge"><title>n26 (0.84 &#45; 5)&#45;&gt;KLOSGEN</title>
<path fill="none" stroke="black" d="M971.091,-242.687C971.091,-227.474 971.091,-205.141 971.091,-187.524"/>
<polygon fill="black" stroke="black" points="974.591,-187.27 971.091,-177.27 967.591,-187.27 974.591,-187.27"/>
</g>
<!-- GINI\nPHI\nCHI_SQUARE\nIMPLICATION_INDEX -->
<g id="node18" class="node"><title>GINI\nPHI\nCHI_SQUARE\nIMPLICATION_INDEX</title>
<ellipse fill="none" stroke="black" cx="1150.09" cy="-159.037" rx="108.789" ry="48.1667"/>
<text text-anchor="middle" x="1150.09" y="-177.837" font-family="Times,serif" font-size="14.00">GINI</text>
<text text-anchor="middle" x="1150.09" y="-162.837" font-family="Times,serif" font-size="14.00">PHI</text>
<text text-anchor="middle" x="1150.09" y="-147.837" font-family="Times,serif" font-size="14.00">CHI_SQUARE</text>
<text text-anchor="middle" x="1150.09" y="-132.837" font-family="Times,serif" font-size="14.00">IMPLICATION_INDEX</text>
</g>
<!-- n26 (0.84 &#45; 5)&#45;&gt;GINI\nPHI\nCHI_SQUARE\nIMPLICATION_INDEX -->
<g id="edge17" class="edge"><title>n26 (0.84 &#45; 5)&#45;&gt;GINI\nPHI\nCHI_SQUARE\nIMPLICATION_INDEX</title>
<path fill="none" stroke="black" d="M998.277,-244.919C1018.66,-233.521 1047.61,-217.335 1074.77,-202.149"/>
<polygon fill="black" stroke="black" points="1076.5,-205.196 1083.52,-197.261 1073.08,-199.086 1076.5,-205.196"/>
</g>
<!-- LEAST_CONTRADICTION\nACCURACY -->
<g id="node20" class="node"><title>LEAST_CONTRADICTION\nACCURACY</title>
<ellipse fill="none" stroke="black" cx="832.091" cy="-511.696" rx="124.402" ry="26.7407"/>
<text text-anchor="middle" x="832.091" y="-515.496" font-family="Times,serif" font-size="14.00">LEAST_CONTRADICTION</text>
<text text-anchor="middle" x="832.091" y="-500.496" font-family="Times,serif" font-size="14.00">ACCURACY</text>
</g>
<!-- n31 (0.59 &#45; 20)&#45;&gt;LEAST_CONTRADICTION\nACCURACY -->
<g id="edge19" class="edge"><title>n31 (0.59 &#45; 20)&#45;&gt;LEAST_CONTRADICTION\nACCURACY</title>
<path fill="none" stroke="black" d="M832.091,-744.186C832.091,-704.081 832.091,-603.205 832.091,-548.804"/>
<polygon fill="black" stroke="black" points="835.591,-548.576 832.091,-538.576 828.591,-548.576 835.591,-548.576"/>
</g>
<!-- YULE_Y\nYULE_Q\nODDS_RATIO\nRELATIVE_RISK\nLEVERAGE\nONE_WAY_SUPPORT\nCONVICTION\nLOEVINGER\nSEBAG_SCHOENAUER\nODD_MULTIPLIER\nCOUNTER_EXAMPLE_RATE\nZHANG\nBAYES\nCENTERED_CONFIDENCE\nCERTAINTY_FACTOR\nADDED_VALUE\nLIFT\nCONFIDENCE -->
<g id="node21" class="node"><title>YULE_Y\nYULE_Q\nODDS_RATIO\nRELATIVE_RISK\nLEVERAGE\nONE_WAY_SUPPORT\nCONVICTION\nLOEVINGER\nSEBAG_SCHOENAUER\nODD_MULTIPLIER\nCOUNTER_EXAMPLE_RATE\nZHANG\nBAYES\nCENTERED_CONFIDENCE\nCERTAINTY_FACTOR\nADDED_VALUE\nLIFT\nCONFIDENCE</title>
<ellipse fill="none" stroke="black" cx="1112.09" cy="-511.696" rx="137.358" ry="196.651"/>
<text text-anchor="middle" x="1112.09" y="-635.496" font-family="Times,serif" font-size="14.00">YULE_Y</text>
<text text-anchor="middle" x="1112.09" y="-620.496" font-family="Times,serif" font-size="14.00">YULE_Q</text>
<text text-anchor="middle" x="1112.09" y="-605.496" font-family="Times,serif" font-size="14.00">ODDS_RATIO</text>
<text text-anchor="middle" x="1112.09" y="-590.496" font-family="Times,serif" font-size="14.00">RELATIVE_RISK</text>
<text text-anchor="middle" x="1112.09" y="-575.496" font-family="Times,serif" font-size="14.00">LEVERAGE</text>
<text text-anchor="middle" x="1112.09" y="-560.496" font-family="Times,serif" font-size="14.00">ONE_WAY_SUPPORT</text>
<text text-anchor="middle" x="1112.09" y="-545.496" font-family="Times,serif" font-size="14.00">CONVICTION</text>
<text text-anchor="middle" x="1112.09" y="-530.496" font-family="Times,serif" font-size="14.00">LOEVINGER</text>
<text text-anchor="middle" x="1112.09" y="-515.496" font-family="Times,serif" font-size="14.00">SEBAG_SCHOENAUER</text>
<text text-anchor="middle" x="1112.09" y="-500.496" font-family="Times,serif" font-size="14.00">ODD_MULTIPLIER</text>
<text text-anchor="middle" x="1112.09" y="-485.496" font-family="Times,serif" font-size="14.00">COUNTER_EXAMPLE_RATE</text>
<text text-anchor="middle" x="1112.09" y="-470.496" font-family="Times,serif" font-size="14.00">ZHANG</text>
<text text-anchor="middle" x="1112.09" y="-455.496" font-family="Times,serif" font-size="14.00">BAYES</text>
<text text-anchor="middle" x="1112.09" y="-440.496" font-family="Times,serif" font-size="14.00">CENTERED_CONFIDENCE</text>
<text text-anchor="middle" x="1112.09" y="-425.496" font-family="Times,serif" font-size="14.00">CERTAINTY_FACTOR</text>
<text text-anchor="middle" x="1112.09" y="-410.496" font-family="Times,serif" font-size="14.00">ADDED_VALUE</text>
<text text-anchor="middle" x="1112.09" y="-395.496" font-family="Times,serif" font-size="14.00">LIFT</text>
<text text-anchor="middle" x="1112.09" y="-380.496" font-family="Times,serif" font-size="14.00">CONFIDENCE</text>
</g>
<!-- n31 (0.59 &#45; 20)&#45;&gt;YULE_Y\nYULE_Q\nODDS_RATIO\nRELATIVE_RISK\nLEVERAGE\nONE_WAY_SUPPORT\nCONVICTION\nLOEVINGER\nSEBAG_SCHOENAUER\nODD_MULTIPLIER\nCOUNTER_EXAMPLE_RATE\nZHANG\nBAYES\nCENTERED_CONFIDENCE\nCERTAINTY_FACTOR\nADDED_VALUE\nLIFT\nCONFIDENCE -->
<g id="edge20" class="edge"><title>n31 (0.59 &#45; 20)&#45;&gt;YULE_Y\nYULE_Q\nODDS_RATIO\nRELATIVE_RISK\nLEVERAGE\nONE_WAY_SUPPORT\nCONVICTION\nLOEVINGER\nSEBAG_SCHOENAUER\nODD_MULTIPLIER\nCOUNTER_EXAMPLE_RATE\nZHANG\nBAYES\nCENTERED_CONFIDENCE\nCERTAINTY_FACTOR\nADDED_VALUE\nLIFT\nCONFIDENCE</title>
<path fill="none" stroke="black" d="M878.377,-749.655C905.525,-741.257 939.421,-727.897 965.091,-708.271 981.917,-695.407 997.765,-680.135 1012.38,-663.88"/>
<polygon fill="black" stroke="black" points="1015.03,-666.168 1019,-656.348 1009.77,-661.544 1015.03,-666.168"/>
</g>
</g>
</svg>
