<?xml version="1.0" encoding="UTF-8" standalone="no"?>
<!DOCTYPE svg PUBLIC "-//W3C//DTD SVG 1.1//EN"
 "http://www.w3.org/Graphics/SVG/1.1/DTD/svg11.dtd">
<!-- Generated by graphviz version 2.38.0 (20140413.2041)
 -->
<!-- Title: dendrogram Pages: 1 -->
<svg width="2609pt" height="2350pt"
 viewBox="0.00 0.00 2609.34 2350.43" xmlns="http://www.w3.org/2000/svg" xmlns:xlink="http://www.w3.org/1999/xlink">
<g id="graph0" class="graph" transform="scale(1 1) rotate(0) translate(4 2346.43)">
<title>dendrogram</title>
<polygon fill="white" stroke="none" points="-4,4 -4,-2346.43 2605.34,-2346.43 2605.34,4 -4,4"/>
<!-- n34 (0.00 &#45; 36) -->
<g id="node1" class="node"><title>n34 (0.00 &#45; 36)</title>
<ellipse fill="none" stroke="black" cx="135.044" cy="-2324.43" rx="64.189" ry="18"/>
<text text-anchor="middle" x="135.044" y="-2320.73" font-family="Times,serif" font-size="14.00">n34 (0.00 &#45; 36)</text>
</g>
<!-- SPECIFICITY -->
<g id="node2" class="node"><title>SPECIFICITY</title>
<ellipse fill="none" stroke="black" cx="63.0444" cy="-2252.43" rx="63.0888" ry="18"/>
<text text-anchor="middle" x="63.0444" y="-2248.73" font-family="Times,serif" font-size="14.00">SPECIFICITY</text>
</g>
<!-- n34 (0.00 &#45; 36)&#45;&gt;SPECIFICITY -->
<g id="edge1" class="edge"><title>n34 (0.00 &#45; 36)&#45;&gt;SPECIFICITY</title>
<path fill="none" stroke="black" d="M117.981,-2306.84C108.835,-2297.95 97.4096,-2286.84 87.3505,-2277.06"/>
<polygon fill="black" stroke="black" points="89.5947,-2274.36 79.9849,-2269.9 84.7151,-2279.38 89.5947,-2274.36"/>
</g>
<!-- n33 (0.00 &#45; 35) -->
<g id="node3" class="node"><title>n33 (0.00 &#45; 35)</title>
<ellipse fill="none" stroke="black" cx="208.044" cy="-2252.43" rx="64.189" ry="18"/>
<text text-anchor="middle" x="208.044" y="-2248.73" font-family="Times,serif" font-size="14.00">n33 (0.00 &#45; 35)</text>
</g>
<!-- n34 (0.00 &#45; 36)&#45;&gt;n33 (0.00 &#45; 35) -->
<g id="edge2" class="edge"><title>n34 (0.00 &#45; 36)&#45;&gt;n33 (0.00 &#45; 35)</title>
<path fill="none" stroke="black" d="M152.344,-2306.84C161.617,-2297.95 173.202,-2286.84 183.401,-2277.06"/>
<polygon fill="black" stroke="black" points="186.073,-2279.35 190.869,-2269.9 181.228,-2274.3 186.073,-2279.35"/>
</g>
<!-- ACCURACY -->
<g id="node4" class="node"><title>ACCURACY</title>
<ellipse fill="none" stroke="black" cx="137.044" cy="-2180.43" rx="59.5901" ry="18"/>
<text text-anchor="middle" x="137.044" y="-2176.73" font-family="Times,serif" font-size="14.00">ACCURACY</text>
</g>
<!-- n33 (0.00 &#45; 35)&#45;&gt;ACCURACY -->
<g id="edge3" class="edge"><title>n33 (0.00 &#45; 35)&#45;&gt;ACCURACY</title>
<path fill="none" stroke="black" d="M191.218,-2234.84C182.199,-2225.95 170.932,-2214.84 161.013,-2205.06"/>
<polygon fill="black" stroke="black" points="163.328,-2202.43 153.75,-2197.9 158.413,-2207.42 163.328,-2202.43"/>
</g>
<!-- n32 (0.00 &#45; 34) -->
<g id="node5" class="node"><title>n32 (0.00 &#45; 34)</title>
<ellipse fill="none" stroke="black" cx="279.044" cy="-2180.43" rx="64.189" ry="18"/>
<text text-anchor="middle" x="279.044" y="-2176.73" font-family="Times,serif" font-size="14.00">n32 (0.00 &#45; 34)</text>
</g>
<!-- n33 (0.00 &#45; 35)&#45;&gt;n32 (0.00 &#45; 34) -->
<g id="edge4" class="edge"><title>n33 (0.00 &#45; 35)&#45;&gt;n32 (0.00 &#45; 34)</title>
<path fill="none" stroke="black" d="M224.87,-2234.84C233.889,-2225.95 245.156,-2214.84 255.076,-2205.06"/>
<polygon fill="black" stroke="black" points="257.675,-2207.42 262.339,-2197.9 252.761,-2202.43 257.675,-2207.42"/>
</g>
<!-- LIFT -->
<g id="node6" class="node"><title>LIFT</title>
<ellipse fill="none" stroke="black" cx="223.044" cy="-2108.43" rx="29.4969" ry="18"/>
<text text-anchor="middle" x="223.044" y="-2104.73" font-family="Times,serif" font-size="14.00">LIFT</text>
</g>
<!-- n32 (0.00 &#45; 34)&#45;&gt;LIFT -->
<g id="edge5" class="edge"><title>n32 (0.00 &#45; 34)&#45;&gt;LIFT</title>
<path fill="none" stroke="black" d="M265.488,-2162.49C258.378,-2153.6 249.557,-2142.57 241.801,-2132.88"/>
<polygon fill="black" stroke="black" points="244.31,-2130.41 235.33,-2124.79 238.843,-2134.79 244.31,-2130.41"/>
</g>
<!-- n31 (0.00 &#45; 33) -->
<g id="node7" class="node"><title>n31 (0.00 &#45; 33)</title>
<ellipse fill="none" stroke="black" cx="335.044" cy="-2108.43" rx="64.189" ry="18"/>
<text text-anchor="middle" x="335.044" y="-2104.73" font-family="Times,serif" font-size="14.00">n31 (0.00 &#45; 33)</text>
</g>
<!-- n32 (0.00 &#45; 34)&#45;&gt;n31 (0.00 &#45; 33) -->
<g id="edge6" class="edge"><title>n32 (0.00 &#45; 34)&#45;&gt;n31 (0.00 &#45; 33)</title>
<path fill="none" stroke="black" d="M292.6,-2162.49C299.41,-2153.98 307.79,-2143.5 315.299,-2134.12"/>
<polygon fill="black" stroke="black" points="318.099,-2136.22 321.613,-2126.22 312.633,-2131.84 318.099,-2136.22"/>
</g>
<!-- LEVERAGE -->
<g id="node8" class="node"><title>LEVERAGE</title>
<ellipse fill="none" stroke="black" cx="265.044" cy="-2036.43" rx="57.3905" ry="18"/>
<text text-anchor="middle" x="265.044" y="-2032.73" font-family="Times,serif" font-size="14.00">LEVERAGE</text>
</g>
<!-- n31 (0.00 &#45; 33)&#45;&gt;LEVERAGE -->
<g id="edge7" class="edge"><title>n31 (0.00 &#45; 33)&#45;&gt;LEVERAGE</title>
<path fill="none" stroke="black" d="M318.455,-2090.84C309.563,-2081.95 298.455,-2070.84 288.675,-2061.06"/>
<polygon fill="black" stroke="black" points="291.06,-2058.5 281.514,-2053.9 286.111,-2063.45 291.06,-2058.5"/>
</g>
<!-- n30 (0.00 &#45; 32) -->
<g id="node9" class="node"><title>n30 (0.00 &#45; 32)</title>
<ellipse fill="none" stroke="black" cx="405.044" cy="-2036.43" rx="64.189" ry="18"/>
<text text-anchor="middle" x="405.044" y="-2032.73" font-family="Times,serif" font-size="14.00">n30 (0.00 &#45; 32)</text>
</g>
<!-- n31 (0.00 &#45; 33)&#45;&gt;n30 (0.00 &#45; 32) -->
<g id="edge8" class="edge"><title>n31 (0.00 &#45; 33)&#45;&gt;n30 (0.00 &#45; 32)</title>
<path fill="none" stroke="black" d="M351.633,-2090.84C360.525,-2081.95 371.634,-2070.84 381.414,-2061.06"/>
<polygon fill="black" stroke="black" points="383.978,-2063.45 388.574,-2053.9 379.028,-2058.5 383.978,-2063.45"/>
</g>
<!-- CENTERED_CONFIDENCE\nADDED_VALUE -->
<g id="node10" class="node"><title>CENTERED_CONFIDENCE\nADDED_VALUE</title>
<ellipse fill="none" stroke="black" cx="301.044" cy="-1955.56" rx="126.644" ry="26.7407"/>
<text text-anchor="middle" x="301.044" y="-1959.36" font-family="Times,serif" font-size="14.00">CENTERED_CONFIDENCE</text>
<text text-anchor="middle" x="301.044" y="-1944.36" font-family="Times,serif" font-size="14.00">ADDED_VALUE</text>
</g>
<!-- n30 (0.00 &#45; 32)&#45;&gt;CENTERED_CONFIDENCE\nADDED_VALUE -->
<g id="edge9" class="edge"><title>n30 (0.00 &#45; 32)&#45;&gt;CENTERED_CONFIDENCE\nADDED_VALUE</title>
<path fill="none" stroke="black" d="M383.747,-2019.28C371.825,-2010.24 356.548,-1998.66 342.375,-1987.91"/>
<polygon fill="black" stroke="black" points="344.275,-1984.96 334.192,-1981.7 340.045,-1990.53 344.275,-1984.96"/>
</g>
<!-- n29 (0.00 &#45; 30) -->
<g id="node11" class="node"><title>n29 (0.00 &#45; 30)</title>
<ellipse fill="none" stroke="black" cx="510.044" cy="-1955.56" rx="64.189" ry="18"/>
<text text-anchor="middle" x="510.044" y="-1951.86" font-family="Times,serif" font-size="14.00">n29 (0.00 &#45; 30)</text>
</g>
<!-- n30 (0.00 &#45; 32)&#45;&gt;n29 (0.00 &#45; 30) -->
<g id="edge10" class="edge"><title>n30 (0.00 &#45; 32)&#45;&gt;n29 (0.00 &#45; 30)</title>
<path fill="none" stroke="black" d="M426.546,-2019.28C442.118,-2007.59 463.357,-1991.63 480.518,-1978.74"/>
<polygon fill="black" stroke="black" points="482.678,-1981.5 488.571,-1972.69 478.474,-1975.9 482.678,-1981.5"/>
</g>
<!-- RELATIVE_RISK -->
<g id="node12" class="node"><title>RELATIVE_RISK</title>
<ellipse fill="none" stroke="black" cx="430.044" cy="-1874.69" rx="77.9862" ry="18"/>
<text text-anchor="middle" x="430.044" y="-1870.99" font-family="Times,serif" font-size="14.00">RELATIVE_RISK</text>
</g>
<!-- n29 (0.00 &#45; 30)&#45;&gt;RELATIVE_RISK -->
<g id="edge11" class="edge"><title>n29 (0.00 &#45; 30)&#45;&gt;RELATIVE_RISK</title>
<path fill="none" stroke="black" d="M493.078,-1937.84C481.836,-1926.75 466.91,-1912.04 454.405,-1899.71"/>
<polygon fill="black" stroke="black" points="456.564,-1896.92 446.986,-1892.4 451.65,-1901.91 456.564,-1896.92"/>
</g>
<!-- n28 (0.00 &#45; 29) -->
<g id="node13" class="node"><title>n28 (0.00 &#45; 29)</title>
<ellipse fill="none" stroke="black" cx="590.044" cy="-1874.69" rx="64.189" ry="18"/>
<text text-anchor="middle" x="590.044" y="-1870.99" font-family="Times,serif" font-size="14.00">n28 (0.00 &#45; 29)</text>
</g>
<!-- n29 (0.00 &#45; 30)&#45;&gt;n28 (0.00 &#45; 29) -->
<g id="edge12" class="edge"><title>n29 (0.00 &#45; 30)&#45;&gt;n28 (0.00 &#45; 29)</title>
<path fill="none" stroke="black" d="M527.01,-1937.84C538.329,-1926.68 553.381,-1911.84 565.937,-1899.46"/>
<polygon fill="black" stroke="black" points="568.713,-1901.64 573.377,-1892.13 563.799,-1896.65 568.713,-1901.64"/>
</g>
<!-- JACCARD -->
<g id="node14" class="node"><title>JACCARD</title>
<ellipse fill="none" stroke="black" cx="523.044" cy="-1802.69" rx="50.8918" ry="18"/>
<text text-anchor="middle" x="523.044" y="-1798.99" font-family="Times,serif" font-size="14.00">JACCARD</text>
</g>
<!-- n28 (0.00 &#45; 29)&#45;&gt;JACCARD -->
<g id="edge13" class="edge"><title>n28 (0.00 &#45; 29)&#45;&gt;JACCARD</title>
<path fill="none" stroke="black" d="M574.166,-1857.1C565.739,-1848.3 555.231,-1837.32 545.938,-1827.61"/>
<polygon fill="black" stroke="black" points="548.252,-1824.97 538.808,-1820.16 543.195,-1829.81 548.252,-1824.97"/>
</g>
<!-- n27 (0.00 &#45; 28) -->
<g id="node15" class="node"><title>n27 (0.00 &#45; 28)</title>
<ellipse fill="none" stroke="black" cx="656.044" cy="-1802.69" rx="64.189" ry="18"/>
<text text-anchor="middle" x="656.044" y="-1798.99" font-family="Times,serif" font-size="14.00">n27 (0.00 &#45; 28)</text>
</g>
<!-- n28 (0.00 &#45; 29)&#45;&gt;n27 (0.00 &#45; 28) -->
<g id="edge14" class="edge"><title>n28 (0.00 &#45; 29)&#45;&gt;n27 (0.00 &#45; 28)</title>
<path fill="none" stroke="black" d="M605.685,-1857.1C613.987,-1848.3 624.338,-1837.32 633.492,-1827.61"/>
<polygon fill="black" stroke="black" points="636.202,-1829.84 640.516,-1820.16 631.109,-1825.04 636.202,-1829.84"/>
</g>
<!-- CERTAINTY_FACTOR -->
<g id="node16" class="node"><title>CERTAINTY_FACTOR</title>
<ellipse fill="none" stroke="black" cx="565.044" cy="-1730.69" rx="99.3824" ry="18"/>
<text text-anchor="middle" x="565.044" y="-1726.99" font-family="Times,serif" font-size="14.00">CERTAINTY_FACTOR</text>
</g>
<!-- n27 (0.00 &#45; 28)&#45;&gt;CERTAINTY_FACTOR -->
<g id="edge15" class="edge"><title>n27 (0.00 &#45; 28)&#45;&gt;CERTAINTY_FACTOR</title>
<path fill="none" stroke="black" d="M634.938,-1785.46C623.051,-1776.31 608.01,-1764.74 594.928,-1754.68"/>
<polygon fill="black" stroke="black" points="596.728,-1751.65 586.668,-1748.33 592.46,-1757.2 596.728,-1751.65"/>
</g>
<!-- n26 (0.00 &#45; 27) -->
<g id="node17" class="node"><title>n26 (0.00 &#45; 27)</title>
<ellipse fill="none" stroke="black" cx="747.044" cy="-1730.69" rx="64.189" ry="18"/>
<text text-anchor="middle" x="747.044" y="-1726.99" font-family="Times,serif" font-size="14.00">n26 (0.00 &#45; 27)</text>
</g>
<!-- n27 (0.00 &#45; 28)&#45;&gt;n26 (0.00 &#45; 27) -->
<g id="edge16" class="edge"><title>n27 (0.00 &#45; 28)&#45;&gt;n26 (0.00 &#45; 27)</title>
<path fill="none" stroke="black" d="M677.15,-1785.46C689.325,-1776.09 704.807,-1764.18 718.105,-1753.95"/>
<polygon fill="black" stroke="black" points="720.261,-1756.71 726.053,-1747.84 715.993,-1751.16 720.261,-1756.71"/>
</g>
<!-- YULE_Y\nYULE_Q\nODDS_RATIO -->
<g id="node18" class="node"><title>YULE_Y\nYULE_Q\nODDS_RATIO</title>
<ellipse fill="none" stroke="black" cx="670.044" cy="-1639.22" rx="71.3357" ry="37.4533"/>
<text text-anchor="middle" x="670.044" y="-1650.52" font-family="Times,serif" font-size="14.00">YULE_Y</text>
<text text-anchor="middle" x="670.044" y="-1635.52" font-family="Times,serif" font-size="14.00">YULE_Q</text>
<text text-anchor="middle" x="670.044" y="-1620.52" font-family="Times,serif" font-size="14.00">ODDS_RATIO</text>
</g>
<!-- n26 (0.00 &#45; 27)&#45;&gt;YULE_Y\nYULE_Q\nODDS_RATIO -->
<g id="edge17" class="edge"><title>n26 (0.00 &#45; 27)&#45;&gt;YULE_Y\nYULE_Q\nODDS_RATIO</title>
<path fill="none" stroke="black" d="M732.561,-1712.86C724.845,-1703.9 714.985,-1692.44 705.389,-1681.29"/>
<polygon fill="black" stroke="black" points="707.993,-1678.95 698.817,-1673.65 702.687,-1683.51 707.993,-1678.95"/>
</g>
<!-- n25 (0.00 &#45; 24) -->
<g id="node19" class="node"><title>n25 (0.00 &#45; 24)</title>
<ellipse fill="none" stroke="black" cx="824.044" cy="-1639.22" rx="64.189" ry="18"/>
<text text-anchor="middle" x="824.044" y="-1635.52" font-family="Times,serif" font-size="14.00">n25 (0.00 &#45; 24)</text>
</g>
<!-- n26 (0.00 &#45; 27)&#45;&gt;n25 (0.00 &#45; 24) -->
<g id="edge18" class="edge"><title>n26 (0.00 &#45; 27)&#45;&gt;n25 (0.00 &#45; 24)</title>
<path fill="none" stroke="black" d="M761.528,-1712.86C773.25,-1699.24 789.92,-1679.87 803.098,-1664.56"/>
<polygon fill="black" stroke="black" points="805.756,-1666.83 809.626,-1656.97 800.45,-1662.27 805.756,-1666.83"/>
</g>
<!-- KAPPA -->
<g id="node20" class="node"><title>KAPPA</title>
<ellipse fill="none" stroke="black" cx="763.044" cy="-1547.74" rx="39.7935" ry="18"/>
<text text-anchor="middle" x="763.044" y="-1544.04" font-family="Times,serif" font-size="14.00">KAPPA</text>
</g>
<!-- n25 (0.00 &#45; 24)&#45;&gt;KAPPA -->
<g id="edge19" class="edge"><title>n25 (0.00 &#45; 24)&#45;&gt;KAPPA</title>
<path fill="none" stroke="black" d="M812.571,-1621.39C803.396,-1607.93 790.398,-1588.86 780.02,-1573.64"/>
<polygon fill="black" stroke="black" points="782.785,-1571.48 774.26,-1565.19 777.002,-1575.43 782.785,-1571.48"/>
</g>
<!-- n24 (0.00 &#45; 23) -->
<g id="node21" class="node"><title>n24 (0.00 &#45; 23)</title>
<ellipse fill="none" stroke="black" cx="885.044" cy="-1547.74" rx="64.189" ry="18"/>
<text text-anchor="middle" x="885.044" y="-1544.04" font-family="Times,serif" font-size="14.00">n24 (0.00 &#45; 23)</text>
</g>
<!-- n25 (0.00 &#45; 24)&#45;&gt;n24 (0.00 &#45; 23) -->
<g id="edge20" class="edge"><title>n25 (0.00 &#45; 24)&#45;&gt;n24 (0.00 &#45; 23)</title>
<path fill="none" stroke="black" d="M835.518,-1621.39C844.635,-1608.01 857.527,-1589.1 867.873,-1573.93"/>
<polygon fill="black" stroke="black" points="870.881,-1575.73 873.622,-1565.49 865.097,-1571.79 870.881,-1575.73"/>
</g>
<!-- IMPLICATION_INDEX -->
<g id="node22" class="node"><title>IMPLICATION_INDEX</title>
<ellipse fill="none" stroke="black" cx="794.044" cy="-1475.74" rx="100.182" ry="18"/>
<text text-anchor="middle" x="794.044" y="-1472.04" font-family="Times,serif" font-size="14.00">IMPLICATION_INDEX</text>
</g>
<!-- n24 (0.00 &#45; 23)&#45;&gt;IMPLICATION_INDEX -->
<g id="edge21" class="edge"><title>n24 (0.00 &#45; 23)&#45;&gt;IMPLICATION_INDEX</title>
<path fill="none" stroke="black" d="M863.938,-1530.5C852.051,-1521.36 837.01,-1509.79 823.928,-1499.73"/>
<polygon fill="black" stroke="black" points="825.728,-1496.7 815.668,-1493.37 821.46,-1502.24 825.728,-1496.7"/>
</g>
<!-- n23 (0.00 &#45; 22) -->
<g id="node23" class="node"><title>n23 (0.00 &#45; 22)</title>
<ellipse fill="none" stroke="black" cx="976.044" cy="-1475.74" rx="64.189" ry="18"/>
<text text-anchor="middle" x="976.044" y="-1472.04" font-family="Times,serif" font-size="14.00">n23 (0.00 &#45; 22)</text>
</g>
<!-- n24 (0.00 &#45; 23)&#45;&gt;n23 (0.00 &#45; 22) -->
<g id="edge22" class="edge"><title>n24 (0.00 &#45; 23)&#45;&gt;n23 (0.00 &#45; 22)</title>
<path fill="none" stroke="black" d="M906.15,-1530.5C918.325,-1521.14 933.807,-1509.23 947.105,-1499"/>
<polygon fill="black" stroke="black" points="949.261,-1501.76 955.053,-1492.89 944.993,-1496.21 949.261,-1501.76"/>
</g>
<!-- KLOSGEN -->
<g id="node24" class="node"><title>KLOSGEN</title>
<ellipse fill="none" stroke="black" cx="909.044" cy="-1403.74" rx="51.9908" ry="18"/>
<text text-anchor="middle" x="909.044" y="-1400.04" font-family="Times,serif" font-size="14.00">KLOSGEN</text>
</g>
<!-- n23 (0.00 &#45; 22)&#45;&gt;KLOSGEN -->
<g id="edge23" class="edge"><title>n23 (0.00 &#45; 22)&#45;&gt;KLOSGEN</title>
<path fill="none" stroke="black" d="M960.166,-1458.15C951.739,-1449.35 941.231,-1438.37 931.938,-1428.66"/>
<polygon fill="black" stroke="black" points="934.252,-1426.01 924.808,-1421.21 929.195,-1430.85 934.252,-1426.01"/>
</g>
<!-- n22 (0.00 &#45; 21) -->
<g id="node25" class="node"><title>n22 (0.00 &#45; 21)</title>
<ellipse fill="none" stroke="black" cx="1043.04" cy="-1403.74" rx="64.189" ry="18"/>
<text text-anchor="middle" x="1043.04" y="-1400.04" font-family="Times,serif" font-size="14.00">n22 (0.00 &#45; 21)</text>
</g>
<!-- n23 (0.00 &#45; 22)&#45;&gt;n22 (0.00 &#45; 21) -->
<g id="edge24" class="edge"><title>n23 (0.00 &#45; 22)&#45;&gt;n22 (0.00 &#45; 21)</title>
<path fill="none" stroke="black" d="M991.922,-1458.15C1000.35,-1449.35 1010.86,-1438.37 1020.15,-1428.66"/>
<polygon fill="black" stroke="black" points="1022.89,-1430.85 1027.28,-1421.21 1017.84,-1426.01 1022.89,-1430.85"/>
</g>
<!-- LOEVINGER\nCONVICTION -->
<g id="node26" class="node"><title>LOEVINGER\nCONVICTION</title>
<ellipse fill="none" stroke="black" cx="966.044" cy="-1322.87" rx="71.3357" ry="26.7407"/>
<text text-anchor="middle" x="966.044" y="-1326.67" font-family="Times,serif" font-size="14.00">LOEVINGER</text>
<text text-anchor="middle" x="966.044" y="-1311.67" font-family="Times,serif" font-size="14.00">CONVICTION</text>
</g>
<!-- n22 (0.00 &#45; 21)&#45;&gt;LOEVINGER\nCONVICTION -->
<g id="edge25" class="edge"><title>n22 (0.00 &#45; 21)&#45;&gt;LOEVINGER\nCONVICTION</title>
<path fill="none" stroke="black" d="M1026.71,-1386.01C1018.12,-1377.21 1007.28,-1366.11 997.158,-1355.74"/>
<polygon fill="black" stroke="black" points="999.443,-1353.07 989.953,-1348.36 994.434,-1357.96 999.443,-1353.07"/>
</g>
<!-- n21 (0.00 &#45; 19) -->
<g id="node27" class="node"><title>n21 (0.00 &#45; 19)</title>
<ellipse fill="none" stroke="black" cx="1120.04" cy="-1322.87" rx="64.189" ry="18"/>
<text text-anchor="middle" x="1120.04" y="-1319.17" font-family="Times,serif" font-size="14.00">n21 (0.00 &#45; 19)</text>
</g>
<!-- n22 (0.00 &#45; 21)&#45;&gt;n21 (0.00 &#45; 19) -->
<g id="edge26" class="edge"><title>n22 (0.00 &#45; 21)&#45;&gt;n21 (0.00 &#45; 19)</title>
<path fill="none" stroke="black" d="M1059.37,-1386.01C1070.27,-1374.85 1084.76,-1360.02 1096.84,-1347.64"/>
<polygon fill="black" stroke="black" points="1099.52,-1349.9 1104,-1340.3 1094.51,-1345.01 1099.52,-1349.9"/>
</g>
<!-- COLLECTIVE_STRENGH -->
<g id="node28" class="node"><title>COLLECTIVE_STRENGH</title>
<ellipse fill="none" stroke="black" cx="1024.04" cy="-1242" rx="109.681" ry="18"/>
<text text-anchor="middle" x="1024.04" y="-1238.3" font-family="Times,serif" font-size="14.00">COLLECTIVE_STRENGH</text>
</g>
<!-- n21 (0.00 &#45; 19)&#45;&gt;COLLECTIVE_STRENGH -->
<g id="edge27" class="edge"><title>n21 (0.00 &#45; 19)&#45;&gt;COLLECTIVE_STRENGH</title>
<path fill="none" stroke="black" d="M1100.15,-1305.53C1086.44,-1294.26 1067.99,-1279.11 1052.7,-1266.54"/>
<polygon fill="black" stroke="black" points="1054.52,-1263.51 1044.57,-1259.87 1050.08,-1268.92 1054.52,-1263.51"/>
</g>
<!-- n20 (0.00 &#45; 18) -->
<g id="node29" class="node"><title>n20 (0.00 &#45; 18)</title>
<ellipse fill="none" stroke="black" cx="1216.04" cy="-1242" rx="64.189" ry="18"/>
<text text-anchor="middle" x="1216.04" y="-1238.3" font-family="Times,serif" font-size="14.00">n20 (0.00 &#45; 18)</text>
</g>
<!-- n21 (0.00 &#45; 19)&#45;&gt;n20 (0.00 &#45; 18) -->
<g id="edge28" class="edge"><title>n21 (0.00 &#45; 19)&#45;&gt;n20 (0.00 &#45; 18)</title>
<path fill="none" stroke="black" d="M1139.94,-1305.53C1153.97,-1294 1172.94,-1278.41 1188.44,-1265.68"/>
<polygon fill="black" stroke="black" points="1190.67,-1268.37 1196.18,-1259.32 1186.23,-1262.96 1190.67,-1268.37"/>
</g>
<!-- GINI -->
<g id="node30" class="node"><title>GINI</title>
<ellipse fill="none" stroke="black" cx="1160.04" cy="-1170" rx="29.4969" ry="18"/>
<text text-anchor="middle" x="1160.04" y="-1166.3" font-family="Times,serif" font-size="14.00">GINI</text>
</g>
<!-- n20 (0.00 &#45; 18)&#45;&gt;GINI -->
<g id="edge29" class="edge"><title>n20 (0.00 &#45; 18)&#45;&gt;GINI</title>
<path fill="none" stroke="black" d="M1202.49,-1224.05C1195.38,-1215.17 1186.56,-1204.14 1178.8,-1194.45"/>
<polygon fill="black" stroke="black" points="1181.31,-1191.98 1172.33,-1186.36 1175.84,-1196.35 1181.31,-1191.98"/>
</g>
<!-- n19 (0.00 &#45; 17) -->
<g id="node31" class="node"><title>n19 (0.00 &#45; 17)</title>
<ellipse fill="none" stroke="black" cx="1272.04" cy="-1170" rx="64.189" ry="18"/>
<text text-anchor="middle" x="1272.04" y="-1166.3" font-family="Times,serif" font-size="14.00">n19 (0.00 &#45; 17)</text>
</g>
<!-- n20 (0.00 &#45; 18)&#45;&gt;n19 (0.00 &#45; 17) -->
<g id="edge30" class="edge"><title>n20 (0.00 &#45; 18)&#45;&gt;n19 (0.00 &#45; 17)</title>
<path fill="none" stroke="black" d="M1229.6,-1224.05C1236.41,-1215.54 1244.79,-1205.07 1252.3,-1195.68"/>
<polygon fill="black" stroke="black" points="1255.1,-1197.78 1258.61,-1187.79 1249.63,-1193.41 1255.1,-1197.78"/>
</g>
<!-- J_MEASURE -->
<g id="node32" class="node"><title>J_MEASURE</title>
<ellipse fill="none" stroke="black" cx="1201.04" cy="-1098" rx="61.1893" ry="18"/>
<text text-anchor="middle" x="1201.04" y="-1094.3" font-family="Times,serif" font-size="14.00">J_MEASURE</text>
</g>
<!-- n19 (0.00 &#45; 17)&#45;&gt;J_MEASURE -->
<g id="edge31" class="edge"><title>n19 (0.00 &#45; 17)&#45;&gt;J_MEASURE</title>
<path fill="none" stroke="black" d="M1255.22,-1152.41C1246.2,-1143.52 1234.93,-1132.41 1225.01,-1122.63"/>
<polygon fill="black" stroke="black" points="1227.33,-1120 1217.75,-1115.47 1222.41,-1124.98 1227.33,-1120"/>
</g>
<!-- n18 (0.00 &#45; 16) -->
<g id="node33" class="node"><title>n18 (0.00 &#45; 16)</title>
<ellipse fill="none" stroke="black" cx="1344.04" cy="-1098" rx="64.189" ry="18"/>
<text text-anchor="middle" x="1344.04" y="-1094.3" font-family="Times,serif" font-size="14.00">n18 (0.00 &#45; 16)</text>
</g>
<!-- n19 (0.00 &#45; 17)&#45;&gt;n18 (0.00 &#45; 16) -->
<g id="edge32" class="edge"><title>n19 (0.00 &#45; 17)&#45;&gt;n18 (0.00 &#45; 16)</title>
<path fill="none" stroke="black" d="M1289.11,-1152.41C1298.25,-1143.52 1309.68,-1132.41 1319.74,-1122.63"/>
<polygon fill="black" stroke="black" points="1322.37,-1124.95 1327.1,-1115.47 1317.49,-1119.93 1322.37,-1124.95"/>
</g>
<!-- ONE_WAY_SUPPORT -->
<g id="node34" class="node"><title>ONE_WAY_SUPPORT</title>
<ellipse fill="none" stroke="black" cx="1254.04" cy="-1026" rx="97.4827" ry="18"/>
<text text-anchor="middle" x="1254.04" y="-1022.3" font-family="Times,serif" font-size="14.00">ONE_WAY_SUPPORT</text>
</g>
<!-- n18 (0.00 &#45; 16)&#45;&gt;ONE_WAY_SUPPORT -->
<g id="edge33" class="edge"><title>n18 (0.00 &#45; 16)&#45;&gt;ONE_WAY_SUPPORT</title>
<path fill="none" stroke="black" d="M1323.17,-1080.76C1311.41,-1071.62 1296.54,-1060.05 1283.6,-1049.99"/>
<polygon fill="black" stroke="black" points="1285.47,-1047.01 1275.43,-1043.63 1281.17,-1052.54 1285.47,-1047.01"/>
</g>
<!-- n17 (0.00 &#45; 15) -->
<g id="node35" class="node"><title>n17 (0.00 &#45; 15)</title>
<ellipse fill="none" stroke="black" cx="1434.04" cy="-1026" rx="64.189" ry="18"/>
<text text-anchor="middle" x="1434.04" y="-1022.3" font-family="Times,serif" font-size="14.00">n17 (0.00 &#45; 15)</text>
</g>
<!-- n18 (0.00 &#45; 16)&#45;&gt;n17 (0.00 &#45; 15) -->
<g id="edge34" class="edge"><title>n18 (0.00 &#45; 16)&#45;&gt;n17 (0.00 &#45; 15)</title>
<path fill="none" stroke="black" d="M1364.92,-1080.76C1376.85,-1071.49 1391.98,-1059.71 1405.05,-1049.55"/>
<polygon fill="black" stroke="black" points="1407.54,-1052.05 1413.28,-1043.15 1403.24,-1046.52 1407.54,-1052.05"/>
</g>
<!-- TWO_WAY_SUPPORT -->
<g id="node36" class="node"><title>TWO_WAY_SUPPORT</title>
<ellipse fill="none" stroke="black" cx="1343.04" cy="-954" rx="100.182" ry="18"/>
<text text-anchor="middle" x="1343.04" y="-950.3" font-family="Times,serif" font-size="14.00">TWO_WAY_SUPPORT</text>
</g>
<!-- n17 (0.00 &#45; 15)&#45;&gt;TWO_WAY_SUPPORT -->
<g id="edge35" class="edge"><title>n17 (0.00 &#45; 15)&#45;&gt;TWO_WAY_SUPPORT</title>
<path fill="none" stroke="black" d="M1412.94,-1008.76C1401.05,-999.621 1386.01,-988.05 1372.93,-977.988"/>
<polygon fill="black" stroke="black" points="1374.73,-974.956 1364.67,-971.633 1370.46,-980.505 1374.73,-974.956"/>
</g>
<!-- n16 (0.00 &#45; 14) -->
<g id="node37" class="node"><title>n16 (0.00 &#45; 14)</title>
<ellipse fill="none" stroke="black" cx="1525.04" cy="-954" rx="64.189" ry="18"/>
<text text-anchor="middle" x="1525.04" y="-950.3" font-family="Times,serif" font-size="14.00">n16 (0.00 &#45; 14)</text>
</g>
<!-- n17 (0.00 &#45; 15)&#45;&gt;n16 (0.00 &#45; 14) -->
<g id="edge36" class="edge"><title>n17 (0.00 &#45; 15)&#45;&gt;n16 (0.00 &#45; 14)</title>
<path fill="none" stroke="black" d="M1455.15,-1008.76C1467.32,-999.4 1482.81,-987.49 1496.1,-977.261"/>
<polygon fill="black" stroke="black" points="1498.26,-980.019 1504.05,-971.147 1493.99,-974.47 1498.26,-980.019"/>
</g>
<!-- TWO_WAY_SUPPORT_VARIATION -->
<g id="node38" class="node"><title>TWO_WAY_SUPPORT_VARIATION</title>
<ellipse fill="none" stroke="black" cx="1407.04" cy="-882" rx="153.273" ry="18"/>
<text text-anchor="middle" x="1407.04" y="-878.3" font-family="Times,serif" font-size="14.00">TWO_WAY_SUPPORT_VARIATION</text>
</g>
<!-- n16 (0.00 &#45; 14)&#45;&gt;TWO_WAY_SUPPORT_VARIATION -->
<g id="edge37" class="edge"><title>n16 (0.00 &#45; 14)&#45;&gt;TWO_WAY_SUPPORT_VARIATION</title>
<path fill="none" stroke="black" d="M1498.86,-937.465C1482.78,-927.929 1461.94,-915.568 1444.18,-905.032"/>
<polygon fill="black" stroke="black" points="1445.61,-901.806 1435.22,-899.714 1442.03,-907.826 1445.61,-901.806"/>
</g>
<!-- n15 (0.00 &#45; 13) -->
<g id="node39" class="node"><title>n15 (0.00 &#45; 13)</title>
<ellipse fill="none" stroke="black" cx="1643.04" cy="-882" rx="64.189" ry="18"/>
<text text-anchor="middle" x="1643.04" y="-878.3" font-family="Times,serif" font-size="14.00">n15 (0.00 &#45; 13)</text>
</g>
<!-- n16 (0.00 &#45; 14)&#45;&gt;n15 (0.00 &#45; 13) -->
<g id="edge38" class="edge"><title>n16 (0.00 &#45; 14)&#45;&gt;n15 (0.00 &#45; 13)</title>
<path fill="none" stroke="black" d="M1551.23,-937.465C1568.04,-927.496 1590.05,-914.438 1608.31,-903.607"/>
<polygon fill="black" stroke="black" points="1610.11,-906.604 1616.93,-898.492 1606.54,-900.584 1610.11,-906.604"/>
</g>
<!-- PHI -->
<g id="node40" class="node"><title>PHI</title>
<ellipse fill="none" stroke="black" cx="1588.04" cy="-810" rx="27" ry="18"/>
<text text-anchor="middle" x="1588.04" y="-806.3" font-family="Times,serif" font-size="14.00">PHI</text>
</g>
<!-- n15 (0.00 &#45; 13)&#45;&gt;PHI -->
<g id="edge39" class="edge"><title>n15 (0.00 &#45; 13)&#45;&gt;PHI</title>
<path fill="none" stroke="black" d="M1629.73,-864.055C1622.75,-855.167 1614.08,-844.14 1606.47,-834.446"/>
<polygon fill="black" stroke="black" points="1609.04,-832.057 1600.11,-826.356 1603.54,-836.382 1609.04,-832.057"/>
</g>
<!-- n14 (0.00 &#45; 12) -->
<g id="node41" class="node"><title>n14 (0.00 &#45; 12)</title>
<ellipse fill="none" stroke="black" cx="1697.04" cy="-810" rx="64.189" ry="18"/>
<text text-anchor="middle" x="1697.04" y="-806.3" font-family="Times,serif" font-size="14.00">n14 (0.00 &#45; 12)</text>
</g>
<!-- n15 (0.00 &#45; 13)&#45;&gt;n14 (0.00 &#45; 12) -->
<g id="edge40" class="edge"><title>n15 (0.00 &#45; 13)&#45;&gt;n14 (0.00 &#45; 12)</title>
<path fill="none" stroke="black" d="M1656.12,-864.055C1662.62,-855.629 1670.6,-845.28 1677.78,-835.966"/>
<polygon fill="black" stroke="black" points="1680.76,-837.845 1684.09,-827.789 1675.21,-833.569 1680.76,-837.845"/>
</g>
<!-- PIATETSKY_SHAPIRO -->
<g id="node42" class="node"><title>PIATETSKY_SHAPIRO</title>
<ellipse fill="none" stroke="black" cx="1606.04" cy="-738" rx="100.983" ry="18"/>
<text text-anchor="middle" x="1606.04" y="-734.3" font-family="Times,serif" font-size="14.00">PIATETSKY_SHAPIRO</text>
</g>
<!-- n14 (0.00 &#45; 12)&#45;&gt;PIATETSKY_SHAPIRO -->
<g id="edge41" class="edge"><title>n14 (0.00 &#45; 12)&#45;&gt;PIATETSKY_SHAPIRO</title>
<path fill="none" stroke="black" d="M1675.94,-792.765C1664.05,-783.621 1649.01,-772.05 1635.93,-761.988"/>
<polygon fill="black" stroke="black" points="1637.73,-758.956 1627.67,-755.633 1633.46,-764.505 1637.73,-758.956"/>
</g>
<!-- n13 (0.00 &#45; 11) -->
<g id="node43" class="node"><title>n13 (0.00 &#45; 11)</title>
<ellipse fill="none" stroke="black" cx="1789.04" cy="-738" rx="64.189" ry="18"/>
<text text-anchor="middle" x="1789.04" y="-734.3" font-family="Times,serif" font-size="14.00">n13 (0.00 &#45; 11)</text>
</g>
<!-- n14 (0.00 &#45; 12)&#45;&gt;n13 (0.00 &#45; 11) -->
<g id="edge42" class="edge"><title>n14 (0.00 &#45; 12)&#45;&gt;n13 (0.00 &#45; 11)</title>
<path fill="none" stroke="black" d="M1718.38,-792.765C1730.69,-783.4 1746.34,-771.49 1759.79,-761.261"/>
<polygon fill="black" stroke="black" points="1761.98,-763.988 1767.82,-755.147 1757.74,-758.417 1761.98,-763.988"/>
</g>
<!-- COSINE -->
<g id="node44" class="node"><title>COSINE</title>
<ellipse fill="none" stroke="black" cx="1726.04" cy="-666" rx="42.4939" ry="18"/>
<text text-anchor="middle" x="1726.04" y="-662.3" font-family="Times,serif" font-size="14.00">COSINE</text>
</g>
<!-- n13 (0.00 &#45; 11)&#45;&gt;COSINE -->
<g id="edge43" class="edge"><title>n13 (0.00 &#45; 11)&#45;&gt;COSINE</title>
<path fill="none" stroke="black" d="M1774.11,-720.411C1766.08,-711.479 1756.02,-700.31 1747.19,-690.498"/>
<polygon fill="black" stroke="black" points="1749.72,-688.08 1740.43,-682.988 1744.52,-692.762 1749.72,-688.08"/>
</g>
<!-- n12 (0.00 &#45; 10) -->
<g id="node45" class="node"><title>n12 (0.00 &#45; 10)</title>
<ellipse fill="none" stroke="black" cx="1851.04" cy="-666" rx="64.189" ry="18"/>
<text text-anchor="middle" x="1851.04" y="-662.3" font-family="Times,serif" font-size="14.00">n12 (0.00 &#45; 10)</text>
</g>
<!-- n13 (0.00 &#45; 11)&#45;&gt;n12 (0.00 &#45; 10) -->
<g id="edge44" class="edge"><title>n13 (0.00 &#45; 11)&#45;&gt;n12 (0.00 &#45; 10)</title>
<path fill="none" stroke="black" d="M1803.74,-720.411C1811.35,-711.82 1820.79,-701.159 1829.23,-691.627"/>
<polygon fill="black" stroke="black" points="1832.02,-693.763 1836.03,-683.956 1826.78,-689.121 1832.02,-693.763"/>
</g>
<!-- BAYES -->
<g id="node46" class="node"><title>BAYES</title>
<ellipse fill="none" stroke="black" cx="1792.04" cy="-594" rx="39.7935" ry="18"/>
<text text-anchor="middle" x="1792.04" y="-590.3" font-family="Times,serif" font-size="14.00">BAYES</text>
</g>
<!-- n12 (0.00 &#45; 10)&#45;&gt;BAYES -->
<g id="edge45" class="edge"><title>n12 (0.00 &#45; 10)&#45;&gt;BAYES</title>
<path fill="none" stroke="black" d="M1837.06,-648.411C1829.61,-639.567 1820.31,-628.531 1812.1,-618.789"/>
<polygon fill="black" stroke="black" points="1814.64,-616.379 1805.52,-610.988 1809.29,-620.89 1814.64,-616.379"/>
</g>
<!-- n11 (0.00 &#45; 9) -->
<g id="node47" class="node"><title>n11 (0.00 &#45; 9)</title>
<ellipse fill="none" stroke="black" cx="1909.04" cy="-594" rx="59.5901" ry="18"/>
<text text-anchor="middle" x="1909.04" y="-590.3" font-family="Times,serif" font-size="14.00">n11 (0.00 &#45; 9)</text>
</g>
<!-- n12 (0.00 &#45; 10)&#45;&gt;n11 (0.00 &#45; 9) -->
<g id="edge46" class="edge"><title>n12 (0.00 &#45; 10)&#45;&gt;n11 (0.00 &#45; 9)</title>
<path fill="none" stroke="black" d="M1864.79,-648.411C1871.84,-639.906 1880.56,-629.372 1888.4,-619.914"/>
<polygon fill="black" stroke="black" points="1891.31,-621.89 1894.99,-611.956 1885.92,-617.423 1891.31,-621.89"/>
</g>
<!-- SEBAG_SCHOENAUER -->
<g id="node48" class="node"><title>SEBAG_SCHOENAUER</title>
<ellipse fill="none" stroke="black" cx="1819.04" cy="-522" rx="102.882" ry="18"/>
<text text-anchor="middle" x="1819.04" y="-518.3" font-family="Times,serif" font-size="14.00">SEBAG_SCHOENAUER</text>
</g>
<!-- n11 (0.00 &#45; 9)&#45;&gt;SEBAG_SCHOENAUER -->
<g id="edge47" class="edge"><title>n11 (0.00 &#45; 9)&#45;&gt;SEBAG_SCHOENAUER</title>
<path fill="none" stroke="black" d="M1888.17,-576.765C1876.41,-567.621 1861.54,-556.05 1848.6,-545.988"/>
<polygon fill="black" stroke="black" points="1850.47,-543.01 1840.43,-539.633 1846.17,-548.536 1850.47,-543.01"/>
</g>
<!-- n10 (0.00 &#45; 8) -->
<g id="node49" class="node"><title>n10 (0.00 &#45; 8)</title>
<ellipse fill="none" stroke="black" cx="1999.04" cy="-522" rx="59.5901" ry="18"/>
<text text-anchor="middle" x="1999.04" y="-518.3" font-family="Times,serif" font-size="14.00">n10 (0.00 &#45; 8)</text>
</g>
<!-- n11 (0.00 &#45; 9)&#45;&gt;n10 (0.00 &#45; 8) -->
<g id="edge48" class="edge"><title>n11 (0.00 &#45; 9)&#45;&gt;n10 (0.00 &#45; 8)</title>
<path fill="none" stroke="black" d="M1929.92,-576.765C1941.85,-567.488 1956.98,-555.714 1970.05,-545.551"/>
<polygon fill="black" stroke="black" points="1972.54,-548.049 1978.28,-539.147 1968.24,-542.524 1972.54,-548.049"/>
</g>
<!-- LEAST_CONTRADICTION -->
<g id="node50" class="node"><title>LEAST_CONTRADICTION</title>
<ellipse fill="none" stroke="black" cx="1905.04" cy="-450" rx="114.28" ry="18"/>
<text text-anchor="middle" x="1905.04" y="-446.3" font-family="Times,serif" font-size="14.00">LEAST_CONTRADICTION</text>
</g>
<!-- n10 (0.00 &#45; 8)&#45;&gt;LEAST_CONTRADICTION -->
<g id="edge49" class="edge"><title>n10 (0.00 &#45; 8)&#45;&gt;LEAST_CONTRADICTION</title>
<path fill="none" stroke="black" d="M1977.71,-505.116C1965.33,-495.896 1949.52,-484.124 1935.82,-473.915"/>
<polygon fill="black" stroke="black" points="1937.71,-470.963 1927.6,-467.797 1933.53,-476.577 1937.71,-470.963"/>
</g>
<!-- n9 (0.00 &#45; 7) -->
<g id="node51" class="node"><title>n9 (0.00 &#45; 7)</title>
<ellipse fill="none" stroke="black" cx="2093.04" cy="-450" rx="55.7903" ry="18"/>
<text text-anchor="middle" x="2093.04" y="-446.3" font-family="Times,serif" font-size="14.00">n9 (0.00 &#45; 7)</text>
</g>
<!-- n10 (0.00 &#45; 8)&#45;&gt;n9 (0.00 &#45; 7) -->
<g id="edge50" class="edge"><title>n10 (0.00 &#45; 8)&#45;&gt;n9 (0.00 &#45; 7)</title>
<path fill="none" stroke="black" d="M2020.37,-505.116C2033.11,-495.629 2049.48,-483.439 2063.46,-473.031"/>
<polygon fill="black" stroke="black" points="2065.87,-475.601 2071.8,-466.821 2061.69,-469.987 2065.87,-475.601"/>
</g>
<!-- ODD_MULTIPLIER -->
<g id="node52" class="node"><title>ODD_MULTIPLIER</title>
<ellipse fill="none" stroke="black" cx="2012.04" cy="-378" rx="87.1846" ry="18"/>
<text text-anchor="middle" x="2012.04" y="-374.3" font-family="Times,serif" font-size="14.00">ODD_MULTIPLIER</text>
</g>
<!-- n9 (0.00 &#45; 7)&#45;&gt;ODD_MULTIPLIER -->
<g id="edge51" class="edge"><title>n9 (0.00 &#45; 7)&#45;&gt;ODD_MULTIPLIER</title>
<path fill="none" stroke="black" d="M2074.26,-432.765C2063.78,-423.708 2050.54,-412.27 2038.98,-402.276"/>
<polygon fill="black" stroke="black" points="2041.15,-399.524 2031.29,-395.633 2036.57,-404.82 2041.15,-399.524"/>
</g>
<!-- n8 (0.00 &#45; 6) -->
<g id="node53" class="node"><title>n8 (0.00 &#45; 6)</title>
<ellipse fill="none" stroke="black" cx="2173.04" cy="-378" rx="55.7903" ry="18"/>
<text text-anchor="middle" x="2173.04" y="-374.3" font-family="Times,serif" font-size="14.00">n8 (0.00 &#45; 6)</text>
</g>
<!-- n9 (0.00 &#45; 7)&#45;&gt;n8 (0.00 &#45; 6) -->
<g id="edge52" class="edge"><title>n9 (0.00 &#45; 7)&#45;&gt;n8 (0.00 &#45; 6)</title>
<path fill="none" stroke="black" d="M2111.6,-432.765C2122.1,-423.576 2135.4,-411.938 2146.94,-401.842"/>
<polygon fill="black" stroke="black" points="2149.37,-404.366 2154.59,-395.147 2144.76,-399.098 2149.37,-404.366"/>
</g>
<!-- COUNTER_EXAMPLE_RATE -->
<g id="node54" class="node"><title>COUNTER_EXAMPLE_RATE</title>
<ellipse fill="none" stroke="black" cx="2073.04" cy="-306" rx="126.178" ry="18"/>
<text text-anchor="middle" x="2073.04" y="-302.3" font-family="Times,serif" font-size="14.00">COUNTER_EXAMPLE_RATE</text>
</g>
<!-- n8 (0.00 &#45; 6)&#45;&gt;COUNTER_EXAMPLE_RATE -->
<g id="edge53" class="edge"><title>n8 (0.00 &#45; 6)&#45;&gt;COUNTER_EXAMPLE_RATE</title>
<path fill="none" stroke="black" d="M2150.85,-361.465C2137.48,-352.104 2120.22,-340.021 2105.35,-329.614"/>
<polygon fill="black" stroke="black" points="2107.12,-326.581 2096.92,-323.714 2103.11,-332.316 2107.12,-326.581"/>
</g>
<!-- n7 (0.00 &#45; 5) -->
<g id="node55" class="node"><title>n7 (0.00 &#45; 5)</title>
<ellipse fill="none" stroke="black" cx="2273.04" cy="-306" rx="55.7903" ry="18"/>
<text text-anchor="middle" x="2273.04" y="-302.3" font-family="Times,serif" font-size="14.00">n7 (0.00 &#45; 5)</text>
</g>
<!-- n8 (0.00 &#45; 6)&#45;&gt;n7 (0.00 &#45; 5) -->
<g id="edge54" class="edge"><title>n8 (0.00 &#45; 6)&#45;&gt;n7 (0.00 &#45; 5)</title>
<path fill="none" stroke="black" d="M2195.24,-361.465C2208.99,-351.835 2226.87,-339.323 2242.02,-328.72"/>
<polygon fill="black" stroke="black" points="2244.38,-331.336 2250.57,-322.734 2240.37,-325.601 2244.38,-331.336"/>
</g>
<!-- ZHANG -->
<g id="node56" class="node"><title>ZHANG</title>
<ellipse fill="none" stroke="black" cx="2215.04" cy="-234" rx="41.6928" ry="18"/>
<text text-anchor="middle" x="2215.04" y="-230.3" font-family="Times,serif" font-size="14.00">ZHANG</text>
</g>
<!-- n7 (0.00 &#45; 5)&#45;&gt;ZHANG -->
<g id="edge55" class="edge"><title>n7 (0.00 &#45; 5)&#45;&gt;ZHANG</title>
<path fill="none" stroke="black" d="M2259.3,-288.411C2252.08,-279.693 2243.09,-268.845 2235.1,-259.208"/>
<polygon fill="black" stroke="black" points="2237.77,-256.937 2228.69,-251.47 2232.38,-261.403 2237.77,-256.937"/>
</g>
<!-- n6 (0.00 &#45; 4) -->
<g id="node57" class="node"><title>n6 (0.00 &#45; 4)</title>
<ellipse fill="none" stroke="black" cx="2330.04" cy="-234" rx="55.7903" ry="18"/>
<text text-anchor="middle" x="2330.04" y="-230.3" font-family="Times,serif" font-size="14.00">n6 (0.00 &#45; 4)</text>
</g>
<!-- n7 (0.00 &#45; 5)&#45;&gt;n6 (0.00 &#45; 4) -->
<g id="edge56" class="edge"><title>n7 (0.00 &#45; 5)&#45;&gt;n6 (0.00 &#45; 4)</title>
<path fill="none" stroke="black" d="M2286.55,-288.411C2293.48,-279.906 2302.06,-269.372 2309.76,-259.914"/>
<polygon fill="black" stroke="black" points="2312.64,-261.921 2316.24,-251.956 2307.21,-257.501 2312.64,-261.921"/>
</g>
<!-- CHI_SQUARE -->
<g id="node58" class="node"><title>CHI_SQUARE</title>
<ellipse fill="none" stroke="black" cx="2260.04" cy="-162" rx="65.7887" ry="18"/>
<text text-anchor="middle" x="2260.04" y="-158.3" font-family="Times,serif" font-size="14.00">CHI_SQUARE</text>
</g>
<!-- n6 (0.00 &#45; 4)&#45;&gt;CHI_SQUARE -->
<g id="edge57" class="edge"><title>n6 (0.00 &#45; 4)&#45;&gt;CHI_SQUARE</title>
<path fill="none" stroke="black" d="M2313.81,-216.765C2304.93,-207.882 2293.75,-196.709 2283.9,-186.854"/>
<polygon fill="black" stroke="black" points="2286.22,-184.23 2276.68,-179.633 2281.27,-189.179 2286.22,-184.23"/>
</g>
<!-- n5 (0.00 &#45; 3) -->
<g id="node59" class="node"><title>n5 (0.00 &#45; 3)</title>
<ellipse fill="none" stroke="black" cx="2400.04" cy="-162" rx="55.7903" ry="18"/>
<text text-anchor="middle" x="2400.04" y="-158.3" font-family="Times,serif" font-size="14.00">n5 (0.00 &#45; 3)</text>
</g>
<!-- n6 (0.00 &#45; 4)&#45;&gt;n5 (0.00 &#45; 3) -->
<g id="edge58" class="edge"><title>n6 (0.00 &#45; 4)&#45;&gt;n5 (0.00 &#45; 3)</title>
<path fill="none" stroke="black" d="M2346.28,-216.765C2355.16,-207.882 2366.33,-196.709 2376.19,-186.854"/>
<polygon fill="black" stroke="black" points="2378.81,-189.179 2383.41,-179.633 2373.87,-184.23 2378.81,-189.179"/>
</g>
<!-- FISHER_PVAL -->
<g id="node60" class="node"><title>FISHER_PVAL</title>
<ellipse fill="none" stroke="black" cx="2329.04" cy="-90" rx="68.4888" ry="18"/>
<text text-anchor="middle" x="2329.04" y="-86.3" font-family="Times,serif" font-size="14.00">FISHER_PVAL</text>
</g>
<!-- n5 (0.00 &#45; 3)&#45;&gt;FISHER_PVAL -->
<g id="edge59" class="edge"><title>n5 (0.00 &#45; 3)&#45;&gt;FISHER_PVAL</title>
<path fill="none" stroke="black" d="M2383.58,-144.765C2374.57,-135.882 2363.24,-124.709 2353.24,-114.854"/>
<polygon fill="black" stroke="black" points="2355.49,-112.162 2345.92,-107.633 2350.58,-117.147 2355.49,-112.162"/>
</g>
<!-- n4 (0.00 &#45; 2) -->
<g id="node61" class="node"><title>n4 (0.00 &#45; 2)</title>
<ellipse fill="none" stroke="black" cx="2471.04" cy="-90" rx="55.7903" ry="18"/>
<text text-anchor="middle" x="2471.04" y="-86.3" font-family="Times,serif" font-size="14.00">n4 (0.00 &#45; 2)</text>
</g>
<!-- n5 (0.00 &#45; 3)&#45;&gt;n4 (0.00 &#45; 2) -->
<g id="edge60" class="edge"><title>n5 (0.00 &#45; 3)&#45;&gt;n4 (0.00 &#45; 2)</title>
<path fill="none" stroke="black" d="M2416.51,-144.765C2425.52,-135.882 2436.85,-124.709 2446.85,-114.854"/>
<polygon fill="black" stroke="black" points="2449.51,-117.147 2454.17,-107.633 2444.6,-112.162 2449.51,-117.147"/>
</g>
<!-- RECALL -->
<g id="node62" class="node"><title>RECALL</title>
<ellipse fill="none" stroke="black" cx="2406.04" cy="-18" rx="44.6926" ry="18"/>
<text text-anchor="middle" x="2406.04" y="-14.3" font-family="Times,serif" font-size="14.00">RECALL</text>
</g>
<!-- n4 (0.00 &#45; 2)&#45;&gt;RECALL -->
<g id="edge61" class="edge"><title>n4 (0.00 &#45; 2)&#45;&gt;RECALL</title>
<path fill="none" stroke="black" d="M2455.64,-72.411C2447.35,-63.4786 2436.97,-52.3096 2427.86,-42.4976"/>
<polygon fill="black" stroke="black" points="2430.26,-39.9345 2420.89,-34.9881 2425.13,-44.6977 2430.26,-39.9345"/>
</g>
<!-- CONFIDENCE -->
<g id="node63" class="node"><title>CONFIDENCE</title>
<ellipse fill="none" stroke="black" cx="2535.04" cy="-18" rx="66.0889" ry="18"/>
<text text-anchor="middle" x="2535.04" y="-14.3" font-family="Times,serif" font-size="14.00">CONFIDENCE</text>
</g>
<!-- n4 (0.00 &#45; 2)&#45;&gt;CONFIDENCE -->
<g id="edge62" class="edge"><title>n4 (0.00 &#45; 2)&#45;&gt;CONFIDENCE</title>
<path fill="none" stroke="black" d="M2486.21,-72.411C2494.14,-63.7338 2504.01,-52.946 2512.79,-43.3418"/>
<polygon fill="black" stroke="black" points="2515.38,-45.6982 2519.54,-35.9562 2510.21,-40.9748 2515.38,-45.6982"/>
</g>
</g>
</svg>
