<?xml version="1.0" encoding="UTF-8" standalone="no"?>
<!DOCTYPE svg PUBLIC "-//W3C//DTD SVG 1.1//EN"
 "http://www.w3.org/Graphics/SVG/1.1/DTD/svg11.dtd">
<!-- Generated by graphviz version 2.38.0 (20140413.2041)
 -->
<!-- Title: dendrogram Pages: 1 -->
<svg width="1044pt" height="834pt"
 viewBox="0.00 0.00 1044.02 834.17" xmlns="http://www.w3.org/2000/svg" xmlns:xlink="http://www.w3.org/1999/xlink">
<g id="graph0" class="graph" transform="scale(1 1) rotate(0) translate(4 830.171)">
<title>dendrogram</title>
<polygon fill="white" stroke="none" points="-4,4 -4,-830.171 1040.02,-830.171 1040.02,4 -4,4"/>
<!-- n34 (&#45;0.24 &#45; 36) -->
<g id="node1" class="node"><title>n34 (&#45;0.24 &#45; 36)</title>
<ellipse fill="none" stroke="black" cx="349.84" cy="-808.171" rx="67.6881" ry="18"/>
<text text-anchor="middle" x="349.84" y="-804.471" font-family="Times,serif" font-size="14.00">n34 (&#45;0.24 &#45; 36)</text>
</g>
<!-- n32 (0.76 &#45; 2) -->
<g id="node2" class="node"><title>n32 (0.76 &#45; 2)</title>
<ellipse fill="none" stroke="black" cx="278.84" cy="-736.171" rx="59.5901" ry="18"/>
<text text-anchor="middle" x="278.84" y="-732.471" font-family="Times,serif" font-size="14.00">n32 (0.76 &#45; 2)</text>
</g>
<!-- n34 (&#45;0.24 &#45; 36)&#45;&gt;n32 (0.76 &#45; 2) -->
<g id="edge1" class="edge"><title>n34 (&#45;0.24 &#45; 36)&#45;&gt;n32 (0.76 &#45; 2)</title>
<path fill="none" stroke="black" d="M333.014,-790.582C323.995,-781.69 312.728,-770.581 302.809,-760.802"/>
<polygon fill="black" stroke="black" points="305.124,-758.169 295.545,-753.641 300.209,-763.154 305.124,-758.169"/>
</g>
<!-- n33 (0.69 &#45; 34) -->
<g id="node5" class="node"><title>n33 (0.69 &#45; 34)</title>
<ellipse fill="none" stroke="black" cx="420.84" cy="-736.171" rx="64.189" ry="18"/>
<text text-anchor="middle" x="420.84" y="-732.471" font-family="Times,serif" font-size="14.00">n33 (0.69 &#45; 34)</text>
</g>
<!-- n34 (&#45;0.24 &#45; 36)&#45;&gt;n33 (0.69 &#45; 34) -->
<g id="edge4" class="edge"><title>n34 (&#45;0.24 &#45; 36)&#45;&gt;n33 (0.69 &#45; 34)</title>
<path fill="none" stroke="black" d="M366.666,-790.582C375.685,-781.69 386.952,-770.581 396.872,-760.802"/>
<polygon fill="black" stroke="black" points="399.471,-763.154 404.135,-753.641 394.557,-758.169 399.471,-763.154"/>
</g>
<!-- COLLECTIVE_STRENGH -->
<g id="node3" class="node"><title>COLLECTIVE_STRENGH</title>
<ellipse fill="none" stroke="black" cx="109.84" cy="-664.171" rx="109.681" ry="18"/>
<text text-anchor="middle" x="109.84" y="-660.471" font-family="Times,serif" font-size="14.00">COLLECTIVE_STRENGH</text>
</g>
<!-- n32 (0.76 &#45; 2)&#45;&gt;COLLECTIVE_STRENGH -->
<g id="edge2" class="edge"><title>n32 (0.76 &#45; 2)&#45;&gt;COLLECTIVE_STRENGH</title>
<path fill="none" stroke="black" d="M245.047,-721.173C220.059,-710.823 185.683,-696.585 157.847,-685.055"/>
<polygon fill="black" stroke="black" points="158.878,-681.694 148.3,-681.101 156.199,-688.161 158.878,-681.694"/>
</g>
<!-- RECALL -->
<g id="node4" class="node"><title>RECALL</title>
<ellipse fill="none" stroke="black" cx="282.84" cy="-664.171" rx="44.6926" ry="18"/>
<text text-anchor="middle" x="282.84" y="-660.471" font-family="Times,serif" font-size="14.00">RECALL</text>
</g>
<!-- n32 (0.76 &#45; 2)&#45;&gt;RECALL -->
<g id="edge3" class="edge"><title>n32 (0.76 &#45; 2)&#45;&gt;RECALL</title>
<path fill="none" stroke="black" d="M279.829,-717.867C280.27,-710.153 280.8,-700.883 281.291,-692.283"/>
<polygon fill="black" stroke="black" points="284.787,-692.458 281.863,-682.275 277.798,-692.059 284.787,-692.458"/>
</g>
<!-- n30 (0.85 &#45; 14) -->
<g id="node6" class="node"><title>n30 (0.85 &#45; 14)</title>
<ellipse fill="none" stroke="black" cx="416.84" cy="-664.171" rx="64.189" ry="18"/>
<text text-anchor="middle" x="416.84" y="-660.471" font-family="Times,serif" font-size="14.00">n30 (0.85 &#45; 14)</text>
</g>
<!-- n33 (0.69 &#45; 34)&#45;&gt;n30 (0.85 &#45; 14) -->
<g id="edge5" class="edge"><title>n33 (0.69 &#45; 34)&#45;&gt;n30 (0.85 &#45; 14)</title>
<path fill="none" stroke="black" d="M419.851,-717.867C419.411,-710.153 418.881,-700.883 418.39,-692.283"/>
<polygon fill="black" stroke="black" points="421.883,-692.059 417.818,-682.275 414.894,-692.458 421.883,-692.059"/>
</g>
<!-- n31 (0.80 &#45; 20) -->
<g id="node11" class="node"><title>n31 (0.80 &#45; 20)</title>
<ellipse fill="none" stroke="black" cx="618.84" cy="-664.171" rx="64.189" ry="18"/>
<text text-anchor="middle" x="618.84" y="-660.471" font-family="Times,serif" font-size="14.00">n31 (0.80 &#45; 20)</text>
</g>
<!-- n33 (0.69 &#45; 34)&#45;&gt;n31 (0.80 &#45; 20) -->
<g id="edge10" class="edge"><title>n33 (0.69 &#45; 34)&#45;&gt;n31 (0.80 &#45; 20)</title>
<path fill="none" stroke="black" d="M459.017,-721.674C490.826,-710.428 536.312,-694.347 570.631,-682.214"/>
<polygon fill="black" stroke="black" points="572.182,-685.378 580.444,-678.745 569.849,-678.779 572.182,-685.378"/>
</g>
<!-- KLOSGEN\nTWO_WAY_SUPPORT\nCOSINE\nPIATETSKY_SHAPIRO\nSPECIFICITY -->
<g id="node7" class="node"><title>KLOSGEN\nTWO_WAY_SUPPORT\nCOSINE\nPIATETSKY_SHAPIRO\nSPECIFICITY</title>
<ellipse fill="none" stroke="black" cx="229.84" cy="-413.595" rx="109.703" ry="58.8803"/>
<text text-anchor="middle" x="229.84" y="-439.895" font-family="Times,serif" font-size="14.00">KLOSGEN</text>
<text text-anchor="middle" x="229.84" y="-424.895" font-family="Times,serif" font-size="14.00">TWO_WAY_SUPPORT</text>
<text text-anchor="middle" x="229.84" y="-409.895" font-family="Times,serif" font-size="14.00">COSINE</text>
<text text-anchor="middle" x="229.84" y="-394.895" font-family="Times,serif" font-size="14.00">PIATETSKY_SHAPIRO</text>
<text text-anchor="middle" x="229.84" y="-379.895" font-family="Times,serif" font-size="14.00">SPECIFICITY</text>
</g>
<!-- n30 (0.85 &#45; 14)&#45;&gt;KLOSGEN\nTWO_WAY_SUPPORT\nCOSINE\nPIATETSKY_SHAPIRO\nSPECIFICITY -->
<g id="edge6" class="edge"><title>n30 (0.85 &#45; 14)&#45;&gt;KLOSGEN\nTWO_WAY_SUPPORT\nCOSINE\nPIATETSKY_SHAPIRO\nSPECIFICITY</title>
<path fill="none" stroke="black" d="M392.003,-647.483C377.974,-637.837 360.724,-624.587 347.84,-610.171 312.709,-570.862 282.243,-519.635 261.071,-479.471"/>
<polygon fill="black" stroke="black" points="264.152,-477.81 256.429,-470.558 257.944,-481.044 264.152,-477.81"/>
</g>
<!-- n29 (0.89 &#45; 9) -->
<g id="node8" class="node"><title>n29 (0.89 &#45; 9)</title>
<ellipse fill="none" stroke="black" cx="416.84" cy="-413.595" rx="59.5901" ry="18"/>
<text text-anchor="middle" x="416.84" y="-409.895" font-family="Times,serif" font-size="14.00">n29 (0.89 &#45; 9)</text>
</g>
<!-- n30 (0.85 &#45; 14)&#45;&gt;n29 (0.89 &#45; 9) -->
<g id="edge7" class="edge"><title>n30 (0.85 &#45; 14)&#45;&gt;n29 (0.89 &#45; 9)</title>
<path fill="none" stroke="black" d="M416.84,-646.085C416.84,-603.69 416.84,-493.383 416.84,-441.857"/>
<polygon fill="black" stroke="black" points="420.34,-441.8 416.84,-431.8 413.34,-441.8 420.34,-441.8"/>
</g>
<!-- JACCARD -->
<g id="node9" class="node"><title>JACCARD</title>
<ellipse fill="none" stroke="black" cx="298.84" cy="-90.5097" rx="50.8918" ry="18"/>
<text text-anchor="middle" x="298.84" y="-86.8097" font-family="Times,serif" font-size="14.00">JACCARD</text>
</g>
<!-- n29 (0.89 &#45; 9)&#45;&gt;JACCARD -->
<g id="edge8" class="edge"><title>n29 (0.89 &#45; 9)&#45;&gt;JACCARD</title>
<path fill="none" stroke="black" d="M411.181,-395.5C399.828,-361.391 373.265,-282.533 348.84,-217.019 335.965,-182.484 320.056,-143.056 309.69,-117.754"/>
<polygon fill="black" stroke="black" points="312.913,-116.389 305.875,-108.469 306.438,-119.049 312.913,-116.389"/>
</g>
<!-- KAPPA\nJ_MEASURE\nTWO_WAY_SUPPORT_VARIATION\nFISHER_PVAL\nIMPLICATION_INDEX\nPHI\nGINI\nCHI_SQUARE -->
<g id="node10" class="node"><title>KAPPA\nJ_MEASURE\nTWO_WAY_SUPPORT_VARIATION\nFISHER_PVAL\nIMPLICATION_INDEX\nPHI\nGINI\nCHI_SQUARE</title>
<ellipse fill="none" stroke="black" cx="534.84" cy="-90.5097" rx="166.754" ry="90.5193"/>
<text text-anchor="middle" x="534.84" y="-139.31" font-family="Times,serif" font-size="14.00">KAPPA</text>
<text text-anchor="middle" x="534.84" y="-124.31" font-family="Times,serif" font-size="14.00">J_MEASURE</text>
<text text-anchor="middle" x="534.84" y="-109.31" font-family="Times,serif" font-size="14.00">TWO_WAY_SUPPORT_VARIATION</text>
<text text-anchor="middle" x="534.84" y="-94.3097" font-family="Times,serif" font-size="14.00">FISHER_PVAL</text>
<text text-anchor="middle" x="534.84" y="-79.3097" font-family="Times,serif" font-size="14.00">IMPLICATION_INDEX</text>
<text text-anchor="middle" x="534.84" y="-64.3097" font-family="Times,serif" font-size="14.00">PHI</text>
<text text-anchor="middle" x="534.84" y="-49.3097" font-family="Times,serif" font-size="14.00">GINI</text>
<text text-anchor="middle" x="534.84" y="-34.3097" font-family="Times,serif" font-size="14.00">CHI_SQUARE</text>
</g>
<!-- n29 (0.89 &#45; 9)&#45;&gt;KAPPA\nJ_MEASURE\nTWO_WAY_SUPPORT_VARIATION\nFISHER_PVAL\nIMPLICATION_INDEX\nPHI\nGINI\nCHI_SQUARE -->
<g id="edge9" class="edge"><title>n29 (0.89 &#45; 9)&#45;&gt;KAPPA\nJ_MEASURE\nTWO_WAY_SUPPORT_VARIATION\nFISHER_PVAL\nIMPLICATION_INDEX\nPHI\nGINI\nCHI_SQUARE</title>
<path fill="none" stroke="black" d="M422.651,-395.523C434.293,-361.455 461.453,-282.666 485.84,-217.019 489.262,-207.81 492.879,-198.244 496.536,-188.686"/>
<polygon fill="black" stroke="black" points="499.883,-189.735 500.201,-179.145 493.348,-187.225 499.883,-189.735"/>
</g>
<!-- LEAST_CONTRADICTION\nACCURACY -->
<g id="node12" class="node"><title>LEAST_CONTRADICTION\nACCURACY</title>
<ellipse fill="none" stroke="black" cx="618.84" cy="-413.595" rx="124.402" ry="26.7407"/>
<text text-anchor="middle" x="618.84" y="-417.395" font-family="Times,serif" font-size="14.00">LEAST_CONTRADICTION</text>
<text text-anchor="middle" x="618.84" y="-402.395" font-family="Times,serif" font-size="14.00">ACCURACY</text>
</g>
<!-- n31 (0.80 &#45; 20)&#45;&gt;LEAST_CONTRADICTION\nACCURACY -->
<g id="edge11" class="edge"><title>n31 (0.80 &#45; 20)&#45;&gt;LEAST_CONTRADICTION\nACCURACY</title>
<path fill="none" stroke="black" d="M618.84,-646.085C618.84,-605.98 618.84,-505.105 618.84,-450.704"/>
<polygon fill="black" stroke="black" points="622.34,-450.475 618.84,-440.475 615.34,-450.475 622.34,-450.475"/>
</g>
<!-- RELATIVE_RISK\nYULE_Y\nYULE_Q\nODDS_RATIO\nLEVERAGE\nODD_MULTIPLIER\nZHANG\nSEBAG_SCHOENAUER\nCOUNTER_EXAMPLE_RATE\nONE_WAY_SUPPORT\nLOEVINGER\nCONVICTION\nBAYES\nCENTERED_CONFIDENCE\nCERTAINTY_FACTOR\nADDED_VALUE\nLIFT\nCONFIDENCE -->
<g id="node13" class="node"><title>RELATIVE_RISK\nYULE_Y\nYULE_Q\nODDS_RATIO\nLEVERAGE\nODD_MULTIPLIER\nZHANG\nSEBAG_SCHOENAUER\nCOUNTER_EXAMPLE_RATE\nONE_WAY_SUPPORT\nLOEVINGER\nCONVICTION\nBAYES\nCENTERED_CONFIDENCE\nCERTAINTY_FACTOR\nADDED_VALUE\nLIFT\nCONFIDENCE</title>
<ellipse fill="none" stroke="black" cx="898.84" cy="-413.595" rx="137.358" ry="196.651"/>
<text text-anchor="middle" x="898.84" y="-537.395" font-family="Times,serif" font-size="14.00">RELATIVE_RISK</text>
<text text-anchor="middle" x="898.84" y="-522.395" font-family="Times,serif" font-size="14.00">YULE_Y</text>
<text text-anchor="middle" x="898.84" y="-507.395" font-family="Times,serif" font-size="14.00">YULE_Q</text>
<text text-anchor="middle" x="898.84" y="-492.395" font-family="Times,serif" font-size="14.00">ODDS_RATIO</text>
<text text-anchor="middle" x="898.84" y="-477.395" font-family="Times,serif" font-size="14.00">LEVERAGE</text>
<text text-anchor="middle" x="898.84" y="-462.395" font-family="Times,serif" font-size="14.00">ODD_MULTIPLIER</text>
<text text-anchor="middle" x="898.84" y="-447.395" font-family="Times,serif" font-size="14.00">ZHANG</text>
<text text-anchor="middle" x="898.84" y="-432.395" font-family="Times,serif" font-size="14.00">SEBAG_SCHOENAUER</text>
<text text-anchor="middle" x="898.84" y="-417.395" font-family="Times,serif" font-size="14.00">COUNTER_EXAMPLE_RATE</text>
<text text-anchor="middle" x="898.84" y="-402.395" font-family="Times,serif" font-size="14.00">ONE_WAY_SUPPORT</text>
<text text-anchor="middle" x="898.84" y="-387.395" font-family="Times,serif" font-size="14.00">LOEVINGER</text>
<text text-anchor="middle" x="898.84" y="-372.395" font-family="Times,serif" font-size="14.00">CONVICTION</text>
<text text-anchor="middle" x="898.84" y="-357.395" font-family="Times,serif" font-size="14.00">BAYES</text>
<text text-anchor="middle" x="898.84" y="-342.395" font-family="Times,serif" font-size="14.00">CENTERED_CONFIDENCE</text>
<text text-anchor="middle" x="898.84" y="-327.395" font-family="Times,serif" font-size="14.00">CERTAINTY_FACTOR</text>
<text text-anchor="middle" x="898.84" y="-312.395" font-family="Times,serif" font-size="14.00">ADDED_VALUE</text>
<text text-anchor="middle" x="898.84" y="-297.395" font-family="Times,serif" font-size="14.00">LIFT</text>
<text text-anchor="middle" x="898.84" y="-282.395" font-family="Times,serif" font-size="14.00">CONFIDENCE</text>
</g>
<!-- n31 (0.80 &#45; 20)&#45;&gt;RELATIVE_RISK\nYULE_Y\nYULE_Q\nODDS_RATIO\nLEVERAGE\nODD_MULTIPLIER\nZHANG\nSEBAG_SCHOENAUER\nCOUNTER_EXAMPLE_RATE\nONE_WAY_SUPPORT\nLOEVINGER\nCONVICTION\nBAYES\nCENTERED_CONFIDENCE\nCERTAINTY_FACTOR\nADDED_VALUE\nLIFT\nCONFIDENCE -->
<g id="edge12" class="edge"><title>n31 (0.80 &#45; 20)&#45;&gt;RELATIVE_RISK\nYULE_Y\nYULE_Q\nODDS_RATIO\nLEVERAGE\nODD_MULTIPLIER\nZHANG\nSEBAG_SCHOENAUER\nCOUNTER_EXAMPLE_RATE\nONE_WAY_SUPPORT\nLOEVINGER\nCONVICTION\nBAYES\nCENTERED_CONFIDENCE\nCERTAINTY_FACTOR\nADDED_VALUE\nLIFT\nCONFIDENCE</title>
<path fill="none" stroke="black" d="M665.126,-651.555C692.274,-643.157 726.17,-629.796 751.84,-610.171 768.666,-597.307 784.514,-582.034 799.127,-565.78"/>
<polygon fill="black" stroke="black" points="801.776,-568.067 805.754,-558.247 796.521,-563.444 801.776,-568.067"/>
</g>
</g>
</svg>
