<?xml version="1.0" encoding="UTF-8" standalone="no"?>
<!DOCTYPE svg PUBLIC "-//W3C//DTD SVG 1.1//EN"
 "http://www.w3.org/Graphics/SVG/1.1/DTD/svg11.dtd">
<!-- Generated by graphviz version 2.38.0 (20140413.2041)
 -->
<!-- Title: dendrogram Pages: 1 -->
<svg width="2015pt" height="1013pt"
 viewBox="0.00 0.00 2015.26 1013.03" xmlns="http://www.w3.org/2000/svg" xmlns:xlink="http://www.w3.org/1999/xlink">
<g id="graph0" class="graph" transform="scale(1 1) rotate(0) translate(4 1009.03)">
<title>dendrogram</title>
<polygon fill="white" stroke="none" points="-4,4 -4,-1009.03 2011.26,-1009.03 2011.26,4 -4,4"/>
<!-- n34 (0.00 &#45; 36) -->
<g id="node1" class="node"><title>n34 (0.00 &#45; 36)</title>
<ellipse fill="none" stroke="black" cx="370.84" cy="-987.026" rx="64.189" ry="18"/>
<text text-anchor="middle" x="370.84" y="-983.326" font-family="Times,serif" font-size="14.00">n34 (0.00 &#45; 36)</text>
</g>
<!-- n23 (0.30 &#45; 2) -->
<g id="node2" class="node"><title>n23 (0.30 &#45; 2)</title>
<ellipse fill="none" stroke="black" cx="299.84" cy="-915.026" rx="59.5901" ry="18"/>
<text text-anchor="middle" x="299.84" y="-911.326" font-family="Times,serif" font-size="14.00">n23 (0.30 &#45; 2)</text>
</g>
<!-- n34 (0.00 &#45; 36)&#45;&gt;n23 (0.30 &#45; 2) -->
<g id="edge1" class="edge"><title>n34 (0.00 &#45; 36)&#45;&gt;n23 (0.30 &#45; 2)</title>
<path fill="none" stroke="black" d="M354.014,-969.437C344.995,-960.545 333.728,-949.437 323.809,-939.657"/>
<polygon fill="black" stroke="black" points="326.124,-937.025 316.545,-932.496 321.209,-942.01 326.124,-937.025"/>
</g>
<!-- n33 (0.00 &#45; 34) -->
<g id="node5" class="node"><title>n33 (0.00 &#45; 34)</title>
<ellipse fill="none" stroke="black" cx="441.84" cy="-915.026" rx="64.189" ry="18"/>
<text text-anchor="middle" x="441.84" y="-911.326" font-family="Times,serif" font-size="14.00">n33 (0.00 &#45; 34)</text>
</g>
<!-- n34 (0.00 &#45; 36)&#45;&gt;n33 (0.00 &#45; 34) -->
<g id="edge4" class="edge"><title>n34 (0.00 &#45; 36)&#45;&gt;n33 (0.00 &#45; 34)</title>
<path fill="none" stroke="black" d="M387.666,-969.437C396.685,-960.545 407.952,-949.437 417.872,-939.657"/>
<polygon fill="black" stroke="black" points="420.471,-942.01 425.135,-932.496 415.557,-937.025 420.471,-942.01"/>
</g>
<!-- COLLECTIVE_STRENGH -->
<g id="node3" class="node"><title>COLLECTIVE_STRENGH</title>
<ellipse fill="none" stroke="black" cx="109.84" cy="-843.026" rx="109.681" ry="18"/>
<text text-anchor="middle" x="109.84" y="-839.326" font-family="Times,serif" font-size="14.00">COLLECTIVE_STRENGH</text>
</g>
<!-- n23 (0.30 &#45; 2)&#45;&gt;COLLECTIVE_STRENGH -->
<g id="edge2" class="edge"><title>n23 (0.30 &#45; 2)&#45;&gt;COLLECTIVE_STRENGH</title>
<path fill="none" stroke="black" d="M263.655,-900.695C234.968,-890.126 194.485,-875.211 162.25,-863.335"/>
<polygon fill="black" stroke="black" points="163.127,-859.929 152.534,-859.756 160.707,-866.497 163.127,-859.929"/>
</g>
<!-- SPECIFICITY -->
<g id="node4" class="node"><title>SPECIFICITY</title>
<ellipse fill="none" stroke="black" cx="300.84" cy="-843.026" rx="63.0888" ry="18"/>
<text text-anchor="middle" x="300.84" y="-839.326" font-family="Times,serif" font-size="14.00">SPECIFICITY</text>
</g>
<!-- n23 (0.30 &#45; 2)&#45;&gt;SPECIFICITY -->
<g id="edge3" class="edge"><title>n23 (0.30 &#45; 2)&#45;&gt;SPECIFICITY</title>
<path fill="none" stroke="black" d="M300.087,-896.723C300.198,-889.009 300.33,-879.739 300.453,-871.139"/>
<polygon fill="black" stroke="black" points="303.953,-871.18 300.596,-861.131 296.953,-871.08 303.953,-871.18"/>
</g>
<!-- ACCURACY -->
<g id="node6" class="node"><title>ACCURACY</title>
<ellipse fill="none" stroke="black" cx="441.84" cy="-843.026" rx="59.5901" ry="18"/>
<text text-anchor="middle" x="441.84" y="-839.326" font-family="Times,serif" font-size="14.00">ACCURACY</text>
</g>
<!-- n33 (0.00 &#45; 34)&#45;&gt;ACCURACY -->
<g id="edge5" class="edge"><title>n33 (0.00 &#45; 34)&#45;&gt;ACCURACY</title>
<path fill="none" stroke="black" d="M441.84,-896.723C441.84,-889.009 441.84,-879.739 441.84,-871.139"/>
<polygon fill="black" stroke="black" points="445.34,-871.131 441.84,-861.131 438.34,-871.131 445.34,-871.131"/>
</g>
<!-- n32 (0.00 &#45; 33) -->
<g id="node7" class="node"><title>n32 (0.00 &#45; 33)</title>
<ellipse fill="none" stroke="black" cx="583.84" cy="-843.026" rx="64.189" ry="18"/>
<text text-anchor="middle" x="583.84" y="-839.326" font-family="Times,serif" font-size="14.00">n32 (0.00 &#45; 33)</text>
</g>
<!-- n33 (0.00 &#45; 34)&#45;&gt;n32 (0.00 &#45; 33) -->
<g id="edge6" class="edge"><title>n33 (0.00 &#45; 34)&#45;&gt;n32 (0.00 &#45; 33)</title>
<path fill="none" stroke="black" d="M472.303,-899.01C493.36,-888.629 521.572,-874.722 544.354,-863.492"/>
<polygon fill="black" stroke="black" points="546.006,-866.579 553.428,-859.018 542.911,-860.301 546.006,-866.579"/>
</g>
<!-- n13 (0.80 &#45; 8) -->
<g id="node8" class="node"><title>n13 (0.80 &#45; 8)</title>
<ellipse fill="none" stroke="black" cx="494.84" cy="-771.026" rx="59.5901" ry="18"/>
<text text-anchor="middle" x="494.84" y="-767.326" font-family="Times,serif" font-size="14.00">n13 (0.80 &#45; 8)</text>
</g>
<!-- n32 (0.00 &#45; 33)&#45;&gt;n13 (0.80 &#45; 8) -->
<g id="edge7" class="edge"><title>n32 (0.00 &#45; 33)&#45;&gt;n13 (0.80 &#45; 8)</title>
<path fill="none" stroke="black" d="M563.198,-825.791C551.404,-816.514 536.434,-804.741 523.512,-794.578"/>
<polygon fill="black" stroke="black" points="525.394,-791.605 515.37,-788.174 521.067,-797.107 525.394,-791.605"/>
</g>
<!-- n31 (0.00 &#45; 25) -->
<g id="node11" class="node"><title>n31 (0.00 &#45; 25)</title>
<ellipse fill="none" stroke="black" cx="671.84" cy="-771.026" rx="64.189" ry="18"/>
<text text-anchor="middle" x="671.84" y="-767.326" font-family="Times,serif" font-size="14.00">n31 (0.00 &#45; 25)</text>
</g>
<!-- n32 (0.00 &#45; 33)&#45;&gt;n31 (0.00 &#45; 25) -->
<g id="edge10" class="edge"><title>n32 (0.00 &#45; 33)&#45;&gt;n31 (0.00 &#45; 25)</title>
<path fill="none" stroke="black" d="M604.25,-825.791C615.912,-816.514 630.714,-804.741 643.49,-794.578"/>
<polygon fill="black" stroke="black" points="645.894,-797.138 651.541,-788.174 641.536,-791.66 645.894,-797.138"/>
</g>
<!-- YULE_Y\nYULE_Q\nODDS_RATIO\nRELATIVE_RISK -->
<g id="node9" class="node"><title>YULE_Y\nYULE_Q\nODDS_RATIO\nRELATIVE_RISK</title>
<ellipse fill="none" stroke="black" cx="296.84" cy="-668.943" rx="84.7059" ry="48.1667"/>
<text text-anchor="middle" x="296.84" y="-687.743" font-family="Times,serif" font-size="14.00">YULE_Y</text>
<text text-anchor="middle" x="296.84" y="-672.743" font-family="Times,serif" font-size="14.00">YULE_Q</text>
<text text-anchor="middle" x="296.84" y="-657.743" font-family="Times,serif" font-size="14.00">ODDS_RATIO</text>
<text text-anchor="middle" x="296.84" y="-642.743" font-family="Times,serif" font-size="14.00">RELATIVE_RISK</text>
</g>
<!-- n13 (0.80 &#45; 8)&#45;&gt;YULE_Y\nYULE_Q\nODDS_RATIO\nRELATIVE_RISK -->
<g id="edge8" class="edge"><title>n13 (0.80 &#45; 8)&#45;&gt;YULE_Y\nYULE_Q\nODDS_RATIO\nRELATIVE_RISK</title>
<path fill="none" stroke="black" d="M465.625,-755.259C440.158,-742.386 402.156,-723.177 368.655,-706.244"/>
<polygon fill="black" stroke="black" points="369.844,-702.923 359.34,-701.535 366.686,-709.17 369.844,-702.923"/>
</g>
<!-- ODD_MULTIPLIER\nZHANG\nBAYES\nLIFT -->
<g id="node10" class="node"><title>ODD_MULTIPLIER\nZHANG\nBAYES\nLIFT</title>
<ellipse fill="none" stroke="black" cx="494.84" cy="-668.943" rx="94.5053" ry="48.1667"/>
<text text-anchor="middle" x="494.84" y="-687.743" font-family="Times,serif" font-size="14.00">ODD_MULTIPLIER</text>
<text text-anchor="middle" x="494.84" y="-672.743" font-family="Times,serif" font-size="14.00">ZHANG</text>
<text text-anchor="middle" x="494.84" y="-657.743" font-family="Times,serif" font-size="14.00">BAYES</text>
<text text-anchor="middle" x="494.84" y="-642.743" font-family="Times,serif" font-size="14.00">LIFT</text>
</g>
<!-- n13 (0.80 &#45; 8)&#45;&gt;ODD_MULTIPLIER\nZHANG\nBAYES\nLIFT -->
<g id="edge9" class="edge"><title>n13 (0.80 &#45; 8)&#45;&gt;ODD_MULTIPLIER\nZHANG\nBAYES\nLIFT</title>
<path fill="none" stroke="black" d="M494.84,-752.593C494.84,-745.355 494.84,-736.504 494.84,-727.316"/>
<polygon fill="black" stroke="black" points="498.34,-727.274 494.84,-717.274 491.34,-727.274 498.34,-727.274"/>
</g>
<!-- n30 (0.00 &#45; 11) -->
<g id="node12" class="node"><title>n30 (0.00 &#45; 11)</title>
<ellipse fill="none" stroke="black" cx="671.84" cy="-668.943" rx="64.189" ry="18"/>
<text text-anchor="middle" x="671.84" y="-665.243" font-family="Times,serif" font-size="14.00">n30 (0.00 &#45; 11)</text>
</g>
<!-- n31 (0.00 &#45; 25)&#45;&gt;n30 (0.00 &#45; 11) -->
<g id="edge11" class="edge"><title>n31 (0.00 &#45; 25)&#45;&gt;n30 (0.00 &#45; 11)</title>
<path fill="none" stroke="black" d="M671.84,-752.593C671.84,-737.381 671.84,-715.048 671.84,-697.431"/>
<polygon fill="black" stroke="black" points="675.34,-697.177 671.84,-687.177 668.34,-697.177 675.34,-697.177"/>
</g>
<!-- n27 (0.01 &#45; 14) -->
<g id="node23" class="node"><title>n27 (0.01 &#45; 14)</title>
<ellipse fill="none" stroke="black" cx="1045.84" cy="-668.943" rx="64.189" ry="18"/>
<text text-anchor="middle" x="1045.84" y="-665.243" font-family="Times,serif" font-size="14.00">n27 (0.01 &#45; 14)</text>
</g>
<!-- n31 (0.00 &#45; 25)&#45;&gt;n27 (0.01 &#45; 14) -->
<g id="edge22" class="edge"><title>n31 (0.00 &#45; 25)&#45;&gt;n27 (0.01 &#45; 14)</title>
<path fill="none" stroke="black" d="M716.582,-758.054C785.284,-739.669 916.591,-704.531 990.946,-684.633"/>
<polygon fill="black" stroke="black" points="992.292,-687.896 1001.05,-681.93 990.482,-681.134 992.292,-687.896"/>
</g>
<!-- n25 (0.10 &#45; 3) -->
<g id="node13" class="node"><title>n25 (0.10 &#45; 3)</title>
<ellipse fill="none" stroke="black" cx="392.84" cy="-566.86" rx="59.5901" ry="18"/>
<text text-anchor="middle" x="392.84" y="-563.16" font-family="Times,serif" font-size="14.00">n25 (0.10 &#45; 3)</text>
</g>
<!-- n30 (0.00 &#45; 11)&#45;&gt;n25 (0.10 &#45; 3) -->
<g id="edge12" class="edge"><title>n30 (0.00 &#45; 11)&#45;&gt;n25 (0.10 &#45; 3)</title>
<path fill="none" stroke="black" d="M650.833,-651.799C636.774,-641.666 617.493,-629.019 598.84,-620.86 552.112,-600.421 495.845,-586.609 453.932,-578.223"/>
<polygon fill="black" stroke="black" points="454.356,-574.74 443.871,-576.259 453.015,-581.61 454.356,-574.74"/>
</g>
<!-- n29 (0.00 &#45; 8) -->
<g id="node18" class="node"><title>n29 (0.00 &#45; 8)</title>
<ellipse fill="none" stroke="black" cx="671.84" cy="-566.86" rx="59.5901" ry="18"/>
<text text-anchor="middle" x="671.84" y="-563.16" font-family="Times,serif" font-size="14.00">n29 (0.00 &#45; 8)</text>
</g>
<!-- n30 (0.00 &#45; 11)&#45;&gt;n29 (0.00 &#45; 8) -->
<g id="edge17" class="edge"><title>n30 (0.00 &#45; 11)&#45;&gt;n29 (0.00 &#45; 8)</title>
<path fill="none" stroke="black" d="M671.84,-650.51C671.84,-635.298 671.84,-612.964 671.84,-595.347"/>
<polygon fill="black" stroke="black" points="675.34,-595.093 671.84,-585.093 668.34,-595.093 675.34,-595.093"/>
</g>
<!-- ONE_WAY_SUPPORT -->
<g id="node14" class="node"><title>ONE_WAY_SUPPORT</title>
<ellipse fill="none" stroke="black" cx="217.84" cy="-475.383" rx="97.4827" ry="18"/>
<text text-anchor="middle" x="217.84" y="-471.683" font-family="Times,serif" font-size="14.00">ONE_WAY_SUPPORT</text>
</g>
<!-- n25 (0.10 &#45; 3)&#45;&gt;ONE_WAY_SUPPORT -->
<g id="edge13" class="edge"><title>n25 (0.10 &#45; 3)&#45;&gt;ONE_WAY_SUPPORT</title>
<path fill="none" stroke="black" d="M363.943,-551.085C335.226,-536.402 290.925,-513.751 258.632,-497.24"/>
<polygon fill="black" stroke="black" points="259.943,-493.979 249.446,-492.543 256.756,-500.212 259.943,-493.979"/>
</g>
<!-- n14 (0.80 &#45; 2) -->
<g id="node15" class="node"><title>n14 (0.80 &#45; 2)</title>
<ellipse fill="none" stroke="black" cx="392.84" cy="-475.383" rx="59.5901" ry="18"/>
<text text-anchor="middle" x="392.84" y="-471.683" font-family="Times,serif" font-size="14.00">n14 (0.80 &#45; 2)</text>
</g>
<!-- n25 (0.10 &#45; 3)&#45;&gt;n14 (0.80 &#45; 2) -->
<g id="edge14" class="edge"><title>n25 (0.10 &#45; 3)&#45;&gt;n14 (0.80 &#45; 2)</title>
<path fill="none" stroke="black" d="M392.84,-548.608C392.84,-535.858 392.84,-518.246 392.84,-503.606"/>
<polygon fill="black" stroke="black" points="396.34,-503.582 392.84,-493.582 389.34,-503.582 396.34,-503.582"/>
</g>
<!-- CENTERED_CONFIDENCE -->
<g id="node16" class="node"><title>CENTERED_CONFIDENCE</title>
<ellipse fill="none" stroke="black" cx="298.84" cy="-353.823" rx="116.18" ry="18"/>
<text text-anchor="middle" x="298.84" y="-350.123" font-family="Times,serif" font-size="14.00">CENTERED_CONFIDENCE</text>
</g>
<!-- n14 (0.80 &#45; 2)&#45;&gt;CENTERED_CONFIDENCE -->
<g id="edge15" class="edge"><title>n14 (0.80 &#45; 2)&#45;&gt;CENTERED_CONFIDENCE</title>
<path fill="none" stroke="black" d="M379.77,-457.759C363.955,-437.644 337.165,-403.569 318.77,-380.172"/>
<polygon fill="black" stroke="black" points="321.34,-377.779 312.408,-372.081 315.838,-382.105 321.34,-377.779"/>
</g>
<!-- ADDED_VALUE -->
<g id="node17" class="node"><title>ADDED_VALUE</title>
<ellipse fill="none" stroke="black" cx="508.84" cy="-353.823" rx="75.2868" ry="18"/>
<text text-anchor="middle" x="508.84" y="-350.123" font-family="Times,serif" font-size="14.00">ADDED_VALUE</text>
</g>
<!-- n14 (0.80 &#45; 2)&#45;&gt;ADDED_VALUE -->
<g id="edge16" class="edge"><title>n14 (0.80 &#45; 2)&#45;&gt;ADDED_VALUE</title>
<path fill="none" stroke="black" d="M408.97,-457.759C428.769,-437.352 462.507,-402.578 485.227,-379.161"/>
<polygon fill="black" stroke="black" points="488.023,-381.306 492.474,-371.692 482.999,-376.432 488.023,-381.306"/>
</g>
<!-- LOEVINGER\nCONVICTION\nCERTAINTY_FACTOR -->
<g id="node19" class="node"><title>LOEVINGER\nCONVICTION\nCERTAINTY_FACTOR</title>
<ellipse fill="none" stroke="black" cx="578.84" cy="-475.383" rx="108.375" ry="37.4533"/>
<text text-anchor="middle" x="578.84" y="-486.683" font-family="Times,serif" font-size="14.00">LOEVINGER</text>
<text text-anchor="middle" x="578.84" y="-471.683" font-family="Times,serif" font-size="14.00">CONVICTION</text>
<text text-anchor="middle" x="578.84" y="-456.683" font-family="Times,serif" font-size="14.00">CERTAINTY_FACTOR</text>
</g>
<!-- n29 (0.00 &#45; 8)&#45;&gt;LOEVINGER\nCONVICTION\nCERTAINTY_FACTOR -->
<g id="edge18" class="edge"><title>n29 (0.00 &#45; 8)&#45;&gt;LOEVINGER\nCONVICTION\nCERTAINTY_FACTOR</title>
<path fill="none" stroke="black" d="M654.783,-549.449C645.577,-540.592 633.757,-529.219 622.197,-518.097"/>
<polygon fill="black" stroke="black" points="624.301,-515.264 614.668,-510.853 619.447,-520.309 624.301,-515.264"/>
</g>
<!-- n28 (0.00 &#45; 5) -->
<g id="node20" class="node"><title>n28 (0.00 &#45; 5)</title>
<ellipse fill="none" stroke="black" cx="764.84" cy="-475.383" rx="59.5901" ry="18"/>
<text text-anchor="middle" x="764.84" y="-471.683" font-family="Times,serif" font-size="14.00">n28 (0.00 &#45; 5)</text>
</g>
<!-- n29 (0.00 &#45; 8)&#45;&gt;n28 (0.00 &#45; 5) -->
<g id="edge19" class="edge"><title>n29 (0.00 &#45; 8)&#45;&gt;n28 (0.00 &#45; 5)</title>
<path fill="none" stroke="black" d="M688.898,-549.449C703.318,-535.574 724.156,-515.526 740.358,-499.938"/>
<polygon fill="black" stroke="black" points="743.111,-502.146 747.891,-492.691 738.258,-497.102 743.111,-502.146"/>
</g>
<!-- RECALL -->
<g id="node21" class="node"><title>RECALL</title>
<ellipse fill="none" stroke="black" cx="658.84" cy="-353.823" rx="44.6926" ry="18"/>
<text text-anchor="middle" x="658.84" y="-350.123" font-family="Times,serif" font-size="14.00">RECALL</text>
</g>
<!-- n28 (0.00 &#45; 5)&#45;&gt;RECALL -->
<g id="edge20" class="edge"><title>n28 (0.00 &#45; 5)&#45;&gt;RECALL</title>
<path fill="none" stroke="black" d="M750.101,-457.759C731.884,-437.211 700.753,-402.097 679.989,-378.678"/>
<polygon fill="black" stroke="black" points="682.368,-376.085 673.115,-370.924 677.13,-380.729 682.368,-376.085"/>
</g>
<!-- SEBAG_SCHOENAUER\nCOUNTER_EXAMPLE_RATE\nLEVERAGE\nCONFIDENCE -->
<g id="node22" class="node"><title>SEBAG_SCHOENAUER\nCOUNTER_EXAMPLE_RATE\nLEVERAGE\nCONFIDENCE</title>
<ellipse fill="none" stroke="black" cx="858.84" cy="-353.823" rx="137.358" ry="48.1667"/>
<text text-anchor="middle" x="858.84" y="-372.623" font-family="Times,serif" font-size="14.00">SEBAG_SCHOENAUER</text>
<text text-anchor="middle" x="858.84" y="-357.623" font-family="Times,serif" font-size="14.00">COUNTER_EXAMPLE_RATE</text>
<text text-anchor="middle" x="858.84" y="-342.623" font-family="Times,serif" font-size="14.00">LEVERAGE</text>
<text text-anchor="middle" x="858.84" y="-327.623" font-family="Times,serif" font-size="14.00">CONFIDENCE</text>
</g>
<!-- n28 (0.00 &#45; 5)&#45;&gt;SEBAG_SCHOENAUER\nCOUNTER_EXAMPLE_RATE\nLEVERAGE\nCONFIDENCE -->
<g id="edge21" class="edge"><title>n28 (0.00 &#45; 5)&#45;&gt;SEBAG_SCHOENAUER\nCOUNTER_EXAMPLE_RATE\nLEVERAGE\nCONFIDENCE</title>
<path fill="none" stroke="black" d="M777.911,-457.759C788.016,-444.906 802.602,-426.353 816.617,-408.528"/>
<polygon fill="black" stroke="black" points="819.568,-410.437 822.997,-400.413 814.065,-406.111 819.568,-410.437"/>
</g>
<!-- n22 (0.55 &#45; 3) -->
<g id="node24" class="node"><title>n22 (0.55 &#45; 3)</title>
<ellipse fill="none" stroke="black" cx="1045.84" cy="-566.86" rx="59.5901" ry="18"/>
<text text-anchor="middle" x="1045.84" y="-563.16" font-family="Times,serif" font-size="14.00">n22 (0.55 &#45; 3)</text>
</g>
<!-- n27 (0.01 &#45; 14)&#45;&gt;n22 (0.55 &#45; 3) -->
<g id="edge23" class="edge"><title>n27 (0.01 &#45; 14)&#45;&gt;n22 (0.55 &#45; 3)</title>
<path fill="none" stroke="black" d="M1045.84,-650.51C1045.84,-635.298 1045.84,-612.964 1045.84,-595.347"/>
<polygon fill="black" stroke="black" points="1049.34,-595.093 1045.84,-585.093 1042.34,-595.093 1049.34,-595.093"/>
</g>
<!-- n26 (0.07 &#45; 11) -->
<g id="node27" class="node"><title>n26 (0.07 &#45; 11)</title>
<ellipse fill="none" stroke="black" cx="1277.84" cy="-566.86" rx="64.189" ry="18"/>
<text text-anchor="middle" x="1277.84" y="-563.16" font-family="Times,serif" font-size="14.00">n26 (0.07 &#45; 11)</text>
</g>
<!-- n27 (0.01 &#45; 14)&#45;&gt;n26 (0.07 &#45; 11) -->
<g id="edge26" class="edge"><title>n27 (0.01 &#45; 14)&#45;&gt;n26 (0.07 &#45; 11)</title>
<path fill="none" stroke="black" d="M1079.58,-653.39C1120.67,-635.662 1190.15,-605.69 1234.99,-586.346"/>
<polygon fill="black" stroke="black" points="1236.65,-589.443 1244.44,-582.268 1233.87,-583.016 1236.65,-589.443"/>
</g>
<!-- LEAST_CONTRADICTION -->
<g id="node25" class="node"><title>LEAST_CONTRADICTION</title>
<ellipse fill="none" stroke="black" cx="956.84" cy="-475.383" rx="114.28" ry="18"/>
<text text-anchor="middle" x="956.84" y="-471.683" font-family="Times,serif" font-size="14.00">LEAST_CONTRADICTION</text>
</g>
<!-- n22 (0.55 &#45; 3)&#45;&gt;LEAST_CONTRADICTION -->
<g id="edge24" class="edge"><title>n22 (0.55 &#45; 3)&#45;&gt;LEAST_CONTRADICTION</title>
<path fill="none" stroke="black" d="M1029.52,-549.449C1015.89,-535.748 996.272,-516.026 980.853,-500.525"/>
<polygon fill="black" stroke="black" points="983.199,-497.92 973.665,-493.299 978.236,-502.857 983.199,-497.92"/>
</g>
<!-- COSINE\nJACCARD -->
<g id="node26" class="node"><title>COSINE\nJACCARD</title>
<ellipse fill="none" stroke="black" cx="1144.84" cy="-475.383" rx="55.3091" ry="26.7407"/>
<text text-anchor="middle" x="1144.84" y="-479.183" font-family="Times,serif" font-size="14.00">COSINE</text>
<text text-anchor="middle" x="1144.84" y="-464.183" font-family="Times,serif" font-size="14.00">JACCARD</text>
</g>
<!-- n22 (0.55 &#45; 3)&#45;&gt;COSINE\nJACCARD -->
<g id="edge25" class="edge"><title>n22 (0.55 &#45; 3)&#45;&gt;COSINE\nJACCARD</title>
<path fill="none" stroke="black" d="M1064,-549.449C1077.33,-537.395 1095.83,-520.682 1111.76,-506.282"/>
<polygon fill="black" stroke="black" points="1114.27,-508.731 1119.34,-499.429 1109.58,-503.538 1114.27,-508.731"/>
</g>
<!-- n20 (0.57 &#45; 4) -->
<g id="node28" class="node"><title>n20 (0.57 &#45; 4)</title>
<ellipse fill="none" stroke="black" cx="1277.84" cy="-475.383" rx="59.5901" ry="18"/>
<text text-anchor="middle" x="1277.84" y="-471.683" font-family="Times,serif" font-size="14.00">n20 (0.57 &#45; 4)</text>
</g>
<!-- n26 (0.07 &#45; 11)&#45;&gt;n20 (0.57 &#45; 4) -->
<g id="edge27" class="edge"><title>n26 (0.07 &#45; 11)&#45;&gt;n20 (0.57 &#45; 4)</title>
<path fill="none" stroke="black" d="M1277.84,-548.608C1277.84,-535.858 1277.84,-518.246 1277.84,-503.606"/>
<polygon fill="black" stroke="black" points="1281.34,-503.582 1277.84,-493.582 1274.34,-503.582 1281.34,-503.582"/>
</g>
<!-- n24 (0.13 &#45; 7) -->
<g id="node35" class="node"><title>n24 (0.13 &#45; 7)</title>
<ellipse fill="none" stroke="black" cx="1415.84" cy="-475.383" rx="59.5901" ry="18"/>
<text text-anchor="middle" x="1415.84" y="-471.683" font-family="Times,serif" font-size="14.00">n24 (0.13 &#45; 7)</text>
</g>
<!-- n26 (0.07 &#45; 11)&#45;&gt;n24 (0.13 &#45; 7) -->
<g id="edge34" class="edge"><title>n26 (0.07 &#45; 11)&#45;&gt;n24 (0.13 &#45; 7)</title>
<path fill="none" stroke="black" d="M1302.19,-550.069C1324.66,-535.503 1358.19,-513.761 1383.02,-497.667"/>
<polygon fill="black" stroke="black" points="1385.24,-500.393 1391.73,-492.016 1381.43,-494.52 1385.24,-500.393"/>
</g>
<!-- GINI -->
<g id="node29" class="node"><title>GINI</title>
<ellipse fill="none" stroke="black" cx="1172.84" cy="-353.823" rx="29.4969" ry="18"/>
<text text-anchor="middle" x="1172.84" y="-350.123" font-family="Times,serif" font-size="14.00">GINI</text>
</g>
<!-- n20 (0.57 &#45; 4)&#45;&gt;GINI -->
<g id="edge28" class="edge"><title>n20 (0.57 &#45; 4)&#45;&gt;GINI</title>
<path fill="none" stroke="black" d="M1262.08,-457.975C1248.3,-443.47 1227.87,-421.615 1210.84,-401.907 1204.28,-394.319 1197.33,-385.842 1191.19,-378.195"/>
<polygon fill="black" stroke="black" points="1193.88,-375.945 1184.91,-370.304 1188.4,-380.306 1193.88,-375.945"/>
</g>
<!-- n19 (0.60 &#45; 3) -->
<g id="node30" class="node"><title>n19 (0.60 &#45; 3)</title>
<ellipse fill="none" stroke="black" cx="1279.84" cy="-353.823" rx="59.5901" ry="18"/>
<text text-anchor="middle" x="1279.84" y="-350.123" font-family="Times,serif" font-size="14.00">n19 (0.60 &#45; 3)</text>
</g>
<!-- n20 (0.57 &#45; 4)&#45;&gt;n19 (0.60 &#45; 3) -->
<g id="edge29" class="edge"><title>n20 (0.57 &#45; 4)&#45;&gt;n19 (0.60 &#45; 3)</title>
<path fill="none" stroke="black" d="M1278.13,-457.253C1278.46,-437.632 1279,-405.221 1279.38,-382.113"/>
<polygon fill="black" stroke="black" points="1282.89,-381.979 1279.55,-371.922 1275.89,-381.862 1282.89,-381.979"/>
</g>
<!-- IMPLICATION_INDEX -->
<g id="node31" class="node"><title>IMPLICATION_INDEX</title>
<ellipse fill="none" stroke="black" cx="1110.84" cy="-251.74" rx="100.182" ry="18"/>
<text text-anchor="middle" x="1110.84" y="-248.04" font-family="Times,serif" font-size="14.00">IMPLICATION_INDEX</text>
</g>
<!-- n19 (0.60 &#45; 3)&#45;&gt;IMPLICATION_INDEX -->
<g id="edge30" class="edge"><title>n19 (0.60 &#45; 3)&#45;&gt;IMPLICATION_INDEX</title>
<path fill="none" stroke="black" d="M1257.88,-336.914C1244.52,-327.472 1226.98,-315.483 1210.84,-305.74 1192.07,-294.413 1170.68,-282.894 1152.5,-273.5"/>
<polygon fill="black" stroke="black" points="1153.82,-270.242 1143.32,-268.795 1150.62,-276.471 1153.82,-270.242"/>
</g>
<!-- n17 (0.80 &#45; 2) -->
<g id="node32" class="node"><title>n17 (0.80 &#45; 2)</title>
<ellipse fill="none" stroke="black" cx="1288.84" cy="-251.74" rx="59.5901" ry="18"/>
<text text-anchor="middle" x="1288.84" y="-248.04" font-family="Times,serif" font-size="14.00">n17 (0.80 &#45; 2)</text>
</g>
<!-- n19 (0.60 &#45; 3)&#45;&gt;n17 (0.80 &#45; 2) -->
<g id="edge31" class="edge"><title>n19 (0.60 &#45; 3)&#45;&gt;n17 (0.80 &#45; 2)</title>
<path fill="none" stroke="black" d="M1281.41,-335.39C1282.78,-320.178 1284.78,-297.845 1286.37,-280.227"/>
<polygon fill="black" stroke="black" points="1289.88,-280.247 1287.29,-269.974 1282.91,-279.62 1289.88,-280.247"/>
</g>
<!-- TWO_WAY_SUPPORT -->
<g id="node33" class="node"><title>TWO_WAY_SUPPORT</title>
<ellipse fill="none" stroke="black" cx="1251.84" cy="-179.74" rx="100.182" ry="18"/>
<text text-anchor="middle" x="1251.84" y="-176.04" font-family="Times,serif" font-size="14.00">TWO_WAY_SUPPORT</text>
</g>
<!-- n17 (0.80 &#45; 2)&#45;&gt;TWO_WAY_SUPPORT -->
<g id="edge32" class="edge"><title>n17 (0.80 &#45; 2)&#45;&gt;TWO_WAY_SUPPORT</title>
<path fill="none" stroke="black" d="M1279.88,-233.795C1275.63,-225.747 1270.45,-215.945 1265.7,-206.966"/>
<polygon fill="black" stroke="black" points="1268.74,-205.221 1260.97,-198.015 1262.55,-208.492 1268.74,-205.221"/>
</g>
<!-- PIATETSKY_SHAPIRO -->
<g id="node34" class="node"><title>PIATETSKY_SHAPIRO</title>
<ellipse fill="none" stroke="black" cx="1470.84" cy="-179.74" rx="100.983" ry="18"/>
<text text-anchor="middle" x="1470.84" y="-176.04" font-family="Times,serif" font-size="14.00">PIATETSKY_SHAPIRO</text>
</g>
<!-- n17 (0.80 &#45; 2)&#45;&gt;PIATETSKY_SHAPIRO -->
<g id="edge33" class="edge"><title>n17 (0.80 &#45; 2)&#45;&gt;PIATETSKY_SHAPIRO</title>
<path fill="none" stroke="black" d="M1324.36,-237.077C1351.81,-226.522 1390.14,-211.78 1420.7,-200.024"/>
<polygon fill="black" stroke="black" points="1422.25,-203.177 1430.33,-196.321 1419.74,-196.644 1422.25,-203.177"/>
</g>
<!-- KLOSGEN -->
<g id="node36" class="node"><title>KLOSGEN</title>
<ellipse fill="none" stroke="black" cx="1413.84" cy="-353.823" rx="51.9908" ry="18"/>
<text text-anchor="middle" x="1413.84" y="-350.123" font-family="Times,serif" font-size="14.00">KLOSGEN</text>
</g>
<!-- n24 (0.13 &#45; 7)&#45;&gt;KLOSGEN -->
<g id="edge35" class="edge"><title>n24 (0.13 &#45; 7)&#45;&gt;KLOSGEN</title>
<path fill="none" stroke="black" d="M1415.55,-457.253C1415.23,-437.632 1414.68,-405.221 1414.3,-382.113"/>
<polygon fill="black" stroke="black" points="1417.79,-381.862 1414.13,-371.922 1410.79,-381.979 1417.79,-381.862"/>
</g>
<!-- n21 (0.56 &#45; 6) -->
<g id="node37" class="node"><title>n21 (0.56 &#45; 6)</title>
<ellipse fill="none" stroke="black" cx="1543.84" cy="-353.823" rx="59.5901" ry="18"/>
<text text-anchor="middle" x="1543.84" y="-350.123" font-family="Times,serif" font-size="14.00">n21 (0.56 &#45; 6)</text>
</g>
<!-- n24 (0.13 &#45; 7)&#45;&gt;n21 (0.56 &#45; 6) -->
<g id="edge36" class="edge"><title>n24 (0.13 &#45; 7)&#45;&gt;n21 (0.56 &#45; 6)</title>
<path fill="none" stroke="black" d="M1433.37,-458.01C1455.46,-437.377 1493.57,-401.775 1518.75,-378.262"/>
<polygon fill="black" stroke="black" points="1521.19,-380.767 1526.11,-371.383 1516.41,-375.651 1521.19,-380.767"/>
</g>
<!-- TWO_WAY_SUPPORT_VARIATION -->
<g id="node38" class="node"><title>TWO_WAY_SUPPORT_VARIATION</title>
<ellipse fill="none" stroke="black" cx="1533.84" cy="-251.74" rx="153.273" ry="18"/>
<text text-anchor="middle" x="1533.84" y="-248.04" font-family="Times,serif" font-size="14.00">TWO_WAY_SUPPORT_VARIATION</text>
</g>
<!-- n21 (0.56 &#45; 6)&#45;&gt;TWO_WAY_SUPPORT_VARIATION -->
<g id="edge37" class="edge"><title>n21 (0.56 &#45; 6)&#45;&gt;TWO_WAY_SUPPORT_VARIATION</title>
<path fill="none" stroke="black" d="M1542.1,-335.39C1540.58,-320.178 1538.35,-297.845 1536.59,-280.227"/>
<polygon fill="black" stroke="black" points="1540.04,-279.576 1535.56,-269.974 1533.07,-280.272 1540.04,-279.576"/>
</g>
<!-- n18 (0.70 &#45; 5) -->
<g id="node39" class="node"><title>n18 (0.70 &#45; 5)</title>
<ellipse fill="none" stroke="black" cx="1764.84" cy="-251.74" rx="59.5901" ry="18"/>
<text text-anchor="middle" x="1764.84" y="-248.04" font-family="Times,serif" font-size="14.00">n18 (0.70 &#45; 5)</text>
</g>
<!-- n21 (0.56 &#45; 6)&#45;&gt;n18 (0.70 &#45; 5) -->
<g id="edge38" class="edge"><title>n21 (0.56 &#45; 6)&#45;&gt;n18 (0.70 &#45; 5)</title>
<path fill="none" stroke="black" d="M1575.5,-338.484C1614.56,-320.796 1681.04,-290.69 1723.93,-271.267"/>
<polygon fill="black" stroke="black" points="1725.57,-274.367 1733.24,-267.053 1722.68,-267.99 1725.57,-274.367"/>
</g>
<!-- KAPPA -->
<g id="node40" class="node"><title>KAPPA</title>
<ellipse fill="none" stroke="black" cx="1670.84" cy="-179.74" rx="39.7935" ry="18"/>
<text text-anchor="middle" x="1670.84" y="-176.04" font-family="Times,serif" font-size="14.00">KAPPA</text>
</g>
<!-- n18 (0.70 &#45; 5)&#45;&gt;KAPPA -->
<g id="edge39" class="edge"><title>n18 (0.70 &#45; 5)&#45;&gt;KAPPA</title>
<path fill="none" stroke="black" d="M1743.51,-234.856C1730.29,-225.01 1713.16,-212.252 1698.85,-201.597"/>
<polygon fill="black" stroke="black" points="1700.91,-198.77 1690.8,-195.604 1696.73,-204.384 1700.91,-198.77"/>
</g>
<!-- n16 (0.80 &#45; 4) -->
<g id="node41" class="node"><title>n16 (0.80 &#45; 4)</title>
<ellipse fill="none" stroke="black" cx="1787.84" cy="-179.74" rx="59.5901" ry="18"/>
<text text-anchor="middle" x="1787.84" y="-176.04" font-family="Times,serif" font-size="14.00">n16 (0.80 &#45; 4)</text>
</g>
<!-- n18 (0.70 &#45; 5)&#45;&gt;n16 (0.80 &#45; 4) -->
<g id="edge40" class="edge"><title>n18 (0.70 &#45; 5)&#45;&gt;n16 (0.80 &#45; 4)</title>
<path fill="none" stroke="black" d="M1770.41,-233.795C1773,-225.916 1776.14,-216.357 1779.04,-207.534"/>
<polygon fill="black" stroke="black" points="1782.37,-208.608 1782.16,-198.015 1775.72,-206.423 1782.37,-208.608"/>
</g>
<!-- J_MEASURE -->
<g id="node42" class="node"><title>J_MEASURE</title>
<ellipse fill="none" stroke="black" cx="1717.84" cy="-107.74" rx="61.1893" ry="18"/>
<text text-anchor="middle" x="1717.84" y="-104.04" font-family="Times,serif" font-size="14.00">J_MEASURE</text>
</g>
<!-- n16 (0.80 &#45; 4)&#45;&gt;J_MEASURE -->
<g id="edge41" class="edge"><title>n16 (0.80 &#45; 4)&#45;&gt;J_MEASURE</title>
<path fill="none" stroke="black" d="M1771.25,-162.151C1762.36,-153.259 1751.25,-142.151 1741.47,-132.371"/>
<polygon fill="black" stroke="black" points="1743.86,-129.806 1734.31,-125.21 1738.91,-134.756 1743.86,-129.806"/>
</g>
<!-- n15 (0.80 &#45; 3) -->
<g id="node43" class="node"><title>n15 (0.80 &#45; 3)</title>
<ellipse fill="none" stroke="black" cx="1856.84" cy="-107.74" rx="59.5901" ry="18"/>
<text text-anchor="middle" x="1856.84" y="-104.04" font-family="Times,serif" font-size="14.00">n15 (0.80 &#45; 3)</text>
</g>
<!-- n16 (0.80 &#45; 4)&#45;&gt;n15 (0.80 &#45; 3) -->
<g id="edge42" class="edge"><title>n16 (0.80 &#45; 4)&#45;&gt;n15 (0.80 &#45; 3)</title>
<path fill="none" stroke="black" d="M1804.19,-162.151C1812.96,-153.259 1823.91,-142.151 1833.55,-132.371"/>
<polygon fill="black" stroke="black" points="1836.08,-134.789 1840.61,-125.21 1831.09,-129.875 1836.08,-134.789"/>
</g>
<!-- FISHER_PVAL -->
<g id="node44" class="node"><title>FISHER_PVAL</title>
<ellipse fill="none" stroke="black" cx="1777.84" cy="-26.8701" rx="68.4888" ry="18"/>
<text text-anchor="middle" x="1777.84" y="-23.1701" font-family="Times,serif" font-size="14.00">FISHER_PVAL</text>
</g>
<!-- n15 (0.80 &#45; 3)&#45;&gt;FISHER_PVAL -->
<g id="edge43" class="edge"><title>n15 (0.80 &#45; 3)&#45;&gt;FISHER_PVAL</title>
<path fill="none" stroke="black" d="M1840.47,-90.3982C1829.32,-79.2634 1814.37,-64.3359 1801.87,-51.8588"/>
<polygon fill="black" stroke="black" points="1804.01,-49.0508 1794.46,-44.4624 1799.06,-54.0046 1804.01,-49.0508"/>
</g>
<!-- PHI\nCHI_SQUARE -->
<g id="node45" class="node"><title>PHI\nCHI_SQUARE</title>
<ellipse fill="none" stroke="black" cx="1935.84" cy="-26.8701" rx="71.3357" ry="26.7407"/>
<text text-anchor="middle" x="1935.84" y="-30.6701" font-family="Times,serif" font-size="14.00">PHI</text>
<text text-anchor="middle" x="1935.84" y="-15.6701" font-family="Times,serif" font-size="14.00">CHI_SQUARE</text>
</g>
<!-- n15 (0.80 &#45; 3)&#45;&gt;PHI\nCHI_SQUARE -->
<g id="edge44" class="edge"><title>n15 (0.80 &#45; 3)&#45;&gt;PHI\nCHI_SQUARE</title>
<path fill="none" stroke="black" d="M1873.21,-90.3982C1882.17,-81.4531 1893.58,-70.0604 1904.2,-59.4567"/>
<polygon fill="black" stroke="black" points="1906.78,-61.8237 1911.39,-52.2815 1901.84,-56.8699 1906.78,-61.8237"/>
</g>
</g>
</svg>
