<?xml version="1.0" encoding="UTF-8" standalone="no"?>
<!DOCTYPE svg PUBLIC "-//W3C//DTD SVG 1.1//EN"
 "http://www.w3.org/Graphics/SVG/1.1/DTD/svg11.dtd">
<!-- Generated by graphviz version 2.38.0 (20140413.2041)
 -->
<!-- Title: dendrogram Pages: 1 -->
<svg width="1486pt" height="728pt"
 viewBox="0.00 0.00 1485.83 728.10" xmlns="http://www.w3.org/2000/svg" xmlns:xlink="http://www.w3.org/1999/xlink">
<g id="graph0" class="graph" transform="scale(1 1) rotate(0) translate(4 724.105)">
<title>dendrogram</title>
<polygon fill="white" stroke="none" points="-4,4 -4,-724.105 1481.83,-724.105 1481.83,4 -4,4"/>
<!-- n34 (&#45;0.09 &#45; 36) -->
<g id="node1" class="node"><title>n34 (&#45;0.09 &#45; 36)</title>
<ellipse fill="none" stroke="black" cx="444.646" cy="-702.105" rx="67.6881" ry="18"/>
<text text-anchor="middle" x="444.646" y="-698.405" font-family="Times,serif" font-size="14.00">n34 (&#45;0.09 &#45; 36)</text>
</g>
<!-- n33 (0.50 &#45; 6) -->
<g id="node2" class="node"><title>n33 (0.50 &#45; 6)</title>
<ellipse fill="none" stroke="black" cx="283.646" cy="-630.105" rx="59.5901" ry="18"/>
<text text-anchor="middle" x="283.646" y="-626.405" font-family="Times,serif" font-size="14.00">n33 (0.50 &#45; 6)</text>
</g>
<!-- n34 (&#45;0.09 &#45; 36)&#45;&gt;n33 (0.50 &#45; 6) -->
<g id="edge1" class="edge"><title>n34 (&#45;0.09 &#45; 36)&#45;&gt;n33 (0.50 &#45; 6)</title>
<path fill="none" stroke="black" d="M410.896,-686.43C386.095,-675.647 352.234,-660.925 325.677,-649.379"/>
<polygon fill="black" stroke="black" points="326.819,-646.059 316.253,-645.281 324.028,-652.478 326.819,-646.059"/>
</g>
<!-- n31 (0.66 &#45; 30) -->
<g id="node11" class="node"><title>n31 (0.66 &#45; 30)</title>
<ellipse fill="none" stroke="black" cx="605.646" cy="-630.105" rx="64.189" ry="18"/>
<text text-anchor="middle" x="605.646" y="-626.405" font-family="Times,serif" font-size="14.00">n31 (0.66 &#45; 30)</text>
</g>
<!-- n34 (&#45;0.09 &#45; 36)&#45;&gt;n31 (0.66 &#45; 30) -->
<g id="edge10" class="edge"><title>n34 (&#45;0.09 &#45; 36)&#45;&gt;n31 (0.66 &#45; 30)</title>
<path fill="none" stroke="black" d="M478.397,-686.43C502.952,-675.754 536.387,-661.217 562.823,-649.724"/>
<polygon fill="black" stroke="black" points="564.441,-652.837 572.216,-645.64 561.65,-646.417 564.441,-652.837"/>
</g>
<!-- ACCURACY -->
<g id="node3" class="node"><title>ACCURACY</title>
<ellipse fill="none" stroke="black" cx="145.646" cy="-558.105" rx="59.5901" ry="18"/>
<text text-anchor="middle" x="145.646" y="-554.405" font-family="Times,serif" font-size="14.00">ACCURACY</text>
</g>
<!-- n33 (0.50 &#45; 6)&#45;&gt;ACCURACY -->
<g id="edge2" class="edge"><title>n33 (0.50 &#45; 6)&#45;&gt;ACCURACY</title>
<path fill="none" stroke="black" d="M254.38,-614.259C233.889,-603.865 206.304,-589.873 184.047,-578.583"/>
<polygon fill="black" stroke="black" points="185.372,-575.331 174.871,-573.928 182.205,-581.574 185.372,-575.331"/>
</g>
<!-- n32 (0.65 &#45; 5) -->
<g id="node4" class="node"><title>n32 (0.65 &#45; 5)</title>
<ellipse fill="none" stroke="black" cx="283.646" cy="-558.105" rx="59.5901" ry="18"/>
<text text-anchor="middle" x="283.646" y="-554.405" font-family="Times,serif" font-size="14.00">n32 (0.65 &#45; 5)</text>
</g>
<!-- n33 (0.50 &#45; 6)&#45;&gt;n32 (0.65 &#45; 5) -->
<g id="edge3" class="edge"><title>n33 (0.50 &#45; 6)&#45;&gt;n32 (0.65 &#45; 5)</title>
<path fill="none" stroke="black" d="M283.646,-611.801C283.646,-604.087 283.646,-594.817 283.646,-586.217"/>
<polygon fill="black" stroke="black" points="287.147,-586.209 283.646,-576.209 280.147,-586.209 287.147,-586.209"/>
</g>
<!-- n26 (0.88 &#45; 2) -->
<g id="node5" class="node"><title>n26 (0.88 &#45; 2)</title>
<ellipse fill="none" stroke="black" cx="145.646" cy="-413.595" rx="59.5901" ry="18"/>
<text text-anchor="middle" x="145.646" y="-409.895" font-family="Times,serif" font-size="14.00">n26 (0.88 &#45; 2)</text>
</g>
<!-- n32 (0.65 &#45; 5)&#45;&gt;n26 (0.88 &#45; 2) -->
<g id="edge4" class="edge"><title>n32 (0.65 &#45; 5)&#45;&gt;n26 (0.88 &#45; 2)</title>
<path fill="none" stroke="black" d="M260.055,-541.308C246.12,-531.428 228.544,-517.978 214.646,-504.105 194.747,-484.239 175.505,-458.566 162.419,-439.812"/>
<polygon fill="black" stroke="black" points="165.236,-437.732 156.687,-431.473 159.468,-441.697 165.236,-437.732"/>
</g>
<!-- n28 (0.85 &#45; 3) -->
<g id="node8" class="node"><title>n28 (0.85 &#45; 3)</title>
<ellipse fill="none" stroke="black" cx="283.646" cy="-413.595" rx="59.5901" ry="18"/>
<text text-anchor="middle" x="283.646" y="-409.895" font-family="Times,serif" font-size="14.00">n28 (0.85 &#45; 3)</text>
</g>
<!-- n32 (0.65 &#45; 5)&#45;&gt;n28 (0.85 &#45; 3) -->
<g id="edge7" class="edge"><title>n32 (0.65 &#45; 5)&#45;&gt;n28 (0.85 &#45; 3)</title>
<path fill="none" stroke="black" d="M283.646,-539.915C283.646,-515.627 283.646,-471.008 283.646,-442.087"/>
<polygon fill="black" stroke="black" points="287.147,-441.846 283.646,-431.846 280.147,-441.846 287.147,-441.846"/>
</g>
<!-- KAPPA -->
<g id="node6" class="node"><title>KAPPA</title>
<ellipse fill="none" stroke="black" cx="39.6465" cy="-143.543" rx="39.7935" ry="18"/>
<text text-anchor="middle" x="39.6465" y="-139.843" font-family="Times,serif" font-size="14.00">KAPPA</text>
</g>
<!-- n26 (0.88 &#45; 2)&#45;&gt;KAPPA -->
<g id="edge5" class="edge"><title>n26 (0.88 &#45; 2)&#45;&gt;KAPPA</title>
<path fill="none" stroke="black" d="M136.975,-395.392C125.071,-371.447 103.36,-326.56 87.6465,-287.085 71.8199,-247.328 56.5865,-200.06 47.6721,-171.189"/>
<polygon fill="black" stroke="black" points="50.9592,-169.97 44.6844,-161.433 44.266,-172.02 50.9592,-169.97"/>
</g>
<!-- JACCARD -->
<g id="node7" class="node"><title>JACCARD</title>
<ellipse fill="none" stroke="black" cx="147.646" cy="-143.543" rx="50.8918" ry="18"/>
<text text-anchor="middle" x="147.646" y="-139.843" font-family="Times,serif" font-size="14.00">JACCARD</text>
</g>
<!-- n26 (0.88 &#45; 2)&#45;&gt;JACCARD -->
<g id="edge6" class="edge"><title>n26 (0.88 &#45; 2)&#45;&gt;JACCARD</title>
<path fill="none" stroke="black" d="M145.775,-395.419C146.113,-350.03 147.034,-226.617 147.444,-171.619"/>
<polygon fill="black" stroke="black" points="150.945,-171.601 147.519,-161.575 143.945,-171.549 150.945,-171.601"/>
</g>
<!-- SPECIFICITY -->
<g id="node9" class="node"><title>SPECIFICITY</title>
<ellipse fill="none" stroke="black" cx="282.646" cy="-143.543" rx="63.0888" ry="18"/>
<text text-anchor="middle" x="282.646" y="-139.843" font-family="Times,serif" font-size="14.00">SPECIFICITY</text>
</g>
<!-- n28 (0.85 &#45; 3)&#45;&gt;SPECIFICITY -->
<g id="edge8" class="edge"><title>n28 (0.85 &#45; 3)&#45;&gt;SPECIFICITY</title>
<path fill="none" stroke="black" d="M283.582,-395.419C283.413,-350.03 282.953,-226.617 282.747,-171.619"/>
<polygon fill="black" stroke="black" points="286.247,-171.562 282.71,-161.575 279.247,-171.588 286.247,-171.562"/>
</g>
<!-- COLLECTIVE_STRENGH\nRECALL -->
<g id="node10" class="node"><title>COLLECTIVE_STRENGH\nRECALL</title>
<ellipse fill="none" stroke="black" cx="483.646" cy="-143.543" rx="119.502" ry="26.7407"/>
<text text-anchor="middle" x="483.646" y="-147.343" font-family="Times,serif" font-size="14.00">COLLECTIVE_STRENGH</text>
<text text-anchor="middle" x="483.646" y="-132.343" font-family="Times,serif" font-size="14.00">RECALL</text>
</g>
<!-- n28 (0.85 &#45; 3)&#45;&gt;COLLECTIVE_STRENGH\nRECALL -->
<g id="edge9" class="edge"><title>n28 (0.85 &#45; 3)&#45;&gt;COLLECTIVE_STRENGH\nRECALL</title>
<path fill="none" stroke="black" d="M296.157,-395.827C328.435,-352.567 415.012,-236.53 458.291,-178.526"/>
<polygon fill="black" stroke="black" points="461.176,-180.512 464.35,-170.404 455.565,-176.326 461.176,-180.512"/>
</g>
<!-- n29 (0.84 &#45; 8) -->
<g id="node12" class="node"><title>n29 (0.84 &#45; 8)</title>
<ellipse fill="none" stroke="black" cx="605.646" cy="-558.105" rx="59.5901" ry="18"/>
<text text-anchor="middle" x="605.646" y="-554.405" font-family="Times,serif" font-size="14.00">n29 (0.84 &#45; 8)</text>
</g>
<!-- n31 (0.66 &#45; 30)&#45;&gt;n29 (0.84 &#45; 8) -->
<g id="edge11" class="edge"><title>n31 (0.66 &#45; 30)&#45;&gt;n29 (0.84 &#45; 8)</title>
<path fill="none" stroke="black" d="M605.646,-611.801C605.646,-604.087 605.646,-594.817 605.646,-586.217"/>
<polygon fill="black" stroke="black" points="609.147,-586.209 605.646,-576.209 602.147,-586.209 609.147,-586.209"/>
</g>
<!-- n30 (0.78 &#45; 22) -->
<g id="node15" class="node"><title>n30 (0.78 &#45; 22)</title>
<ellipse fill="none" stroke="black" cx="1028.65" cy="-558.105" rx="64.189" ry="18"/>
<text text-anchor="middle" x="1028.65" y="-554.405" font-family="Times,serif" font-size="14.00">n30 (0.78 &#45; 22)</text>
</g>
<!-- n31 (0.66 &#45; 30)&#45;&gt;n30 (0.78 &#45; 22) -->
<g id="edge14" class="edge"><title>n31 (0.66 &#45; 30)&#45;&gt;n30 (0.78 &#45; 22)</title>
<path fill="none" stroke="black" d="M659.649,-620.168C737.582,-607.271 881.335,-583.483 964.545,-569.713"/>
<polygon fill="black" stroke="black" points="965.337,-573.129 974.631,-568.043 964.194,-566.223 965.337,-573.129"/>
</g>
<!-- PIATETSKY_SHAPIRO -->
<g id="node13" class="node"><title>PIATETSKY_SHAPIRO</title>
<ellipse fill="none" stroke="black" cx="462.646" cy="-413.595" rx="100.983" ry="18"/>
<text text-anchor="middle" x="462.646" y="-409.895" font-family="Times,serif" font-size="14.00">PIATETSKY_SHAPIRO</text>
</g>
<!-- n29 (0.84 &#45; 8)&#45;&gt;PIATETSKY_SHAPIRO -->
<g id="edge12" class="edge"><title>n29 (0.84 &#45; 8)&#45;&gt;PIATETSKY_SHAPIRO</title>
<path fill="none" stroke="black" d="M589.243,-540.757C564.19,-515.791 516.241,-468.006 487.082,-438.947"/>
<polygon fill="black" stroke="black" points="489.299,-436.214 479.745,-431.635 484.357,-441.173 489.299,-436.214"/>
</g>
<!-- COSINE\nTWO_WAY_SUPPORT\nCHI_SQUARE\nPHI\nJ_MEASURE\nTWO_WAY_SUPPORT_VARIATION\nFISHER_PVAL -->
<g id="node14" class="node"><title>COSINE\nTWO_WAY_SUPPORT\nCHI_SQUARE\nPHI\nJ_MEASURE\nTWO_WAY_SUPPORT_VARIATION\nFISHER_PVAL</title>
<ellipse fill="none" stroke="black" cx="748.646" cy="-413.595" rx="166.754" ry="79.8063"/>
<text text-anchor="middle" x="748.646" y="-454.895" font-family="Times,serif" font-size="14.00">COSINE</text>
<text text-anchor="middle" x="748.646" y="-439.895" font-family="Times,serif" font-size="14.00">TWO_WAY_SUPPORT</text>
<text text-anchor="middle" x="748.646" y="-424.895" font-family="Times,serif" font-size="14.00">CHI_SQUARE</text>
<text text-anchor="middle" x="748.646" y="-409.895" font-family="Times,serif" font-size="14.00">PHI</text>
<text text-anchor="middle" x="748.646" y="-394.895" font-family="Times,serif" font-size="14.00">J_MEASURE</text>
<text text-anchor="middle" x="748.646" y="-379.895" font-family="Times,serif" font-size="14.00">TWO_WAY_SUPPORT_VARIATION</text>
<text text-anchor="middle" x="748.646" y="-364.895" font-family="Times,serif" font-size="14.00">FISHER_PVAL</text>
</g>
<!-- n29 (0.84 &#45; 8)&#45;&gt;COSINE\nTWO_WAY_SUPPORT\nCHI_SQUARE\nPHI\nJ_MEASURE\nTWO_WAY_SUPPORT_VARIATION\nFISHER_PVAL -->
<g id="edge13" class="edge"><title>n29 (0.84 &#45; 8)&#45;&gt;COSINE\nTWO_WAY_SUPPORT\nCHI_SQUARE\nPHI\nJ_MEASURE\nTWO_WAY_SUPPORT_VARIATION\nFISHER_PVAL</title>
<path fill="none" stroke="black" d="M622.05,-540.757C634.161,-528.687 651.624,-511.285 669.728,-493.243"/>
<polygon fill="black" stroke="black" points="672.347,-495.574 676.96,-486.036 667.406,-490.616 672.347,-495.574"/>
</g>
<!-- RELATIVE_RISK\nLIFT\nYULE_Y\nYULE_Q\nODDS_RATIO\nODD_MULTIPLIER\nZHANG\nBAYES -->
<g id="node16" class="node"><title>RELATIVE_RISK\nLIFT\nYULE_Y\nYULE_Q\nODDS_RATIO\nODD_MULTIPLIER\nZHANG\nBAYES</title>
<ellipse fill="none" stroke="black" cx="1028.65" cy="-413.595" rx="94.5053" ry="90.5193"/>
<text text-anchor="middle" x="1028.65" y="-462.395" font-family="Times,serif" font-size="14.00">RELATIVE_RISK</text>
<text text-anchor="middle" x="1028.65" y="-447.395" font-family="Times,serif" font-size="14.00">LIFT</text>
<text text-anchor="middle" x="1028.65" y="-432.395" font-family="Times,serif" font-size="14.00">YULE_Y</text>
<text text-anchor="middle" x="1028.65" y="-417.395" font-family="Times,serif" font-size="14.00">YULE_Q</text>
<text text-anchor="middle" x="1028.65" y="-402.395" font-family="Times,serif" font-size="14.00">ODDS_RATIO</text>
<text text-anchor="middle" x="1028.65" y="-387.395" font-family="Times,serif" font-size="14.00">ODD_MULTIPLIER</text>
<text text-anchor="middle" x="1028.65" y="-372.395" font-family="Times,serif" font-size="14.00">ZHANG</text>
<text text-anchor="middle" x="1028.65" y="-357.395" font-family="Times,serif" font-size="14.00">BAYES</text>
</g>
<!-- n30 (0.78 &#45; 22)&#45;&gt;RELATIVE_RISK\nLIFT\nYULE_Y\nYULE_Q\nODDS_RATIO\nODD_MULTIPLIER\nZHANG\nBAYES -->
<g id="edge15" class="edge"><title>n30 (0.78 &#45; 22)&#45;&gt;RELATIVE_RISK\nLIFT\nYULE_Y\nYULE_Q\nODDS_RATIO\nODD_MULTIPLIER\nZHANG\nBAYES</title>
<path fill="none" stroke="black" d="M1028.65,-539.915C1028.65,-532.882 1028.65,-524.144 1028.65,-514.577"/>
<polygon fill="black" stroke="black" points="1032.15,-514.343 1028.65,-504.343 1025.15,-514.343 1032.15,-514.343"/>
</g>
<!-- n27 (0.85 &#45; 14) -->
<g id="node17" class="node"><title>n27 (0.85 &#45; 14)</title>
<ellipse fill="none" stroke="black" cx="1205.65" cy="-413.595" rx="64.189" ry="18"/>
<text text-anchor="middle" x="1205.65" y="-409.895" font-family="Times,serif" font-size="14.00">n27 (0.85 &#45; 14)</text>
</g>
<!-- n30 (0.78 &#45; 22)&#45;&gt;n27 (0.85 &#45; 14) -->
<g id="edge16" class="edge"><title>n30 (0.78 &#45; 22)&#45;&gt;n27 (0.85 &#45; 14)</title>
<path fill="none" stroke="black" d="M1065.02,-543.036C1086.05,-533.851 1112.3,-520.522 1132.65,-504.105 1155.38,-485.758 1175.88,-459.304 1189.33,-439.913"/>
<polygon fill="black" stroke="black" points="1192.28,-441.796 1194.99,-431.554 1186.49,-437.869 1192.28,-441.796"/>
</g>
<!-- LEAST_CONTRADICTION -->
<g id="node18" class="node"><title>LEAST_CONTRADICTION</title>
<ellipse fill="none" stroke="black" cx="1070.65" cy="-143.543" rx="114.28" ry="18"/>
<text text-anchor="middle" x="1070.65" y="-139.843" font-family="Times,serif" font-size="14.00">LEAST_CONTRADICTION</text>
</g>
<!-- n27 (0.85 &#45; 14)&#45;&gt;LEAST_CONTRADICTION -->
<g id="edge17" class="edge"><title>n27 (0.85 &#45; 14)&#45;&gt;LEAST_CONTRADICTION</title>
<path fill="none" stroke="black" d="M1197,-395.419C1173.99,-349.746 1111.2,-225.072 1083.77,-170.596"/>
<polygon fill="black" stroke="black" points="1086.85,-168.932 1079.22,-161.575 1080.6,-172.081 1086.85,-168.932"/>
</g>
<!-- KLOSGEN\nGINI\nIMPLICATION_INDEX\nLEVERAGE\nCOUNTER_EXAMPLE_RATE\nSEBAG_SCHOENAUER\nCONFIDENCE\nONE_WAY_SUPPORT\nCENTERED_CONFIDENCE\nADDED_VALUE\nCERTAINTY_FACTOR\nLOEVINGER\nCONVICTION -->
<g id="node19" class="node"><title>KLOSGEN\nGINI\nIMPLICATION_INDEX\nLEVERAGE\nCOUNTER_EXAMPLE_RATE\nSEBAG_SCHOENAUER\nCONFIDENCE\nONE_WAY_SUPPORT\nCENTERED_CONFIDENCE\nADDED_VALUE\nCERTAINTY_FACTOR\nLOEVINGER\nCONVICTION</title>
<ellipse fill="none" stroke="black" cx="1340.65" cy="-143.543" rx="137.358" ry="143.585"/>
<text text-anchor="middle" x="1340.65" y="-229.843" font-family="Times,serif" font-size="14.00">KLOSGEN</text>
<text text-anchor="middle" x="1340.65" y="-214.843" font-family="Times,serif" font-size="14.00">GINI</text>
<text text-anchor="middle" x="1340.65" y="-199.843" font-family="Times,serif" font-size="14.00">IMPLICATION_INDEX</text>
<text text-anchor="middle" x="1340.65" y="-184.843" font-family="Times,serif" font-size="14.00">LEVERAGE</text>
<text text-anchor="middle" x="1340.65" y="-169.843" font-family="Times,serif" font-size="14.00">COUNTER_EXAMPLE_RATE</text>
<text text-anchor="middle" x="1340.65" y="-154.843" font-family="Times,serif" font-size="14.00">SEBAG_SCHOENAUER</text>
<text text-anchor="middle" x="1340.65" y="-139.843" font-family="Times,serif" font-size="14.00">CONFIDENCE</text>
<text text-anchor="middle" x="1340.65" y="-124.843" font-family="Times,serif" font-size="14.00">ONE_WAY_SUPPORT</text>
<text text-anchor="middle" x="1340.65" y="-109.843" font-family="Times,serif" font-size="14.00">CENTERED_CONFIDENCE</text>
<text text-anchor="middle" x="1340.65" y="-94.8427" font-family="Times,serif" font-size="14.00">ADDED_VALUE</text>
<text text-anchor="middle" x="1340.65" y="-79.8427" font-family="Times,serif" font-size="14.00">CERTAINTY_FACTOR</text>
<text text-anchor="middle" x="1340.65" y="-64.8427" font-family="Times,serif" font-size="14.00">LOEVINGER</text>
<text text-anchor="middle" x="1340.65" y="-49.8427" font-family="Times,serif" font-size="14.00">CONVICTION</text>
</g>
<!-- n27 (0.85 &#45; 14)&#45;&gt;KLOSGEN\nGINI\nIMPLICATION_INDEX\nLEVERAGE\nCOUNTER_EXAMPLE_RATE\nSEBAG_SCHOENAUER\nCONFIDENCE\nONE_WAY_SUPPORT\nCENTERED_CONFIDENCE\nADDED_VALUE\nCERTAINTY_FACTOR\nLOEVINGER\nCONVICTION -->
<g id="edge18" class="edge"><title>n27 (0.85 &#45; 14)&#45;&gt;KLOSGEN\nGINI\nIMPLICATION_INDEX\nLEVERAGE\nCOUNTER_EXAMPLE_RATE\nSEBAG_SCHOENAUER\nCONFIDENCE\nONE_WAY_SUPPORT\nCENTERED_CONFIDENCE\nADDED_VALUE\nCERTAINTY_FACTOR\nLOEVINGER\nCONVICTION</title>
<path fill="none" stroke="black" d="M1214.3,-395.419C1226.35,-371.479 1249.34,-325.832 1272.44,-279.967"/>
<polygon fill="black" stroke="black" points="1275.69,-281.303 1277.06,-270.798 1269.44,-278.155 1275.69,-281.303"/>
</g>
</g>
</svg>
