<?xml version="1.0" encoding="UTF-8" standalone="no"?>
<!DOCTYPE svg PUBLIC "-//W3C//DTD SVG 1.1//EN"
 "http://www.w3.org/Graphics/SVG/1.1/DTD/svg11.dtd">
<!-- Generated by graphviz version 2.38.0 (20140413.2041)
 -->
<!-- Title: dendrogram Pages: 1 -->
<svg width="1846pt" height="792pt"
 viewBox="0.00 0.00 1846.02 792.14" xmlns="http://www.w3.org/2000/svg" xmlns:xlink="http://www.w3.org/1999/xlink">
<g id="graph0" class="graph" transform="scale(1 1) rotate(0) translate(4 788.139)">
<title>dendrogram</title>
<polygon fill="white" stroke="none" points="-4,4 -4,-788.139 1842.02,-788.139 1842.02,4 -4,4"/>
<!-- n34 (0.02 &#45; 36) -->
<g id="node1" class="node"><title>n34 (0.02 &#45; 36)</title>
<ellipse fill="none" stroke="black" cx="410.84" cy="-766.139" rx="64.189" ry="18"/>
<text text-anchor="middle" x="410.84" y="-762.439" font-family="Times,serif" font-size="14.00">n34 (0.02 &#45; 36)</text>
</g>
<!-- n29 (0.36 &#45; 3) -->
<g id="node2" class="node"><title>n29 (0.36 &#45; 3)</title>
<ellipse fill="none" stroke="black" cx="300.84" cy="-694.139" rx="59.5901" ry="18"/>
<text text-anchor="middle" x="300.84" y="-690.439" font-family="Times,serif" font-size="14.00">n29 (0.36 &#45; 3)</text>
</g>
<!-- n34 (0.02 &#45; 36)&#45;&gt;n29 (0.36 &#45; 3) -->
<g id="edge1" class="edge"><title>n34 (0.02 &#45; 36)&#45;&gt;n29 (0.36 &#45; 3)</title>
<path fill="none" stroke="black" d="M386.154,-749.43C370.727,-739.613 350.673,-726.851 333.884,-716.167"/>
<polygon fill="black" stroke="black" points="335.76,-713.212 325.444,-710.796 332.002,-719.118 335.76,-713.212"/>
</g>
<!-- n33 (0.09 &#45; 33) -->
<g id="node7" class="node"><title>n33 (0.09 &#45; 33)</title>
<ellipse fill="none" stroke="black" cx="521.84" cy="-694.139" rx="64.189" ry="18"/>
<text text-anchor="middle" x="521.84" y="-690.439" font-family="Times,serif" font-size="14.00">n33 (0.09 &#45; 33)</text>
</g>
<!-- n34 (0.02 &#45; 36)&#45;&gt;n33 (0.09 &#45; 33) -->
<g id="edge6" class="edge"><title>n34 (0.02 &#45; 36)&#45;&gt;n33 (0.09 &#45; 33)</title>
<path fill="none" stroke="black" d="M435.751,-749.43C451.318,-739.613 471.555,-726.851 488.496,-716.167"/>
<polygon fill="black" stroke="black" points="490.421,-719.091 497.013,-710.796 486.687,-713.17 490.421,-719.091"/>
</g>
<!-- RECALL -->
<g id="node3" class="node"><title>RECALL</title>
<ellipse fill="none" stroke="black" cx="177.84" cy="-622.139" rx="44.6926" ry="18"/>
<text text-anchor="middle" x="177.84" y="-618.439" font-family="Times,serif" font-size="14.00">RECALL</text>
</g>
<!-- n29 (0.36 &#45; 3)&#45;&gt;RECALL -->
<g id="edge2" class="edge"><title>n29 (0.36 &#45; 3)&#45;&gt;RECALL</title>
<path fill="none" stroke="black" d="M274.151,-677.95C255.853,-667.536 231.424,-653.634 211.748,-642.436"/>
<polygon fill="black" stroke="black" points="213.223,-639.249 202.801,-637.344 209.761,-645.332 213.223,-639.249"/>
</g>
<!-- n26 (0.59 &#45; 2) -->
<g id="node4" class="node"><title>n26 (0.59 &#45; 2)</title>
<ellipse fill="none" stroke="black" cx="300.84" cy="-622.139" rx="59.5901" ry="18"/>
<text text-anchor="middle" x="300.84" y="-618.439" font-family="Times,serif" font-size="14.00">n26 (0.59 &#45; 2)</text>
</g>
<!-- n29 (0.36 &#45; 3)&#45;&gt;n26 (0.59 &#45; 2) -->
<g id="edge3" class="edge"><title>n29 (0.36 &#45; 3)&#45;&gt;n26 (0.59 &#45; 2)</title>
<path fill="none" stroke="black" d="M300.84,-675.836C300.84,-668.122 300.84,-658.852 300.84,-650.252"/>
<polygon fill="black" stroke="black" points="304.34,-650.243 300.84,-640.244 297.34,-650.244 304.34,-650.243"/>
</g>
<!-- COLLECTIVE_STRENGH -->
<g id="node5" class="node"><title>COLLECTIVE_STRENGH</title>
<ellipse fill="none" stroke="black" cx="109.84" cy="-550.139" rx="109.681" ry="18"/>
<text text-anchor="middle" x="109.84" y="-546.439" font-family="Times,serif" font-size="14.00">COLLECTIVE_STRENGH</text>
</g>
<!-- n26 (0.59 &#45; 2)&#45;&gt;COLLECTIVE_STRENGH -->
<g id="edge4" class="edge"><title>n26 (0.59 &#45; 2)&#45;&gt;COLLECTIVE_STRENGH</title>
<path fill="none" stroke="black" d="M264.465,-607.808C235.529,-597.203 194.653,-582.222 162.196,-570.327"/>
<polygon fill="black" stroke="black" points="163.009,-566.898 152.416,-566.743 160.601,-573.47 163.009,-566.898"/>
</g>
<!-- SPECIFICITY -->
<g id="node6" class="node"><title>SPECIFICITY</title>
<ellipse fill="none" stroke="black" cx="300.84" cy="-550.139" rx="63.0888" ry="18"/>
<text text-anchor="middle" x="300.84" y="-546.439" font-family="Times,serif" font-size="14.00">SPECIFICITY</text>
</g>
<!-- n26 (0.59 &#45; 2)&#45;&gt;SPECIFICITY -->
<g id="edge5" class="edge"><title>n26 (0.59 &#45; 2)&#45;&gt;SPECIFICITY</title>
<path fill="none" stroke="black" d="M300.84,-603.836C300.84,-596.122 300.84,-586.852 300.84,-578.252"/>
<polygon fill="black" stroke="black" points="304.34,-578.243 300.84,-568.244 297.34,-578.244 304.34,-578.243"/>
</g>
<!-- n30 (0.35 &#45; 13) -->
<g id="node8" class="node"><title>n30 (0.35 &#45; 13)</title>
<ellipse fill="none" stroke="black" cx="521.84" cy="-622.139" rx="64.189" ry="18"/>
<text text-anchor="middle" x="521.84" y="-618.439" font-family="Times,serif" font-size="14.00">n30 (0.35 &#45; 13)</text>
</g>
<!-- n33 (0.09 &#45; 33)&#45;&gt;n30 (0.35 &#45; 13) -->
<g id="edge7" class="edge"><title>n33 (0.09 &#45; 33)&#45;&gt;n30 (0.35 &#45; 13)</title>
<path fill="none" stroke="black" d="M521.84,-675.836C521.84,-668.122 521.84,-658.852 521.84,-650.252"/>
<polygon fill="black" stroke="black" points="525.34,-650.243 521.84,-640.244 518.34,-650.244 525.34,-650.243"/>
</g>
<!-- n32 (0.12 &#45; 20) -->
<g id="node25" class="node"><title>n32 (0.12 &#45; 20)</title>
<ellipse fill="none" stroke="black" cx="931.84" cy="-622.139" rx="64.189" ry="18"/>
<text text-anchor="middle" x="931.84" y="-618.439" font-family="Times,serif" font-size="14.00">n32 (0.12 &#45; 20)</text>
</g>
<!-- n33 (0.09 &#45; 33)&#45;&gt;n32 (0.12 &#45; 20) -->
<g id="edge24" class="edge"><title>n33 (0.09 &#45; 33)&#45;&gt;n32 (0.12 &#45; 20)</title>
<path fill="none" stroke="black" d="M575.441,-683.988C650.898,-671.105 788.189,-647.665 868.561,-633.943"/>
<polygon fill="black" stroke="black" points="869.284,-637.37 878.552,-632.237 868.106,-630.47 869.284,-637.37"/>
</g>
<!-- n25 (0.62 &#45; 2) -->
<g id="node9" class="node"><title>n25 (0.62 &#45; 2)</title>
<ellipse fill="none" stroke="black" cx="441.84" cy="-550.139" rx="59.5901" ry="18"/>
<text text-anchor="middle" x="441.84" y="-546.439" font-family="Times,serif" font-size="14.00">n25 (0.62 &#45; 2)</text>
</g>
<!-- n30 (0.35 &#45; 13)&#45;&gt;n25 (0.62 &#45; 2) -->
<g id="edge8" class="edge"><title>n30 (0.35 &#45; 13)&#45;&gt;n25 (0.62 &#45; 2)</title>
<path fill="none" stroke="black" d="M502.881,-604.55C492.445,-595.418 479.337,-583.948 467.945,-573.981"/>
<polygon fill="black" stroke="black" points="470.218,-571.319 460.387,-567.368 465.608,-576.587 470.218,-571.319"/>
</g>
<!-- n28 (0.46 &#45; 11) -->
<g id="node12" class="node"><title>n28 (0.46 &#45; 11)</title>
<ellipse fill="none" stroke="black" cx="601.84" cy="-550.139" rx="64.189" ry="18"/>
<text text-anchor="middle" x="601.84" y="-546.439" font-family="Times,serif" font-size="14.00">n28 (0.46 &#45; 11)</text>
</g>
<!-- n30 (0.35 &#45; 13)&#45;&gt;n28 (0.46 &#45; 11) -->
<g id="edge11" class="edge"><title>n30 (0.35 &#45; 13)&#45;&gt;n28 (0.46 &#45; 11)</title>
<path fill="none" stroke="black" d="M540.799,-604.55C551.161,-595.484 564.155,-584.113 575.489,-574.196"/>
<polygon fill="black" stroke="black" points="577.796,-576.828 583.017,-567.609 573.187,-571.56 577.796,-576.828"/>
</g>
<!-- TWO_WAY_SUPPORT -->
<g id="node10" class="node"><title>TWO_WAY_SUPPORT</title>
<ellipse fill="none" stroke="black" cx="203.84" cy="-478.139" rx="100.182" ry="18"/>
<text text-anchor="middle" x="203.84" y="-474.439" font-family="Times,serif" font-size="14.00">TWO_WAY_SUPPORT</text>
</g>
<!-- n25 (0.62 &#45; 2)&#45;&gt;TWO_WAY_SUPPORT -->
<g id="edge9" class="edge"><title>n25 (0.62 &#45; 2)&#45;&gt;TWO_WAY_SUPPORT</title>
<path fill="none" stroke="black" d="M400.656,-537.026C362.763,-525.881 306.124,-509.223 263.321,-496.634"/>
<polygon fill="black" stroke="black" points="264.167,-493.234 253.586,-493.77 262.192,-499.95 264.167,-493.234"/>
</g>
<!-- PIATETSKY_SHAPIRO -->
<g id="node11" class="node"><title>PIATETSKY_SHAPIRO</title>
<ellipse fill="none" stroke="black" cx="422.84" cy="-478.139" rx="100.983" ry="18"/>
<text text-anchor="middle" x="422.84" y="-474.439" font-family="Times,serif" font-size="14.00">PIATETSKY_SHAPIRO</text>
</g>
<!-- n25 (0.62 &#45; 2)&#45;&gt;PIATETSKY_SHAPIRO -->
<g id="edge10" class="edge"><title>n25 (0.62 &#45; 2)&#45;&gt;PIATETSKY_SHAPIRO</title>
<path fill="none" stroke="black" d="M437.144,-531.836C435.027,-524.037 432.478,-514.648 430.122,-505.968"/>
<polygon fill="black" stroke="black" points="433.48,-504.977 427.483,-496.244 426.725,-506.811 433.48,-504.977"/>
</g>
<!-- n23 (0.67 &#45; 3) -->
<g id="node13" class="node"><title>n23 (0.67 &#45; 3)</title>
<ellipse fill="none" stroke="black" cx="601.84" cy="-478.139" rx="59.5901" ry="18"/>
<text text-anchor="middle" x="601.84" y="-474.439" font-family="Times,serif" font-size="14.00">n23 (0.67 &#45; 3)</text>
</g>
<!-- n28 (0.46 &#45; 11)&#45;&gt;n23 (0.67 &#45; 3) -->
<g id="edge12" class="edge"><title>n28 (0.46 &#45; 11)&#45;&gt;n23 (0.67 &#45; 3)</title>
<path fill="none" stroke="black" d="M601.84,-531.836C601.84,-524.122 601.84,-514.852 601.84,-506.252"/>
<polygon fill="black" stroke="black" points="605.34,-506.243 601.84,-496.244 598.34,-506.244 605.34,-506.243"/>
</g>
<!-- n24 (0.63 &#45; 8) -->
<g id="node16" class="node"><title>n24 (0.63 &#45; 8)</title>
<ellipse fill="none" stroke="black" cx="763.84" cy="-478.139" rx="59.5901" ry="18"/>
<text text-anchor="middle" x="763.84" y="-474.439" font-family="Times,serif" font-size="14.00">n24 (0.63 &#45; 8)</text>
</g>
<!-- n28 (0.46 &#45; 11)&#45;&gt;n24 (0.63 &#45; 8) -->
<g id="edge15" class="edge"><title>n28 (0.46 &#45; 11)&#45;&gt;n24 (0.63 &#45; 8)</title>
<path fill="none" stroke="black" d="M635.407,-534.635C660.417,-523.828 694.742,-508.997 721.615,-497.385"/>
<polygon fill="black" stroke="black" points="723.356,-500.445 731.147,-493.266 720.579,-494.02 723.356,-500.445"/>
</g>
<!-- KLOSGEN -->
<g id="node14" class="node"><title>KLOSGEN</title>
<ellipse fill="none" stroke="black" cx="397.84" cy="-354.843" rx="51.9908" ry="18"/>
<text text-anchor="middle" x="397.84" y="-351.143" font-family="Times,serif" font-size="14.00">KLOSGEN</text>
</g>
<!-- n23 (0.67 &#45; 3)&#45;&gt;KLOSGEN -->
<g id="edge13" class="edge"><title>n23 (0.67 &#45; 3)&#45;&gt;KLOSGEN</title>
<path fill="none" stroke="black" d="M556.32,-466.398C526.809,-458.012 488.483,-444.347 458.84,-424.139 441.71,-412.461 426.204,-394.959 415.111,-380.596"/>
<polygon fill="black" stroke="black" points="417.902,-378.484 409.112,-372.57 412.296,-382.675 417.902,-378.484"/>
</g>
<!-- GINI\nIMPLICATION_INDEX -->
<g id="node15" class="node"><title>GINI\nIMPLICATION_INDEX</title>
<ellipse fill="none" stroke="black" cx="576.84" cy="-354.843" rx="108.789" ry="26.7407"/>
<text text-anchor="middle" x="576.84" y="-358.643" font-family="Times,serif" font-size="14.00">GINI</text>
<text text-anchor="middle" x="576.84" y="-343.643" font-family="Times,serif" font-size="14.00">IMPLICATION_INDEX</text>
</g>
<!-- n23 (0.67 &#45; 3)&#45;&gt;GINI\nIMPLICATION_INDEX -->
<g id="edge14" class="edge"><title>n23 (0.67 &#45; 3)&#45;&gt;GINI\nIMPLICATION_INDEX</title>
<path fill="none" stroke="black" d="M598.311,-460.018C594.67,-442.349 588.881,-414.263 584.231,-391.704"/>
<polygon fill="black" stroke="black" points="587.634,-390.872 582.187,-381.785 580.778,-392.285 587.634,-390.872"/>
</g>
<!-- n21 (0.72 &#45; 2) -->
<g id="node17" class="node"><title>n21 (0.72 &#45; 2)</title>
<ellipse fill="none" stroke="black" cx="763.84" cy="-354.843" rx="59.5901" ry="18"/>
<text text-anchor="middle" x="763.84" y="-351.143" font-family="Times,serif" font-size="14.00">n21 (0.72 &#45; 2)</text>
</g>
<!-- n24 (0.63 &#45; 8)&#45;&gt;n21 (0.72 &#45; 2) -->
<g id="edge16" class="edge"><title>n24 (0.63 &#45; 8)&#45;&gt;n21 (0.72 &#45; 2)</title>
<path fill="none" stroke="black" d="M763.84,-460.018C763.84,-439.97 763.84,-406.513 763.84,-382.933"/>
<polygon fill="black" stroke="black" points="767.34,-382.877 763.84,-372.877 760.34,-382.877 767.34,-382.877"/>
</g>
<!-- n22 (0.69 &#45; 6) -->
<g id="node20" class="node"><title>n22 (0.69 &#45; 6)</title>
<ellipse fill="none" stroke="black" cx="928.84" cy="-354.843" rx="59.5901" ry="18"/>
<text text-anchor="middle" x="928.84" y="-351.143" font-family="Times,serif" font-size="14.00">n22 (0.69 &#45; 6)</text>
</g>
<!-- n24 (0.63 &#45; 8)&#45;&gt;n22 (0.69 &#45; 6) -->
<g id="edge19" class="edge"><title>n24 (0.63 &#45; 8)&#45;&gt;n22 (0.69 &#45; 6)</title>
<path fill="none" stroke="black" d="M785.411,-461.282C814.439,-439.942 866.206,-401.887 898.966,-377.804"/>
<polygon fill="black" stroke="black" points="901.28,-380.447 907.264,-371.704 897.134,-374.807 901.28,-380.447"/>
</g>
<!-- JACCARD -->
<g id="node18" class="node"><title>JACCARD</title>
<ellipse fill="none" stroke="black" cx="609.84" cy="-190.856" rx="50.8918" ry="18"/>
<text text-anchor="middle" x="609.84" y="-187.156" font-family="Times,serif" font-size="14.00">JACCARD</text>
</g>
<!-- n21 (0.72 &#45; 2)&#45;&gt;JACCARD -->
<g id="edge17" class="edge"><title>n21 (0.72 &#45; 2)&#45;&gt;JACCARD</title>
<path fill="none" stroke="black" d="M748.226,-337.419C720.901,-308.676 664.306,-249.147 632.61,-215.807"/>
<polygon fill="black" stroke="black" points="634.922,-213.159 625.495,-208.323 629.849,-217.982 634.922,-213.159"/>
</g>
<!-- KAPPA -->
<g id="node19" class="node"><title>KAPPA</title>
<ellipse fill="none" stroke="black" cx="717.84" cy="-190.856" rx="39.7935" ry="18"/>
<text text-anchor="middle" x="717.84" y="-187.156" font-family="Times,serif" font-size="14.00">KAPPA</text>
</g>
<!-- n21 (0.72 &#45; 2)&#45;&gt;KAPPA -->
<g id="edge18" class="edge"><title>n21 (0.72 &#45; 2)&#45;&gt;KAPPA</title>
<path fill="none" stroke="black" d="M759.004,-336.813C751.019,-308.693 735.013,-252.329 725.483,-218.771"/>
<polygon fill="black" stroke="black" points="728.848,-217.808 722.75,-209.145 722.115,-219.721 728.848,-217.808"/>
</g>
<!-- J_MEASURE\nTWO_WAY_SUPPORT_VARIATION\nFISHER_PVAL -->
<g id="node21" class="node"><title>J_MEASURE\nTWO_WAY_SUPPORT_VARIATION\nFISHER_PVAL</title>
<ellipse fill="none" stroke="black" cx="942.84" cy="-190.856" rx="166.754" ry="37.4533"/>
<text text-anchor="middle" x="942.84" y="-202.156" font-family="Times,serif" font-size="14.00">J_MEASURE</text>
<text text-anchor="middle" x="942.84" y="-187.156" font-family="Times,serif" font-size="14.00">TWO_WAY_SUPPORT_VARIATION</text>
<text text-anchor="middle" x="942.84" y="-172.156" font-family="Times,serif" font-size="14.00">FISHER_PVAL</text>
</g>
<!-- n22 (0.69 &#45; 6)&#45;&gt;J_MEASURE\nTWO_WAY_SUPPORT_VARIATION\nFISHER_PVAL -->
<g id="edge20" class="edge"><title>n22 (0.69 &#45; 6)&#45;&gt;J_MEASURE\nTWO_WAY_SUPPORT_VARIATION\nFISHER_PVAL</title>
<path fill="none" stroke="black" d="M930.312,-336.813C932.308,-313.725 935.949,-271.597 938.793,-238.685"/>
<polygon fill="black" stroke="black" points="942.311,-238.623 939.685,-228.358 935.337,-238.02 942.311,-238.623"/>
</g>
<!-- n19 (0.82 &#45; 3) -->
<g id="node22" class="node"><title>n19 (0.82 &#45; 3)</title>
<ellipse fill="none" stroke="black" cx="1187.84" cy="-190.856" rx="59.5901" ry="18"/>
<text text-anchor="middle" x="1187.84" y="-187.156" font-family="Times,serif" font-size="14.00">n19 (0.82 &#45; 3)</text>
</g>
<!-- n22 (0.69 &#45; 6)&#45;&gt;n19 (0.82 &#45; 3) -->
<g id="edge21" class="edge"><title>n22 (0.69 &#45; 6)&#45;&gt;n19 (0.82 &#45; 3)</title>
<path fill="none" stroke="black" d="M941.601,-337.151C954.279,-321.664 975.072,-299.032 997.84,-285.546 1046.12,-256.954 1069.41,-276.089 1118.84,-249.546 1135.59,-240.554 1152.01,-227.069 1164.63,-215.397"/>
<polygon fill="black" stroke="black" points="1167.13,-217.848 1171.96,-208.42 1162.31,-212.776 1167.13,-217.848"/>
</g>
<!-- COSINE -->
<g id="node23" class="node"><title>COSINE</title>
<ellipse fill="none" stroke="black" cx="1068.84" cy="-48.0833" rx="42.4939" ry="18"/>
<text text-anchor="middle" x="1068.84" y="-44.3833" font-family="Times,serif" font-size="14.00">COSINE</text>
</g>
<!-- n19 (0.82 &#45; 3)&#45;&gt;COSINE -->
<g id="edge22" class="edge"><title>n19 (0.82 &#45; 3)&#45;&gt;COSINE</title>
<path fill="none" stroke="black" d="M1173.72,-173.155C1152.77,-148.364 1113.32,-101.696 1089.23,-73.1979"/>
<polygon fill="black" stroke="black" points="1091.7,-70.7058 1082.57,-65.3284 1086.36,-75.2249 1091.7,-70.7058"/>
</g>
<!-- PHI\nCHI_SQUARE -->
<g id="node24" class="node"><title>PHI\nCHI_SQUARE</title>
<ellipse fill="none" stroke="black" cx="1200.84" cy="-48.0833" rx="71.3357" ry="26.7407"/>
<text text-anchor="middle" x="1200.84" y="-51.8833" font-family="Times,serif" font-size="14.00">PHI</text>
<text text-anchor="middle" x="1200.84" y="-36.8833" font-family="Times,serif" font-size="14.00">CHI_SQUARE</text>
</g>
<!-- n19 (0.82 &#45; 3)&#45;&gt;PHI\nCHI_SQUARE -->
<g id="edge23" class="edge"><title>n19 (0.82 &#45; 3)&#45;&gt;PHI\nCHI_SQUARE</title>
<path fill="none" stroke="black" d="M1189.43,-172.595C1191.43,-150.981 1194.9,-113.389 1197.49,-85.3385"/>
<polygon fill="black" stroke="black" points="1201,-85.3879 1198.44,-75.1083 1194.03,-84.7441 1201,-85.3879"/>
</g>
<!-- ACCURACY -->
<g id="node26" class="node"><title>ACCURACY</title>
<ellipse fill="none" stroke="black" cx="931.84" cy="-550.139" rx="59.5901" ry="18"/>
<text text-anchor="middle" x="931.84" y="-546.439" font-family="Times,serif" font-size="14.00">ACCURACY</text>
</g>
<!-- n32 (0.12 &#45; 20)&#45;&gt;ACCURACY -->
<g id="edge25" class="edge"><title>n32 (0.12 &#45; 20)&#45;&gt;ACCURACY</title>
<path fill="none" stroke="black" d="M931.84,-603.836C931.84,-596.122 931.84,-586.852 931.84,-578.252"/>
<polygon fill="black" stroke="black" points="935.34,-578.243 931.84,-568.244 928.34,-578.244 935.34,-578.243"/>
</g>
<!-- n31 (0.32 &#45; 19) -->
<g id="node27" class="node"><title>n31 (0.32 &#45; 19)</title>
<ellipse fill="none" stroke="black" cx="1195.84" cy="-550.139" rx="64.189" ry="18"/>
<text text-anchor="middle" x="1195.84" y="-546.439" font-family="Times,serif" font-size="14.00">n31 (0.32 &#45; 19)</text>
</g>
<!-- n32 (0.12 &#45; 20)&#45;&gt;n31 (0.32 &#45; 19) -->
<g id="edge26" class="edge"><title>n32 (0.12 &#45; 20)&#45;&gt;n31 (0.32 &#45; 19)</title>
<path fill="none" stroke="black" d="M976.924,-609.185C1022.39,-597.13 1092.62,-578.508 1141.22,-565.621"/>
<polygon fill="black" stroke="black" points="1142.17,-568.99 1150.94,-563.044 1140.38,-562.224 1142.17,-568.99"/>
</g>
<!-- n20 (0.79 &#45; 8) -->
<g id="node28" class="node"><title>n20 (0.79 &#45; 8)</title>
<ellipse fill="none" stroke="black" cx="1195.84" cy="-478.139" rx="59.5901" ry="18"/>
<text text-anchor="middle" x="1195.84" y="-474.439" font-family="Times,serif" font-size="14.00">n20 (0.79 &#45; 8)</text>
</g>
<!-- n31 (0.32 &#45; 19)&#45;&gt;n20 (0.79 &#45; 8) -->
<g id="edge27" class="edge"><title>n31 (0.32 &#45; 19)&#45;&gt;n20 (0.79 &#45; 8)</title>
<path fill="none" stroke="black" d="M1195.84,-531.836C1195.84,-524.122 1195.84,-514.852 1195.84,-506.252"/>
<polygon fill="black" stroke="black" points="1199.34,-506.243 1195.84,-496.244 1192.34,-506.244 1199.34,-506.243"/>
</g>
<!-- n27 (0.59 &#45; 11) -->
<g id="node31" class="node"><title>n27 (0.59 &#45; 11)</title>
<ellipse fill="none" stroke="black" cx="1499.84" cy="-478.139" rx="64.189" ry="18"/>
<text text-anchor="middle" x="1499.84" y="-474.439" font-family="Times,serif" font-size="14.00">n27 (0.59 &#45; 11)</text>
</g>
<!-- n31 (0.32 &#45; 19)&#45;&gt;n27 (0.59 &#45; 11) -->
<g id="edge30" class="edge"><title>n31 (0.32 &#45; 19)&#45;&gt;n27 (0.59 &#45; 11)</title>
<path fill="none" stroke="black" d="M1244.01,-538.047C1297.71,-525.683 1384.53,-505.692 1441.89,-492.482"/>
<polygon fill="black" stroke="black" points="1442.94,-495.834 1451.9,-490.179 1441.37,-489.012 1442.94,-495.834"/>
</g>
<!-- RELATIVE_RISK\nLIFT -->
<g id="node29" class="node"><title>RELATIVE_RISK\nLIFT</title>
<ellipse fill="none" stroke="black" cx="1091.84" cy="-354.843" rx="84.7059" ry="26.7407"/>
<text text-anchor="middle" x="1091.84" y="-358.643" font-family="Times,serif" font-size="14.00">RELATIVE_RISK</text>
<text text-anchor="middle" x="1091.84" y="-343.643" font-family="Times,serif" font-size="14.00">LIFT</text>
</g>
<!-- n20 (0.79 &#45; 8)&#45;&gt;RELATIVE_RISK\nLIFT -->
<g id="edge28" class="edge"><title>n20 (0.79 &#45; 8)&#45;&gt;RELATIVE_RISK\nLIFT</title>
<path fill="none" stroke="black" d="M1181.6,-460.528C1165.87,-442.187 1140.15,-412.189 1120.27,-388.996"/>
<polygon fill="black" stroke="black" points="1122.67,-386.42 1113.5,-381.107 1117.35,-390.976 1122.67,-386.42"/>
</g>
<!-- ODD_MULTIPLIER\nZHANG\nBAYES\nYULE_Y\nYULE_Q\nODDS_RATIO -->
<g id="node30" class="node"><title>ODD_MULTIPLIER\nZHANG\nBAYES\nYULE_Y\nYULE_Q\nODDS_RATIO</title>
<ellipse fill="none" stroke="black" cx="1289.84" cy="-354.843" rx="94.5053" ry="69.0935"/>
<text text-anchor="middle" x="1289.84" y="-388.643" font-family="Times,serif" font-size="14.00">ODD_MULTIPLIER</text>
<text text-anchor="middle" x="1289.84" y="-373.643" font-family="Times,serif" font-size="14.00">ZHANG</text>
<text text-anchor="middle" x="1289.84" y="-358.643" font-family="Times,serif" font-size="14.00">BAYES</text>
<text text-anchor="middle" x="1289.84" y="-343.643" font-family="Times,serif" font-size="14.00">YULE_Y</text>
<text text-anchor="middle" x="1289.84" y="-328.643" font-family="Times,serif" font-size="14.00">YULE_Q</text>
<text text-anchor="middle" x="1289.84" y="-313.643" font-family="Times,serif" font-size="14.00">ODDS_RATIO</text>
</g>
<!-- n20 (0.79 &#45; 8)&#45;&gt;ODD_MULTIPLIER\nZHANG\nBAYES\nYULE_Y\nYULE_Q\nODDS_RATIO -->
<g id="edge29" class="edge"><title>n20 (0.79 &#45; 8)&#45;&gt;ODD_MULTIPLIER\nZHANG\nBAYES\nYULE_Y\nYULE_Q\nODDS_RATIO</title>
<path fill="none" stroke="black" d="M1208.71,-460.528C1216.36,-450.656 1226.63,-437.408 1237.28,-423.661"/>
<polygon fill="black" stroke="black" points="1240.22,-425.58 1243.58,-415.532 1234.69,-421.292 1240.22,-425.58"/>
</g>
<!-- ONE_WAY_SUPPORT -->
<g id="node32" class="node"><title>ONE_WAY_SUPPORT</title>
<ellipse fill="none" stroke="black" cx="1499.84" cy="-354.843" rx="97.4827" ry="18"/>
<text text-anchor="middle" x="1499.84" y="-351.143" font-family="Times,serif" font-size="14.00">ONE_WAY_SUPPORT</text>
</g>
<!-- n27 (0.59 &#45; 11)&#45;&gt;ONE_WAY_SUPPORT -->
<g id="edge31" class="edge"><title>n27 (0.59 &#45; 11)&#45;&gt;ONE_WAY_SUPPORT</title>
<path fill="none" stroke="black" d="M1499.84,-460.018C1499.84,-439.97 1499.84,-406.513 1499.84,-382.933"/>
<polygon fill="black" stroke="black" points="1503.34,-382.877 1499.84,-372.877 1496.34,-382.877 1503.34,-382.877"/>
</g>
<!-- n18 (0.87 &#45; 10) -->
<g id="node33" class="node"><title>n18 (0.87 &#45; 10)</title>
<ellipse fill="none" stroke="black" cx="1679.84" cy="-354.843" rx="64.189" ry="18"/>
<text text-anchor="middle" x="1679.84" y="-351.143" font-family="Times,serif" font-size="14.00">n18 (0.87 &#45; 10)</text>
</g>
<!-- n27 (0.59 &#45; 11)&#45;&gt;n18 (0.87 &#45; 10) -->
<g id="edge32" class="edge"><title>n27 (0.59 &#45; 11)&#45;&gt;n18 (0.87 &#45; 10)</title>
<path fill="none" stroke="black" d="M1534.63,-462.745C1556.01,-453.183 1583.49,-439.575 1605.84,-424.139 1624.53,-411.228 1643.31,-393.829 1657.28,-379.824"/>
<polygon fill="black" stroke="black" points="1660.01,-382.035 1664.51,-372.442 1655.01,-377.136 1660.01,-382.035"/>
</g>
<!-- CENTERED_CONFIDENCE\nADDED_VALUE\nLOEVINGER\nCONVICTION\nCERTAINTY_FACTOR -->
<g id="node34" class="node"><title>CENTERED_CONFIDENCE\nADDED_VALUE\nLOEVINGER\nCONVICTION\nCERTAINTY_FACTOR</title>
<ellipse fill="none" stroke="black" cx="1489.84" cy="-190.856" rx="126.644" ry="58.8803"/>
<text text-anchor="middle" x="1489.84" y="-217.156" font-family="Times,serif" font-size="14.00">CENTERED_CONFIDENCE</text>
<text text-anchor="middle" x="1489.84" y="-202.156" font-family="Times,serif" font-size="14.00">ADDED_VALUE</text>
<text text-anchor="middle" x="1489.84" y="-187.156" font-family="Times,serif" font-size="14.00">LOEVINGER</text>
<text text-anchor="middle" x="1489.84" y="-172.156" font-family="Times,serif" font-size="14.00">CONVICTION</text>
<text text-anchor="middle" x="1489.84" y="-157.156" font-family="Times,serif" font-size="14.00">CERTAINTY_FACTOR</text>
</g>
<!-- n18 (0.87 &#45; 10)&#45;&gt;CENTERED_CONFIDENCE\nADDED_VALUE\nLOEVINGER\nCONVICTION\nCERTAINTY_FACTOR -->
<g id="edge33" class="edge"><title>n18 (0.87 &#45; 10)&#45;&gt;CENTERED_CONFIDENCE\nADDED_VALUE\nLOEVINGER\nCONVICTION\nCERTAINTY_FACTOR</title>
<path fill="none" stroke="black" d="M1662.49,-337.228C1647.68,-323.189 1625.69,-302.687 1605.84,-285.546 1591.71,-273.34 1576.33,-260.573 1561.53,-248.53"/>
<polygon fill="black" stroke="black" points="1563.35,-245.501 1553.37,-241.923 1558.94,-250.939 1563.35,-245.501"/>
</g>
<!-- n17 (0.89 &#45; 5) -->
<g id="node35" class="node"><title>n17 (0.89 &#45; 5)</title>
<ellipse fill="none" stroke="black" cx="1693.84" cy="-190.856" rx="59.5901" ry="18"/>
<text text-anchor="middle" x="1693.84" y="-187.156" font-family="Times,serif" font-size="14.00">n17 (0.89 &#45; 5)</text>
</g>
<!-- n18 (0.87 &#45; 10)&#45;&gt;n17 (0.89 &#45; 5) -->
<g id="edge34" class="edge"><title>n18 (0.87 &#45; 10)&#45;&gt;n17 (0.89 &#45; 5)</title>
<path fill="none" stroke="black" d="M1681.31,-336.813C1683.73,-308.814 1688.57,-252.814 1691.48,-219.206"/>
<polygon fill="black" stroke="black" points="1694.97,-219.409 1692.35,-209.145 1688,-218.806 1694.97,-219.409"/>
</g>
<!-- LEAST_CONTRADICTION -->
<g id="node36" class="node"><title>LEAST_CONTRADICTION</title>
<ellipse fill="none" stroke="black" cx="1430.84" cy="-48.0833" rx="114.28" ry="18"/>
<text text-anchor="middle" x="1430.84" y="-44.3833" font-family="Times,serif" font-size="14.00">LEAST_CONTRADICTION</text>
</g>
<!-- n17 (0.89 &#45; 5)&#45;&gt;LEAST_CONTRADICTION -->
<g id="edge35" class="edge"><title>n17 (0.89 &#45; 5)&#45;&gt;LEAST_CONTRADICTION</title>
<path fill="none" stroke="black" d="M1677.35,-173.376C1664.22,-160.902 1644.94,-143.961 1625.84,-132.167 1600.74,-116.67 1530.61,-88.0003 1481.69,-68.7335"/>
<polygon fill="black" stroke="black" points="1482.79,-65.4074 1472.2,-65.0122 1480.23,-71.9236 1482.79,-65.4074"/>
</g>
<!-- SEBAG_SCHOENAUER\nCOUNTER_EXAMPLE_RATE\nLEVERAGE\nCONFIDENCE -->
<g id="node37" class="node"><title>SEBAG_SCHOENAUER\nCOUNTER_EXAMPLE_RATE\nLEVERAGE\nCONFIDENCE</title>
<ellipse fill="none" stroke="black" cx="1700.84" cy="-48.0833" rx="137.358" ry="48.1667"/>
<text text-anchor="middle" x="1700.84" y="-66.8833" font-family="Times,serif" font-size="14.00">SEBAG_SCHOENAUER</text>
<text text-anchor="middle" x="1700.84" y="-51.8833" font-family="Times,serif" font-size="14.00">COUNTER_EXAMPLE_RATE</text>
<text text-anchor="middle" x="1700.84" y="-36.8833" font-family="Times,serif" font-size="14.00">LEVERAGE</text>
<text text-anchor="middle" x="1700.84" y="-21.8833" font-family="Times,serif" font-size="14.00">CONFIDENCE</text>
</g>
<!-- n17 (0.89 &#45; 5)&#45;&gt;SEBAG_SCHOENAUER\nCOUNTER_EXAMPLE_RATE\nLEVERAGE\nCONFIDENCE -->
<g id="edge36" class="edge"><title>n17 (0.89 &#45; 5)&#45;&gt;SEBAG_SCHOENAUER\nCOUNTER_EXAMPLE_RATE\nLEVERAGE\nCONFIDENCE</title>
<path fill="none" stroke="black" d="M1694.7,-172.595C1695.52,-156.085 1696.8,-130.251 1697.99,-106.47"/>
<polygon fill="black" stroke="black" points="1701.48,-106.598 1698.49,-96.436 1694.49,-106.25 1701.48,-106.598"/>
</g>
</g>
</svg>
