<?xml version="1.0" encoding="UTF-8" standalone="no"?>
<!DOCTYPE svg PUBLIC "-//W3C//DTD SVG 1.1//EN"
 "http://www.w3.org/Graphics/SVG/1.1/DTD/svg11.dtd">
<!-- Generated by graphviz version 2.38.0 (20140413.2041)
 -->
<!-- Title: dendrogram Pages: 1 -->
<svg width="1788pt" height="898pt"
 viewBox="0.00 0.00 1788.02 898.21" xmlns="http://www.w3.org/2000/svg" xmlns:xlink="http://www.w3.org/1999/xlink">
<g id="graph0" class="graph" transform="scale(1 1) rotate(0) translate(4 894.205)">
<title>dendrogram</title>
<polygon fill="white" stroke="none" points="-4,4 -4,-894.205 1784.02,-894.205 1784.02,4 -4,4"/>
<!-- n34 (0.02 &#45; 36) -->
<g id="node1" class="node"><title>n34 (0.02 &#45; 36)</title>
<ellipse fill="none" stroke="black" cx="906.84" cy="-872.205" rx="64.189" ry="18"/>
<text text-anchor="middle" x="906.84" y="-868.505" font-family="Times,serif" font-size="14.00">n34 (0.02 &#45; 36)</text>
</g>
<!-- n33 (0.13 &#45; 16) -->
<g id="node2" class="node"><title>n33 (0.13 &#45; 16)</title>
<ellipse fill="none" stroke="black" cx="649.84" cy="-800.205" rx="64.189" ry="18"/>
<text text-anchor="middle" x="649.84" y="-796.505" font-family="Times,serif" font-size="14.00">n33 (0.13 &#45; 16)</text>
</g>
<!-- n34 (0.02 &#45; 36)&#45;&gt;n33 (0.13 &#45; 16) -->
<g id="edge1" class="edge"><title>n34 (0.02 &#45; 36)&#45;&gt;n33 (0.13 &#45; 16)</title>
<path fill="none" stroke="black" d="M862.368,-859.092C818.375,-847.109 750.983,-828.754 703.917,-815.934"/>
<polygon fill="black" stroke="black" points="704.767,-812.538 694.198,-813.287 702.927,-819.292 704.767,-812.538"/>
</g>
<!-- n32 (0.22 &#45; 20) -->
<g id="node23" class="node"><title>n32 (0.22 &#45; 20)</title>
<ellipse fill="none" stroke="black" cx="1111.84" cy="-800.205" rx="64.189" ry="18"/>
<text text-anchor="middle" x="1111.84" y="-796.505" font-family="Times,serif" font-size="14.00">n32 (0.22 &#45; 20)</text>
</g>
<!-- n34 (0.02 &#45; 36)&#45;&gt;n32 (0.22 &#45; 20) -->
<g id="edge22" class="edge"><title>n34 (0.02 &#45; 36)&#45;&gt;n32 (0.22 &#45; 20)</title>
<path fill="none" stroke="black" d="M945.882,-857.874C979.118,-846.525 1027.03,-830.165 1062.84,-817.937"/>
<polygon fill="black" stroke="black" points="1064.26,-821.15 1072.6,-814.606 1062,-814.525 1064.26,-821.15"/>
</g>
<!-- n29 (0.42 &#45; 3) -->
<g id="node3" class="node"><title>n29 (0.42 &#45; 3)</title>
<ellipse fill="none" stroke="black" cx="282.84" cy="-728.205" rx="59.5901" ry="18"/>
<text text-anchor="middle" x="282.84" y="-724.505" font-family="Times,serif" font-size="14.00">n29 (0.42 &#45; 3)</text>
</g>
<!-- n33 (0.13 &#45; 16)&#45;&gt;n29 (0.42 &#45; 3) -->
<g id="edge2" class="edge"><title>n33 (0.13 &#45; 16)&#45;&gt;n29 (0.42 &#45; 3)</title>
<path fill="none" stroke="black" d="M598.037,-789.324C530.617,-776.465 413.067,-754.044 342.148,-740.517"/>
<polygon fill="black" stroke="black" points="342.514,-737.024 332.035,-738.588 341.202,-743.9 342.514,-737.024"/>
</g>
<!-- n31 (0.41 &#45; 13) -->
<g id="node8" class="node"><title>n31 (0.41 &#45; 13)</title>
<ellipse fill="none" stroke="black" cx="649.84" cy="-728.205" rx="64.189" ry="18"/>
<text text-anchor="middle" x="649.84" y="-724.505" font-family="Times,serif" font-size="14.00">n31 (0.41 &#45; 13)</text>
</g>
<!-- n33 (0.13 &#45; 16)&#45;&gt;n31 (0.41 &#45; 13) -->
<g id="edge7" class="edge"><title>n33 (0.13 &#45; 16)&#45;&gt;n31 (0.41 &#45; 13)</title>
<path fill="none" stroke="black" d="M649.84,-781.902C649.84,-774.188 649.84,-764.918 649.84,-756.318"/>
<polygon fill="black" stroke="black" points="653.34,-756.309 649.84,-746.31 646.34,-756.31 653.34,-756.309"/>
</g>
<!-- SPECIFICITY -->
<g id="node4" class="node"><title>SPECIFICITY</title>
<ellipse fill="none" stroke="black" cx="141.84" cy="-562.482" rx="63.0888" ry="18"/>
<text text-anchor="middle" x="141.84" y="-558.782" font-family="Times,serif" font-size="14.00">SPECIFICITY</text>
</g>
<!-- n29 (0.42 &#45; 3)&#45;&gt;SPECIFICITY -->
<g id="edge3" class="edge"><title>n29 (0.42 &#45; 3)&#45;&gt;SPECIFICITY</title>
<path fill="none" stroke="black" d="M258.511,-711.58C244.485,-701.859 227.068,-688.513 213.84,-674.205 189.762,-648.161 168.494,-613.164 155.431,-589.543"/>
<polygon fill="black" stroke="black" points="158.359,-587.601 150.514,-580.481 152.207,-590.94 158.359,-587.601"/>
</g>
<!-- n28 (0.47 &#45; 2) -->
<g id="node5" class="node"><title>n28 (0.47 &#45; 2)</title>
<ellipse fill="none" stroke="black" cx="282.84" cy="-562.482" rx="59.5901" ry="18"/>
<text text-anchor="middle" x="282.84" y="-558.782" font-family="Times,serif" font-size="14.00">n28 (0.47 &#45; 2)</text>
</g>
<!-- n29 (0.42 &#45; 3)&#45;&gt;n28 (0.47 &#45; 2) -->
<g id="edge4" class="edge"><title>n29 (0.42 &#45; 3)&#45;&gt;n28 (0.47 &#45; 2)</title>
<path fill="none" stroke="black" d="M282.84,-709.993C282.84,-681.694 282.84,-625.094 282.84,-591.125"/>
<polygon fill="black" stroke="black" points="286.34,-590.956 282.84,-580.956 279.34,-590.956 286.34,-590.956"/>
</g>
<!-- COLLECTIVE_STRENGH -->
<g id="node6" class="node"><title>COLLECTIVE_STRENGH</title>
<ellipse fill="none" stroke="black" cx="109.84" cy="-345.463" rx="109.681" ry="18"/>
<text text-anchor="middle" x="109.84" y="-341.763" font-family="Times,serif" font-size="14.00">COLLECTIVE_STRENGH</text>
</g>
<!-- n28 (0.47 &#45; 2)&#45;&gt;COLLECTIVE_STRENGH -->
<g id="edge5" class="edge"><title>n28 (0.47 &#45; 2)&#45;&gt;COLLECTIVE_STRENGH</title>
<path fill="none" stroke="black" d="M273.887,-544.569C261.673,-522.151 238.474,-481.812 213.84,-450.759 190.204,-420.964 158.927,-390.584 136.866,-370.358"/>
<polygon fill="black" stroke="black" points="138.943,-367.516 129.187,-363.385 134.238,-372.698 138.943,-367.516"/>
</g>
<!-- RECALL -->
<g id="node7" class="node"><title>RECALL</title>
<ellipse fill="none" stroke="black" cx="282.84" cy="-345.463" rx="44.6926" ry="18"/>
<text text-anchor="middle" x="282.84" y="-341.763" font-family="Times,serif" font-size="14.00">RECALL</text>
</g>
<!-- n28 (0.47 &#45; 2)&#45;&gt;RECALL -->
<g id="edge6" class="edge"><title>n28 (0.47 &#45; 2)&#45;&gt;RECALL</title>
<path fill="none" stroke="black" d="M282.84,-544.25C282.84,-506.964 282.84,-418.551 282.84,-373.646"/>
<polygon fill="black" stroke="black" points="286.34,-373.479 282.84,-363.479 279.34,-373.479 286.34,-373.479"/>
</g>
<!-- n23 (0.78 &#45; 6) -->
<g id="node9" class="node"><title>n23 (0.78 &#45; 6)</title>
<ellipse fill="none" stroke="black" cx="527.84" cy="-562.482" rx="59.5901" ry="18"/>
<text text-anchor="middle" x="527.84" y="-558.782" font-family="Times,serif" font-size="14.00">n23 (0.78 &#45; 6)</text>
</g>
<!-- n31 (0.41 &#45; 13)&#45;&gt;n23 (0.78 &#45; 6) -->
<g id="edge8" class="edge"><title>n31 (0.41 &#45; 13)&#45;&gt;n23 (0.78 &#45; 6)</title>
<path fill="none" stroke="black" d="M637.244,-710.301C615.783,-681.501 572.016,-622.765 546.829,-588.965"/>
<polygon fill="black" stroke="black" points="549.333,-586.468 540.551,-580.54 543.72,-590.65 549.333,-586.468"/>
</g>
<!-- n27 (0.63 &#45; 7) -->
<g id="node14" class="node"><title>n27 (0.63 &#45; 7)</title>
<ellipse fill="none" stroke="black" cx="772.84" cy="-562.482" rx="59.5901" ry="18"/>
<text text-anchor="middle" x="772.84" y="-558.782" font-family="Times,serif" font-size="14.00">n27 (0.63 &#45; 7)</text>
</g>
<!-- n31 (0.41 &#45; 13)&#45;&gt;n27 (0.63 &#45; 7) -->
<g id="edge13" class="edge"><title>n31 (0.41 &#45; 13)&#45;&gt;n27 (0.63 &#45; 7)</title>
<path fill="none" stroke="black" d="M662.54,-710.301C684.176,-681.501 728.303,-622.765 753.696,-588.965"/>
<polygon fill="black" stroke="black" points="756.817,-590.638 760.025,-580.54 751.22,-586.433 756.817,-590.638"/>
</g>
<!-- KLOSGEN -->
<g id="node10" class="node"><title>KLOSGEN</title>
<ellipse fill="none" stroke="black" cx="397.84" cy="-345.463" rx="51.9908" ry="18"/>
<text text-anchor="middle" x="397.84" y="-341.763" font-family="Times,serif" font-size="14.00">KLOSGEN</text>
</g>
<!-- n23 (0.78 &#45; 6)&#45;&gt;KLOSGEN -->
<g id="edge9" class="edge"><title>n23 (0.78 &#45; 6)&#45;&gt;KLOSGEN</title>
<path fill="none" stroke="black" d="M517.639,-544.61C494.952,-507.085 440.199,-416.524 413.291,-372.019"/>
<polygon fill="black" stroke="black" points="416.163,-370.003 407.994,-363.257 410.173,-373.625 416.163,-370.003"/>
</g>
<!-- n21 (0.86 &#45; 5) -->
<g id="node11" class="node"><title>n21 (0.86 &#45; 5)</title>
<ellipse fill="none" stroke="black" cx="527.84" cy="-345.463" rx="59.5901" ry="18"/>
<text text-anchor="middle" x="527.84" y="-341.763" font-family="Times,serif" font-size="14.00">n21 (0.86 &#45; 5)</text>
</g>
<!-- n23 (0.78 &#45; 6)&#45;&gt;n21 (0.86 &#45; 5) -->
<g id="edge10" class="edge"><title>n23 (0.78 &#45; 6)&#45;&gt;n21 (0.86 &#45; 5)</title>
<path fill="none" stroke="black" d="M527.84,-544.25C527.84,-506.964 527.84,-418.551 527.84,-373.646"/>
<polygon fill="black" stroke="black" points="531.34,-373.479 527.84,-363.479 524.34,-373.479 531.34,-373.479"/>
</g>
<!-- COSINE -->
<g id="node12" class="node"><title>COSINE</title>
<ellipse fill="none" stroke="black" cx="463.84" cy="-192.083" rx="42.4939" ry="18"/>
<text text-anchor="middle" x="463.84" y="-188.383" font-family="Times,serif" font-size="14.00">COSINE</text>
</g>
<!-- n21 (0.86 &#45; 5)&#45;&gt;COSINE -->
<g id="edge11" class="edge"><title>n21 (0.86 &#45; 5)&#45;&gt;COSINE</title>
<path fill="none" stroke="black" d="M520.623,-327.392C509.473,-301.018 487.978,-250.178 474.871,-219.174"/>
<polygon fill="black" stroke="black" points="478.051,-217.709 470.933,-209.861 471.604,-220.434 478.051,-217.709"/>
</g>
<!-- PHI\nCHI_SQUARE\nGINI\nIMPLICATION_INDEX -->
<g id="node13" class="node"><title>PHI\nCHI_SQUARE\nGINI\nIMPLICATION_INDEX</title>
<ellipse fill="none" stroke="black" cx="632.84" cy="-192.083" rx="108.789" ry="48.1667"/>
<text text-anchor="middle" x="632.84" y="-210.883" font-family="Times,serif" font-size="14.00">PHI</text>
<text text-anchor="middle" x="632.84" y="-195.883" font-family="Times,serif" font-size="14.00">CHI_SQUARE</text>
<text text-anchor="middle" x="632.84" y="-180.883" font-family="Times,serif" font-size="14.00">GINI</text>
<text text-anchor="middle" x="632.84" y="-165.883" font-family="Times,serif" font-size="14.00">IMPLICATION_INDEX</text>
</g>
<!-- n21 (0.86 &#45; 5)&#45;&gt;PHI\nCHI_SQUARE\nGINI\nIMPLICATION_INDEX -->
<g id="edge12" class="edge"><title>n21 (0.86 &#45; 5)&#45;&gt;PHI\nCHI_SQUARE\nGINI\nIMPLICATION_INDEX</title>
<path fill="none" stroke="black" d="M539.478,-327.684C552.988,-308.207 575.946,-275.108 595.715,-246.608"/>
<polygon fill="black" stroke="black" points="598.64,-248.531 601.463,-238.32 592.888,-244.542 598.64,-248.531"/>
</g>
<!-- J_MEASURE\nTWO_WAY_SUPPORT_VARIATION\nFISHER_PVAL -->
<g id="node15" class="node"><title>J_MEASURE\nTWO_WAY_SUPPORT_VARIATION\nFISHER_PVAL</title>
<ellipse fill="none" stroke="black" cx="772.84" cy="-345.463" rx="166.754" ry="37.4533"/>
<text text-anchor="middle" x="772.84" y="-356.763" font-family="Times,serif" font-size="14.00">J_MEASURE</text>
<text text-anchor="middle" x="772.84" y="-341.763" font-family="Times,serif" font-size="14.00">TWO_WAY_SUPPORT_VARIATION</text>
<text text-anchor="middle" x="772.84" y="-326.763" font-family="Times,serif" font-size="14.00">FISHER_PVAL</text>
</g>
<!-- n27 (0.63 &#45; 7)&#45;&gt;J_MEASURE\nTWO_WAY_SUPPORT_VARIATION\nFISHER_PVAL -->
<g id="edge14" class="edge"><title>n27 (0.63 &#45; 7)&#45;&gt;J_MEASURE\nTWO_WAY_SUPPORT_VARIATION\nFISHER_PVAL</title>
<path fill="none" stroke="black" d="M772.84,-544.25C772.84,-511.848 772.84,-440.836 772.84,-393.319"/>
<polygon fill="black" stroke="black" points="776.34,-393.263 772.84,-383.263 769.34,-393.263 776.34,-393.263"/>
</g>
<!-- n26 (0.70 &#45; 4) -->
<g id="node16" class="node"><title>n26 (0.70 &#45; 4)</title>
<ellipse fill="none" stroke="black" cx="1017.84" cy="-345.463" rx="59.5901" ry="18"/>
<text text-anchor="middle" x="1017.84" y="-341.763" font-family="Times,serif" font-size="14.00">n26 (0.70 &#45; 4)</text>
</g>
<!-- n27 (0.63 &#45; 7)&#45;&gt;n26 (0.70 &#45; 4) -->
<g id="edge15" class="edge"><title>n27 (0.63 &#45; 7)&#45;&gt;n26 (0.70 &#45; 4)</title>
<path fill="none" stroke="black" d="M793.106,-545.52C826.35,-519.131 894.227,-464.386 948.84,-414.759 964.586,-400.451 981.579,-383.649 994.762,-370.29"/>
<polygon fill="black" stroke="black" points="997.54,-372.457 1002.05,-362.868 992.543,-367.554 997.54,-372.457"/>
</g>
<!-- PIATETSKY_SHAPIRO -->
<g id="node17" class="node"><title>PIATETSKY_SHAPIRO</title>
<ellipse fill="none" stroke="black" cx="901.84" cy="-192.083" rx="100.983" ry="18"/>
<text text-anchor="middle" x="901.84" y="-188.383" font-family="Times,serif" font-size="14.00">PIATETSKY_SHAPIRO</text>
</g>
<!-- n26 (0.70 &#45; 4)&#45;&gt;PIATETSKY_SHAPIRO -->
<g id="edge16" class="edge"><title>n26 (0.70 &#45; 4)&#45;&gt;PIATETSKY_SHAPIRO</title>
<path fill="none" stroke="black" d="M1004.98,-327.684C984.602,-301.087 944.757,-249.089 921,-218.086"/>
<polygon fill="black" stroke="black" points="923.616,-215.746 914.755,-209.937 918.059,-220.003 923.616,-215.746"/>
</g>
<!-- n24 (0.77 &#45; 3) -->
<g id="node18" class="node"><title>n24 (0.77 &#45; 3)</title>
<ellipse fill="none" stroke="black" cx="1080.84" cy="-192.083" rx="59.5901" ry="18"/>
<text text-anchor="middle" x="1080.84" y="-188.383" font-family="Times,serif" font-size="14.00">n24 (0.77 &#45; 3)</text>
</g>
<!-- n26 (0.70 &#45; 4)&#45;&gt;n24 (0.77 &#45; 3) -->
<g id="edge17" class="edge"><title>n26 (0.70 &#45; 4)&#45;&gt;n24 (0.77 &#45; 3)</title>
<path fill="none" stroke="black" d="M1024.94,-327.392C1035.86,-301.158 1056.86,-250.715 1069.78,-219.668"/>
<polygon fill="black" stroke="black" points="1073.05,-220.901 1073.67,-210.324 1066.59,-218.212 1073.05,-220.901"/>
</g>
<!-- KAPPA -->
<g id="node19" class="node"><title>KAPPA</title>
<ellipse fill="none" stroke="black" cx="1021.84" cy="-90" rx="39.7935" ry="18"/>
<text text-anchor="middle" x="1021.84" y="-86.3" font-family="Times,serif" font-size="14.00">KAPPA</text>
</g>
<!-- n24 (0.77 &#45; 3)&#45;&gt;KAPPA -->
<g id="edge18" class="edge"><title>n24 (0.77 &#45; 3)&#45;&gt;KAPPA</title>
<path fill="none" stroke="black" d="M1070.83,-174.106C1061.54,-158.338 1047.57,-134.644 1036.92,-116.585"/>
<polygon fill="black" stroke="black" points="1039.79,-114.564 1031.7,-107.727 1033.76,-118.119 1039.79,-114.564"/>
</g>
<!-- n22 (0.81 &#45; 2) -->
<g id="node20" class="node"><title>n22 (0.81 &#45; 2)</title>
<ellipse fill="none" stroke="black" cx="1138.84" cy="-90" rx="59.5901" ry="18"/>
<text text-anchor="middle" x="1138.84" y="-86.3" font-family="Times,serif" font-size="14.00">n22 (0.81 &#45; 2)</text>
</g>
<!-- n24 (0.77 &#45; 3)&#45;&gt;n22 (0.81 &#45; 2) -->
<g id="edge19" class="edge"><title>n24 (0.77 &#45; 3)&#45;&gt;n22 (0.81 &#45; 2)</title>
<path fill="none" stroke="black" d="M1090.68,-174.106C1099.76,-158.433 1113.38,-134.93 1123.82,-116.912"/>
<polygon fill="black" stroke="black" points="1126.97,-118.468 1128.95,-108.061 1120.91,-114.958 1126.97,-118.468"/>
</g>
<!-- JACCARD -->
<g id="node21" class="node"><title>JACCARD</title>
<ellipse fill="none" stroke="black" cx="1054.84" cy="-18" rx="50.8918" ry="18"/>
<text text-anchor="middle" x="1054.84" y="-14.3" font-family="Times,serif" font-size="14.00">JACCARD</text>
</g>
<!-- n22 (0.81 &#45; 2)&#45;&gt;JACCARD -->
<g id="edge20" class="edge"><title>n22 (0.81 &#45; 2)&#45;&gt;JACCARD</title>
<path fill="none" stroke="black" d="M1119.36,-72.7646C1108.15,-63.4217 1093.9,-51.5461 1081.64,-41.3336"/>
<polygon fill="black" stroke="black" points="1083.85,-38.6191 1073.93,-34.906 1079.37,-43.9966 1083.85,-38.6191"/>
</g>
<!-- TWO_WAY_SUPPORT -->
<g id="node22" class="node"><title>TWO_WAY_SUPPORT</title>
<ellipse fill="none" stroke="black" cx="1223.84" cy="-18" rx="100.182" ry="18"/>
<text text-anchor="middle" x="1223.84" y="-14.3" font-family="Times,serif" font-size="14.00">TWO_WAY_SUPPORT</text>
</g>
<!-- n22 (0.81 &#45; 2)&#45;&gt;TWO_WAY_SUPPORT -->
<g id="edge21" class="edge"><title>n22 (0.81 &#45; 2)&#45;&gt;TWO_WAY_SUPPORT</title>
<path fill="none" stroke="black" d="M1158.55,-72.7646C1169.55,-63.7076 1183.44,-52.2705 1195.58,-42.2756"/>
<polygon fill="black" stroke="black" points="1198.15,-44.6923 1203.64,-35.6334 1193.7,-39.2887 1198.15,-44.6923"/>
</g>
<!-- n25 (0.74 &#45; 9) -->
<g id="node24" class="node"><title>n25 (0.74 &#45; 9)</title>
<ellipse fill="none" stroke="black" cx="1111.84" cy="-728.205" rx="59.5901" ry="18"/>
<text text-anchor="middle" x="1111.84" y="-724.505" font-family="Times,serif" font-size="14.00">n25 (0.74 &#45; 9)</text>
</g>
<!-- n32 (0.22 &#45; 20)&#45;&gt;n25 (0.74 &#45; 9) -->
<g id="edge23" class="edge"><title>n32 (0.22 &#45; 20)&#45;&gt;n25 (0.74 &#45; 9)</title>
<path fill="none" stroke="black" d="M1111.84,-781.902C1111.84,-774.188 1111.84,-764.918 1111.84,-756.318"/>
<polygon fill="black" stroke="black" points="1115.34,-756.309 1111.84,-746.31 1108.34,-756.31 1115.34,-756.309"/>
</g>
<!-- n30 (0.41 &#45; 11) -->
<g id="node29" class="node"><title>n30 (0.41 &#45; 11)</title>
<ellipse fill="none" stroke="black" cx="1372.84" cy="-728.205" rx="64.189" ry="18"/>
<text text-anchor="middle" x="1372.84" y="-724.505" font-family="Times,serif" font-size="14.00">n30 (0.41 &#45; 11)</text>
</g>
<!-- n32 (0.22 &#45; 20)&#45;&gt;n30 (0.41 &#45; 11) -->
<g id="edge28" class="edge"><title>n32 (0.22 &#45; 20)&#45;&gt;n30 (0.41 &#45; 11)</title>
<path fill="none" stroke="black" d="M1156.71,-787.172C1201.48,-775.165 1270.31,-756.703 1318.23,-743.851"/>
<polygon fill="black" stroke="black" points="1319.37,-747.17 1328.12,-741.199 1317.56,-740.409 1319.37,-747.17"/>
</g>
<!-- ACCURACY -->
<g id="node25" class="node"><title>ACCURACY</title>
<ellipse fill="none" stroke="black" cx="1042.84" cy="-562.482" rx="59.5901" ry="18"/>
<text text-anchor="middle" x="1042.84" y="-558.782" font-family="Times,serif" font-size="14.00">ACCURACY</text>
</g>
<!-- n25 (0.74 &#45; 9)&#45;&gt;ACCURACY -->
<g id="edge24" class="edge"><title>n25 (0.74 &#45; 9)&#45;&gt;ACCURACY</title>
<path fill="none" stroke="black" d="M1104.72,-710.301C1092.68,-681.746 1068.25,-623.763 1053.95,-589.833"/>
<polygon fill="black" stroke="black" points="1057.14,-588.396 1050.03,-580.54 1050.69,-591.115 1057.14,-588.396"/>
</g>
<!-- n20 (0.88 &#45; 8) -->
<g id="node26" class="node"><title>n20 (0.88 &#45; 8)</title>
<ellipse fill="none" stroke="black" cx="1180.84" cy="-562.482" rx="59.5901" ry="18"/>
<text text-anchor="middle" x="1180.84" y="-558.782" font-family="Times,serif" font-size="14.00">n20 (0.88 &#45; 8)</text>
</g>
<!-- n25 (0.74 &#45; 9)&#45;&gt;n20 (0.88 &#45; 8) -->
<g id="edge25" class="edge"><title>n25 (0.74 &#45; 9)&#45;&gt;n20 (0.88 &#45; 8)</title>
<path fill="none" stroke="black" d="M1118.96,-710.301C1131,-681.746 1155.44,-623.763 1169.73,-589.833"/>
<polygon fill="black" stroke="black" points="1172.99,-591.115 1173.65,-580.54 1166.54,-588.396 1172.99,-591.115"/>
</g>
<!-- RELATIVE_RISK\nLIFT -->
<g id="node27" class="node"><title>RELATIVE_RISK\nLIFT</title>
<ellipse fill="none" stroke="black" cx="1180.84" cy="-345.463" rx="84.7059" ry="26.7407"/>
<text text-anchor="middle" x="1180.84" y="-349.263" font-family="Times,serif" font-size="14.00">RELATIVE_RISK</text>
<text text-anchor="middle" x="1180.84" y="-334.263" font-family="Times,serif" font-size="14.00">LIFT</text>
</g>
<!-- n20 (0.88 &#45; 8)&#45;&gt;RELATIVE_RISK\nLIFT -->
<g id="edge26" class="edge"><title>n20 (0.88 &#45; 8)&#45;&gt;RELATIVE_RISK\nLIFT</title>
<path fill="none" stroke="black" d="M1180.84,-544.25C1180.84,-509.322 1180.84,-429.528 1180.84,-382.663"/>
<polygon fill="black" stroke="black" points="1184.34,-382.628 1180.84,-372.628 1177.34,-382.628 1184.34,-382.628"/>
</g>
<!-- YULE_Y\nYULE_Q\nODDS_RATIO\nODD_MULTIPLIER\nZHANG\nBAYES -->
<g id="node28" class="node"><title>YULE_Y\nYULE_Q\nODDS_RATIO\nODD_MULTIPLIER\nZHANG\nBAYES</title>
<ellipse fill="none" stroke="black" cx="1378.84" cy="-345.463" rx="94.5053" ry="69.0935"/>
<text text-anchor="middle" x="1378.84" y="-379.263" font-family="Times,serif" font-size="14.00">YULE_Y</text>
<text text-anchor="middle" x="1378.84" y="-364.263" font-family="Times,serif" font-size="14.00">YULE_Q</text>
<text text-anchor="middle" x="1378.84" y="-349.263" font-family="Times,serif" font-size="14.00">ODDS_RATIO</text>
<text text-anchor="middle" x="1378.84" y="-334.263" font-family="Times,serif" font-size="14.00">ODD_MULTIPLIER</text>
<text text-anchor="middle" x="1378.84" y="-319.263" font-family="Times,serif" font-size="14.00">ZHANG</text>
<text text-anchor="middle" x="1378.84" y="-304.263" font-family="Times,serif" font-size="14.00">BAYES</text>
</g>
<!-- n20 (0.88 &#45; 8)&#45;&gt;YULE_Y\nYULE_Q\nODDS_RATIO\nODD_MULTIPLIER\nZHANG\nBAYES -->
<g id="edge27" class="edge"><title>n20 (0.88 &#45; 8)&#45;&gt;YULE_Y\nYULE_Q\nODDS_RATIO\nODD_MULTIPLIER\nZHANG\nBAYES</title>
<path fill="none" stroke="black" d="M1189.11,-544.551C1200.72,-521.757 1223.43,-480.621 1249.84,-450.759 1265.62,-432.92 1284.66,-415.724 1303.21,-400.617"/>
<polygon fill="black" stroke="black" points="1305.51,-403.26 1311.12,-394.274 1301.13,-397.799 1305.51,-403.26"/>
</g>
<!-- LEAST_CONTRADICTION -->
<g id="node30" class="node"><title>LEAST_CONTRADICTION</title>
<ellipse fill="none" stroke="black" cx="1372.84" cy="-562.482" rx="114.28" ry="18"/>
<text text-anchor="middle" x="1372.84" y="-558.782" font-family="Times,serif" font-size="14.00">LEAST_CONTRADICTION</text>
</g>
<!-- n30 (0.41 &#45; 11)&#45;&gt;LEAST_CONTRADICTION -->
<g id="edge29" class="edge"><title>n30 (0.41 &#45; 11)&#45;&gt;LEAST_CONTRADICTION</title>
<path fill="none" stroke="black" d="M1372.84,-709.993C1372.84,-681.694 1372.84,-625.094 1372.84,-591.125"/>
<polygon fill="black" stroke="black" points="1376.34,-590.956 1372.84,-580.956 1369.34,-590.956 1376.34,-590.956"/>
</g>
<!-- ONE_WAY_SUPPORT\nLOEVINGER\nSEBAG_SCHOENAUER\nCOUNTER_EXAMPLE_RATE\nCONVICTION\nCENTERED_CONFIDENCE\nCERTAINTY_FACTOR\nADDED_VALUE\nLEVERAGE\nCONFIDENCE -->
<g id="node31" class="node"><title>ONE_WAY_SUPPORT\nLOEVINGER\nSEBAG_SCHOENAUER\nCOUNTER_EXAMPLE_RATE\nCONVICTION\nCENTERED_CONFIDENCE\nCERTAINTY_FACTOR\nADDED_VALUE\nLEVERAGE\nCONFIDENCE</title>
<ellipse fill="none" stroke="black" cx="1642.84" cy="-562.482" rx="137.358" ry="111.946"/>
<text text-anchor="middle" x="1642.84" y="-626.282" font-family="Times,serif" font-size="14.00">ONE_WAY_SUPPORT</text>
<text text-anchor="middle" x="1642.84" y="-611.282" font-family="Times,serif" font-size="14.00">LOEVINGER</text>
<text text-anchor="middle" x="1642.84" y="-596.282" font-family="Times,serif" font-size="14.00">SEBAG_SCHOENAUER</text>
<text text-anchor="middle" x="1642.84" y="-581.282" font-family="Times,serif" font-size="14.00">COUNTER_EXAMPLE_RATE</text>
<text text-anchor="middle" x="1642.84" y="-566.282" font-family="Times,serif" font-size="14.00">CONVICTION</text>
<text text-anchor="middle" x="1642.84" y="-551.282" font-family="Times,serif" font-size="14.00">CENTERED_CONFIDENCE</text>
<text text-anchor="middle" x="1642.84" y="-536.282" font-family="Times,serif" font-size="14.00">CERTAINTY_FACTOR</text>
<text text-anchor="middle" x="1642.84" y="-521.282" font-family="Times,serif" font-size="14.00">ADDED_VALUE</text>
<text text-anchor="middle" x="1642.84" y="-506.282" font-family="Times,serif" font-size="14.00">LEVERAGE</text>
<text text-anchor="middle" x="1642.84" y="-491.282" font-family="Times,serif" font-size="14.00">CONFIDENCE</text>
</g>
<!-- n30 (0.41 &#45; 11)&#45;&gt;ONE_WAY_SUPPORT\nLOEVINGER\nSEBAG_SCHOENAUER\nCOUNTER_EXAMPLE_RATE\nCONVICTION\nCENTERED_CONFIDENCE\nCERTAINTY_FACTOR\nADDED_VALUE\nLEVERAGE\nCONFIDENCE -->
<g id="edge30" class="edge"><title>n30 (0.41 &#45; 11)&#45;&gt;ONE_WAY_SUPPORT\nLOEVINGER\nSEBAG_SCHOENAUER\nCOUNTER_EXAMPLE_RATE\nCONVICTION\nCENTERED_CONFIDENCE\nCERTAINTY_FACTOR\nADDED_VALUE\nLEVERAGE\nCONFIDENCE</title>
<path fill="none" stroke="black" d="M1410.83,-713.55C1435.73,-703.951 1468.6,-690.03 1495.84,-674.205 1509.68,-666.165 1523.74,-657.031 1537.39,-647.54"/>
<polygon fill="black" stroke="black" points="1539.68,-650.211 1545.83,-641.59 1535.64,-644.489 1539.68,-650.211"/>
</g>
</g>
</svg>
