<?xml version="1.0" encoding="UTF-8" standalone="no"?>
<!DOCTYPE svg PUBLIC "-//W3C//DTD SVG 1.1//EN"
 "http://www.w3.org/Graphics/SVG/1.1/DTD/svg11.dtd">
<!-- Generated by graphviz version 2.38.0 (20140413.2041)
 -->
<!-- Title: dendrogram Pages: 1 -->
<svg width="1431pt" height="839pt"
 viewBox="0.00 0.00 1430.73 839.06" xmlns="http://www.w3.org/2000/svg" xmlns:xlink="http://www.w3.org/1999/xlink">
<g id="graph0" class="graph" transform="scale(1 1) rotate(0) translate(4 835.058)">
<title>dendrogram</title>
<polygon fill="white" stroke="none" points="-4,4 -4,-835.058 1426.73,-835.058 1426.73,4 -4,4"/>
<!-- n34 (0.06 &#45; 36) -->
<g id="node1" class="node"><title>n34 (0.06 &#45; 36)</title>
<ellipse fill="none" stroke="black" cx="698.84" cy="-813.058" rx="64.189" ry="18"/>
<text text-anchor="middle" x="698.84" y="-809.358" font-family="Times,serif" font-size="14.00">n34 (0.06 &#45; 36)</text>
</g>
<!-- n33 (0.25 &#45; 16) -->
<g id="node2" class="node"><title>n33 (0.25 &#45; 16)</title>
<ellipse fill="none" stroke="black" cx="595.84" cy="-741.058" rx="64.189" ry="18"/>
<text text-anchor="middle" x="595.84" y="-737.358" font-family="Times,serif" font-size="14.00">n33 (0.25 &#45; 16)</text>
</g>
<!-- n34 (0.06 &#45; 36)&#45;&gt;n33 (0.25 &#45; 16) -->
<g id="edge1" class="edge"><title>n34 (0.06 &#45; 36)&#45;&gt;n33 (0.25 &#45; 16)</title>
<path fill="none" stroke="black" d="M675.468,-796.174C661.245,-786.508 642.894,-774.036 627.394,-763.502"/>
<polygon fill="black" stroke="black" points="629.358,-760.605 619.12,-757.879 625.423,-766.395 629.358,-760.605"/>
</g>
<!-- n32 (0.45 &#45; 20) -->
<g id="node21" class="node"><title>n32 (0.45 &#45; 20)</title>
<ellipse fill="none" stroke="black" cx="802.84" cy="-741.058" rx="64.189" ry="18"/>
<text text-anchor="middle" x="802.84" y="-737.358" font-family="Times,serif" font-size="14.00">n32 (0.45 &#45; 20)</text>
</g>
<!-- n34 (0.06 &#45; 36)&#45;&gt;n32 (0.45 &#45; 20) -->
<g id="edge20" class="edge"><title>n34 (0.06 &#45; 36)&#45;&gt;n32 (0.45 &#45; 20)</title>
<path fill="none" stroke="black" d="M722.439,-796.174C736.8,-786.508 755.33,-774.036 770.981,-763.502"/>
<polygon fill="black" stroke="black" points="772.993,-766.367 779.334,-757.879 769.084,-760.559 772.993,-766.367"/>
</g>
<!-- n30 (0.50 &#45; 4) -->
<g id="node3" class="node"><title>n30 (0.50 &#45; 4)</title>
<ellipse fill="none" stroke="black" cx="297.84" cy="-490.482" rx="59.5901" ry="18"/>
<text text-anchor="middle" x="297.84" y="-486.782" font-family="Times,serif" font-size="14.00">n30 (0.50 &#45; 4)</text>
</g>
<!-- n33 (0.25 &#45; 16)&#45;&gt;n30 (0.50 &#45; 4) -->
<g id="edge2" class="edge"><title>n33 (0.25 &#45; 16)&#45;&gt;n30 (0.50 &#45; 4)</title>
<path fill="none" stroke="black" d="M572.769,-724.088C558.211,-713.821 539.144,-700.022 522.84,-687.058 448.021,-627.567 364.051,-552.123 323.074,-514.707"/>
<polygon fill="black" stroke="black" points="325.208,-511.915 315.468,-507.747 320.483,-517.08 325.208,-511.915"/>
</g>
<!-- n31 (0.47 &#45; 12) -->
<g id="node8" class="node"><title>n31 (0.47 &#45; 12)</title>
<ellipse fill="none" stroke="black" cx="595.84" cy="-490.482" rx="64.189" ry="18"/>
<text text-anchor="middle" x="595.84" y="-486.782" font-family="Times,serif" font-size="14.00">n31 (0.47 &#45; 12)</text>
</g>
<!-- n33 (0.25 &#45; 16)&#45;&gt;n31 (0.47 &#45; 12) -->
<g id="edge7" class="edge"><title>n33 (0.25 &#45; 16)&#45;&gt;n31 (0.47 &#45; 12)</title>
<path fill="none" stroke="black" d="M595.84,-722.972C595.84,-680.577 595.84,-570.271 595.84,-518.745"/>
<polygon fill="black" stroke="black" points="599.34,-518.687 595.84,-508.687 592.34,-518.688 599.34,-518.687"/>
</g>
<!-- COLLECTIVE_STRENGH -->
<g id="node4" class="node"><title>COLLECTIVE_STRENGH</title>
<ellipse fill="none" stroke="black" cx="109.84" cy="-239.907" rx="109.681" ry="18"/>
<text text-anchor="middle" x="109.84" y="-236.207" font-family="Times,serif" font-size="14.00">COLLECTIVE_STRENGH</text>
</g>
<!-- n30 (0.50 &#45; 4)&#45;&gt;COLLECTIVE_STRENGH -->
<g id="edge3" class="edge"><title>n30 (0.50 &#45; 4)&#45;&gt;COLLECTIVE_STRENGH</title>
<path fill="none" stroke="black" d="M285.213,-472.787C252.915,-430.082 167.152,-316.685 128.817,-265.998"/>
<polygon fill="black" stroke="black" points="131.484,-263.722 122.66,-257.857 125.901,-267.944 131.484,-263.722"/>
</g>
<!-- n29 (0.68 &#45; 3) -->
<g id="node5" class="node"><title>n29 (0.68 &#45; 3)</title>
<ellipse fill="none" stroke="black" cx="297.84" cy="-239.907" rx="59.5901" ry="18"/>
<text text-anchor="middle" x="297.84" y="-236.207" font-family="Times,serif" font-size="14.00">n29 (0.68 &#45; 3)</text>
</g>
<!-- n30 (0.50 &#45; 4)&#45;&gt;n29 (0.68 &#45; 3) -->
<g id="edge4" class="edge"><title>n30 (0.50 &#45; 4)&#45;&gt;n29 (0.68 &#45; 3)</title>
<path fill="none" stroke="black" d="M297.84,-472.397C297.84,-430.001 297.84,-319.695 297.84,-268.169"/>
<polygon fill="black" stroke="black" points="301.34,-268.112 297.84,-258.112 294.34,-268.112 301.34,-268.112"/>
</g>
<!-- RECALL -->
<g id="node6" class="node"><title>RECALL</title>
<ellipse fill="none" stroke="black" cx="125.84" cy="-159.037" rx="44.6926" ry="18"/>
<text text-anchor="middle" x="125.84" y="-155.337" font-family="Times,serif" font-size="14.00">RECALL</text>
</g>
<!-- n29 (0.68 &#45; 3)&#45;&gt;RECALL -->
<g id="edge5" class="edge"><title>n29 (0.68 &#45; 3)&#45;&gt;RECALL</title>
<path fill="none" stroke="black" d="M265.123,-224.704C241.139,-214.203 207.841,-199.437 178.84,-185.907 173.431,-183.383 167.737,-180.667 162.168,-177.977"/>
<polygon fill="black" stroke="black" points="163.511,-174.739 152.987,-173.514 160.451,-181.034 163.511,-174.739"/>
</g>
<!-- PIATETSKY_SHAPIRO\nSPECIFICITY -->
<g id="node7" class="node"><title>PIATETSKY_SHAPIRO\nSPECIFICITY</title>
<ellipse fill="none" stroke="black" cx="297.84" cy="-159.037" rx="109.703" ry="26.7407"/>
<text text-anchor="middle" x="297.84" y="-162.837" font-family="Times,serif" font-size="14.00">PIATETSKY_SHAPIRO</text>
<text text-anchor="middle" x="297.84" y="-147.837" font-family="Times,serif" font-size="14.00">SPECIFICITY</text>
</g>
<!-- n29 (0.68 &#45; 3)&#45;&gt;PIATETSKY_SHAPIRO\nSPECIFICITY -->
<g id="edge6" class="edge"><title>n29 (0.68 &#45; 3)&#45;&gt;PIATETSKY_SHAPIRO\nSPECIFICITY</title>
<path fill="none" stroke="black" d="M297.84,-221.793C297.84,-214.303 297.84,-205.212 297.84,-196.334"/>
<polygon fill="black" stroke="black" points="301.34,-196.119 297.84,-186.119 294.34,-196.12 301.34,-196.119"/>
</g>
<!-- n28 (0.72 &#45; 6) -->
<g id="node9" class="node"><title>n28 (0.72 &#45; 6)</title>
<ellipse fill="none" stroke="black" cx="595.84" cy="-239.907" rx="59.5901" ry="18"/>
<text text-anchor="middle" x="595.84" y="-236.207" font-family="Times,serif" font-size="14.00">n28 (0.72 &#45; 6)</text>
</g>
<!-- n31 (0.47 &#45; 12)&#45;&gt;n28 (0.72 &#45; 6) -->
<g id="edge8" class="edge"><title>n31 (0.47 &#45; 12)&#45;&gt;n28 (0.72 &#45; 6)</title>
<path fill="none" stroke="black" d="M595.84,-472.397C595.84,-430.001 595.84,-319.695 595.84,-268.169"/>
<polygon fill="black" stroke="black" points="599.34,-268.112 595.84,-258.112 592.34,-268.112 599.34,-268.112"/>
</g>
<!-- n27 (0.72 &#45; 6) -->
<g id="node16" class="node"><title>n27 (0.72 &#45; 6)</title>
<ellipse fill="none" stroke="black" cx="798.84" cy="-239.907" rx="59.5901" ry="18"/>
<text text-anchor="middle" x="798.84" y="-236.207" font-family="Times,serif" font-size="14.00">n27 (0.72 &#45; 6)</text>
</g>
<!-- n31 (0.47 &#45; 12)&#45;&gt;n27 (0.72 &#45; 6) -->
<g id="edge15" class="edge"><title>n31 (0.47 &#45; 12)&#45;&gt;n27 (0.72 &#45; 6)</title>
<path fill="none" stroke="black" d="M597.722,-472.416C602.698,-435.152 619.479,-345.703 669.84,-293.907 688.987,-274.214 716.496,-261.566 741.196,-253.588"/>
<polygon fill="black" stroke="black" points="742.308,-256.908 750.858,-250.651 740.272,-250.21 742.308,-256.908"/>
</g>
<!-- n25 (0.80 &#45; 2) -->
<g id="node10" class="node"><title>n25 (0.80 &#45; 2)</title>
<ellipse fill="none" stroke="black" cx="484.84" cy="-159.037" rx="59.5901" ry="18"/>
<text text-anchor="middle" x="484.84" y="-155.337" font-family="Times,serif" font-size="14.00">n25 (0.80 &#45; 2)</text>
</g>
<!-- n28 (0.72 &#45; 6)&#45;&gt;n25 (0.80 &#45; 2) -->
<g id="edge9" class="edge"><title>n28 (0.72 &#45; 6)&#45;&gt;n25 (0.80 &#45; 2)</title>
<path fill="none" stroke="black" d="M573.645,-223.136C556.932,-211.261 533.825,-194.842 515.371,-181.73"/>
<polygon fill="black" stroke="black" points="517.177,-178.719 506.998,-175.78 513.122,-184.426 517.177,-178.719"/>
</g>
<!-- n26 (0.78 &#45; 4) -->
<g id="node13" class="node"><title>n26 (0.78 &#45; 4)</title>
<ellipse fill="none" stroke="black" cx="632.84" cy="-159.037" rx="59.5901" ry="18"/>
<text text-anchor="middle" x="632.84" y="-155.337" font-family="Times,serif" font-size="14.00">n26 (0.78 &#45; 4)</text>
</g>
<!-- n28 (0.72 &#45; 6)&#45;&gt;n26 (0.78 &#45; 4) -->
<g id="edge12" class="edge"><title>n28 (0.72 &#45; 6)&#45;&gt;n26 (0.78 &#45; 4)</title>
<path fill="none" stroke="black" d="M603.869,-221.793C608.717,-211.458 614.997,-198.072 620.469,-186.407"/>
<polygon fill="black" stroke="black" points="623.749,-187.657 624.827,-177.117 617.412,-184.684 623.749,-187.657"/>
</g>
<!-- JACCARD -->
<g id="node11" class="node"><title>JACCARD</title>
<ellipse fill="none" stroke="black" cx="366.84" cy="-48.0833" rx="50.8918" ry="18"/>
<text text-anchor="middle" x="366.84" y="-44.3833" font-family="Times,serif" font-size="14.00">JACCARD</text>
</g>
<!-- n25 (0.80 &#45; 2)&#45;&gt;JACCARD -->
<g id="edge10" class="edge"><title>n25 (0.80 &#45; 2)&#45;&gt;JACCARD</title>
<path fill="none" stroke="black" d="M467.174,-141.725C447.16,-123.245 414.393,-92.9905 391.779,-72.1104"/>
<polygon fill="black" stroke="black" points="393.963,-69.3629 384.242,-65.1505 389.214,-74.5059 393.963,-69.3629"/>
</g>
<!-- KAPPA -->
<g id="node12" class="node"><title>KAPPA</title>
<ellipse fill="none" stroke="black" cx="474.84" cy="-48.0833" rx="39.7935" ry="18"/>
<text text-anchor="middle" x="474.84" y="-44.3833" font-family="Times,serif" font-size="14.00">KAPPA</text>
</g>
<!-- n25 (0.80 &#45; 2)&#45;&gt;KAPPA -->
<g id="edge11" class="edge"><title>n25 (0.80 &#45; 2)&#45;&gt;KAPPA</title>
<path fill="none" stroke="black" d="M483.278,-141.013C481.695,-123.764 479.22,-96.8054 477.36,-76.5339"/>
<polygon fill="black" stroke="black" points="480.824,-75.9855 476.425,-66.3472 473.854,-76.6253 480.824,-75.9855"/>
</g>
<!-- TWO_WAY_SUPPORT -->
<g id="node14" class="node"><title>TWO_WAY_SUPPORT</title>
<ellipse fill="none" stroke="black" cx="632.84" cy="-48.0833" rx="100.182" ry="18"/>
<text text-anchor="middle" x="632.84" y="-44.3833" font-family="Times,serif" font-size="14.00">TWO_WAY_SUPPORT</text>
</g>
<!-- n26 (0.78 &#45; 4)&#45;&gt;TWO_WAY_SUPPORT -->
<g id="edge13" class="edge"><title>n26 (0.78 &#45; 4)&#45;&gt;TWO_WAY_SUPPORT</title>
<path fill="none" stroke="black" d="M632.84,-141.013C632.84,-123.764 632.84,-96.8054 632.84,-76.5339"/>
<polygon fill="black" stroke="black" points="636.34,-76.3472 632.84,-66.3472 629.34,-76.3473 636.34,-76.3472"/>
</g>
<!-- J_MEASURE\nTWO_WAY_SUPPORT_VARIATION\nFISHER_PVAL -->
<g id="node15" class="node"><title>J_MEASURE\nTWO_WAY_SUPPORT_VARIATION\nFISHER_PVAL</title>
<ellipse fill="none" stroke="black" cx="917.84" cy="-48.0833" rx="166.754" ry="37.4533"/>
<text text-anchor="middle" x="917.84" y="-59.3833" font-family="Times,serif" font-size="14.00">J_MEASURE</text>
<text text-anchor="middle" x="917.84" y="-44.3833" font-family="Times,serif" font-size="14.00">TWO_WAY_SUPPORT_VARIATION</text>
<text text-anchor="middle" x="917.84" y="-29.3833" font-family="Times,serif" font-size="14.00">FISHER_PVAL</text>
</g>
<!-- n26 (0.78 &#45; 4)&#45;&gt;J_MEASURE\nTWO_WAY_SUPPORT_VARIATION\nFISHER_PVAL -->
<g id="edge14" class="edge"><title>n26 (0.78 &#45; 4)&#45;&gt;J_MEASURE\nTWO_WAY_SUPPORT_VARIATION\nFISHER_PVAL</title>
<path fill="none" stroke="black" d="M668.359,-144.458C707.492,-129.498 771.991,-104.84 825.603,-84.3448"/>
<polygon fill="black" stroke="black" points="827.043,-87.5413 835.134,-80.7011 824.544,-81.0028 827.043,-87.5413"/>
</g>
<!-- KLOSGEN -->
<g id="node17" class="node"><title>KLOSGEN</title>
<ellipse fill="none" stroke="black" cx="798.84" cy="-159.037" rx="51.9908" ry="18"/>
<text text-anchor="middle" x="798.84" y="-155.337" font-family="Times,serif" font-size="14.00">KLOSGEN</text>
</g>
<!-- n27 (0.72 &#45; 6)&#45;&gt;KLOSGEN -->
<g id="edge16" class="edge"><title>n27 (0.72 &#45; 6)&#45;&gt;KLOSGEN</title>
<path fill="none" stroke="black" d="M798.84,-221.793C798.84,-211.768 798.84,-198.873 798.84,-187.461"/>
<polygon fill="black" stroke="black" points="802.34,-187.117 798.84,-177.117 795.34,-187.117 802.34,-187.117"/>
</g>
<!-- n24 (0.88 &#45; 5) -->
<g id="node18" class="node"><title>n24 (0.88 &#45; 5)</title>
<ellipse fill="none" stroke="black" cx="1144.84" cy="-159.037" rx="59.5901" ry="18"/>
<text text-anchor="middle" x="1144.84" y="-155.337" font-family="Times,serif" font-size="14.00">n24 (0.88 &#45; 5)</text>
</g>
<!-- n27 (0.72 &#45; 6)&#45;&gt;n24 (0.88 &#45; 5) -->
<g id="edge17" class="edge"><title>n27 (0.72 &#45; 6)&#45;&gt;n24 (0.88 &#45; 5)</title>
<path fill="none" stroke="black" d="M845.144,-228.352C908.199,-213.978 1020.96,-188.274 1088.74,-172.824"/>
<polygon fill="black" stroke="black" points="1089.84,-176.164 1098.81,-170.529 1088.28,-169.339 1089.84,-176.164"/>
</g>
<!-- COSINE -->
<g id="node19" class="node"><title>COSINE</title>
<ellipse fill="none" stroke="black" cx="1144.84" cy="-48.0833" rx="42.4939" ry="18"/>
<text text-anchor="middle" x="1144.84" y="-44.3833" font-family="Times,serif" font-size="14.00">COSINE</text>
</g>
<!-- n24 (0.88 &#45; 5)&#45;&gt;COSINE -->
<g id="edge18" class="edge"><title>n24 (0.88 &#45; 5)&#45;&gt;COSINE</title>
<path fill="none" stroke="black" d="M1144.84,-141.013C1144.84,-123.764 1144.84,-96.8054 1144.84,-76.5339"/>
<polygon fill="black" stroke="black" points="1148.34,-76.3472 1144.84,-66.3472 1141.34,-76.3473 1148.34,-76.3472"/>
</g>
<!-- GINI\nPHI\nCHI_SQUARE\nIMPLICATION_INDEX -->
<g id="node20" class="node"><title>GINI\nPHI\nCHI_SQUARE\nIMPLICATION_INDEX</title>
<ellipse fill="none" stroke="black" cx="1313.84" cy="-48.0833" rx="108.789" ry="48.1667"/>
<text text-anchor="middle" x="1313.84" y="-66.8833" font-family="Times,serif" font-size="14.00">GINI</text>
<text text-anchor="middle" x="1313.84" y="-51.8833" font-family="Times,serif" font-size="14.00">PHI</text>
<text text-anchor="middle" x="1313.84" y="-36.8833" font-family="Times,serif" font-size="14.00">CHI_SQUARE</text>
<text text-anchor="middle" x="1313.84" y="-21.8833" font-family="Times,serif" font-size="14.00">IMPLICATION_INDEX</text>
</g>
<!-- n24 (0.88 &#45; 5)&#45;&gt;GINI\nPHI\nCHI_SQUARE\nIMPLICATION_INDEX -->
<g id="edge19" class="edge"><title>n24 (0.88 &#45; 5)&#45;&gt;GINI\nPHI\nCHI_SQUARE\nIMPLICATION_INDEX</title>
<path fill="none" stroke="black" d="M1169.05,-142.426C1188.82,-129.683 1217.77,-111.021 1244.59,-93.7258"/>
<polygon fill="black" stroke="black" points="1246.71,-96.528 1253.22,-88.1678 1242.91,-90.6447 1246.71,-96.528"/>
</g>
<!-- LEAST_CONTRADICTION\nACCURACY -->
<g id="node22" class="node"><title>LEAST_CONTRADICTION\nACCURACY</title>
<ellipse fill="none" stroke="black" cx="802.84" cy="-490.482" rx="124.402" ry="26.7407"/>
<text text-anchor="middle" x="802.84" y="-494.282" font-family="Times,serif" font-size="14.00">LEAST_CONTRADICTION</text>
<text text-anchor="middle" x="802.84" y="-479.282" font-family="Times,serif" font-size="14.00">ACCURACY</text>
</g>
<!-- n32 (0.45 &#45; 20)&#45;&gt;LEAST_CONTRADICTION\nACCURACY -->
<g id="edge21" class="edge"><title>n32 (0.45 &#45; 20)&#45;&gt;LEAST_CONTRADICTION\nACCURACY</title>
<path fill="none" stroke="black" d="M802.84,-722.972C802.84,-682.868 802.84,-581.992 802.84,-527.591"/>
<polygon fill="black" stroke="black" points="806.34,-527.363 802.84,-517.363 799.34,-527.363 806.34,-527.363"/>
</g>
<!-- YULE_Y\nYULE_Q\nODDS_RATIO\nRELATIVE_RISK\nCONVICTION\nONE_WAY_SUPPORT\nLOEVINGER\nSEBAG_SCHOENAUER\nODD_MULTIPLIER\nCOUNTER_EXAMPLE_RATE\nZHANG\nCERTAINTY_FACTOR\nBAYES\nCENTERED_CONFIDENCE\nADDED_VALUE\nLEVERAGE\nLIFT\nCONFIDENCE -->
<g id="node23" class="node"><title>YULE_Y\nYULE_Q\nODDS_RATIO\nRELATIVE_RISK\nCONVICTION\nONE_WAY_SUPPORT\nLOEVINGER\nSEBAG_SCHOENAUER\nODD_MULTIPLIER\nCOUNTER_EXAMPLE_RATE\nZHANG\nCERTAINTY_FACTOR\nBAYES\nCENTERED_CONFIDENCE\nADDED_VALUE\nLEVERAGE\nLIFT\nCONFIDENCE</title>
<ellipse fill="none" stroke="black" cx="1082.84" cy="-490.482" rx="137.358" ry="196.651"/>
<text text-anchor="middle" x="1082.84" y="-614.282" font-family="Times,serif" font-size="14.00">YULE_Y</text>
<text text-anchor="middle" x="1082.84" y="-599.282" font-family="Times,serif" font-size="14.00">YULE_Q</text>
<text text-anchor="middle" x="1082.84" y="-584.282" font-family="Times,serif" font-size="14.00">ODDS_RATIO</text>
<text text-anchor="middle" x="1082.84" y="-569.282" font-family="Times,serif" font-size="14.00">RELATIVE_RISK</text>
<text text-anchor="middle" x="1082.84" y="-554.282" font-family="Times,serif" font-size="14.00">CONVICTION</text>
<text text-anchor="middle" x="1082.84" y="-539.282" font-family="Times,serif" font-size="14.00">ONE_WAY_SUPPORT</text>
<text text-anchor="middle" x="1082.84" y="-524.282" font-family="Times,serif" font-size="14.00">LOEVINGER</text>
<text text-anchor="middle" x="1082.84" y="-509.282" font-family="Times,serif" font-size="14.00">SEBAG_SCHOENAUER</text>
<text text-anchor="middle" x="1082.84" y="-494.282" font-family="Times,serif" font-size="14.00">ODD_MULTIPLIER</text>
<text text-anchor="middle" x="1082.84" y="-479.282" font-family="Times,serif" font-size="14.00">COUNTER_EXAMPLE_RATE</text>
<text text-anchor="middle" x="1082.84" y="-464.282" font-family="Times,serif" font-size="14.00">ZHANG</text>
<text text-anchor="middle" x="1082.84" y="-449.282" font-family="Times,serif" font-size="14.00">CERTAINTY_FACTOR</text>
<text text-anchor="middle" x="1082.84" y="-434.282" font-family="Times,serif" font-size="14.00">BAYES</text>
<text text-anchor="middle" x="1082.84" y="-419.282" font-family="Times,serif" font-size="14.00">CENTERED_CONFIDENCE</text>
<text text-anchor="middle" x="1082.84" y="-404.282" font-family="Times,serif" font-size="14.00">ADDED_VALUE</text>
<text text-anchor="middle" x="1082.84" y="-389.282" font-family="Times,serif" font-size="14.00">LEVERAGE</text>
<text text-anchor="middle" x="1082.84" y="-374.282" font-family="Times,serif" font-size="14.00">LIFT</text>
<text text-anchor="middle" x="1082.84" y="-359.282" font-family="Times,serif" font-size="14.00">CONFIDENCE</text>
</g>
<!-- n32 (0.45 &#45; 20)&#45;&gt;YULE_Y\nYULE_Q\nODDS_RATIO\nRELATIVE_RISK\nCONVICTION\nONE_WAY_SUPPORT\nLOEVINGER\nSEBAG_SCHOENAUER\nODD_MULTIPLIER\nCOUNTER_EXAMPLE_RATE\nZHANG\nCERTAINTY_FACTOR\nBAYES\nCENTERED_CONFIDENCE\nADDED_VALUE\nLEVERAGE\nLIFT\nCONFIDENCE -->
<g id="edge22" class="edge"><title>n32 (0.45 &#45; 20)&#45;&gt;YULE_Y\nYULE_Q\nODDS_RATIO\nRELATIVE_RISK\nCONVICTION\nONE_WAY_SUPPORT\nLOEVINGER\nSEBAG_SCHOENAUER\nODD_MULTIPLIER\nCOUNTER_EXAMPLE_RATE\nZHANG\nCERTAINTY_FACTOR\nBAYES\nCENTERED_CONFIDENCE\nADDED_VALUE\nLEVERAGE\nLIFT\nCONFIDENCE</title>
<path fill="none" stroke="black" d="M849.126,-728.442C876.274,-720.044 910.17,-706.684 935.84,-687.058 952.666,-674.194 968.514,-658.922 983.127,-642.667"/>
<polygon fill="black" stroke="black" points="985.776,-644.955 989.754,-635.135 980.521,-640.331 985.776,-644.955"/>
</g>
</g>
</svg>
