<?xml version="1.0" encoding="UTF-8" standalone="no"?>
<!DOCTYPE svg PUBLIC "-//W3C//DTD SVG 1.1//EN"
 "http://www.w3.org/Graphics/SVG/1.1/DTD/svg11.dtd">
<!-- Generated by graphviz version 2.38.0 (20140413.2041)
 -->
<!-- Title: dendrogram Pages: 1 -->
<svg width="1520pt" height="1004pt"
 viewBox="0.00 0.00 1520.02 1004.27" xmlns="http://www.w3.org/2000/svg" xmlns:xlink="http://www.w3.org/1999/xlink">
<g id="graph0" class="graph" transform="scale(1 1) rotate(0) translate(4 1000.27)">
<title>dendrogram</title>
<polygon fill="white" stroke="none" points="-4,4 -4,-1000.27 1516.02,-1000.27 1516.02,4 -4,4"/>
<!-- n34 (0.16 &#45; 36) -->
<g id="node1" class="node"><title>n34 (0.16 &#45; 36)</title>
<ellipse fill="none" stroke="black" cx="589.84" cy="-978.271" rx="64.189" ry="18"/>
<text text-anchor="middle" x="589.84" y="-974.571" font-family="Times,serif" font-size="14.00">n34 (0.16 &#45; 36)</text>
</g>
<!-- n32 (0.50 &#45; 5) -->
<g id="node2" class="node"><title>n32 (0.50 &#45; 5)</title>
<ellipse fill="none" stroke="black" cx="474.84" cy="-906.271" rx="59.5901" ry="18"/>
<text text-anchor="middle" x="474.84" y="-902.571" font-family="Times,serif" font-size="14.00">n32 (0.50 &#45; 5)</text>
</g>
<!-- n34 (0.16 &#45; 36)&#45;&gt;n32 (0.50 &#45; 5) -->
<g id="edge1" class="edge"><title>n34 (0.16 &#45; 36)&#45;&gt;n32 (0.50 &#45; 5)</title>
<path fill="none" stroke="black" d="M564.318,-961.736C548.089,-951.858 526.878,-938.946 509.18,-928.174"/>
<polygon fill="black" stroke="black" points="510.653,-924.973 500.291,-922.763 507.013,-930.952 510.653,-924.973"/>
</g>
<!-- n33 (0.43 &#45; 31) -->
<g id="node11" class="node"><title>n33 (0.43 &#45; 31)</title>
<ellipse fill="none" stroke="black" cx="796.84" cy="-906.271" rx="64.189" ry="18"/>
<text text-anchor="middle" x="796.84" y="-902.571" font-family="Times,serif" font-size="14.00">n33 (0.43 &#45; 31)</text>
</g>
<!-- n34 (0.16 &#45; 36)&#45;&gt;n33 (0.43 &#45; 31) -->
<g id="edge10" class="edge"><title>n34 (0.16 &#45; 36)&#45;&gt;n33 (0.43 &#45; 31)</title>
<path fill="none" stroke="black" d="M629.263,-963.94C662.93,-952.555 711.512,-936.126 747.707,-923.886"/>
<polygon fill="black" stroke="black" points="749.213,-927.072 757.565,-920.553 746.97,-920.441 749.213,-927.072"/>
</g>
<!-- n25 (0.84 &#45; 2) -->
<g id="node3" class="node"><title>n25 (0.84 &#45; 2)</title>
<ellipse fill="none" stroke="black" cx="282.84" cy="-834.271" rx="59.5901" ry="18"/>
<text text-anchor="middle" x="282.84" y="-830.571" font-family="Times,serif" font-size="14.00">n25 (0.84 &#45; 2)</text>
</g>
<!-- n32 (0.50 &#45; 5)&#45;&gt;n25 (0.84 &#45; 2) -->
<g id="edge2" class="edge"><title>n32 (0.50 &#45; 5)&#45;&gt;n25 (0.84 &#45; 2)</title>
<path fill="none" stroke="black" d="M438.275,-891.94C407.18,-880.603 362.37,-864.266 328.844,-852.043"/>
<polygon fill="black" stroke="black" points="329.864,-848.69 319.27,-848.553 327.466,-855.266 329.864,-848.69"/>
</g>
<!-- n30 (0.68 &#45; 3) -->
<g id="node6" class="node"><title>n30 (0.68 &#45; 3)</title>
<ellipse fill="none" stroke="black" cx="474.84" cy="-834.271" rx="59.5901" ry="18"/>
<text text-anchor="middle" x="474.84" y="-830.571" font-family="Times,serif" font-size="14.00">n30 (0.68 &#45; 3)</text>
</g>
<!-- n32 (0.50 &#45; 5)&#45;&gt;n30 (0.68 &#45; 3) -->
<g id="edge5" class="edge"><title>n32 (0.50 &#45; 5)&#45;&gt;n30 (0.68 &#45; 3)</title>
<path fill="none" stroke="black" d="M474.84,-887.968C474.84,-880.254 474.84,-870.984 474.84,-862.384"/>
<polygon fill="black" stroke="black" points="478.34,-862.376 474.84,-852.376 471.34,-862.376 478.34,-862.376"/>
</g>
<!-- COLLECTIVE_STRENGH -->
<g id="node4" class="node"><title>COLLECTIVE_STRENGH</title>
<ellipse fill="none" stroke="black" cx="109.84" cy="-583.696" rx="109.681" ry="18"/>
<text text-anchor="middle" x="109.84" y="-579.996" font-family="Times,serif" font-size="14.00">COLLECTIVE_STRENGH</text>
</g>
<!-- n25 (0.84 &#45; 2)&#45;&gt;COLLECTIVE_STRENGH -->
<g id="edge3" class="edge"><title>n25 (0.84 &#45; 2)&#45;&gt;COLLECTIVE_STRENGH</title>
<path fill="none" stroke="black" d="M264.186,-817.115C253.213,-807.107 239.454,-793.649 228.84,-780.271 184.206,-724.011 143.296,-649.739 123.089,-610.909"/>
<polygon fill="black" stroke="black" points="126.102,-609.116 118.408,-601.832 119.881,-612.324 126.102,-609.116"/>
</g>
<!-- RECALL -->
<g id="node5" class="node"><title>RECALL</title>
<ellipse fill="none" stroke="black" cx="282.84" cy="-583.696" rx="44.6926" ry="18"/>
<text text-anchor="middle" x="282.84" y="-579.996" font-family="Times,serif" font-size="14.00">RECALL</text>
</g>
<!-- n25 (0.84 &#45; 2)&#45;&gt;RECALL -->
<g id="edge4" class="edge"><title>n25 (0.84 &#45; 2)&#45;&gt;RECALL</title>
<path fill="none" stroke="black" d="M282.84,-816.186C282.84,-773.79 282.84,-663.484 282.84,-611.958"/>
<polygon fill="black" stroke="black" points="286.34,-611.901 282.84,-601.901 279.34,-611.901 286.34,-611.901"/>
</g>
<!-- KLOSGEN -->
<g id="node7" class="node"><title>KLOSGEN</title>
<ellipse fill="none" stroke="black" cx="397.84" cy="-583.696" rx="51.9908" ry="18"/>
<text text-anchor="middle" x="397.84" y="-579.996" font-family="Times,serif" font-size="14.00">KLOSGEN</text>
</g>
<!-- n30 (0.68 &#45; 3)&#45;&gt;KLOSGEN -->
<g id="edge6" class="edge"><title>n30 (0.68 &#45; 3)&#45;&gt;KLOSGEN</title>
<path fill="none" stroke="black" d="M469.548,-816.186C456.388,-773.702 422.103,-663.022 406.185,-611.635"/>
<polygon fill="black" stroke="black" points="409.472,-610.417 403.17,-601.901 402.786,-612.489 409.472,-610.417"/>
</g>
<!-- n24 (0.89 &#45; 2) -->
<g id="node8" class="node"><title>n24 (0.89 &#45; 2)</title>
<ellipse fill="none" stroke="black" cx="527.84" cy="-583.696" rx="59.5901" ry="18"/>
<text text-anchor="middle" x="527.84" y="-579.996" font-family="Times,serif" font-size="14.00">n24 (0.89 &#45; 2)</text>
</g>
<!-- n30 (0.68 &#45; 3)&#45;&gt;n24 (0.89 &#45; 2) -->
<g id="edge7" class="edge"><title>n30 (0.68 &#45; 3)&#45;&gt;n24 (0.89 &#45; 2)</title>
<path fill="none" stroke="black" d="M478.483,-816.186C487.522,-773.79 511.041,-663.484 522.028,-611.958"/>
<polygon fill="black" stroke="black" points="525.51,-612.411 524.172,-601.901 518.663,-610.951 525.51,-612.411"/>
</g>
<!-- PIATETSKY_SHAPIRO -->
<g id="node9" class="node"><title>PIATETSKY_SHAPIRO</title>
<ellipse fill="none" stroke="black" cx="464.84" cy="-333.12" rx="100.983" ry="18"/>
<text text-anchor="middle" x="464.84" y="-329.42" font-family="Times,serif" font-size="14.00">PIATETSKY_SHAPIRO</text>
</g>
<!-- n24 (0.89 &#45; 2)&#45;&gt;PIATETSKY_SHAPIRO -->
<g id="edge8" class="edge"><title>n24 (0.89 &#45; 2)&#45;&gt;PIATETSKY_SHAPIRO</title>
<path fill="none" stroke="black" d="M523.51,-565.61C512.743,-523.126 484.692,-412.446 471.668,-361.06"/>
<polygon fill="black" stroke="black" points="475.05,-360.159 469.201,-351.325 468.265,-361.878 475.05,-360.159"/>
</g>
<!-- SPECIFICITY -->
<g id="node10" class="node"><title>SPECIFICITY</title>
<ellipse fill="none" stroke="black" cx="646.84" cy="-333.12" rx="63.0888" ry="18"/>
<text text-anchor="middle" x="646.84" y="-329.42" font-family="Times,serif" font-size="14.00">SPECIFICITY</text>
</g>
<!-- n24 (0.89 &#45; 2)&#45;&gt;SPECIFICITY -->
<g id="edge9" class="edge"><title>n24 (0.89 &#45; 2)&#45;&gt;SPECIFICITY</title>
<path fill="none" stroke="black" d="M531.319,-565.7C539.061,-530.425 559.997,-447.52 596.84,-387.12 603.26,-376.596 612.038,-366.404 620.448,-357.816"/>
<polygon fill="black" stroke="black" points="622.996,-360.219 627.675,-350.714 618.089,-355.226 622.996,-360.219"/>
</g>
<!-- n31 (0.67 &#45; 11) -->
<g id="node12" class="node"><title>n31 (0.67 &#45; 11)</title>
<ellipse fill="none" stroke="black" cx="796.84" cy="-834.271" rx="64.189" ry="18"/>
<text text-anchor="middle" x="796.84" y="-830.571" font-family="Times,serif" font-size="14.00">n31 (0.67 &#45; 11)</text>
</g>
<!-- n33 (0.43 &#45; 31)&#45;&gt;n31 (0.67 &#45; 11) -->
<g id="edge11" class="edge"><title>n33 (0.43 &#45; 31)&#45;&gt;n31 (0.67 &#45; 11)</title>
<path fill="none" stroke="black" d="M796.84,-887.968C796.84,-880.254 796.84,-870.984 796.84,-862.384"/>
<polygon fill="black" stroke="black" points="800.34,-862.376 796.84,-852.376 793.34,-862.376 800.34,-862.376"/>
</g>
<!-- n27 (0.82 &#45; 20) -->
<g id="node23" class="node"><title>n27 (0.82 &#45; 20)</title>
<ellipse fill="none" stroke="black" cx="1094.84" cy="-834.271" rx="64.189" ry="18"/>
<text text-anchor="middle" x="1094.84" y="-830.571" font-family="Times,serif" font-size="14.00">n27 (0.82 &#45; 20)</text>
</g>
<!-- n33 (0.43 &#45; 31)&#45;&gt;n27 (0.82 &#45; 20) -->
<g id="edge22" class="edge"><title>n33 (0.43 &#45; 31)&#45;&gt;n27 (0.82 &#45; 20)</title>
<path fill="none" stroke="black" d="M844.389,-894.102C896.784,-881.794 981.054,-862 1037.18,-848.816"/>
<polygon fill="black" stroke="black" points="1038.03,-852.21 1046.97,-846.516 1036.43,-845.396 1038.03,-852.21"/>
</g>
<!-- TWO_WAY_SUPPORT -->
<g id="node13" class="node"><title>TWO_WAY_SUPPORT</title>
<ellipse fill="none" stroke="black" cx="705.84" cy="-583.696" rx="100.182" ry="18"/>
<text text-anchor="middle" x="705.84" y="-579.996" font-family="Times,serif" font-size="14.00">TWO_WAY_SUPPORT</text>
</g>
<!-- n31 (0.67 &#45; 11)&#45;&gt;TWO_WAY_SUPPORT -->
<g id="edge12" class="edge"><title>n31 (0.67 &#45; 11)&#45;&gt;TWO_WAY_SUPPORT</title>
<path fill="none" stroke="black" d="M790.585,-816.186C775,-773.613 734.345,-662.559 715.585,-611.314"/>
<polygon fill="black" stroke="black" points="718.863,-610.088 712.139,-601.901 712.29,-612.494 718.863,-610.088"/>
</g>
<!-- n29 (0.79 &#45; 10) -->
<g id="node14" class="node"><title>n29 (0.79 &#45; 10)</title>
<ellipse fill="none" stroke="black" cx="887.84" cy="-583.696" rx="64.189" ry="18"/>
<text text-anchor="middle" x="887.84" y="-579.996" font-family="Times,serif" font-size="14.00">n29 (0.79 &#45; 10)</text>
</g>
<!-- n31 (0.67 &#45; 11)&#45;&gt;n29 (0.79 &#45; 10) -->
<g id="edge13" class="edge"><title>n31 (0.67 &#45; 11)&#45;&gt;n29 (0.79 &#45; 10)</title>
<path fill="none" stroke="black" d="M803.095,-816.186C818.68,-773.613 859.335,-662.559 878.096,-611.314"/>
<polygon fill="black" stroke="black" points="881.391,-612.494 881.542,-601.901 874.817,-610.088 881.391,-612.494"/>
</g>
<!-- COSINE -->
<g id="node15" class="node"><title>COSINE</title>
<ellipse fill="none" stroke="black" cx="827.84" cy="-333.12" rx="42.4939" ry="18"/>
<text text-anchor="middle" x="827.84" y="-329.42" font-family="Times,serif" font-size="14.00">COSINE</text>
</g>
<!-- n29 (0.79 &#45; 10)&#45;&gt;COSINE -->
<g id="edge14" class="edge"><title>n29 (0.79 &#45; 10)&#45;&gt;COSINE</title>
<path fill="none" stroke="black" d="M883.716,-565.61C873.462,-523.126 846.746,-412.446 834.343,-361.06"/>
<polygon fill="black" stroke="black" points="837.742,-360.225 831.993,-351.325 830.937,-361.867 837.742,-360.225"/>
</g>
<!-- n28 (0.82 &#45; 9) -->
<g id="node16" class="node"><title>n28 (0.82 &#45; 9)</title>
<ellipse fill="none" stroke="black" cx="947.84" cy="-333.12" rx="59.5901" ry="18"/>
<text text-anchor="middle" x="947.84" y="-329.42" font-family="Times,serif" font-size="14.00">n28 (0.82 &#45; 9)</text>
</g>
<!-- n29 (0.79 &#45; 10)&#45;&gt;n28 (0.82 &#45; 9) -->
<g id="edge15" class="edge"><title>n29 (0.79 &#45; 10)&#45;&gt;n28 (0.82 &#45; 9)</title>
<path fill="none" stroke="black" d="M891.964,-565.61C902.219,-523.126 928.934,-412.446 941.338,-361.06"/>
<polygon fill="black" stroke="black" points="944.743,-361.867 943.687,-351.325 937.939,-360.225 944.743,-361.867"/>
</g>
<!-- IMPLICATION_INDEX\nPHI\nGINI\nCHI_SQUARE -->
<g id="node17" class="node"><title>IMPLICATION_INDEX\nPHI\nGINI\nCHI_SQUARE</title>
<ellipse fill="none" stroke="black" cx="853.84" cy="-231.037" rx="108.789" ry="48.1667"/>
<text text-anchor="middle" x="853.84" y="-249.837" font-family="Times,serif" font-size="14.00">IMPLICATION_INDEX</text>
<text text-anchor="middle" x="853.84" y="-234.837" font-family="Times,serif" font-size="14.00">PHI</text>
<text text-anchor="middle" x="853.84" y="-219.837" font-family="Times,serif" font-size="14.00">GINI</text>
<text text-anchor="middle" x="853.84" y="-204.837" font-family="Times,serif" font-size="14.00">CHI_SQUARE</text>
</g>
<!-- n28 (0.82 &#45; 9)&#45;&gt;IMPLICATION_INDEX\nPHI\nGINI\nCHI_SQUARE -->
<g id="edge16" class="edge"><title>n28 (0.82 &#45; 9)&#45;&gt;IMPLICATION_INDEX\nPHI\nGINI\nCHI_SQUARE</title>
<path fill="none" stroke="black" d="M932.318,-315.593C923.854,-306.581 912.87,-294.886 901.813,-283.114"/>
<polygon fill="black" stroke="black" points="904.339,-280.691 894.942,-275.798 899.237,-285.483 904.339,-280.691"/>
</g>
<!-- n26 (0.84 &#45; 5) -->
<g id="node18" class="node"><title>n26 (0.84 &#45; 5)</title>
<ellipse fill="none" stroke="black" cx="1040.84" cy="-231.037" rx="59.5901" ry="18"/>
<text text-anchor="middle" x="1040.84" y="-227.337" font-family="Times,serif" font-size="14.00">n26 (0.84 &#45; 5)</text>
</g>
<!-- n28 (0.82 &#45; 9)&#45;&gt;n26 (0.84 &#45; 5) -->
<g id="edge17" class="edge"><title>n28 (0.82 &#45; 9)&#45;&gt;n26 (0.84 &#45; 5)</title>
<path fill="none" stroke="black" d="M963.197,-315.593C978.275,-299.367 1001.44,-274.441 1018.54,-256.033"/>
<polygon fill="black" stroke="black" points="1021.22,-258.296 1025.46,-248.588 1016.09,-253.531 1021.22,-258.296"/>
</g>
<!-- n23 (0.89 &#45; 2) -->
<g id="node19" class="node"><title>n23 (0.89 &#45; 2)</title>
<ellipse fill="none" stroke="black" cx="918.84" cy="-109.477" rx="59.5901" ry="18"/>
<text text-anchor="middle" x="918.84" y="-105.777" font-family="Times,serif" font-size="14.00">n23 (0.89 &#45; 2)</text>
</g>
<!-- n26 (0.84 &#45; 5)&#45;&gt;n23 (0.89 &#45; 2) -->
<g id="edge18" class="edge"><title>n26 (0.84 &#45; 5)&#45;&gt;n23 (0.89 &#45; 2)</title>
<path fill="none" stroke="black" d="M1024.13,-213.663C1003.17,-193.119 967.063,-157.735 943.068,-134.22"/>
<polygon fill="black" stroke="black" points="945.33,-131.536 935.738,-127.036 940.43,-136.535 945.33,-131.536"/>
</g>
<!-- J_MEASURE\nTWO_WAY_SUPPORT_VARIATION\nFISHER_PVAL -->
<g id="node22" class="node"><title>J_MEASURE\nTWO_WAY_SUPPORT_VARIATION\nFISHER_PVAL</title>
<ellipse fill="none" stroke="black" cx="1163.84" cy="-109.477" rx="166.754" ry="37.4533"/>
<text text-anchor="middle" x="1163.84" y="-120.777" font-family="Times,serif" font-size="14.00">J_MEASURE</text>
<text text-anchor="middle" x="1163.84" y="-105.777" font-family="Times,serif" font-size="14.00">TWO_WAY_SUPPORT_VARIATION</text>
<text text-anchor="middle" x="1163.84" y="-90.7767" font-family="Times,serif" font-size="14.00">FISHER_PVAL</text>
</g>
<!-- n26 (0.84 &#45; 5)&#45;&gt;J_MEASURE\nTWO_WAY_SUPPORT_VARIATION\nFISHER_PVAL -->
<g id="edge21" class="edge"><title>n26 (0.84 &#45; 5)&#45;&gt;J_MEASURE\nTWO_WAY_SUPPORT_VARIATION\nFISHER_PVAL</title>
<path fill="none" stroke="black" d="M1057.68,-213.663C1073.58,-198.217 1098.1,-174.382 1119.57,-153.509"/>
<polygon fill="black" stroke="black" points="1122.29,-155.749 1127.02,-146.269 1117.41,-150.729 1122.29,-155.749"/>
</g>
<!-- JACCARD -->
<g id="node20" class="node"><title>JACCARD</title>
<ellipse fill="none" stroke="black" cx="864.84" cy="-18" rx="50.8918" ry="18"/>
<text text-anchor="middle" x="864.84" y="-14.3" font-family="Times,serif" font-size="14.00">JACCARD</text>
</g>
<!-- n23 (0.89 &#45; 2)&#45;&gt;JACCARD -->
<g id="edge19" class="edge"><title>n23 (0.89 &#45; 2)&#45;&gt;JACCARD</title>
<path fill="none" stroke="black" d="M908.683,-91.6468C900.688,-78.3993 889.413,-59.7159 880.299,-44.614"/>
<polygon fill="black" stroke="black" points="883.115,-42.5076 874.952,-35.7544 877.122,-46.1245 883.115,-42.5076"/>
</g>
<!-- KAPPA -->
<g id="node21" class="node"><title>KAPPA</title>
<ellipse fill="none" stroke="black" cx="972.84" cy="-18" rx="39.7935" ry="18"/>
<text text-anchor="middle" x="972.84" y="-14.3" font-family="Times,serif" font-size="14.00">KAPPA</text>
</g>
<!-- n23 (0.89 &#45; 2)&#45;&gt;KAPPA -->
<g id="edge20" class="edge"><title>n23 (0.89 &#45; 2)&#45;&gt;KAPPA</title>
<path fill="none" stroke="black" d="M928.997,-91.6468C937.043,-78.3154 948.411,-59.4792 957.555,-44.3277"/>
<polygon fill="black" stroke="black" points="960.741,-45.8222 962.911,-35.4521 954.748,-42.2053 960.741,-45.8222"/>
</g>
<!-- LEAST_CONTRADICTION\nACCURACY -->
<g id="node24" class="node"><title>LEAST_CONTRADICTION\nACCURACY</title>
<ellipse fill="none" stroke="black" cx="1094.84" cy="-583.696" rx="124.402" ry="26.7407"/>
<text text-anchor="middle" x="1094.84" y="-587.496" font-family="Times,serif" font-size="14.00">LEAST_CONTRADICTION</text>
<text text-anchor="middle" x="1094.84" y="-572.496" font-family="Times,serif" font-size="14.00">ACCURACY</text>
</g>
<!-- n27 (0.82 &#45; 20)&#45;&gt;LEAST_CONTRADICTION\nACCURACY -->
<g id="edge23" class="edge"><title>n27 (0.82 &#45; 20)&#45;&gt;LEAST_CONTRADICTION\nACCURACY</title>
<path fill="none" stroke="black" d="M1094.84,-816.186C1094.84,-776.081 1094.84,-675.205 1094.84,-620.804"/>
<polygon fill="black" stroke="black" points="1098.34,-620.576 1094.84,-610.576 1091.34,-620.576 1098.34,-620.576"/>
</g>
<!-- RELATIVE_RISK\nYULE_Y\nYULE_Q\nODDS_RATIO\nLEVERAGE\nONE_WAY_SUPPORT\nCONVICTION\nLOEVINGER\nSEBAG_SCHOENAUER\nODD_MULTIPLIER\nCOUNTER_EXAMPLE_RATE\nZHANG\nBAYES\nCENTERED_CONFIDENCE\nCERTAINTY_FACTOR\nADDED_VALUE\nLIFT\nCONFIDENCE -->
<g id="node25" class="node"><title>RELATIVE_RISK\nYULE_Y\nYULE_Q\nODDS_RATIO\nLEVERAGE\nONE_WAY_SUPPORT\nCONVICTION\nLOEVINGER\nSEBAG_SCHOENAUER\nODD_MULTIPLIER\nCOUNTER_EXAMPLE_RATE\nZHANG\nBAYES\nCENTERED_CONFIDENCE\nCERTAINTY_FACTOR\nADDED_VALUE\nLIFT\nCONFIDENCE</title>
<ellipse fill="none" stroke="black" cx="1374.84" cy="-583.696" rx="137.358" ry="196.651"/>
<text text-anchor="middle" x="1374.84" y="-707.496" font-family="Times,serif" font-size="14.00">RELATIVE_RISK</text>
<text text-anchor="middle" x="1374.84" y="-692.496" font-family="Times,serif" font-size="14.00">YULE_Y</text>
<text text-anchor="middle" x="1374.84" y="-677.496" font-family="Times,serif" font-size="14.00">YULE_Q</text>
<text text-anchor="middle" x="1374.84" y="-662.496" font-family="Times,serif" font-size="14.00">ODDS_RATIO</text>
<text text-anchor="middle" x="1374.84" y="-647.496" font-family="Times,serif" font-size="14.00">LEVERAGE</text>
<text text-anchor="middle" x="1374.84" y="-632.496" font-family="Times,serif" font-size="14.00">ONE_WAY_SUPPORT</text>
<text text-anchor="middle" x="1374.84" y="-617.496" font-family="Times,serif" font-size="14.00">CONVICTION</text>
<text text-anchor="middle" x="1374.84" y="-602.496" font-family="Times,serif" font-size="14.00">LOEVINGER</text>
<text text-anchor="middle" x="1374.84" y="-587.496" font-family="Times,serif" font-size="14.00">SEBAG_SCHOENAUER</text>
<text text-anchor="middle" x="1374.84" y="-572.496" font-family="Times,serif" font-size="14.00">ODD_MULTIPLIER</text>
<text text-anchor="middle" x="1374.84" y="-557.496" font-family="Times,serif" font-size="14.00">COUNTER_EXAMPLE_RATE</text>
<text text-anchor="middle" x="1374.84" y="-542.496" font-family="Times,serif" font-size="14.00">ZHANG</text>
<text text-anchor="middle" x="1374.84" y="-527.496" font-family="Times,serif" font-size="14.00">BAYES</text>
<text text-anchor="middle" x="1374.84" y="-512.496" font-family="Times,serif" font-size="14.00">CENTERED_CONFIDENCE</text>
<text text-anchor="middle" x="1374.84" y="-497.496" font-family="Times,serif" font-size="14.00">CERTAINTY_FACTOR</text>
<text text-anchor="middle" x="1374.84" y="-482.496" font-family="Times,serif" font-size="14.00">ADDED_VALUE</text>
<text text-anchor="middle" x="1374.84" y="-467.496" font-family="Times,serif" font-size="14.00">LIFT</text>
<text text-anchor="middle" x="1374.84" y="-452.496" font-family="Times,serif" font-size="14.00">CONFIDENCE</text>
</g>
<!-- n27 (0.82 &#45; 20)&#45;&gt;RELATIVE_RISK\nYULE_Y\nYULE_Q\nODDS_RATIO\nLEVERAGE\nONE_WAY_SUPPORT\nCONVICTION\nLOEVINGER\nSEBAG_SCHOENAUER\nODD_MULTIPLIER\nCOUNTER_EXAMPLE_RATE\nZHANG\nBAYES\nCENTERED_CONFIDENCE\nCERTAINTY_FACTOR\nADDED_VALUE\nLIFT\nCONFIDENCE -->
<g id="edge24" class="edge"><title>n27 (0.82 &#45; 20)&#45;&gt;RELATIVE_RISK\nYULE_Y\nYULE_Q\nODDS_RATIO\nLEVERAGE\nONE_WAY_SUPPORT\nCONVICTION\nLOEVINGER\nSEBAG_SCHOENAUER\nODD_MULTIPLIER\nCOUNTER_EXAMPLE_RATE\nZHANG\nBAYES\nCENTERED_CONFIDENCE\nCERTAINTY_FACTOR\nADDED_VALUE\nLIFT\nCONFIDENCE</title>
<path fill="none" stroke="black" d="M1141.13,-821.655C1168.27,-813.257 1202.17,-799.897 1227.84,-780.271 1244.67,-767.407 1260.51,-752.135 1275.13,-735.88"/>
<polygon fill="black" stroke="black" points="1277.78,-738.168 1281.75,-728.348 1272.52,-733.544 1277.78,-738.168"/>
</g>
</g>
</svg>
