<?xml version="1.0" encoding="UTF-8" standalone="no"?>
<!DOCTYPE svg PUBLIC "-//W3C//DTD SVG 1.1//EN"
 "http://www.w3.org/Graphics/SVG/1.1/DTD/svg11.dtd">
<!-- Generated by graphviz version 2.38.0 (20140413.2041)
 -->
<!-- Title: dendrogram Pages: 1 -->
<svg width="1945pt" height="972pt"
 viewBox="0.00 0.00 1945.26 971.62" xmlns="http://www.w3.org/2000/svg" xmlns:xlink="http://www.w3.org/1999/xlink">
<g id="graph0" class="graph" transform="scale(1 1) rotate(0) translate(4 967.619)">
<title>dendrogram</title>
<polygon fill="white" stroke="none" points="-4,4 -4,-967.619 1941.26,-967.619 1941.26,4 -4,4"/>
<!-- n34 (0.00 &#45; 36) -->
<g id="node1" class="node"><title>n34 (0.00 &#45; 36)</title>
<ellipse fill="none" stroke="black" cx="370.84" cy="-945.619" rx="64.189" ry="18"/>
<text text-anchor="middle" x="370.84" y="-941.919" font-family="Times,serif" font-size="14.00">n34 (0.00 &#45; 36)</text>
</g>
<!-- n26 (0.15 &#45; 2) -->
<g id="node2" class="node"><title>n26 (0.15 &#45; 2)</title>
<ellipse fill="none" stroke="black" cx="299.84" cy="-873.619" rx="59.5901" ry="18"/>
<text text-anchor="middle" x="299.84" y="-869.919" font-family="Times,serif" font-size="14.00">n26 (0.15 &#45; 2)</text>
</g>
<!-- n34 (0.00 &#45; 36)&#45;&gt;n26 (0.15 &#45; 2) -->
<g id="edge1" class="edge"><title>n34 (0.00 &#45; 36)&#45;&gt;n26 (0.15 &#45; 2)</title>
<path fill="none" stroke="black" d="M354.014,-928.03C344.995,-919.138 333.728,-908.03 323.809,-898.25"/>
<polygon fill="black" stroke="black" points="326.124,-895.618 316.545,-891.089 321.209,-900.602 326.124,-895.618"/>
</g>
<!-- n33 (0.00 &#45; 34) -->
<g id="node5" class="node"><title>n33 (0.00 &#45; 34)</title>
<ellipse fill="none" stroke="black" cx="441.84" cy="-873.619" rx="64.189" ry="18"/>
<text text-anchor="middle" x="441.84" y="-869.919" font-family="Times,serif" font-size="14.00">n33 (0.00 &#45; 34)</text>
</g>
<!-- n34 (0.00 &#45; 36)&#45;&gt;n33 (0.00 &#45; 34) -->
<g id="edge4" class="edge"><title>n34 (0.00 &#45; 36)&#45;&gt;n33 (0.00 &#45; 34)</title>
<path fill="none" stroke="black" d="M387.666,-928.03C396.685,-919.138 407.952,-908.03 417.872,-898.25"/>
<polygon fill="black" stroke="black" points="420.471,-900.602 425.135,-891.089 415.557,-895.618 420.471,-900.602"/>
</g>
<!-- COLLECTIVE_STRENGH -->
<g id="node3" class="node"><title>COLLECTIVE_STRENGH</title>
<ellipse fill="none" stroke="black" cx="109.84" cy="-801.619" rx="109.681" ry="18"/>
<text text-anchor="middle" x="109.84" y="-797.919" font-family="Times,serif" font-size="14.00">COLLECTIVE_STRENGH</text>
</g>
<!-- n26 (0.15 &#45; 2)&#45;&gt;COLLECTIVE_STRENGH -->
<g id="edge2" class="edge"><title>n26 (0.15 &#45; 2)&#45;&gt;COLLECTIVE_STRENGH</title>
<path fill="none" stroke="black" d="M263.655,-859.288C234.968,-848.719 194.485,-833.804 162.25,-821.928"/>
<polygon fill="black" stroke="black" points="163.127,-818.521 152.534,-818.349 160.707,-825.09 163.127,-818.521"/>
</g>
<!-- SPECIFICITY -->
<g id="node4" class="node"><title>SPECIFICITY</title>
<ellipse fill="none" stroke="black" cx="300.84" cy="-801.619" rx="63.0888" ry="18"/>
<text text-anchor="middle" x="300.84" y="-797.919" font-family="Times,serif" font-size="14.00">SPECIFICITY</text>
</g>
<!-- n26 (0.15 &#45; 2)&#45;&gt;SPECIFICITY -->
<g id="edge3" class="edge"><title>n26 (0.15 &#45; 2)&#45;&gt;SPECIFICITY</title>
<path fill="none" stroke="black" d="M300.087,-855.316C300.198,-847.602 300.33,-838.332 300.453,-829.732"/>
<polygon fill="black" stroke="black" points="303.953,-829.773 300.596,-819.724 296.953,-829.673 303.953,-829.773"/>
</g>
<!-- n27 (0.10 &#45; 9) -->
<g id="node6" class="node"><title>n27 (0.10 &#45; 9)</title>
<ellipse fill="none" stroke="black" cx="441.84" cy="-801.619" rx="59.5901" ry="18"/>
<text text-anchor="middle" x="441.84" y="-797.919" font-family="Times,serif" font-size="14.00">n27 (0.10 &#45; 9)</text>
</g>
<!-- n33 (0.00 &#45; 34)&#45;&gt;n27 (0.10 &#45; 9) -->
<g id="edge5" class="edge"><title>n33 (0.00 &#45; 34)&#45;&gt;n27 (0.10 &#45; 9)</title>
<path fill="none" stroke="black" d="M441.84,-855.316C441.84,-847.602 441.84,-838.332 441.84,-829.732"/>
<polygon fill="black" stroke="black" points="445.34,-829.724 441.84,-819.724 438.34,-829.724 445.34,-829.724"/>
</g>
<!-- n32 (0.00 &#45; 25) -->
<g id="node9" class="node"><title>n32 (0.00 &#45; 25)</title>
<ellipse fill="none" stroke="black" cx="618.84" cy="-801.619" rx="64.189" ry="18"/>
<text text-anchor="middle" x="618.84" y="-797.919" font-family="Times,serif" font-size="14.00">n32 (0.00 &#45; 25)</text>
</g>
<!-- n33 (0.00 &#45; 34)&#45;&gt;n32 (0.00 &#45; 25) -->
<g id="edge8" class="edge"><title>n33 (0.00 &#45; 34)&#45;&gt;n32 (0.00 &#45; 25)</title>
<path fill="none" stroke="black" d="M477.659,-858.454C505.46,-847.459 544.166,-832.152 574.02,-820.345"/>
<polygon fill="black" stroke="black" points="575.365,-823.577 583.377,-816.644 572.791,-817.067 575.365,-823.577"/>
</g>
<!-- ACCURACY -->
<g id="node7" class="node"><title>ACCURACY</title>
<ellipse fill="none" stroke="black" cx="268.84" cy="-657.11" rx="59.5901" ry="18"/>
<text text-anchor="middle" x="268.84" y="-653.41" font-family="Times,serif" font-size="14.00">ACCURACY</text>
</g>
<!-- n27 (0.10 &#45; 9)&#45;&gt;ACCURACY -->
<g id="edge6" class="edge"><title>n27 (0.10 &#45; 9)&#45;&gt;ACCURACY</title>
<path fill="none" stroke="black" d="M405.792,-786.967C384.615,-777.848 358.113,-764.443 337.84,-747.619 315.942,-729.447 296.71,-703.136 284.151,-683.741"/>
<polygon fill="black" stroke="black" points="286.999,-681.696 278.703,-675.106 281.079,-685.431 286.999,-681.696"/>
</g>
<!-- ODD_MULTIPLIER\nZHANG\nYULE_Y\nBAYES\nYULE_Q\nODDS_RATIO\nRELATIVE_RISK\nLIFT -->
<g id="node8" class="node"><title>ODD_MULTIPLIER\nZHANG\nYULE_Y\nBAYES\nYULE_Q\nODDS_RATIO\nRELATIVE_RISK\nLIFT</title>
<ellipse fill="none" stroke="black" cx="441.84" cy="-657.11" rx="94.5053" ry="90.5193"/>
<text text-anchor="middle" x="441.84" y="-705.91" font-family="Times,serif" font-size="14.00">ODD_MULTIPLIER</text>
<text text-anchor="middle" x="441.84" y="-690.91" font-family="Times,serif" font-size="14.00">ZHANG</text>
<text text-anchor="middle" x="441.84" y="-675.91" font-family="Times,serif" font-size="14.00">YULE_Y</text>
<text text-anchor="middle" x="441.84" y="-660.91" font-family="Times,serif" font-size="14.00">BAYES</text>
<text text-anchor="middle" x="441.84" y="-645.91" font-family="Times,serif" font-size="14.00">YULE_Q</text>
<text text-anchor="middle" x="441.84" y="-630.91" font-family="Times,serif" font-size="14.00">ODDS_RATIO</text>
<text text-anchor="middle" x="441.84" y="-615.91" font-family="Times,serif" font-size="14.00">RELATIVE_RISK</text>
<text text-anchor="middle" x="441.84" y="-600.91" font-family="Times,serif" font-size="14.00">LIFT</text>
</g>
<!-- n27 (0.10 &#45; 9)&#45;&gt;ODD_MULTIPLIER\nZHANG\nYULE_Y\nBAYES\nYULE_Q\nODDS_RATIO\nRELATIVE_RISK\nLIFT -->
<g id="edge7" class="edge"><title>n27 (0.10 &#45; 9)&#45;&gt;ODD_MULTIPLIER\nZHANG\nYULE_Y\nBAYES\nYULE_Q\nODDS_RATIO\nRELATIVE_RISK\nLIFT</title>
<path fill="none" stroke="black" d="M441.84,-783.429C441.84,-776.397 441.84,-767.659 441.84,-758.092"/>
<polygon fill="black" stroke="black" points="445.34,-757.858 441.84,-747.858 438.34,-757.858 445.34,-757.858"/>
</g>
<!-- n31 (0.00 &#45; 11) -->
<g id="node10" class="node"><title>n31 (0.00 &#45; 11)</title>
<ellipse fill="none" stroke="black" cx="618.84" cy="-657.11" rx="64.189" ry="18"/>
<text text-anchor="middle" x="618.84" y="-653.41" font-family="Times,serif" font-size="14.00">n31 (0.00 &#45; 11)</text>
</g>
<!-- n32 (0.00 &#45; 25)&#45;&gt;n31 (0.00 &#45; 11) -->
<g id="edge9" class="edge"><title>n32 (0.00 &#45; 25)&#45;&gt;n31 (0.00 &#45; 11)</title>
<path fill="none" stroke="black" d="M618.84,-783.429C618.84,-759.141 618.84,-714.522 618.84,-685.601"/>
<polygon fill="black" stroke="black" points="622.34,-685.361 618.84,-675.361 615.34,-685.361 622.34,-685.361"/>
</g>
<!-- n28 (0.03 &#45; 14) -->
<g id="node21" class="node"><title>n28 (0.03 &#45; 14)</title>
<ellipse fill="none" stroke="black" cx="899.84" cy="-657.11" rx="64.189" ry="18"/>
<text text-anchor="middle" x="899.84" y="-653.41" font-family="Times,serif" font-size="14.00">n28 (0.03 &#45; 14)</text>
</g>
<!-- n32 (0.00 &#45; 25)&#45;&gt;n28 (0.03 &#45; 14) -->
<g id="edge20" class="edge"><title>n32 (0.00 &#45; 25)&#45;&gt;n28 (0.03 &#45; 14)</title>
<path fill="none" stroke="black" d="M648.646,-785.503C699.757,-759.582 804.093,-706.668 860.891,-677.863"/>
<polygon fill="black" stroke="black" points="862.582,-680.93 869.917,-673.285 859.415,-674.687 862.582,-680.93"/>
</g>
<!-- LOEVINGER\nCONVICTION\nCERTAINTY_FACTOR -->
<g id="node11" class="node"><title>LOEVINGER\nCONVICTION\nCERTAINTY_FACTOR</title>
<ellipse fill="none" stroke="black" cx="432.84" cy="-493.123" rx="108.375" ry="37.4533"/>
<text text-anchor="middle" x="432.84" y="-504.423" font-family="Times,serif" font-size="14.00">LOEVINGER</text>
<text text-anchor="middle" x="432.84" y="-489.423" font-family="Times,serif" font-size="14.00">CONVICTION</text>
<text text-anchor="middle" x="432.84" y="-474.423" font-family="Times,serif" font-size="14.00">CERTAINTY_FACTOR</text>
</g>
<!-- n31 (0.00 &#45; 11)&#45;&gt;LOEVINGER\nCONVICTION\nCERTAINTY_FACTOR -->
<g id="edge10" class="edge"><title>n31 (0.00 &#45; 11)&#45;&gt;LOEVINGER\nCONVICTION\nCERTAINTY_FACTOR</title>
<path fill="none" stroke="black" d="M607.566,-639.26C594.28,-620.192 570.829,-588.894 545.84,-566.6 531.253,-553.586 514.093,-541.319 497.613,-530.707"/>
<polygon fill="black" stroke="black" points="499.398,-527.695 489.074,-525.313 495.66,-533.613 499.398,-527.695"/>
</g>
<!-- n30 (0.00 &#45; 8) -->
<g id="node12" class="node"><title>n30 (0.00 &#45; 8)</title>
<ellipse fill="none" stroke="black" cx="618.84" cy="-493.123" rx="59.5901" ry="18"/>
<text text-anchor="middle" x="618.84" y="-489.423" font-family="Times,serif" font-size="14.00">n30 (0.00 &#45; 8)</text>
</g>
<!-- n31 (0.00 &#45; 11)&#45;&gt;n30 (0.00 &#45; 8) -->
<g id="edge11" class="edge"><title>n31 (0.00 &#45; 11)&#45;&gt;n30 (0.00 &#45; 8)</title>
<path fill="none" stroke="black" d="M618.84,-639.081C618.84,-611.081 618.84,-555.081 618.84,-521.473"/>
<polygon fill="black" stroke="black" points="622.34,-521.412 618.84,-511.412 615.34,-521.412 622.34,-521.412"/>
</g>
<!-- n25 (0.20 &#45; 3) -->
<g id="node13" class="node"><title>n25 (0.20 &#45; 3)</title>
<ellipse fill="none" stroke="black" cx="480.84" cy="-392.777" rx="59.5901" ry="18"/>
<text text-anchor="middle" x="480.84" y="-389.077" font-family="Times,serif" font-size="14.00">n25 (0.20 &#45; 3)</text>
</g>
<!-- n30 (0.00 &#45; 8)&#45;&gt;n25 (0.20 &#45; 3) -->
<g id="edge12" class="edge"><title>n30 (0.00 &#45; 8)&#45;&gt;n25 (0.20 &#45; 3)</title>
<path fill="none" stroke="black" d="M596.668,-476.322C573.531,-459.834 537.094,-433.866 511.273,-415.465"/>
<polygon fill="black" stroke="black" points="513.132,-412.492 502.957,-409.539 509.07,-418.192 513.132,-412.492"/>
</g>
<!-- n29 (0.00 &#45; 5) -->
<g id="node18" class="node"><title>n29 (0.00 &#45; 5)</title>
<ellipse fill="none" stroke="black" cx="618.84" cy="-392.777" rx="59.5901" ry="18"/>
<text text-anchor="middle" x="618.84" y="-389.077" font-family="Times,serif" font-size="14.00">n29 (0.00 &#45; 5)</text>
</g>
<!-- n30 (0.00 &#45; 8)&#45;&gt;n29 (0.00 &#45; 5) -->
<g id="edge17" class="edge"><title>n30 (0.00 &#45; 8)&#45;&gt;n29 (0.00 &#45; 5)</title>
<path fill="none" stroke="black" d="M618.84,-474.993C618.84,-460.135 618.84,-438.366 618.84,-421.104"/>
<polygon fill="black" stroke="black" points="622.34,-421.041 618.84,-411.041 615.34,-421.041 622.34,-421.041"/>
</g>
<!-- ADDED_VALUE -->
<g id="node14" class="node"><title>ADDED_VALUE</title>
<ellipse fill="none" stroke="black" cx="331.84" cy="-281.823" rx="75.2868" ry="18"/>
<text text-anchor="middle" x="331.84" y="-278.123" font-family="Times,serif" font-size="14.00">ADDED_VALUE</text>
</g>
<!-- n25 (0.20 &#45; 3)&#45;&gt;ADDED_VALUE -->
<g id="edge13" class="edge"><title>n25 (0.20 &#45; 3)&#45;&gt;ADDED_VALUE</title>
<path fill="none" stroke="black" d="M459.174,-375.934C433.61,-357.24 390.945,-326.043 362.121,-304.965"/>
<polygon fill="black" stroke="black" points="364.157,-302.118 354.019,-299.041 360.025,-307.769 364.157,-302.118"/>
</g>
<!-- n18 (0.60 &#45; 2) -->
<g id="node15" class="node"><title>n18 (0.60 &#45; 2)</title>
<ellipse fill="none" stroke="black" cx="484.84" cy="-281.823" rx="59.5901" ry="18"/>
<text text-anchor="middle" x="484.84" y="-278.123" font-family="Times,serif" font-size="14.00">n18 (0.60 &#45; 2)</text>
</g>
<!-- n25 (0.20 &#45; 3)&#45;&gt;n18 (0.60 &#45; 2) -->
<g id="edge14" class="edge"><title>n25 (0.20 &#45; 3)&#45;&gt;n18 (0.60 &#45; 2)</title>
<path fill="none" stroke="black" d="M481.465,-374.753C482.099,-357.504 483.088,-330.546 483.832,-310.274"/>
<polygon fill="black" stroke="black" points="487.337,-310.209 484.206,-300.087 480.342,-309.952 487.337,-310.209"/>
</g>
<!-- ONE_WAY_SUPPORT -->
<g id="node16" class="node"><title>ONE_WAY_SUPPORT</title>
<ellipse fill="none" stroke="black" cx="368.84" cy="-179.74" rx="97.4827" ry="18"/>
<text text-anchor="middle" x="368.84" y="-176.04" font-family="Times,serif" font-size="14.00">ONE_WAY_SUPPORT</text>
</g>
<!-- n18 (0.60 &#45; 2)&#45;&gt;ONE_WAY_SUPPORT -->
<g id="edge15" class="edge"><title>n18 (0.60 &#45; 2)&#45;&gt;ONE_WAY_SUPPORT</title>
<path fill="none" stroke="black" d="M465.945,-264.521C447.045,-248.214 417.776,-222.961 396.311,-204.441"/>
<polygon fill="black" stroke="black" points="398.362,-201.588 388.504,-197.705 393.789,-206.888 398.362,-201.588"/>
</g>
<!-- CENTERED_CONFIDENCE -->
<g id="node17" class="node"><title>CENTERED_CONFIDENCE</title>
<ellipse fill="none" stroke="black" cx="600.84" cy="-179.74" rx="116.18" ry="18"/>
<text text-anchor="middle" x="600.84" y="-176.04" font-family="Times,serif" font-size="14.00">CENTERED_CONFIDENCE</text>
</g>
<!-- n18 (0.60 &#45; 2)&#45;&gt;CENTERED_CONFIDENCE -->
<g id="edge16" class="edge"><title>n18 (0.60 &#45; 2)&#45;&gt;CENTERED_CONFIDENCE</title>
<path fill="none" stroke="black" d="M503.736,-264.521C522.635,-248.214 551.904,-222.961 573.37,-204.441"/>
<polygon fill="black" stroke="black" points="575.892,-206.888 581.177,-197.705 571.319,-201.588 575.892,-206.888"/>
</g>
<!-- RECALL -->
<g id="node19" class="node"><title>RECALL</title>
<ellipse fill="none" stroke="black" cx="614.84" cy="-281.823" rx="44.6926" ry="18"/>
<text text-anchor="middle" x="614.84" y="-278.123" font-family="Times,serif" font-size="14.00">RECALL</text>
</g>
<!-- n29 (0.00 &#45; 5)&#45;&gt;RECALL -->
<g id="edge18" class="edge"><title>n29 (0.00 &#45; 5)&#45;&gt;RECALL</title>
<path fill="none" stroke="black" d="M618.215,-374.753C617.582,-357.504 616.592,-330.546 615.848,-310.274"/>
<polygon fill="black" stroke="black" points="619.339,-309.952 615.474,-300.087 612.343,-310.209 619.339,-309.952"/>
</g>
<!-- SEBAG_SCHOENAUER\nCOUNTER_EXAMPLE_RATE\nLEVERAGE\nCONFIDENCE -->
<g id="node20" class="node"><title>SEBAG_SCHOENAUER\nCOUNTER_EXAMPLE_RATE\nLEVERAGE\nCONFIDENCE</title>
<ellipse fill="none" stroke="black" cx="814.84" cy="-281.823" rx="137.358" ry="48.1667"/>
<text text-anchor="middle" x="814.84" y="-300.623" font-family="Times,serif" font-size="14.00">SEBAG_SCHOENAUER</text>
<text text-anchor="middle" x="814.84" y="-285.623" font-family="Times,serif" font-size="14.00">COUNTER_EXAMPLE_RATE</text>
<text text-anchor="middle" x="814.84" y="-270.623" font-family="Times,serif" font-size="14.00">LEVERAGE</text>
<text text-anchor="middle" x="814.84" y="-255.623" font-family="Times,serif" font-size="14.00">CONFIDENCE</text>
</g>
<!-- n29 (0.00 &#45; 5)&#45;&gt;SEBAG_SCHOENAUER\nCOUNTER_EXAMPLE_RATE\nLEVERAGE\nCONFIDENCE -->
<g id="edge19" class="edge"><title>n29 (0.00 &#45; 5)&#45;&gt;SEBAG_SCHOENAUER\nCOUNTER_EXAMPLE_RATE\nLEVERAGE\nCONFIDENCE</title>
<path fill="none" stroke="black" d="M646.093,-376.627C668.88,-363.96 702.594,-345.219 733.908,-327.812"/>
<polygon fill="black" stroke="black" points="735.626,-330.862 742.666,-322.944 732.225,-324.743 735.626,-330.862"/>
</g>
<!-- n23 (0.32 &#45; 3) -->
<g id="node22" class="node"><title>n23 (0.32 &#45; 3)</title>
<ellipse fill="none" stroke="black" cx="899.84" cy="-493.123" rx="59.5901" ry="18"/>
<text text-anchor="middle" x="899.84" y="-489.423" font-family="Times,serif" font-size="14.00">n23 (0.32 &#45; 3)</text>
</g>
<!-- n28 (0.03 &#45; 14)&#45;&gt;n23 (0.32 &#45; 3) -->
<g id="edge21" class="edge"><title>n28 (0.03 &#45; 14)&#45;&gt;n23 (0.32 &#45; 3)</title>
<path fill="none" stroke="black" d="M899.84,-639.081C899.84,-611.081 899.84,-555.081 899.84,-521.473"/>
<polygon fill="black" stroke="black" points="903.34,-521.412 899.84,-511.412 896.34,-521.412 903.34,-521.412"/>
</g>
<!-- n24 (0.21 &#45; 11) -->
<g id="node25" class="node"><title>n24 (0.21 &#45; 11)</title>
<ellipse fill="none" stroke="black" cx="1131.84" cy="-493.123" rx="64.189" ry="18"/>
<text text-anchor="middle" x="1131.84" y="-489.423" font-family="Times,serif" font-size="14.00">n24 (0.21 &#45; 11)</text>
</g>
<!-- n28 (0.03 &#45; 14)&#45;&gt;n24 (0.21 &#45; 11) -->
<g id="edge24" class="edge"><title>n28 (0.03 &#45; 14)&#45;&gt;n24 (0.21 &#45; 11)</title>
<path fill="none" stroke="black" d="M922.933,-639.986C964.798,-610.755 1053.25,-548.994 1100.52,-515.995"/>
<polygon fill="black" stroke="black" points="1102.64,-518.777 1108.84,-510.182 1098.64,-513.037 1102.64,-518.777"/>
</g>
<!-- LEAST_CONTRADICTION -->
<g id="node23" class="node"><title>LEAST_CONTRADICTION</title>
<ellipse fill="none" stroke="black" cx="810.84" cy="-392.777" rx="114.28" ry="18"/>
<text text-anchor="middle" x="810.84" y="-389.077" font-family="Times,serif" font-size="14.00">LEAST_CONTRADICTION</text>
</g>
<!-- n23 (0.32 &#45; 3)&#45;&gt;LEAST_CONTRADICTION -->
<g id="edge22" class="edge"><title>n23 (0.32 &#45; 3)&#45;&gt;LEAST_CONTRADICTION</title>
<path fill="none" stroke="black" d="M884.743,-475.44C870.636,-459.852 849.395,-436.38 833.3,-418.595"/>
<polygon fill="black" stroke="black" points="835.616,-415.938 826.311,-410.872 830.426,-420.635 835.616,-415.938"/>
</g>
<!-- COSINE\nJACCARD -->
<g id="node24" class="node"><title>COSINE\nJACCARD</title>
<ellipse fill="none" stroke="black" cx="998.84" cy="-392.777" rx="55.3091" ry="26.7407"/>
<text text-anchor="middle" x="998.84" y="-396.577" font-family="Times,serif" font-size="14.00">COSINE</text>
<text text-anchor="middle" x="998.84" y="-381.577" font-family="Times,serif" font-size="14.00">JACCARD</text>
</g>
<!-- n23 (0.32 &#45; 3)&#45;&gt;COSINE\nJACCARD -->
<g id="edge23" class="edge"><title>n23 (0.32 &#45; 3)&#45;&gt;COSINE\nJACCARD</title>
<path fill="none" stroke="black" d="M916.634,-475.44C930.603,-461.563 950.863,-441.438 967.773,-424.639"/>
<polygon fill="black" stroke="black" points="970.645,-426.719 975.273,-417.189 965.712,-421.753 970.645,-426.719"/>
</g>
<!-- n21 (0.45 &#45; 4) -->
<g id="node26" class="node"><title>n21 (0.45 &#45; 4)</title>
<ellipse fill="none" stroke="black" cx="1131.84" cy="-392.777" rx="59.5901" ry="18"/>
<text text-anchor="middle" x="1131.84" y="-389.077" font-family="Times,serif" font-size="14.00">n21 (0.45 &#45; 4)</text>
</g>
<!-- n24 (0.21 &#45; 11)&#45;&gt;n21 (0.45 &#45; 4) -->
<g id="edge25" class="edge"><title>n24 (0.21 &#45; 11)&#45;&gt;n21 (0.45 &#45; 4)</title>
<path fill="none" stroke="black" d="M1131.84,-474.993C1131.84,-460.135 1131.84,-438.366 1131.84,-421.104"/>
<polygon fill="black" stroke="black" points="1135.34,-421.041 1131.84,-411.041 1128.34,-421.041 1135.34,-421.041"/>
</g>
<!-- n22 (0.33 &#45; 7) -->
<g id="node33" class="node"><title>n22 (0.33 &#45; 7)</title>
<ellipse fill="none" stroke="black" cx="1269.84" cy="-392.777" rx="59.5901" ry="18"/>
<text text-anchor="middle" x="1269.84" y="-389.077" font-family="Times,serif" font-size="14.00">n22 (0.33 &#45; 7)</text>
</g>
<!-- n24 (0.21 &#45; 11)&#45;&gt;n22 (0.33 &#45; 7) -->
<g id="edge32" class="edge"><title>n24 (0.21 &#45; 11)&#45;&gt;n22 (0.33 &#45; 7)</title>
<path fill="none" stroke="black" d="M1154.32,-476.103C1177.38,-459.673 1213.4,-433.998 1239.09,-415.692"/>
<polygon fill="black" stroke="black" points="1241.26,-418.444 1247.37,-409.79 1237.2,-412.743 1241.26,-418.444"/>
</g>
<!-- GINI -->
<g id="node27" class="node"><title>GINI</title>
<ellipse fill="none" stroke="black" cx="1026.84" cy="-281.823" rx="29.4969" ry="18"/>
<text text-anchor="middle" x="1026.84" y="-278.123" font-family="Times,serif" font-size="14.00">GINI</text>
</g>
<!-- n21 (0.45 &#45; 4)&#45;&gt;GINI -->
<g id="edge26" class="edge"><title>n21 (0.45 &#45; 4)&#45;&gt;GINI</title>
<path fill="none" stroke="black" d="M1112.95,-375.664C1099.13,-363.565 1080.2,-346.324 1064.84,-329.907 1057.99,-322.583 1050.96,-314.174 1044.85,-306.508"/>
<polygon fill="black" stroke="black" points="1047.54,-304.273 1038.61,-298.566 1042.03,-308.594 1047.54,-304.273"/>
</g>
<!-- n20 (0.50 &#45; 3) -->
<g id="node28" class="node"><title>n20 (0.50 &#45; 3)</title>
<ellipse fill="none" stroke="black" cx="1133.84" cy="-281.823" rx="59.5901" ry="18"/>
<text text-anchor="middle" x="1133.84" y="-278.123" font-family="Times,serif" font-size="14.00">n20 (0.50 &#45; 3)</text>
</g>
<!-- n21 (0.45 &#45; 4)&#45;&gt;n20 (0.50 &#45; 3) -->
<g id="edge27" class="edge"><title>n21 (0.45 &#45; 4)&#45;&gt;n20 (0.50 &#45; 3)</title>
<path fill="none" stroke="black" d="M1132.15,-374.753C1132.47,-357.504 1132.96,-330.546 1133.34,-310.274"/>
<polygon fill="black" stroke="black" points="1136.84,-310.15 1133.52,-300.087 1129.84,-310.021 1136.84,-310.15"/>
</g>
<!-- IMPLICATION_INDEX -->
<g id="node29" class="node"><title>IMPLICATION_INDEX</title>
<ellipse fill="none" stroke="black" cx="965.84" cy="-179.74" rx="100.182" ry="18"/>
<text text-anchor="middle" x="965.84" y="-176.04" font-family="Times,serif" font-size="14.00">IMPLICATION_INDEX</text>
</g>
<!-- n20 (0.50 &#45; 3)&#45;&gt;IMPLICATION_INDEX -->
<g id="edge28" class="edge"><title>n20 (0.50 &#45; 3)&#45;&gt;IMPLICATION_INDEX</title>
<path fill="none" stroke="black" d="M1111.86,-264.938C1098.5,-255.505 1080.96,-243.516 1064.84,-233.74 1046.24,-222.462 1025.06,-210.95 1007.07,-201.548"/>
<polygon fill="black" stroke="black" points="1008.47,-198.333 997.981,-196.836 1005.25,-204.547 1008.47,-198.333"/>
</g>
<!-- n17 (0.70 &#45; 2) -->
<g id="node30" class="node"><title>n17 (0.70 &#45; 2)</title>
<ellipse fill="none" stroke="black" cx="1143.84" cy="-179.74" rx="59.5901" ry="18"/>
<text text-anchor="middle" x="1143.84" y="-176.04" font-family="Times,serif" font-size="14.00">n17 (0.70 &#45; 2)</text>
</g>
<!-- n20 (0.50 &#45; 3)&#45;&gt;n17 (0.70 &#45; 2) -->
<g id="edge29" class="edge"><title>n20 (0.50 &#45; 3)&#45;&gt;n17 (0.70 &#45; 2)</title>
<path fill="none" stroke="black" d="M1135.58,-263.39C1137.1,-248.178 1139.33,-225.845 1141.09,-208.227"/>
<polygon fill="black" stroke="black" points="1144.61,-208.272 1142.12,-197.974 1137.64,-207.576 1144.61,-208.272"/>
</g>
<!-- PIATETSKY_SHAPIRO -->
<g id="node31" class="node"><title>PIATETSKY_SHAPIRO</title>
<ellipse fill="none" stroke="black" cx="944.84" cy="-107.74" rx="100.983" ry="18"/>
<text text-anchor="middle" x="944.84" y="-104.04" font-family="Times,serif" font-size="14.00">PIATETSKY_SHAPIRO</text>
</g>
<!-- n17 (0.70 &#45; 2)&#45;&gt;PIATETSKY_SHAPIRO -->
<g id="edge30" class="edge"><title>n17 (0.70 &#45; 2)&#45;&gt;PIATETSKY_SHAPIRO</title>
<path fill="none" stroke="black" d="M1106.41,-165.574C1075.87,-154.832 1032.35,-139.522 998.167,-127.498"/>
<polygon fill="black" stroke="black" points="998.934,-124.058 988.339,-124.041 996.611,-130.661 998.934,-124.058"/>
</g>
<!-- TWO_WAY_SUPPORT -->
<g id="node32" class="node"><title>TWO_WAY_SUPPORT</title>
<ellipse fill="none" stroke="black" cx="1163.84" cy="-107.74" rx="100.182" ry="18"/>
<text text-anchor="middle" x="1163.84" y="-104.04" font-family="Times,serif" font-size="14.00">TWO_WAY_SUPPORT</text>
</g>
<!-- n17 (0.70 &#45; 2)&#45;&gt;TWO_WAY_SUPPORT -->
<g id="edge31" class="edge"><title>n17 (0.70 &#45; 2)&#45;&gt;TWO_WAY_SUPPORT</title>
<path fill="none" stroke="black" d="M1148.68,-161.795C1150.91,-154.001 1153.61,-144.562 1156.1,-135.819"/>
<polygon fill="black" stroke="black" points="1159.52,-136.592 1158.9,-126.015 1152.79,-134.669 1159.52,-136.592"/>
</g>
<!-- KLOSGEN -->
<g id="node34" class="node"><title>KLOSGEN</title>
<ellipse fill="none" stroke="black" cx="1267.84" cy="-281.823" rx="51.9908" ry="18"/>
<text text-anchor="middle" x="1267.84" y="-278.123" font-family="Times,serif" font-size="14.00">KLOSGEN</text>
</g>
<!-- n22 (0.33 &#45; 7)&#45;&gt;KLOSGEN -->
<g id="edge33" class="edge"><title>n22 (0.33 &#45; 7)&#45;&gt;KLOSGEN</title>
<path fill="none" stroke="black" d="M1269.53,-374.753C1269.21,-357.504 1268.72,-330.546 1268.34,-310.274"/>
<polygon fill="black" stroke="black" points="1271.84,-310.021 1268.16,-300.087 1264.84,-310.15 1271.84,-310.021"/>
</g>
<!-- n19 (0.51 &#45; 6) -->
<g id="node35" class="node"><title>n19 (0.51 &#45; 6)</title>
<ellipse fill="none" stroke="black" cx="1397.84" cy="-281.823" rx="59.5901" ry="18"/>
<text text-anchor="middle" x="1397.84" y="-278.123" font-family="Times,serif" font-size="14.00">n19 (0.51 &#45; 6)</text>
</g>
<!-- n22 (0.33 &#45; 7)&#45;&gt;n19 (0.51 &#45; 6) -->
<g id="edge34" class="edge"><title>n22 (0.33 &#45; 7)&#45;&gt;n19 (0.51 &#45; 6)</title>
<path fill="none" stroke="black" d="M1289,-375.465C1310.68,-357.011 1346.16,-326.816 1370.68,-305.939"/>
<polygon fill="black" stroke="black" points="1373.2,-308.393 1378.55,-299.246 1368.66,-303.063 1373.2,-308.393"/>
</g>
<!-- KAPPA -->
<g id="node36" class="node"><title>KAPPA</title>
<ellipse fill="none" stroke="black" cx="1338.84" cy="-179.74" rx="39.7935" ry="18"/>
<text text-anchor="middle" x="1338.84" y="-176.04" font-family="Times,serif" font-size="14.00">KAPPA</text>
</g>
<!-- n19 (0.51 &#45; 6)&#45;&gt;KAPPA -->
<g id="edge35" class="edge"><title>n19 (0.51 &#45; 6)&#45;&gt;KAPPA</title>
<path fill="none" stroke="black" d="M1387.83,-263.846C1378.54,-248.078 1364.57,-224.384 1353.92,-206.325"/>
<polygon fill="black" stroke="black" points="1356.79,-204.304 1348.7,-197.467 1350.76,-207.859 1356.79,-204.304"/>
</g>
<!-- n16 (0.70 &#45; 5) -->
<g id="node37" class="node"><title>n16 (0.70 &#45; 5)</title>
<ellipse fill="none" stroke="black" cx="1455.84" cy="-179.74" rx="59.5901" ry="18"/>
<text text-anchor="middle" x="1455.84" y="-176.04" font-family="Times,serif" font-size="14.00">n16 (0.70 &#45; 5)</text>
</g>
<!-- n19 (0.51 &#45; 6)&#45;&gt;n16 (0.70 &#45; 5) -->
<g id="edge36" class="edge"><title>n19 (0.51 &#45; 6)&#45;&gt;n16 (0.70 &#45; 5)</title>
<path fill="none" stroke="black" d="M1407.68,-263.846C1416.76,-248.173 1430.38,-224.67 1440.82,-206.652"/>
<polygon fill="black" stroke="black" points="1443.97,-208.208 1445.95,-197.801 1437.91,-204.698 1443.97,-208.208"/>
</g>
<!-- n15 (0.80 &#45; 2) -->
<g id="node38" class="node"><title>n15 (0.80 &#45; 2)</title>
<ellipse fill="none" stroke="black" cx="1382.84" cy="-107.74" rx="59.5901" ry="18"/>
<text text-anchor="middle" x="1382.84" y="-104.04" font-family="Times,serif" font-size="14.00">n15 (0.80 &#45; 2)</text>
</g>
<!-- n16 (0.70 &#45; 5)&#45;&gt;n15 (0.80 &#45; 2) -->
<g id="edge37" class="edge"><title>n16 (0.70 &#45; 5)&#45;&gt;n15 (0.80 &#45; 2)</title>
<path fill="none" stroke="black" d="M1438.54,-162.151C1429.27,-153.259 1417.68,-142.151 1407.48,-132.371"/>
<polygon fill="black" stroke="black" points="1409.66,-129.605 1400.02,-125.21 1404.81,-134.658 1409.66,-129.605"/>
</g>
<!-- n14 (0.80 &#45; 3) -->
<g id="node41" class="node"><title>n14 (0.80 &#45; 3)</title>
<ellipse fill="none" stroke="black" cx="1622.84" cy="-107.74" rx="59.5901" ry="18"/>
<text text-anchor="middle" x="1622.84" y="-104.04" font-family="Times,serif" font-size="14.00">n14 (0.80 &#45; 3)</text>
</g>
<!-- n16 (0.70 &#45; 5)&#45;&gt;n14 (0.80 &#45; 3) -->
<g id="edge40" class="edge"><title>n16 (0.70 &#45; 5)&#45;&gt;n14 (0.80 &#45; 3)</title>
<path fill="none" stroke="black" d="M1489.23,-164.743C1515.4,-153.774 1551.99,-138.438 1580.26,-126.587"/>
<polygon fill="black" stroke="black" points="1581.64,-129.807 1589.5,-122.713 1578.93,-123.351 1581.64,-129.807"/>
</g>
<!-- PHI -->
<g id="node39" class="node"><title>PHI</title>
<ellipse fill="none" stroke="black" cx="1269.84" cy="-26.8701" rx="27" ry="18"/>
<text text-anchor="middle" x="1269.84" y="-23.1701" font-family="Times,serif" font-size="14.00">PHI</text>
</g>
<!-- n15 (0.80 &#45; 2)&#45;&gt;PHI -->
<g id="edge38" class="edge"><title>n15 (0.80 &#45; 2)&#45;&gt;PHI</title>
<path fill="none" stroke="black" d="M1359.84,-91.0912C1344.5,-80.602 1323.89,-66.4376 1305.84,-53.7401 1302.54,-51.4155 1299.07,-48.9564 1295.65,-46.5156"/>
<polygon fill="black" stroke="black" points="1297.53,-43.5568 1287.37,-40.5734 1293.45,-49.2453 1297.53,-43.5568"/>
</g>
<!-- FISHER_PVAL -->
<g id="node40" class="node"><title>FISHER_PVAL</title>
<ellipse fill="none" stroke="black" cx="1382.84" cy="-26.8701" rx="68.4888" ry="18"/>
<text text-anchor="middle" x="1382.84" y="-23.1701" font-family="Times,serif" font-size="14.00">FISHER_PVAL</text>
</g>
<!-- n15 (0.80 &#45; 2)&#45;&gt;FISHER_PVAL -->
<g id="edge39" class="edge"><title>n15 (0.80 &#45; 2)&#45;&gt;FISHER_PVAL</title>
<path fill="none" stroke="black" d="M1382.84,-89.6265C1382.84,-79.6013 1382.84,-66.7063 1382.84,-55.2947"/>
<polygon fill="black" stroke="black" points="1386.34,-54.9503 1382.84,-44.9503 1379.34,-54.9503 1386.34,-54.9503"/>
</g>
<!-- TWO_WAY_SUPPORT_VARIATION -->
<g id="node42" class="node"><title>TWO_WAY_SUPPORT_VARIATION</title>
<ellipse fill="none" stroke="black" cx="1622.84" cy="-26.8701" rx="153.273" ry="18"/>
<text text-anchor="middle" x="1622.84" y="-23.1701" font-family="Times,serif" font-size="14.00">TWO_WAY_SUPPORT_VARIATION</text>
</g>
<!-- n14 (0.80 &#45; 3)&#45;&gt;TWO_WAY_SUPPORT_VARIATION -->
<g id="edge41" class="edge"><title>n14 (0.80 &#45; 3)&#45;&gt;TWO_WAY_SUPPORT_VARIATION</title>
<path fill="none" stroke="black" d="M1622.84,-89.6265C1622.84,-79.6013 1622.84,-66.7063 1622.84,-55.2947"/>
<polygon fill="black" stroke="black" points="1626.34,-54.9503 1622.84,-44.9503 1619.34,-54.9503 1626.34,-54.9503"/>
</g>
<!-- J_MEASURE\nCHI_SQUARE -->
<g id="node43" class="node"><title>J_MEASURE\nCHI_SQUARE</title>
<ellipse fill="none" stroke="black" cx="1865.84" cy="-26.8701" rx="71.3357" ry="26.7407"/>
<text text-anchor="middle" x="1865.84" y="-30.6701" font-family="Times,serif" font-size="14.00">J_MEASURE</text>
<text text-anchor="middle" x="1865.84" y="-15.6701" font-family="Times,serif" font-size="14.00">CHI_SQUARE</text>
</g>
<!-- n14 (0.80 &#45; 3)&#45;&gt;J_MEASURE\nCHI_SQUARE -->
<g id="edge42" class="edge"><title>n14 (0.80 &#45; 3)&#45;&gt;J_MEASURE\nCHI_SQUARE</title>
<path fill="none" stroke="black" d="M1661.88,-94.0683C1700,-81.6951 1758.63,-62.6664 1803.26,-48.1805"/>
<polygon fill="black" stroke="black" points="1804.42,-51.4858 1812.85,-45.0696 1802.26,-44.8277 1804.42,-51.4858"/>
</g>
</g>
</svg>
