<?xml version="1.0" encoding="UTF-8" standalone="no"?>
<!DOCTYPE svg PUBLIC "-//W3C//DTD SVG 1.1//EN"
 "http://www.w3.org/Graphics/SVG/1.1/DTD/svg11.dtd">
<!-- Generated by graphviz version 2.38.0 (20140413.2041)
 -->
<!-- Title: dendrogram Pages: 1 -->
<svg width="953pt" height="852pt"
 viewBox="0.00 0.00 953.02 851.91" xmlns="http://www.w3.org/2000/svg" xmlns:xlink="http://www.w3.org/1999/xlink">
<g id="graph0" class="graph" transform="scale(1 1) rotate(0) translate(4 847.911)">
<title>dendrogram</title>
<polygon fill="white" stroke="none" points="-4,4 -4,-847.911 949.019,-847.911 949.019,4 -4,4"/>
<!-- n34 (0.01 &#45; 36) -->
<g id="node1" class="node"><title>n34 (0.01 &#45; 36)</title>
<ellipse fill="none" stroke="black" cx="391.84" cy="-825.911" rx="64.189" ry="18"/>
<text text-anchor="middle" x="391.84" y="-822.211" font-family="Times,serif" font-size="14.00">n34 (0.01 &#45; 36)</text>
</g>
<!-- n32 (0.59 &#45; 3) -->
<g id="node2" class="node"><title>n32 (0.59 &#45; 3)</title>
<ellipse fill="none" stroke="black" cx="292.84" cy="-753.911" rx="59.5901" ry="18"/>
<text text-anchor="middle" x="292.84" y="-750.211" font-family="Times,serif" font-size="14.00">n32 (0.59 &#45; 3)</text>
</g>
<!-- n34 (0.01 &#45; 36)&#45;&gt;n32 (0.59 &#45; 3) -->
<g id="edge1" class="edge"><title>n34 (0.01 &#45; 36)&#45;&gt;n32 (0.59 &#45; 3)</title>
<path fill="none" stroke="black" d="M369.376,-809.027C355.832,-799.45 338.393,-787.12 323.583,-776.648"/>
<polygon fill="black" stroke="black" points="325.402,-773.648 315.216,-770.732 321.36,-779.363 325.402,-773.648"/>
</g>
<!-- n33 (0.45 &#45; 33) -->
<g id="node5" class="node"><title>n33 (0.45 &#45; 33)</title>
<ellipse fill="none" stroke="black" cx="490.84" cy="-753.911" rx="64.189" ry="18"/>
<text text-anchor="middle" x="490.84" y="-750.211" font-family="Times,serif" font-size="14.00">n33 (0.45 &#45; 33)</text>
</g>
<!-- n34 (0.01 &#45; 36)&#45;&gt;n33 (0.45 &#45; 33) -->
<g id="edge4" class="edge"><title>n34 (0.01 &#45; 36)&#45;&gt;n33 (0.45 &#45; 33)</title>
<path fill="none" stroke="black" d="M414.305,-809.027C427.753,-799.518 445.042,-787.293 459.784,-776.869"/>
<polygon fill="black" stroke="black" points="461.977,-779.605 468.122,-770.974 457.936,-773.89 461.977,-779.605"/>
</g>
<!-- COLLECTIVE_STRENGH -->
<g id="node3" class="node"><title>COLLECTIVE_STRENGH</title>
<ellipse fill="none" stroke="black" cx="109.84" cy="-673.041" rx="109.681" ry="18"/>
<text text-anchor="middle" x="109.84" y="-669.341" font-family="Times,serif" font-size="14.00">COLLECTIVE_STRENGH</text>
</g>
<!-- n32 (0.59 &#45; 3)&#45;&gt;COLLECTIVE_STRENGH -->
<g id="edge2" class="edge"><title>n32 (0.59 &#45; 3)&#45;&gt;COLLECTIVE_STRENGH</title>
<path fill="none" stroke="black" d="M260.124,-738.81C231.21,-726.349 188.717,-708.035 156.286,-694.058"/>
<polygon fill="black" stroke="black" points="157.567,-690.799 146.999,-690.055 154.797,-697.228 157.567,-690.799"/>
</g>
<!-- JACCARD\nRECALL -->
<g id="node4" class="node"><title>JACCARD\nRECALL</title>
<ellipse fill="none" stroke="black" cx="292.84" cy="-673.041" rx="55.3091" ry="26.7407"/>
<text text-anchor="middle" x="292.84" y="-676.841" font-family="Times,serif" font-size="14.00">JACCARD</text>
<text text-anchor="middle" x="292.84" y="-661.841" font-family="Times,serif" font-size="14.00">RECALL</text>
</g>
<!-- n32 (0.59 &#45; 3)&#45;&gt;JACCARD\nRECALL -->
<g id="edge3" class="edge"><title>n32 (0.59 &#45; 3)&#45;&gt;JACCARD\nRECALL</title>
<path fill="none" stroke="black" d="M292.84,-735.797C292.84,-728.308 292.84,-719.216 292.84,-710.339"/>
<polygon fill="black" stroke="black" points="296.34,-710.124 292.84,-700.124 289.34,-710.124 296.34,-710.124"/>
</g>
<!-- LEAST_CONTRADICTION\nACCURACY -->
<g id="node6" class="node"><title>LEAST_CONTRADICTION\nACCURACY</title>
<ellipse fill="none" stroke="black" cx="490.84" cy="-673.041" rx="124.402" ry="26.7407"/>
<text text-anchor="middle" x="490.84" y="-676.841" font-family="Times,serif" font-size="14.00">LEAST_CONTRADICTION</text>
<text text-anchor="middle" x="490.84" y="-661.841" font-family="Times,serif" font-size="14.00">ACCURACY</text>
</g>
<!-- n33 (0.45 &#45; 33)&#45;&gt;LEAST_CONTRADICTION\nACCURACY -->
<g id="edge5" class="edge"><title>n33 (0.45 &#45; 33)&#45;&gt;LEAST_CONTRADICTION\nACCURACY</title>
<path fill="none" stroke="black" d="M490.84,-735.797C490.84,-728.308 490.84,-719.216 490.84,-710.339"/>
<polygon fill="black" stroke="black" points="494.34,-710.124 490.84,-700.124 487.34,-710.124 494.34,-710.124"/>
</g>
<!-- n31 (0.75 &#45; 31) -->
<g id="node7" class="node"><title>n31 (0.75 &#45; 31)</title>
<ellipse fill="none" stroke="black" cx="697.84" cy="-673.041" rx="64.189" ry="18"/>
<text text-anchor="middle" x="697.84" y="-669.341" font-family="Times,serif" font-size="14.00">n31 (0.75 &#45; 31)</text>
</g>
<!-- n33 (0.45 &#45; 33)&#45;&gt;n31 (0.75 &#45; 31) -->
<g id="edge6" class="edge"><title>n33 (0.45 &#45; 33)&#45;&gt;n31 (0.75 &#45; 31)</title>
<path fill="none" stroke="black" d="M527.371,-738.992C561.998,-725.799 614.151,-705.928 651.649,-691.64"/>
<polygon fill="black" stroke="black" points="653.228,-694.784 661.327,-687.953 650.736,-688.243 653.228,-694.784"/>
</g>
<!-- n30 (0.89 &#45; 13) -->
<g id="node8" class="node"><title>n30 (0.89 &#45; 13)</title>
<ellipse fill="none" stroke="black" cx="587.84" cy="-413.595" rx="64.189" ry="18"/>
<text text-anchor="middle" x="587.84" y="-409.895" font-family="Times,serif" font-size="14.00">n30 (0.89 &#45; 13)</text>
</g>
<!-- n31 (0.75 &#45; 31)&#45;&gt;n30 (0.89 &#45; 13) -->
<g id="edge7" class="edge"><title>n31 (0.75 &#45; 31)&#45;&gt;n30 (0.89 &#45; 13)</title>
<path fill="none" stroke="black" d="M686.971,-655.119C679.385,-642.91 669.319,-625.879 661.84,-610.171 634.024,-551.747 609.069,-479.869 596.476,-441.594"/>
<polygon fill="black" stroke="black" points="599.687,-440.152 593.259,-431.729 593.031,-442.321 599.687,-440.152"/>
</g>
<!-- RELATIVE_RISK\nYULE_Y\nYULE_Q\nODDS_RATIO\nLEVERAGE\nONE_WAY_SUPPORT\nODD_MULTIPLIER\nLOEVINGER\nSEBAG_SCHOENAUER\nCONVICTION\nCOUNTER_EXAMPLE_RATE\nZHANG\nBAYES\nCENTERED_CONFIDENCE\nCERTAINTY_FACTOR\nADDED_VALUE\nLIFT\nCONFIDENCE -->
<g id="node11" class="node"><title>RELATIVE_RISK\nYULE_Y\nYULE_Q\nODDS_RATIO\nLEVERAGE\nONE_WAY_SUPPORT\nODD_MULTIPLIER\nLOEVINGER\nSEBAG_SCHOENAUER\nCONVICTION\nCOUNTER_EXAMPLE_RATE\nZHANG\nBAYES\nCENTERED_CONFIDENCE\nCERTAINTY_FACTOR\nADDED_VALUE\nLIFT\nCONFIDENCE</title>
<ellipse fill="none" stroke="black" cx="807.84" cy="-413.595" rx="137.358" ry="196.651"/>
<text text-anchor="middle" x="807.84" y="-537.395" font-family="Times,serif" font-size="14.00">RELATIVE_RISK</text>
<text text-anchor="middle" x="807.84" y="-522.395" font-family="Times,serif" font-size="14.00">YULE_Y</text>
<text text-anchor="middle" x="807.84" y="-507.395" font-family="Times,serif" font-size="14.00">YULE_Q</text>
<text text-anchor="middle" x="807.84" y="-492.395" font-family="Times,serif" font-size="14.00">ODDS_RATIO</text>
<text text-anchor="middle" x="807.84" y="-477.395" font-family="Times,serif" font-size="14.00">LEVERAGE</text>
<text text-anchor="middle" x="807.84" y="-462.395" font-family="Times,serif" font-size="14.00">ONE_WAY_SUPPORT</text>
<text text-anchor="middle" x="807.84" y="-447.395" font-family="Times,serif" font-size="14.00">ODD_MULTIPLIER</text>
<text text-anchor="middle" x="807.84" y="-432.395" font-family="Times,serif" font-size="14.00">LOEVINGER</text>
<text text-anchor="middle" x="807.84" y="-417.395" font-family="Times,serif" font-size="14.00">SEBAG_SCHOENAUER</text>
<text text-anchor="middle" x="807.84" y="-402.395" font-family="Times,serif" font-size="14.00">CONVICTION</text>
<text text-anchor="middle" x="807.84" y="-387.395" font-family="Times,serif" font-size="14.00">COUNTER_EXAMPLE_RATE</text>
<text text-anchor="middle" x="807.84" y="-372.395" font-family="Times,serif" font-size="14.00">ZHANG</text>
<text text-anchor="middle" x="807.84" y="-357.395" font-family="Times,serif" font-size="14.00">BAYES</text>
<text text-anchor="middle" x="807.84" y="-342.395" font-family="Times,serif" font-size="14.00">CENTERED_CONFIDENCE</text>
<text text-anchor="middle" x="807.84" y="-327.395" font-family="Times,serif" font-size="14.00">CERTAINTY_FACTOR</text>
<text text-anchor="middle" x="807.84" y="-312.395" font-family="Times,serif" font-size="14.00">ADDED_VALUE</text>
<text text-anchor="middle" x="807.84" y="-297.395" font-family="Times,serif" font-size="14.00">LIFT</text>
<text text-anchor="middle" x="807.84" y="-282.395" font-family="Times,serif" font-size="14.00">CONFIDENCE</text>
</g>
<!-- n31 (0.75 &#45; 31)&#45;&gt;RELATIVE_RISK\nYULE_Y\nYULE_Q\nODDS_RATIO\nLEVERAGE\nONE_WAY_SUPPORT\nODD_MULTIPLIER\nLOEVINGER\nSEBAG_SCHOENAUER\nCONVICTION\nCOUNTER_EXAMPLE_RATE\nZHANG\nBAYES\nCENTERED_CONFIDENCE\nCERTAINTY_FACTOR\nADDED_VALUE\nLIFT\nCONFIDENCE -->
<g id="edge10" class="edge"><title>n31 (0.75 &#45; 31)&#45;&gt;RELATIVE_RISK\nYULE_Y\nYULE_Q\nODDS_RATIO\nLEVERAGE\nONE_WAY_SUPPORT\nODD_MULTIPLIER\nLOEVINGER\nSEBAG_SCHOENAUER\nCONVICTION\nCOUNTER_EXAMPLE_RATE\nZHANG\nBAYES\nCENTERED_CONFIDENCE\nCERTAINTY_FACTOR\nADDED_VALUE\nLIFT\nCONFIDENCE</title>
<path fill="none" stroke="black" d="M705.058,-655.149C711.364,-640.389 721.246,-617.261 732.442,-591.059"/>
<polygon fill="black" stroke="black" points="735.742,-592.242 736.453,-581.671 729.305,-589.492 735.742,-592.242"/>
</g>
<!-- PIATETSKY_SHAPIRO\nSPECIFICITY\nKAPPA\nTWO_WAY_SUPPORT\nCOSINE -->
<g id="node9" class="node"><title>PIATETSKY_SHAPIRO\nSPECIFICITY\nKAPPA\nTWO_WAY_SUPPORT\nCOSINE</title>
<ellipse fill="none" stroke="black" cx="440.84" cy="-90.5097" rx="109.703" ry="58.8803"/>
<text text-anchor="middle" x="440.84" y="-116.81" font-family="Times,serif" font-size="14.00">PIATETSKY_SHAPIRO</text>
<text text-anchor="middle" x="440.84" y="-101.81" font-family="Times,serif" font-size="14.00">SPECIFICITY</text>
<text text-anchor="middle" x="440.84" y="-86.8097" font-family="Times,serif" font-size="14.00">KAPPA</text>
<text text-anchor="middle" x="440.84" y="-71.8097" font-family="Times,serif" font-size="14.00">TWO_WAY_SUPPORT</text>
<text text-anchor="middle" x="440.84" y="-56.8097" font-family="Times,serif" font-size="14.00">COSINE</text>
</g>
<!-- n30 (0.89 &#45; 13)&#45;&gt;PIATETSKY_SHAPIRO\nSPECIFICITY\nKAPPA\nTWO_WAY_SUPPORT\nCOSINE -->
<g id="edge8" class="edge"><title>n30 (0.89 &#45; 13)&#45;&gt;PIATETSKY_SHAPIRO\nSPECIFICITY\nKAPPA\nTWO_WAY_SUPPORT\nCOSINE</title>
<path fill="none" stroke="black" d="M579.937,-395.332C559.72,-351.174 505.296,-232.298 470.826,-157.006"/>
<polygon fill="black" stroke="black" points="473.862,-155.229 466.517,-147.593 467.497,-158.143 473.862,-155.229"/>
</g>
<!-- KLOSGEN\nFISHER_PVAL\nTWO_WAY_SUPPORT_VARIATION\nJ_MEASURE\nGINI\nCHI_SQUARE\nPHI\nIMPLICATION_INDEX -->
<g id="node10" class="node"><title>KLOSGEN\nFISHER_PVAL\nTWO_WAY_SUPPORT_VARIATION\nJ_MEASURE\nGINI\nCHI_SQUARE\nPHI\nIMPLICATION_INDEX</title>
<ellipse fill="none" stroke="black" cx="734.84" cy="-90.5097" rx="166.754" ry="90.5193"/>
<text text-anchor="middle" x="734.84" y="-139.31" font-family="Times,serif" font-size="14.00">KLOSGEN</text>
<text text-anchor="middle" x="734.84" y="-124.31" font-family="Times,serif" font-size="14.00">FISHER_PVAL</text>
<text text-anchor="middle" x="734.84" y="-109.31" font-family="Times,serif" font-size="14.00">TWO_WAY_SUPPORT_VARIATION</text>
<text text-anchor="middle" x="734.84" y="-94.3097" font-family="Times,serif" font-size="14.00">J_MEASURE</text>
<text text-anchor="middle" x="734.84" y="-79.3097" font-family="Times,serif" font-size="14.00">GINI</text>
<text text-anchor="middle" x="734.84" y="-64.3097" font-family="Times,serif" font-size="14.00">CHI_SQUARE</text>
<text text-anchor="middle" x="734.84" y="-49.3097" font-family="Times,serif" font-size="14.00">PHI</text>
<text text-anchor="middle" x="734.84" y="-34.3097" font-family="Times,serif" font-size="14.00">IMPLICATION_INDEX</text>
</g>
<!-- n30 (0.89 &#45; 13)&#45;&gt;KLOSGEN\nFISHER_PVAL\nTWO_WAY_SUPPORT_VARIATION\nJ_MEASURE\nGINI\nCHI_SQUARE\nPHI\nIMPLICATION_INDEX -->
<g id="edge9" class="edge"><title>n30 (0.89 &#45; 13)&#45;&gt;KLOSGEN\nFISHER_PVAL\nTWO_WAY_SUPPORT_VARIATION\nJ_MEASURE\nGINI\nCHI_SQUARE\nPHI\nIMPLICATION_INDEX</title>
<path fill="none" stroke="black" d="M593.26,-395.461C604.405,-360.957 631.415,-280.939 661.84,-217.019 666.792,-206.617 672.302,-195.929 678.014,-185.388"/>
<polygon fill="black" stroke="black" points="681.106,-187.028 682.851,-176.578 674.97,-183.659 681.106,-187.028"/>
</g>
</g>
</svg>
