<?xml version="1.0" encoding="UTF-8" standalone="no"?>
<!-- Generated by graphviz version 2.38.0 (20140413.2041)
 -->

<!-- Title: dendrogram Pages: 1 -->

<svg
   xmlns:dc="http://purl.org/dc/elements/1.1/"
   xmlns:cc="http://creativecommons.org/ns#"
   xmlns:rdf="http://www.w3.org/1999/02/22-rdf-syntax-ns#"
   xmlns:svg="http://www.w3.org/2000/svg"
   xmlns="http://www.w3.org/2000/svg"
   xmlns:sodipodi="http://sodipodi.sourceforge.net/DTD/sodipodi-0.dtd"
   xmlns:inkscape="http://www.inkscape.org/namespaces/inkscape"
   width="1049pt"
   height="903pt"
   viewBox="0.00 0.00 1049.02 902.70"
   id="svg26711"
   version="1.1"
   inkscape:version="0.48.5 r10040"
   sodipodi:docname="patterns_prods_per_client2-perTarget-NDCG.svg">
  <metadata
     id="metadata27007">
    <rdf:RDF>
      <cc:Work
         rdf:about="">
        <dc:format>image/svg+xml</dc:format>
        <dc:type
           rdf:resource="http://purl.org/dc/dcmitype/StillImage" />
      </cc:Work>
    </rdf:RDF>
  </metadata>
  <defs
     id="defs27005" />
  <sodipodi:namedview
     pagecolor="#ffffff"
     bordercolor="#666666"
     borderopacity="1"
     objecttolerance="10"
     gridtolerance="10"
     guidetolerance="10"
     inkscape:pageopacity="0"
     inkscape:pageshadow="2"
     inkscape:window-width="1920"
     inkscape:window-height="1052"
     id="namedview27003"
     showgrid="false"
     inkscape:zoom="0.73259967"
     inkscape:cx="527.93421"
     inkscape:cy="559.24573"
     inkscape:window-x="0"
     inkscape:window-y="0"
     inkscape:window-maximized="1"
     inkscape:current-layer="svg26711" />
  <g
     class="node"
     id="node1"
     transform="translate(-12.380336,909.07221)">
    <title
       id="title26719">n34 (-0.56 - 36)</title>
    <ellipse
       style="fill:none;stroke:#000000"
       sodipodi:ry="18"
       sodipodi:rx="67.688103"
       sodipodi:cy="-876.698"
       sodipodi:cx="349.84"
       d="m 417.5281,-876.698 c 0,9.94113 -30.305,18 -67.6881,18 -37.38311,0 -67.68811,-8.05887 -67.68811,-18 0,-9.94112 30.305,-18 67.68811,-18 37.3831,0 67.6881,8.05888 67.6881,18 z"
       id="ellipse26721"
       ry="18"
       rx="67.688103"
       cy="-876.698"
       cx="349.84" />
    <text
       style="font-size:14px;text-anchor:middle;font-family:'Times,serif'"
       id="text26723"
       font-size="14.00"
       y="-872.99799"
       x="349.84">n34 (-0.56 - 36)</text>
  </g>
  <g
     class="node"
     id="node2"
     transform="translate(-12.380336,909.07221)">
    <title
       id="title26726">n30 (0.86 - 2)</title>
    <ellipse
       style="fill:none;stroke:#000000"
       sodipodi:ry="18"
       sodipodi:rx="59.590099"
       sodipodi:cy="-804.698"
       sodipodi:cx="278.84"
       d="m 338.4301,-804.698 c 0,9.94113 -26.6794,18 -59.5901,18 -32.91071,0 -59.5901,-8.05887 -59.5901,-18 0,-9.94112 26.67939,-18 59.5901,-18 32.9107,0 59.5901,8.05888 59.5901,18 z"
       id="ellipse26728"
       ry="18"
       rx="59.590099"
       cy="-804.698"
       cx="278.84" />
    <text
       style="font-size:14px;text-anchor:middle;font-family:'Times,serif'"
       id="text26730"
       font-size="14.00"
       y="-800.99799"
       x="278.84">n30 (0.86 - 2)</text>
  </g>
  <g
     class="edge"
     id="edge1"
     transform="translate(-12.380336,909.07221)">
    <title
       id="title26733">n34 (-0.56 - 36)-&gt;n30 (0.86 - 2)</title>
    <path
       style="fill:none;stroke:#000000"
       inkscape:connector-curvature="0"
       id="path26735"
       d="m 333.014,-859.109 c -9.019,8.892 -20.286,20.001 -30.205,29.78" />
    <polygon
       style="fill:#000000;stroke:#000000"
       id="polygon26737"
       points="305.124,-826.696 305.124,-826.696 295.545,-822.168 300.209,-831.681 " />
  </g>
  <g
     class="node"
     id="node5"
     transform="translate(-12.380336,909.07221)">
    <title
       id="title26740">n33 (0.31 - 34)</title>
    <ellipse
       style="fill:none;stroke:#000000"
       sodipodi:ry="18"
       sodipodi:rx="64.189003"
       sodipodi:cy="-804.698"
       sodipodi:cx="420.84"
       d="m 485.029,-804.698 c 0,9.94113 -28.7384,18 -64.189,18 -35.45061,0 -64.18901,-8.05887 -64.18901,-18 0,-9.94112 28.7384,-18 64.18901,-18 35.4506,0 64.189,8.05888 64.189,18 z"
       id="ellipse26742"
       ry="18"
       rx="64.189003"
       cy="-804.698"
       cx="420.84" />
    <text
       style="font-size:14px;text-anchor:middle;font-family:'Times,serif'"
       id="text26744"
       font-size="14.00"
       y="-800.99799"
       x="420.84">n33 (0.31 - 34)</text>
  </g>
  <g
     class="edge"
     id="edge4"
     transform="translate(-12.380336,909.07221)">
    <title
       id="title26747">n34 (-0.56 - 36)-&gt;n33 (0.31 - 34)</title>
    <path
       style="fill:none;stroke:#000000"
       inkscape:connector-curvature="0"
       id="path26749"
       d="m 366.666,-859.109 c 9.019,8.892 20.286,20.001 30.206,29.78" />
    <polygon
       style="fill:#000000;stroke:#000000"
       id="polygon26751"
       points="399.471,-831.681 399.471,-831.681 404.135,-822.168 394.557,-826.696 " />
  </g>
  <ellipse
     cx="109.84"
     cy="-732.698"
     rx="109.681"
     ry="18"
     id="ellipse26756"
     d="m 219.521,-732.698 c 0,9.94113 -49.10586,18 -109.681,18 -60.575147,0 -109.68100342,-8.05887 -109.68100342,-18 0,-9.94112 49.10585642,-18 109.68100342,-18 60.57514,0 109.681,8.05888 109.681,18 z"
     sodipodi:cx="109.84"
     sodipodi:cy="-732.698"
     sodipodi:rx="109.681"
     sodipodi:ry="18"
     style="fill:#aaaaff;stroke:#000000"
     transform="translate(-12.380336,909.07221)" />
  <text
     x="97.459663"
     y="180.07422"
     font-size="14.00"
     id="text26758"
     style="font-size:14px;text-anchor:middle;font-family:'Times,serif'">COLLECTIVE_STRENGH</text>
  <g
     class="edge"
     id="edge2"
     transform="translate(-12.380336,909.07221)">
    <title
       id="title26761">n30 (0.86 - 2)-&gt;COLLECTIVE_STRENGH</title>
    <path
       style="fill:none;stroke:#000000"
       inkscape:connector-curvature="0"
       id="path26763"
       d="m 245.047,-789.7 c -24.988,10.35 -59.364,24.588 -87.2,36.118" />
    <polygon
       style="fill:#000000;stroke:#000000"
       id="polygon26765"
       points="158.878,-750.221 158.878,-750.221 148.3,-749.628 156.199,-756.688 " />
  </g>
  <ellipse
     cx="282.84"
     cy="-732.698"
     rx="44.6926"
     ry="18"
     id="ellipse26770"
     d="m 327.5326,-732.698 c 0,9.94113 -20.00956,18 -44.6926,18 -24.68305,0 -44.6926,-8.05887 -44.6926,-18 0,-9.94112 20.00955,-18 44.6926,-18 24.68304,0 44.6926,8.05888 44.6926,18 z"
     sodipodi:cx="282.84"
     sodipodi:cy="-732.698"
     sodipodi:rx="44.6926"
     sodipodi:ry="18"
     style="fill:#aaaaff;stroke:#000000"
     transform="translate(-12.380336,909.07221)" />
  <text
     x="270.45966"
     y="180.07422"
     font-size="14.00"
     id="text26772"
     style="font-size:14px;text-anchor:middle;font-family:'Times,serif'">RECALL</text>
  <g
     class="edge"
     id="edge3"
     transform="translate(-12.380336,909.07221)">
    <title
       id="title26775">n30 (0.86 - 2)-&gt;RECALL</title>
    <path
       style="fill:none;stroke:#000000"
       inkscape:connector-curvature="0"
       id="path26777"
       d="m 279.829,-786.394 c 0.441,7.714 0.971,16.984 1.462,25.584" />
    <polygon
       style="fill:#000000;stroke:#000000"
       id="polygon26779"
       points="284.787,-760.985 284.787,-760.985 281.863,-750.802 277.798,-760.586 " />
  </g>
  <g
     class="node"
     id="node6"
     transform="translate(-12.380336,909.07221)">
    <title
       id="title26782">n32 (0.51 - 14)</title>
    <ellipse
       style="fill:none;stroke:#000000"
       sodipodi:ry="18"
       sodipodi:rx="64.189003"
       sodipodi:cy="-732.698"
       sodipodi:cx="416.84"
       d="m 481.029,-732.698 c 0,9.94113 -28.7384,18 -64.189,18 -35.45061,0 -64.18901,-8.05887 -64.18901,-18 0,-9.94112 28.7384,-18 64.18901,-18 35.4506,0 64.189,8.05888 64.189,18 z"
       id="ellipse26784"
       ry="18"
       rx="64.189003"
       cy="-732.698"
       cx="416.84" />
    <text
       style="font-size:14px;text-anchor:middle;font-family:'Times,serif'"
       id="text26786"
       font-size="14.00"
       y="-728.99799"
       x="416.84">n32 (0.51 - 14)</text>
  </g>
  <g
     class="edge"
     id="edge5"
     transform="translate(-12.380336,909.07221)">
    <title
       id="title26789">n33 (0.31 - 34)-&gt;n32 (0.51 - 14)</title>
    <path
       style="fill:none;stroke:#000000"
       inkscape:connector-curvature="0"
       id="path26791"
       d="m 419.851,-786.394 c -0.44,7.714 -0.97,16.984 -1.461,25.584" />
    <polygon
       style="fill:#000000;stroke:#000000"
       id="polygon26793"
       points="421.883,-760.586 421.883,-760.586 417.818,-750.802 414.894,-760.985 " />
  </g>
  <g
     class="node"
     id="node15"
     transform="translate(-12.380336,909.07221)">
    <title
       id="title26796">n27 (0.89 - 20)</title>
    <ellipse
       style="fill:none;stroke:#000000"
       sodipodi:ry="18"
       sodipodi:rx="64.189003"
       sodipodi:cy="-732.698"
       sodipodi:cx="623.84003"
       d="m 688.02903,-732.698 c 0,9.94113 -28.7384,18 -64.189,18 -35.45061,0 -64.18901,-8.05887 -64.18901,-18 0,-9.94112 28.7384,-18 64.18901,-18 35.4506,0 64.189,8.05888 64.189,18 z"
       id="ellipse26798"
       ry="18"
       rx="64.189003"
       cy="-732.698"
       cx="623.84003" />
    <text
       style="font-size:14px;text-anchor:middle;font-family:'Times,serif'"
       id="text26800"
       font-size="14.00"
       y="-728.99799"
       x="623.84003">n27 (0.89 - 20)</text>
  </g>
  <g
     class="edge"
     id="edge14"
     transform="translate(-12.380336,909.07221)">
    <title
       id="title26803">n33 (0.31 - 34)-&gt;n27 (0.89 - 20)</title>
    <path
       style="fill:none;stroke:#000000"
       inkscape:connector-curvature="0"
       id="path26805"
       d="m 459.981,-790.201 c 32.857,11.33 79.95,27.569 115.225,39.733" />
    <polygon
       style="fill:#000000;stroke:#000000"
       id="polygon26807"
       points="576.507,-753.722 576.507,-753.722 584.82,-747.153 574.225,-747.104 " />
  </g>
  <g
     class="node"
     id="node7"
     transform="translate(-12.380336,909.07221)">
    <title
       id="title26810">n31 (0.74 - 3)</title>
    <ellipse
       style="fill:none;stroke:#000000"
       sodipodi:ry="18"
       sodipodi:rx="59.590099"
       sodipodi:cy="-482.12201"
       sodipodi:cx="233.84"
       d="m 293.4301,-482.12201 c 0,9.94113 -26.6794,18 -59.5901,18 -32.91071,0 -59.5901,-8.05887 -59.5901,-18 0,-9.94112 26.67939,-18 59.5901,-18 32.9107,0 59.5901,8.05888 59.5901,18 z"
       id="ellipse26812"
       ry="18"
       rx="59.590099"
       cy="-482.12201"
       cx="233.84" />
    <text
       style="font-size:14px;text-anchor:middle;font-family:'Times,serif'"
       id="text26814"
       font-size="14.00"
       y="-478.422"
       x="233.84">n31 (0.74 - 3)</text>
  </g>
  <g
     class="edge"
     id="edge6"
     transform="translate(-12.380336,909.07221)">
    <title
       id="title26817">n32 (0.51 - 14)-&gt;n31 (0.74 - 3)</title>
    <path
       style="fill:none;stroke:#000000"
       inkscape:connector-curvature="0"
       id="path26819"
       d="m 389.989,-716.202 c -14.851,9.491 -32.92,22.651 -46.149,37.504 -47.171,52.968 -82.885,129.52 -99.579,169.317" />
    <polygon
       style="fill:#000000;stroke:#000000"
       id="polygon26821"
       points="247.479,-508.003 247.479,-508.003 240.431,-500.092 241.007,-510.671 " />
  </g>
  <g
     class="node"
     id="node10"
     transform="translate(-12.380336,909.07221)">
    <title
       id="title26824">n29 (0.87 - 11)</title>
    <ellipse
       style="fill:none;stroke:#000000"
       sodipodi:ry="18"
       sodipodi:rx="64.189003"
       sodipodi:cy="-482.12201"
       sodipodi:cx="416.84"
       d="m 481.029,-482.12201 c 0,9.94113 -28.7384,18 -64.189,18 -35.45061,0 -64.18901,-8.05887 -64.18901,-18 0,-9.94112 28.7384,-18 64.18901,-18 35.4506,0 64.189,8.05888 64.189,18 z"
       id="ellipse26826"
       ry="18"
       rx="64.189003"
       cy="-482.12201"
       cx="416.84" />
    <text
       style="font-size:14px;text-anchor:middle;font-family:'Times,serif'"
       id="text26828"
       font-size="14.00"
       y="-478.422"
       x="416.84">n29 (0.87 - 11)</text>
  </g>
  <g
     class="edge"
     id="edge9"
     transform="translate(-12.380336,909.07221)">
    <title
       id="title26831">n32 (0.51 - 14)-&gt;n29 (0.87 - 11)</title>
    <path
       style="fill:none;stroke:#000000"
       inkscape:connector-curvature="0"
       id="path26833"
       d="m 416.84,-714.612 c 0,42.395 0,152.702 0,204.228" />
    <polygon
       style="fill:#000000;stroke:#000000"
       id="polygon26835"
       points="420.34,-510.327 420.34,-510.327 416.84,-500.327 413.34,-510.327 " />
  </g>
  <ellipse
     cx="53.840302"
     cy="-222.67599"
     rx="51.990799"
     ry="18"
     id="ellipse26840"
     d="m 105.8311,-222.67599 c 0,9.94112 -23.277073,18 -51.990798,18 -28.713726,0 -51.9907994,-8.05888 -51.9907994,-18 0,-9.94113 23.2770734,-18 51.9907994,-18 28.713725,0 51.990798,8.05887 51.990798,18 z"
     sodipodi:cx="53.840302"
     sodipodi:cy="-222.67599"
     sodipodi:rx="51.990799"
     sodipodi:ry="18"
     style="fill:#d5d5d5;stroke:#000000"
     transform="translate(-12.380336,909.07221)" />
  <text
     x="41.459965"
     y="690.09619"
     font-size="14.00"
     id="text26842"
     style="font-size:14px;text-anchor:middle;font-family:'Times,serif'">KLOSGEN</text>
  <g
     class="edge"
     id="edge7"
     transform="translate(-12.380336,909.07221)">
    <title
       id="title26845">n31 (0.74 - 3)-&gt;KLOSGEN</title>
    <path
       style="fill:none;stroke:#000000"
       inkscape:connector-curvature="0"
       id="path26847"
       d="m 222.03,-464.23 c -30.905,44.202 -114.284,163.454 -150.7342,215.588" />
    <polygon
       style="fill:#000000;stroke:#000000"
       id="polygon26849"
       points="74.0586,-246.485 74.0586,-246.485 65.46,-240.295 68.3217,-250.496 " />
  </g>
  <ellipse
     cx="233.84"
     cy="-222.67599"
     rx="109.703"
     ry="26.7407"
     id="ellipse26854"
     d="m 343.543,-222.67599 c 0,14.76848 -49.11571,26.74069 -109.703,26.74069 -60.5873,0 -109.70301,-11.97221 -109.70301,-26.74069 0,-14.76849 49.11571,-26.7407 109.70301,-26.7407 60.58729,0 109.703,11.97221 109.703,26.7407 z"
     sodipodi:cx="233.84"
     sodipodi:cy="-222.67599"
     sodipodi:rx="109.703"
     sodipodi:ry="26.7407"
     style="fill:#d5d5d5;stroke:#000000"
     transform="translate(-12.380336,909.07221)" />
  <text
     x="221.45966"
     y="682.59619"
     font-size="14.00"
     id="text26856"
     style="font-size:14px;text-anchor:middle;font-family:'Times,serif'">PIATETSKY_SHAPIRO</text>
  <text
     x="221.45966"
     y="697.59619"
     font-size="14.00"
     id="text26858"
     style="font-size:14px;text-anchor:middle;font-family:'Times,serif'">SPECIFICITY</text>
  <g
     class="edge"
     id="edge8"
     transform="translate(-12.380336,909.07221)">
    <title
       id="title26861">n31 (0.74 - 3)-&gt;PIATETSKY_SHAPIRO\nSPECIFICITY</title>
    <path
       style="fill:none;stroke:#000000"
       inkscape:connector-curvature="0"
       id="path26863"
       d="m 233.84,-463.83 c 0,41.518 0,147.554 0,203.817" />
    <polygon
       style="fill:#000000;stroke:#000000"
       id="polygon26865"
       points="237.34,-259.786 237.34,-259.786 233.84,-249.786 230.34,-259.786 " />
  </g>
  <ellipse
     cx="416.84"
     cy="-222.67599"
     rx="55.309101"
     ry="26.7407"
     id="ellipse26870"
     d="m 472.1491,-222.67599 c 0,14.76848 -24.76273,26.74069 -55.3091,26.74069 -30.54638,0 -55.3091,-11.97221 -55.3091,-26.74069 0,-14.76849 24.76272,-26.7407 55.3091,-26.7407 30.54637,0 55.3091,11.97221 55.3091,26.7407 z"
     sodipodi:cx="416.84"
     sodipodi:cy="-222.67599"
     sodipodi:rx="55.309101"
     sodipodi:ry="26.7407"
     style="fill:#aaffaa;stroke:#000000"
     transform="translate(-12.380336,909.07221)" />
  <text
     x="404.45966"
     y="682.59619"
     font-size="14.00"
     id="text26872"
     style="font-size:14px;text-anchor:middle;font-family:'Times,serif'">JACCARD</text>
  <text
     x="404.45966"
     y="697.59619"
     font-size="14.00"
     id="text26874"
     style="font-size:14px;text-anchor:middle;font-family:'Times,serif'">KAPPA</text>
  <g
     class="edge"
     id="edge10"
     transform="translate(-12.380336,909.07221)">
    <title
       id="title26877">n29 (0.87 - 11)-&gt;JACCARD\nKAPPA</title>
    <path
       style="fill:none;stroke:#000000"
       inkscape:connector-curvature="0"
       id="path26879"
       d="m 416.84,-463.83 c 0,41.518 0,147.554 0,203.817" />
    <polygon
       style="fill:#000000;stroke:#000000"
       id="polygon26881"
       points="420.34,-259.786 420.34,-259.786 416.84,-249.786 413.34,-259.786 " />
  </g>
  <g
     class="node"
     id="node12"
     transform="translate(-12.380336,909.07221)">
    <title
       id="title26884">n28 (0.89 - 9)</title>
    <ellipse
       style="fill:none;stroke:#000000"
       sodipodi:ry="18"
       sodipodi:rx="59.590099"
       sodipodi:cy="-222.67599"
       sodipodi:cx="549.84003"
       d="m 609.43013,-222.67599 c 0,9.94112 -26.6794,18 -59.5901,18 -32.91071,0 -59.5901,-8.05888 -59.5901,-18 0,-9.94113 26.67939,-18 59.5901,-18 32.9107,0 59.5901,8.05887 59.5901,18 z"
       id="ellipse26886"
       ry="18"
       rx="59.590099"
       cy="-222.67599"
       cx="549.84003" />
    <text
       style="font-size:14px;text-anchor:middle;font-family:'Times,serif'"
       id="text26888"
       font-size="14.00"
       y="-218.976"
       x="549.84003">n28 (0.89 - 9)</text>
  </g>
  <g
     class="edge"
     id="edge11"
     transform="translate(-12.380336,909.07221)">
    <title
       id="title26891">n29 (0.87 - 11)-&gt;n28 (0.89 - 9)</title>
    <path
       style="fill:none;stroke:#000000"
       inkscape:connector-curvature="0"
       id="path26893"
       d="m 420.817,-464.123 c 8.763,35.283 32.028,118.201 70.023,178.577 8.864,14.085 21.282,27.7 32.439,38.556" />
    <polygon
       style="fill:#000000;stroke:#000000"
       id="polygon26895"
       points="525.874,-249.354 525.874,-249.354 530.744,-239.944 521.069,-244.263 " />
  </g>
  <ellipse
     cx="402.84"
     cy="-79.903099"
     rx="108.789"
     ry="26.7407"
     id="ellipse26900"
     d="m 511.629,-79.903099 c 0,14.768481 -48.7065,26.7407 -108.789,26.7407 -60.08251,0 -108.78901,-11.972219 -108.78901,-26.7407 0,-14.768481 48.7065,-26.740701 108.78901,-26.740701 60.0825,0 108.789,11.97222 108.789,26.740701 z"
     sodipodi:cx="402.84"
     sodipodi:cy="-79.903099"
     sodipodi:rx="108.789"
     sodipodi:ry="26.7407"
     style="fill:none;stroke:#000000"
     transform="translate(-12.380336,909.07221)" />
  <text
     x="390.45966"
     y="825.36908"
     font-size="14.00"
     id="text26902"
     style="font-size:14px;text-anchor:middle;font-family:'Times,serif'">TWO_WAY_SUPPORT</text>
  <text
     x="390.45966"
     y="840.36908"
     font-size="14.00"
     id="text26904"
     style="font-size:14px;text-anchor:middle;font-family:'Times,serif'">COSINE</text>
  <g
     class="edge"
     id="edge12"
     transform="translate(-12.380336,909.07221)">
    <title
       id="title26907">n28 (0.89 - 9)-&gt;TWO_WAY_SUPPORT\nCOSINE</title>
    <path
       style="fill:none;stroke:#000000"
       inkscape:connector-curvature="0"
       id="path26909"
       d="m 532.69,-205.252 c -23.529,22.532 -66.313,63.503 -96.321,92.241" />
    <polygon
       style="fill:#000000;stroke:#000000"
       id="polygon26911"
       points="438.677,-110.376 438.677,-110.376 429.034,-105.987 433.836,-115.432 " />
  </g>
  <ellipse
     cx="696.84003"
     cy="-79.903099"
     rx="166.754"
     ry="79.806297"
     id="ellipse26916"
     d="m 863.59402,-79.903099 c 0,44.075801 -74.6583,79.80629724 -166.75399,79.80629724 -92.09569,0 -166.754,-35.73049624 -166.754,-79.80629724 0,-44.075801 74.65831,-79.806301 166.754,-79.806301 92.09569,0 166.75399,35.7305 166.75399,79.806301 z"
     sodipodi:cx="696.84003"
     sodipodi:cy="-79.903099"
     sodipodi:rx="166.754"
     sodipodi:ry="79.806297"
     style="fill:#aaffaa;stroke:#000000"
     transform="translate(-12.380336,909.07221)" />
  <text
     x="684.45972"
     y="787.8692"
     font-size="14.00"
     id="text26918"
     style="font-size:14px;text-anchor:middle;font-family:'Times,serif'">J_MEASURE</text>
  <text
     x="684.45972"
     y="802.8692"
     font-size="14.00"
     id="text26920"
     style="font-size:14px;text-anchor:middle;font-family:'Times,serif'">TWO_WAY_SUPPORT_VARIATION</text>
  <text
     x="684.45972"
     y="817.86908"
     font-size="14.00"
     id="text26922"
     style="font-size:14px;text-anchor:middle;font-family:'Times,serif'">FISHER_PVAL</text>
  <text
     x="684.45972"
     y="832.86908"
     font-size="14.00"
     id="text26924"
     style="font-size:14px;text-anchor:middle;font-family:'Times,serif'">IMPLICATION_INDEX</text>
  <text
     x="684.45972"
     y="847.86914"
     font-size="14.00"
     id="text26926"
     style="font-size:14px;text-anchor:middle;font-family:'Times,serif'">PHI</text>
  <text
     x="684.45972"
     y="862.86914"
     font-size="14.00"
     id="text26928"
     style="font-size:14px;text-anchor:middle;font-family:'Times,serif'">GINI</text>
  <text
     x="684.45972"
     y="877.86908"
     font-size="14.00"
     id="text26930"
     style="font-size:14px;text-anchor:middle;font-family:'Times,serif'">CHI_SQUARE</text>
  <g
     class="edge"
     id="edge13"
     transform="translate(-12.380336,909.07221)">
    <title
       id="title26933">n28 (0.89 - 9)-&gt;J_MEASURE\nTWO_WAY_SUPPORT_VARIATION\nFISHER_PVAL\nIMPLICATION_INDEX\nPHI\nGINI\nCHI_SQUARE</title>
    <path
       style="fill:none;stroke:#000000"
       inkscape:connector-curvature="0"
       id="path26935"
       d="m 566.991,-205.252 c 12.369,11.845 30.059,28.786 48.418,46.367" />
    <polygon
       style="fill:#000000;stroke:#000000"
       id="polygon26937"
       points="617.942,-161.305 617.942,-161.305 622.744,-151.861 613.101,-156.249 " />
  </g>
  <ellipse
     cx="623.84003"
     cy="-482.12201"
     rx="124.402"
     ry="26.7407"
     id="ellipse26942"
     d="m 748.24203,-482.12201 c 0,14.76848 -55.69668,26.7407 -124.402,26.7407 -68.70533,0 -124.402,-11.97222 -124.402,-26.7407 0,-14.76848 55.69667,-26.7407 124.402,-26.7407 68.70532,0 124.402,11.97222 124.402,26.7407 z"
     sodipodi:cx="623.84003"
     sodipodi:cy="-482.12201"
     sodipodi:rx="124.402"
     sodipodi:ry="26.7407"
     style="fill:#ffaaaa;stroke:#000000"
     transform="translate(-87.183871,780.75958)" />
  <text
     x="536.65613"
     y="294.83759"
     font-size="14.00"
     id="text26944"
     style="font-size:14px;text-anchor:middle;font-family:'Times,serif'">LEAST_CONTRADICTION</text>
  <text
     x="536.65613"
     y="309.83759"
     font-size="14.00"
     id="text26946"
     style="font-size:14px;text-anchor:middle;font-family:'Times,serif'">ACCURACY</text>
  <path
     d="m 611.45966,194.46021 c -7.64416,12.80444 -31.12264,53.0722 -43.6809,75.80455"
     id="path26951"
     inkscape:connector-curvature="0"
     style="fill:none;stroke:#000000"
     sodipodi:nodetypes="cc" />
  <polygon
     points="623.84,-509.002 620.34,-519.002 627.34,-519.002 627.34,-519.002 "
     id="polygon26953"
     style="fill:#000000;stroke:#000000"
     transform="matrix(0.91812375,0.3962938,-0.3962938,0.91812375,-206.49531,491.4511)"
     inkscape:transform-center-x="-50.505073"
     inkscape:transform-center-y="120.12017" />
  <ellipse
     cx="903.84003"
     cy="-482.12201"
     rx="137.358"
     ry="196.651"
     id="ellipse26958"
     d="m 1041.198,-482.12201 c 0,108.60735 -61.49724,196.651 -137.35797,196.651 -75.86073,0 -137.358,-88.04365 -137.358,-196.651 0,-108.60735 61.49727,-196.651 137.358,-196.651 75.86073,0 137.35797,88.04365 137.35797,196.651 z"
     sodipodi:cx="903.84003"
     sodipodi:cy="-482.12201"
     sodipodi:rx="137.358"
     sodipodi:ry="196.651"
     style="fill:#ffffaa;stroke:#000000"
     transform="translate(-179.10111,976.1379)" />
  <text
     x="724.73889"
     y="370.21591"
     font-size="14.00"
     id="text26960"
     style="font-size:14px;text-anchor:middle;font-family:'Times,serif'">RELATIVE_RISK</text>
  <text
     x="724.73889"
     y="385.21591"
     font-size="14.00"
     id="text26962"
     style="font-size:14px;text-anchor:middle;font-family:'Times,serif'">YULE_Y</text>
  <text
     x="724.73889"
     y="400.21591"
     font-size="14.00"
     id="text26964"
     style="font-size:14px;text-anchor:middle;font-family:'Times,serif'">YULE_Q</text>
  <text
     x="724.73889"
     y="415.21591"
     font-size="14.00"
     id="text26966"
     style="font-size:14px;text-anchor:middle;font-family:'Times,serif'">ODDS_RATIO</text>
  <text
     x="724.73889"
     y="430.21591"
     font-size="14.00"
     id="text26968"
     style="font-size:14px;text-anchor:middle;font-family:'Times,serif'">LEVERAGE</text>
  <text
     x="724.73889"
     y="445.21591"
     font-size="14.00"
     id="text26970"
     style="font-size:14px;text-anchor:middle;font-family:'Times,serif'">LOEVINGER</text>
  <text
     x="724.73889"
     y="460.21591"
     font-size="14.00"
     id="text26972"
     style="font-size:14px;text-anchor:middle;font-family:'Times,serif'">CONVICTION</text>
  <text
     x="724.73889"
     y="475.21591"
     font-size="14.00"
     id="text26974"
     style="font-size:14px;text-anchor:middle;font-family:'Times,serif'">ODD_MULTIPLIER</text>
  <text
     x="724.73889"
     y="490.21591"
     font-size="14.00"
     id="text26976"
     style="font-size:14px;text-anchor:middle;font-family:'Times,serif'">ZHANG</text>
  <text
     x="724.73889"
     y="505.21591"
     font-size="14.00"
     id="text26978"
     style="font-size:14px;text-anchor:middle;font-family:'Times,serif'">ONE_WAY_SUPPORT</text>
  <text
     x="724.73889"
     y="520.21588"
     font-size="14.00"
     id="text26980"
     style="font-size:14px;text-anchor:middle;font-family:'Times,serif'">SEBAG_SCHOENAUER</text>
  <text
     x="724.73889"
     y="535.21588"
     font-size="14.00"
     id="text26982"
     style="font-size:14px;text-anchor:middle;font-family:'Times,serif'">COUNTER_EXAMPLE_RATE</text>
  <text
     x="724.73889"
     y="550.21588"
     font-size="14.00"
     id="text26984"
     style="font-size:14px;text-anchor:middle;font-family:'Times,serif'">BAYES</text>
  <text
     x="724.73889"
     y="565.21588"
     font-size="14.00"
     id="text26986"
     style="font-size:14px;text-anchor:middle;font-family:'Times,serif'">CENTERED_CONFIDENCE</text>
  <text
     x="724.73889"
     y="580.21588"
     font-size="14.00"
     id="text26988"
     style="font-size:14px;text-anchor:middle;font-family:'Times,serif'">CERTAINTY_FACTOR</text>
  <text
     x="724.73889"
     y="595.21588"
     font-size="14.00"
     id="text26990"
     style="font-size:14px;text-anchor:middle;font-family:'Times,serif'">ADDED_VALUE</text>
  <text
     x="724.73889"
     y="610.21588"
     font-size="14.00"
     id="text26992"
     style="font-size:14px;text-anchor:middle;font-family:'Times,serif'">LIFT</text>
  <text
     x="724.73889"
     y="625.21588"
     font-size="14.00"
     id="text26994"
     style="font-size:14px;text-anchor:middle;font-family:'Times,serif'">CONFIDENCE</text>
  <path
     d="m 657.74566,188.99121 c 13.05126,8.63357 57.70443,87.14936 61.41641,107.00885"
     id="path26999"
     inkscape:connector-curvature="0"
     style="fill:none;stroke:#000000"
     sodipodi:nodetypes="cc" />
  <polygon
     points="806.776,-636.594 806.776,-636.594 810.754,-626.774 801.521,-631.971 "
     id="polygon27001"
     style="fill:#000000;stroke:#000000"
     transform="matrix(0.91844314,0.39555304,-0.39555304,0.91844314,-272.94428,551.42482)" />
</svg>
