<?xml version="1.0" encoding="UTF-8" standalone="no"?>
<!DOCTYPE svg PUBLIC "-//W3C//DTD SVG 1.1//EN"
 "http://www.w3.org/Graphics/SVG/1.1/DTD/svg11.dtd">
<!-- Generated by graphviz version 2.38.0 (20140413.2041)
 -->
<!-- Title: dendrogram Pages: 1 -->
<svg width="2084pt" height="745pt"
 viewBox="0.00 0.00 2084.02 744.83" xmlns="http://www.w3.org/2000/svg" xmlns:xlink="http://www.w3.org/1999/xlink">
<g id="graph0" class="graph" transform="scale(1 1) rotate(0) translate(4 740.825)">
<title>dendrogram</title>
<polygon fill="white" stroke="none" points="-4,4 -4,-740.825 2080.02,-740.825 2080.02,4 -4,4"/>
<!-- n34 (0.02 &#45; 36) -->
<g id="node1" class="node"><title>n34 (0.02 &#45; 36)</title>
<ellipse fill="none" stroke="black" cx="382.84" cy="-718.825" rx="64.189" ry="18"/>
<text text-anchor="middle" x="382.84" y="-715.125" font-family="Times,serif" font-size="14.00">n34 (0.02 &#45; 36)</text>
</g>
<!-- n29 (0.50 &#45; 3) -->
<g id="node2" class="node"><title>n29 (0.50 &#45; 3)</title>
<ellipse fill="none" stroke="black" cx="282.84" cy="-646.825" rx="59.5901" ry="18"/>
<text text-anchor="middle" x="282.84" y="-643.125" font-family="Times,serif" font-size="14.00">n29 (0.50 &#45; 3)</text>
</g>
<!-- n34 (0.02 &#45; 36)&#45;&gt;n29 (0.50 &#45; 3) -->
<g id="edge1" class="edge"><title>n34 (0.02 &#45; 36)&#45;&gt;n29 (0.50 &#45; 3)</title>
<path fill="none" stroke="black" d="M360.149,-701.941C346.468,-692.365 328.853,-680.034 313.893,-669.563"/>
<polygon fill="black" stroke="black" points="315.641,-666.514 305.442,-663.647 311.627,-672.249 315.641,-666.514"/>
</g>
<!-- n33 (0.25 &#45; 33) -->
<g id="node7" class="node"><title>n33 (0.25 &#45; 33)</title>
<ellipse fill="none" stroke="black" cx="483.84" cy="-646.825" rx="64.189" ry="18"/>
<text text-anchor="middle" x="483.84" y="-643.125" font-family="Times,serif" font-size="14.00">n33 (0.25 &#45; 33)</text>
</g>
<!-- n34 (0.02 &#45; 36)&#45;&gt;n33 (0.25 &#45; 33) -->
<g id="edge6" class="edge"><title>n34 (0.02 &#45; 36)&#45;&gt;n33 (0.25 &#45; 33)</title>
<path fill="none" stroke="black" d="M405.759,-701.941C419.479,-692.432 437.117,-680.208 452.157,-669.784"/>
<polygon fill="black" stroke="black" points="454.438,-672.462 460.663,-663.889 450.45,-666.709 454.438,-672.462"/>
</g>
<!-- SPECIFICITY -->
<g id="node3" class="node"><title>SPECIFICITY</title>
<ellipse fill="none" stroke="black" cx="141.84" cy="-574.825" rx="63.0888" ry="18"/>
<text text-anchor="middle" x="141.84" y="-571.125" font-family="Times,serif" font-size="14.00">SPECIFICITY</text>
</g>
<!-- n29 (0.50 &#45; 3)&#45;&gt;SPECIFICITY -->
<g id="edge2" class="edge"><title>n29 (0.50 &#45; 3)&#45;&gt;SPECIFICITY</title>
<path fill="none" stroke="black" d="M253.282,-631.151C232.274,-620.721 203.842,-606.607 180.955,-595.244"/>
<polygon fill="black" stroke="black" points="182.358,-592.033 171.845,-590.722 179.246,-598.303 182.358,-592.033"/>
</g>
<!-- n26 (0.67 &#45; 2) -->
<g id="node4" class="node"><title>n26 (0.67 &#45; 2)</title>
<ellipse fill="none" stroke="black" cx="282.84" cy="-574.825" rx="59.5901" ry="18"/>
<text text-anchor="middle" x="282.84" y="-571.125" font-family="Times,serif" font-size="14.00">n26 (0.67 &#45; 2)</text>
</g>
<!-- n29 (0.50 &#45; 3)&#45;&gt;n26 (0.67 &#45; 2) -->
<g id="edge3" class="edge"><title>n29 (0.50 &#45; 3)&#45;&gt;n26 (0.67 &#45; 2)</title>
<path fill="none" stroke="black" d="M282.84,-628.522C282.84,-620.808 282.84,-611.538 282.84,-602.938"/>
<polygon fill="black" stroke="black" points="286.34,-602.93 282.84,-592.93 279.34,-602.93 286.34,-602.93"/>
</g>
<!-- COLLECTIVE_STRENGH -->
<g id="node5" class="node"><title>COLLECTIVE_STRENGH</title>
<ellipse fill="none" stroke="black" cx="109.84" cy="-502.825" rx="109.681" ry="18"/>
<text text-anchor="middle" x="109.84" y="-499.125" font-family="Times,serif" font-size="14.00">COLLECTIVE_STRENGH</text>
</g>
<!-- n26 (0.67 &#45; 2)&#45;&gt;COLLECTIVE_STRENGH -->
<g id="edge4" class="edge"><title>n26 (0.67 &#45; 2)&#45;&gt;COLLECTIVE_STRENGH</title>
<path fill="none" stroke="black" d="M248.661,-559.996C222.916,-549.579 187.266,-535.154 158.54,-523.531"/>
<polygon fill="black" stroke="black" points="159.671,-520.213 149.088,-519.706 157.045,-526.701 159.671,-520.213"/>
</g>
<!-- RECALL -->
<g id="node6" class="node"><title>RECALL</title>
<ellipse fill="none" stroke="black" cx="282.84" cy="-502.825" rx="44.6926" ry="18"/>
<text text-anchor="middle" x="282.84" y="-499.125" font-family="Times,serif" font-size="14.00">RECALL</text>
</g>
<!-- n26 (0.67 &#45; 2)&#45;&gt;RECALL -->
<g id="edge5" class="edge"><title>n26 (0.67 &#45; 2)&#45;&gt;RECALL</title>
<path fill="none" stroke="black" d="M282.84,-556.522C282.84,-548.808 282.84,-539.538 282.84,-530.938"/>
<polygon fill="black" stroke="black" points="286.34,-530.93 282.84,-520.93 279.34,-530.93 286.34,-530.93"/>
</g>
<!-- n31 (0.42 &#45; 10) -->
<g id="node8" class="node"><title>n31 (0.42 &#45; 10)</title>
<ellipse fill="none" stroke="black" cx="483.84" cy="-574.825" rx="64.189" ry="18"/>
<text text-anchor="middle" x="483.84" y="-571.125" font-family="Times,serif" font-size="14.00">n31 (0.42 &#45; 10)</text>
</g>
<!-- n33 (0.25 &#45; 33)&#45;&gt;n31 (0.42 &#45; 10) -->
<g id="edge7" class="edge"><title>n33 (0.25 &#45; 33)&#45;&gt;n31 (0.42 &#45; 10)</title>
<path fill="none" stroke="black" d="M483.84,-628.522C483.84,-620.808 483.84,-611.538 483.84,-602.938"/>
<polygon fill="black" stroke="black" points="487.34,-602.93 483.84,-592.93 480.34,-602.93 487.34,-602.93"/>
</g>
<!-- n32 (0.37 &#45; 23) -->
<g id="node21" class="node"><title>n32 (0.37 &#45; 23)</title>
<ellipse fill="none" stroke="black" cx="921.84" cy="-574.825" rx="64.189" ry="18"/>
<text text-anchor="middle" x="921.84" y="-571.125" font-family="Times,serif" font-size="14.00">n32 (0.37 &#45; 23)</text>
</g>
<!-- n33 (0.25 &#45; 33)&#45;&gt;n32 (0.37 &#45; 23) -->
<g id="edge20" class="edge"><title>n33 (0.25 &#45; 33)&#45;&gt;n32 (0.37 &#45; 23)</title>
<path fill="none" stroke="black" d="M538.428,-637.101C619.384,-624.163 770.979,-599.936 857.315,-586.138"/>
<polygon fill="black" stroke="black" points="857.932,-589.584 867.255,-584.549 856.828,-582.671 857.932,-589.584"/>
</g>
<!-- n25 (0.67 &#45; 3) -->
<g id="node9" class="node"><title>n25 (0.67 &#45; 3)</title>
<ellipse fill="none" stroke="black" cx="405.84" cy="-502.825" rx="59.5901" ry="18"/>
<text text-anchor="middle" x="405.84" y="-499.125" font-family="Times,serif" font-size="14.00">n25 (0.67 &#45; 3)</text>
</g>
<!-- n31 (0.42 &#45; 10)&#45;&gt;n25 (0.67 &#45; 3) -->
<g id="edge8" class="edge"><title>n31 (0.42 &#45; 10)&#45;&gt;n25 (0.67 &#45; 3)</title>
<path fill="none" stroke="black" d="M465.355,-557.236C455.277,-548.192 442.645,-536.855 431.613,-526.955"/>
<polygon fill="black" stroke="black" points="433.704,-524.128 423.923,-520.054 429.028,-529.338 433.704,-524.128"/>
</g>
<!-- n27 (0.63 &#45; 7) -->
<g id="node14" class="node"><title>n27 (0.63 &#45; 7)</title>
<ellipse fill="none" stroke="black" cx="543.84" cy="-502.825" rx="59.5901" ry="18"/>
<text text-anchor="middle" x="543.84" y="-499.125" font-family="Times,serif" font-size="14.00">n27 (0.63 &#45; 7)</text>
</g>
<!-- n31 (0.42 &#45; 10)&#45;&gt;n27 (0.63 &#45; 7) -->
<g id="edge13" class="edge"><title>n31 (0.42 &#45; 10)&#45;&gt;n27 (0.63 &#45; 7)</title>
<path fill="none" stroke="black" d="M498.059,-557.236C505.423,-548.645 514.561,-537.985 522.731,-528.453"/>
<polygon fill="black" stroke="black" points="525.456,-530.652 529.306,-520.782 520.141,-526.096 525.456,-530.652"/>
</g>
<!-- PIATETSKY_SHAPIRO -->
<g id="node10" class="node"><title>PIATETSKY_SHAPIRO</title>
<ellipse fill="none" stroke="black" cx="226.84" cy="-430.825" rx="100.983" ry="18"/>
<text text-anchor="middle" x="226.84" y="-427.125" font-family="Times,serif" font-size="14.00">PIATETSKY_SHAPIRO</text>
</g>
<!-- n25 (0.67 &#45; 3)&#45;&gt;PIATETSKY_SHAPIRO -->
<g id="edge9" class="edge"><title>n25 (0.67 &#45; 3)&#45;&gt;PIATETSKY_SHAPIRO</title>
<path fill="none" stroke="black" d="M370.902,-488.163C343.911,-477.607 306.214,-462.865 276.152,-451.109"/>
<polygon fill="black" stroke="black" points="277.27,-447.789 266.683,-447.406 274.721,-454.308 277.27,-447.789"/>
</g>
<!-- n22 (0.76 &#45; 2) -->
<g id="node11" class="node"><title>n22 (0.76 &#45; 2)</title>
<ellipse fill="none" stroke="black" cx="405.84" cy="-430.825" rx="59.5901" ry="18"/>
<text text-anchor="middle" x="405.84" y="-427.125" font-family="Times,serif" font-size="14.00">n22 (0.76 &#45; 2)</text>
</g>
<!-- n25 (0.67 &#45; 3)&#45;&gt;n22 (0.76 &#45; 2) -->
<g id="edge10" class="edge"><title>n25 (0.67 &#45; 3)&#45;&gt;n22 (0.76 &#45; 2)</title>
<path fill="none" stroke="black" d="M405.84,-484.522C405.84,-476.808 405.84,-467.538 405.84,-458.938"/>
<polygon fill="black" stroke="black" points="409.34,-458.93 405.84,-448.93 402.34,-458.93 409.34,-458.93"/>
</g>
<!-- TWO_WAY_SUPPORT -->
<g id="node12" class="node"><title>TWO_WAY_SUPPORT</title>
<ellipse fill="none" stroke="black" cx="236.84" cy="-307.529" rx="100.182" ry="18"/>
<text text-anchor="middle" x="236.84" y="-303.829" font-family="Times,serif" font-size="14.00">TWO_WAY_SUPPORT</text>
</g>
<!-- n22 (0.76 &#45; 2)&#45;&gt;TWO_WAY_SUPPORT -->
<g id="edge11" class="edge"><title>n22 (0.76 &#45; 2)&#45;&gt;TWO_WAY_SUPPORT</title>
<path fill="none" stroke="black" d="M383.746,-413.968C354.343,-392.864 302.162,-355.413 268.558,-331.294"/>
<polygon fill="black" stroke="black" points="270.188,-328.156 260.023,-325.168 266.107,-333.843 270.188,-328.156"/>
</g>
<!-- JACCARD -->
<g id="node13" class="node"><title>JACCARD</title>
<ellipse fill="none" stroke="black" cx="405.84" cy="-307.529" rx="50.8918" ry="18"/>
<text text-anchor="middle" x="405.84" y="-303.829" font-family="Times,serif" font-size="14.00">JACCARD</text>
</g>
<!-- n22 (0.76 &#45; 2)&#45;&gt;JACCARD -->
<g id="edge12" class="edge"><title>n22 (0.76 &#45; 2)&#45;&gt;JACCARD</title>
<path fill="none" stroke="black" d="M405.84,-412.704C405.84,-392.657 405.84,-359.199 405.84,-335.619"/>
<polygon fill="black" stroke="black" points="409.34,-335.563 405.84,-325.563 402.34,-335.563 409.34,-335.563"/>
</g>
<!-- KAPPA -->
<g id="node15" class="node"><title>KAPPA</title>
<ellipse fill="none" stroke="black" cx="533.84" cy="-430.825" rx="39.7935" ry="18"/>
<text text-anchor="middle" x="533.84" y="-427.125" font-family="Times,serif" font-size="14.00">KAPPA</text>
</g>
<!-- n27 (0.63 &#45; 7)&#45;&gt;KAPPA -->
<g id="edge14" class="edge"><title>n27 (0.63 &#45; 7)&#45;&gt;KAPPA</title>
<path fill="none" stroke="black" d="M541.368,-484.522C540.266,-476.808 538.942,-467.538 537.713,-458.938"/>
<polygon fill="black" stroke="black" points="541.163,-458.334 536.284,-448.93 534.233,-459.324 541.163,-458.334"/>
</g>
<!-- n24 (0.69 &#45; 6) -->
<g id="node16" class="node"><title>n24 (0.69 &#45; 6)</title>
<ellipse fill="none" stroke="black" cx="650.84" cy="-430.825" rx="59.5901" ry="18"/>
<text text-anchor="middle" x="650.84" y="-427.125" font-family="Times,serif" font-size="14.00">n24 (0.69 &#45; 6)</text>
</g>
<!-- n27 (0.63 &#45; 7)&#45;&gt;n24 (0.69 &#45; 6) -->
<g id="edge15" class="edge"><title>n27 (0.63 &#45; 7)&#45;&gt;n24 (0.69 &#45; 6)</title>
<path fill="none" stroke="black" d="M567.587,-486.29C582.444,-476.571 601.79,-463.914 618.093,-453.249"/>
<polygon fill="black" stroke="black" points="620.338,-455.963 626.79,-447.559 616.505,-450.105 620.338,-455.963"/>
</g>
<!-- CHI_SQUARE\nPHI -->
<g id="node17" class="node"><title>CHI_SQUARE\nPHI</title>
<ellipse fill="none" stroke="black" cx="545.84" cy="-307.529" rx="71.3357" ry="26.7407"/>
<text text-anchor="middle" x="545.84" y="-311.329" font-family="Times,serif" font-size="14.00">CHI_SQUARE</text>
<text text-anchor="middle" x="545.84" y="-296.329" font-family="Times,serif" font-size="14.00">PHI</text>
</g>
<!-- n24 (0.69 &#45; 6)&#45;&gt;CHI_SQUARE\nPHI -->
<g id="edge16" class="edge"><title>n24 (0.69 &#45; 6)&#45;&gt;CHI_SQUARE\nPHI</title>
<path fill="none" stroke="black" d="M636.461,-413.214C620.414,-394.677 594.058,-364.231 573.896,-340.939"/>
<polygon fill="black" stroke="black" points="576.51,-338.612 567.319,-333.342 571.218,-343.193 576.51,-338.612"/>
</g>
<!-- n20 (0.80 &#45; 4) -->
<g id="node18" class="node"><title>n20 (0.80 &#45; 4)</title>
<ellipse fill="none" stroke="black" cx="694.84" cy="-307.529" rx="59.5901" ry="18"/>
<text text-anchor="middle" x="694.84" y="-303.829" font-family="Times,serif" font-size="14.00">n20 (0.80 &#45; 4)</text>
</g>
<!-- n24 (0.69 &#45; 6)&#45;&gt;n20 (0.80 &#45; 4) -->
<g id="edge17" class="edge"><title>n24 (0.69 &#45; 6)&#45;&gt;n20 (0.80 &#45; 4)</title>
<path fill="none" stroke="black" d="M657.051,-412.704C664.389,-392.476 676.679,-358.595 685.244,-334.984"/>
<polygon fill="black" stroke="black" points="688.541,-336.158 688.661,-325.563 681.961,-333.771 688.541,-336.158"/>
</g>
<!-- COSINE -->
<g id="node19" class="node"><title>COSINE</title>
<ellipse fill="none" stroke="black" cx="580.84" cy="-101.116" rx="42.4939" ry="18"/>
<text text-anchor="middle" x="580.84" y="-97.4163" font-family="Times,serif" font-size="14.00">COSINE</text>
</g>
<!-- n20 (0.80 &#45; 4)&#45;&gt;COSINE -->
<g id="edge18" class="edge"><title>n20 (0.80 &#45; 4)&#45;&gt;COSINE</title>
<path fill="none" stroke="black" d="M684.202,-289.768C671.36,-269.344 649.31,-233.666 631.84,-202.233 618.078,-177.47 603.516,-148.581 593.492,-128.218"/>
<polygon fill="black" stroke="black" points="596.5,-126.403 588.959,-118.962 590.214,-129.482 596.5,-126.403"/>
</g>
<!-- J_MEASURE\nFISHER_PVAL\nTWO_WAY_SUPPORT_VARIATION -->
<g id="node20" class="node"><title>J_MEASURE\nFISHER_PVAL\nTWO_WAY_SUPPORT_VARIATION</title>
<ellipse fill="none" stroke="black" cx="807.84" cy="-101.116" rx="166.754" ry="37.4533"/>
<text text-anchor="middle" x="807.84" y="-112.416" font-family="Times,serif" font-size="14.00">J_MEASURE</text>
<text text-anchor="middle" x="807.84" y="-97.4163" font-family="Times,serif" font-size="14.00">FISHER_PVAL</text>
<text text-anchor="middle" x="807.84" y="-82.4163" font-family="Times,serif" font-size="14.00">TWO_WAY_SUPPORT_VARIATION</text>
</g>
<!-- n20 (0.80 &#45; 4)&#45;&gt;J_MEASURE\nFISHER_PVAL\nTWO_WAY_SUPPORT_VARIATION -->
<g id="edge19" class="edge"><title>n20 (0.80 &#45; 4)&#45;&gt;J_MEASURE\nFISHER_PVAL\nTWO_WAY_SUPPORT_VARIATION</title>
<path fill="none" stroke="black" d="M704.28,-289.452C721.401,-258.482 758.091,-192.111 782.873,-147.281"/>
<polygon fill="black" stroke="black" points="786.041,-148.785 787.816,-138.34 779.914,-145.399 786.041,-148.785"/>
</g>
<!-- n30 (0.44 &#45; 9) -->
<g id="node22" class="node"><title>n30 (0.44 &#45; 9)</title>
<ellipse fill="none" stroke="black" cx="921.84" cy="-502.825" rx="59.5901" ry="18"/>
<text text-anchor="middle" x="921.84" y="-499.125" font-family="Times,serif" font-size="14.00">n30 (0.44 &#45; 9)</text>
</g>
<!-- n32 (0.37 &#45; 23)&#45;&gt;n30 (0.44 &#45; 9) -->
<g id="edge21" class="edge"><title>n32 (0.37 &#45; 23)&#45;&gt;n30 (0.44 &#45; 9)</title>
<path fill="none" stroke="black" d="M921.84,-556.522C921.84,-548.808 921.84,-539.538 921.84,-530.938"/>
<polygon fill="black" stroke="black" points="925.34,-530.93 921.84,-520.93 918.34,-530.93 925.34,-530.93"/>
</g>
<!-- n28 (0.54 &#45; 14) -->
<g id="node27" class="node"><title>n28 (0.54 &#45; 14)</title>
<ellipse fill="none" stroke="black" cx="1310.84" cy="-502.825" rx="64.189" ry="18"/>
<text text-anchor="middle" x="1310.84" y="-499.125" font-family="Times,serif" font-size="14.00">n28 (0.54 &#45; 14)</text>
</g>
<!-- n32 (0.37 &#45; 23)&#45;&gt;n28 (0.54 &#45; 14) -->
<g id="edge26" class="edge"><title>n32 (0.37 &#45; 23)&#45;&gt;n28 (0.54 &#45; 14)</title>
<path fill="none" stroke="black" d="M974.303,-564.385C1045.45,-551.581 1172.37,-528.743 1248.36,-515.069"/>
<polygon fill="black" stroke="black" points="1249.06,-518.5 1258.28,-513.284 1247.82,-511.61 1249.06,-518.5"/>
</g>
<!-- ACCURACY -->
<g id="node23" class="node"><title>ACCURACY</title>
<ellipse fill="none" stroke="black" cx="852.84" cy="-430.825" rx="59.5901" ry="18"/>
<text text-anchor="middle" x="852.84" y="-427.125" font-family="Times,serif" font-size="14.00">ACCURACY</text>
</g>
<!-- n30 (0.44 &#45; 9)&#45;&gt;ACCURACY -->
<g id="edge22" class="edge"><title>n30 (0.44 &#45; 9)&#45;&gt;ACCURACY</title>
<path fill="none" stroke="black" d="M905.488,-485.236C896.723,-476.344 885.774,-465.236 876.134,-455.456"/>
<polygon fill="black" stroke="black" points="878.588,-452.96 869.075,-448.295 873.602,-457.874 878.588,-452.96"/>
</g>
<!-- n18 (0.85 &#45; 8) -->
<g id="node24" class="node"><title>n18 (0.85 &#45; 8)</title>
<ellipse fill="none" stroke="black" cx="990.84" cy="-430.825" rx="59.5901" ry="18"/>
<text text-anchor="middle" x="990.84" y="-427.125" font-family="Times,serif" font-size="14.00">n18 (0.85 &#45; 8)</text>
</g>
<!-- n30 (0.44 &#45; 9)&#45;&gt;n18 (0.85 &#45; 8) -->
<g id="edge23" class="edge"><title>n30 (0.44 &#45; 9)&#45;&gt;n18 (0.85 &#45; 8)</title>
<path fill="none" stroke="black" d="M938.192,-485.236C946.957,-476.344 957.907,-465.236 967.547,-455.456"/>
<polygon fill="black" stroke="black" points="970.078,-457.874 974.606,-448.295 965.093,-452.96 970.078,-457.874"/>
</g>
<!-- RELATIVE_RISK\nLIFT -->
<g id="node25" class="node"><title>RELATIVE_RISK\nLIFT</title>
<ellipse fill="none" stroke="black" cx="857.84" cy="-307.529" rx="84.7059" ry="26.7407"/>
<text text-anchor="middle" x="857.84" y="-311.329" font-family="Times,serif" font-size="14.00">RELATIVE_RISK</text>
<text text-anchor="middle" x="857.84" y="-296.329" font-family="Times,serif" font-size="14.00">LIFT</text>
</g>
<!-- n18 (0.85 &#45; 8)&#45;&gt;RELATIVE_RISK\nLIFT -->
<g id="edge24" class="edge"><title>n18 (0.85 &#45; 8)&#45;&gt;RELATIVE_RISK\nLIFT</title>
<path fill="none" stroke="black" d="M972.903,-413.467C952.469,-394.831 918.584,-363.928 892.865,-340.471"/>
<polygon fill="black" stroke="black" points="894.916,-337.605 885.169,-333.453 890.199,-342.777 894.916,-337.605"/>
</g>
<!-- ODD_MULTIPLIER\nZHANG\nBAYES\nYULE_Y\nYULE_Q\nODDS_RATIO -->
<g id="node26" class="node"><title>ODD_MULTIPLIER\nZHANG\nBAYES\nYULE_Y\nYULE_Q\nODDS_RATIO</title>
<ellipse fill="none" stroke="black" cx="1055.84" cy="-307.529" rx="94.5053" ry="69.0935"/>
<text text-anchor="middle" x="1055.84" y="-341.329" font-family="Times,serif" font-size="14.00">ODD_MULTIPLIER</text>
<text text-anchor="middle" x="1055.84" y="-326.329" font-family="Times,serif" font-size="14.00">ZHANG</text>
<text text-anchor="middle" x="1055.84" y="-311.329" font-family="Times,serif" font-size="14.00">BAYES</text>
<text text-anchor="middle" x="1055.84" y="-296.329" font-family="Times,serif" font-size="14.00">YULE_Y</text>
<text text-anchor="middle" x="1055.84" y="-281.329" font-family="Times,serif" font-size="14.00">YULE_Q</text>
<text text-anchor="middle" x="1055.84" y="-266.329" font-family="Times,serif" font-size="14.00">ODDS_RATIO</text>
</g>
<!-- n18 (0.85 &#45; 8)&#45;&gt;ODD_MULTIPLIER\nZHANG\nBAYES\nYULE_Y\nYULE_Q\nODDS_RATIO -->
<g id="edge25" class="edge"><title>n18 (0.85 &#45; 8)&#45;&gt;ODD_MULTIPLIER\nZHANG\nBAYES\nYULE_Y\nYULE_Q\nODDS_RATIO</title>
<path fill="none" stroke="black" d="M999.878,-412.96C1004.49,-404.349 1010.46,-393.216 1016.77,-381.44"/>
<polygon fill="black" stroke="black" points="1020.01,-382.808 1021.64,-372.341 1013.84,-379.502 1020.01,-382.808"/>
</g>
<!-- n21 (0.77 &#45; 3) -->
<g id="node28" class="node"><title>n21 (0.77 &#45; 3)</title>
<ellipse fill="none" stroke="black" cx="1310.84" cy="-430.825" rx="59.5901" ry="18"/>
<text text-anchor="middle" x="1310.84" y="-427.125" font-family="Times,serif" font-size="14.00">n21 (0.77 &#45; 3)</text>
</g>
<!-- n28 (0.54 &#45; 14)&#45;&gt;n21 (0.77 &#45; 3) -->
<g id="edge27" class="edge"><title>n28 (0.54 &#45; 14)&#45;&gt;n21 (0.77 &#45; 3)</title>
<path fill="none" stroke="black" d="M1310.84,-484.522C1310.84,-476.808 1310.84,-467.538 1310.84,-458.938"/>
<polygon fill="black" stroke="black" points="1314.34,-458.93 1310.84,-448.93 1307.34,-458.93 1314.34,-458.93"/>
</g>
<!-- n23 (0.74 &#45; 11) -->
<g id="node31" class="node"><title>n23 (0.74 &#45; 11)</title>
<ellipse fill="none" stroke="black" cx="1623.84" cy="-430.825" rx="64.189" ry="18"/>
<text text-anchor="middle" x="1623.84" y="-427.125" font-family="Times,serif" font-size="14.00">n23 (0.74 &#45; 11)</text>
</g>
<!-- n28 (0.54 &#45; 14)&#45;&gt;n23 (0.74 &#45; 11) -->
<g id="edge30" class="edge"><title>n28 (0.54 &#45; 14)&#45;&gt;n23 (0.74 &#45; 11)</title>
<path fill="none" stroke="black" d="M1359.4,-490.965C1414.92,-478.55 1505.76,-458.234 1565.18,-444.945"/>
<polygon fill="black" stroke="black" points="1566.17,-448.31 1575.16,-442.712 1564.64,-441.479 1566.17,-448.31"/>
</g>
<!-- KLOSGEN -->
<g id="node29" class="node"><title>KLOSGEN</title>
<ellipse fill="none" stroke="black" cx="1220.84" cy="-307.529" rx="51.9908" ry="18"/>
<text text-anchor="middle" x="1220.84" y="-303.829" font-family="Times,serif" font-size="14.00">KLOSGEN</text>
</g>
<!-- n21 (0.77 &#45; 3)&#45;&gt;KLOSGEN -->
<g id="edge28" class="edge"><title>n21 (0.77 &#45; 3)&#45;&gt;KLOSGEN</title>
<path fill="none" stroke="black" d="M1298.33,-412.96C1283.01,-392.32 1256.95,-357.196 1239.32,-333.441"/>
<polygon fill="black" stroke="black" points="1242.02,-331.197 1233.25,-325.252 1236.4,-335.368 1242.02,-331.197"/>
</g>
<!-- GINI\nIMPLICATION_INDEX -->
<g id="node30" class="node"><title>GINI\nIMPLICATION_INDEX</title>
<ellipse fill="none" stroke="black" cx="1399.84" cy="-307.529" rx="108.789" ry="26.7407"/>
<text text-anchor="middle" x="1399.84" y="-311.329" font-family="Times,serif" font-size="14.00">GINI</text>
<text text-anchor="middle" x="1399.84" y="-296.329" font-family="Times,serif" font-size="14.00">IMPLICATION_INDEX</text>
</g>
<!-- n21 (0.77 &#45; 3)&#45;&gt;GINI\nIMPLICATION_INDEX -->
<g id="edge29" class="edge"><title>n21 (0.77 &#45; 3)&#45;&gt;GINI\nIMPLICATION_INDEX</title>
<path fill="none" stroke="black" d="M1323.22,-412.96C1336.57,-394.755 1358.2,-365.282 1375.08,-342.281"/>
<polygon fill="black" stroke="black" points="1377.96,-344.265 1381.05,-334.132 1372.32,-340.124 1377.96,-344.265"/>
</g>
<!-- ONE_WAY_SUPPORT -->
<g id="node32" class="node"><title>ONE_WAY_SUPPORT</title>
<ellipse fill="none" stroke="black" cx="1623.84" cy="-307.529" rx="97.4827" ry="18"/>
<text text-anchor="middle" x="1623.84" y="-303.829" font-family="Times,serif" font-size="14.00">ONE_WAY_SUPPORT</text>
</g>
<!-- n23 (0.74 &#45; 11)&#45;&gt;ONE_WAY_SUPPORT -->
<g id="edge31" class="edge"><title>n23 (0.74 &#45; 11)&#45;&gt;ONE_WAY_SUPPORT</title>
<path fill="none" stroke="black" d="M1623.84,-412.704C1623.84,-392.657 1623.84,-359.199 1623.84,-335.619"/>
<polygon fill="black" stroke="black" points="1627.34,-335.563 1623.84,-325.563 1620.34,-335.563 1627.34,-335.563"/>
</g>
<!-- n19 (0.82 &#45; 10) -->
<g id="node33" class="node"><title>n19 (0.82 &#45; 10)</title>
<ellipse fill="none" stroke="black" cx="1803.84" cy="-307.529" rx="64.189" ry="18"/>
<text text-anchor="middle" x="1803.84" y="-303.829" font-family="Times,serif" font-size="14.00">n19 (0.82 &#45; 10)</text>
</g>
<!-- n23 (0.74 &#45; 11)&#45;&gt;n19 (0.82 &#45; 10) -->
<g id="edge32" class="edge"><title>n23 (0.74 &#45; 11)&#45;&gt;n19 (0.82 &#45; 10)</title>
<path fill="none" stroke="black" d="M1658.63,-415.432C1680.01,-405.87 1707.49,-392.261 1729.84,-376.825 1748.53,-363.915 1767.31,-346.515 1781.28,-332.51"/>
<polygon fill="black" stroke="black" points="1784.01,-334.721 1788.51,-325.128 1779.01,-329.822 1784.01,-334.721"/>
</g>
<!-- LEAST_CONTRADICTION -->
<g id="node34" class="node"><title>LEAST_CONTRADICTION</title>
<ellipse fill="none" stroke="black" cx="1668.84" cy="-101.116" rx="114.28" ry="18"/>
<text text-anchor="middle" x="1668.84" y="-97.4163" font-family="Times,serif" font-size="14.00">LEAST_CONTRADICTION</text>
</g>
<!-- n19 (0.82 &#45; 10)&#45;&gt;LEAST_CONTRADICTION -->
<g id="edge33" class="edge"><title>n19 (0.82 &#45; 10)&#45;&gt;LEAST_CONTRADICTION</title>
<path fill="none" stroke="black" d="M1792.56,-289.452C1768.84,-253.53 1713.66,-169.982 1685.71,-127.661"/>
<polygon fill="black" stroke="black" points="1688.61,-125.704 1680.18,-119.288 1682.77,-129.561 1688.61,-125.704"/>
</g>
<!-- LEVERAGE\nSEBAG_SCHOENAUER\nCOUNTER_EXAMPLE_RATE\nCONFIDENCE\nCENTERED_CONFIDENCE\nADDED_VALUE\nLOEVINGER\nCONVICTION\nCERTAINTY_FACTOR -->
<g id="node35" class="node"><title>LEVERAGE\nSEBAG_SCHOENAUER\nCOUNTER_EXAMPLE_RATE\nCONFIDENCE\nCENTERED_CONFIDENCE\nADDED_VALUE\nLOEVINGER\nCONVICTION\nCERTAINTY_FACTOR</title>
<ellipse fill="none" stroke="black" cx="1938.84" cy="-101.116" rx="137.358" ry="101.233"/>
<text text-anchor="middle" x="1938.84" y="-157.416" font-family="Times,serif" font-size="14.00">LEVERAGE</text>
<text text-anchor="middle" x="1938.84" y="-142.416" font-family="Times,serif" font-size="14.00">SEBAG_SCHOENAUER</text>
<text text-anchor="middle" x="1938.84" y="-127.416" font-family="Times,serif" font-size="14.00">COUNTER_EXAMPLE_RATE</text>
<text text-anchor="middle" x="1938.84" y="-112.416" font-family="Times,serif" font-size="14.00">CONFIDENCE</text>
<text text-anchor="middle" x="1938.84" y="-97.4163" font-family="Times,serif" font-size="14.00">CENTERED_CONFIDENCE</text>
<text text-anchor="middle" x="1938.84" y="-82.4163" font-family="Times,serif" font-size="14.00">ADDED_VALUE</text>
<text text-anchor="middle" x="1938.84" y="-67.4163" font-family="Times,serif" font-size="14.00">LOEVINGER</text>
<text text-anchor="middle" x="1938.84" y="-52.4163" font-family="Times,serif" font-size="14.00">CONVICTION</text>
<text text-anchor="middle" x="1938.84" y="-37.4163" font-family="Times,serif" font-size="14.00">CERTAINTY_FACTOR</text>
</g>
<!-- n19 (0.82 &#45; 10)&#45;&gt;LEVERAGE\nSEBAG_SCHOENAUER\nCOUNTER_EXAMPLE_RATE\nCONFIDENCE\nCENTERED_CONFIDENCE\nADDED_VALUE\nLOEVINGER\nCONVICTION\nCERTAINTY_FACTOR -->
<g id="edge34" class="edge"><title>n19 (0.82 &#45; 10)&#45;&gt;LEVERAGE\nSEBAG_SCHOENAUER\nCOUNTER_EXAMPLE_RATE\nCONFIDENCE\nCENTERED_CONFIDENCE\nADDED_VALUE\nLOEVINGER\nCONVICTION\nCERTAINTY_FACTOR</title>
<path fill="none" stroke="black" d="M1815.12,-289.452C1828.26,-269.549 1851.06,-235.027 1873.54,-200.996"/>
<polygon fill="black" stroke="black" points="1876.65,-202.637 1879.24,-192.364 1870.81,-198.78 1876.65,-202.637"/>
</g>
</g>
</svg>
