<?xml version="1.0" encoding="UTF-8" standalone="no"?>
<!DOCTYPE svg PUBLIC "-//W3C//DTD SVG 1.1//EN"
 "http://www.w3.org/Graphics/SVG/1.1/DTD/svg11.dtd">
<!-- Generated by graphviz version 2.38.0 (20140413.2041)
 -->
<!-- Title: dendrogram Pages: 1 -->
<svg width="1178pt" height="975pt"
 viewBox="0.00 0.00 1177.78 974.70" xmlns="http://www.w3.org/2000/svg" xmlns:xlink="http://www.w3.org/1999/xlink">
<g id="graph0" class="graph" transform="scale(1 1) rotate(0) translate(4 970.698)">
<title>dendrogram</title>
<polygon fill="white" stroke="none" points="-4,4 -4,-970.698 1173.78,-970.698 1173.78,4 -4,4"/>
<!-- n34 (0.45 &#45; 36) -->
<g id="node1" class="node"><title>n34 (0.45 &#45; 36)</title>
<ellipse fill="none" stroke="black" cx="420.602" cy="-948.698" rx="64.189" ry="18"/>
<text text-anchor="middle" x="420.602" y="-944.998" font-family="Times,serif" font-size="14.00">n34 (0.45 &#45; 36)</text>
</g>
<!-- n32 (0.76 &#45; 4) -->
<g id="node2" class="node"><title>n32 (0.76 &#45; 4)</title>
<ellipse fill="none" stroke="black" cx="296.602" cy="-876.698" rx="59.5901" ry="18"/>
<text text-anchor="middle" x="296.602" y="-872.998" font-family="Times,serif" font-size="14.00">n32 (0.76 &#45; 4)</text>
</g>
<!-- n34 (0.45 &#45; 36)&#45;&gt;n32 (0.76 &#45; 4) -->
<g id="edge1" class="edge"><title>n34 (0.45 &#45; 36)&#45;&gt;n32 (0.76 &#45; 4)</title>
<path fill="none" stroke="black" d="M393.389,-932.336C375.541,-922.26 352.006,-908.975 332.614,-898.027"/>
<polygon fill="black" stroke="black" points="334.179,-894.892 323.75,-893.024 330.738,-900.987 334.179,-894.892"/>
</g>
<!-- n33 (0.67 &#45; 32) -->
<g id="node7" class="node"><title>n33 (0.67 &#45; 32)</title>
<ellipse fill="none" stroke="black" cx="492.602" cy="-876.698" rx="64.189" ry="18"/>
<text text-anchor="middle" x="492.602" y="-872.998" font-family="Times,serif" font-size="14.00">n33 (0.67 &#45; 32)</text>
</g>
<!-- n34 (0.45 &#45; 36)&#45;&gt;n33 (0.67 &#45; 32) -->
<g id="edge6" class="edge"><title>n34 (0.45 &#45; 36)&#45;&gt;n33 (0.67 &#45; 32)</title>
<path fill="none" stroke="black" d="M437.665,-931.109C446.811,-922.217 458.236,-911.108 468.295,-901.329"/>
<polygon fill="black" stroke="black" points="470.931,-903.648 475.661,-894.168 466.051,-898.629 470.931,-903.648"/>
</g>
<!-- PIATETSKY_SHAPIRO\nSPECIFICITY -->
<g id="node3" class="node"><title>PIATETSKY_SHAPIRO\nSPECIFICITY</title>
<ellipse fill="none" stroke="black" cx="109.602" cy="-795.828" rx="109.703" ry="26.7407"/>
<text text-anchor="middle" x="109.602" y="-799.628" font-family="Times,serif" font-size="14.00">PIATETSKY_SHAPIRO</text>
<text text-anchor="middle" x="109.602" y="-784.628" font-family="Times,serif" font-size="14.00">SPECIFICITY</text>
</g>
<!-- n32 (0.76 &#45; 4)&#45;&gt;PIATETSKY_SHAPIRO\nSPECIFICITY -->
<g id="edge2" class="edge"><title>n32 (0.76 &#45; 4)&#45;&gt;PIATETSKY_SHAPIRO\nSPECIFICITY</title>
<path fill="none" stroke="black" d="M263.17,-861.597C237.94,-850.956 202.592,-836.048 172.168,-823.216"/>
<polygon fill="black" stroke="black" points="173.475,-819.969 162.901,-819.307 170.755,-826.418 173.475,-819.969"/>
</g>
<!-- n26 (0.87 &#45; 2) -->
<g id="node4" class="node"><title>n26 (0.87 &#45; 2)</title>
<ellipse fill="none" stroke="black" cx="296.602" cy="-795.828" rx="59.5901" ry="18"/>
<text text-anchor="middle" x="296.602" y="-792.128" font-family="Times,serif" font-size="14.00">n26 (0.87 &#45; 2)</text>
</g>
<!-- n32 (0.76 &#45; 4)&#45;&gt;n26 (0.87 &#45; 2) -->
<g id="edge3" class="edge"><title>n32 (0.76 &#45; 4)&#45;&gt;n26 (0.87 &#45; 2)</title>
<path fill="none" stroke="black" d="M296.602,-858.584C296.602,-848.559 296.602,-835.664 296.602,-824.252"/>
<polygon fill="black" stroke="black" points="300.102,-823.908 296.602,-813.908 293.102,-823.908 300.102,-823.908"/>
</g>
<!-- COLLECTIVE_STRENGH -->
<g id="node5" class="node"><title>COLLECTIVE_STRENGH</title>
<ellipse fill="none" stroke="black" cx="123.602" cy="-536.382" rx="109.681" ry="18"/>
<text text-anchor="middle" x="123.602" y="-532.682" font-family="Times,serif" font-size="14.00">COLLECTIVE_STRENGH</text>
</g>
<!-- n26 (0.87 &#45; 2)&#45;&gt;COLLECTIVE_STRENGH -->
<g id="edge4" class="edge"><title>n26 (0.87 &#45; 2)&#45;&gt;COLLECTIVE_STRENGH</title>
<path fill="none" stroke="black" d="M280.891,-778.408C269.654,-766.298 254.479,-749.176 242.602,-732.958 200.279,-675.166 158.567,-601.813 137.583,-563.452"/>
<polygon fill="black" stroke="black" points="140.558,-561.598 132.707,-554.484 134.409,-564.942 140.558,-561.598"/>
</g>
<!-- RECALL -->
<g id="node6" class="node"><title>RECALL</title>
<ellipse fill="none" stroke="black" cx="296.602" cy="-536.382" rx="44.6926" ry="18"/>
<text text-anchor="middle" x="296.602" y="-532.682" font-family="Times,serif" font-size="14.00">RECALL</text>
</g>
<!-- n26 (0.87 &#45; 2)&#45;&gt;RECALL -->
<g id="edge5" class="edge"><title>n26 (0.87 &#45; 2)&#45;&gt;RECALL</title>
<path fill="none" stroke="black" d="M296.602,-777.536C296.602,-733.659 296.602,-617.726 296.602,-564.632"/>
<polygon fill="black" stroke="black" points="300.102,-564.598 296.602,-554.598 293.102,-564.598 300.102,-564.598"/>
</g>
<!-- n31 (0.76 &#45; 12) -->
<g id="node8" class="node"><title>n31 (0.76 &#45; 12)</title>
<ellipse fill="none" stroke="black" cx="492.602" cy="-795.828" rx="64.189" ry="18"/>
<text text-anchor="middle" x="492.602" y="-792.128" font-family="Times,serif" font-size="14.00">n31 (0.76 &#45; 12)</text>
</g>
<!-- n33 (0.67 &#45; 32)&#45;&gt;n31 (0.76 &#45; 12) -->
<g id="edge7" class="edge"><title>n33 (0.67 &#45; 32)&#45;&gt;n31 (0.76 &#45; 12)</title>
<path fill="none" stroke="black" d="M492.602,-858.584C492.602,-848.559 492.602,-835.664 492.602,-824.252"/>
<polygon fill="black" stroke="black" points="496.102,-823.908 492.602,-813.908 489.102,-823.908 496.102,-823.908"/>
</g>
<!-- n27 (0.87 &#45; 20) -->
<g id="node19" class="node"><title>n27 (0.87 &#45; 20)</title>
<ellipse fill="none" stroke="black" cx="752.602" cy="-795.828" rx="64.189" ry="18"/>
<text text-anchor="middle" x="752.602" y="-792.128" font-family="Times,serif" font-size="14.00">n27 (0.87 &#45; 20)</text>
</g>
<!-- n33 (0.67 &#45; 32)&#45;&gt;n27 (0.87 &#45; 20) -->
<g id="edge18" class="edge"><title>n33 (0.67 &#45; 32)&#45;&gt;n27 (0.87 &#45; 20)</title>
<path fill="none" stroke="black" d="M534.664,-862.938C579.977,-849.193 652.123,-827.307 700.873,-812.519"/>
<polygon fill="black" stroke="black" points="702.046,-815.821 710.6,-809.569 700.014,-809.122 702.046,-815.821"/>
</g>
<!-- KLOSGEN -->
<g id="node9" class="node"><title>KLOSGEN</title>
<ellipse fill="none" stroke="black" cx="411.602" cy="-536.382" rx="51.9908" ry="18"/>
<text text-anchor="middle" x="411.602" y="-532.682" font-family="Times,serif" font-size="14.00">KLOSGEN</text>
</g>
<!-- n31 (0.76 &#45; 12)&#45;&gt;KLOSGEN -->
<g id="edge8" class="edge"><title>n31 (0.76 &#45; 12)&#45;&gt;KLOSGEN</title>
<path fill="none" stroke="black" d="M487.036,-777.773C482.997,-765.356 477.419,-748.128 472.602,-732.958 453.462,-672.69 431.487,-601.806 419.845,-564.118"/>
<polygon fill="black" stroke="black" points="423.14,-562.927 416.846,-554.405 416.452,-564.992 423.14,-562.927"/>
</g>
<!-- n30 (0.80 &#45; 11) -->
<g id="node10" class="node"><title>n30 (0.80 &#45; 11)</title>
<ellipse fill="none" stroke="black" cx="545.602" cy="-536.382" rx="64.189" ry="18"/>
<text text-anchor="middle" x="545.602" y="-532.682" font-family="Times,serif" font-size="14.00">n30 (0.80 &#45; 11)</text>
</g>
<!-- n31 (0.76 &#45; 12)&#45;&gt;n30 (0.80 &#45; 11) -->
<g id="edge9" class="edge"><title>n31 (0.76 &#45; 12)&#45;&gt;n30 (0.80 &#45; 11)</title>
<path fill="none" stroke="black" d="M496.161,-777.536C505.194,-733.659 529.061,-617.726 539.991,-564.632"/>
<polygon fill="black" stroke="black" points="543.469,-565.098 542.057,-554.598 536.613,-563.687 543.469,-565.098"/>
</g>
<!-- n29 (0.82 &#45; 3) -->
<g id="node11" class="node"><title>n29 (0.82 &#45; 3)</title>
<ellipse fill="none" stroke="black" cx="476.602" cy="-285.806" rx="59.5901" ry="18"/>
<text text-anchor="middle" x="476.602" y="-282.106" font-family="Times,serif" font-size="14.00">n29 (0.82 &#45; 3)</text>
</g>
<!-- n30 (0.80 &#45; 11)&#45;&gt;n29 (0.82 &#45; 3) -->
<g id="edge10" class="edge"><title>n30 (0.80 &#45; 11)&#45;&gt;n29 (0.82 &#45; 3)</title>
<path fill="none" stroke="black" d="M540.859,-518.296C529.066,-475.812 498.344,-365.133 484.08,-313.746"/>
<polygon fill="black" stroke="black" points="487.425,-312.711 481.377,-304.011 480.68,-314.583 487.425,-312.711"/>
</g>
<!-- n28 (0.84 &#45; 8) -->
<g id="node16" class="node"><title>n28 (0.84 &#45; 8)</title>
<ellipse fill="none" stroke="black" cx="614.602" cy="-285.806" rx="59.5901" ry="18"/>
<text text-anchor="middle" x="614.602" y="-282.106" font-family="Times,serif" font-size="14.00">n28 (0.84 &#45; 8)</text>
</g>
<!-- n30 (0.80 &#45; 11)&#45;&gt;n28 (0.84 &#45; 8) -->
<g id="edge15" class="edge"><title>n30 (0.80 &#45; 11)&#45;&gt;n28 (0.84 &#45; 8)</title>
<path fill="none" stroke="black" d="M550.344,-518.296C562.137,-475.812 592.86,-365.133 607.124,-313.746"/>
<polygon fill="black" stroke="black" points="610.523,-314.583 609.826,-304.011 603.778,-312.711 610.523,-314.583"/>
</g>
<!-- JACCARD -->
<g id="node12" class="node"><title>JACCARD</title>
<ellipse fill="none" stroke="black" cx="354.602" cy="-151.903" rx="50.8918" ry="18"/>
<text text-anchor="middle" x="354.602" y="-148.203" font-family="Times,serif" font-size="14.00">JACCARD</text>
</g>
<!-- n29 (0.82 &#45; 3)&#45;&gt;JACCARD -->
<g id="edge11" class="edge"><title>n29 (0.82 &#45; 3)&#45;&gt;JACCARD</title>
<path fill="none" stroke="black" d="M455.403,-268.975C442.652,-258.979 426.456,-245.42 413.602,-231.806 397.847,-215.122 382.402,-194.255 371.269,-178.172"/>
<polygon fill="black" stroke="black" points="374.077,-176.078 365.552,-169.786 368.293,-180.02 374.077,-176.078"/>
</g>
<!-- n25 (0.88 &#45; 2) -->
<g id="node13" class="node"><title>n25 (0.88 &#45; 2)</title>
<ellipse fill="none" stroke="black" cx="482.602" cy="-151.903" rx="59.5901" ry="18"/>
<text text-anchor="middle" x="482.602" y="-148.203" font-family="Times,serif" font-size="14.00">n25 (0.88 &#45; 2)</text>
</g>
<!-- n29 (0.82 &#45; 3)&#45;&gt;n25 (0.88 &#45; 2) -->
<g id="edge12" class="edge"><title>n29 (0.82 &#45; 3)&#45;&gt;n25 (0.88 &#45; 2)</title>
<path fill="none" stroke="black" d="M477.386,-267.562C478.397,-245.344 480.165,-206.463 481.36,-180.208"/>
<polygon fill="black" stroke="black" points="484.859,-180.3 481.817,-170.151 477.866,-179.982 484.859,-180.3"/>
</g>
<!-- TWO_WAY_SUPPORT -->
<g id="node14" class="node"><title>TWO_WAY_SUPPORT</title>
<ellipse fill="none" stroke="black" cx="402.602" cy="-18" rx="100.182" ry="18"/>
<text text-anchor="middle" x="402.602" y="-14.3" font-family="Times,serif" font-size="14.00">TWO_WAY_SUPPORT</text>
</g>
<!-- n25 (0.88 &#45; 2)&#45;&gt;TWO_WAY_SUPPORT -->
<g id="edge13" class="edge"><title>n25 (0.88 &#45; 2)&#45;&gt;TWO_WAY_SUPPORT</title>
<path fill="none" stroke="black" d="M472.307,-133.929C458.566,-111.273 434.111,-70.9517 418.126,-44.5966"/>
<polygon fill="black" stroke="black" points="421.035,-42.6441 412.857,-35.9088 415.05,-46.2742 421.035,-42.6441"/>
</g>
<!-- COSINE -->
<g id="node15" class="node"><title>COSINE</title>
<ellipse fill="none" stroke="black" cx="562.602" cy="-18" rx="42.4939" ry="18"/>
<text text-anchor="middle" x="562.602" y="-14.3" font-family="Times,serif" font-size="14.00">COSINE</text>
</g>
<!-- n25 (0.88 &#45; 2)&#45;&gt;COSINE -->
<g id="edge14" class="edge"><title>n25 (0.88 &#45; 2)&#45;&gt;COSINE</title>
<path fill="none" stroke="black" d="M492.896,-133.929C506.713,-111.149 531.362,-70.5081 547.34,-44.1635"/>
<polygon fill="black" stroke="black" points="550.405,-45.8593 552.598,-35.494 544.419,-42.2293 550.405,-45.8593"/>
</g>
<!-- KAPPA -->
<g id="node17" class="node"><title>KAPPA</title>
<ellipse fill="none" stroke="black" cx="609.602" cy="-151.903" rx="39.7935" ry="18"/>
<text text-anchor="middle" x="609.602" y="-148.203" font-family="Times,serif" font-size="14.00">KAPPA</text>
</g>
<!-- n28 (0.84 &#45; 8)&#45;&gt;KAPPA -->
<g id="edge16" class="edge"><title>n28 (0.84 &#45; 8)&#45;&gt;KAPPA</title>
<path fill="none" stroke="black" d="M613.948,-267.562C613.106,-245.344 611.632,-206.463 610.637,-180.208"/>
<polygon fill="black" stroke="black" points="614.132,-180.012 610.255,-170.151 607.137,-180.277 614.132,-180.012"/>
</g>
<!-- J_MEASURE\nTWO_WAY_SUPPORT_VARIATION\nFISHER_PVAL\nIMPLICATION_INDEX\nPHI\nGINI\nCHI_SQUARE -->
<g id="node18" class="node"><title>J_MEASURE\nTWO_WAY_SUPPORT_VARIATION\nFISHER_PVAL\nIMPLICATION_INDEX\nPHI\nGINI\nCHI_SQUARE</title>
<ellipse fill="none" stroke="black" cx="834.602" cy="-151.903" rx="166.754" ry="79.8063"/>
<text text-anchor="middle" x="834.602" y="-193.203" font-family="Times,serif" font-size="14.00">J_MEASURE</text>
<text text-anchor="middle" x="834.602" y="-178.203" font-family="Times,serif" font-size="14.00">TWO_WAY_SUPPORT_VARIATION</text>
<text text-anchor="middle" x="834.602" y="-163.203" font-family="Times,serif" font-size="14.00">FISHER_PVAL</text>
<text text-anchor="middle" x="834.602" y="-148.203" font-family="Times,serif" font-size="14.00">IMPLICATION_INDEX</text>
<text text-anchor="middle" x="834.602" y="-133.203" font-family="Times,serif" font-size="14.00">PHI</text>
<text text-anchor="middle" x="834.602" y="-118.203" font-family="Times,serif" font-size="14.00">GINI</text>
<text text-anchor="middle" x="834.602" y="-103.203" font-family="Times,serif" font-size="14.00">CHI_SQUARE</text>
</g>
<!-- n28 (0.84 &#45; 8)&#45;&gt;J_MEASURE\nTWO_WAY_SUPPORT_VARIATION\nFISHER_PVAL\nIMPLICATION_INDEX\nPHI\nGINI\nCHI_SQUARE -->
<g id="edge17" class="edge"><title>n28 (0.84 &#45; 8)&#45;&gt;J_MEASURE\nTWO_WAY_SUPPORT_VARIATION\nFISHER_PVAL\nIMPLICATION_INDEX\nPHI\nGINI\nCHI_SQUARE</title>
<path fill="none" stroke="black" d="M640.269,-269.417C660.99,-256.993 691.689,-238.587 722.599,-220.055"/>
<polygon fill="black" stroke="black" points="724.538,-222.973 731.315,-214.829 720.939,-216.97 724.538,-222.973"/>
</g>
<!-- LEAST_CONTRADICTION\nACCURACY -->
<g id="node20" class="node"><title>LEAST_CONTRADICTION\nACCURACY</title>
<ellipse fill="none" stroke="black" cx="752.602" cy="-536.382" rx="124.402" ry="26.7407"/>
<text text-anchor="middle" x="752.602" y="-540.182" font-family="Times,serif" font-size="14.00">LEAST_CONTRADICTION</text>
<text text-anchor="middle" x="752.602" y="-525.182" font-family="Times,serif" font-size="14.00">ACCURACY</text>
</g>
<!-- n27 (0.87 &#45; 20)&#45;&gt;LEAST_CONTRADICTION\nACCURACY -->
<g id="edge19" class="edge"><title>n27 (0.87 &#45; 20)&#45;&gt;LEAST_CONTRADICTION\nACCURACY</title>
<path fill="none" stroke="black" d="M752.602,-777.536C752.602,-736.018 752.602,-629.982 752.602,-573.719"/>
<polygon fill="black" stroke="black" points="756.102,-573.491 752.602,-563.491 749.102,-573.491 756.102,-573.491"/>
</g>
<!-- RELATIVE_RISK\nYULE_Y\nYULE_Q\nODDS_RATIO\nLEVERAGE\nONE_WAY_SUPPORT\nLOEVINGER\nSEBAG_SCHOENAUER\nCONVICTION\nODD_MULTIPLIER\nCOUNTER_EXAMPLE_RATE\nZHANG\nBAYES\nCENTERED_CONFIDENCE\nCERTAINTY_FACTOR\nADDED_VALUE\nLIFT\nCONFIDENCE -->
<g id="node21" class="node"><title>RELATIVE_RISK\nYULE_Y\nYULE_Q\nODDS_RATIO\nLEVERAGE\nONE_WAY_SUPPORT\nLOEVINGER\nSEBAG_SCHOENAUER\nCONVICTION\nODD_MULTIPLIER\nCOUNTER_EXAMPLE_RATE\nZHANG\nBAYES\nCENTERED_CONFIDENCE\nCERTAINTY_FACTOR\nADDED_VALUE\nLIFT\nCONFIDENCE</title>
<ellipse fill="none" stroke="black" cx="1032.6" cy="-536.382" rx="137.358" ry="196.651"/>
<text text-anchor="middle" x="1032.6" y="-660.182" font-family="Times,serif" font-size="14.00">RELATIVE_RISK</text>
<text text-anchor="middle" x="1032.6" y="-645.182" font-family="Times,serif" font-size="14.00">YULE_Y</text>
<text text-anchor="middle" x="1032.6" y="-630.182" font-family="Times,serif" font-size="14.00">YULE_Q</text>
<text text-anchor="middle" x="1032.6" y="-615.182" font-family="Times,serif" font-size="14.00">ODDS_RATIO</text>
<text text-anchor="middle" x="1032.6" y="-600.182" font-family="Times,serif" font-size="14.00">LEVERAGE</text>
<text text-anchor="middle" x="1032.6" y="-585.182" font-family="Times,serif" font-size="14.00">ONE_WAY_SUPPORT</text>
<text text-anchor="middle" x="1032.6" y="-570.182" font-family="Times,serif" font-size="14.00">LOEVINGER</text>
<text text-anchor="middle" x="1032.6" y="-555.182" font-family="Times,serif" font-size="14.00">SEBAG_SCHOENAUER</text>
<text text-anchor="middle" x="1032.6" y="-540.182" font-family="Times,serif" font-size="14.00">CONVICTION</text>
<text text-anchor="middle" x="1032.6" y="-525.182" font-family="Times,serif" font-size="14.00">ODD_MULTIPLIER</text>
<text text-anchor="middle" x="1032.6" y="-510.182" font-family="Times,serif" font-size="14.00">COUNTER_EXAMPLE_RATE</text>
<text text-anchor="middle" x="1032.6" y="-495.182" font-family="Times,serif" font-size="14.00">ZHANG</text>
<text text-anchor="middle" x="1032.6" y="-480.182" font-family="Times,serif" font-size="14.00">BAYES</text>
<text text-anchor="middle" x="1032.6" y="-465.182" font-family="Times,serif" font-size="14.00">CENTERED_CONFIDENCE</text>
<text text-anchor="middle" x="1032.6" y="-450.182" font-family="Times,serif" font-size="14.00">CERTAINTY_FACTOR</text>
<text text-anchor="middle" x="1032.6" y="-435.182" font-family="Times,serif" font-size="14.00">ADDED_VALUE</text>
<text text-anchor="middle" x="1032.6" y="-420.182" font-family="Times,serif" font-size="14.00">LIFT</text>
<text text-anchor="middle" x="1032.6" y="-405.182" font-family="Times,serif" font-size="14.00">CONFIDENCE</text>
</g>
<!-- n27 (0.87 &#45; 20)&#45;&gt;RELATIVE_RISK\nYULE_Y\nYULE_Q\nODDS_RATIO\nLEVERAGE\nONE_WAY_SUPPORT\nLOEVINGER\nSEBAG_SCHOENAUER\nCONVICTION\nODD_MULTIPLIER\nCOUNTER_EXAMPLE_RATE\nZHANG\nBAYES\nCENTERED_CONFIDENCE\nCERTAINTY_FACTOR\nADDED_VALUE\nLIFT\nCONFIDENCE -->
<g id="edge20" class="edge"><title>n27 (0.87 &#45; 20)&#45;&gt;RELATIVE_RISK\nYULE_Y\nYULE_Q\nODDS_RATIO\nLEVERAGE\nONE_WAY_SUPPORT\nLOEVINGER\nSEBAG_SCHOENAUER\nCONVICTION\nODD_MULTIPLIER\nCOUNTER_EXAMPLE_RATE\nZHANG\nBAYES\nCENTERED_CONFIDENCE\nCERTAINTY_FACTOR\nADDED_VALUE\nLIFT\nCONFIDENCE</title>
<path fill="none" stroke="black" d="M793.314,-781.833C821.249,-771.564 858.095,-755.239 885.602,-732.958 902.059,-719.626 917.683,-704.068 932.173,-687.657"/>
<polygon fill="black" stroke="black" points="934.849,-689.912 938.749,-680.061 929.557,-685.33 934.849,-689.912"/>
</g>
</g>
</svg>
