<?xml version="1.0" encoding="UTF-8" standalone="no"?>
<!DOCTYPE svg PUBLIC "-//W3C//DTD SVG 1.1//EN"
 "http://www.w3.org/Graphics/SVG/1.1/DTD/svg11.dtd">
<!-- Generated by graphviz version 2.38.0 (20140413.2041)
 -->
<!-- Title: dendrogram Pages: 1 -->
<svg width="1194pt" height="971pt"
 viewBox="0.00 0.00 1193.60 971.22" xmlns="http://www.w3.org/2000/svg" xmlns:xlink="http://www.w3.org/1999/xlink">
<g id="graph0" class="graph" transform="scale(1 1) rotate(0) translate(4 967.225)">
<title>dendrogram</title>
<polygon fill="white" stroke="none" points="-4,4 -4,-967.225 1189.6,-967.225 1189.6,4 -4,4"/>
<!-- n34 (0.11 &#45; 36) -->
<g id="node1" class="node"><title>n34 (0.11 &#45; 36)</title>
<ellipse fill="none" stroke="black" cx="520.995" cy="-945.225" rx="64.189" ry="18"/>
<text text-anchor="middle" x="520.995" y="-941.525" font-family="Times,serif" font-size="14.00">n34 (0.11 &#45; 36)</text>
</g>
<!-- n33 (0.30 &#45; 16) -->
<g id="node2" class="node"><title>n33 (0.30 &#45; 16)</title>
<ellipse fill="none" stroke="black" cx="417.995" cy="-873.225" rx="64.189" ry="18"/>
<text text-anchor="middle" x="417.995" y="-869.525" font-family="Times,serif" font-size="14.00">n33 (0.30 &#45; 16)</text>
</g>
<!-- n34 (0.11 &#45; 36)&#45;&gt;n33 (0.30 &#45; 16) -->
<g id="edge1" class="edge"><title>n34 (0.11 &#45; 36)&#45;&gt;n33 (0.30 &#45; 16)</title>
<path fill="none" stroke="black" d="M497.623,-928.34C483.4,-918.675 465.049,-906.203 449.549,-895.669"/>
<polygon fill="black" stroke="black" points="451.513,-892.772 441.275,-890.046 447.579,-898.561 451.513,-892.772"/>
</g>
<!-- n30 (0.58 &#45; 20) -->
<g id="node19" class="node"><title>n30 (0.58 &#45; 20)</title>
<ellipse fill="none" stroke="black" cx="624.995" cy="-873.225" rx="64.189" ry="18"/>
<text text-anchor="middle" x="624.995" y="-869.525" font-family="Times,serif" font-size="14.00">n30 (0.58 &#45; 20)</text>
</g>
<!-- n34 (0.11 &#45; 36)&#45;&gt;n30 (0.58 &#45; 20) -->
<g id="edge18" class="edge"><title>n34 (0.11 &#45; 36)&#45;&gt;n30 (0.58 &#45; 20)</title>
<path fill="none" stroke="black" d="M544.595,-928.34C558.955,-918.675 577.485,-906.203 593.136,-895.669"/>
<polygon fill="black" stroke="black" points="595.148,-898.533 601.49,-890.046 591.239,-892.726 595.148,-898.533"/>
</g>
<!-- n26 (0.82 &#45; 6) -->
<g id="node3" class="node"><title>n26 (0.82 &#45; 6)</title>
<ellipse fill="none" stroke="black" cx="230.995" cy="-622.649" rx="59.5901" ry="18"/>
<text text-anchor="middle" x="230.995" y="-618.949" font-family="Times,serif" font-size="14.00">n26 (0.82 &#45; 6)</text>
</g>
<!-- n33 (0.30 &#45; 16)&#45;&gt;n26 (0.82 &#45; 6) -->
<g id="edge2" class="edge"><title>n33 (0.30 &#45; 16)&#45;&gt;n26 (0.82 &#45; 6)</title>
<path fill="none" stroke="black" d="M391.231,-856.651C376.408,-847.135 358.338,-833.976 344.995,-819.225 296.996,-766.156 259.608,-689.647 242.017,-649.883"/>
<polygon fill="black" stroke="black" points="245.177,-648.373 237.977,-640.602 238.759,-651.167 245.177,-648.373"/>
</g>
<!-- n32 (0.45 &#45; 10) -->
<g id="node6" class="node"><title>n32 (0.45 &#45; 10)</title>
<ellipse fill="none" stroke="black" cx="417.995" cy="-622.649" rx="64.189" ry="18"/>
<text text-anchor="middle" x="417.995" y="-618.949" font-family="Times,serif" font-size="14.00">n32 (0.45 &#45; 10)</text>
</g>
<!-- n33 (0.30 &#45; 16)&#45;&gt;n32 (0.45 &#45; 10) -->
<g id="edge5" class="edge"><title>n33 (0.30 &#45; 16)&#45;&gt;n32 (0.45 &#45; 10)</title>
<path fill="none" stroke="black" d="M417.995,-855.139C417.995,-812.744 417.995,-702.437 417.995,-650.911"/>
<polygon fill="black" stroke="black" points="421.495,-650.854 417.995,-640.854 414.495,-650.854 421.495,-650.854"/>
</g>
<!-- KLOSGEN -->
<g id="node4" class="node"><title>KLOSGEN</title>
<ellipse fill="none" stroke="black" cx="51.9954" cy="-331.383" rx="51.9908" ry="18"/>
<text text-anchor="middle" x="51.9954" y="-327.683" font-family="Times,serif" font-size="14.00">KLOSGEN</text>
</g>
<!-- n26 (0.82 &#45; 6)&#45;&gt;KLOSGEN -->
<g id="edge3" class="edge"><title>n26 (0.82 &#45; 6)&#45;&gt;KLOSGEN</title>
<path fill="none" stroke="black" d="M220.598,-604.846C190.568,-556.317 103.568,-415.726 67.7194,-357.793"/>
<polygon fill="black" stroke="black" points="70.66,-355.894 62.4216,-349.232 64.7075,-359.577 70.66,-355.894"/>
</g>
<!-- COSINE\nGINI\nPHI\nCHI_SQUARE\nIMPLICATION_INDEX -->
<g id="node5" class="node"><title>COSINE\nGINI\nPHI\nCHI_SQUARE\nIMPLICATION_INDEX</title>
<ellipse fill="none" stroke="black" cx="230.995" cy="-331.383" rx="108.789" ry="58.8803"/>
<text text-anchor="middle" x="230.995" y="-357.683" font-family="Times,serif" font-size="14.00">COSINE</text>
<text text-anchor="middle" x="230.995" y="-342.683" font-family="Times,serif" font-size="14.00">GINI</text>
<text text-anchor="middle" x="230.995" y="-327.683" font-family="Times,serif" font-size="14.00">PHI</text>
<text text-anchor="middle" x="230.995" y="-312.683" font-family="Times,serif" font-size="14.00">CHI_SQUARE</text>
<text text-anchor="middle" x="230.995" y="-297.683" font-family="Times,serif" font-size="14.00">IMPLICATION_INDEX</text>
</g>
<!-- n26 (0.82 &#45; 6)&#45;&gt;COSINE\nGINI\nPHI\nCHI_SQUARE\nIMPLICATION_INDEX -->
<g id="edge4" class="edge"><title>n26 (0.82 &#45; 6)&#45;&gt;COSINE\nGINI\nPHI\nCHI_SQUARE\nIMPLICATION_INDEX</title>
<path fill="none" stroke="black" d="M230.995,-604.42C230.995,-565.144 230.995,-467.197 230.995,-400.211"/>
<polygon fill="black" stroke="black" points="234.495,-400.152 230.995,-390.152 227.495,-400.152 234.495,-400.152"/>
</g>
<!-- n29 (0.71 &#45; 5) -->
<g id="node7" class="node"><title>n29 (0.71 &#45; 5)</title>
<ellipse fill="none" stroke="black" cx="417.995" cy="-331.383" rx="59.5901" ry="18"/>
<text text-anchor="middle" x="417.995" y="-327.683" font-family="Times,serif" font-size="14.00">n29 (0.71 &#45; 5)</text>
</g>
<!-- n32 (0.45 &#45; 10)&#45;&gt;n29 (0.71 &#45; 5) -->
<g id="edge6" class="edge"><title>n32 (0.45 &#45; 10)&#45;&gt;n29 (0.71 &#45; 5)</title>
<path fill="none" stroke="black" d="M417.995,-604.42C417.995,-555.986 417.995,-418.333 417.995,-359.542"/>
<polygon fill="black" stroke="black" points="421.495,-359.522 417.995,-349.522 414.495,-359.522 421.495,-359.522"/>
</g>
<!-- n31 (0.53 &#45; 5) -->
<g id="node12" class="node"><title>n31 (0.53 &#45; 5)</title>
<ellipse fill="none" stroke="black" cx="712.995" cy="-331.383" rx="59.5901" ry="18"/>
<text text-anchor="middle" x="712.995" y="-327.683" font-family="Times,serif" font-size="14.00">n31 (0.53 &#45; 5)</text>
</g>
<!-- n32 (0.45 &#45; 10)&#45;&gt;n31 (0.53 &#45; 5) -->
<g id="edge11" class="edge"><title>n32 (0.45 &#45; 10)&#45;&gt;n31 (0.53 &#45; 5)</title>
<path fill="none" stroke="black" d="M419.92,-604.624C424.982,-567.443 441.924,-478.15 491.995,-426.073 535.501,-380.826 604.318,-356.389 653.6,-343.938"/>
<polygon fill="black" stroke="black" points="654.603,-347.297 663.493,-341.533 652.949,-340.495 654.603,-347.297"/>
</g>
<!-- n28 (0.80 &#45; 2) -->
<g id="node8" class="node"><title>n28 (0.80 &#45; 2)</title>
<ellipse fill="none" stroke="black" cx="172.995" cy="-199.217" rx="59.5901" ry="18"/>
<text text-anchor="middle" x="172.995" y="-195.517" font-family="Times,serif" font-size="14.00">n28 (0.80 &#45; 2)</text>
</g>
<!-- n29 (0.71 &#45; 5)&#45;&gt;n28 (0.80 &#45; 2) -->
<g id="edge7" class="edge"><title>n29 (0.71 &#45; 5)&#45;&gt;n28 (0.80 &#45; 2)</title>
<path fill="none" stroke="black" d="M402.013,-314.013C388.801,-301.265 369.023,-283.908 348.995,-272.693 305.217,-248.179 288.103,-256.483 241.995,-236.693 230.824,-231.899 219.008,-225.984 208.371,-220.324"/>
<polygon fill="black" stroke="black" points="209.833,-217.136 199.373,-215.45 206.499,-223.291 209.833,-217.136"/>
</g>
<!-- J_MEASURE\nTWO_WAY_SUPPORT_VARIATION\nFISHER_PVAL -->
<g id="node11" class="node"><title>J_MEASURE\nTWO_WAY_SUPPORT_VARIATION\nFISHER_PVAL</title>
<ellipse fill="none" stroke="black" cx="417.995" cy="-199.217" rx="166.754" ry="37.4533"/>
<text text-anchor="middle" x="417.995" y="-210.517" font-family="Times,serif" font-size="14.00">J_MEASURE</text>
<text text-anchor="middle" x="417.995" y="-195.517" font-family="Times,serif" font-size="14.00">TWO_WAY_SUPPORT_VARIATION</text>
<text text-anchor="middle" x="417.995" y="-180.517" font-family="Times,serif" font-size="14.00">FISHER_PVAL</text>
</g>
<!-- n29 (0.71 &#45; 5)&#45;&gt;J_MEASURE\nTWO_WAY_SUPPORT_VARIATION\nFISHER_PVAL -->
<g id="edge10" class="edge"><title>n29 (0.71 &#45; 5)&#45;&gt;J_MEASURE\nTWO_WAY_SUPPORT_VARIATION\nFISHER_PVAL</title>
<path fill="none" stroke="black" d="M417.995,-313.366C417.995,-296.498 417.995,-269.897 417.995,-246.725"/>
<polygon fill="black" stroke="black" points="421.495,-246.705 417.995,-236.705 414.495,-246.705 421.495,-246.705"/>
</g>
<!-- KAPPA -->
<g id="node9" class="node"><title>KAPPA</title>
<ellipse fill="none" stroke="black" cx="118.995" cy="-107.74" rx="39.7935" ry="18"/>
<text text-anchor="middle" x="118.995" y="-104.04" font-family="Times,serif" font-size="14.00">KAPPA</text>
</g>
<!-- n28 (0.80 &#45; 2)&#45;&gt;KAPPA -->
<g id="edge8" class="edge"><title>n28 (0.80 &#45; 2)&#45;&gt;KAPPA</title>
<path fill="none" stroke="black" d="M162.838,-181.387C154.793,-168.056 143.425,-149.219 134.281,-134.068"/>
<polygon fill="black" stroke="black" points="137.088,-131.945 128.924,-125.192 131.095,-135.562 137.088,-131.945"/>
</g>
<!-- JACCARD -->
<g id="node10" class="node"><title>JACCARD</title>
<ellipse fill="none" stroke="black" cx="226.995" cy="-107.74" rx="50.8918" ry="18"/>
<text text-anchor="middle" x="226.995" y="-104.04" font-family="Times,serif" font-size="14.00">JACCARD</text>
</g>
<!-- n28 (0.80 &#45; 2)&#45;&gt;JACCARD -->
<g id="edge9" class="edge"><title>n28 (0.80 &#45; 2)&#45;&gt;JACCARD</title>
<path fill="none" stroke="black" d="M183.152,-181.387C191.147,-168.139 202.423,-149.456 211.537,-134.354"/>
<polygon fill="black" stroke="black" points="214.713,-135.865 216.884,-125.495 208.72,-132.248 214.713,-135.865"/>
</g>
<!-- COLLECTIVE_STRENGH -->
<g id="node13" class="node"><title>COLLECTIVE_STRENGH</title>
<ellipse fill="none" stroke="black" cx="712.995" cy="-199.217" rx="109.681" ry="18"/>
<text text-anchor="middle" x="712.995" y="-195.517" font-family="Times,serif" font-size="14.00">COLLECTIVE_STRENGH</text>
</g>
<!-- n31 (0.53 &#45; 5)&#45;&gt;COLLECTIVE_STRENGH -->
<g id="edge12" class="edge"><title>n31 (0.53 &#45; 5)&#45;&gt;COLLECTIVE_STRENGH</title>
<path fill="none" stroke="black" d="M712.995,-313.366C712.995,-291.538 712.995,-253.412 712.995,-227.508"/>
<polygon fill="black" stroke="black" points="716.495,-227.238 712.995,-217.238 709.495,-227.238 716.495,-227.238"/>
</g>
<!-- n27 (0.81 &#45; 4) -->
<g id="node14" class="node"><title>n27 (0.81 &#45; 4)</title>
<ellipse fill="none" stroke="black" cx="900.995" cy="-199.217" rx="59.5901" ry="18"/>
<text text-anchor="middle" x="900.995" y="-195.517" font-family="Times,serif" font-size="14.00">n27 (0.81 &#45; 4)</text>
</g>
<!-- n31 (0.53 &#45; 5)&#45;&gt;n27 (0.81 &#45; 4) -->
<g id="edge13" class="edge"><title>n31 (0.53 &#45; 5)&#45;&gt;n27 (0.81 &#45; 4)</title>
<path fill="none" stroke="black" d="M735.673,-314.682C769.125,-291.52 831.814,-248.117 869.646,-221.922"/>
<polygon fill="black" stroke="black" points="872.008,-224.544 878.238,-215.974 868.024,-218.789 872.008,-224.544"/>
</g>
<!-- RECALL -->
<g id="node15" class="node"><title>RECALL</title>
<ellipse fill="none" stroke="black" cx="838.995" cy="-107.74" rx="44.6926" ry="18"/>
<text text-anchor="middle" x="838.995" y="-104.04" font-family="Times,serif" font-size="14.00">RECALL</text>
</g>
<!-- n27 (0.81 &#45; 4)&#45;&gt;RECALL -->
<g id="edge14" class="edge"><title>n27 (0.81 &#45; 4)&#45;&gt;RECALL</title>
<path fill="none" stroke="black" d="M889.334,-181.387C880.009,-167.93 866.798,-148.863 856.249,-133.64"/>
<polygon fill="black" stroke="black" points="858.968,-131.418 850.395,-125.192 853.214,-135.405 858.968,-131.418"/>
</g>
<!-- n25 (0.85 &#45; 3) -->
<g id="node16" class="node"><title>n25 (0.85 &#45; 3)</title>
<ellipse fill="none" stroke="black" cx="961.995" cy="-107.74" rx="59.5901" ry="18"/>
<text text-anchor="middle" x="961.995" y="-104.04" font-family="Times,serif" font-size="14.00">n25 (0.85 &#45; 3)</text>
</g>
<!-- n27 (0.81 &#45; 4)&#45;&gt;n25 (0.85 &#45; 3) -->
<g id="edge15" class="edge"><title>n27 (0.81 &#45; 4)&#45;&gt;n25 (0.85 &#45; 3)</title>
<path fill="none" stroke="black" d="M912.469,-181.387C921.586,-168.014 934.478,-149.103 944.824,-133.928"/>
<polygon fill="black" stroke="black" points="947.832,-135.729 950.573,-125.495 942.048,-131.786 947.832,-135.729"/>
</g>
<!-- TWO_WAY_SUPPORT -->
<g id="node17" class="node"><title>TWO_WAY_SUPPORT</title>
<ellipse fill="none" stroke="black" cx="847.995" cy="-26.8701" rx="100.182" ry="18"/>
<text text-anchor="middle" x="847.995" y="-23.1701" font-family="Times,serif" font-size="14.00">TWO_WAY_SUPPORT</text>
</g>
<!-- n25 (0.85 &#45; 3)&#45;&gt;TWO_WAY_SUPPORT -->
<g id="edge16" class="edge"><title>n25 (0.85 &#45; 3)&#45;&gt;TWO_WAY_SUPPORT</title>
<path fill="none" stroke="black" d="M939.2,-90.9691C922.296,-79.2742 899.023,-63.1729 880.217,-50.1626"/>
<polygon fill="black" stroke="black" points="882.146,-47.2406 871.93,-44.4293 878.163,-52.9972 882.146,-47.2406"/>
</g>
<!-- PIATETSKY_SHAPIRO\nSPECIFICITY -->
<g id="node18" class="node"><title>PIATETSKY_SHAPIRO\nSPECIFICITY</title>
<ellipse fill="none" stroke="black" cx="1076" cy="-26.8701" rx="109.703" ry="26.7407"/>
<text text-anchor="middle" x="1076" y="-30.6701" font-family="Times,serif" font-size="14.00">PIATETSKY_SHAPIRO</text>
<text text-anchor="middle" x="1076" y="-15.6701" font-family="Times,serif" font-size="14.00">SPECIFICITY</text>
</g>
<!-- n25 (0.85 &#45; 3)&#45;&gt;PIATETSKY_SHAPIRO\nSPECIFICITY -->
<g id="edge17" class="edge"><title>n25 (0.85 &#45; 3)&#45;&gt;PIATETSKY_SHAPIRO\nSPECIFICITY</title>
<path fill="none" stroke="black" d="M984.791,-90.9691C998.403,-81.552 1016.14,-69.278 1032.36,-58.0612"/>
<polygon fill="black" stroke="black" points="1034.43,-60.8805 1040.67,-52.3127 1030.45,-55.1239 1034.43,-60.8805"/>
</g>
<!-- LEAST_CONTRADICTION\nACCURACY -->
<g id="node20" class="node"><title>LEAST_CONTRADICTION\nACCURACY</title>
<ellipse fill="none" stroke="black" cx="624.995" cy="-622.649" rx="124.402" ry="26.7407"/>
<text text-anchor="middle" x="624.995" y="-626.449" font-family="Times,serif" font-size="14.00">LEAST_CONTRADICTION</text>
<text text-anchor="middle" x="624.995" y="-611.449" font-family="Times,serif" font-size="14.00">ACCURACY</text>
</g>
<!-- n30 (0.58 &#45; 20)&#45;&gt;LEAST_CONTRADICTION\nACCURACY -->
<g id="edge19" class="edge"><title>n30 (0.58 &#45; 20)&#45;&gt;LEAST_CONTRADICTION\nACCURACY</title>
<path fill="none" stroke="black" d="M624.995,-855.139C624.995,-815.034 624.995,-714.158 624.995,-659.758"/>
<polygon fill="black" stroke="black" points="628.495,-659.529 624.995,-649.529 621.495,-659.529 628.495,-659.529"/>
</g>
<!-- CONVICTION\nYULE_Y\nONE_WAY_SUPPORT\nYULE_Q\nODDS_RATIO\nCERTAINTY_FACTOR\nLOEVINGER\nSEBAG_SCHOENAUER\nODD_MULTIPLIER\nCOUNTER_EXAMPLE_RATE\nZHANG\nRELATIVE_RISK\nBAYES\nCENTERED_CONFIDENCE\nADDED_VALUE\nLEVERAGE\nLIFT\nCONFIDENCE -->
<g id="node21" class="node"><title>CONVICTION\nYULE_Y\nONE_WAY_SUPPORT\nYULE_Q\nODDS_RATIO\nCERTAINTY_FACTOR\nLOEVINGER\nSEBAG_SCHOENAUER\nODD_MULTIPLIER\nCOUNTER_EXAMPLE_RATE\nZHANG\nRELATIVE_RISK\nBAYES\nCENTERED_CONFIDENCE\nADDED_VALUE\nLEVERAGE\nLIFT\nCONFIDENCE</title>
<ellipse fill="none" stroke="black" cx="904.995" cy="-622.649" rx="137.358" ry="196.651"/>
<text text-anchor="middle" x="904.995" y="-746.449" font-family="Times,serif" font-size="14.00">CONVICTION</text>
<text text-anchor="middle" x="904.995" y="-731.449" font-family="Times,serif" font-size="14.00">YULE_Y</text>
<text text-anchor="middle" x="904.995" y="-716.449" font-family="Times,serif" font-size="14.00">ONE_WAY_SUPPORT</text>
<text text-anchor="middle" x="904.995" y="-701.449" font-family="Times,serif" font-size="14.00">YULE_Q</text>
<text text-anchor="middle" x="904.995" y="-686.449" font-family="Times,serif" font-size="14.00">ODDS_RATIO</text>
<text text-anchor="middle" x="904.995" y="-671.449" font-family="Times,serif" font-size="14.00">CERTAINTY_FACTOR</text>
<text text-anchor="middle" x="904.995" y="-656.449" font-family="Times,serif" font-size="14.00">LOEVINGER</text>
<text text-anchor="middle" x="904.995" y="-641.449" font-family="Times,serif" font-size="14.00">SEBAG_SCHOENAUER</text>
<text text-anchor="middle" x="904.995" y="-626.449" font-family="Times,serif" font-size="14.00">ODD_MULTIPLIER</text>
<text text-anchor="middle" x="904.995" y="-611.449" font-family="Times,serif" font-size="14.00">COUNTER_EXAMPLE_RATE</text>
<text text-anchor="middle" x="904.995" y="-596.449" font-family="Times,serif" font-size="14.00">ZHANG</text>
<text text-anchor="middle" x="904.995" y="-581.449" font-family="Times,serif" font-size="14.00">RELATIVE_RISK</text>
<text text-anchor="middle" x="904.995" y="-566.449" font-family="Times,serif" font-size="14.00">BAYES</text>
<text text-anchor="middle" x="904.995" y="-551.449" font-family="Times,serif" font-size="14.00">CENTERED_CONFIDENCE</text>
<text text-anchor="middle" x="904.995" y="-536.449" font-family="Times,serif" font-size="14.00">ADDED_VALUE</text>
<text text-anchor="middle" x="904.995" y="-521.449" font-family="Times,serif" font-size="14.00">LEVERAGE</text>
<text text-anchor="middle" x="904.995" y="-506.449" font-family="Times,serif" font-size="14.00">LIFT</text>
<text text-anchor="middle" x="904.995" y="-491.449" font-family="Times,serif" font-size="14.00">CONFIDENCE</text>
</g>
<!-- n30 (0.58 &#45; 20)&#45;&gt;CONVICTION\nYULE_Y\nONE_WAY_SUPPORT\nYULE_Q\nODDS_RATIO\nCERTAINTY_FACTOR\nLOEVINGER\nSEBAG_SCHOENAUER\nODD_MULTIPLIER\nCOUNTER_EXAMPLE_RATE\nZHANG\nRELATIVE_RISK\nBAYES\nCENTERED_CONFIDENCE\nADDED_VALUE\nLEVERAGE\nLIFT\nCONFIDENCE -->
<g id="edge20" class="edge"><title>n30 (0.58 &#45; 20)&#45;&gt;CONVICTION\nYULE_Y\nONE_WAY_SUPPORT\nYULE_Q\nODDS_RATIO\nCERTAINTY_FACTOR\nLOEVINGER\nSEBAG_SCHOENAUER\nODD_MULTIPLIER\nCOUNTER_EXAMPLE_RATE\nZHANG\nRELATIVE_RISK\nBAYES\nCENTERED_CONFIDENCE\nADDED_VALUE\nLEVERAGE\nLIFT\nCONFIDENCE</title>
<path fill="none" stroke="black" d="M671.281,-860.608C698.429,-852.211 732.325,-838.85 757.995,-819.225 774.821,-806.361 790.669,-791.088 805.282,-774.833"/>
<polygon fill="black" stroke="black" points="807.932,-777.121 811.909,-767.301 802.676,-772.498 807.932,-777.121"/>
</g>
</g>
</svg>
