<?xml version="1.0" encoding="UTF-8" standalone="no"?>
<!DOCTYPE svg PUBLIC "-//W3C//DTD SVG 1.1//EN"
 "http://www.w3.org/Graphics/SVG/1.1/DTD/svg11.dtd">
<!-- Generated by graphviz version 2.38.0 (20140413.2041)
 -->
<!-- Title: dendrogram Pages: 1 -->
<svg width="1416pt" height="869pt"
 viewBox="0.00 0.00 1415.72 868.63" xmlns="http://www.w3.org/2000/svg" xmlns:xlink="http://www.w3.org/1999/xlink">
<g id="graph0" class="graph" transform="scale(1 1) rotate(0) translate(4 864.632)">
<title>dendrogram</title>
<polygon fill="white" stroke="none" points="-4,4 -4,-864.632 1411.72,-864.632 1411.72,4 -4,4"/>
<!-- n34 (0.60 &#45; 36) -->
<g id="node1" class="node"><title>n34 (0.60 &#45; 36)</title>
<ellipse fill="none" stroke="black" cx="386.84" cy="-842.632" rx="64.189" ry="18"/>
<text text-anchor="middle" x="386.84" y="-838.932" font-family="Times,serif" font-size="14.00">n34 (0.60 &#45; 36)</text>
</g>
<!-- n30 (0.82 &#45; 3) -->
<g id="node2" class="node"><title>n30 (0.82 &#45; 3)</title>
<ellipse fill="none" stroke="black" cx="292.84" cy="-770.632" rx="59.5901" ry="18"/>
<text text-anchor="middle" x="292.84" y="-766.932" font-family="Times,serif" font-size="14.00">n30 (0.82 &#45; 3)</text>
</g>
<!-- n34 (0.60 &#45; 36)&#45;&gt;n30 (0.82 &#45; 3) -->
<g id="edge1" class="edge"><title>n34 (0.60 &#45; 36)&#45;&gt;n30 (0.82 &#45; 3)</title>
<path fill="none" stroke="black" d="M365.038,-825.396C352.373,-815.964 336.241,-803.951 322.44,-793.674"/>
<polygon fill="black" stroke="black" points="324.311,-790.703 314.2,-787.538 320.13,-796.317 324.311,-790.703"/>
</g>
<!-- n33 (0.73 &#45; 33) -->
<g id="node5" class="node"><title>n33 (0.73 &#45; 33)</title>
<ellipse fill="none" stroke="black" cx="480.84" cy="-770.632" rx="64.189" ry="18"/>
<text text-anchor="middle" x="480.84" y="-766.932" font-family="Times,serif" font-size="14.00">n33 (0.73 &#45; 33)</text>
</g>
<!-- n34 (0.60 &#45; 36)&#45;&gt;n33 (0.73 &#45; 33) -->
<g id="edge4" class="edge"><title>n34 (0.60 &#45; 36)&#45;&gt;n33 (0.73 &#45; 33)</title>
<path fill="none" stroke="black" d="M408.642,-825.396C421.218,-816.031 437.211,-804.122 450.947,-793.893"/>
<polygon fill="black" stroke="black" points="453.227,-796.559 459.157,-787.779 449.046,-790.944 453.227,-796.559"/>
</g>
<!-- COLLECTIVE_STRENGH -->
<g id="node3" class="node"><title>COLLECTIVE_STRENGH</title>
<ellipse fill="none" stroke="black" cx="109.84" cy="-689.762" rx="109.681" ry="18"/>
<text text-anchor="middle" x="109.84" y="-686.062" font-family="Times,serif" font-size="14.00">COLLECTIVE_STRENGH</text>
</g>
<!-- n30 (0.82 &#45; 3)&#45;&gt;COLLECTIVE_STRENGH -->
<g id="edge2" class="edge"><title>n30 (0.82 &#45; 3)&#45;&gt;COLLECTIVE_STRENGH</title>
<path fill="none" stroke="black" d="M260.124,-755.531C231.21,-743.07 188.717,-724.756 156.286,-710.779"/>
<polygon fill="black" stroke="black" points="157.567,-707.52 146.999,-706.776 154.797,-713.948 157.567,-707.52"/>
</g>
<!-- JACCARD\nRECALL -->
<g id="node4" class="node"><title>JACCARD\nRECALL</title>
<ellipse fill="none" stroke="black" cx="292.84" cy="-689.762" rx="55.3091" ry="26.7407"/>
<text text-anchor="middle" x="292.84" y="-693.562" font-family="Times,serif" font-size="14.00">JACCARD</text>
<text text-anchor="middle" x="292.84" y="-678.562" font-family="Times,serif" font-size="14.00">RECALL</text>
</g>
<!-- n30 (0.82 &#45; 3)&#45;&gt;JACCARD\nRECALL -->
<g id="edge3" class="edge"><title>n30 (0.82 &#45; 3)&#45;&gt;JACCARD\nRECALL</title>
<path fill="none" stroke="black" d="M292.84,-752.518C292.84,-745.028 292.84,-735.937 292.84,-727.059"/>
<polygon fill="black" stroke="black" points="296.34,-726.844 292.84,-716.844 289.34,-726.844 296.34,-726.844"/>
</g>
<!-- LEAST_CONTRADICTION -->
<g id="node6" class="node"><title>LEAST_CONTRADICTION</title>
<ellipse fill="none" stroke="black" cx="480.84" cy="-689.762" rx="114.28" ry="18"/>
<text text-anchor="middle" x="480.84" y="-686.062" font-family="Times,serif" font-size="14.00">LEAST_CONTRADICTION</text>
</g>
<!-- n33 (0.73 &#45; 33)&#45;&gt;LEAST_CONTRADICTION -->
<g id="edge5" class="edge"><title>n33 (0.73 &#45; 33)&#45;&gt;LEAST_CONTRADICTION</title>
<path fill="none" stroke="black" d="M480.84,-752.518C480.84,-742.493 480.84,-729.598 480.84,-718.186"/>
<polygon fill="black" stroke="black" points="484.34,-717.842 480.84,-707.842 477.34,-717.842 484.34,-717.842"/>
</g>
<!-- n32 (0.74 &#45; 32) -->
<g id="node7" class="node"><title>n32 (0.74 &#45; 32)</title>
<ellipse fill="none" stroke="black" cx="677.84" cy="-689.762" rx="64.189" ry="18"/>
<text text-anchor="middle" x="677.84" y="-686.062" font-family="Times,serif" font-size="14.00">n32 (0.74 &#45; 32)</text>
</g>
<!-- n33 (0.73 &#45; 33)&#45;&gt;n32 (0.74 &#45; 32) -->
<g id="edge6" class="edge"><title>n33 (0.73 &#45; 33)&#45;&gt;n32 (0.74 &#45; 32)</title>
<path fill="none" stroke="black" d="M516.06,-755.531C548.735,-742.45 597.521,-722.918 632.973,-708.724"/>
<polygon fill="black" stroke="black" points="634.611,-711.839 642.594,-704.873 632.009,-705.34 634.611,-711.839"/>
</g>
<!-- ACCURACY -->
<g id="node8" class="node"><title>ACCURACY</title>
<ellipse fill="none" stroke="black" cx="606.84" cy="-608.891" rx="59.5901" ry="18"/>
<text text-anchor="middle" x="606.84" y="-605.191" font-family="Times,serif" font-size="14.00">ACCURACY</text>
</g>
<!-- n32 (0.74 &#45; 32)&#45;&gt;ACCURACY -->
<g id="edge7" class="edge"><title>n32 (0.74 &#45; 32)&#45;&gt;ACCURACY</title>
<path fill="none" stroke="black" d="M662.783,-672.035C652.899,-661.056 639.808,-646.514 628.775,-634.257"/>
<polygon fill="black" stroke="black" points="631.168,-631.684 621.876,-626.594 625.965,-636.368 631.168,-631.684"/>
</g>
<!-- n31 (0.80 &#45; 31) -->
<g id="node9" class="node"><title>n31 (0.80 &#45; 31)</title>
<ellipse fill="none" stroke="black" cx="748.84" cy="-608.891" rx="64.189" ry="18"/>
<text text-anchor="middle" x="748.84" y="-605.191" font-family="Times,serif" font-size="14.00">n31 (0.80 &#45; 31)</text>
</g>
<!-- n32 (0.74 &#45; 32)&#45;&gt;n31 (0.80 &#45; 31) -->
<g id="edge8" class="edge"><title>n32 (0.74 &#45; 32)&#45;&gt;n31 (0.80 &#45; 31)</title>
<path fill="none" stroke="black" d="M692.898,-672.035C702.781,-661.056 715.872,-646.514 726.906,-634.257"/>
<polygon fill="black" stroke="black" points="729.715,-636.368 733.805,-626.594 724.513,-631.684 729.715,-636.368"/>
</g>
<!-- n28 (0.88 &#45; 3) -->
<g id="node10" class="node"><title>n28 (0.88 &#45; 3)</title>
<ellipse fill="none" stroke="black" cx="615.84" cy="-536.891" rx="59.5901" ry="18"/>
<text text-anchor="middle" x="615.84" y="-533.191" font-family="Times,serif" font-size="14.00">n28 (0.88 &#45; 3)</text>
</g>
<!-- n31 (0.80 &#45; 31)&#45;&gt;n28 (0.88 &#45; 3) -->
<g id="edge9" class="edge"><title>n31 (0.80 &#45; 31)&#45;&gt;n28 (0.88 &#45; 3)</title>
<path fill="none" stroke="black" d="M719.981,-592.703C700.415,-582.405 674.367,-568.695 653.217,-557.563"/>
<polygon fill="black" stroke="black" points="654.665,-554.371 644.186,-552.81 651.405,-560.565 654.665,-554.371"/>
</g>
<!-- n29 (0.88 &#45; 28) -->
<g id="node13" class="node"><title>n29 (0.88 &#45; 28)</title>
<ellipse fill="none" stroke="black" cx="880.84" cy="-536.891" rx="64.189" ry="18"/>
<text text-anchor="middle" x="880.84" y="-533.191" font-family="Times,serif" font-size="14.00">n29 (0.88 &#45; 28)</text>
</g>
<!-- n31 (0.80 &#45; 31)&#45;&gt;n29 (0.88 &#45; 28) -->
<g id="edge12" class="edge"><title>n31 (0.80 &#45; 31)&#45;&gt;n29 (0.88 &#45; 28)</title>
<path fill="none" stroke="black" d="M777.482,-592.703C796.769,-582.475 822.402,-568.881 843.316,-557.791"/>
<polygon fill="black" stroke="black" points="845.059,-560.828 852.254,-553.051 841.78,-554.644 845.059,-560.828"/>
</g>
<!-- SPECIFICITY -->
<g id="node11" class="node"><title>SPECIFICITY</title>
<ellipse fill="none" stroke="black" cx="424.84" cy="-371.169" rx="63.0888" ry="18"/>
<text text-anchor="middle" x="424.84" y="-367.469" font-family="Times,serif" font-size="14.00">SPECIFICITY</text>
</g>
<!-- n28 (0.88 &#45; 3)&#45;&gt;SPECIFICITY -->
<g id="edge10" class="edge"><title>n28 (0.88 &#45; 3)&#45;&gt;SPECIFICITY</title>
<path fill="none" stroke="black" d="M573.986,-523.885C549.539,-515.35 519.202,-501.98 496.84,-482.891 469.436,-459.497 448.546,-423.104 436.499,-398.485"/>
<polygon fill="black" stroke="black" points="439.62,-396.899 432.174,-389.361 433.295,-399.897 439.62,-396.899"/>
</g>
<!-- KAPPA\nPIATETSKY_SHAPIRO -->
<g id="node12" class="node"><title>KAPPA\nPIATETSKY_SHAPIRO</title>
<ellipse fill="none" stroke="black" cx="615.84" cy="-371.169" rx="109.703" ry="26.7407"/>
<text text-anchor="middle" x="615.84" y="-374.969" font-family="Times,serif" font-size="14.00">KAPPA</text>
<text text-anchor="middle" x="615.84" y="-359.969" font-family="Times,serif" font-size="14.00">PIATETSKY_SHAPIRO</text>
</g>
<!-- n28 (0.88 &#45; 3)&#45;&gt;KAPPA\nPIATETSKY_SHAPIRO -->
<g id="edge11" class="edge"><title>n28 (0.88 &#45; 3)&#45;&gt;KAPPA\nPIATETSKY_SHAPIRO</title>
<path fill="none" stroke="black" d="M615.84,-518.68C615.84,-492.639 615.84,-442.633 615.84,-408.35"/>
<polygon fill="black" stroke="black" points="619.34,-408.259 615.84,-398.259 612.34,-408.259 619.34,-408.259"/>
</g>
<!-- LEVERAGE\nCOUNTER_EXAMPLE_RATE\nSEBAG_SCHOENAUER\nCONFIDENCE\nONE_WAY_SUPPORT\nCENTERED_CONFIDENCE\nADDED_VALUE\nLOEVINGER\nCONVICTION\nCERTAINTY_FACTOR -->
<g id="node14" class="node"><title>LEVERAGE\nCOUNTER_EXAMPLE_RATE\nSEBAG_SCHOENAUER\nCONFIDENCE\nONE_WAY_SUPPORT\nCENTERED_CONFIDENCE\nADDED_VALUE\nLOEVINGER\nCONVICTION\nCERTAINTY_FACTOR</title>
<ellipse fill="none" stroke="black" cx="880.84" cy="-371.169" rx="137.358" ry="111.946"/>
<text text-anchor="middle" x="880.84" y="-434.969" font-family="Times,serif" font-size="14.00">LEVERAGE</text>
<text text-anchor="middle" x="880.84" y="-419.969" font-family="Times,serif" font-size="14.00">COUNTER_EXAMPLE_RATE</text>
<text text-anchor="middle" x="880.84" y="-404.969" font-family="Times,serif" font-size="14.00">SEBAG_SCHOENAUER</text>
<text text-anchor="middle" x="880.84" y="-389.969" font-family="Times,serif" font-size="14.00">CONFIDENCE</text>
<text text-anchor="middle" x="880.84" y="-374.969" font-family="Times,serif" font-size="14.00">ONE_WAY_SUPPORT</text>
<text text-anchor="middle" x="880.84" y="-359.969" font-family="Times,serif" font-size="14.00">CENTERED_CONFIDENCE</text>
<text text-anchor="middle" x="880.84" y="-344.969" font-family="Times,serif" font-size="14.00">ADDED_VALUE</text>
<text text-anchor="middle" x="880.84" y="-329.969" font-family="Times,serif" font-size="14.00">LOEVINGER</text>
<text text-anchor="middle" x="880.84" y="-314.969" font-family="Times,serif" font-size="14.00">CONVICTION</text>
<text text-anchor="middle" x="880.84" y="-299.969" font-family="Times,serif" font-size="14.00">CERTAINTY_FACTOR</text>
</g>
<!-- n29 (0.88 &#45; 28)&#45;&gt;LEVERAGE\nCOUNTER_EXAMPLE_RATE\nSEBAG_SCHOENAUER\nCONFIDENCE\nONE_WAY_SUPPORT\nCENTERED_CONFIDENCE\nADDED_VALUE\nLOEVINGER\nCONVICTION\nCERTAINTY_FACTOR -->
<g id="edge13" class="edge"><title>n29 (0.88 &#45; 28)&#45;&gt;LEVERAGE\nCOUNTER_EXAMPLE_RATE\nSEBAG_SCHOENAUER\nCONFIDENCE\nONE_WAY_SUPPORT\nCENTERED_CONFIDENCE\nADDED_VALUE\nLOEVINGER\nCONVICTION\nCERTAINTY_FACTOR</title>
<path fill="none" stroke="black" d="M880.84,-518.68C880.84,-511.66 880.84,-502.899 880.84,-493.175"/>
<polygon fill="black" stroke="black" points="884.34,-493.157 880.84,-483.157 877.34,-493.157 884.34,-493.157"/>
</g>
<!-- n27 (0.89 &#45; 18) -->
<g id="node15" class="node"><title>n27 (0.89 &#45; 18)</title>
<ellipse fill="none" stroke="black" cx="1100.84" cy="-371.169" rx="64.189" ry="18"/>
<text text-anchor="middle" x="1100.84" y="-367.469" font-family="Times,serif" font-size="14.00">n27 (0.89 &#45; 18)</text>
</g>
<!-- n29 (0.88 &#45; 28)&#45;&gt;n27 (0.89 &#45; 18) -->
<g id="edge14" class="edge"><title>n29 (0.88 &#45; 28)&#45;&gt;n27 (0.89 &#45; 18)</title>
<path fill="none" stroke="black" d="M931.735,-525.822C961.748,-517.953 999.147,-504.604 1026.84,-482.891 1055.59,-460.349 1077.05,-423.447 1089.25,-398.503"/>
<polygon fill="black" stroke="black" points="1092.51,-399.8 1093.62,-389.263 1086.18,-396.808 1092.51,-399.8"/>
</g>
<!-- RELATIVE_RISK\nYULE_Y\nYULE_Q\nODDS_RATIO\nLIFT\nZHANG\nODD_MULTIPLIER\nBAYES -->
<g id="node16" class="node"><title>RELATIVE_RISK\nYULE_Y\nYULE_Q\nODDS_RATIO\nLIFT\nZHANG\nODD_MULTIPLIER\nBAYES</title>
<ellipse fill="none" stroke="black" cx="960.84" cy="-111.723" rx="94.5053" ry="90.5193"/>
<text text-anchor="middle" x="960.84" y="-160.523" font-family="Times,serif" font-size="14.00">RELATIVE_RISK</text>
<text text-anchor="middle" x="960.84" y="-145.523" font-family="Times,serif" font-size="14.00">YULE_Y</text>
<text text-anchor="middle" x="960.84" y="-130.523" font-family="Times,serif" font-size="14.00">YULE_Q</text>
<text text-anchor="middle" x="960.84" y="-115.523" font-family="Times,serif" font-size="14.00">ODDS_RATIO</text>
<text text-anchor="middle" x="960.84" y="-100.523" font-family="Times,serif" font-size="14.00">LIFT</text>
<text text-anchor="middle" x="960.84" y="-85.5229" font-family="Times,serif" font-size="14.00">ZHANG</text>
<text text-anchor="middle" x="960.84" y="-70.5229" font-family="Times,serif" font-size="14.00">ODD_MULTIPLIER</text>
<text text-anchor="middle" x="960.84" y="-55.5229" font-family="Times,serif" font-size="14.00">BAYES</text>
</g>
<!-- n27 (0.89 &#45; 18)&#45;&gt;RELATIVE_RISK\nYULE_Y\nYULE_Q\nODDS_RATIO\nLIFT\nZHANG\nODD_MULTIPLIER\nBAYES -->
<g id="edge15" class="edge"><title>n27 (0.89 &#45; 18)&#45;&gt;RELATIVE_RISK\nYULE_Y\nYULE_Q\nODDS_RATIO\nLIFT\nZHANG\nODD_MULTIPLIER\nBAYES</title>
<path fill="none" stroke="black" d="M1091.65,-353.277C1075.09,-322.812 1039.13,-256.696 1009.1,-201.475"/>
<polygon fill="black" stroke="black" points="1012,-199.475 1004.15,-192.362 1005.85,-202.819 1012,-199.475"/>
</g>
<!-- KLOSGEN\nGINI\nIMPLICATION_INDEX\nCOSINE\nTWO_WAY_SUPPORT\nCHI_SQUARE\nPHI\nFISHER_PVAL\nTWO_WAY_SUPPORT_VARIATION\nJ_MEASURE -->
<g id="node17" class="node"><title>KLOSGEN\nGINI\nIMPLICATION_INDEX\nCOSINE\nTWO_WAY_SUPPORT\nCHI_SQUARE\nPHI\nFISHER_PVAL\nTWO_WAY_SUPPORT_VARIATION\nJ_MEASURE</title>
<ellipse fill="none" stroke="black" cx="1240.84" cy="-111.723" rx="166.754" ry="111.946"/>
<text text-anchor="middle" x="1240.84" y="-175.523" font-family="Times,serif" font-size="14.00">KLOSGEN</text>
<text text-anchor="middle" x="1240.84" y="-160.523" font-family="Times,serif" font-size="14.00">GINI</text>
<text text-anchor="middle" x="1240.84" y="-145.523" font-family="Times,serif" font-size="14.00">IMPLICATION_INDEX</text>
<text text-anchor="middle" x="1240.84" y="-130.523" font-family="Times,serif" font-size="14.00">COSINE</text>
<text text-anchor="middle" x="1240.84" y="-115.523" font-family="Times,serif" font-size="14.00">TWO_WAY_SUPPORT</text>
<text text-anchor="middle" x="1240.84" y="-100.523" font-family="Times,serif" font-size="14.00">CHI_SQUARE</text>
<text text-anchor="middle" x="1240.84" y="-85.5229" font-family="Times,serif" font-size="14.00">PHI</text>
<text text-anchor="middle" x="1240.84" y="-70.5229" font-family="Times,serif" font-size="14.00">FISHER_PVAL</text>
<text text-anchor="middle" x="1240.84" y="-55.5229" font-family="Times,serif" font-size="14.00">TWO_WAY_SUPPORT_VARIATION</text>
<text text-anchor="middle" x="1240.84" y="-40.5229" font-family="Times,serif" font-size="14.00">J_MEASURE</text>
</g>
<!-- n27 (0.89 &#45; 18)&#45;&gt;KLOSGEN\nGINI\nIMPLICATION_INDEX\nCOSINE\nTWO_WAY_SUPPORT\nCHI_SQUARE\nPHI\nFISHER_PVAL\nTWO_WAY_SUPPORT_VARIATION\nJ_MEASURE -->
<g id="edge16" class="edge"><title>n27 (0.89 &#45; 18)&#45;&gt;KLOSGEN\nGINI\nIMPLICATION_INDEX\nCOSINE\nTWO_WAY_SUPPORT\nCHI_SQUARE\nPHI\nFISHER_PVAL\nTWO_WAY_SUPPORT_VARIATION\nJ_MEASURE</title>
<path fill="none" stroke="black" d="M1110.03,-353.277C1124.23,-327.159 1152.68,-274.837 1179.43,-225.642"/>
<polygon fill="black" stroke="black" points="1182.53,-227.278 1184.23,-216.821 1176.38,-223.934 1182.53,-227.278"/>
</g>
</g>
</svg>
