<?xml version="1.0" encoding="UTF-8" standalone="no"?>
<!DOCTYPE svg PUBLIC "-//W3C//DTD SVG 1.1//EN"
 "http://www.w3.org/Graphics/SVG/1.1/DTD/svg11.dtd">
<!-- Generated by graphviz version 2.38.0 (20140413.2041)
 -->
<!-- Title: dendrogram Pages: 1 -->
<svg width="1712pt" height="907pt"
 viewBox="0.00 0.00 1712.41 906.57" xmlns="http://www.w3.org/2000/svg" xmlns:xlink="http://www.w3.org/1999/xlink">
<g id="graph0" class="graph" transform="scale(1 1) rotate(0) translate(4 902.566)">
<title>dendrogram</title>
<polygon fill="white" stroke="none" points="-4,4 -4,-902.566 1708.41,-902.566 1708.41,4 -4,4"/>
<!-- n34 (0.07 &#45; 36) -->
<g id="node1" class="node"><title>n34 (0.07 &#45; 36)</title>
<ellipse fill="none" stroke="black" cx="311.84" cy="-880.566" rx="64.189" ry="18"/>
<text text-anchor="middle" x="311.84" y="-876.866" font-family="Times,serif" font-size="14.00">n34 (0.07 &#45; 36)</text>
</g>
<!-- n29 (0.62 &#45; 3) -->
<g id="node2" class="node"><title>n29 (0.62 &#45; 3)</title>
<ellipse fill="none" stroke="black" cx="240.84" cy="-808.566" rx="59.5901" ry="18"/>
<text text-anchor="middle" x="240.84" y="-804.866" font-family="Times,serif" font-size="14.00">n29 (0.62 &#45; 3)</text>
</g>
<!-- n34 (0.07 &#45; 36)&#45;&gt;n29 (0.62 &#45; 3) -->
<g id="edge1" class="edge"><title>n34 (0.07 &#45; 36)&#45;&gt;n29 (0.62 &#45; 3)</title>
<path fill="none" stroke="black" d="M295.014,-862.977C285.995,-854.085 274.728,-842.976 264.809,-833.196"/>
<polygon fill="black" stroke="black" points="267.124,-830.564 257.545,-826.036 262.209,-835.549 267.124,-830.564"/>
</g>
<!-- n33 (0.18 &#45; 33) -->
<g id="node7" class="node"><title>n33 (0.18 &#45; 33)</title>
<ellipse fill="none" stroke="black" cx="382.84" cy="-808.566" rx="64.189" ry="18"/>
<text text-anchor="middle" x="382.84" y="-804.866" font-family="Times,serif" font-size="14.00">n33 (0.18 &#45; 33)</text>
</g>
<!-- n34 (0.07 &#45; 36)&#45;&gt;n33 (0.18 &#45; 33) -->
<g id="edge6" class="edge"><title>n34 (0.07 &#45; 36)&#45;&gt;n33 (0.18 &#45; 33)</title>
<path fill="none" stroke="black" d="M328.666,-862.977C337.685,-854.085 348.952,-842.976 358.872,-833.196"/>
<polygon fill="black" stroke="black" points="361.471,-835.549 366.135,-826.036 356.557,-830.564 361.471,-835.549"/>
</g>
<!-- SPECIFICITY -->
<g id="node3" class="node"><title>SPECIFICITY</title>
<ellipse fill="none" stroke="black" cx="100.84" cy="-736.566" rx="63.0888" ry="18"/>
<text text-anchor="middle" x="100.84" y="-732.866" font-family="Times,serif" font-size="14.00">SPECIFICITY</text>
</g>
<!-- n29 (0.62 &#45; 3)&#45;&gt;SPECIFICITY -->
<g id="edge2" class="edge"><title>n29 (0.62 &#45; 3)&#45;&gt;SPECIFICITY</title>
<path fill="none" stroke="black" d="M211.15,-792.72C190.409,-782.35 162.507,-768.399 139.955,-757.123"/>
<polygon fill="black" stroke="black" points="141.48,-753.972 130.97,-752.631 138.35,-760.233 141.48,-753.972"/>
</g>
<!-- n26 (0.73 &#45; 2) -->
<g id="node4" class="node"><title>n26 (0.73 &#45; 2)</title>
<ellipse fill="none" stroke="black" cx="241.84" cy="-736.566" rx="59.5901" ry="18"/>
<text text-anchor="middle" x="241.84" y="-732.866" font-family="Times,serif" font-size="14.00">n26 (0.73 &#45; 2)</text>
</g>
<!-- n29 (0.62 &#45; 3)&#45;&gt;n26 (0.73 &#45; 2) -->
<g id="edge3" class="edge"><title>n29 (0.62 &#45; 3)&#45;&gt;n26 (0.73 &#45; 2)</title>
<path fill="none" stroke="black" d="M241.087,-790.262C241.198,-782.548 241.33,-773.278 241.453,-764.678"/>
<polygon fill="black" stroke="black" points="244.953,-764.719 241.596,-754.67 237.953,-764.619 244.953,-764.719"/>
</g>
<!-- COLLECTIVE_STRENGH -->
<g id="node5" class="node"><title>COLLECTIVE_STRENGH</title>
<ellipse fill="none" stroke="black" cx="109.84" cy="-664.566" rx="109.681" ry="18"/>
<text text-anchor="middle" x="109.84" y="-660.866" font-family="Times,serif" font-size="14.00">COLLECTIVE_STRENGH</text>
</g>
<!-- n26 (0.73 &#45; 2)&#45;&gt;COLLECTIVE_STRENGH -->
<g id="edge4" class="edge"><title>n26 (0.73 &#45; 2)&#45;&gt;COLLECTIVE_STRENGH</title>
<path fill="none" stroke="black" d="M213.523,-720.549C194.914,-710.681 170.295,-697.625 149.716,-686.712"/>
<polygon fill="black" stroke="black" points="151.353,-683.618 140.878,-682.025 148.073,-689.802 151.353,-683.618"/>
</g>
<!-- RECALL -->
<g id="node6" class="node"><title>RECALL</title>
<ellipse fill="none" stroke="black" cx="282.84" cy="-664.566" rx="44.6926" ry="18"/>
<text text-anchor="middle" x="282.84" y="-660.866" font-family="Times,serif" font-size="14.00">RECALL</text>
</g>
<!-- n26 (0.73 &#45; 2)&#45;&gt;RECALL -->
<g id="edge5" class="edge"><title>n26 (0.73 &#45; 2)&#45;&gt;RECALL</title>
<path fill="none" stroke="black" d="M251.765,-718.621C256.6,-710.366 262.515,-700.267 267.882,-691.103"/>
<polygon fill="black" stroke="black" points="270.973,-692.752 273.007,-682.355 264.933,-689.215 270.973,-692.752"/>
</g>
<!-- ACCURACY -->
<g id="node8" class="node"><title>ACCURACY</title>
<ellipse fill="none" stroke="black" cx="381.84" cy="-736.566" rx="59.5901" ry="18"/>
<text text-anchor="middle" x="381.84" y="-732.866" font-family="Times,serif" font-size="14.00">ACCURACY</text>
</g>
<!-- n33 (0.18 &#45; 33)&#45;&gt;ACCURACY -->
<g id="edge7" class="edge"><title>n33 (0.18 &#45; 33)&#45;&gt;ACCURACY</title>
<path fill="none" stroke="black" d="M382.593,-790.262C382.483,-782.548 382.35,-773.278 382.228,-764.678"/>
<polygon fill="black" stroke="black" points="385.727,-764.619 382.085,-754.67 378.728,-764.719 385.727,-764.619"/>
</g>
<!-- n32 (0.30 &#45; 32) -->
<g id="node9" class="node"><title>n32 (0.30 &#45; 32)</title>
<ellipse fill="none" stroke="black" cx="523.84" cy="-736.566" rx="64.189" ry="18"/>
<text text-anchor="middle" x="523.84" y="-732.866" font-family="Times,serif" font-size="14.00">n32 (0.30 &#45; 32)</text>
</g>
<!-- n33 (0.18 &#45; 33)&#45;&gt;n32 (0.30 &#45; 32) -->
<g id="edge8" class="edge"><title>n33 (0.18 &#45; 33)&#45;&gt;n32 (0.30 &#45; 32)</title>
<path fill="none" stroke="black" d="M413.088,-792.549C433.998,-782.168 462.011,-768.261 484.632,-757.031"/>
<polygon fill="black" stroke="black" points="486.242,-760.139 493.642,-752.558 483.129,-753.869 486.242,-760.139"/>
</g>
<!-- n28 (0.68 &#45; 4) -->
<g id="node10" class="node"><title>n28 (0.68 &#45; 4)</title>
<ellipse fill="none" stroke="black" cx="483.84" cy="-664.566" rx="59.5901" ry="18"/>
<text text-anchor="middle" x="483.84" y="-660.866" font-family="Times,serif" font-size="14.00">n28 (0.68 &#45; 4)</text>
</g>
<!-- n32 (0.30 &#45; 32)&#45;&gt;n28 (0.68 &#45; 4) -->
<g id="edge9" class="edge"><title>n32 (0.30 &#45; 32)&#45;&gt;n28 (0.68 &#45; 4)</title>
<path fill="none" stroke="black" d="M514.157,-718.621C509.441,-710.366 503.67,-700.267 498.433,-691.103"/>
<polygon fill="black" stroke="black" points="501.434,-689.301 493.434,-682.355 495.357,-692.774 501.434,-689.301"/>
</g>
<!-- n31 (0.45 &#45; 28) -->
<g id="node17" class="node"><title>n31 (0.45 &#45; 28)</title>
<ellipse fill="none" stroke="black" cx="675.84" cy="-664.566" rx="64.189" ry="18"/>
<text text-anchor="middle" x="675.84" y="-660.866" font-family="Times,serif" font-size="14.00">n31 (0.45 &#45; 28)</text>
</g>
<!-- n32 (0.30 &#45; 32)&#45;&gt;n31 (0.45 &#45; 28) -->
<g id="edge16" class="edge"><title>n32 (0.30 &#45; 32)&#45;&gt;n31 (0.45 &#45; 28)</title>
<path fill="none" stroke="black" d="M555.704,-720.891C578.708,-710.298 609.966,-695.902 634.832,-684.451"/>
<polygon fill="black" stroke="black" points="636.399,-687.583 644.018,-680.221 633.471,-681.225 636.399,-687.583"/>
</g>
<!-- n23 (0.75 &#45; 2) -->
<g id="node11" class="node"><title>n23 (0.75 &#45; 2)</title>
<ellipse fill="none" stroke="black" cx="325.84" cy="-592.566" rx="59.5901" ry="18"/>
<text text-anchor="middle" x="325.84" y="-588.866" font-family="Times,serif" font-size="14.00">n23 (0.75 &#45; 2)</text>
</g>
<!-- n28 (0.68 &#45; 4)&#45;&gt;n23 (0.75 &#45; 2) -->
<g id="edge10" class="edge"><title>n28 (0.68 &#45; 4)&#45;&gt;n23 (0.75 &#45; 2)</title>
<path fill="none" stroke="black" d="M451.485,-649.231C427.202,-638.473 393.758,-623.656 367.479,-612.013"/>
<polygon fill="black" stroke="black" points="368.713,-608.732 358.152,-607.881 365.877,-615.132 368.713,-608.732"/>
</g>
<!-- n24 (0.73 &#45; 2) -->
<g id="node14" class="node"><title>n24 (0.73 &#45; 2)</title>
<ellipse fill="none" stroke="black" cx="483.84" cy="-592.566" rx="59.5901" ry="18"/>
<text text-anchor="middle" x="483.84" y="-588.866" font-family="Times,serif" font-size="14.00">n24 (0.73 &#45; 2)</text>
</g>
<!-- n28 (0.68 &#45; 4)&#45;&gt;n24 (0.73 &#45; 2) -->
<g id="edge13" class="edge"><title>n28 (0.68 &#45; 4)&#45;&gt;n24 (0.73 &#45; 2)</title>
<path fill="none" stroke="black" d="M483.84,-646.262C483.84,-638.548 483.84,-629.278 483.84,-620.678"/>
<polygon fill="black" stroke="black" points="487.34,-620.67 483.84,-610.67 480.34,-620.67 487.34,-620.67"/>
</g>
<!-- TWO_WAY_SUPPORT -->
<g id="node12" class="node"><title>TWO_WAY_SUPPORT</title>
<ellipse fill="none" stroke="black" cx="106.84" cy="-520.566" rx="100.182" ry="18"/>
<text text-anchor="middle" x="106.84" y="-516.866" font-family="Times,serif" font-size="14.00">TWO_WAY_SUPPORT</text>
</g>
<!-- n23 (0.75 &#45; 2)&#45;&gt;TWO_WAY_SUPPORT -->
<g id="edge11" class="edge"><title>n23 (0.75 &#45; 2)&#45;&gt;TWO_WAY_SUPPORT</title>
<path fill="none" stroke="black" d="M286.435,-578.97C252.036,-567.975 201.716,-551.891 163.086,-539.544"/>
<polygon fill="black" stroke="black" points="164.124,-536.201 153.533,-536.49 161.993,-542.869 164.124,-536.201"/>
</g>
<!-- PIATETSKY_SHAPIRO -->
<g id="node13" class="node"><title>PIATETSKY_SHAPIRO</title>
<ellipse fill="none" stroke="black" cx="325.84" cy="-520.566" rx="100.983" ry="18"/>
<text text-anchor="middle" x="325.84" y="-516.866" font-family="Times,serif" font-size="14.00">PIATETSKY_SHAPIRO</text>
</g>
<!-- n23 (0.75 &#45; 2)&#45;&gt;PIATETSKY_SHAPIRO -->
<g id="edge12" class="edge"><title>n23 (0.75 &#45; 2)&#45;&gt;PIATETSKY_SHAPIRO</title>
<path fill="none" stroke="black" d="M325.84,-574.262C325.84,-566.548 325.84,-557.278 325.84,-548.678"/>
<polygon fill="black" stroke="black" points="329.34,-548.67 325.84,-538.67 322.34,-548.67 329.34,-548.67"/>
</g>
<!-- KAPPA -->
<g id="node15" class="node"><title>KAPPA</title>
<ellipse fill="none" stroke="black" cx="483.84" cy="-520.566" rx="39.7935" ry="18"/>
<text text-anchor="middle" x="483.84" y="-516.866" font-family="Times,serif" font-size="14.00">KAPPA</text>
</g>
<!-- n24 (0.73 &#45; 2)&#45;&gt;KAPPA -->
<g id="edge14" class="edge"><title>n24 (0.73 &#45; 2)&#45;&gt;KAPPA</title>
<path fill="none" stroke="black" d="M483.84,-574.262C483.84,-566.548 483.84,-557.278 483.84,-548.678"/>
<polygon fill="black" stroke="black" points="487.34,-548.67 483.84,-538.67 480.34,-548.67 487.34,-548.67"/>
</g>
<!-- JACCARD -->
<g id="node16" class="node"><title>JACCARD</title>
<ellipse fill="none" stroke="black" cx="591.84" cy="-520.566" rx="50.8918" ry="18"/>
<text text-anchor="middle" x="591.84" y="-516.866" font-family="Times,serif" font-size="14.00">JACCARD</text>
</g>
<!-- n24 (0.73 &#45; 2)&#45;&gt;JACCARD -->
<g id="edge15" class="edge"><title>n24 (0.73 &#45; 2)&#45;&gt;JACCARD</title>
<path fill="none" stroke="black" d="M507.809,-576.03C523.015,-566.175 542.879,-553.3 559.476,-542.542"/>
<polygon fill="black" stroke="black" points="561.822,-545.193 568.31,-536.817 558.015,-539.319 561.822,-545.193"/>
</g>
<!-- LEAST_CONTRADICTION -->
<g id="node18" class="node"><title>LEAST_CONTRADICTION</title>
<ellipse fill="none" stroke="black" cx="675.84" cy="-592.566" rx="114.28" ry="18"/>
<text text-anchor="middle" x="675.84" y="-588.866" font-family="Times,serif" font-size="14.00">LEAST_CONTRADICTION</text>
</g>
<!-- n31 (0.45 &#45; 28)&#45;&gt;LEAST_CONTRADICTION -->
<g id="edge17" class="edge"><title>n31 (0.45 &#45; 28)&#45;&gt;LEAST_CONTRADICTION</title>
<path fill="none" stroke="black" d="M675.84,-646.262C675.84,-638.548 675.84,-629.278 675.84,-620.678"/>
<polygon fill="black" stroke="black" points="679.34,-620.67 675.84,-610.67 672.34,-620.67 679.34,-620.67"/>
</g>
<!-- n30 (0.58 &#45; 27) -->
<g id="node19" class="node"><title>n30 (0.58 &#45; 27)</title>
<ellipse fill="none" stroke="black" cx="872.84" cy="-592.566" rx="64.189" ry="18"/>
<text text-anchor="middle" x="872.84" y="-588.866" font-family="Times,serif" font-size="14.00">n30 (0.58 &#45; 27)</text>
</g>
<!-- n31 (0.45 &#45; 28)&#45;&gt;n30 (0.58 &#45; 27) -->
<g id="edge18" class="edge"><title>n31 (0.45 &#45; 28)&#45;&gt;n30 (0.58 &#45; 27)</title>
<path fill="none" stroke="black" d="M714.291,-649.903C745.885,-638.677 790.806,-622.715 824.771,-610.646"/>
<polygon fill="black" stroke="black" points="826.235,-613.84 834.486,-607.194 823.891,-607.244 826.235,-613.84"/>
</g>
<!-- n25 (0.73 &#45; 9) -->
<g id="node20" class="node"><title>n25 (0.73 &#45; 9)</title>
<ellipse fill="none" stroke="black" cx="796.84" cy="-520.566" rx="59.5901" ry="18"/>
<text text-anchor="middle" x="796.84" y="-516.866" font-family="Times,serif" font-size="14.00">n25 (0.73 &#45; 9)</text>
</g>
<!-- n30 (0.58 &#45; 27)&#45;&gt;n25 (0.73 &#45; 9) -->
<g id="edge19" class="edge"><title>n30 (0.58 &#45; 27)&#45;&gt;n25 (0.73 &#45; 9)</title>
<path fill="none" stroke="black" d="M854.829,-574.977C845.01,-565.932 832.701,-554.595 821.953,-544.695"/>
<polygon fill="black" stroke="black" points="824.186,-541.994 814.46,-537.794 819.444,-547.143 824.186,-541.994"/>
</g>
<!-- n27 (0.72 &#45; 18) -->
<g id="node29" class="node"><title>n27 (0.72 &#45; 18)</title>
<ellipse fill="none" stroke="black" cx="976.84" cy="-520.566" rx="64.189" ry="18"/>
<text text-anchor="middle" x="976.84" y="-516.866" font-family="Times,serif" font-size="14.00">n27 (0.72 &#45; 18)</text>
</g>
<!-- n30 (0.58 &#45; 27)&#45;&gt;n27 (0.72 &#45; 18) -->
<g id="edge28" class="edge"><title>n30 (0.58 &#45; 27)&#45;&gt;n27 (0.72 &#45; 18)</title>
<path fill="none" stroke="black" d="M896.439,-575.682C910.8,-566.016 929.33,-553.544 944.981,-543.01"/>
<polygon fill="black" stroke="black" points="946.993,-545.874 953.334,-537.387 943.084,-540.067 946.993,-545.874"/>
</g>
<!-- n21 (0.83 &#45; 3) -->
<g id="node21" class="node"><title>n21 (0.83 &#45; 3)</title>
<ellipse fill="none" stroke="black" cx="595.84" cy="-376.056" rx="59.5901" ry="18"/>
<text text-anchor="middle" x="595.84" y="-372.356" font-family="Times,serif" font-size="14.00">n21 (0.83 &#45; 3)</text>
</g>
<!-- n25 (0.73 &#45; 9)&#45;&gt;n21 (0.83 &#45; 3) -->
<g id="edge20" class="edge"><title>n25 (0.73 &#45; 9)&#45;&gt;n21 (0.83 &#45; 3)</title>
<path fill="none" stroke="black" d="M774.562,-503.77C738.491,-478.196 667.239,-427.678 626.439,-398.75"/>
<polygon fill="black" stroke="black" points="628.401,-395.851 618.219,-392.922 624.352,-401.561 628.401,-395.851"/>
</g>
<!-- n22 (0.82 &#45; 6) -->
<g id="node24" class="node"><title>n22 (0.82 &#45; 6)</title>
<ellipse fill="none" stroke="black" cx="796.84" cy="-376.056" rx="59.5901" ry="18"/>
<text text-anchor="middle" x="796.84" y="-372.356" font-family="Times,serif" font-size="14.00">n22 (0.82 &#45; 6)</text>
</g>
<!-- n25 (0.73 &#45; 9)&#45;&gt;n22 (0.82 &#45; 6) -->
<g id="edge23" class="edge"><title>n25 (0.73 &#45; 9)&#45;&gt;n22 (0.82 &#45; 6)</title>
<path fill="none" stroke="black" d="M796.84,-502.376C796.84,-478.087 796.84,-433.468 796.84,-404.547"/>
<polygon fill="black" stroke="black" points="800.34,-404.307 796.84,-394.307 793.34,-404.307 800.34,-404.307"/>
</g>
<!-- KLOSGEN -->
<g id="node22" class="node"><title>KLOSGEN</title>
<ellipse fill="none" stroke="black" cx="416.84" cy="-201.463" rx="51.9908" ry="18"/>
<text text-anchor="middle" x="416.84" y="-197.763" font-family="Times,serif" font-size="14.00">KLOSGEN</text>
</g>
<!-- n21 (0.83 &#45; 3)&#45;&gt;KLOSGEN -->
<g id="edge21" class="edge"><title>n21 (0.83 &#45; 3)&#45;&gt;KLOSGEN</title>
<path fill="none" stroke="black" d="M578.677,-358.507C546.653,-327.629 477.725,-261.168 441.011,-225.768"/>
<polygon fill="black" stroke="black" points="443.318,-223.131 433.69,-218.71 438.46,-228.17 443.318,-223.131"/>
</g>
<!-- GINI\nIMPLICATION_INDEX -->
<g id="node23" class="node"><title>GINI\nIMPLICATION_INDEX</title>
<ellipse fill="none" stroke="black" cx="595.84" cy="-201.463" rx="108.789" ry="26.7407"/>
<text text-anchor="middle" x="595.84" y="-205.263" font-family="Times,serif" font-size="14.00">GINI</text>
<text text-anchor="middle" x="595.84" y="-190.263" font-family="Times,serif" font-size="14.00">IMPLICATION_INDEX</text>
</g>
<!-- n21 (0.83 &#45; 3)&#45;&gt;GINI\nIMPLICATION_INDEX -->
<g id="edge22" class="edge"><title>n21 (0.83 &#45; 3)&#45;&gt;GINI\nIMPLICATION_INDEX</title>
<path fill="none" stroke="black" d="M595.84,-357.876C595.84,-330.249 595.84,-275.348 595.84,-238.757"/>
<polygon fill="black" stroke="black" points="599.34,-238.5 595.84,-228.5 592.34,-238.5 599.34,-238.5"/>
</g>
<!-- CHI_SQUARE\nPHI -->
<g id="node25" class="node"><title>CHI_SQUARE\nPHI</title>
<ellipse fill="none" stroke="black" cx="793.84" cy="-201.463" rx="71.3357" ry="26.7407"/>
<text text-anchor="middle" x="793.84" y="-205.263" font-family="Times,serif" font-size="14.00">CHI_SQUARE</text>
<text text-anchor="middle" x="793.84" y="-190.263" font-family="Times,serif" font-size="14.00">PHI</text>
</g>
<!-- n22 (0.82 &#45; 6)&#45;&gt;CHI_SQUARE\nPHI -->
<g id="edge24" class="edge"><title>n22 (0.82 &#45; 6)&#45;&gt;CHI_SQUARE\nPHI</title>
<path fill="none" stroke="black" d="M796.542,-357.876C796.061,-330.249 795.107,-275.348 794.471,-238.757"/>
<polygon fill="black" stroke="black" points="797.966,-238.438 794.293,-228.5 790.967,-238.56 797.966,-238.438"/>
</g>
<!-- n19 (0.88 &#45; 4) -->
<g id="node26" class="node"><title>n19 (0.88 &#45; 4)</title>
<ellipse fill="none" stroke="black" cx="942.84" cy="-201.463" rx="59.5901" ry="18"/>
<text text-anchor="middle" x="942.84" y="-197.763" font-family="Times,serif" font-size="14.00">n19 (0.88 &#45; 4)</text>
</g>
<!-- n22 (0.82 &#45; 6)&#45;&gt;n19 (0.88 &#45; 4) -->
<g id="edge25" class="edge"><title>n22 (0.82 &#45; 6)&#45;&gt;n19 (0.88 &#45; 4)</title>
<path fill="none" stroke="black" d="M810.839,-358.507C836.609,-328.044 891.676,-262.947 921.905,-227.211"/>
<polygon fill="black" stroke="black" points="924.883,-229.111 928.669,-219.215 919.538,-224.59 924.883,-229.111"/>
</g>
<!-- COSINE -->
<g id="node27" class="node"><title>COSINE</title>
<ellipse fill="none" stroke="black" cx="752.84" cy="-58.6899" rx="42.4939" ry="18"/>
<text text-anchor="middle" x="752.84" y="-54.9899" font-family="Times,serif" font-size="14.00">COSINE</text>
</g>
<!-- n19 (0.88 &#45; 4)&#45;&gt;COSINE -->
<g id="edge26" class="edge"><title>n19 (0.88 &#45; 4)&#45;&gt;COSINE</title>
<path fill="none" stroke="black" d="M920.922,-184.481C907.581,-175.013 890.041,-163.023 873.84,-153.38 843.778,-135.486 831.457,-138.855 803.84,-117.38 791.647,-107.898 780.07,-95.2226 771.039,-84.1684"/>
<polygon fill="black" stroke="black" points="773.611,-81.7789 764.66,-76.111 768.123,-86.1239 773.611,-81.7789"/>
</g>
<!-- J_MEASURE\nFISHER_PVAL\nTWO_WAY_SUPPORT_VARIATION -->
<g id="node28" class="node"><title>J_MEASURE\nFISHER_PVAL\nTWO_WAY_SUPPORT_VARIATION</title>
<ellipse fill="none" stroke="black" cx="979.84" cy="-58.6899" rx="166.754" ry="37.4533"/>
<text text-anchor="middle" x="979.84" y="-69.9899" font-family="Times,serif" font-size="14.00">J_MEASURE</text>
<text text-anchor="middle" x="979.84" y="-54.9899" font-family="Times,serif" font-size="14.00">FISHER_PVAL</text>
<text text-anchor="middle" x="979.84" y="-39.9899" font-family="Times,serif" font-size="14.00">TWO_WAY_SUPPORT_VARIATION</text>
</g>
<!-- n19 (0.88 &#45; 4)&#45;&gt;J_MEASURE\nFISHER_PVAL\nTWO_WAY_SUPPORT_VARIATION -->
<g id="edge27" class="edge"><title>n19 (0.88 &#45; 4)&#45;&gt;J_MEASURE\nFISHER_PVAL\nTWO_WAY_SUPPORT_VARIATION</title>
<path fill="none" stroke="black" d="M947.303,-183.482C952.314,-164.418 960.657,-132.674 967.641,-106.105"/>
<polygon fill="black" stroke="black" points="971.084,-106.774 970.241,-96.2129 964.314,-104.995 971.084,-106.774"/>
</g>
<!-- RELATIVE_RISK\nLIFT\nODD_MULTIPLIER\nZHANG\nBAYES\nYULE_Y\nYULE_Q\nODDS_RATIO -->
<g id="node30" class="node"><title>RELATIVE_RISK\nLIFT\nODD_MULTIPLIER\nZHANG\nBAYES\nYULE_Y\nYULE_Q\nODDS_RATIO</title>
<ellipse fill="none" stroke="black" cx="976.84" cy="-376.056" rx="94.5053" ry="90.5193"/>
<text text-anchor="middle" x="976.84" y="-424.856" font-family="Times,serif" font-size="14.00">RELATIVE_RISK</text>
<text text-anchor="middle" x="976.84" y="-409.856" font-family="Times,serif" font-size="14.00">LIFT</text>
<text text-anchor="middle" x="976.84" y="-394.856" font-family="Times,serif" font-size="14.00">ODD_MULTIPLIER</text>
<text text-anchor="middle" x="976.84" y="-379.856" font-family="Times,serif" font-size="14.00">ZHANG</text>
<text text-anchor="middle" x="976.84" y="-364.856" font-family="Times,serif" font-size="14.00">BAYES</text>
<text text-anchor="middle" x="976.84" y="-349.856" font-family="Times,serif" font-size="14.00">YULE_Y</text>
<text text-anchor="middle" x="976.84" y="-334.856" font-family="Times,serif" font-size="14.00">YULE_Q</text>
<text text-anchor="middle" x="976.84" y="-319.856" font-family="Times,serif" font-size="14.00">ODDS_RATIO</text>
</g>
<!-- n27 (0.72 &#45; 18)&#45;&gt;RELATIVE_RISK\nLIFT\nODD_MULTIPLIER\nZHANG\nBAYES\nYULE_Y\nYULE_Q\nODDS_RATIO -->
<g id="edge29" class="edge"><title>n27 (0.72 &#45; 18)&#45;&gt;RELATIVE_RISK\nLIFT\nODD_MULTIPLIER\nZHANG\nBAYES\nYULE_Y\nYULE_Q\nODDS_RATIO</title>
<path fill="none" stroke="black" d="M976.84,-502.376C976.84,-495.343 976.84,-486.605 976.84,-477.038"/>
<polygon fill="black" stroke="black" points="980.34,-476.804 976.84,-466.804 973.34,-476.804 980.34,-476.804"/>
</g>
<!-- n20 (0.86 &#45; 10) -->
<g id="node31" class="node"><title>n20 (0.86 &#45; 10)</title>
<ellipse fill="none" stroke="black" cx="1157.84" cy="-376.056" rx="64.189" ry="18"/>
<text text-anchor="middle" x="1157.84" y="-372.356" font-family="Times,serif" font-size="14.00">n20 (0.86 &#45; 10)</text>
</g>
<!-- n27 (0.72 &#45; 18)&#45;&gt;n20 (0.86 &#45; 10) -->
<g id="edge30" class="edge"><title>n27 (0.72 &#45; 18)&#45;&gt;n20 (0.86 &#45; 10)</title>
<path fill="none" stroke="black" d="M1012.57,-505.513C1033.63,-496.252 1060.12,-482.839 1080.84,-466.566 1104.33,-448.118 1126.02,-421.678 1140.35,-402.317"/>
<polygon fill="black" stroke="black" points="1143.36,-404.124 1146.4,-393.974 1137.7,-400.016 1143.36,-404.124"/>
</g>
<!-- LEVERAGE\nCOUNTER_EXAMPLE_RATE\nSEBAG_SCHOENAUER\nCONFIDENCE -->
<g id="node32" class="node"><title>LEVERAGE\nCOUNTER_EXAMPLE_RATE\nSEBAG_SCHOENAUER\nCONFIDENCE</title>
<ellipse fill="none" stroke="black" cx="1157.84" cy="-201.463" rx="137.358" ry="48.1667"/>
<text text-anchor="middle" x="1157.84" y="-220.263" font-family="Times,serif" font-size="14.00">LEVERAGE</text>
<text text-anchor="middle" x="1157.84" y="-205.263" font-family="Times,serif" font-size="14.00">COUNTER_EXAMPLE_RATE</text>
<text text-anchor="middle" x="1157.84" y="-190.263" font-family="Times,serif" font-size="14.00">SEBAG_SCHOENAUER</text>
<text text-anchor="middle" x="1157.84" y="-175.263" font-family="Times,serif" font-size="14.00">CONFIDENCE</text>
</g>
<!-- n20 (0.86 &#45; 10)&#45;&gt;LEVERAGE\nCOUNTER_EXAMPLE_RATE\nSEBAG_SCHOENAUER\nCONFIDENCE -->
<g id="edge31" class="edge"><title>n20 (0.86 &#45; 10)&#45;&gt;LEVERAGE\nCOUNTER_EXAMPLE_RATE\nSEBAG_SCHOENAUER\nCONFIDENCE</title>
<path fill="none" stroke="black" d="M1157.84,-357.876C1157.84,-335.236 1157.84,-294.278 1157.84,-260.092"/>
<polygon fill="black" stroke="black" points="1161.34,-259.728 1157.84,-249.728 1154.34,-259.728 1161.34,-259.728"/>
</g>
<!-- n18 (0.88 &#45; 6) -->
<g id="node33" class="node"><title>n18 (0.88 &#45; 6)</title>
<ellipse fill="none" stroke="black" cx="1372.84" cy="-201.463" rx="59.5901" ry="18"/>
<text text-anchor="middle" x="1372.84" y="-197.763" font-family="Times,serif" font-size="14.00">n18 (0.88 &#45; 6)</text>
</g>
<!-- n20 (0.86 &#45; 10)&#45;&gt;n18 (0.88 &#45; 6) -->
<g id="edge32" class="edge"><title>n20 (0.86 &#45; 10)&#45;&gt;n18 (0.88 &#45; 6)</title>
<path fill="none" stroke="black" d="M1178.07,-358.819C1216.66,-327.837 1300.87,-260.234 1344.85,-224.935"/>
<polygon fill="black" stroke="black" points="1347.22,-227.521 1352.82,-218.531 1342.83,-222.062 1347.22,-227.521"/>
</g>
<!-- ONE_WAY_SUPPORT -->
<g id="node34" class="node"><title>ONE_WAY_SUPPORT</title>
<ellipse fill="none" stroke="black" cx="1335.84" cy="-58.6899" rx="97.4827" ry="18"/>
<text text-anchor="middle" x="1335.84" y="-54.9899" font-family="Times,serif" font-size="14.00">ONE_WAY_SUPPORT</text>
</g>
<!-- n18 (0.88 &#45; 6)&#45;&gt;ONE_WAY_SUPPORT -->
<g id="edge33" class="edge"><title>n18 (0.88 &#45; 6)&#45;&gt;ONE_WAY_SUPPORT</title>
<path fill="none" stroke="black" d="M1368.38,-183.482C1362.04,-159.385 1350.38,-115.026 1342.88,-86.4697"/>
<polygon fill="black" stroke="black" points="1346.25,-85.5124 1340.32,-76.7306 1339.48,-87.2919 1346.25,-85.5124"/>
</g>
<!-- CENTERED_CONFIDENCE\nADDED_VALUE\nLOEVINGER\nCONVICTION\nCERTAINTY_FACTOR -->
<g id="node35" class="node"><title>CENTERED_CONFIDENCE\nADDED_VALUE\nLOEVINGER\nCONVICTION\nCERTAINTY_FACTOR</title>
<ellipse fill="none" stroke="black" cx="1577.84" cy="-58.6899" rx="126.644" ry="58.8803"/>
<text text-anchor="middle" x="1577.84" y="-84.9899" font-family="Times,serif" font-size="14.00">CENTERED_CONFIDENCE</text>
<text text-anchor="middle" x="1577.84" y="-69.9899" font-family="Times,serif" font-size="14.00">ADDED_VALUE</text>
<text text-anchor="middle" x="1577.84" y="-54.9899" font-family="Times,serif" font-size="14.00">LOEVINGER</text>
<text text-anchor="middle" x="1577.84" y="-39.9899" font-family="Times,serif" font-size="14.00">CONVICTION</text>
<text text-anchor="middle" x="1577.84" y="-24.9899" font-family="Times,serif" font-size="14.00">CERTAINTY_FACTOR</text>
</g>
<!-- n18 (0.88 &#45; 6)&#45;&gt;CENTERED_CONFIDENCE\nADDED_VALUE\nLOEVINGER\nCONVICTION\nCERTAINTY_FACTOR -->
<g id="edge34" class="edge"><title>n18 (0.88 &#45; 6)&#45;&gt;CENTERED_CONFIDENCE\nADDED_VALUE\nLOEVINGER\nCONVICTION\nCERTAINTY_FACTOR</title>
<path fill="none" stroke="black" d="M1395.96,-184.588C1421.07,-167.341 1462.58,-138.842 1499.6,-113.419"/>
<polygon fill="black" stroke="black" points="1501.65,-116.256 1507.91,-107.71 1497.69,-110.486 1501.65,-116.256"/>
</g>
</g>
</svg>
