<?xml version="1.0" encoding="UTF-8" standalone="no"?>
<!DOCTYPE svg PUBLIC "-//W3C//DTD SVG 1.1//EN"
 "http://www.w3.org/Graphics/SVG/1.1/DTD/svg11.dtd">
<!-- Generated by graphviz version 2.38.0 (20140413.2041)
 -->
<!-- Title: dendrogram Pages: 1 -->
<svg width="2465pt" height="1805pt"
 viewBox="0.00 0.00 2464.96 1805.03" xmlns="http://www.w3.org/2000/svg" xmlns:xlink="http://www.w3.org/1999/xlink">
<g id="graph0" class="graph" transform="scale(1 1) rotate(0) translate(4 1801.03)">
<title>dendrogram</title>
<polygon fill="white" stroke="none" points="-4,4 -4,-1801.03 2460.96,-1801.03 2460.96,4 -4,4"/>
<!-- n34 (0.00 &#45; 36) -->
<g id="node1" class="node"><title>n34 (0.00 &#45; 36)</title>
<ellipse fill="none" stroke="black" cx="297.39" cy="-1779.03" rx="64.189" ry="18"/>
<text text-anchor="middle" x="297.39" y="-1775.33" font-family="Times,serif" font-size="14.00">n34 (0.00 &#45; 36)</text>
</g>
<!-- SPECIFICITY -->
<g id="node2" class="node"><title>SPECIFICITY</title>
<ellipse fill="none" stroke="black" cx="225.39" cy="-1707.03" rx="63.0888" ry="18"/>
<text text-anchor="middle" x="225.39" y="-1703.33" font-family="Times,serif" font-size="14.00">SPECIFICITY</text>
</g>
<!-- n34 (0.00 &#45; 36)&#45;&gt;SPECIFICITY -->
<g id="edge1" class="edge"><title>n34 (0.00 &#45; 36)&#45;&gt;SPECIFICITY</title>
<path fill="none" stroke="black" d="M280.327,-1761.44C271.181,-1752.55 259.755,-1741.44 249.696,-1731.66"/>
<polygon fill="black" stroke="black" points="251.94,-1728.96 242.33,-1724.5 247.061,-1733.98 251.94,-1728.96"/>
</g>
<!-- n33 (0.00 &#45; 35) -->
<g id="node3" class="node"><title>n33 (0.00 &#45; 35)</title>
<ellipse fill="none" stroke="black" cx="370.39" cy="-1707.03" rx="64.189" ry="18"/>
<text text-anchor="middle" x="370.39" y="-1703.33" font-family="Times,serif" font-size="14.00">n33 (0.00 &#45; 35)</text>
</g>
<!-- n34 (0.00 &#45; 36)&#45;&gt;n33 (0.00 &#45; 35) -->
<g id="edge2" class="edge"><title>n34 (0.00 &#45; 36)&#45;&gt;n33 (0.00 &#45; 35)</title>
<path fill="none" stroke="black" d="M314.69,-1761.44C323.963,-1752.55 335.547,-1741.44 345.746,-1731.66"/>
<polygon fill="black" stroke="black" points="348.419,-1733.94 353.214,-1724.5 343.574,-1728.89 348.419,-1733.94"/>
</g>
<!-- n16 (0.41 &#45; 2) -->
<g id="node4" class="node"><title>n16 (0.41 &#45; 2)</title>
<ellipse fill="none" stroke="black" cx="299.39" cy="-1635.03" rx="59.5901" ry="18"/>
<text text-anchor="middle" x="299.39" y="-1631.33" font-family="Times,serif" font-size="14.00">n16 (0.41 &#45; 2)</text>
</g>
<!-- n33 (0.00 &#45; 35)&#45;&gt;n16 (0.41 &#45; 2) -->
<g id="edge3" class="edge"><title>n33 (0.00 &#45; 35)&#45;&gt;n16 (0.41 &#45; 2)</title>
<path fill="none" stroke="black" d="M353.564,-1689.44C344.545,-1680.55 333.278,-1669.44 323.358,-1659.66"/>
<polygon fill="black" stroke="black" points="325.673,-1657.02 316.095,-1652.5 320.759,-1662.01 325.673,-1657.02"/>
</g>
<!-- n32 (0.00 &#45; 33) -->
<g id="node7" class="node"><title>n32 (0.00 &#45; 33)</title>
<ellipse fill="none" stroke="black" cx="441.39" cy="-1635.03" rx="64.189" ry="18"/>
<text text-anchor="middle" x="441.39" y="-1631.33" font-family="Times,serif" font-size="14.00">n32 (0.00 &#45; 33)</text>
</g>
<!-- n33 (0.00 &#45; 35)&#45;&gt;n32 (0.00 &#45; 33) -->
<g id="edge6" class="edge"><title>n33 (0.00 &#45; 35)&#45;&gt;n32 (0.00 &#45; 33)</title>
<path fill="none" stroke="black" d="M387.216,-1689.44C396.235,-1680.55 407.502,-1669.44 417.421,-1659.66"/>
<polygon fill="black" stroke="black" points="420.021,-1662.01 424.685,-1652.5 415.106,-1657.02 420.021,-1662.01"/>
</g>
<!-- LEAST_CONTRADICTION -->
<g id="node5" class="node"><title>LEAST_CONTRADICTION</title>
<ellipse fill="none" stroke="black" cx="114.39" cy="-1563.03" rx="114.28" ry="18"/>
<text text-anchor="middle" x="114.39" y="-1559.33" font-family="Times,serif" font-size="14.00">LEAST_CONTRADICTION</text>
</g>
<!-- n16 (0.41 &#45; 2)&#45;&gt;LEAST_CONTRADICTION -->
<g id="edge4" class="edge"><title>n16 (0.41 &#45; 2)&#45;&gt;LEAST_CONTRADICTION</title>
<path fill="none" stroke="black" d="M263.72,-1620.53C235.84,-1609.98 196.714,-1595.18 165.505,-1583.37"/>
<polygon fill="black" stroke="black" points="166.686,-1580.07 156.095,-1579.81 164.209,-1586.62 166.686,-1580.07"/>
</g>
<!-- ACCURACY -->
<g id="node6" class="node"><title>ACCURACY</title>
<ellipse fill="none" stroke="black" cx="306.39" cy="-1563.03" rx="59.5901" ry="18"/>
<text text-anchor="middle" x="306.39" y="-1559.33" font-family="Times,serif" font-size="14.00">ACCURACY</text>
</g>
<!-- n16 (0.41 &#45; 2)&#45;&gt;ACCURACY -->
<g id="edge5" class="edge"><title>n16 (0.41 &#45; 2)&#45;&gt;ACCURACY</title>
<path fill="none" stroke="black" d="M301.12,-1616.72C301.892,-1609.01 302.819,-1599.74 303.679,-1591.14"/>
<polygon fill="black" stroke="black" points="307.167,-1591.43 304.679,-1581.13 300.202,-1590.73 307.167,-1591.43"/>
</g>
<!-- KAPPA -->
<g id="node8" class="node"><title>KAPPA</title>
<ellipse fill="none" stroke="black" cx="435.39" cy="-1563.03" rx="39.7935" ry="18"/>
<text text-anchor="middle" x="435.39" y="-1559.33" font-family="Times,serif" font-size="14.00">KAPPA</text>
</g>
<!-- n32 (0.00 &#45; 33)&#45;&gt;KAPPA -->
<g id="edge7" class="edge"><title>n32 (0.00 &#45; 33)&#45;&gt;KAPPA</title>
<path fill="none" stroke="black" d="M439.907,-1616.72C439.246,-1609.01 438.451,-1599.74 437.714,-1591.14"/>
<polygon fill="black" stroke="black" points="441.197,-1590.8 436.856,-1581.13 434.223,-1591.39 441.197,-1590.8"/>
</g>
<!-- n31 (0.00 &#45; 32) -->
<g id="node9" class="node"><title>n31 (0.00 &#45; 32)</title>
<ellipse fill="none" stroke="black" cx="557.39" cy="-1563.03" rx="64.189" ry="18"/>
<text text-anchor="middle" x="557.39" y="-1559.33" font-family="Times,serif" font-size="14.00">n31 (0.00 &#45; 32)</text>
</g>
<!-- n32 (0.00 &#45; 33)&#45;&gt;n31 (0.00 &#45; 32) -->
<g id="edge8" class="edge"><title>n32 (0.00 &#45; 33)&#45;&gt;n31 (0.00 &#45; 32)</title>
<path fill="none" stroke="black" d="M467.134,-1618.49C483.39,-1608.68 504.603,-1595.88 522.379,-1585.15"/>
<polygon fill="black" stroke="black" points="524.563,-1587.92 531.317,-1579.76 520.946,-1581.93 524.563,-1587.92"/>
</g>
<!-- LEVERAGE -->
<g id="node10" class="node"><title>LEVERAGE</title>
<ellipse fill="none" stroke="black" cx="487.39" cy="-1491.03" rx="57.3905" ry="18"/>
<text text-anchor="middle" x="487.39" y="-1487.33" font-family="Times,serif" font-size="14.00">LEVERAGE</text>
</g>
<!-- n31 (0.00 &#45; 32)&#45;&gt;LEVERAGE -->
<g id="edge9" class="edge"><title>n31 (0.00 &#45; 32)&#45;&gt;LEVERAGE</title>
<path fill="none" stroke="black" d="M540.801,-1545.44C531.909,-1536.55 520.801,-1525.44 511.021,-1515.66"/>
<polygon fill="black" stroke="black" points="513.406,-1513.09 503.86,-1508.5 508.456,-1518.04 513.406,-1513.09"/>
</g>
<!-- n30 (0.00 &#45; 31) -->
<g id="node11" class="node"><title>n30 (0.00 &#45; 31)</title>
<ellipse fill="none" stroke="black" cx="627.39" cy="-1491.03" rx="64.189" ry="18"/>
<text text-anchor="middle" x="627.39" y="-1487.33" font-family="Times,serif" font-size="14.00">n30 (0.00 &#45; 31)</text>
</g>
<!-- n31 (0.00 &#45; 32)&#45;&gt;n30 (0.00 &#45; 31) -->
<g id="edge10" class="edge"><title>n31 (0.00 &#45; 32)&#45;&gt;n30 (0.00 &#45; 31)</title>
<path fill="none" stroke="black" d="M573.979,-1545.44C582.871,-1536.55 593.979,-1525.44 603.759,-1515.66"/>
<polygon fill="black" stroke="black" points="606.324,-1518.04 610.92,-1508.5 601.374,-1513.09 606.324,-1518.04"/>
</g>
<!-- IMPLICATION_INDEX -->
<g id="node12" class="node"><title>IMPLICATION_INDEX</title>
<ellipse fill="none" stroke="black" cx="536.39" cy="-1419.03" rx="100.182" ry="18"/>
<text text-anchor="middle" x="536.39" y="-1415.33" font-family="Times,serif" font-size="14.00">IMPLICATION_INDEX</text>
</g>
<!-- n30 (0.00 &#45; 31)&#45;&gt;IMPLICATION_INDEX -->
<g id="edge11" class="edge"><title>n30 (0.00 &#45; 31)&#45;&gt;IMPLICATION_INDEX</title>
<path fill="none" stroke="black" d="M606.284,-1473.79C594.397,-1464.65 579.355,-1453.08 566.274,-1443.01"/>
<polygon fill="black" stroke="black" points="568.074,-1439.98 558.013,-1436.66 563.806,-1445.53 568.074,-1439.98"/>
</g>
<!-- n29 (0.00 &#45; 30) -->
<g id="node13" class="node"><title>n29 (0.00 &#45; 30)</title>
<ellipse fill="none" stroke="black" cx="718.39" cy="-1419.03" rx="64.189" ry="18"/>
<text text-anchor="middle" x="718.39" y="-1415.33" font-family="Times,serif" font-size="14.00">n29 (0.00 &#45; 30)</text>
</g>
<!-- n30 (0.00 &#45; 31)&#45;&gt;n29 (0.00 &#45; 30) -->
<g id="edge12" class="edge"><title>n30 (0.00 &#45; 31)&#45;&gt;n29 (0.00 &#45; 30)</title>
<path fill="none" stroke="black" d="M648.496,-1473.79C660.67,-1464.43 676.153,-1452.52 689.45,-1442.29"/>
<polygon fill="black" stroke="black" points="691.606,-1445.05 697.398,-1436.17 687.338,-1439.5 691.606,-1445.05"/>
</g>
<!-- n18 (0.02 &#45; 4) -->
<g id="node14" class="node"><title>n18 (0.02 &#45; 4)</title>
<ellipse fill="none" stroke="black" cx="647.39" cy="-1347.03" rx="59.5901" ry="18"/>
<text text-anchor="middle" x="647.39" y="-1343.33" font-family="Times,serif" font-size="14.00">n18 (0.02 &#45; 4)</text>
</g>
<!-- n29 (0.00 &#45; 30)&#45;&gt;n18 (0.02 &#45; 4) -->
<g id="edge13" class="edge"><title>n29 (0.00 &#45; 30)&#45;&gt;n18 (0.02 &#45; 4)</title>
<path fill="none" stroke="black" d="M701.564,-1401.44C692.545,-1392.55 681.278,-1381.44 671.358,-1371.66"/>
<polygon fill="black" stroke="black" points="673.673,-1369.02 664.095,-1364.5 668.759,-1374.01 673.673,-1369.02"/>
</g>
<!-- n28 (0.00 &#45; 26) -->
<g id="node17" class="node"><title>n28 (0.00 &#45; 26)</title>
<ellipse fill="none" stroke="black" cx="789.39" cy="-1347.03" rx="64.189" ry="18"/>
<text text-anchor="middle" x="789.39" y="-1343.33" font-family="Times,serif" font-size="14.00">n28 (0.00 &#45; 26)</text>
</g>
<!-- n29 (0.00 &#45; 30)&#45;&gt;n28 (0.00 &#45; 26) -->
<g id="edge16" class="edge"><title>n29 (0.00 &#45; 30)&#45;&gt;n28 (0.00 &#45; 26)</title>
<path fill="none" stroke="black" d="M735.216,-1401.44C744.235,-1392.55 755.502,-1381.44 765.421,-1371.66"/>
<polygon fill="black" stroke="black" points="768.021,-1374.01 772.685,-1364.5 763.106,-1369.02 768.021,-1374.01"/>
</g>
<!-- RELATIVE_RISK -->
<g id="node15" class="node"><title>RELATIVE_RISK</title>
<ellipse fill="none" stroke="black" cx="481.39" cy="-1255.55" rx="77.9862" ry="18"/>
<text text-anchor="middle" x="481.39" y="-1251.85" font-family="Times,serif" font-size="14.00">RELATIVE_RISK</text>
</g>
<!-- n18 (0.02 &#45; 4)&#45;&gt;RELATIVE_RISK -->
<g id="edge14" class="edge"><title>n18 (0.02 &#45; 4)&#45;&gt;RELATIVE_RISK</title>
<path fill="none" stroke="black" d="M619.605,-1331.05C592.253,-1316.31 550.261,-1293.67 519.739,-1277.22"/>
<polygon fill="black" stroke="black" points="521.127,-1273.99 510.664,-1272.33 517.806,-1280.15 521.127,-1273.99"/>
</g>
<!-- YULE_Y\nYULE_Q\nODDS_RATIO -->
<g id="node16" class="node"><title>YULE_Y\nYULE_Q\nODDS_RATIO</title>
<ellipse fill="none" stroke="black" cx="648.39" cy="-1255.55" rx="71.3357" ry="37.4533"/>
<text text-anchor="middle" x="648.39" y="-1266.85" font-family="Times,serif" font-size="14.00">YULE_Y</text>
<text text-anchor="middle" x="648.39" y="-1251.85" font-family="Times,serif" font-size="14.00">YULE_Q</text>
<text text-anchor="middle" x="648.39" y="-1236.85" font-family="Times,serif" font-size="14.00">ODDS_RATIO</text>
</g>
<!-- n18 (0.02 &#45; 4)&#45;&gt;YULE_Y\nYULE_Q\nODDS_RATIO -->
<g id="edge15" class="edge"><title>n18 (0.02 &#45; 4)&#45;&gt;YULE_Y\nYULE_Q\nODDS_RATIO</title>
<path fill="none" stroke="black" d="M647.583,-1328.77C647.664,-1321.47 647.764,-1312.57 647.865,-1303.54"/>
<polygon fill="black" stroke="black" points="651.366,-1303.42 647.978,-1293.38 644.367,-1303.34 651.366,-1303.42"/>
</g>
<!-- JACCARD -->
<g id="node18" class="node"><title>JACCARD</title>
<ellipse fill="none" stroke="black" cx="789.39" cy="-1255.55" rx="50.8918" ry="18"/>
<text text-anchor="middle" x="789.39" y="-1251.85" font-family="Times,serif" font-size="14.00">JACCARD</text>
</g>
<!-- n28 (0.00 &#45; 26)&#45;&gt;JACCARD -->
<g id="edge17" class="edge"><title>n28 (0.00 &#45; 26)&#45;&gt;JACCARD</title>
<path fill="none" stroke="black" d="M789.39,-1328.77C789.39,-1316.02 789.39,-1298.41 789.39,-1283.77"/>
<polygon fill="black" stroke="black" points="792.89,-1283.75 789.39,-1273.75 785.89,-1283.75 792.89,-1283.75"/>
</g>
<!-- n27 (0.00 &#45; 25) -->
<g id="node19" class="node"><title>n27 (0.00 &#45; 25)</title>
<ellipse fill="none" stroke="black" cx="922.39" cy="-1255.55" rx="64.189" ry="18"/>
<text text-anchor="middle" x="922.39" y="-1251.85" font-family="Times,serif" font-size="14.00">n27 (0.00 &#45; 25)</text>
</g>
<!-- n28 (0.00 &#45; 26)&#45;&gt;n27 (0.00 &#45; 25) -->
<g id="edge18" class="edge"><title>n28 (0.00 &#45; 26)&#45;&gt;n27 (0.00 &#45; 25)</title>
<path fill="none" stroke="black" d="M812.861,-1330.24C834.381,-1315.76 866.434,-1294.19 890.313,-1278.13"/>
<polygon fill="black" stroke="black" points="892.362,-1280.97 898.706,-1272.48 888.455,-1275.16 892.362,-1280.97"/>
</g>
<!-- n17 (0.27 &#45; 2) -->
<g id="node20" class="node"><title>n17 (0.27 &#45; 2)</title>
<ellipse fill="none" stroke="black" cx="848.39" cy="-1164.07" rx="59.5901" ry="18"/>
<text text-anchor="middle" x="848.39" y="-1160.37" font-family="Times,serif" font-size="14.00">n17 (0.27 &#45; 2)</text>
</g>
<!-- n27 (0.00 &#45; 25)&#45;&gt;n17 (0.27 &#45; 2) -->
<g id="edge19" class="edge"><title>n27 (0.00 &#45; 25)&#45;&gt;n17 (0.27 &#45; 2)</title>
<path fill="none" stroke="black" d="M908.471,-1237.72C897.308,-1224.22 881.479,-1205.08 868.87,-1189.84"/>
<polygon fill="black" stroke="black" points="871.317,-1187.3 862.246,-1181.83 865.922,-1191.76 871.317,-1187.3"/>
</g>
<!-- n26 (0.00 &#45; 23) -->
<g id="node23" class="node"><title>n26 (0.00 &#45; 23)</title>
<ellipse fill="none" stroke="black" cx="995.39" cy="-1164.07" rx="64.189" ry="18"/>
<text text-anchor="middle" x="995.39" y="-1160.37" font-family="Times,serif" font-size="14.00">n26 (0.00 &#45; 23)</text>
</g>
<!-- n27 (0.00 &#45; 25)&#45;&gt;n26 (0.00 &#45; 23) -->
<g id="edge22" class="edge"><title>n27 (0.00 &#45; 25)&#45;&gt;n26 (0.00 &#45; 23)</title>
<path fill="none" stroke="black" d="M936.121,-1237.72C947.133,-1224.22 962.748,-1205.08 975.187,-1189.84"/>
<polygon fill="black" stroke="black" points="978.111,-1191.79 981.721,-1181.83 972.687,-1187.36 978.111,-1191.79"/>
</g>
<!-- TWO_WAY_SUPPORT_VARIATION -->
<g id="node21" class="node"><title>TWO_WAY_SUPPORT_VARIATION</title>
<ellipse fill="none" stroke="black" cx="608.39" cy="-1092.07" rx="153.273" ry="18"/>
<text text-anchor="middle" x="608.39" y="-1088.37" font-family="Times,serif" font-size="14.00">TWO_WAY_SUPPORT_VARIATION</text>
</g>
<!-- n17 (0.27 &#45; 2)&#45;&gt;TWO_WAY_SUPPORT_VARIATION -->
<g id="edge20" class="edge"><title>n17 (0.27 &#45; 2)&#45;&gt;TWO_WAY_SUPPORT_VARIATION</title>
<path fill="none" stroke="black" d="M807.132,-1151.04C770.204,-1140.27 715.464,-1124.3 672.778,-1111.85"/>
<polygon fill="black" stroke="black" points="673.616,-1108.45 663.036,-1109.01 671.656,-1115.17 673.616,-1108.45"/>
</g>
<!-- FISHER_PVAL -->
<g id="node22" class="node"><title>FISHER_PVAL</title>
<ellipse fill="none" stroke="black" cx="848.39" cy="-1092.07" rx="68.4888" ry="18"/>
<text text-anchor="middle" x="848.39" y="-1088.37" font-family="Times,serif" font-size="14.00">FISHER_PVAL</text>
</g>
<!-- n17 (0.27 &#45; 2)&#45;&gt;FISHER_PVAL -->
<g id="edge21" class="edge"><title>n17 (0.27 &#45; 2)&#45;&gt;FISHER_PVAL</title>
<path fill="none" stroke="black" d="M848.39,-1145.77C848.39,-1138.06 848.39,-1128.79 848.39,-1120.19"/>
<polygon fill="black" stroke="black" points="851.89,-1120.18 848.39,-1110.18 844.89,-1120.18 851.89,-1120.18"/>
</g>
<!-- J_MEASURE -->
<g id="node24" class="node"><title>J_MEASURE</title>
<ellipse fill="none" stroke="black" cx="995.39" cy="-1092.07" rx="61.1893" ry="18"/>
<text text-anchor="middle" x="995.39" y="-1088.37" font-family="Times,serif" font-size="14.00">J_MEASURE</text>
</g>
<!-- n26 (0.00 &#45; 23)&#45;&gt;J_MEASURE -->
<g id="edge23" class="edge"><title>n26 (0.00 &#45; 23)&#45;&gt;J_MEASURE</title>
<path fill="none" stroke="black" d="M995.39,-1145.77C995.39,-1138.06 995.39,-1128.79 995.39,-1120.19"/>
<polygon fill="black" stroke="black" points="998.89,-1120.18 995.39,-1110.18 991.89,-1120.18 998.89,-1120.18"/>
</g>
<!-- n25 (0.00 &#45; 22) -->
<g id="node25" class="node"><title>n25 (0.00 &#45; 22)</title>
<ellipse fill="none" stroke="black" cx="1138.39" cy="-1092.07" rx="64.189" ry="18"/>
<text text-anchor="middle" x="1138.39" y="-1088.37" font-family="Times,serif" font-size="14.00">n25 (0.00 &#45; 22)</text>
</g>
<!-- n26 (0.00 &#45; 23)&#45;&gt;n25 (0.00 &#45; 22) -->
<g id="edge24" class="edge"><title>n26 (0.00 &#45; 23)&#45;&gt;n25 (0.00 &#45; 22)</title>
<path fill="none" stroke="black" d="M1026.07,-1148.06C1047.27,-1137.68 1075.68,-1123.77 1098.63,-1112.54"/>
<polygon fill="black" stroke="black" points="1100.32,-1115.61 1107.76,-1108.07 1097.24,-1109.32 1100.32,-1115.61"/>
</g>
<!-- n15 (0.64 &#45; 3) -->
<g id="node26" class="node"><title>n15 (0.64 &#45; 3)</title>
<ellipse fill="none" stroke="black" cx="1043.39" cy="-1020.07" rx="59.5901" ry="18"/>
<text text-anchor="middle" x="1043.39" y="-1016.37" font-family="Times,serif" font-size="14.00">n15 (0.64 &#45; 3)</text>
</g>
<!-- n25 (0.00 &#45; 22)&#45;&gt;n15 (0.64 &#45; 3) -->
<g id="edge25" class="edge"><title>n25 (0.00 &#45; 22)&#45;&gt;n15 (0.64 &#45; 3)</title>
<path fill="none" stroke="black" d="M1116.36,-1074.84C1103.56,-1065.41 1087.25,-1053.39 1073.3,-1043.12"/>
<polygon fill="black" stroke="black" points="1075.1,-1040.09 1064.98,-1036.98 1070.95,-1045.73 1075.1,-1040.09"/>
</g>
<!-- n24 (0.00 &#45; 19) -->
<g id="node29" class="node"><title>n24 (0.00 &#45; 19)</title>
<ellipse fill="none" stroke="black" cx="1233.39" cy="-1020.07" rx="64.189" ry="18"/>
<text text-anchor="middle" x="1233.39" y="-1016.37" font-family="Times,serif" font-size="14.00">n24 (0.00 &#45; 19)</text>
</g>
<!-- n25 (0.00 &#45; 22)&#45;&gt;n24 (0.00 &#45; 19) -->
<g id="edge28" class="edge"><title>n25 (0.00 &#45; 22)&#45;&gt;n24 (0.00 &#45; 19)</title>
<path fill="none" stroke="black" d="M1160.42,-1074.84C1173.13,-1065.47 1189.3,-1053.56 1203.18,-1043.33"/>
<polygon fill="black" stroke="black" points="1205.5,-1045.97 1211.48,-1037.22 1201.35,-1040.33 1205.5,-1045.97"/>
</g>
<!-- PHI -->
<g id="node27" class="node"><title>PHI</title>
<ellipse fill="none" stroke="black" cx="927.39" cy="-939.203" rx="27" ry="18"/>
<text text-anchor="middle" x="927.39" y="-935.503" font-family="Times,serif" font-size="14.00">PHI</text>
</g>
<!-- n15 (0.64 &#45; 3)&#45;&gt;PHI -->
<g id="edge26" class="edge"><title>n15 (0.64 &#45; 3)&#45;&gt;PHI</title>
<path fill="none" stroke="black" d="M1019.43,-1003.54C1003.45,-993.097 982.038,-978.944 963.39,-966.073 960.064,-963.778 956.589,-961.336 953.165,-958.904"/>
<polygon fill="black" stroke="black" points="955.042,-955.944 944.873,-952.969 950.968,-961.636 955.042,-955.944"/>
</g>
<!-- GINI\nCHI_SQUARE -->
<g id="node28" class="node"><title>GINI\nCHI_SQUARE</title>
<ellipse fill="none" stroke="black" cx="1043.39" cy="-939.203" rx="71.3357" ry="26.7407"/>
<text text-anchor="middle" x="1043.39" y="-943.003" font-family="Times,serif" font-size="14.00">GINI</text>
<text text-anchor="middle" x="1043.39" y="-928.003" font-family="Times,serif" font-size="14.00">CHI_SQUARE</text>
</g>
<!-- n15 (0.64 &#45; 3)&#45;&gt;GINI\nCHI_SQUARE -->
<g id="edge27" class="edge"><title>n15 (0.64 &#45; 3)&#45;&gt;GINI\nCHI_SQUARE</title>
<path fill="none" stroke="black" d="M1043.39,-1001.96C1043.39,-994.47 1043.39,-985.379 1043.39,-976.501"/>
<polygon fill="black" stroke="black" points="1046.89,-976.286 1043.39,-966.286 1039.89,-976.286 1046.89,-976.286"/>
</g>
<!-- PIATETSKY_SHAPIRO -->
<g id="node30" class="node"><title>PIATETSKY_SHAPIRO</title>
<ellipse fill="none" stroke="black" cx="1233.39" cy="-939.203" rx="100.983" ry="18"/>
<text text-anchor="middle" x="1233.39" y="-935.503" font-family="Times,serif" font-size="14.00">PIATETSKY_SHAPIRO</text>
</g>
<!-- n24 (0.00 &#45; 19)&#45;&gt;PIATETSKY_SHAPIRO -->
<g id="edge29" class="edge"><title>n24 (0.00 &#45; 19)&#45;&gt;PIATETSKY_SHAPIRO</title>
<path fill="none" stroke="black" d="M1233.39,-1001.96C1233.39,-991.934 1233.39,-979.039 1233.39,-967.628"/>
<polygon fill="black" stroke="black" points="1236.89,-967.283 1233.39,-957.283 1229.89,-967.283 1236.89,-967.283"/>
</g>
<!-- n23 (0.00 &#45; 18) -->
<g id="node31" class="node"><title>n23 (0.00 &#45; 18)</title>
<ellipse fill="none" stroke="black" cx="1416.39" cy="-939.203" rx="64.189" ry="18"/>
<text text-anchor="middle" x="1416.39" y="-935.503" font-family="Times,serif" font-size="14.00">n23 (0.00 &#45; 18)</text>
</g>
<!-- n24 (0.00 &#45; 19)&#45;&gt;n23 (0.00 &#45; 18) -->
<g id="edge30" class="edge"><title>n24 (0.00 &#45; 19)&#45;&gt;n23 (0.00 &#45; 18)</title>
<path fill="none" stroke="black" d="M1266.95,-1004.61C1296.91,-991.695 1340.95,-972.717 1373.46,-958.705"/>
<polygon fill="black" stroke="black" points="1374.93,-961.883 1382.73,-954.711 1372.16,-955.454 1374.93,-961.883"/>
</g>
<!-- KLOSGEN -->
<g id="node32" class="node"><title>KLOSGEN</title>
<ellipse fill="none" stroke="black" cx="1349.39" cy="-858.333" rx="51.9908" ry="18"/>
<text text-anchor="middle" x="1349.39" y="-854.633" font-family="Times,serif" font-size="14.00">KLOSGEN</text>
</g>
<!-- n23 (0.00 &#45; 18)&#45;&gt;KLOSGEN -->
<g id="edge31" class="edge"><title>n23 (0.00 &#45; 18)&#45;&gt;KLOSGEN</title>
<path fill="none" stroke="black" d="M1402.18,-921.477C1392.79,-910.423 1380.33,-895.758 1369.88,-883.451"/>
<polygon fill="black" stroke="black" points="1372.49,-881.12 1363.35,-875.765 1367.16,-885.652 1372.49,-881.12"/>
</g>
<!-- n22 (0.00 &#45; 17) -->
<g id="node33" class="node"><title>n22 (0.00 &#45; 17)</title>
<ellipse fill="none" stroke="black" cx="1483.39" cy="-858.333" rx="64.189" ry="18"/>
<text text-anchor="middle" x="1483.39" y="-854.633" font-family="Times,serif" font-size="14.00">n22 (0.00 &#45; 17)</text>
</g>
<!-- n23 (0.00 &#45; 18)&#45;&gt;n22 (0.00 &#45; 17) -->
<g id="edge32" class="edge"><title>n23 (0.00 &#45; 18)&#45;&gt;n22 (0.00 &#45; 17)</title>
<path fill="none" stroke="black" d="M1430.6,-921.477C1439.93,-910.497 1452.28,-895.955 1462.69,-883.699"/>
<polygon fill="black" stroke="black" points="1465.39,-885.923 1469.2,-876.035 1460.06,-881.391 1465.39,-885.923"/>
</g>
<!-- TWO_WAY_SUPPORT -->
<g id="node34" class="node"><title>TWO_WAY_SUPPORT</title>
<ellipse fill="none" stroke="black" cx="1392.39" cy="-786.333" rx="100.182" ry="18"/>
<text text-anchor="middle" x="1392.39" y="-782.633" font-family="Times,serif" font-size="14.00">TWO_WAY_SUPPORT</text>
</g>
<!-- n22 (0.00 &#45; 17)&#45;&gt;TWO_WAY_SUPPORT -->
<g id="edge33" class="edge"><title>n22 (0.00 &#45; 17)&#45;&gt;TWO_WAY_SUPPORT</title>
<path fill="none" stroke="black" d="M1462.28,-841.098C1450.4,-831.954 1435.36,-820.383 1422.27,-810.321"/>
<polygon fill="black" stroke="black" points="1424.07,-807.289 1414.01,-803.966 1419.81,-812.838 1424.07,-807.289"/>
</g>
<!-- n21 (0.00 &#45; 16) -->
<g id="node35" class="node"><title>n21 (0.00 &#45; 16)</title>
<ellipse fill="none" stroke="black" cx="1574.39" cy="-786.333" rx="64.189" ry="18"/>
<text text-anchor="middle" x="1574.39" y="-782.633" font-family="Times,serif" font-size="14.00">n21 (0.00 &#45; 16)</text>
</g>
<!-- n22 (0.00 &#45; 17)&#45;&gt;n21 (0.00 &#45; 16) -->
<g id="edge34" class="edge"><title>n22 (0.00 &#45; 17)&#45;&gt;n21 (0.00 &#45; 16)</title>
<path fill="none" stroke="black" d="M1504.5,-841.098C1516.67,-831.733 1532.15,-819.823 1545.45,-809.594"/>
<polygon fill="black" stroke="black" points="1547.61,-812.352 1553.4,-803.48 1543.34,-806.803 1547.61,-812.352"/>
</g>
<!-- COLLECTIVE_STRENGH -->
<g id="node36" class="node"><title>COLLECTIVE_STRENGH</title>
<ellipse fill="none" stroke="black" cx="1478.39" cy="-714.333" rx="109.681" ry="18"/>
<text text-anchor="middle" x="1478.39" y="-710.633" font-family="Times,serif" font-size="14.00">COLLECTIVE_STRENGH</text>
</g>
<!-- n21 (0.00 &#45; 16)&#45;&gt;COLLECTIVE_STRENGH -->
<g id="edge35" class="edge"><title>n21 (0.00 &#45; 16)&#45;&gt;COLLECTIVE_STRENGH</title>
<path fill="none" stroke="black" d="M1552.12,-769.098C1539.46,-759.866 1523.41,-748.163 1509.52,-738.034"/>
<polygon fill="black" stroke="black" points="1511.34,-735.03 1501.2,-731.966 1507.22,-740.686 1511.34,-735.03"/>
</g>
<!-- n20 (0.00 &#45; 15) -->
<g id="node37" class="node"><title>n20 (0.00 &#45; 15)</title>
<ellipse fill="none" stroke="black" cx="1670.39" cy="-714.333" rx="64.189" ry="18"/>
<text text-anchor="middle" x="1670.39" y="-710.633" font-family="Times,serif" font-size="14.00">n20 (0.00 &#45; 15)</text>
</g>
<!-- n21 (0.00 &#45; 16)&#45;&gt;n20 (0.00 &#45; 15) -->
<g id="edge36" class="edge"><title>n21 (0.00 &#45; 16)&#45;&gt;n20 (0.00 &#45; 15)</title>
<path fill="none" stroke="black" d="M1596.66,-769.098C1609.5,-759.733 1625.83,-747.823 1639.86,-737.594"/>
<polygon fill="black" stroke="black" points="1642.23,-740.2 1648.24,-731.48 1638.1,-734.544 1642.23,-740.2"/>
</g>
<!-- COSINE -->
<g id="node38" class="node"><title>COSINE</title>
<ellipse fill="none" stroke="black" cx="1607.39" cy="-642.333" rx="42.4939" ry="18"/>
<text text-anchor="middle" x="1607.39" y="-638.633" font-family="Times,serif" font-size="14.00">COSINE</text>
</g>
<!-- n20 (0.00 &#45; 15)&#45;&gt;COSINE -->
<g id="edge37" class="edge"><title>n20 (0.00 &#45; 15)&#45;&gt;COSINE</title>
<path fill="none" stroke="black" d="M1655.46,-696.744C1647.42,-687.812 1637.37,-676.643 1628.54,-666.831"/>
<polygon fill="black" stroke="black" points="1631.07,-664.413 1621.78,-659.321 1625.87,-669.096 1631.07,-664.413"/>
</g>
<!-- n19 (0.00 &#45; 14) -->
<g id="node39" class="node"><title>n19 (0.00 &#45; 14)</title>
<ellipse fill="none" stroke="black" cx="1732.39" cy="-642.333" rx="64.189" ry="18"/>
<text text-anchor="middle" x="1732.39" y="-638.633" font-family="Times,serif" font-size="14.00">n19 (0.00 &#45; 14)</text>
</g>
<!-- n20 (0.00 &#45; 15)&#45;&gt;n19 (0.00 &#45; 14) -->
<g id="edge38" class="edge"><title>n20 (0.00 &#45; 15)&#45;&gt;n19 (0.00 &#45; 14)</title>
<path fill="none" stroke="black" d="M1685.08,-696.744C1692.69,-688.153 1702.13,-677.492 1710.58,-667.961"/>
<polygon fill="black" stroke="black" points="1713.36,-670.096 1717.37,-660.289 1708.12,-665.455 1713.36,-670.096"/>
</g>
<!-- RECALL -->
<g id="node40" class="node"><title>RECALL</title>
<ellipse fill="none" stroke="black" cx="1669.39" cy="-570.333" rx="44.6926" ry="18"/>
<text text-anchor="middle" x="1669.39" y="-566.633" font-family="Times,serif" font-size="14.00">RECALL</text>
</g>
<!-- n19 (0.00 &#45; 14)&#45;&gt;RECALL -->
<g id="edge39" class="edge"><title>n19 (0.00 &#45; 14)&#45;&gt;RECALL</title>
<path fill="none" stroke="black" d="M1717.46,-624.744C1709.54,-615.939 1699.66,-604.961 1690.92,-595.252"/>
<polygon fill="black" stroke="black" points="1693.5,-592.895 1684.21,-587.803 1688.3,-597.577 1693.5,-592.895"/>
</g>
<!-- n14 (0.79 &#45; 13) -->
<g id="node41" class="node"><title>n14 (0.79 &#45; 13)</title>
<ellipse fill="none" stroke="black" cx="1796.39" cy="-570.333" rx="64.189" ry="18"/>
<text text-anchor="middle" x="1796.39" y="-566.633" font-family="Times,serif" font-size="14.00">n14 (0.79 &#45; 13)</text>
</g>
<!-- n19 (0.00 &#45; 14)&#45;&gt;n14 (0.79 &#45; 13) -->
<g id="edge40" class="edge"><title>n19 (0.00 &#45; 14)&#45;&gt;n14 (0.79 &#45; 13)</title>
<path fill="none" stroke="black" d="M1747.56,-624.744C1755.49,-616.067 1765.35,-605.279 1774.13,-595.675"/>
<polygon fill="black" stroke="black" points="1776.72,-598.031 1780.89,-588.289 1771.56,-593.308 1776.72,-598.031"/>
</g>
<!-- ODD_MULTIPLIER -->
<g id="node42" class="node"><title>ODD_MULTIPLIER</title>
<ellipse fill="none" stroke="black" cx="1712.39" cy="-498.333" rx="87.1846" ry="18"/>
<text text-anchor="middle" x="1712.39" y="-494.633" font-family="Times,serif" font-size="14.00">ODD_MULTIPLIER</text>
</g>
<!-- n14 (0.79 &#45; 13)&#45;&gt;ODD_MULTIPLIER -->
<g id="edge41" class="edge"><title>n14 (0.79 &#45; 13)&#45;&gt;ODD_MULTIPLIER</title>
<path fill="none" stroke="black" d="M1776.91,-553.098C1766.04,-544.041 1752.31,-532.604 1740.32,-522.609"/>
<polygon fill="black" stroke="black" points="1742.27,-519.68 1732.35,-515.966 1737.79,-525.057 1742.27,-519.68"/>
</g>
<!-- n13 (0.81 &#45; 12) -->
<g id="node43" class="node"><title>n13 (0.81 &#45; 12)</title>
<ellipse fill="none" stroke="black" cx="1881.39" cy="-498.333" rx="64.189" ry="18"/>
<text text-anchor="middle" x="1881.39" y="-494.633" font-family="Times,serif" font-size="14.00">n13 (0.81 &#45; 12)</text>
</g>
<!-- n14 (0.79 &#45; 13)&#45;&gt;n13 (0.81 &#45; 12) -->
<g id="edge42" class="edge"><title>n14 (0.79 &#45; 13)&#45;&gt;n13 (0.81 &#45; 12)</title>
<path fill="none" stroke="black" d="M1816.1,-553.098C1827.37,-543.821 1841.67,-532.047 1854.01,-521.884"/>
<polygon fill="black" stroke="black" points="1856.29,-524.539 1861.78,-515.48 1851.84,-519.136 1856.29,-524.539"/>
</g>
<!-- ZHANG -->
<g id="node44" class="node"><title>ZHANG</title>
<ellipse fill="none" stroke="black" cx="1819.39" cy="-426.333" rx="41.6928" ry="18"/>
<text text-anchor="middle" x="1819.39" y="-422.633" font-family="Times,serif" font-size="14.00">ZHANG</text>
</g>
<!-- n13 (0.81 &#45; 12)&#45;&gt;ZHANG -->
<g id="edge43" class="edge"><title>n13 (0.81 &#45; 12)&#45;&gt;ZHANG</title>
<path fill="none" stroke="black" d="M1866.7,-480.744C1858.79,-471.812 1848.89,-460.643 1840.2,-450.831"/>
<polygon fill="black" stroke="black" points="1842.8,-448.486 1833.55,-443.321 1837.56,-453.128 1842.8,-448.486"/>
</g>
<!-- n12 (0.84 &#45; 11) -->
<g id="node45" class="node"><title>n12 (0.84 &#45; 11)</title>
<ellipse fill="none" stroke="black" cx="1943.39" cy="-426.333" rx="64.189" ry="18"/>
<text text-anchor="middle" x="1943.39" y="-422.633" font-family="Times,serif" font-size="14.00">n12 (0.84 &#45; 11)</text>
</g>
<!-- n13 (0.81 &#45; 12)&#45;&gt;n12 (0.84 &#45; 11) -->
<g id="edge44" class="edge"><title>n13 (0.81 &#45; 12)&#45;&gt;n12 (0.84 &#45; 11)</title>
<path fill="none" stroke="black" d="M1896.08,-480.744C1903.69,-472.153 1913.13,-461.492 1921.58,-451.961"/>
<polygon fill="black" stroke="black" points="1924.36,-454.096 1928.37,-444.289 1919.12,-449.455 1924.36,-454.096"/>
</g>
<!-- COUNTER_EXAMPLE_RATE -->
<g id="node46" class="node"><title>COUNTER_EXAMPLE_RATE</title>
<ellipse fill="none" stroke="black" cx="1839.39" cy="-354.333" rx="126.178" ry="18"/>
<text text-anchor="middle" x="1839.39" y="-350.633" font-family="Times,serif" font-size="14.00">COUNTER_EXAMPLE_RATE</text>
</g>
<!-- n12 (0.84 &#45; 11)&#45;&gt;COUNTER_EXAMPLE_RATE -->
<g id="edge45" class="edge"><title>n12 (0.84 &#45; 11)&#45;&gt;COUNTER_EXAMPLE_RATE</title>
<path fill="none" stroke="black" d="M1919.79,-409.449C1905.96,-400.142 1888.27,-388.234 1873.01,-377.959"/>
<polygon fill="black" stroke="black" points="1874.6,-374.811 1864.35,-372.13 1870.69,-380.618 1874.6,-374.811"/>
</g>
<!-- n11 (0.85 &#45; 10) -->
<g id="node47" class="node"><title>n11 (0.85 &#45; 10)</title>
<ellipse fill="none" stroke="black" cx="2047.39" cy="-354.333" rx="64.189" ry="18"/>
<text text-anchor="middle" x="2047.39" y="-350.633" font-family="Times,serif" font-size="14.00">n11 (0.85 &#45; 10)</text>
</g>
<!-- n12 (0.84 &#45; 11)&#45;&gt;n11 (0.85 &#45; 10) -->
<g id="edge46" class="edge"><title>n12 (0.84 &#45; 11)&#45;&gt;n11 (0.85 &#45; 10)</title>
<path fill="none" stroke="black" d="M1966.99,-409.449C1981.35,-399.783 1999.88,-387.311 2015.53,-376.777"/>
<polygon fill="black" stroke="black" points="2017.54,-379.642 2023.88,-371.154 2013.63,-373.835 2017.54,-379.642"/>
</g>
<!-- ONE_WAY_SUPPORT -->
<g id="node48" class="node"><title>ONE_WAY_SUPPORT</title>
<ellipse fill="none" stroke="black" cx="1959.39" cy="-282.333" rx="97.4827" ry="18"/>
<text text-anchor="middle" x="1959.39" y="-278.633" font-family="Times,serif" font-size="14.00">ONE_WAY_SUPPORT</text>
</g>
<!-- n11 (0.85 &#45; 10)&#45;&gt;ONE_WAY_SUPPORT -->
<g id="edge47" class="edge"><title>n11 (0.85 &#45; 10)&#45;&gt;ONE_WAY_SUPPORT</title>
<path fill="none" stroke="black" d="M2026.98,-337.098C2015.48,-327.954 2000.94,-316.383 1988.29,-306.321"/>
<polygon fill="black" stroke="black" points="1990.31,-303.453 1980.3,-299.966 1985.95,-308.931 1990.31,-303.453"/>
</g>
<!-- n10 (0.87 &#45; 9) -->
<g id="node49" class="node"><title>n10 (0.87 &#45; 9)</title>
<ellipse fill="none" stroke="black" cx="2134.39" cy="-282.333" rx="59.5901" ry="18"/>
<text text-anchor="middle" x="2134.39" y="-278.633" font-family="Times,serif" font-size="14.00">n10 (0.87 &#45; 9)</text>
</g>
<!-- n11 (0.85 &#45; 10)&#45;&gt;n10 (0.87 &#45; 9) -->
<g id="edge48" class="edge"><title>n11 (0.85 &#45; 10)&#45;&gt;n10 (0.87 &#45; 9)</title>
<path fill="none" stroke="black" d="M2067.57,-337.098C2079.1,-327.821 2093.73,-316.047 2106.36,-305.884"/>
<polygon fill="black" stroke="black" points="2108.72,-308.476 2114.32,-299.48 2104.34,-303.022 2108.72,-308.476"/>
</g>
<!-- LOEVINGER\nCONVICTION -->
<g id="node50" class="node"><title>LOEVINGER\nCONVICTION</title>
<ellipse fill="none" stroke="black" cx="2061.39" cy="-201.463" rx="71.3357" ry="26.7407"/>
<text text-anchor="middle" x="2061.39" y="-205.263" font-family="Times,serif" font-size="14.00">LOEVINGER</text>
<text text-anchor="middle" x="2061.39" y="-190.263" font-family="Times,serif" font-size="14.00">CONVICTION</text>
</g>
<!-- n10 (0.87 &#45; 9)&#45;&gt;LOEVINGER\nCONVICTION -->
<g id="edge49" class="edge"><title>n10 (0.87 &#45; 9)&#45;&gt;LOEVINGER\nCONVICTION</title>
<path fill="none" stroke="black" d="M2118.91,-264.607C2110.76,-255.801 2100.49,-244.704 2090.89,-234.333"/>
<polygon fill="black" stroke="black" points="2093.42,-231.913 2084.06,-226.952 2088.28,-236.668 2093.42,-231.913"/>
</g>
<!-- n9 (0.89 &#45; 7) -->
<g id="node51" class="node"><title>n9 (0.89 &#45; 7)</title>
<ellipse fill="none" stroke="black" cx="2206.39" cy="-201.463" rx="55.7903" ry="18"/>
<text text-anchor="middle" x="2206.39" y="-197.763" font-family="Times,serif" font-size="14.00">n9 (0.89 &#45; 7)</text>
</g>
<!-- n10 (0.87 &#45; 9)&#45;&gt;n9 (0.89 &#45; 7) -->
<g id="edge50" class="edge"><title>n10 (0.87 &#45; 9)&#45;&gt;n9 (0.89 &#45; 7)</title>
<path fill="none" stroke="black" d="M2149.66,-264.607C2159.75,-253.553 2173.14,-238.888 2184.37,-226.581"/>
<polygon fill="black" stroke="black" points="2187.23,-228.64 2191.39,-218.895 2182.06,-223.92 2187.23,-228.64"/>
</g>
<!-- SEBAG_SCHOENAUER -->
<g id="node52" class="node"><title>SEBAG_SCHOENAUER</title>
<ellipse fill="none" stroke="black" cx="2083.39" cy="-69.2965" rx="102.882" ry="18"/>
<text text-anchor="middle" x="2083.39" y="-65.5965" font-family="Times,serif" font-size="14.00">SEBAG_SCHOENAUER</text>
</g>
<!-- n9 (0.89 &#45; 7)&#45;&gt;SEBAG_SCHOENAUER -->
<g id="edge51" class="edge"><title>n9 (0.89 &#45; 7)&#45;&gt;SEBAG_SCHOENAUER</title>
<path fill="none" stroke="black" d="M2190.81,-183.977C2169.51,-161.438 2131.14,-120.831 2106.49,-94.7442"/>
<polygon fill="black" stroke="black" points="2109.03,-92.339 2099.62,-87.4746 2103.95,-97.1468 2109.03,-92.339"/>
</g>
<!-- BAYES\nCENTERED_CONFIDENCE\nCERTAINTY_FACTOR\nADDED_VALUE\nLIFT\nCONFIDENCE -->
<g id="node53" class="node"><title>BAYES\nCENTERED_CONFIDENCE\nCERTAINTY_FACTOR\nADDED_VALUE\nLIFT\nCONFIDENCE</title>
<ellipse fill="none" stroke="black" cx="2330.39" cy="-69.2965" rx="126.644" ry="69.0935"/>
<text text-anchor="middle" x="2330.39" y="-103.096" font-family="Times,serif" font-size="14.00">BAYES</text>
<text text-anchor="middle" x="2330.39" y="-88.0965" font-family="Times,serif" font-size="14.00">CENTERED_CONFIDENCE</text>
<text text-anchor="middle" x="2330.39" y="-73.0965" font-family="Times,serif" font-size="14.00">CERTAINTY_FACTOR</text>
<text text-anchor="middle" x="2330.39" y="-58.0965" font-family="Times,serif" font-size="14.00">ADDED_VALUE</text>
<text text-anchor="middle" x="2330.39" y="-43.0965" font-family="Times,serif" font-size="14.00">LIFT</text>
<text text-anchor="middle" x="2330.39" y="-28.0965" font-family="Times,serif" font-size="14.00">CONFIDENCE</text>
</g>
<!-- n9 (0.89 &#45; 7)&#45;&gt;BAYES\nCENTERED_CONFIDENCE\nCERTAINTY_FACTOR\nADDED_VALUE\nLIFT\nCONFIDENCE -->
<g id="edge52" class="edge"><title>n9 (0.89 &#45; 7)&#45;&gt;BAYES\nCENTERED_CONFIDENCE\nCERTAINTY_FACTOR\nADDED_VALUE\nLIFT\nCONFIDENCE</title>
<path fill="none" stroke="black" d="M2222.09,-183.977C2233.33,-172.185 2249.27,-155.448 2265.48,-138.432"/>
<polygon fill="black" stroke="black" points="2268.07,-140.79 2272.43,-131.135 2263,-135.962 2268.07,-140.79"/>
</g>
</g>
</svg>
