<?xml version="1.0" encoding="UTF-8" standalone="no"?>
<!DOCTYPE svg PUBLIC "-//W3C//DTD SVG 1.1//EN"
 "http://www.w3.org/Graphics/SVG/1.1/DTD/svg11.dtd">
<!-- Generated by graphviz version 2.38.0 (20140413.2041)
 -->
<!-- Title: dendrogram Pages: 1 -->
<svg width="2683pt" height="2405pt"
 viewBox="0.00 0.00 2683.34 2404.69" xmlns="http://www.w3.org/2000/svg" xmlns:xlink="http://www.w3.org/1999/xlink">
<g id="graph0" class="graph" transform="scale(1 1) rotate(0) translate(4 2400.69)">
<title>dendrogram</title>
<polygon fill="white" stroke="none" points="-4,4 -4,-2400.69 2679.34,-2400.69 2679.34,4 -4,4"/>
<!-- n34 (0.00 &#45; 36) -->
<g id="node1" class="node"><title>n34 (0.00 &#45; 36)</title>
<ellipse fill="none" stroke="black" cx="135.044" cy="-2378.69" rx="64.189" ry="18"/>
<text text-anchor="middle" x="135.044" y="-2374.99" font-family="Times,serif" font-size="14.00">n34 (0.00 &#45; 36)</text>
</g>
<!-- SPECIFICITY -->
<g id="node2" class="node"><title>SPECIFICITY</title>
<ellipse fill="none" stroke="black" cx="63.0444" cy="-2306.69" rx="63.0888" ry="18"/>
<text text-anchor="middle" x="63.0444" y="-2302.99" font-family="Times,serif" font-size="14.00">SPECIFICITY</text>
</g>
<!-- n34 (0.00 &#45; 36)&#45;&gt;SPECIFICITY -->
<g id="edge1" class="edge"><title>n34 (0.00 &#45; 36)&#45;&gt;SPECIFICITY</title>
<path fill="none" stroke="black" d="M117.981,-2361.1C108.835,-2352.21 97.4096,-2341.1 87.3505,-2331.32"/>
<polygon fill="black" stroke="black" points="89.5947,-2328.62 79.9849,-2324.16 84.7151,-2333.64 89.5947,-2328.62"/>
</g>
<!-- n33 (0.00 &#45; 35) -->
<g id="node3" class="node"><title>n33 (0.00 &#45; 35)</title>
<ellipse fill="none" stroke="black" cx="208.044" cy="-2306.69" rx="64.189" ry="18"/>
<text text-anchor="middle" x="208.044" y="-2302.99" font-family="Times,serif" font-size="14.00">n33 (0.00 &#45; 35)</text>
</g>
<!-- n34 (0.00 &#45; 36)&#45;&gt;n33 (0.00 &#45; 35) -->
<g id="edge2" class="edge"><title>n34 (0.00 &#45; 36)&#45;&gt;n33 (0.00 &#45; 35)</title>
<path fill="none" stroke="black" d="M152.344,-2361.1C161.617,-2352.21 173.202,-2341.1 183.401,-2331.32"/>
<polygon fill="black" stroke="black" points="186.073,-2333.61 190.869,-2324.16 181.228,-2328.56 186.073,-2333.61"/>
</g>
<!-- ACCURACY -->
<g id="node4" class="node"><title>ACCURACY</title>
<ellipse fill="none" stroke="black" cx="137.044" cy="-2234.69" rx="59.5901" ry="18"/>
<text text-anchor="middle" x="137.044" y="-2230.99" font-family="Times,serif" font-size="14.00">ACCURACY</text>
</g>
<!-- n33 (0.00 &#45; 35)&#45;&gt;ACCURACY -->
<g id="edge3" class="edge"><title>n33 (0.00 &#45; 35)&#45;&gt;ACCURACY</title>
<path fill="none" stroke="black" d="M191.218,-2289.1C182.199,-2280.21 170.932,-2269.1 161.013,-2259.32"/>
<polygon fill="black" stroke="black" points="163.328,-2256.69 153.75,-2252.16 158.413,-2261.68 163.328,-2256.69"/>
</g>
<!-- n32 (0.00 &#45; 34) -->
<g id="node5" class="node"><title>n32 (0.00 &#45; 34)</title>
<ellipse fill="none" stroke="black" cx="279.044" cy="-2234.69" rx="64.189" ry="18"/>
<text text-anchor="middle" x="279.044" y="-2230.99" font-family="Times,serif" font-size="14.00">n32 (0.00 &#45; 34)</text>
</g>
<!-- n33 (0.00 &#45; 35)&#45;&gt;n32 (0.00 &#45; 34) -->
<g id="edge4" class="edge"><title>n33 (0.00 &#45; 35)&#45;&gt;n32 (0.00 &#45; 34)</title>
<path fill="none" stroke="black" d="M224.87,-2289.1C233.889,-2280.21 245.156,-2269.1 255.076,-2259.32"/>
<polygon fill="black" stroke="black" points="257.675,-2261.68 262.339,-2252.16 252.761,-2256.69 257.675,-2261.68"/>
</g>
<!-- LIFT -->
<g id="node6" class="node"><title>LIFT</title>
<ellipse fill="none" stroke="black" cx="223.044" cy="-2162.69" rx="29.4969" ry="18"/>
<text text-anchor="middle" x="223.044" y="-2158.99" font-family="Times,serif" font-size="14.00">LIFT</text>
</g>
<!-- n32 (0.00 &#45; 34)&#45;&gt;LIFT -->
<g id="edge5" class="edge"><title>n32 (0.00 &#45; 34)&#45;&gt;LIFT</title>
<path fill="none" stroke="black" d="M265.488,-2216.75C258.378,-2207.86 249.557,-2196.83 241.801,-2187.14"/>
<polygon fill="black" stroke="black" points="244.31,-2184.67 235.33,-2179.05 238.843,-2189.04 244.31,-2184.67"/>
</g>
<!-- n31 (0.00 &#45; 33) -->
<g id="node7" class="node"><title>n31 (0.00 &#45; 33)</title>
<ellipse fill="none" stroke="black" cx="335.044" cy="-2162.69" rx="64.189" ry="18"/>
<text text-anchor="middle" x="335.044" y="-2158.99" font-family="Times,serif" font-size="14.00">n31 (0.00 &#45; 33)</text>
</g>
<!-- n32 (0.00 &#45; 34)&#45;&gt;n31 (0.00 &#45; 33) -->
<g id="edge6" class="edge"><title>n32 (0.00 &#45; 34)&#45;&gt;n31 (0.00 &#45; 33)</title>
<path fill="none" stroke="black" d="M292.6,-2216.75C299.41,-2208.24 307.79,-2197.76 315.299,-2188.37"/>
<polygon fill="black" stroke="black" points="318.099,-2190.48 321.613,-2180.48 312.633,-2186.1 318.099,-2190.48"/>
</g>
<!-- LEVERAGE -->
<g id="node8" class="node"><title>LEVERAGE</title>
<ellipse fill="none" stroke="black" cx="265.044" cy="-2090.69" rx="57.3905" ry="18"/>
<text text-anchor="middle" x="265.044" y="-2086.99" font-family="Times,serif" font-size="14.00">LEVERAGE</text>
</g>
<!-- n31 (0.00 &#45; 33)&#45;&gt;LEVERAGE -->
<g id="edge7" class="edge"><title>n31 (0.00 &#45; 33)&#45;&gt;LEVERAGE</title>
<path fill="none" stroke="black" d="M318.455,-2145.1C309.563,-2136.21 298.455,-2125.1 288.675,-2115.32"/>
<polygon fill="black" stroke="black" points="291.06,-2112.76 281.514,-2108.16 286.111,-2117.71 291.06,-2112.76"/>
</g>
<!-- n30 (0.00 &#45; 32) -->
<g id="node9" class="node"><title>n30 (0.00 &#45; 32)</title>
<ellipse fill="none" stroke="black" cx="405.044" cy="-2090.69" rx="64.189" ry="18"/>
<text text-anchor="middle" x="405.044" y="-2086.99" font-family="Times,serif" font-size="14.00">n30 (0.00 &#45; 32)</text>
</g>
<!-- n31 (0.00 &#45; 33)&#45;&gt;n30 (0.00 &#45; 32) -->
<g id="edge8" class="edge"><title>n31 (0.00 &#45; 33)&#45;&gt;n30 (0.00 &#45; 32)</title>
<path fill="none" stroke="black" d="M351.633,-2145.1C360.525,-2136.21 371.634,-2125.1 381.414,-2115.32"/>
<polygon fill="black" stroke="black" points="383.978,-2117.71 388.574,-2108.16 379.028,-2112.76 383.978,-2117.71"/>
</g>
<!-- ADDED_VALUE -->
<g id="node10" class="node"><title>ADDED_VALUE</title>
<ellipse fill="none" stroke="black" cx="326.044" cy="-2018.69" rx="75.2868" ry="18"/>
<text text-anchor="middle" x="326.044" y="-2014.99" font-family="Times,serif" font-size="14.00">ADDED_VALUE</text>
</g>
<!-- n30 (0.00 &#45; 32)&#45;&gt;ADDED_VALUE -->
<g id="edge9" class="edge"><title>n30 (0.00 &#45; 32)&#45;&gt;ADDED_VALUE</title>
<path fill="none" stroke="black" d="M386.323,-2073.1C376.189,-2064.13 363.505,-2052.89 352.389,-2043.04"/>
<polygon fill="black" stroke="black" points="354.438,-2040.18 344.632,-2036.16 349.795,-2045.41 354.438,-2040.18"/>
</g>
<!-- n29 (0.00 &#45; 31) -->
<g id="node11" class="node"><title>n29 (0.00 &#45; 31)</title>
<ellipse fill="none" stroke="black" cx="484.044" cy="-2018.69" rx="64.189" ry="18"/>
<text text-anchor="middle" x="484.044" y="-2014.99" font-family="Times,serif" font-size="14.00">n29 (0.00 &#45; 31)</text>
</g>
<!-- n30 (0.00 &#45; 32)&#45;&gt;n29 (0.00 &#45; 31) -->
<g id="edge10" class="edge"><title>n30 (0.00 &#45; 32)&#45;&gt;n29 (0.00 &#45; 31)</title>
<path fill="none" stroke="black" d="M423.766,-2073.1C433.9,-2064.13 446.584,-2052.89 457.699,-2043.04"/>
<polygon fill="black" stroke="black" points="460.293,-2045.41 465.457,-2036.16 455.651,-2040.18 460.293,-2045.41"/>
</g>
<!-- RELATIVE_RISK -->
<g id="node12" class="node"><title>RELATIVE_RISK</title>
<ellipse fill="none" stroke="black" cx="404.044" cy="-1946.69" rx="77.9862" ry="18"/>
<text text-anchor="middle" x="404.044" y="-1942.99" font-family="Times,serif" font-size="14.00">RELATIVE_RISK</text>
</g>
<!-- n29 (0.00 &#45; 31)&#45;&gt;RELATIVE_RISK -->
<g id="edge11" class="edge"><title>n29 (0.00 &#45; 31)&#45;&gt;RELATIVE_RISK</title>
<path fill="none" stroke="black" d="M465.086,-2001.1C454.724,-1992.04 441.729,-1980.67 430.395,-1970.75"/>
<polygon fill="black" stroke="black" points="432.698,-1968.11 422.867,-1964.16 428.088,-1973.38 432.698,-1968.11"/>
</g>
<!-- n28 (0.00 &#45; 30) -->
<g id="node13" class="node"><title>n28 (0.00 &#45; 30)</title>
<ellipse fill="none" stroke="black" cx="564.044" cy="-1946.69" rx="64.189" ry="18"/>
<text text-anchor="middle" x="564.044" y="-1942.99" font-family="Times,serif" font-size="14.00">n28 (0.00 &#45; 30)</text>
</g>
<!-- n29 (0.00 &#45; 31)&#45;&gt;n28 (0.00 &#45; 30) -->
<g id="edge12" class="edge"><title>n29 (0.00 &#45; 31)&#45;&gt;n28 (0.00 &#45; 30)</title>
<path fill="none" stroke="black" d="M503.003,-2001.1C513.365,-1992.04 526.36,-1980.67 537.693,-1970.75"/>
<polygon fill="black" stroke="black" points="540.001,-1973.38 545.222,-1964.16 535.391,-1968.11 540.001,-1973.38"/>
</g>
<!-- JACCARD -->
<g id="node14" class="node"><title>JACCARD</title>
<ellipse fill="none" stroke="black" cx="497.044" cy="-1874.69" rx="50.8918" ry="18"/>
<text text-anchor="middle" x="497.044" y="-1870.99" font-family="Times,serif" font-size="14.00">JACCARD</text>
</g>
<!-- n28 (0.00 &#45; 30)&#45;&gt;JACCARD -->
<g id="edge13" class="edge"><title>n28 (0.00 &#45; 30)&#45;&gt;JACCARD</title>
<path fill="none" stroke="black" d="M548.166,-1929.1C539.739,-1920.3 529.231,-1909.32 519.938,-1899.61"/>
<polygon fill="black" stroke="black" points="522.252,-1896.97 512.808,-1892.16 517.195,-1901.81 522.252,-1896.97"/>
</g>
<!-- n27 (0.00 &#45; 29) -->
<g id="node15" class="node"><title>n27 (0.00 &#45; 29)</title>
<ellipse fill="none" stroke="black" cx="630.044" cy="-1874.69" rx="64.189" ry="18"/>
<text text-anchor="middle" x="630.044" y="-1870.99" font-family="Times,serif" font-size="14.00">n27 (0.00 &#45; 29)</text>
</g>
<!-- n28 (0.00 &#45; 30)&#45;&gt;n27 (0.00 &#45; 29) -->
<g id="edge14" class="edge"><title>n28 (0.00 &#45; 30)&#45;&gt;n27 (0.00 &#45; 29)</title>
<path fill="none" stroke="black" d="M579.685,-1929.1C587.987,-1920.3 598.338,-1909.32 607.492,-1899.61"/>
<polygon fill="black" stroke="black" points="610.202,-1901.84 614.516,-1892.16 605.109,-1897.04 610.202,-1901.84"/>
</g>
<!-- CERTAINTY_FACTOR -->
<g id="node16" class="node"><title>CERTAINTY_FACTOR</title>
<ellipse fill="none" stroke="black" cx="539.044" cy="-1802.69" rx="99.3824" ry="18"/>
<text text-anchor="middle" x="539.044" y="-1798.99" font-family="Times,serif" font-size="14.00">CERTAINTY_FACTOR</text>
</g>
<!-- n27 (0.00 &#45; 29)&#45;&gt;CERTAINTY_FACTOR -->
<g id="edge15" class="edge"><title>n27 (0.00 &#45; 29)&#45;&gt;CERTAINTY_FACTOR</title>
<path fill="none" stroke="black" d="M608.938,-1857.46C597.051,-1848.31 582.01,-1836.74 568.928,-1826.68"/>
<polygon fill="black" stroke="black" points="570.728,-1823.65 560.668,-1820.33 566.46,-1829.2 570.728,-1823.65"/>
</g>
<!-- n26 (0.00 &#45; 28) -->
<g id="node17" class="node"><title>n26 (0.00 &#45; 28)</title>
<ellipse fill="none" stroke="black" cx="721.044" cy="-1802.69" rx="64.189" ry="18"/>
<text text-anchor="middle" x="721.044" y="-1798.99" font-family="Times,serif" font-size="14.00">n26 (0.00 &#45; 28)</text>
</g>
<!-- n27 (0.00 &#45; 29)&#45;&gt;n26 (0.00 &#45; 28) -->
<g id="edge16" class="edge"><title>n27 (0.00 &#45; 29)&#45;&gt;n26 (0.00 &#45; 28)</title>
<path fill="none" stroke="black" d="M651.15,-1857.46C663.325,-1848.09 678.807,-1836.18 692.105,-1825.95"/>
<polygon fill="black" stroke="black" points="694.261,-1828.71 700.053,-1819.84 689.993,-1823.16 694.261,-1828.71"/>
</g>
<!-- YULE_Y\nYULE_Q\nODDS_RATIO -->
<g id="node18" class="node"><title>YULE_Y\nYULE_Q\nODDS_RATIO</title>
<ellipse fill="none" stroke="black" cx="644.044" cy="-1711.22" rx="71.3357" ry="37.4533"/>
<text text-anchor="middle" x="644.044" y="-1722.52" font-family="Times,serif" font-size="14.00">YULE_Y</text>
<text text-anchor="middle" x="644.044" y="-1707.52" font-family="Times,serif" font-size="14.00">YULE_Q</text>
<text text-anchor="middle" x="644.044" y="-1692.52" font-family="Times,serif" font-size="14.00">ODDS_RATIO</text>
</g>
<!-- n26 (0.00 &#45; 28)&#45;&gt;YULE_Y\nYULE_Q\nODDS_RATIO -->
<g id="edge17" class="edge"><title>n26 (0.00 &#45; 28)&#45;&gt;YULE_Y\nYULE_Q\nODDS_RATIO</title>
<path fill="none" stroke="black" d="M706.561,-1784.86C698.845,-1775.9 688.985,-1764.44 679.389,-1753.29"/>
<polygon fill="black" stroke="black" points="681.993,-1750.95 672.817,-1745.65 676.687,-1755.51 681.993,-1750.95"/>
</g>
<!-- n25 (0.00 &#45; 25) -->
<g id="node19" class="node"><title>n25 (0.00 &#45; 25)</title>
<ellipse fill="none" stroke="black" cx="798.044" cy="-1711.22" rx="64.189" ry="18"/>
<text text-anchor="middle" x="798.044" y="-1707.52" font-family="Times,serif" font-size="14.00">n25 (0.00 &#45; 25)</text>
</g>
<!-- n26 (0.00 &#45; 28)&#45;&gt;n25 (0.00 &#45; 25) -->
<g id="edge18" class="edge"><title>n26 (0.00 &#45; 28)&#45;&gt;n25 (0.00 &#45; 25)</title>
<path fill="none" stroke="black" d="M735.528,-1784.86C747.25,-1771.24 763.92,-1751.87 777.098,-1736.56"/>
<polygon fill="black" stroke="black" points="779.756,-1738.83 783.626,-1728.97 774.45,-1734.27 779.756,-1738.83"/>
</g>
<!-- KAPPA -->
<g id="node20" class="node"><title>KAPPA</title>
<ellipse fill="none" stroke="black" cx="737.044" cy="-1619.74" rx="39.7935" ry="18"/>
<text text-anchor="middle" x="737.044" y="-1616.04" font-family="Times,serif" font-size="14.00">KAPPA</text>
</g>
<!-- n25 (0.00 &#45; 25)&#45;&gt;KAPPA -->
<g id="edge19" class="edge"><title>n25 (0.00 &#45; 25)&#45;&gt;KAPPA</title>
<path fill="none" stroke="black" d="M786.571,-1693.39C777.396,-1679.93 764.398,-1660.86 754.02,-1645.64"/>
<polygon fill="black" stroke="black" points="756.785,-1643.48 748.26,-1637.19 751.002,-1647.43 756.785,-1643.48"/>
</g>
<!-- n24 (0.00 &#45; 24) -->
<g id="node21" class="node"><title>n24 (0.00 &#45; 24)</title>
<ellipse fill="none" stroke="black" cx="859.044" cy="-1619.74" rx="64.189" ry="18"/>
<text text-anchor="middle" x="859.044" y="-1616.04" font-family="Times,serif" font-size="14.00">n24 (0.00 &#45; 24)</text>
</g>
<!-- n25 (0.00 &#45; 25)&#45;&gt;n24 (0.00 &#45; 24) -->
<g id="edge20" class="edge"><title>n25 (0.00 &#45; 25)&#45;&gt;n24 (0.00 &#45; 24)</title>
<path fill="none" stroke="black" d="M809.518,-1693.39C818.635,-1680.01 831.527,-1661.1 841.873,-1645.93"/>
<polygon fill="black" stroke="black" points="844.881,-1647.73 847.622,-1637.49 839.097,-1643.79 844.881,-1647.73"/>
</g>
<!-- IMPLICATION_INDEX -->
<g id="node22" class="node"><title>IMPLICATION_INDEX</title>
<ellipse fill="none" stroke="black" cx="768.044" cy="-1547.74" rx="100.182" ry="18"/>
<text text-anchor="middle" x="768.044" y="-1544.04" font-family="Times,serif" font-size="14.00">IMPLICATION_INDEX</text>
</g>
<!-- n24 (0.00 &#45; 24)&#45;&gt;IMPLICATION_INDEX -->
<g id="edge21" class="edge"><title>n24 (0.00 &#45; 24)&#45;&gt;IMPLICATION_INDEX</title>
<path fill="none" stroke="black" d="M837.938,-1602.5C826.051,-1593.36 811.01,-1581.79 797.928,-1571.73"/>
<polygon fill="black" stroke="black" points="799.728,-1568.7 789.668,-1565.37 795.46,-1574.24 799.728,-1568.7"/>
</g>
<!-- n23 (0.00 &#45; 23) -->
<g id="node23" class="node"><title>n23 (0.00 &#45; 23)</title>
<ellipse fill="none" stroke="black" cx="950.044" cy="-1547.74" rx="64.189" ry="18"/>
<text text-anchor="middle" x="950.044" y="-1544.04" font-family="Times,serif" font-size="14.00">n23 (0.00 &#45; 23)</text>
</g>
<!-- n24 (0.00 &#45; 24)&#45;&gt;n23 (0.00 &#45; 23) -->
<g id="edge22" class="edge"><title>n24 (0.00 &#45; 24)&#45;&gt;n23 (0.00 &#45; 23)</title>
<path fill="none" stroke="black" d="M880.15,-1602.5C892.325,-1593.14 907.807,-1581.23 921.105,-1571"/>
<polygon fill="black" stroke="black" points="923.261,-1573.76 929.053,-1564.89 918.993,-1568.21 923.261,-1573.76"/>
</g>
<!-- KLOSGEN -->
<g id="node24" class="node"><title>KLOSGEN</title>
<ellipse fill="none" stroke="black" cx="883.044" cy="-1475.74" rx="51.9908" ry="18"/>
<text text-anchor="middle" x="883.044" y="-1472.04" font-family="Times,serif" font-size="14.00">KLOSGEN</text>
</g>
<!-- n23 (0.00 &#45; 23)&#45;&gt;KLOSGEN -->
<g id="edge23" class="edge"><title>n23 (0.00 &#45; 23)&#45;&gt;KLOSGEN</title>
<path fill="none" stroke="black" d="M934.166,-1530.15C925.739,-1521.35 915.231,-1510.37 905.938,-1500.66"/>
<polygon fill="black" stroke="black" points="908.252,-1498.01 898.808,-1493.21 903.195,-1502.85 908.252,-1498.01"/>
</g>
<!-- n22 (0.00 &#45; 22) -->
<g id="node25" class="node"><title>n22 (0.00 &#45; 22)</title>
<ellipse fill="none" stroke="black" cx="1017.04" cy="-1475.74" rx="64.189" ry="18"/>
<text text-anchor="middle" x="1017.04" y="-1472.04" font-family="Times,serif" font-size="14.00">n22 (0.00 &#45; 22)</text>
</g>
<!-- n23 (0.00 &#45; 23)&#45;&gt;n22 (0.00 &#45; 22) -->
<g id="edge24" class="edge"><title>n23 (0.00 &#45; 23)&#45;&gt;n22 (0.00 &#45; 22)</title>
<path fill="none" stroke="black" d="M965.922,-1530.15C974.35,-1521.35 984.857,-1510.37 994.151,-1500.66"/>
<polygon fill="black" stroke="black" points="996.894,-1502.85 1001.28,-1493.21 991.837,-1498.01 996.894,-1502.85"/>
</g>
<!-- LOEVINGER\nCONVICTION -->
<g id="node26" class="node"><title>LOEVINGER\nCONVICTION</title>
<ellipse fill="none" stroke="black" cx="940.044" cy="-1394.87" rx="71.3357" ry="26.7407"/>
<text text-anchor="middle" x="940.044" y="-1398.67" font-family="Times,serif" font-size="14.00">LOEVINGER</text>
<text text-anchor="middle" x="940.044" y="-1383.67" font-family="Times,serif" font-size="14.00">CONVICTION</text>
</g>
<!-- n22 (0.00 &#45; 22)&#45;&gt;LOEVINGER\nCONVICTION -->
<g id="edge25" class="edge"><title>n22 (0.00 &#45; 22)&#45;&gt;LOEVINGER\nCONVICTION</title>
<path fill="none" stroke="black" d="M1000.71,-1458.01C992.118,-1449.21 981.284,-1438.11 971.158,-1427.74"/>
<polygon fill="black" stroke="black" points="973.443,-1425.07 963.953,-1420.36 968.434,-1429.96 973.443,-1425.07"/>
</g>
<!-- n21 (0.00 &#45; 20) -->
<g id="node27" class="node"><title>n21 (0.00 &#45; 20)</title>
<ellipse fill="none" stroke="black" cx="1094.04" cy="-1394.87" rx="64.189" ry="18"/>
<text text-anchor="middle" x="1094.04" y="-1391.17" font-family="Times,serif" font-size="14.00">n21 (0.00 &#45; 20)</text>
</g>
<!-- n22 (0.00 &#45; 22)&#45;&gt;n21 (0.00 &#45; 20) -->
<g id="edge26" class="edge"><title>n22 (0.00 &#45; 22)&#45;&gt;n21 (0.00 &#45; 20)</title>
<path fill="none" stroke="black" d="M1033.37,-1458.01C1044.27,-1446.85 1058.76,-1432.02 1070.84,-1419.64"/>
<polygon fill="black" stroke="black" points="1073.52,-1421.9 1078,-1412.3 1068.51,-1417.01 1073.52,-1421.9"/>
</g>
<!-- COLLECTIVE_STRENGH -->
<g id="node28" class="node"><title>COLLECTIVE_STRENGH</title>
<ellipse fill="none" stroke="black" cx="998.044" cy="-1314" rx="109.681" ry="18"/>
<text text-anchor="middle" x="998.044" y="-1310.3" font-family="Times,serif" font-size="14.00">COLLECTIVE_STRENGH</text>
</g>
<!-- n21 (0.00 &#45; 20)&#45;&gt;COLLECTIVE_STRENGH -->
<g id="edge27" class="edge"><title>n21 (0.00 &#45; 20)&#45;&gt;COLLECTIVE_STRENGH</title>
<path fill="none" stroke="black" d="M1074.15,-1377.53C1060.44,-1366.26 1041.99,-1351.11 1026.7,-1338.54"/>
<polygon fill="black" stroke="black" points="1028.52,-1335.51 1018.57,-1331.87 1024.08,-1340.92 1028.52,-1335.51"/>
</g>
<!-- n20 (0.00 &#45; 19) -->
<g id="node29" class="node"><title>n20 (0.00 &#45; 19)</title>
<ellipse fill="none" stroke="black" cx="1190.04" cy="-1314" rx="64.189" ry="18"/>
<text text-anchor="middle" x="1190.04" y="-1310.3" font-family="Times,serif" font-size="14.00">n20 (0.00 &#45; 19)</text>
</g>
<!-- n21 (0.00 &#45; 20)&#45;&gt;n20 (0.00 &#45; 19) -->
<g id="edge28" class="edge"><title>n21 (0.00 &#45; 20)&#45;&gt;n20 (0.00 &#45; 19)</title>
<path fill="none" stroke="black" d="M1113.94,-1377.53C1127.97,-1366 1146.94,-1350.41 1162.44,-1337.68"/>
<polygon fill="black" stroke="black" points="1164.67,-1340.37 1170.18,-1331.32 1160.23,-1334.96 1164.67,-1340.37"/>
</g>
<!-- GINI -->
<g id="node30" class="node"><title>GINI</title>
<ellipse fill="none" stroke="black" cx="1134.04" cy="-1242" rx="29.4969" ry="18"/>
<text text-anchor="middle" x="1134.04" y="-1238.3" font-family="Times,serif" font-size="14.00">GINI</text>
</g>
<!-- n20 (0.00 &#45; 19)&#45;&gt;GINI -->
<g id="edge29" class="edge"><title>n20 (0.00 &#45; 19)&#45;&gt;GINI</title>
<path fill="none" stroke="black" d="M1176.49,-1296.05C1169.38,-1287.17 1160.56,-1276.14 1152.8,-1266.45"/>
<polygon fill="black" stroke="black" points="1155.31,-1263.98 1146.33,-1258.36 1149.84,-1268.35 1155.31,-1263.98"/>
</g>
<!-- n19 (0.00 &#45; 18) -->
<g id="node31" class="node"><title>n19 (0.00 &#45; 18)</title>
<ellipse fill="none" stroke="black" cx="1246.04" cy="-1242" rx="64.189" ry="18"/>
<text text-anchor="middle" x="1246.04" y="-1238.3" font-family="Times,serif" font-size="14.00">n19 (0.00 &#45; 18)</text>
</g>
<!-- n20 (0.00 &#45; 19)&#45;&gt;n19 (0.00 &#45; 18) -->
<g id="edge30" class="edge"><title>n20 (0.00 &#45; 19)&#45;&gt;n19 (0.00 &#45; 18)</title>
<path fill="none" stroke="black" d="M1203.6,-1296.05C1210.41,-1287.54 1218.79,-1277.07 1226.3,-1267.68"/>
<polygon fill="black" stroke="black" points="1229.1,-1269.78 1232.61,-1259.79 1223.63,-1265.41 1229.1,-1269.78"/>
</g>
<!-- J_MEASURE -->
<g id="node32" class="node"><title>J_MEASURE</title>
<ellipse fill="none" stroke="black" cx="1175.04" cy="-1170" rx="61.1893" ry="18"/>
<text text-anchor="middle" x="1175.04" y="-1166.3" font-family="Times,serif" font-size="14.00">J_MEASURE</text>
</g>
<!-- n19 (0.00 &#45; 18)&#45;&gt;J_MEASURE -->
<g id="edge31" class="edge"><title>n19 (0.00 &#45; 18)&#45;&gt;J_MEASURE</title>
<path fill="none" stroke="black" d="M1229.22,-1224.41C1220.2,-1215.52 1208.93,-1204.41 1199.01,-1194.63"/>
<polygon fill="black" stroke="black" points="1201.33,-1192 1191.75,-1187.47 1196.41,-1196.98 1201.33,-1192"/>
</g>
<!-- n18 (0.00 &#45; 17) -->
<g id="node33" class="node"><title>n18 (0.00 &#45; 17)</title>
<ellipse fill="none" stroke="black" cx="1318.04" cy="-1170" rx="64.189" ry="18"/>
<text text-anchor="middle" x="1318.04" y="-1166.3" font-family="Times,serif" font-size="14.00">n18 (0.00 &#45; 17)</text>
</g>
<!-- n19 (0.00 &#45; 18)&#45;&gt;n18 (0.00 &#45; 17) -->
<g id="edge32" class="edge"><title>n19 (0.00 &#45; 18)&#45;&gt;n18 (0.00 &#45; 17)</title>
<path fill="none" stroke="black" d="M1263.11,-1224.41C1272.25,-1215.52 1283.68,-1204.41 1293.74,-1194.63"/>
<polygon fill="black" stroke="black" points="1296.37,-1196.95 1301.1,-1187.47 1291.49,-1191.93 1296.37,-1196.95"/>
</g>
<!-- ONE_WAY_SUPPORT -->
<g id="node34" class="node"><title>ONE_WAY_SUPPORT</title>
<ellipse fill="none" stroke="black" cx="1228.04" cy="-1098" rx="97.4827" ry="18"/>
<text text-anchor="middle" x="1228.04" y="-1094.3" font-family="Times,serif" font-size="14.00">ONE_WAY_SUPPORT</text>
</g>
<!-- n18 (0.00 &#45; 17)&#45;&gt;ONE_WAY_SUPPORT -->
<g id="edge33" class="edge"><title>n18 (0.00 &#45; 17)&#45;&gt;ONE_WAY_SUPPORT</title>
<path fill="none" stroke="black" d="M1297.17,-1152.76C1285.41,-1143.62 1270.54,-1132.05 1257.6,-1121.99"/>
<polygon fill="black" stroke="black" points="1259.47,-1119.01 1249.43,-1115.63 1255.17,-1124.54 1259.47,-1119.01"/>
</g>
<!-- n17 (0.00 &#45; 16) -->
<g id="node35" class="node"><title>n17 (0.00 &#45; 16)</title>
<ellipse fill="none" stroke="black" cx="1408.04" cy="-1098" rx="64.189" ry="18"/>
<text text-anchor="middle" x="1408.04" y="-1094.3" font-family="Times,serif" font-size="14.00">n17 (0.00 &#45; 16)</text>
</g>
<!-- n18 (0.00 &#45; 17)&#45;&gt;n17 (0.00 &#45; 16) -->
<g id="edge34" class="edge"><title>n18 (0.00 &#45; 17)&#45;&gt;n17 (0.00 &#45; 16)</title>
<path fill="none" stroke="black" d="M1338.92,-1152.76C1350.85,-1143.49 1365.98,-1131.71 1379.05,-1121.55"/>
<polygon fill="black" stroke="black" points="1381.54,-1124.05 1387.28,-1115.15 1377.24,-1118.52 1381.54,-1124.05"/>
</g>
<!-- TWO_WAY_SUPPORT -->
<g id="node36" class="node"><title>TWO_WAY_SUPPORT</title>
<ellipse fill="none" stroke="black" cx="1317.04" cy="-1026" rx="100.182" ry="18"/>
<text text-anchor="middle" x="1317.04" y="-1022.3" font-family="Times,serif" font-size="14.00">TWO_WAY_SUPPORT</text>
</g>
<!-- n17 (0.00 &#45; 16)&#45;&gt;TWO_WAY_SUPPORT -->
<g id="edge35" class="edge"><title>n17 (0.00 &#45; 16)&#45;&gt;TWO_WAY_SUPPORT</title>
<path fill="none" stroke="black" d="M1386.94,-1080.76C1375.05,-1071.62 1360.01,-1060.05 1346.93,-1049.99"/>
<polygon fill="black" stroke="black" points="1348.73,-1046.96 1338.67,-1043.63 1344.46,-1052.5 1348.73,-1046.96"/>
</g>
<!-- n16 (0.00 &#45; 15) -->
<g id="node37" class="node"><title>n16 (0.00 &#45; 15)</title>
<ellipse fill="none" stroke="black" cx="1499.04" cy="-1026" rx="64.189" ry="18"/>
<text text-anchor="middle" x="1499.04" y="-1022.3" font-family="Times,serif" font-size="14.00">n16 (0.00 &#45; 15)</text>
</g>
<!-- n17 (0.00 &#45; 16)&#45;&gt;n16 (0.00 &#45; 15) -->
<g id="edge36" class="edge"><title>n17 (0.00 &#45; 16)&#45;&gt;n16 (0.00 &#45; 15)</title>
<path fill="none" stroke="black" d="M1429.15,-1080.76C1441.32,-1071.4 1456.81,-1059.49 1470.1,-1049.26"/>
<polygon fill="black" stroke="black" points="1472.26,-1052.02 1478.05,-1043.15 1467.99,-1046.47 1472.26,-1052.02"/>
</g>
<!-- TWO_WAY_SUPPORT_VARIATION -->
<g id="node38" class="node"><title>TWO_WAY_SUPPORT_VARIATION</title>
<ellipse fill="none" stroke="black" cx="1381.04" cy="-954" rx="153.273" ry="18"/>
<text text-anchor="middle" x="1381.04" y="-950.3" font-family="Times,serif" font-size="14.00">TWO_WAY_SUPPORT_VARIATION</text>
</g>
<!-- n16 (0.00 &#45; 15)&#45;&gt;TWO_WAY_SUPPORT_VARIATION -->
<g id="edge37" class="edge"><title>n16 (0.00 &#45; 15)&#45;&gt;TWO_WAY_SUPPORT_VARIATION</title>
<path fill="none" stroke="black" d="M1472.86,-1009.46C1456.78,-999.929 1435.94,-987.568 1418.18,-977.032"/>
<polygon fill="black" stroke="black" points="1419.61,-973.806 1409.22,-971.714 1416.03,-979.826 1419.61,-973.806"/>
</g>
<!-- n15 (0.00 &#45; 14) -->
<g id="node39" class="node"><title>n15 (0.00 &#45; 14)</title>
<ellipse fill="none" stroke="black" cx="1617.04" cy="-954" rx="64.189" ry="18"/>
<text text-anchor="middle" x="1617.04" y="-950.3" font-family="Times,serif" font-size="14.00">n15 (0.00 &#45; 14)</text>
</g>
<!-- n16 (0.00 &#45; 15)&#45;&gt;n15 (0.00 &#45; 14) -->
<g id="edge38" class="edge"><title>n16 (0.00 &#45; 15)&#45;&gt;n15 (0.00 &#45; 14)</title>
<path fill="none" stroke="black" d="M1525.23,-1009.46C1542.04,-999.496 1564.05,-986.438 1582.31,-975.607"/>
<polygon fill="black" stroke="black" points="1584.11,-978.604 1590.93,-970.492 1580.54,-972.584 1584.11,-978.604"/>
</g>
<!-- PHI -->
<g id="node40" class="node"><title>PHI</title>
<ellipse fill="none" stroke="black" cx="1562.04" cy="-882" rx="27" ry="18"/>
<text text-anchor="middle" x="1562.04" y="-878.3" font-family="Times,serif" font-size="14.00">PHI</text>
</g>
<!-- n15 (0.00 &#45; 14)&#45;&gt;PHI -->
<g id="edge39" class="edge"><title>n15 (0.00 &#45; 14)&#45;&gt;PHI</title>
<path fill="none" stroke="black" d="M1603.73,-936.055C1596.75,-927.167 1588.08,-916.14 1580.47,-906.446"/>
<polygon fill="black" stroke="black" points="1583.04,-904.057 1574.11,-898.356 1577.54,-908.382 1583.04,-904.057"/>
</g>
<!-- n14 (0.00 &#45; 13) -->
<g id="node41" class="node"><title>n14 (0.00 &#45; 13)</title>
<ellipse fill="none" stroke="black" cx="1671.04" cy="-882" rx="64.189" ry="18"/>
<text text-anchor="middle" x="1671.04" y="-878.3" font-family="Times,serif" font-size="14.00">n14 (0.00 &#45; 13)</text>
</g>
<!-- n15 (0.00 &#45; 14)&#45;&gt;n14 (0.00 &#45; 13) -->
<g id="edge40" class="edge"><title>n15 (0.00 &#45; 14)&#45;&gt;n14 (0.00 &#45; 13)</title>
<path fill="none" stroke="black" d="M1630.12,-936.055C1636.62,-927.629 1644.6,-917.28 1651.78,-907.966"/>
<polygon fill="black" stroke="black" points="1654.76,-909.845 1658.09,-899.789 1649.21,-905.569 1654.76,-909.845"/>
</g>
<!-- PIATETSKY_SHAPIRO -->
<g id="node42" class="node"><title>PIATETSKY_SHAPIRO</title>
<ellipse fill="none" stroke="black" cx="1580.04" cy="-810" rx="100.983" ry="18"/>
<text text-anchor="middle" x="1580.04" y="-806.3" font-family="Times,serif" font-size="14.00">PIATETSKY_SHAPIRO</text>
</g>
<!-- n14 (0.00 &#45; 13)&#45;&gt;PIATETSKY_SHAPIRO -->
<g id="edge41" class="edge"><title>n14 (0.00 &#45; 13)&#45;&gt;PIATETSKY_SHAPIRO</title>
<path fill="none" stroke="black" d="M1649.94,-864.765C1638.05,-855.621 1623.01,-844.05 1609.93,-833.988"/>
<polygon fill="black" stroke="black" points="1611.73,-830.956 1601.67,-827.633 1607.46,-836.505 1611.73,-830.956"/>
</g>
<!-- n13 (0.00 &#45; 12) -->
<g id="node43" class="node"><title>n13 (0.00 &#45; 12)</title>
<ellipse fill="none" stroke="black" cx="1763.04" cy="-810" rx="64.189" ry="18"/>
<text text-anchor="middle" x="1763.04" y="-806.3" font-family="Times,serif" font-size="14.00">n13 (0.00 &#45; 12)</text>
</g>
<!-- n14 (0.00 &#45; 13)&#45;&gt;n13 (0.00 &#45; 12) -->
<g id="edge42" class="edge"><title>n14 (0.00 &#45; 13)&#45;&gt;n13 (0.00 &#45; 12)</title>
<path fill="none" stroke="black" d="M1692.38,-864.765C1704.69,-855.4 1720.34,-843.49 1733.79,-833.261"/>
<polygon fill="black" stroke="black" points="1735.98,-835.988 1741.82,-827.147 1731.74,-830.417 1735.98,-835.988"/>
</g>
<!-- COSINE -->
<g id="node44" class="node"><title>COSINE</title>
<ellipse fill="none" stroke="black" cx="1700.04" cy="-738" rx="42.4939" ry="18"/>
<text text-anchor="middle" x="1700.04" y="-734.3" font-family="Times,serif" font-size="14.00">COSINE</text>
</g>
<!-- n13 (0.00 &#45; 12)&#45;&gt;COSINE -->
<g id="edge43" class="edge"><title>n13 (0.00 &#45; 12)&#45;&gt;COSINE</title>
<path fill="none" stroke="black" d="M1748.11,-792.411C1740.08,-783.479 1730.02,-772.31 1721.19,-762.498"/>
<polygon fill="black" stroke="black" points="1723.72,-760.08 1714.43,-754.988 1718.52,-764.762 1723.72,-760.08"/>
</g>
<!-- n12 (0.00 &#45; 11) -->
<g id="node45" class="node"><title>n12 (0.00 &#45; 11)</title>
<ellipse fill="none" stroke="black" cx="1825.04" cy="-738" rx="64.189" ry="18"/>
<text text-anchor="middle" x="1825.04" y="-734.3" font-family="Times,serif" font-size="14.00">n12 (0.00 &#45; 11)</text>
</g>
<!-- n13 (0.00 &#45; 12)&#45;&gt;n12 (0.00 &#45; 11) -->
<g id="edge44" class="edge"><title>n13 (0.00 &#45; 12)&#45;&gt;n12 (0.00 &#45; 11)</title>
<path fill="none" stroke="black" d="M1777.74,-792.411C1785.35,-783.82 1794.79,-773.159 1803.23,-763.627"/>
<polygon fill="black" stroke="black" points="1806.02,-765.763 1810.03,-755.956 1800.78,-761.121 1806.02,-765.763"/>
</g>
<!-- CENTERED_CONFIDENCE -->
<g id="node46" class="node"><title>CENTERED_CONFIDENCE</title>
<ellipse fill="none" stroke="black" cx="1726.04" cy="-666" rx="116.18" ry="18"/>
<text text-anchor="middle" x="1726.04" y="-662.3" font-family="Times,serif" font-size="14.00">CENTERED_CONFIDENCE</text>
</g>
<!-- n12 (0.00 &#45; 11)&#45;&gt;CENTERED_CONFIDENCE -->
<g id="edge45" class="edge"><title>n12 (0.00 &#45; 11)&#45;&gt;CENTERED_CONFIDENCE</title>
<path fill="none" stroke="black" d="M1802.58,-721.116C1789.42,-711.809 1772.58,-699.901 1758.04,-689.626"/>
<polygon fill="black" stroke="black" points="1759.99,-686.713 1749.8,-683.797 1755.95,-692.428 1759.99,-686.713"/>
</g>
<!-- n11 (0.00 &#45; 10) -->
<g id="node47" class="node"><title>n11 (0.00 &#45; 10)</title>
<ellipse fill="none" stroke="black" cx="1925.04" cy="-666" rx="64.189" ry="18"/>
<text text-anchor="middle" x="1925.04" y="-662.3" font-family="Times,serif" font-size="14.00">n11 (0.00 &#45; 10)</text>
</g>
<!-- n12 (0.00 &#45; 11)&#45;&gt;n11 (0.00 &#45; 10) -->
<g id="edge46" class="edge"><title>n12 (0.00 &#45; 11)&#45;&gt;n11 (0.00 &#45; 10)</title>
<path fill="none" stroke="black" d="M1847.74,-721.116C1861.32,-711.607 1878.78,-699.382 1893.67,-688.959"/>
<polygon fill="black" stroke="black" points="1895.91,-691.666 1902.1,-683.064 1891.9,-685.931 1895.91,-691.666"/>
</g>
<!-- SEBAG_SCHOENAUER -->
<g id="node48" class="node"><title>SEBAG_SCHOENAUER</title>
<ellipse fill="none" stroke="black" cx="1835.04" cy="-594" rx="102.882" ry="18"/>
<text text-anchor="middle" x="1835.04" y="-590.3" font-family="Times,serif" font-size="14.00">SEBAG_SCHOENAUER</text>
</g>
<!-- n11 (0.00 &#45; 10)&#45;&gt;SEBAG_SCHOENAUER -->
<g id="edge47" class="edge"><title>n11 (0.00 &#45; 10)&#45;&gt;SEBAG_SCHOENAUER</title>
<path fill="none" stroke="black" d="M1904.17,-648.765C1892.41,-639.621 1877.54,-628.05 1864.6,-617.988"/>
<polygon fill="black" stroke="black" points="1866.47,-615.01 1856.43,-611.633 1862.17,-620.536 1866.47,-615.01"/>
</g>
<!-- n10 (0.00 &#45; 9) -->
<g id="node49" class="node"><title>n10 (0.00 &#45; 9)</title>
<ellipse fill="none" stroke="black" cx="2015.04" cy="-594" rx="59.5901" ry="18"/>
<text text-anchor="middle" x="2015.04" y="-590.3" font-family="Times,serif" font-size="14.00">n10 (0.00 &#45; 9)</text>
</g>
<!-- n11 (0.00 &#45; 10)&#45;&gt;n10 (0.00 &#45; 9) -->
<g id="edge48" class="edge"><title>n11 (0.00 &#45; 10)&#45;&gt;n10 (0.00 &#45; 9)</title>
<path fill="none" stroke="black" d="M1945.92,-648.765C1957.85,-639.488 1972.98,-627.714 1986.05,-617.551"/>
<polygon fill="black" stroke="black" points="1988.54,-620.049 1994.28,-611.147 1984.24,-614.524 1988.54,-620.049"/>
</g>
<!-- LEAST_CONTRADICTION -->
<g id="node50" class="node"><title>LEAST_CONTRADICTION</title>
<ellipse fill="none" stroke="black" cx="1921.04" cy="-522" rx="114.28" ry="18"/>
<text text-anchor="middle" x="1921.04" y="-518.3" font-family="Times,serif" font-size="14.00">LEAST_CONTRADICTION</text>
</g>
<!-- n10 (0.00 &#45; 9)&#45;&gt;LEAST_CONTRADICTION -->
<g id="edge49" class="edge"><title>n10 (0.00 &#45; 9)&#45;&gt;LEAST_CONTRADICTION</title>
<path fill="none" stroke="black" d="M1993.71,-577.116C1981.33,-567.896 1965.52,-556.124 1951.82,-545.915"/>
<polygon fill="black" stroke="black" points="1953.71,-542.963 1943.6,-539.797 1949.53,-548.577 1953.71,-542.963"/>
</g>
<!-- n9 (0.00 &#45; 8) -->
<g id="node51" class="node"><title>n9 (0.00 &#45; 8)</title>
<ellipse fill="none" stroke="black" cx="2109.04" cy="-522" rx="55.7903" ry="18"/>
<text text-anchor="middle" x="2109.04" y="-518.3" font-family="Times,serif" font-size="14.00">n9 (0.00 &#45; 8)</text>
</g>
<!-- n10 (0.00 &#45; 9)&#45;&gt;n9 (0.00 &#45; 8) -->
<g id="edge50" class="edge"><title>n10 (0.00 &#45; 9)&#45;&gt;n9 (0.00 &#45; 8)</title>
<path fill="none" stroke="black" d="M2036.37,-577.116C2049.11,-567.629 2065.48,-555.439 2079.46,-545.031"/>
<polygon fill="black" stroke="black" points="2081.87,-547.601 2087.8,-538.821 2077.69,-541.987 2081.87,-547.601"/>
</g>
<!-- ODD_MULTIPLIER -->
<g id="node52" class="node"><title>ODD_MULTIPLIER</title>
<ellipse fill="none" stroke="black" cx="2028.04" cy="-450" rx="87.1846" ry="18"/>
<text text-anchor="middle" x="2028.04" y="-446.3" font-family="Times,serif" font-size="14.00">ODD_MULTIPLIER</text>
</g>
<!-- n9 (0.00 &#45; 8)&#45;&gt;ODD_MULTIPLIER -->
<g id="edge51" class="edge"><title>n9 (0.00 &#45; 8)&#45;&gt;ODD_MULTIPLIER</title>
<path fill="none" stroke="black" d="M2090.26,-504.765C2079.78,-495.708 2066.54,-484.27 2054.98,-474.276"/>
<polygon fill="black" stroke="black" points="2057.15,-471.524 2047.29,-467.633 2052.57,-476.82 2057.15,-471.524"/>
</g>
<!-- n8 (0.00 &#45; 7) -->
<g id="node53" class="node"><title>n8 (0.00 &#45; 7)</title>
<ellipse fill="none" stroke="black" cx="2189.04" cy="-450" rx="55.7903" ry="18"/>
<text text-anchor="middle" x="2189.04" y="-446.3" font-family="Times,serif" font-size="14.00">n8 (0.00 &#45; 7)</text>
</g>
<!-- n9 (0.00 &#45; 8)&#45;&gt;n8 (0.00 &#45; 7) -->
<g id="edge52" class="edge"><title>n9 (0.00 &#45; 8)&#45;&gt;n8 (0.00 &#45; 7)</title>
<path fill="none" stroke="black" d="M2127.6,-504.765C2138.1,-495.576 2151.4,-483.938 2162.94,-473.842"/>
<polygon fill="black" stroke="black" points="2165.37,-476.366 2170.59,-467.147 2160.76,-471.098 2165.37,-476.366"/>
</g>
<!-- COUNTER_EXAMPLE_RATE -->
<g id="node54" class="node"><title>COUNTER_EXAMPLE_RATE</title>
<ellipse fill="none" stroke="black" cx="2089.04" cy="-378" rx="126.178" ry="18"/>
<text text-anchor="middle" x="2089.04" y="-374.3" font-family="Times,serif" font-size="14.00">COUNTER_EXAMPLE_RATE</text>
</g>
<!-- n8 (0.00 &#45; 7)&#45;&gt;COUNTER_EXAMPLE_RATE -->
<g id="edge53" class="edge"><title>n8 (0.00 &#45; 7)&#45;&gt;COUNTER_EXAMPLE_RATE</title>
<path fill="none" stroke="black" d="M2166.85,-433.465C2153.48,-424.104 2136.22,-412.021 2121.35,-401.614"/>
<polygon fill="black" stroke="black" points="2123.12,-398.581 2112.92,-395.714 2119.11,-404.316 2123.12,-398.581"/>
</g>
<!-- n7 (0.00 &#45; 6) -->
<g id="node55" class="node"><title>n7 (0.00 &#45; 6)</title>
<ellipse fill="none" stroke="black" cx="2289.04" cy="-378" rx="55.7903" ry="18"/>
<text text-anchor="middle" x="2289.04" y="-374.3" font-family="Times,serif" font-size="14.00">n7 (0.00 &#45; 6)</text>
</g>
<!-- n8 (0.00 &#45; 7)&#45;&gt;n7 (0.00 &#45; 6) -->
<g id="edge54" class="edge"><title>n8 (0.00 &#45; 7)&#45;&gt;n7 (0.00 &#45; 6)</title>
<path fill="none" stroke="black" d="M2211.24,-433.465C2224.99,-423.835 2242.87,-411.323 2258.02,-400.72"/>
<polygon fill="black" stroke="black" points="2260.38,-403.336 2266.57,-394.734 2256.37,-397.601 2260.38,-403.336"/>
</g>
<!-- ZHANG -->
<g id="node56" class="node"><title>ZHANG</title>
<ellipse fill="none" stroke="black" cx="2231.04" cy="-306" rx="41.6928" ry="18"/>
<text text-anchor="middle" x="2231.04" y="-302.3" font-family="Times,serif" font-size="14.00">ZHANG</text>
</g>
<!-- n7 (0.00 &#45; 6)&#45;&gt;ZHANG -->
<g id="edge55" class="edge"><title>n7 (0.00 &#45; 6)&#45;&gt;ZHANG</title>
<path fill="none" stroke="black" d="M2275.3,-360.411C2268.08,-351.693 2259.09,-340.845 2251.1,-331.208"/>
<polygon fill="black" stroke="black" points="2253.77,-328.937 2244.69,-323.47 2248.38,-333.403 2253.77,-328.937"/>
</g>
<!-- n6 (0.00 &#45; 5) -->
<g id="node57" class="node"><title>n6 (0.00 &#45; 5)</title>
<ellipse fill="none" stroke="black" cx="2346.04" cy="-306" rx="55.7903" ry="18"/>
<text text-anchor="middle" x="2346.04" y="-302.3" font-family="Times,serif" font-size="14.00">n6 (0.00 &#45; 5)</text>
</g>
<!-- n7 (0.00 &#45; 6)&#45;&gt;n6 (0.00 &#45; 5) -->
<g id="edge56" class="edge"><title>n7 (0.00 &#45; 6)&#45;&gt;n6 (0.00 &#45; 5)</title>
<path fill="none" stroke="black" d="M2302.55,-360.411C2309.48,-351.906 2318.06,-341.372 2325.76,-331.914"/>
<polygon fill="black" stroke="black" points="2328.64,-333.921 2332.24,-323.956 2323.21,-329.501 2328.64,-333.921"/>
</g>
<!-- CHI_SQUARE -->
<g id="node58" class="node"><title>CHI_SQUARE</title>
<ellipse fill="none" stroke="black" cx="2276.04" cy="-234" rx="65.7887" ry="18"/>
<text text-anchor="middle" x="2276.04" y="-230.3" font-family="Times,serif" font-size="14.00">CHI_SQUARE</text>
</g>
<!-- n6 (0.00 &#45; 5)&#45;&gt;CHI_SQUARE -->
<g id="edge57" class="edge"><title>n6 (0.00 &#45; 5)&#45;&gt;CHI_SQUARE</title>
<path fill="none" stroke="black" d="M2329.81,-288.765C2320.93,-279.882 2309.75,-268.709 2299.9,-258.854"/>
<polygon fill="black" stroke="black" points="2302.22,-256.23 2292.68,-251.633 2297.27,-261.179 2302.22,-256.23"/>
</g>
<!-- n5 (0.00 &#45; 4) -->
<g id="node59" class="node"><title>n5 (0.00 &#45; 4)</title>
<ellipse fill="none" stroke="black" cx="2416.04" cy="-234" rx="55.7903" ry="18"/>
<text text-anchor="middle" x="2416.04" y="-230.3" font-family="Times,serif" font-size="14.00">n5 (0.00 &#45; 4)</text>
</g>
<!-- n6 (0.00 &#45; 5)&#45;&gt;n5 (0.00 &#45; 4) -->
<g id="edge58" class="edge"><title>n6 (0.00 &#45; 5)&#45;&gt;n5 (0.00 &#45; 4)</title>
<path fill="none" stroke="black" d="M2362.28,-288.765C2371.16,-279.882 2382.33,-268.709 2392.19,-258.854"/>
<polygon fill="black" stroke="black" points="2394.81,-261.179 2399.41,-251.633 2389.87,-256.23 2394.81,-261.179"/>
</g>
<!-- FISHER_PVAL -->
<g id="node60" class="node"><title>FISHER_PVAL</title>
<ellipse fill="none" stroke="black" cx="2345.04" cy="-162" rx="68.4888" ry="18"/>
<text text-anchor="middle" x="2345.04" y="-158.3" font-family="Times,serif" font-size="14.00">FISHER_PVAL</text>
</g>
<!-- n5 (0.00 &#45; 4)&#45;&gt;FISHER_PVAL -->
<g id="edge59" class="edge"><title>n5 (0.00 &#45; 4)&#45;&gt;FISHER_PVAL</title>
<path fill="none" stroke="black" d="M2399.58,-216.765C2390.57,-207.882 2379.24,-196.709 2369.24,-186.854"/>
<polygon fill="black" stroke="black" points="2371.49,-184.162 2361.92,-179.633 2366.58,-189.147 2371.49,-184.162"/>
</g>
<!-- n4 (0.00 &#45; 3) -->
<g id="node61" class="node"><title>n4 (0.00 &#45; 3)</title>
<ellipse fill="none" stroke="black" cx="2487.04" cy="-162" rx="55.7903" ry="18"/>
<text text-anchor="middle" x="2487.04" y="-158.3" font-family="Times,serif" font-size="14.00">n4 (0.00 &#45; 3)</text>
</g>
<!-- n5 (0.00 &#45; 4)&#45;&gt;n4 (0.00 &#45; 3) -->
<g id="edge60" class="edge"><title>n5 (0.00 &#45; 4)&#45;&gt;n4 (0.00 &#45; 3)</title>
<path fill="none" stroke="black" d="M2432.51,-216.765C2441.52,-207.882 2452.85,-196.709 2462.85,-186.854"/>
<polygon fill="black" stroke="black" points="2465.51,-189.147 2470.17,-179.633 2460.6,-184.162 2465.51,-189.147"/>
</g>
<!-- BAYES -->
<g id="node62" class="node"><title>BAYES</title>
<ellipse fill="none" stroke="black" cx="2430.04" cy="-90" rx="39.7935" ry="18"/>
<text text-anchor="middle" x="2430.04" y="-86.3" font-family="Times,serif" font-size="14.00">BAYES</text>
</g>
<!-- n4 (0.00 &#45; 3)&#45;&gt;BAYES -->
<g id="edge61" class="edge"><title>n4 (0.00 &#45; 3)&#45;&gt;BAYES</title>
<path fill="none" stroke="black" d="M2473.54,-144.411C2466.51,-135.781 2457.78,-125.062 2449.99,-115.497"/>
<polygon fill="black" stroke="black" points="2452.48,-113.014 2443.46,-107.47 2447.06,-117.434 2452.48,-113.014"/>
</g>
<!-- n3 (0.00 &#45; 2) -->
<g id="node63" class="node"><title>n3 (0.00 &#45; 2)</title>
<ellipse fill="none" stroke="black" cx="2544.04" cy="-90" rx="55.7903" ry="18"/>
<text text-anchor="middle" x="2544.04" y="-86.3" font-family="Times,serif" font-size="14.00">n3 (0.00 &#45; 2)</text>
</g>
<!-- n4 (0.00 &#45; 3)&#45;&gt;n3 (0.00 &#45; 2) -->
<g id="edge62" class="edge"><title>n4 (0.00 &#45; 3)&#45;&gt;n3 (0.00 &#45; 2)</title>
<path fill="none" stroke="black" d="M2500.55,-144.411C2507.48,-135.906 2516.06,-125.372 2523.76,-115.914"/>
<polygon fill="black" stroke="black" points="2526.64,-117.921 2530.24,-107.956 2521.21,-113.501 2526.64,-117.921"/>
</g>
<!-- RECALL -->
<g id="node64" class="node"><title>RECALL</title>
<ellipse fill="none" stroke="black" cx="2480.04" cy="-18" rx="44.6926" ry="18"/>
<text text-anchor="middle" x="2480.04" y="-14.3" font-family="Times,serif" font-size="14.00">RECALL</text>
</g>
<!-- n3 (0.00 &#45; 2)&#45;&gt;RECALL -->
<g id="edge63" class="edge"><title>n3 (0.00 &#45; 2)&#45;&gt;RECALL</title>
<path fill="none" stroke="black" d="M2528.88,-72.411C2520.83,-63.6062 2510.79,-52.6282 2501.91,-42.9189"/>
<polygon fill="black" stroke="black" points="2504.43,-40.4886 2495.1,-35.4699 2499.27,-45.212 2504.43,-40.4886"/>
</g>
<!-- CONFIDENCE -->
<g id="node65" class="node"><title>CONFIDENCE</title>
<ellipse fill="none" stroke="black" cx="2609.04" cy="-18" rx="66.0889" ry="18"/>
<text text-anchor="middle" x="2609.04" y="-14.3" font-family="Times,serif" font-size="14.00">CONFIDENCE</text>
</g>
<!-- n3 (0.00 &#45; 2)&#45;&gt;CONFIDENCE -->
<g id="edge64" class="edge"><title>n3 (0.00 &#45; 2)&#45;&gt;CONFIDENCE</title>
<path fill="none" stroke="black" d="M2559.45,-72.411C2567.51,-63.7338 2577.52,-52.946 2586.44,-43.3418"/>
<polygon fill="black" stroke="black" points="2589.06,-45.6658 2593.3,-35.9562 2583.93,-40.9026 2589.06,-45.6658"/>
</g>
</g>
</svg>
