<?xml version="1.0" encoding="UTF-8" standalone="no"?>
<!DOCTYPE svg PUBLIC "-//W3C//DTD SVG 1.1//EN"
 "http://www.w3.org/Graphics/SVG/1.1/DTD/svg11.dtd">
<!-- Generated by graphviz version 2.38.0 (20140413.2041)
 -->
<!-- Title: dendrogram Pages: 1 -->
<svg width="1541pt" height="745pt"
 viewBox="0.00 0.00 1541.02 744.83" xmlns="http://www.w3.org/2000/svg" xmlns:xlink="http://www.w3.org/1999/xlink">
<g id="graph0" class="graph" transform="scale(1 1) rotate(0) translate(4 740.825)">
<title>dendrogram</title>
<polygon fill="white" stroke="none" points="-4,4 -4,-740.825 1537.02,-740.825 1537.02,4 -4,4"/>
<!-- n34 (0.00 &#45; 36) -->
<g id="node1" class="node"><title>n34 (0.00 &#45; 36)</title>
<ellipse fill="none" stroke="black" cx="653.84" cy="-718.825" rx="64.189" ry="18"/>
<text text-anchor="middle" x="653.84" y="-715.125" font-family="Times,serif" font-size="14.00">n34 (0.00 &#45; 36)</text>
</g>
<!-- n33 (0.07 &#45; 16) -->
<g id="node2" class="node"><title>n33 (0.07 &#45; 16)</title>
<ellipse fill="none" stroke="black" cx="546.84" cy="-646.825" rx="64.189" ry="18"/>
<text text-anchor="middle" x="546.84" y="-643.125" font-family="Times,serif" font-size="14.00">n33 (0.07 &#45; 16)</text>
</g>
<!-- n34 (0.00 &#45; 36)&#45;&gt;n33 (0.07 &#45; 16) -->
<g id="edge1" class="edge"><title>n34 (0.00 &#45; 36)&#45;&gt;n33 (0.07 &#45; 16)</title>
<path fill="none" stroke="black" d="M629.827,-702.116C615.063,-692.457 595.941,-679.947 579.774,-669.371"/>
<polygon fill="black" stroke="black" points="581.428,-666.27 571.143,-663.725 577.595,-672.128 581.428,-666.27"/>
</g>
<!-- n32 (0.12 &#45; 20) -->
<g id="node21" class="node"><title>n32 (0.12 &#45; 20)</title>
<ellipse fill="none" stroke="black" cx="761.84" cy="-646.825" rx="64.189" ry="18"/>
<text text-anchor="middle" x="761.84" y="-643.125" font-family="Times,serif" font-size="14.00">n32 (0.12 &#45; 20)</text>
</g>
<!-- n34 (0.00 &#45; 36)&#45;&gt;n32 (0.12 &#45; 20) -->
<g id="edge20" class="edge"><title>n34 (0.00 &#45; 36)&#45;&gt;n32 (0.12 &#45; 20)</title>
<path fill="none" stroke="black" d="M678.078,-702.116C692.98,-692.457 712.281,-679.947 728.599,-669.371"/>
<polygon fill="black" stroke="black" points="730.822,-672.101 737.31,-663.725 727.015,-666.227 730.822,-672.101"/>
</g>
<!-- n31 (0.36 &#45; 2) -->
<g id="node3" class="node"><title>n31 (0.36 &#45; 2)</title>
<ellipse fill="none" stroke="black" cx="300.84" cy="-574.825" rx="59.5901" ry="18"/>
<text text-anchor="middle" x="300.84" y="-571.125" font-family="Times,serif" font-size="14.00">n31 (0.36 &#45; 2)</text>
</g>
<!-- n33 (0.07 &#45; 16)&#45;&gt;n31 (0.36 &#45; 2) -->
<g id="edge2" class="edge"><title>n33 (0.07 &#45; 16)&#45;&gt;n31 (0.36 &#45; 2)</title>
<path fill="none" stroke="black" d="M503.427,-633.472C461.366,-621.503 397.545,-603.343 352.804,-590.612"/>
<polygon fill="black" stroke="black" points="353.574,-587.192 342.998,-587.822 351.658,-593.925 353.574,-587.192"/>
</g>
<!-- n30 (0.37 &#45; 14) -->
<g id="node6" class="node"><title>n30 (0.37 &#45; 14)</title>
<ellipse fill="none" stroke="black" cx="546.84" cy="-574.825" rx="64.189" ry="18"/>
<text text-anchor="middle" x="546.84" y="-571.125" font-family="Times,serif" font-size="14.00">n30 (0.37 &#45; 14)</text>
</g>
<!-- n33 (0.07 &#45; 16)&#45;&gt;n30 (0.37 &#45; 14) -->
<g id="edge5" class="edge"><title>n33 (0.07 &#45; 16)&#45;&gt;n30 (0.37 &#45; 14)</title>
<path fill="none" stroke="black" d="M546.84,-628.522C546.84,-620.808 546.84,-611.538 546.84,-602.938"/>
<polygon fill="black" stroke="black" points="550.34,-602.93 546.84,-592.93 543.34,-602.93 550.34,-602.93"/>
</g>
<!-- COLLECTIVE_STRENGH -->
<g id="node4" class="node"><title>COLLECTIVE_STRENGH</title>
<ellipse fill="none" stroke="black" cx="109.84" cy="-409.103" rx="109.681" ry="18"/>
<text text-anchor="middle" x="109.84" y="-405.403" font-family="Times,serif" font-size="14.00">COLLECTIVE_STRENGH</text>
</g>
<!-- n31 (0.36 &#45; 2)&#45;&gt;COLLECTIVE_STRENGH -->
<g id="edge3" class="edge"><title>n31 (0.36 &#45; 2)&#45;&gt;COLLECTIVE_STRENGH</title>
<path fill="none" stroke="black" d="M277.957,-557.999C263.548,-547.788 244.736,-533.997 228.84,-520.825 194.724,-492.555 157.694,-457.314 134.157,-434.285"/>
<polygon fill="black" stroke="black" points="136.595,-431.775 127.01,-427.262 131.689,-436.768 136.595,-431.775"/>
</g>
<!-- SPECIFICITY -->
<g id="node5" class="node"><title>SPECIFICITY</title>
<ellipse fill="none" stroke="black" cx="300.84" cy="-409.103" rx="63.0888" ry="18"/>
<text text-anchor="middle" x="300.84" y="-405.403" font-family="Times,serif" font-size="14.00">SPECIFICITY</text>
</g>
<!-- n31 (0.36 &#45; 2)&#45;&gt;SPECIFICITY -->
<g id="edge4" class="edge"><title>n31 (0.36 &#45; 2)&#45;&gt;SPECIFICITY</title>
<path fill="none" stroke="black" d="M300.84,-556.614C300.84,-528.314 300.84,-471.714 300.84,-437.745"/>
<polygon fill="black" stroke="black" points="304.34,-437.576 300.84,-427.577 297.34,-437.577 304.34,-437.576"/>
</g>
<!-- n28 (0.60 &#45; 4) -->
<g id="node7" class="node"><title>n28 (0.60 &#45; 4)</title>
<ellipse fill="none" stroke="black" cx="441.84" cy="-409.103" rx="59.5901" ry="18"/>
<text text-anchor="middle" x="441.84" y="-405.403" font-family="Times,serif" font-size="14.00">n28 (0.60 &#45; 4)</text>
</g>
<!-- n30 (0.37 &#45; 14)&#45;&gt;n28 (0.60 &#45; 4) -->
<g id="edge6" class="edge"><title>n30 (0.37 &#45; 14)&#45;&gt;n28 (0.60 &#45; 4)</title>
<path fill="none" stroke="black" d="M534.995,-556.754C527.888,-546.423 518.728,-532.945 510.84,-520.825 492.054,-491.961 471.242,-458.325 457.439,-435.767"/>
<polygon fill="black" stroke="black" points="460.355,-433.826 452.156,-427.116 454.38,-437.475 460.355,-433.826"/>
</g>
<!-- n27 (0.61 &#45; 10) -->
<g id="node14" class="node"><title>n27 (0.61 &#45; 10)</title>
<ellipse fill="none" stroke="black" cx="583.84" cy="-409.103" rx="64.189" ry="18"/>
<text text-anchor="middle" x="583.84" y="-405.403" font-family="Times,serif" font-size="14.00">n27 (0.61 &#45; 10)</text>
</g>
<!-- n30 (0.37 &#45; 14)&#45;&gt;n27 (0.61 &#45; 10) -->
<g id="edge13" class="edge"><title>n30 (0.37 &#45; 14)&#45;&gt;n27 (0.61 &#45; 10)</title>
<path fill="none" stroke="black" d="M550.73,-556.614C557.159,-528.166 570.051,-471.12 577.713,-437.214"/>
<polygon fill="black" stroke="black" points="581.212,-437.609 580.003,-427.084 574.384,-436.066 581.212,-437.609"/>
</g>
<!-- RECALL -->
<g id="node8" class="node"><title>RECALL</title>
<ellipse fill="none" stroke="black" cx="318.84" cy="-243.38" rx="44.6926" ry="18"/>
<text text-anchor="middle" x="318.84" y="-239.68" font-family="Times,serif" font-size="14.00">RECALL</text>
</g>
<!-- n28 (0.60 &#45; 4)&#45;&gt;RECALL -->
<g id="edge7" class="edge"><title>n28 (0.60 &#45; 4)&#45;&gt;RECALL</title>
<path fill="none" stroke="black" d="M432.937,-391.149C420.778,-368.687 397.641,-328.3 372.84,-297.38 364.28,-286.707 353.746,-275.945 344.262,-266.934"/>
<polygon fill="black" stroke="black" points="346.643,-264.369 336.939,-260.117 341.874,-269.493 346.643,-264.369"/>
</g>
<!-- n24 (0.76 &#45; 3) -->
<g id="node9" class="node"><title>n24 (0.76 &#45; 3)</title>
<ellipse fill="none" stroke="black" cx="441.84" cy="-243.38" rx="59.5901" ry="18"/>
<text text-anchor="middle" x="441.84" y="-239.68" font-family="Times,serif" font-size="14.00">n24 (0.76 &#45; 3)</text>
</g>
<!-- n28 (0.60 &#45; 4)&#45;&gt;n24 (0.76 &#45; 3) -->
<g id="edge8" class="edge"><title>n28 (0.60 &#45; 4)&#45;&gt;n24 (0.76 &#45; 3)</title>
<path fill="none" stroke="black" d="M441.84,-390.891C441.84,-362.591 441.84,-305.991 441.84,-272.023"/>
<polygon fill="black" stroke="black" points="445.34,-271.854 441.84,-261.854 438.34,-271.854 445.34,-271.854"/>
</g>
<!-- JACCARD -->
<g id="node10" class="node"><title>JACCARD</title>
<ellipse fill="none" stroke="black" cx="313.84" cy="-130.69" rx="50.8918" ry="18"/>
<text text-anchor="middle" x="313.84" y="-126.99" font-family="Times,serif" font-size="14.00">JACCARD</text>
</g>
<!-- n24 (0.76 &#45; 3)&#45;&gt;JACCARD -->
<g id="edge9" class="edge"><title>n24 (0.76 &#45; 3)&#45;&gt;JACCARD</title>
<path fill="none" stroke="black" d="M419.87,-226.549C406.047,-216.336 388.015,-202.545 372.84,-189.38 360.475,-178.653 347.394,-166.008 336.699,-155.295"/>
<polygon fill="black" stroke="black" points="338.898,-152.541 329.378,-147.891 333.92,-157.463 338.898,-152.541"/>
</g>
<!-- n22 (0.86 &#45; 2) -->
<g id="node11" class="node"><title>n22 (0.86 &#45; 2)</title>
<ellipse fill="none" stroke="black" cx="441.84" cy="-130.69" rx="59.5901" ry="18"/>
<text text-anchor="middle" x="441.84" y="-126.99" font-family="Times,serif" font-size="14.00">n22 (0.86 &#45; 2)</text>
</g>
<!-- n24 (0.76 &#45; 3)&#45;&gt;n22 (0.86 &#45; 2) -->
<g id="edge10" class="edge"><title>n24 (0.76 &#45; 3)&#45;&gt;n22 (0.86 &#45; 2)</title>
<path fill="none" stroke="black" d="M441.84,-225.084C441.84,-207.376 441.84,-179.595 441.84,-158.93"/>
<polygon fill="black" stroke="black" points="445.34,-158.864 441.84,-148.864 438.34,-158.864 445.34,-158.864"/>
</g>
<!-- TWO_WAY_SUPPORT -->
<g id="node12" class="node"><title>TWO_WAY_SUPPORT</title>
<ellipse fill="none" stroke="black" cx="332.84" cy="-18" rx="100.182" ry="18"/>
<text text-anchor="middle" x="332.84" y="-14.3" font-family="Times,serif" font-size="14.00">TWO_WAY_SUPPORT</text>
</g>
<!-- n22 (0.86 &#45; 2)&#45;&gt;TWO_WAY_SUPPORT -->
<g id="edge11" class="edge"><title>n22 (0.86 &#45; 2)&#45;&gt;TWO_WAY_SUPPORT</title>
<path fill="none" stroke="black" d="M425.285,-112.878C407.039,-94.3493 377.528,-64.3804 356.767,-43.2974"/>
<polygon fill="black" stroke="black" points="359.061,-40.6391 349.551,-35.9696 354.073,-45.5507 359.061,-40.6391"/>
</g>
<!-- PIATETSKY_SHAPIRO -->
<g id="node13" class="node"><title>PIATETSKY_SHAPIRO</title>
<ellipse fill="none" stroke="black" cx="551.84" cy="-18" rx="100.983" ry="18"/>
<text text-anchor="middle" x="551.84" y="-14.3" font-family="Times,serif" font-size="14.00">PIATETSKY_SHAPIRO</text>
</g>
<!-- n22 (0.86 &#45; 2)&#45;&gt;PIATETSKY_SHAPIRO -->
<g id="edge12" class="edge"><title>n22 (0.86 &#45; 2)&#45;&gt;PIATETSKY_SHAPIRO</title>
<path fill="none" stroke="black" d="M458.071,-113.357C476.568,-94.7443 506.968,-64.1538 528.121,-42.8685"/>
<polygon fill="black" stroke="black" points="530.616,-45.3229 535.182,-35.7625 525.651,-40.3886 530.616,-45.3229"/>
</g>
<!-- n25 (0.70 &#45; 4) -->
<g id="node15" class="node"><title>n25 (0.70 &#45; 4)</title>
<ellipse fill="none" stroke="black" cx="583.84" cy="-243.38" rx="59.5901" ry="18"/>
<text text-anchor="middle" x="583.84" y="-239.68" font-family="Times,serif" font-size="14.00">n25 (0.70 &#45; 4)</text>
</g>
<!-- n27 (0.61 &#45; 10)&#45;&gt;n25 (0.70 &#45; 4) -->
<g id="edge14" class="edge"><title>n27 (0.61 &#45; 10)&#45;&gt;n25 (0.70 &#45; 4)</title>
<path fill="none" stroke="black" d="M583.84,-390.891C583.84,-362.591 583.84,-305.991 583.84,-272.023"/>
<polygon fill="black" stroke="black" points="587.34,-271.854 583.84,-261.854 580.34,-271.854 587.34,-271.854"/>
</g>
<!-- n23 (0.78 &#45; 6) -->
<g id="node18" class="node"><title>n23 (0.78 &#45; 6)</title>
<ellipse fill="none" stroke="black" cx="1020.84" cy="-243.38" rx="59.5901" ry="18"/>
<text text-anchor="middle" x="1020.84" y="-239.68" font-family="Times,serif" font-size="14.00">n23 (0.78 &#45; 6)</text>
</g>
<!-- n27 (0.61 &#45; 10)&#45;&gt;n23 (0.78 &#45; 6) -->
<g id="edge17" class="edge"><title>n27 (0.61 &#45; 10)&#45;&gt;n23 (0.78 &#45; 6)</title>
<path fill="none" stroke="black" d="M589.91,-390.918C599.741,-365.829 621.67,-319.737 656.84,-297.38 704.566,-267.041 860.48,-253.313 952.041,-247.734"/>
<polygon fill="black" stroke="black" points="952.282,-251.226 962.058,-247.14 951.868,-244.238 952.282,-251.226"/>
</g>
<!-- KAPPA -->
<g id="node16" class="node"><title>KAPPA</title>
<ellipse fill="none" stroke="black" cx="558.84" cy="-130.69" rx="39.7935" ry="18"/>
<text text-anchor="middle" x="558.84" y="-126.99" font-family="Times,serif" font-size="14.00">KAPPA</text>
</g>
<!-- n25 (0.70 &#45; 4)&#45;&gt;KAPPA -->
<g id="edge15" class="edge"><title>n25 (0.70 &#45; 4)&#45;&gt;KAPPA</title>
<path fill="none" stroke="black" d="M579.934,-225.084C575.916,-207.295 569.602,-179.34 564.929,-158.647"/>
<polygon fill="black" stroke="black" points="568.336,-157.847 562.719,-148.864 561.508,-159.389 568.336,-157.847"/>
</g>
<!-- J_MEASURE\nTWO_WAY_SUPPORT_VARIATION\nFISHER_PVAL -->
<g id="node17" class="node"><title>J_MEASURE\nTWO_WAY_SUPPORT_VARIATION\nFISHER_PVAL</title>
<ellipse fill="none" stroke="black" cx="783.84" cy="-130.69" rx="166.754" ry="37.4533"/>
<text text-anchor="middle" x="783.84" y="-141.99" font-family="Times,serif" font-size="14.00">J_MEASURE</text>
<text text-anchor="middle" x="783.84" y="-126.99" font-family="Times,serif" font-size="14.00">TWO_WAY_SUPPORT_VARIATION</text>
<text text-anchor="middle" x="783.84" y="-111.99" font-family="Times,serif" font-size="14.00">FISHER_PVAL</text>
</g>
<!-- n25 (0.70 &#45; 4)&#45;&gt;J_MEASURE\nTWO_WAY_SUPPORT_VARIATION\nFISHER_PVAL -->
<g id="edge16" class="edge"><title>n25 (0.70 &#45; 4)&#45;&gt;J_MEASURE\nTWO_WAY_SUPPORT_VARIATION\nFISHER_PVAL</title>
<path fill="none" stroke="black" d="M611.23,-227.221C637.464,-212.702 678.163,-190.177 713.454,-170.645"/>
<polygon fill="black" stroke="black" points="715.243,-173.655 722.298,-165.751 711.853,-167.531 715.243,-173.655"/>
</g>
<!-- KLOSGEN -->
<g id="node19" class="node"><title>KLOSGEN</title>
<ellipse fill="none" stroke="black" cx="1020.84" cy="-130.69" rx="51.9908" ry="18"/>
<text text-anchor="middle" x="1020.84" y="-126.99" font-family="Times,serif" font-size="14.00">KLOSGEN</text>
</g>
<!-- n23 (0.78 &#45; 6)&#45;&gt;KLOSGEN -->
<g id="edge18" class="edge"><title>n23 (0.78 &#45; 6)&#45;&gt;KLOSGEN</title>
<path fill="none" stroke="black" d="M1020.84,-225.084C1020.84,-207.376 1020.84,-179.595 1020.84,-158.93"/>
<polygon fill="black" stroke="black" points="1024.34,-158.864 1020.84,-148.864 1017.34,-158.864 1024.34,-158.864"/>
</g>
<!-- COSINE\nPHI\nCHI_SQUARE\nGINI\nIMPLICATION_INDEX -->
<g id="node20" class="node"><title>COSINE\nPHI\nCHI_SQUARE\nGINI\nIMPLICATION_INDEX</title>
<ellipse fill="none" stroke="black" cx="1199.84" cy="-130.69" rx="108.789" ry="58.8803"/>
<text text-anchor="middle" x="1199.84" y="-156.99" font-family="Times,serif" font-size="14.00">COSINE</text>
<text text-anchor="middle" x="1199.84" y="-141.99" font-family="Times,serif" font-size="14.00">PHI</text>
<text text-anchor="middle" x="1199.84" y="-126.99" font-family="Times,serif" font-size="14.00">CHI_SQUARE</text>
<text text-anchor="middle" x="1199.84" y="-111.99" font-family="Times,serif" font-size="14.00">GINI</text>
<text text-anchor="middle" x="1199.84" y="-96.9899" font-family="Times,serif" font-size="14.00">IMPLICATION_INDEX</text>
</g>
<!-- n23 (0.78 &#45; 6)&#45;&gt;COSINE\nPHI\nCHI_SQUARE\nGINI\nIMPLICATION_INDEX -->
<g id="edge19" class="edge"><title>n23 (0.78 &#45; 6)&#45;&gt;COSINE\nPHI\nCHI_SQUARE\nGINI\nIMPLICATION_INDEX</title>
<path fill="none" stroke="black" d="M1045.73,-226.989C1065.15,-214.982 1093.25,-197.603 1120.16,-180.965"/>
<polygon fill="black" stroke="black" points="1122.17,-183.833 1128.84,-175.596 1118.49,-177.879 1122.17,-183.833"/>
</g>
<!-- n26 (0.62 &#45; 9) -->
<g id="node22" class="node"><title>n26 (0.62 &#45; 9)</title>
<ellipse fill="none" stroke="black" cx="761.84" cy="-574.825" rx="59.5901" ry="18"/>
<text text-anchor="middle" x="761.84" y="-571.125" font-family="Times,serif" font-size="14.00">n26 (0.62 &#45; 9)</text>
</g>
<!-- n32 (0.12 &#45; 20)&#45;&gt;n26 (0.62 &#45; 9) -->
<g id="edge21" class="edge"><title>n32 (0.12 &#45; 20)&#45;&gt;n26 (0.62 &#45; 9)</title>
<path fill="none" stroke="black" d="M761.84,-628.522C761.84,-620.808 761.84,-611.538 761.84,-602.938"/>
<polygon fill="black" stroke="black" points="765.34,-602.93 761.84,-592.93 758.34,-602.93 765.34,-602.93"/>
</g>
<!-- n29 (0.44 &#45; 11) -->
<g id="node25" class="node"><title>n29 (0.44 &#45; 11)</title>
<ellipse fill="none" stroke="black" cx="1125.84" cy="-574.825" rx="64.189" ry="18"/>
<text text-anchor="middle" x="1125.84" y="-571.125" font-family="Times,serif" font-size="14.00">n29 (0.44 &#45; 11)</text>
</g>
<!-- n32 (0.12 &#45; 20)&#45;&gt;n29 (0.44 &#45; 11) -->
<g id="edge24" class="edge"><title>n32 (0.12 &#45; 20)&#45;&gt;n29 (0.44 &#45; 11)</title>
<path fill="none" stroke="black" d="M813.221,-635.945C879.249,-623.247 993.755,-601.226 1064.34,-587.652"/>
<polygon fill="black" stroke="black" points="1065.27,-591.038 1074.43,-585.713 1063.95,-584.164 1065.27,-591.038"/>
</g>
<!-- ACCURACY -->
<g id="node23" class="node"><title>ACCURACY</title>
<ellipse fill="none" stroke="black" cx="725.84" cy="-409.103" rx="59.5901" ry="18"/>
<text text-anchor="middle" x="725.84" y="-405.403" font-family="Times,serif" font-size="14.00">ACCURACY</text>
</g>
<!-- n26 (0.62 &#45; 9)&#45;&gt;ACCURACY -->
<g id="edge22" class="edge"><title>n26 (0.62 &#45; 9)&#45;&gt;ACCURACY</title>
<path fill="none" stroke="black" d="M758.056,-556.614C751.8,-528.166 739.257,-471.12 731.802,-437.214"/>
<polygon fill="black" stroke="black" points="735.14,-436.099 729.574,-427.084 728.303,-437.602 735.14,-436.099"/>
</g>
<!-- RELATIVE_RISK\nLIFT\nYULE_Y\nODD_MULTIPLIER\nZHANG\nYULE_Q\nODDS_RATIO\nBAYES -->
<g id="node24" class="node"><title>RELATIVE_RISK\nLIFT\nYULE_Y\nODD_MULTIPLIER\nZHANG\nYULE_Q\nODDS_RATIO\nBAYES</title>
<ellipse fill="none" stroke="black" cx="898.84" cy="-409.103" rx="94.5053" ry="90.5193"/>
<text text-anchor="middle" x="898.84" y="-457.903" font-family="Times,serif" font-size="14.00">RELATIVE_RISK</text>
<text text-anchor="middle" x="898.84" y="-442.903" font-family="Times,serif" font-size="14.00">LIFT</text>
<text text-anchor="middle" x="898.84" y="-427.903" font-family="Times,serif" font-size="14.00">YULE_Y</text>
<text text-anchor="middle" x="898.84" y="-412.903" font-family="Times,serif" font-size="14.00">ODD_MULTIPLIER</text>
<text text-anchor="middle" x="898.84" y="-397.903" font-family="Times,serif" font-size="14.00">ZHANG</text>
<text text-anchor="middle" x="898.84" y="-382.903" font-family="Times,serif" font-size="14.00">YULE_Q</text>
<text text-anchor="middle" x="898.84" y="-367.903" font-family="Times,serif" font-size="14.00">ODDS_RATIO</text>
<text text-anchor="middle" x="898.84" y="-352.903" font-family="Times,serif" font-size="14.00">BAYES</text>
</g>
<!-- n26 (0.62 &#45; 9)&#45;&gt;RELATIVE_RISK\nLIFT\nYULE_Y\nODD_MULTIPLIER\nZHANG\nYULE_Q\nODDS_RATIO\nBAYES -->
<g id="edge23" class="edge"><title>n26 (0.62 &#45; 9)&#45;&gt;RELATIVE_RISK\nLIFT\nYULE_Y\nODD_MULTIPLIER\nZHANG\nYULE_Q\nODDS_RATIO\nBAYES</title>
<path fill="none" stroke="black" d="M775.73,-557.226C789.537,-540.726 811.744,-514.188 833.521,-488.163"/>
<polygon fill="black" stroke="black" points="836.215,-490.397 839.949,-480.481 830.847,-485.904 836.215,-490.397"/>
</g>
<!-- LEAST_CONTRADICTION -->
<g id="node26" class="node"><title>LEAST_CONTRADICTION</title>
<ellipse fill="none" stroke="black" cx="1125.84" cy="-409.103" rx="114.28" ry="18"/>
<text text-anchor="middle" x="1125.84" y="-405.403" font-family="Times,serif" font-size="14.00">LEAST_CONTRADICTION</text>
</g>
<!-- n29 (0.44 &#45; 11)&#45;&gt;LEAST_CONTRADICTION -->
<g id="edge25" class="edge"><title>n29 (0.44 &#45; 11)&#45;&gt;LEAST_CONTRADICTION</title>
<path fill="none" stroke="black" d="M1125.84,-556.614C1125.84,-528.314 1125.84,-471.714 1125.84,-437.745"/>
<polygon fill="black" stroke="black" points="1129.34,-437.576 1125.84,-427.577 1122.34,-437.577 1129.34,-437.576"/>
</g>
<!-- ONE_WAY_SUPPORT\nCONVICTION\nLOEVINGER\nSEBAG_SCHOENAUER\nCOUNTER_EXAMPLE_RATE\nCERTAINTY_FACTOR\nCENTERED_CONFIDENCE\nADDED_VALUE\nLEVERAGE\nCONFIDENCE -->
<g id="node27" class="node"><title>ONE_WAY_SUPPORT\nCONVICTION\nLOEVINGER\nSEBAG_SCHOENAUER\nCOUNTER_EXAMPLE_RATE\nCERTAINTY_FACTOR\nCENTERED_CONFIDENCE\nADDED_VALUE\nLEVERAGE\nCONFIDENCE</title>
<ellipse fill="none" stroke="black" cx="1395.84" cy="-409.103" rx="137.358" ry="111.946"/>
<text text-anchor="middle" x="1395.84" y="-472.903" font-family="Times,serif" font-size="14.00">ONE_WAY_SUPPORT</text>
<text text-anchor="middle" x="1395.84" y="-457.903" font-family="Times,serif" font-size="14.00">CONVICTION</text>
<text text-anchor="middle" x="1395.84" y="-442.903" font-family="Times,serif" font-size="14.00">LOEVINGER</text>
<text text-anchor="middle" x="1395.84" y="-427.903" font-family="Times,serif" font-size="14.00">SEBAG_SCHOENAUER</text>
<text text-anchor="middle" x="1395.84" y="-412.903" font-family="Times,serif" font-size="14.00">COUNTER_EXAMPLE_RATE</text>
<text text-anchor="middle" x="1395.84" y="-397.903" font-family="Times,serif" font-size="14.00">CERTAINTY_FACTOR</text>
<text text-anchor="middle" x="1395.84" y="-382.903" font-family="Times,serif" font-size="14.00">CENTERED_CONFIDENCE</text>
<text text-anchor="middle" x="1395.84" y="-367.903" font-family="Times,serif" font-size="14.00">ADDED_VALUE</text>
<text text-anchor="middle" x="1395.84" y="-352.903" font-family="Times,serif" font-size="14.00">LEVERAGE</text>
<text text-anchor="middle" x="1395.84" y="-337.903" font-family="Times,serif" font-size="14.00">CONFIDENCE</text>
</g>
<!-- n29 (0.44 &#45; 11)&#45;&gt;ONE_WAY_SUPPORT\nCONVICTION\nLOEVINGER\nSEBAG_SCHOENAUER\nCOUNTER_EXAMPLE_RATE\nCERTAINTY_FACTOR\nCENTERED_CONFIDENCE\nADDED_VALUE\nLEVERAGE\nCONFIDENCE -->
<g id="edge26" class="edge"><title>n29 (0.44 &#45; 11)&#45;&gt;ONE_WAY_SUPPORT\nCONVICTION\nLOEVINGER\nSEBAG_SCHOENAUER\nCOUNTER_EXAMPLE_RATE\nCERTAINTY_FACTOR\nCENTERED_CONFIDENCE\nADDED_VALUE\nLEVERAGE\nCONFIDENCE</title>
<path fill="none" stroke="black" d="M1163.83,-560.17C1188.73,-550.571 1221.6,-536.65 1248.84,-520.825 1262.68,-512.786 1276.74,-503.652 1290.39,-494.16"/>
<polygon fill="black" stroke="black" points="1292.68,-496.831 1298.83,-488.21 1288.64,-491.109 1292.68,-496.831"/>
</g>
</g>
</svg>
