<?xml version="1.0" encoding="UTF-8" standalone="no"?>
<!DOCTYPE svg PUBLIC "-//W3C//DTD SVG 1.1//EN"
 "http://www.w3.org/Graphics/SVG/1.1/DTD/svg11.dtd">
<!-- Generated by graphviz version 2.38.0 (20140413.2041)
 -->
<!-- Title: dendrogram Pages: 1 -->
<svg width="1434pt" height="707pt"
 viewBox="0.00 0.00 1433.67 706.89" xmlns="http://www.w3.org/2000/svg" xmlns:xlink="http://www.w3.org/1999/xlink">
<g id="graph0" class="graph" transform="scale(1 1) rotate(0) translate(4 702.891)">
<title>dendrogram</title>
<polygon fill="white" stroke="none" points="-4,4 -4,-702.891 1429.67,-702.891 1429.67,4 -4,4"/>
<!-- n34 (0.57 &#45; 36) -->
<g id="node1" class="node"><title>n34 (0.57 &#45; 36)</title>
<ellipse fill="none" stroke="black" cx="576.795" cy="-680.891" rx="64.189" ry="18"/>
<text text-anchor="middle" x="576.795" y="-677.191" font-family="Times,serif" font-size="14.00">n34 (0.57 &#45; 36)</text>
</g>
<!-- n32 (0.82 &#45; 6) -->
<g id="node2" class="node"><title>n32 (0.82 &#45; 6)</title>
<ellipse fill="none" stroke="black" cx="388.795" cy="-608.891" rx="59.5901" ry="18"/>
<text text-anchor="middle" x="388.795" y="-605.191" font-family="Times,serif" font-size="14.00">n32 (0.82 &#45; 6)</text>
</g>
<!-- n34 (0.57 &#45; 36)&#45;&gt;n32 (0.82 &#45; 6) -->
<g id="edge1" class="edge"><title>n34 (0.57 &#45; 36)&#45;&gt;n32 (0.82 &#45; 6)</title>
<path fill="none" stroke="black" d="M539.652,-666.062C509.492,-654.832 466.823,-638.945 434.557,-626.931"/>
<polygon fill="black" stroke="black" points="435.495,-623.545 424.902,-623.336 433.052,-630.105 435.495,-623.545"/>
</g>
<!-- n33 (0.80 &#45; 30) -->
<g id="node11" class="node"><title>n33 (0.80 &#45; 30)</title>
<ellipse fill="none" stroke="black" cx="765.795" cy="-608.891" rx="64.189" ry="18"/>
<text text-anchor="middle" x="765.795" y="-605.191" font-family="Times,serif" font-size="14.00">n33 (0.80 &#45; 30)</text>
</g>
<!-- n34 (0.57 &#45; 36)&#45;&gt;n33 (0.80 &#45; 30) -->
<g id="edge10" class="edge"><title>n34 (0.57 &#45; 36)&#45;&gt;n33 (0.80 &#45; 30)</title>
<path fill="none" stroke="black" d="M614.135,-666.062C644.163,-654.94 686.525,-639.251 718.848,-627.279"/>
<polygon fill="black" stroke="black" points="720.37,-630.448 728.532,-623.693 717.939,-623.884 720.37,-630.448"/>
</g>
<!-- n28 (0.89 &#45; 2) -->
<g id="node3" class="node"><title>n28 (0.89 &#45; 2)</title>
<ellipse fill="none" stroke="black" cx="200.795" cy="-536.891" rx="59.5901" ry="18"/>
<text text-anchor="middle" x="200.795" y="-533.191" font-family="Times,serif" font-size="14.00">n28 (0.89 &#45; 2)</text>
</g>
<!-- n32 (0.82 &#45; 6)&#45;&gt;n28 (0.89 &#45; 2) -->
<g id="edge2" class="edge"><title>n32 (0.82 &#45; 6)&#45;&gt;n28 (0.89 &#45; 2)</title>
<path fill="none" stroke="black" d="M352.546,-594.395C322.377,-583.161 279.249,-567.103 246.676,-554.975"/>
<polygon fill="black" stroke="black" points="247.524,-551.556 236.932,-551.347 245.082,-558.116 247.524,-551.556"/>
</g>
<!-- n31 (0.83 &#45; 4) -->
<g id="node6" class="node"><title>n31 (0.83 &#45; 4)</title>
<ellipse fill="none" stroke="black" cx="388.795" cy="-536.891" rx="59.5901" ry="18"/>
<text text-anchor="middle" x="388.795" y="-533.191" font-family="Times,serif" font-size="14.00">n31 (0.83 &#45; 4)</text>
</g>
<!-- n32 (0.82 &#45; 6)&#45;&gt;n31 (0.83 &#45; 4) -->
<g id="edge5" class="edge"><title>n32 (0.82 &#45; 6)&#45;&gt;n31 (0.83 &#45; 4)</title>
<path fill="none" stroke="black" d="M388.795,-590.588C388.795,-582.874 388.795,-573.604 388.795,-565.004"/>
<polygon fill="black" stroke="black" points="392.295,-564.996 388.795,-554.996 385.295,-564.996 392.295,-564.996"/>
</g>
<!-- ACCURACY -->
<g id="node4" class="node"><title>ACCURACY</title>
<ellipse fill="none" stroke="black" cx="59.7947" cy="-339.349" rx="59.5901" ry="18"/>
<text text-anchor="middle" x="59.7947" y="-335.649" font-family="Times,serif" font-size="14.00">ACCURACY</text>
</g>
<!-- n28 (0.89 &#45; 2)&#45;&gt;ACCURACY -->
<g id="edge3" class="edge"><title>n28 (0.89 &#45; 2)&#45;&gt;ACCURACY</title>
<path fill="none" stroke="black" d="M173.972,-520.628C159.214,-511.212 141.396,-498.05 128.795,-482.891 99.4241,-447.56 78.9965,-397.617 68.3515,-367.193"/>
<polygon fill="black" stroke="black" points="71.6481,-366.015 65.1177,-357.673 65.0201,-368.267 71.6481,-366.015"/>
</g>
<!-- SPECIFICITY -->
<g id="node5" class="node"><title>SPECIFICITY</title>
<ellipse fill="none" stroke="black" cx="200.795" cy="-339.349" rx="63.0888" ry="18"/>
<text text-anchor="middle" x="200.795" y="-335.649" font-family="Times,serif" font-size="14.00">SPECIFICITY</text>
</g>
<!-- n28 (0.89 &#45; 2)&#45;&gt;SPECIFICITY -->
<g id="edge4" class="edge"><title>n28 (0.89 &#45; 2)&#45;&gt;SPECIFICITY</title>
<path fill="none" stroke="black" d="M200.795,-518.88C200.795,-484.932 200.795,-408.527 200.795,-367.543"/>
<polygon fill="black" stroke="black" points="204.295,-367.46 200.795,-357.46 197.295,-367.46 204.295,-367.46"/>
</g>
<!-- KAPPA -->
<g id="node7" class="node"><title>KAPPA</title>
<ellipse fill="none" stroke="black" cx="321.795" cy="-339.349" rx="39.7935" ry="18"/>
<text text-anchor="middle" x="321.795" y="-335.649" font-family="Times,serif" font-size="14.00">KAPPA</text>
</g>
<!-- n31 (0.83 &#45; 4)&#45;&gt;KAPPA -->
<g id="edge6" class="edge"><title>n31 (0.83 &#45; 4)&#45;&gt;KAPPA</title>
<path fill="none" stroke="black" d="M382.549,-518.736C378.801,-508.374 373.967,-494.894 369.795,-482.891 355.822,-442.691 340.185,-395.901 330.666,-367.207"/>
<polygon fill="black" stroke="black" points="333.918,-365.892 327.451,-357.5 327.273,-368.093 333.918,-365.892"/>
</g>
<!-- n26 (0.90 &#45; 3) -->
<g id="node8" class="node"><title>n26 (0.90 &#45; 3)</title>
<ellipse fill="none" stroke="black" cx="438.795" cy="-339.349" rx="59.5901" ry="18"/>
<text text-anchor="middle" x="438.795" y="-335.649" font-family="Times,serif" font-size="14.00">n26 (0.90 &#45; 3)</text>
</g>
<!-- n31 (0.83 &#45; 4)&#45;&gt;n26 (0.90 &#45; 3) -->
<g id="edge7" class="edge"><title>n31 (0.83 &#45; 4)&#45;&gt;n26 (0.90 &#45; 3)</title>
<path fill="none" stroke="black" d="M393.144,-518.88C401.843,-484.86 421.445,-408.201 431.908,-367.282"/>
<polygon fill="black" stroke="black" points="435.333,-368.015 434.419,-357.46 428.551,-366.281 435.333,-368.015"/>
</g>
<!-- COLLECTIVE_STRENGH -->
<g id="node9" class="node"><title>COLLECTIVE_STRENGH</title>
<ellipse fill="none" stroke="black" cx="346.795" cy="-79.9031" rx="109.681" ry="18"/>
<text text-anchor="middle" x="346.795" y="-76.2031" font-family="Times,serif" font-size="14.00">COLLECTIVE_STRENGH</text>
</g>
<!-- n26 (0.90 &#45; 3)&#45;&gt;COLLECTIVE_STRENGH -->
<g id="edge8" class="edge"><title>n26 (0.90 &#45; 3)&#45;&gt;COLLECTIVE_STRENGH</title>
<path fill="none" stroke="black" d="M432.615,-321.057C416.903,-277.089 375.333,-160.762 356.414,-107.822"/>
<polygon fill="black" stroke="black" points="359.608,-106.358 352.947,-98.1193 353.016,-108.714 359.608,-106.358"/>
</g>
<!-- JACCARD\nRECALL -->
<g id="node10" class="node"><title>JACCARD\nRECALL</title>
<ellipse fill="none" stroke="black" cx="529.795" cy="-79.9031" rx="55.3091" ry="26.7407"/>
<text text-anchor="middle" x="529.795" y="-83.7031" font-family="Times,serif" font-size="14.00">JACCARD</text>
<text text-anchor="middle" x="529.795" y="-68.7031" font-family="Times,serif" font-size="14.00">RECALL</text>
</g>
<!-- n26 (0.90 &#45; 3)&#45;&gt;JACCARD\nRECALL -->
<g id="edge9" class="edge"><title>n26 (0.90 &#45; 3)&#45;&gt;JACCARD\nRECALL</title>
<path fill="none" stroke="black" d="M444.907,-321.057C459.681,-279.26 497.568,-172.075 517.349,-116.113"/>
<polygon fill="black" stroke="black" points="520.675,-117.206 520.707,-106.612 514.075,-114.874 520.675,-117.206"/>
</g>
<!-- n27 (0.89 &#45; 14) -->
<g id="node12" class="node"><title>n27 (0.89 &#45; 14)</title>
<ellipse fill="none" stroke="black" cx="765.795" cy="-536.891" rx="64.189" ry="18"/>
<text text-anchor="middle" x="765.795" y="-533.191" font-family="Times,serif" font-size="14.00">n27 (0.89 &#45; 14)</text>
</g>
<!-- n33 (0.80 &#45; 30)&#45;&gt;n27 (0.89 &#45; 14) -->
<g id="edge11" class="edge"><title>n33 (0.80 &#45; 30)&#45;&gt;n27 (0.89 &#45; 14)</title>
<path fill="none" stroke="black" d="M765.795,-590.588C765.795,-582.874 765.795,-573.604 765.795,-565.004"/>
<polygon fill="black" stroke="black" points="769.295,-564.996 765.795,-554.996 762.295,-564.996 769.295,-564.996"/>
</g>
<!-- n30 (0.83 &#45; 16) -->
<g id="node15" class="node"><title>n30 (0.83 &#45; 16)</title>
<ellipse fill="none" stroke="black" cx="1115.79" cy="-536.891" rx="64.189" ry="18"/>
<text text-anchor="middle" x="1115.79" y="-533.191" font-family="Times,serif" font-size="14.00">n30 (0.83 &#45; 16)</text>
</g>
<!-- n33 (0.80 &#45; 30)&#45;&gt;n30 (0.83 &#45; 16) -->
<g id="edge14" class="edge"><title>n33 (0.80 &#45; 30)&#45;&gt;n30 (0.83 &#45; 16)</title>
<path fill="none" stroke="black" d="M816.688,-597.713C879.895,-585.071 987.606,-563.529 1055.07,-550.037"/>
<polygon fill="black" stroke="black" points="1056.01,-553.419 1065.12,-548.026 1054.63,-546.555 1056.01,-553.419"/>
</g>
<!-- LEAST_CONTRADICTION -->
<g id="node13" class="node"><title>LEAST_CONTRADICTION</title>
<ellipse fill="none" stroke="black" cx="630.795" cy="-339.349" rx="114.28" ry="18"/>
<text text-anchor="middle" x="630.795" y="-335.649" font-family="Times,serif" font-size="14.00">LEAST_CONTRADICTION</text>
</g>
<!-- n27 (0.89 &#45; 14)&#45;&gt;LEAST_CONTRADICTION -->
<g id="edge12" class="edge"><title>n27 (0.89 &#45; 14)&#45;&gt;LEAST_CONTRADICTION</title>
<path fill="none" stroke="black" d="M754.05,-518.88C730.264,-484.427 676.286,-406.241 648.321,-365.735"/>
<polygon fill="black" stroke="black" points="651.17,-363.701 642.608,-357.46 645.409,-367.678 651.17,-363.701"/>
</g>
<!-- KLOSGEN\nGINI\nIMPLICATION_INDEX\nLEVERAGE\nCOUNTER_EXAMPLE_RATE\nSEBAG_SCHOENAUER\nCONFIDENCE\nONE_WAY_SUPPORT\nCENTERED_CONFIDENCE\nADDED_VALUE\nLOEVINGER\nCONVICTION\nCERTAINTY_FACTOR -->
<g id="node14" class="node"><title>KLOSGEN\nGINI\nIMPLICATION_INDEX\nLEVERAGE\nCOUNTER_EXAMPLE_RATE\nSEBAG_SCHOENAUER\nCONFIDENCE\nONE_WAY_SUPPORT\nCENTERED_CONFIDENCE\nADDED_VALUE\nLOEVINGER\nCONVICTION\nCERTAINTY_FACTOR</title>
<ellipse fill="none" stroke="black" cx="900.795" cy="-339.349" rx="137.358" ry="143.585"/>
<text text-anchor="middle" x="900.795" y="-425.649" font-family="Times,serif" font-size="14.00">KLOSGEN</text>
<text text-anchor="middle" x="900.795" y="-410.649" font-family="Times,serif" font-size="14.00">GINI</text>
<text text-anchor="middle" x="900.795" y="-395.649" font-family="Times,serif" font-size="14.00">IMPLICATION_INDEX</text>
<text text-anchor="middle" x="900.795" y="-380.649" font-family="Times,serif" font-size="14.00">LEVERAGE</text>
<text text-anchor="middle" x="900.795" y="-365.649" font-family="Times,serif" font-size="14.00">COUNTER_EXAMPLE_RATE</text>
<text text-anchor="middle" x="900.795" y="-350.649" font-family="Times,serif" font-size="14.00">SEBAG_SCHOENAUER</text>
<text text-anchor="middle" x="900.795" y="-335.649" font-family="Times,serif" font-size="14.00">CONFIDENCE</text>
<text text-anchor="middle" x="900.795" y="-320.649" font-family="Times,serif" font-size="14.00">ONE_WAY_SUPPORT</text>
<text text-anchor="middle" x="900.795" y="-305.649" font-family="Times,serif" font-size="14.00">CENTERED_CONFIDENCE</text>
<text text-anchor="middle" x="900.795" y="-290.649" font-family="Times,serif" font-size="14.00">ADDED_VALUE</text>
<text text-anchor="middle" x="900.795" y="-275.649" font-family="Times,serif" font-size="14.00">LOEVINGER</text>
<text text-anchor="middle" x="900.795" y="-260.649" font-family="Times,serif" font-size="14.00">CONVICTION</text>
<text text-anchor="middle" x="900.795" y="-245.649" font-family="Times,serif" font-size="14.00">CERTAINTY_FACTOR</text>
</g>
<!-- n27 (0.89 &#45; 14)&#45;&gt;KLOSGEN\nGINI\nIMPLICATION_INDEX\nLEVERAGE\nCOUNTER_EXAMPLE_RATE\nSEBAG_SCHOENAUER\nCONFIDENCE\nONE_WAY_SUPPORT\nCENTERED_CONFIDENCE\nADDED_VALUE\nLOEVINGER\nCONVICTION\nCERTAINTY_FACTOR -->
<g id="edge13" class="edge"><title>n27 (0.89 &#45; 14)&#45;&gt;KLOSGEN\nGINI\nIMPLICATION_INDEX\nLEVERAGE\nCOUNTER_EXAMPLE_RATE\nSEBAG_SCHOENAUER\nCONFIDENCE\nONE_WAY_SUPPORT\nCENTERED_CONFIDENCE\nADDED_VALUE\nLOEVINGER\nCONVICTION\nCERTAINTY_FACTOR</title>
<path fill="none" stroke="black" d="M777.539,-518.88C786.64,-505.698 800.162,-486.112 814.955,-464.685"/>
<polygon fill="black" stroke="black" points="817.879,-466.61 820.68,-456.392 812.118,-462.633 817.879,-466.61"/>
</g>
<!-- n29 (0.87 &#45; 8) -->
<g id="node16" class="node"><title>n29 (0.87 &#45; 8)</title>
<ellipse fill="none" stroke="black" cx="1115.79" cy="-339.349" rx="59.5901" ry="18"/>
<text text-anchor="middle" x="1115.79" y="-335.649" font-family="Times,serif" font-size="14.00">n29 (0.87 &#45; 8)</text>
</g>
<!-- n30 (0.83 &#45; 16)&#45;&gt;n29 (0.87 &#45; 8) -->
<g id="edge15" class="edge"><title>n30 (0.83 &#45; 16)&#45;&gt;n29 (0.87 &#45; 8)</title>
<path fill="none" stroke="black" d="M1115.79,-518.88C1115.79,-484.932 1115.79,-408.527 1115.79,-367.543"/>
<polygon fill="black" stroke="black" points="1119.29,-367.46 1115.79,-357.46 1112.29,-367.46 1119.29,-367.46"/>
</g>
<!-- RELATIVE_RISK\nLIFT\nODD_MULTIPLIER\nZHANG\nBAYES\nYULE_Y\nYULE_Q\nODDS_RATIO -->
<g id="node19" class="node"><title>RELATIVE_RISK\nLIFT\nODD_MULTIPLIER\nZHANG\nBAYES\nYULE_Y\nYULE_Q\nODDS_RATIO</title>
<ellipse fill="none" stroke="black" cx="1288.79" cy="-339.349" rx="94.5053" ry="90.5193"/>
<text text-anchor="middle" x="1288.79" y="-388.149" font-family="Times,serif" font-size="14.00">RELATIVE_RISK</text>
<text text-anchor="middle" x="1288.79" y="-373.149" font-family="Times,serif" font-size="14.00">LIFT</text>
<text text-anchor="middle" x="1288.79" y="-358.149" font-family="Times,serif" font-size="14.00">ODD_MULTIPLIER</text>
<text text-anchor="middle" x="1288.79" y="-343.149" font-family="Times,serif" font-size="14.00">ZHANG</text>
<text text-anchor="middle" x="1288.79" y="-328.149" font-family="Times,serif" font-size="14.00">BAYES</text>
<text text-anchor="middle" x="1288.79" y="-313.149" font-family="Times,serif" font-size="14.00">YULE_Y</text>
<text text-anchor="middle" x="1288.79" y="-298.149" font-family="Times,serif" font-size="14.00">YULE_Q</text>
<text text-anchor="middle" x="1288.79" y="-283.149" font-family="Times,serif" font-size="14.00">ODDS_RATIO</text>
</g>
<!-- n30 (0.83 &#45; 16)&#45;&gt;RELATIVE_RISK\nLIFT\nODD_MULTIPLIER\nZHANG\nBAYES\nYULE_Y\nYULE_Q\nODDS_RATIO -->
<g id="edge18" class="edge"><title>n30 (0.83 &#45; 16)&#45;&gt;RELATIVE_RISK\nLIFT\nODD_MULTIPLIER\nZHANG\nBAYES\nYULE_Y\nYULE_Q\nODDS_RATIO</title>
<path fill="none" stroke="black" d="M1139.84,-520C1153.77,-510.188 1171.19,-496.839 1184.79,-482.891 1201.9,-465.354 1218.47,-444.862 1233.17,-424.972"/>
<polygon fill="black" stroke="black" points="1236.07,-426.937 1239.14,-416.795 1230.42,-422.812 1236.07,-426.937"/>
</g>
<!-- PIATETSKY_SHAPIRO -->
<g id="node17" class="node"><title>PIATETSKY_SHAPIRO</title>
<ellipse fill="none" stroke="black" cx="972.795" cy="-79.9031" rx="100.983" ry="18"/>
<text text-anchor="middle" x="972.795" y="-76.2031" font-family="Times,serif" font-size="14.00">PIATETSKY_SHAPIRO</text>
</g>
<!-- n29 (0.87 &#45; 8)&#45;&gt;PIATETSKY_SHAPIRO -->
<g id="edge16" class="edge"><title>n29 (0.87 &#45; 8)&#45;&gt;PIATETSKY_SHAPIRO</title>
<path fill="none" stroke="black" d="M1108.37,-321.334C1096.37,-294.258 1071.56,-239.92 1046.79,-195.806 1029.06,-164.206 1006.15,-129.414 990.547,-106.486"/>
<polygon fill="black" stroke="black" points="993.287,-104.293 984.751,-98.018 987.511,-108.247 993.287,-104.293"/>
</g>
<!-- COSINE\nTWO_WAY_SUPPORT\nCHI_SQUARE\nPHI\nJ_MEASURE\nFISHER_PVAL\nTWO_WAY_SUPPORT_VARIATION -->
<g id="node18" class="node"><title>COSINE\nTWO_WAY_SUPPORT\nCHI_SQUARE\nPHI\nJ_MEASURE\nFISHER_PVAL\nTWO_WAY_SUPPORT_VARIATION</title>
<ellipse fill="none" stroke="black" cx="1258.79" cy="-79.9031" rx="166.754" ry="79.8063"/>
<text text-anchor="middle" x="1258.79" y="-121.203" font-family="Times,serif" font-size="14.00">COSINE</text>
<text text-anchor="middle" x="1258.79" y="-106.203" font-family="Times,serif" font-size="14.00">TWO_WAY_SUPPORT</text>
<text text-anchor="middle" x="1258.79" y="-91.2031" font-family="Times,serif" font-size="14.00">CHI_SQUARE</text>
<text text-anchor="middle" x="1258.79" y="-76.2031" font-family="Times,serif" font-size="14.00">PHI</text>
<text text-anchor="middle" x="1258.79" y="-61.2031" font-family="Times,serif" font-size="14.00">J_MEASURE</text>
<text text-anchor="middle" x="1258.79" y="-46.2031" font-family="Times,serif" font-size="14.00">FISHER_PVAL</text>
<text text-anchor="middle" x="1258.79" y="-31.2031" font-family="Times,serif" font-size="14.00">TWO_WAY_SUPPORT_VARIATION</text>
</g>
<!-- n29 (0.87 &#45; 8)&#45;&gt;COSINE\nTWO_WAY_SUPPORT\nCHI_SQUARE\nPHI\nJ_MEASURE\nFISHER_PVAL\nTWO_WAY_SUPPORT_VARIATION -->
<g id="edge17" class="edge"><title>n29 (0.87 &#45; 8)&#45;&gt;COSINE\nTWO_WAY_SUPPORT\nCHI_SQUARE\nPHI\nJ_MEASURE\nFISHER_PVAL\nTWO_WAY_SUPPORT_VARIATION</title>
<path fill="none" stroke="black" d="M1123.22,-321.334C1135.22,-294.258 1160.03,-239.92 1184.79,-195.806 1190.51,-185.622 1196.76,-175.107 1203.14,-164.765"/>
<polygon fill="black" stroke="black" points="1206.2,-166.468 1208.51,-156.128 1200.26,-162.771 1206.2,-166.468"/>
</g>
</g>
</svg>
