<?xml version="1.0" encoding="UTF-8" standalone="no"?>
<!-- Generated by graphviz version 2.38.0 (20140413.2041)
 -->

<!-- Title: dendrogram Pages: 1 -->

<svg
   xmlns:dc="http://purl.org/dc/elements/1.1/"
   xmlns:cc="http://creativecommons.org/ns#"
   xmlns:rdf="http://www.w3.org/1999/02/22-rdf-syntax-ns#"
   xmlns:svg="http://www.w3.org/2000/svg"
   xmlns="http://www.w3.org/2000/svg"
   xmlns:sodipodi="http://sodipodi.sourceforge.net/DTD/sodipodi-0.dtd"
   xmlns:inkscape="http://www.inkscape.org/namespaces/inkscape"
   width="1076pt"
   height="992pt"
   viewBox="0.00 0.00 1075.72 992.44"
   id="svg28504"
   version="1.1"
   inkscape:version="0.48.5 r10040"
   sodipodi:docname="patterns_prods_per_ticket-perTarget-KENDAL.svg">
  <metadata
     id="metadata28826">
    <rdf:RDF>
      <cc:Work
         rdf:about="">
        <dc:format>image/svg+xml</dc:format>
        <dc:type
           rdf:resource="http://purl.org/dc/dcmitype/StillImage" />
      </cc:Work>
    </rdf:RDF>
  </metadata>
  <defs
     id="defs28824" />
  <sodipodi:namedview
     pagecolor="#ffffff"
     bordercolor="#666666"
     borderopacity="1"
     objecttolerance="10"
     gridtolerance="10"
     guidetolerance="10"
     inkscape:pageopacity="0"
     inkscape:pageshadow="2"
     inkscape:window-width="1920"
     inkscape:window-height="1052"
     id="namedview28822"
     showgrid="false"
     inkscape:zoom="0.47155005"
     inkscape:cx="633.60062"
     inkscape:cy="795.5809"
     inkscape:window-x="0"
     inkscape:window-y="0"
     inkscape:window-maximized="1"
     inkscape:current-layer="svg28504" />
  <g
     class="node"
     id="node1"
     transform="translate(4,988.438)">
    <title
       id="title28512">n34 (0.01 - 36)</title>
    <ellipse
       style="fill:none;stroke:#000000"
       sodipodi:ry="18"
       sodipodi:rx="64.189003"
       sodipodi:cy="-966.43799"
       sodipodi:cx="398.84"
       d="m 463.029,-966.43799 c 0,9.94113 -28.7384,18 -64.189,18 -35.45061,0 -64.18901,-8.05887 -64.18901,-18 0,-9.94112 28.7384,-18 64.18901,-18 35.4506,0 64.189,8.05888 64.189,18 z"
       id="ellipse28514"
       ry="18"
       rx="64.189003"
       cy="-966.43799"
       cx="398.84" />
    <text
       style="font-size:14px;text-anchor:middle;font-family:'Times,serif'"
       id="text28516"
       font-size="14.00"
       y="-962.73798"
       x="398.84">n34 (0.01 - 36)</text>
  </g>
  <g
     class="node"
     id="node2"
     transform="translate(100.01294,1152.8602)">
    <title
       id="title28519">n32 (0.43 - 3)</title>
    <ellipse
       style="fill:none;stroke:#000000"
       sodipodi:ry="18"
       sodipodi:rx="59.590099"
       sodipodi:cy="-894.43799"
       sodipodi:cx="297.84"
       d="m 357.4301,-894.43799 c 0,9.94113 -26.6794,18 -59.5901,18 -32.91071,0 -59.5901,-8.05887 -59.5901,-18 0,-9.94112 26.67939,-18 59.5901,-18 32.9107,0 59.5901,8.05888 59.5901,18 z"
       id="ellipse28521"
       ry="18"
       rx="59.590099"
       cy="-894.43799"
       cx="297.84" />
    <text
       style="font-size:14px;text-anchor:middle;font-family:'Times,serif'"
       id="text28523"
       font-size="14.00"
       y="-890.73798"
       x="297.84">n32 (0.43 - 3)</text>
  </g>
  <path
     d="M 379.922,38.884 C 326.49866,62.862941 294.9058,155.0037 353.00667,242.88613"
     id="path28528"
     inkscape:connector-curvature="0"
     style="fill:none;stroke:#000000"
     sodipodi:nodetypes="cc" />
  <polygon
     points="330.881,-914.079 330.881,-914.079 320.668,-911.259 326.893,-919.832 "
     id="polygon28530"
     style="fill:#000000;stroke:#000000"
     transform="matrix(0.03069563,-0.99952878,0.99952878,0.03069563,1254.7289,592.6516)" />
  <g
     class="node"
     id="node7"
     transform="translate(4,988.438)">
    <title
       id="title28533">n33 (0.34 - 33)</title>
    <ellipse
       style="fill:none;stroke:#000000"
       sodipodi:ry="18"
       sodipodi:rx="64.189003"
       sodipodi:cy="-894.43799"
       sodipodi:cx="499.84"
       d="m 564.029,-894.43799 c 0,9.94113 -28.7384,18 -64.189,18 -35.45061,0 -64.18901,-8.05887 -64.18901,-18 0,-9.94112 28.7384,-18 64.18901,-18 35.4506,0 64.189,8.05888 64.189,18 z"
       id="ellipse28535"
       ry="18"
       rx="64.189003"
       cy="-894.43799"
       cx="499.84" />
    <text
       style="font-size:14px;text-anchor:middle;font-family:'Times,serif'"
       id="text28537"
       font-size="14.00"
       y="-890.73798"
       x="499.84">n33 (0.34 - 33)</text>
  </g>
  <g
     class="edge"
     id="edge6"
     transform="translate(4,988.438)">
    <title
       id="title28540">n34 (0.01 - 36)-&gt;n33 (0.34 - 33)</title>
    <path
       style="fill:none;stroke:#000000"
       inkscape:connector-curvature="0"
       id="path28542"
       d="m 421.759,-949.554 c 13.72,9.509 31.358,21.734 46.398,32.158" />
    <polygon
       style="fill:#000000;stroke:#000000"
       id="polygon28544"
       points="466.45,-914.321 470.438,-920.074 470.438,-920.074 476.663,-911.501 " />
  </g>
  <ellipse
     cx="109.84"
     cy="-813.56799"
     rx="109.681"
     ry="18"
     id="ellipse28549"
     d="m 219.521,-813.56799 c 0,9.94112 -49.10586,18 -109.681,18 -60.575147,0 -109.68100342,-8.05888 -109.68100342,-18 0,-9.94113 49.10585642,-18 109.68100342,-18 60.57514,0 109.681,8.05887 109.681,18 z"
     sodipodi:cx="109.84"
     sodipodi:cy="-813.56799"
     sodipodi:rx="109.681"
     sodipodi:ry="18"
     style="fill:#aaaaff;stroke:#000000"
     transform="translate(160.02103,1202.0668)" />
  <text
     x="269.86102"
     y="392.19882"
     font-size="14.00"
     id="text28551"
     style="font-size:14px;text-anchor:middle;font-family:'Times,serif'">COLLECTIVE_STRENGH</text>
  <path
     d="m 364.24294,273.5232 c -29.704,12.461 -51.71762,62.38693 -62.54559,96.09487"
     id="path28556"
     inkscape:connector-curvature="0"
     style="fill:none;stroke:#000000"
     sodipodi:nodetypes="cc" />
  <polygon
     points="155.881,-837.679 158.589,-831.224 158.589,-831.224 148.014,-830.582 "
     id="polygon28558"
     style="fill:#000000;stroke:#000000"
     transform="matrix(0.65590776,-0.75484105,0.75484105,0.65590776,831.7259,1027.2795)" />
  <g
     class="node"
     id="node4"
     transform="translate(100.01294,1152.8602)">
    <title
       id="title28561">n29 (0.79 - 2)</title>
    <ellipse
       style="fill:none;stroke:#000000"
       sodipodi:ry="18"
       sodipodi:rx="59.590099"
       sodipodi:cy="-813.56799"
       sodipodi:cx="297.84"
       d="m 357.4301,-813.56799 c 0,9.94112 -26.6794,18 -59.5901,18 -32.91071,0 -59.5901,-8.05888 -59.5901,-18 0,-9.94113 26.67939,-18 59.5901,-18 32.9107,0 59.5901,8.05887 59.5901,18 z"
       id="ellipse28563"
       ry="18"
       rx="59.590099"
       cy="-813.56799"
       cx="297.84" />
    <text
       style="font-size:14px;text-anchor:middle;font-family:'Times,serif'"
       id="text28565"
       font-size="14.00"
       y="-809.86798"
       x="297.84">n29 (0.79 - 2)</text>
  </g>
  <g
     class="edge"
     id="edge3"
     transform="translate(100.01294,1152.8602)">
    <title
       id="title28568">n32 (0.43 - 3)-&gt;n29 (0.79 - 2)</title>
    <path
       style="fill:none;stroke:#000000"
       inkscape:connector-curvature="0"
       id="path28570"
       d="m 297.84,-876.324 c 0,10.025 0,22.92 0,34.332" />
    <polygon
       style="fill:#000000;stroke:#000000"
       id="polygon28572"
       points="301.34,-841.648 301.34,-841.648 297.84,-831.648 294.34,-841.648 " />
  </g>
  <ellipse
     cx="240.84"
     cy="-554.12201"
     rx="50.8918"
     ry="18"
     id="ellipse28577"
     d="m 291.7318,-554.12201 c 0,9.94113 -22.78504,18 -50.8918,18 -28.10677,0 -50.8918,-8.05887 -50.8918,-18 0,-9.94112 22.78503,-18 50.8918,-18 28.10676,0 50.8918,8.05888 50.8918,18 z"
     sodipodi:cx="240.84"
     sodipodi:cy="-554.12201"
     sodipodi:rx="50.8918"
     sodipodi:ry="18"
     style="fill:#aaffaa;stroke:#000000"
     transform="translate(100.01294,1152.8602)" />
  <text
     x="340.85294"
     y="602.43823"
     font-size="14.00"
     id="text28579"
     style="font-size:14px;text-anchor:middle;font-family:'Times,serif'">JACCARD</text>
  <g
     class="edge"
     id="edge4"
     transform="translate(100.01294,1152.8602)">
    <title
       id="title28582">n29 (0.79 - 2)-&gt;JACCARD</title>
    <path
       style="fill:none;stroke:#000000"
       inkscape:connector-curvature="0"
       id="path28584"
       d="m 294.012,-795.276 c -9.715,43.877 -35.383,159.81 -47.138,212.903" />
    <polygon
       style="fill:#000000;stroke:#000000"
       id="polygon28586"
       points="250.231,-581.345 250.231,-581.345 244.652,-572.338 243.397,-582.858 " />
  </g>
  <ellipse
     cx="354.84"
     cy="-554.12201"
     rx="44.6926"
     ry="18"
     id="ellipse28591"
     d="m 399.5326,-554.12201 c 0,9.94113 -20.00956,18 -44.6926,18 -24.68305,0 -44.6926,-8.05887 -44.6926,-18 0,-9.94112 20.00955,-18 44.6926,-18 24.68304,0 44.6926,8.05888 44.6926,18 z"
     sodipodi:cx="354.84"
     sodipodi:cy="-554.12201"
     sodipodi:rx="44.6926"
     sodipodi:ry="18"
     style="fill:#aaaaff;stroke:#000000"
     transform="translate(100.01294,1152.8602)" />
  <text
     x="454.85294"
     y="602.43823"
     font-size="14.00"
     id="text28593"
     style="font-size:14px;text-anchor:middle;font-family:'Times,serif'">RECALL</text>
  <g
     class="edge"
     id="edge5"
     transform="translate(100.01294,1152.8602)">
    <title
       id="title28596">n29 (0.79 - 2)-&gt;RECALL</title>
    <path
       style="fill:none;stroke:#000000"
       inkscape:connector-curvature="0"
       id="path28598"
       d="m 301.669,-795.276 c 9.714,43.877 35.383,159.81 47.138,212.903" />
    <polygon
       style="fill:#000000;stroke:#000000"
       id="polygon28600"
       points="352.284,-582.858 352.284,-582.858 351.028,-572.338 345.449,-581.345 " />
  </g>
  <ellipse
     cx="499.84"
     cy="-813.56799"
     rx="124.402"
     ry="26.7407"
     id="ellipse28605"
     d="m 624.242,-813.56799 c 0,14.76848 -55.69668,26.7407 -124.402,26.7407 -68.70533,0 -124.402,-11.97222 -124.402,-26.7407 0,-14.76848 55.69667,-26.7407 124.402,-26.7407 68.70532,0 124.402,11.97222 124.402,26.7407 z"
     sodipodi:cx="499.84"
     sodipodi:cy="-813.56799"
     sodipodi:rx="124.402"
     sodipodi:ry="26.7407"
     style="fill:#ffaaaa;stroke:#000000"
     transform="translate(4,988.438)" />
  <text
     x="503.84"
     y="171.07002"
     font-size="14.00"
     id="text28607"
     style="font-size:14px;text-anchor:middle;font-family:'Times,serif'">LEAST_CONTRADICTION</text>
  <text
     x="503.84"
     y="186.07002"
     font-size="14.00"
     id="text28609"
     style="font-size:14px;text-anchor:middle;font-family:'Times,serif'">ACCURACY</text>
  <g
     class="edge"
     id="edge7"
     transform="translate(4,988.438)">
    <title
       id="title28612">n33 (0.34 - 33)-&gt;LEAST_CONTRADICTION\nACCURACY</title>
    <path
       style="fill:none;stroke:#000000"
       inkscape:connector-curvature="0"
       id="path28614"
       d="m 499.84,-876.324 c 0,7.489 0,16.581 0,25.458" />
    <polygon
       style="fill:#000000;stroke:#000000"
       id="polygon28616"
       points="496.34,-850.651 503.34,-850.651 503.34,-850.651 499.84,-840.651 " />
  </g>
  <g
     class="node"
     id="node9"
     transform="translate(4,988.438)">
    <title
       id="title28619">n31 (0.59 - 31)</title>
    <ellipse
       style="fill:none;stroke:#000000"
       sodipodi:ry="18"
       sodipodi:rx="64.189003"
       sodipodi:cy="-813.56799"
       sodipodi:cx="706.84003"
       d="m 771.02903,-813.56799 c 0,9.94112 -28.7384,18 -64.189,18 -35.45061,0 -64.18901,-8.05888 -64.18901,-18 0,-9.94113 28.7384,-18 64.18901,-18 35.4506,0 64.189,8.05887 64.189,18 z"
       id="ellipse28621"
       ry="18"
       rx="64.189003"
       cy="-813.56799"
       cx="706.84003" />
    <text
       style="font-size:14px;text-anchor:middle;font-family:'Times,serif'"
       id="text28623"
       font-size="14.00"
       y="-809.86798"
       x="706.84003">n31 (0.59 - 31)</text>
  </g>
  <g
     class="edge"
     id="edge8"
     transform="translate(4,988.438)">
    <title
       id="title28626">n33 (0.34 - 33)-&gt;n31 (0.59 - 31)</title>
    <path
       style="fill:none;stroke:#000000"
       inkscape:connector-curvature="0"
       id="path28628"
       d="m 536.371,-879.519 c 34.627,13.193 86.78,33.065 124.278,47.352" />
    <polygon
       style="fill:#000000;stroke:#000000"
       id="polygon28630"
       points="659.736,-828.77 662.228,-835.311 662.228,-835.311 670.327,-828.48 " />
  </g>
  <g
     class="node"
     id="node10"
     transform="translate(4,988.438)">
    <title
       id="title28633">n30 (0.75 - 13)</title>
    <ellipse
       style="fill:none;stroke:#000000"
       sodipodi:ry="18"
       sodipodi:rx="64.189003"
       sodipodi:cy="-554.12201"
       sodipodi:cx="596.84003"
       d="m 661.02903,-554.12201 c 0,9.94113 -28.7384,18 -64.189,18 -35.45061,0 -64.18901,-8.05887 -64.18901,-18 0,-9.94112 28.7384,-18 64.18901,-18 35.4506,0 64.189,8.05888 64.189,18 z"
       id="ellipse28635"
       ry="18"
       rx="64.189003"
       cy="-554.12201"
       cx="596.84003" />
    <text
       style="font-size:14px;text-anchor:middle;font-family:'Times,serif'"
       id="text28637"
       font-size="14.00"
       y="-550.422"
       x="596.84003">n30 (0.75 - 13)</text>
  </g>
  <g
     class="edge"
     id="edge9"
     transform="translate(4,988.438)">
    <title
       id="title28640">n31 (0.59 - 31)-&gt;n30 (0.75 - 13)</title>
    <path
       style="fill:none;stroke:#000000"
       inkscape:connector-curvature="0"
       id="path28642"
       d="m 695.971,-795.646 c -7.586,12.209 -17.652,29.24 -25.131,44.948 -27.816,58.424 -52.771,130.302 -65.364,168.577" />
    <polygon
       style="fill:#000000;stroke:#000000"
       id="polygon28644"
       points="602.031,-582.848 608.687,-580.678 608.687,-580.678 602.259,-572.256 " />
  </g>
  <ellipse
     cx="816.84003"
     cy="-554.12201"
     rx="137.358"
     ry="196.651"
     id="ellipse28649"
     d="m 954.19803,-554.12201 c 0,108.60735 -61.49727,196.651 -137.358,196.651 -75.86073,0 -137.358,-88.04365 -137.358,-196.651 0,-108.60735 61.49727,-196.651 137.358,-196.651 75.86073,0 137.358,88.04365 137.358,196.651 z"
     sodipodi:cx="816.84003"
     sodipodi:cy="-554.12201"
     sodipodi:rx="137.358"
     sodipodi:ry="196.651"
     style="fill:#ffffaa;stroke:#000000"
     transform="translate(4,988.438)" />
  <text
     x="820.84003"
     y="310.51599"
     font-size="14.00"
     id="text28651"
     style="font-size:14px;text-anchor:middle;font-family:'Times,serif'">RELATIVE_RISK</text>
  <text
     x="820.84003"
     y="325.51599"
     font-size="14.00"
     id="text28653"
     style="font-size:14px;text-anchor:middle;font-family:'Times,serif'">YULE_Y</text>
  <text
     x="820.84003"
     y="340.51599"
     font-size="14.00"
     id="text28655"
     style="font-size:14px;text-anchor:middle;font-family:'Times,serif'">YULE_Q</text>
  <text
     x="820.84003"
     y="355.51599"
     font-size="14.00"
     id="text28657"
     style="font-size:14px;text-anchor:middle;font-family:'Times,serif'">ODDS_RATIO</text>
  <text
     x="820.84003"
     y="370.51599"
     font-size="14.00"
     id="text28659"
     style="font-size:14px;text-anchor:middle;font-family:'Times,serif'">LEVERAGE</text>
  <text
     x="820.84003"
     y="385.51599"
     font-size="14.00"
     id="text28661"
     style="font-size:14px;text-anchor:middle;font-family:'Times,serif'">ONE_WAY_SUPPORT</text>
  <text
     x="820.84003"
     y="400.51599"
     font-size="14.00"
     id="text28663"
     style="font-size:14px;text-anchor:middle;font-family:'Times,serif'">ODD_MULTIPLIER</text>
  <text
     x="820.84003"
     y="415.51599"
     font-size="14.00"
     id="text28665"
     style="font-size:14px;text-anchor:middle;font-family:'Times,serif'">LOEVINGER</text>
  <text
     x="820.84003"
     y="430.51599"
     font-size="14.00"
     id="text28667"
     style="font-size:14px;text-anchor:middle;font-family:'Times,serif'">SEBAG_SCHOENAUER</text>
  <text
     x="820.84003"
     y="445.51599"
     font-size="14.00"
     id="text28669"
     style="font-size:14px;text-anchor:middle;font-family:'Times,serif'">CONVICTION</text>
  <text
     x="820.84003"
     y="460.51599"
     font-size="14.00"
     id="text28671"
     style="font-size:14px;text-anchor:middle;font-family:'Times,serif'">COUNTER_EXAMPLE_RATE</text>
  <text
     x="820.84003"
     y="475.51599"
     font-size="14.00"
     id="text28673"
     style="font-size:14px;text-anchor:middle;font-family:'Times,serif'">ZHANG</text>
  <text
     x="820.84003"
     y="490.51599"
     font-size="14.00"
     id="text28675"
     style="font-size:14px;text-anchor:middle;font-family:'Times,serif'">BAYES</text>
  <text
     x="820.84003"
     y="505.51599"
     font-size="14.00"
     id="text28677"
     style="font-size:14px;text-anchor:middle;font-family:'Times,serif'">CENTERED_CONFIDENCE</text>
  <text
     x="820.84003"
     y="520.51599"
     font-size="14.00"
     id="text28679"
     style="font-size:14px;text-anchor:middle;font-family:'Times,serif'">CERTAINTY_FACTOR</text>
  <text
     x="820.84003"
     y="535.51599"
     font-size="14.00"
     id="text28681"
     style="font-size:14px;text-anchor:middle;font-family:'Times,serif'">ADDED_VALUE</text>
  <text
     x="820.84003"
     y="550.51599"
     font-size="14.00"
     id="text28683"
     style="font-size:14px;text-anchor:middle;font-family:'Times,serif'">LIFT</text>
  <text
     x="820.84003"
     y="565.51599"
     font-size="14.00"
     id="text28685"
     style="font-size:14px;text-anchor:middle;font-family:'Times,serif'">CONFIDENCE</text>
  <g
     class="edge"
     id="edge18"
     transform="translate(4,988.438)">
    <title
       id="title28688">n31 (0.59 - 31)-&gt;RELATIVE_RISK\nYULE_Y\nYULE_Q\nODDS_RATIO\nLEVERAGE\nONE_WAY_SUPPORT\nODD_MULTIPLIER\nLOEVINGER\nSEBAG_SCHOENAUER\nCONVICTION\nCOUNTER_EXAMPLE_RATE\nZHANG\nBAYES\nCENTERED_CONFIDENCE\nCERTAINTY_FACTOR\nADDED_VALUE\nLIFT\nCONFIDENCE</title>
    <path
       style="fill:none;stroke:#000000"
       inkscape:connector-curvature="0"
       id="path28690"
       d="m 714.058,-795.676 c 6.306,14.76 16.188,37.888 27.384,64.09" />
    <polygon
       style="fill:#000000;stroke:#000000"
       id="polygon28692"
       points="738.305,-730.018 744.742,-732.769 744.742,-732.769 745.453,-722.198 " />
  </g>
  <g
     class="node"
     id="node11"
     transform="translate(4,988.438)">
    <title
       id="title28695">n28 (0.83 - 5)</title>
    <ellipse
       style="fill:none;stroke:#000000"
       sodipodi:ry="18"
       sodipodi:rx="59.590099"
       sodipodi:cy="-303.54599"
       sodipodi:cx="527.84003"
       d="m 587.43013,-303.54599 c 0,9.94113 -26.6794,18 -59.5901,18 -32.91071,0 -59.5901,-8.05887 -59.5901,-18 0,-9.94113 26.67939,-18 59.5901,-18 32.9107,0 59.5901,8.05887 59.5901,18 z"
       id="ellipse28697"
       ry="18"
       rx="59.590099"
       cy="-303.54599"
       cx="527.84003" />
    <text
       style="font-size:14px;text-anchor:middle;font-family:'Times,serif'"
       id="text28699"
       font-size="14.00"
       y="-299.84601"
       x="527.84003">n28 (0.83 - 5)</text>
  </g>
  <g
     class="edge"
     id="edge10"
     transform="translate(4,988.438)">
    <title
       id="title28702">n30 (0.75 - 13)-&gt;n28 (0.83 - 5)</title>
    <path
       style="fill:none;stroke:#000000"
       inkscape:connector-curvature="0"
       id="path28704"
       d="m 592.098,-536.036 c -11.793,42.484 -42.516,153.163 -56.78,204.55" />
    <polygon
       style="fill:#000000;stroke:#000000"
       id="polygon28706"
       points="531.918,-332.323 538.663,-330.451 538.663,-330.451 532.616,-321.751 " />
  </g>
  <g
     class="node"
     id="node16"
     transform="translate(4,988.438)">
    <title
       id="title28709">n26 (0.89 - 8)</title>
    <ellipse
       style="fill:none;stroke:#000000"
       sodipodi:ry="18"
       sodipodi:rx="59.590099"
       sodipodi:cy="-303.54599"
       sodipodi:cx="665.84003"
       d="m 725.43013,-303.54599 c 0,9.94113 -26.6794,18 -59.5901,18 -32.91071,0 -59.5901,-8.05887 -59.5901,-18 0,-9.94113 26.67939,-18 59.5901,-18 32.9107,0 59.5901,8.05887 59.5901,18 z"
       id="ellipse28711"
       ry="18"
       rx="59.590099"
       cy="-303.54599"
       cx="665.84003" />
    <text
       style="font-size:14px;text-anchor:middle;font-family:'Times,serif'"
       id="text28713"
       font-size="14.00"
       y="-299.84601"
       x="665.84003">n26 (0.89 - 8)</text>
  </g>
  <g
     class="edge"
     id="edge15"
     transform="translate(4,988.438)">
    <title
       id="title28716">n30 (0.75 - 13)-&gt;n26 (0.89 - 8)</title>
    <path
       style="fill:none;stroke:#000000"
       inkscape:connector-curvature="0"
       id="path28718"
       d="m 601.583,-536.036 c 11.793,42.484 42.515,153.163 56.779,204.55" />
    <polygon
       style="fill:#000000;stroke:#000000"
       id="polygon28720"
       points="655.017,-330.451 661.762,-332.323 661.762,-332.323 661.064,-321.751 " />
  </g>
  <ellipse
     cx="342.84"
     cy="-169.64301"
     rx="109.703"
     ry="26.7407"
     id="ellipse28725"
     d="m 452.543,-169.64301 c 0,14.76849 -49.11571,26.7407 -109.703,26.7407 -60.5873,0 -109.70301,-11.97221 -109.70301,-26.7407 0,-14.76848 49.11571,-26.7407 109.70301,-26.7407 60.58729,0 109.703,11.97222 109.703,26.7407 z"
     sodipodi:cx="342.84"
     sodipodi:cy="-169.64301"
     sodipodi:rx="109.703"
     sodipodi:ry="26.7407"
     style="fill:#d5d5d5;stroke:#000000"
     transform="translate(4,988.438)" />
  <text
     x="346.84"
     y="814.995"
     font-size="14.00"
     id="text28727"
     style="font-size:14px;text-anchor:middle;font-family:'Times,serif'">PIATETSKY_SHAPIRO</text>
  <text
     x="346.84"
     y="829.995"
     font-size="14.00"
     id="text28729"
     style="font-size:14px;text-anchor:middle;font-family:'Times,serif'">SPECIFICITY</text>
  <g
     class="edge"
     id="edge11"
     transform="translate(4,988.438)">
    <title
       id="title28732">n28 (0.83 - 5)-&gt;PIATETSKY_SHAPIRO\nSPECIFICITY</title>
    <path
       style="fill:none;stroke:#000000"
       inkscape:connector-curvature="0"
       id="path28734"
       d="m 505.525,-286.636 c -29.573,21.086 -82.365,58.726 -119.783,85.404" />
    <polygon
       style="fill:#000000;stroke:#000000"
       id="polygon28736"
       points="383.643,-204.034 387.707,-198.334 387.707,-198.334 377.533,-195.379 " />
  </g>
  <g
     class="node"
     id="node13"
     transform="translate(4,988.438)">
    <title
       id="title28739">n27 (0.84 - 3)</title>
    <ellipse
       style="fill:none;stroke:#000000"
       sodipodi:ry="18"
       sodipodi:rx="59.590099"
       sodipodi:cy="-169.64301"
       sodipodi:cx="529.84003"
       d="m 589.43013,-169.64301 c 0,9.94113 -26.6794,18 -59.5901,18 -32.91071,0 -59.5901,-8.05887 -59.5901,-18 0,-9.94112 26.67939,-18 59.5901,-18 32.9107,0 59.5901,8.05888 59.5901,18 z"
       id="ellipse28741"
       ry="18"
       rx="59.590099"
       cy="-169.64301"
       cx="529.84003" />
    <text
       style="font-size:14px;text-anchor:middle;font-family:'Times,serif'"
       id="text28743"
       font-size="14.00"
       y="-165.94299"
       x="529.84003">n27 (0.84 - 3)</text>
  </g>
  <g
     class="edge"
     id="edge12"
     transform="translate(4,988.438)">
    <title
       id="title28746">n28 (0.83 - 5)-&gt;n27 (0.84 - 3)</title>
    <path
       style="fill:none;stroke:#000000"
       inkscape:connector-curvature="0"
       id="path28748"
       d="m 528.102,-285.302 c 0.337,22.218 0.926,61.099 1.324,87.354" />
    <polygon
       style="fill:#000000;stroke:#000000"
       id="polygon28750"
       points="525.927,-197.837 532.927,-197.943 532.927,-197.943 529.579,-187.891 " />
  </g>
  <ellipse
     cx="445.84"
     cy="-26.8701"
     rx="39.793499"
     ry="18"
     id="ellipse28755"
     d="m 485.6335,-26.8701 c 0,9.941125 -17.81616,18 -39.7935,18 -21.97735,0 -39.7935,-8.058875 -39.7935,-18 0,-9.941126 17.81615,-18 39.7935,-18 21.97734,0 39.7935,8.058874 39.7935,18 z"
     sodipodi:cx="445.84"
     sodipodi:cy="-26.8701"
     sodipodi:rx="39.793499"
     sodipodi:ry="18"
     style="fill:#aaffaa;stroke:#000000"
     transform="translate(4,988.438)" />
  <text
     x="449.84"
     y="965.26788"
     font-size="14.00"
     id="text28757"
     style="font-size:14px;text-anchor:middle;font-family:'Times,serif'">KAPPA</text>
  <g
     class="edge"
     id="edge13"
     transform="translate(4,988.438)">
    <title
       id="title28760">n27 (0.84 - 3)-&gt;KAPPA</title>
    <path
       style="fill:none;stroke:#000000"
       inkscape:connector-curvature="0"
       id="path28762"
       d="m 519.708,-151.663 c -14.647,24.547 -41.839,70.1167 -58.831,98.5928" />
    <polygon
       style="fill:#000000;stroke:#000000"
       id="polygon28764"
       points="457.866,-54.8545 463.877,-51.2676 463.877,-51.2676 455.748,-44.4737 " />
  </g>
  <ellipse
     cx="612.84003"
     cy="-26.8701"
     rx="108.789"
     ry="26.7407"
     id="ellipse28769"
     d="m 721.62903,-26.8701 c 0,14.768481 -48.7065,26.74069975 -108.789,26.74069975 -60.08251,0 -108.789,-11.97221875 -108.789,-26.74069975 0,-14.768481 48.70649,-26.7407 108.789,-26.7407 60.0825,0 108.789,11.972219 108.789,26.7407 z"
     sodipodi:cx="612.84003"
     sodipodi:cy="-26.8701"
     sodipodi:rx="108.789"
     sodipodi:ry="26.7407"
     style="fill:none;stroke:#000000"
     transform="translate(4,988.438)" />
  <text
     x="616.84003"
     y="957.76788"
     font-size="14.00"
     id="text28771"
     style="font-size:14px;text-anchor:middle;font-family:'Times,serif'">TWO_WAY_SUPPORT</text>
  <text
     x="616.84003"
     y="972.76788"
     font-size="14.00"
     id="text28773"
     style="font-size:14px;text-anchor:middle;font-family:'Times,serif'">COSINE</text>
  <g
     class="edge"
     id="edge14"
     transform="translate(4,988.438)">
    <title
       id="title28776">n27 (0.84 - 3)-&gt;TWO_WAY_SUPPORT\nCOSINE</title>
    <path
       style="fill:none;stroke:#000000"
       inkscape:connector-curvature="0"
       id="path28778"
       d="m 539.852,-151.663 c 12.994,22.04 35.981,61.0262 52.694,89.3718" />
    <polygon
       style="fill:#000000;stroke:#000000"
       id="polygon28780"
       points="589.637,-60.3335 595.667,-63.8888 595.667,-63.8888 597.731,-53.497 " />
  </g>
  <ellipse
     cx="663.84003"
     cy="-169.64301"
     rx="51.990799"
     ry="18"
     id="ellipse28785"
     d="m 715.83083,-169.64301 c 0,9.94113 -23.27708,18 -51.9908,18 -28.71373,0 -51.9908,-8.05887 -51.9908,-18 0,-9.94112 23.27707,-18 51.9908,-18 28.71372,0 51.9908,8.05888 51.9908,18 z"
     sodipodi:cx="663.84003"
     sodipodi:cy="-169.64301"
     sodipodi:rx="51.990799"
     sodipodi:ry="18"
     style="fill:#d5d5d5;stroke:#000000"
     transform="translate(4,988.438)" />
  <text
     x="667.84003"
     y="822.495"
     font-size="14.00"
     id="text28787"
     style="font-size:14px;text-anchor:middle;font-family:'Times,serif'">KLOSGEN</text>
  <g
     class="edge"
     id="edge16"
     transform="translate(4,988.438)">
    <title
       id="title28790">n26 (0.89 - 8)-&gt;KLOSGEN</title>
    <path
       style="fill:none;stroke:#000000"
       inkscape:connector-curvature="0"
       id="path28792"
       d="m 665.579,-285.302 c -0.337,22.218 -0.927,61.099 -1.325,87.354" />
    <polygon
       style="fill:#000000;stroke:#000000"
       id="polygon28794"
       points="660.754,-197.943 667.753,-197.837 667.753,-197.837 664.102,-187.891 " />
  </g>
  <ellipse
     cx="900.84003"
     cy="-169.64301"
     rx="166.754"
     ry="79.806297"
     id="ellipse28799"
     d="m 1067.594,-169.64301 c 0,44.07581 -74.65828,79.806302 -166.75397,79.806302 -92.09569,0 -166.754,-35.730492 -166.754,-79.806302 0,-44.0758 74.65831,-79.80629 166.754,-79.80629 92.09569,0 166.75397,35.73049 166.75397,79.80629 z"
     sodipodi:cx="900.84003"
     sodipodi:cy="-169.64301"
     sodipodi:rx="166.754"
     sodipodi:ry="79.806297"
     style="fill:#aaffaa;stroke:#000000"
     transform="translate(4,988.438)" />
  <text
     x="904.84003"
     y="777.495"
     font-size="14.00"
     id="text28801"
     style="font-size:14px;text-anchor:middle;font-family:'Times,serif'">FISHER_PVAL</text>
  <text
     x="904.84003"
     y="792.495"
     font-size="14.00"
     id="text28803"
     style="font-size:14px;text-anchor:middle;font-family:'Times,serif'">TWO_WAY_SUPPORT_VARIATION</text>
  <text
     x="904.84003"
     y="807.495"
     font-size="14.00"
     id="text28805"
     style="font-size:14px;text-anchor:middle;font-family:'Times,serif'">J_MEASURE</text>
  <text
     x="904.84003"
     y="822.495"
     font-size="14.00"
     id="text28807"
     style="font-size:14px;text-anchor:middle;font-family:'Times,serif'">GINI</text>
  <text
     x="904.84003"
     y="837.495"
     font-size="14.00"
     id="text28809"
     style="font-size:14px;text-anchor:middle;font-family:'Times,serif'">CHI_SQUARE</text>
  <text
     x="904.84003"
     y="852.495"
     font-size="14.00"
     id="text28811"
     style="font-size:14px;text-anchor:middle;font-family:'Times,serif'">PHI</text>
  <text
     x="904.84003"
     y="867.495"
     font-size="14.00"
     id="text28813"
     style="font-size:14px;text-anchor:middle;font-family:'Times,serif'">IMPLICATION_INDEX</text>
  <g
     class="edge"
     id="edge17"
     transform="translate(4,988.438)">
    <title
       id="title28816">n26 (0.89 - 8)-&gt;FISHER_PVAL\nTWO_WAY_SUPPORT_VARIATION\nJ_MEASURE\nGINI\nCHI_SQUARE\nPHI\nIMPLICATION_INDEX</title>
    <path
       style="fill:none;stroke:#000000"
       inkscape:connector-curvature="0"
       id="path28818"
       d="m 692.798,-287.415 c 22.895,12.851 57.427,32.233 91.814,51.534" />
    <polygon
       style="fill:#000000;stroke:#000000"
       id="polygon28820"
       points="782.911,-232.822 786.338,-238.926 786.338,-238.926 793.345,-230.979 " />
  </g>
</svg>
