<?xml version="1.0" encoding="UTF-8" standalone="no"?>
<!DOCTYPE svg PUBLIC "-//W3C//DTD SVG 1.1//EN"
 "http://www.w3.org/Graphics/SVG/1.1/DTD/svg11.dtd">
<!-- Generated by graphviz version 2.38.0 (20140413.2041)
 -->
<!-- Title: dendrogram Pages: 1 -->
<svg width="2152pt" height="942pt"
 viewBox="0.00 0.00 2152.41 942.05" xmlns="http://www.w3.org/2000/svg" xmlns:xlink="http://www.w3.org/1999/xlink">
<g id="graph0" class="graph" transform="scale(1 1) rotate(0) translate(4 938.046)">
<title>dendrogram</title>
<polygon fill="white" stroke="none" points="-4,4 -4,-938.046 2148.41,-938.046 2148.41,4 -4,4"/>
<!-- n34 (0.02 &#45; 36) -->
<g id="node1" class="node"><title>n34 (0.02 &#45; 36)</title>
<ellipse fill="none" stroke="black" cx="798.995" cy="-916.046" rx="64.189" ry="18"/>
<text text-anchor="middle" x="798.995" y="-912.346" font-family="Times,serif" font-size="14.00">n34 (0.02 &#45; 36)</text>
</g>
<!-- n29 (0.44 &#45; 13) -->
<g id="node2" class="node"><title>n29 (0.44 &#45; 13)</title>
<ellipse fill="none" stroke="black" cx="485.995" cy="-844.046" rx="64.189" ry="18"/>
<text text-anchor="middle" x="485.995" y="-840.346" font-family="Times,serif" font-size="14.00">n29 (0.44 &#45; 13)</text>
</g>
<!-- n34 (0.02 &#45; 36)&#45;&gt;n29 (0.44 &#45; 13) -->
<g id="edge1" class="edge"><title>n34 (0.02 &#45; 36)&#45;&gt;n29 (0.44 &#45; 13)</title>
<path fill="none" stroke="black" d="M750.433,-904.185C694.919,-891.77 604.077,-871.454 544.656,-858.165"/>
<polygon fill="black" stroke="black" points="545.195,-854.699 534.672,-855.932 543.667,-861.53 545.195,-854.699"/>
</g>
<!-- n33 (0.07 &#45; 23) -->
<g id="node15" class="node"><title>n33 (0.07 &#45; 23)</title>
<ellipse fill="none" stroke="black" cx="1112" cy="-844.046" rx="64.189" ry="18"/>
<text text-anchor="middle" x="1112" y="-840.346" font-family="Times,serif" font-size="14.00">n33 (0.07 &#45; 23)</text>
</g>
<!-- n34 (0.02 &#45; 36)&#45;&gt;n33 (0.07 &#45; 23) -->
<g id="edge14" class="edge"><title>n34 (0.02 &#45; 36)&#45;&gt;n33 (0.07 &#45; 23)</title>
<path fill="none" stroke="black" d="M847.558,-904.185C903.072,-891.77 993.914,-871.454 1053.33,-858.165"/>
<polygon fill="black" stroke="black" points="1054.32,-861.53 1063.32,-855.932 1052.8,-854.699 1054.32,-861.53"/>
</g>
<!-- n26 (0.55 &#45; 2) -->
<g id="node3" class="node"><title>n26 (0.55 &#45; 2)</title>
<ellipse fill="none" stroke="black" cx="222.995" cy="-772.046" rx="59.5901" ry="18"/>
<text text-anchor="middle" x="222.995" y="-768.346" font-family="Times,serif" font-size="14.00">n26 (0.55 &#45; 2)</text>
</g>
<!-- n29 (0.44 &#45; 13)&#45;&gt;n26 (0.55 &#45; 2) -->
<g id="edge2" class="edge"><title>n29 (0.44 &#45; 13)&#45;&gt;n26 (0.55 &#45; 2)</title>
<path fill="none" stroke="black" d="M441.083,-831.092C395.377,-818.927 324.549,-800.075 276.092,-787.178"/>
<polygon fill="black" stroke="black" points="276.975,-783.791 266.411,-784.601 275.175,-790.556 276.975,-783.791"/>
</g>
<!-- n24 (0.58 &#45; 11) -->
<g id="node6" class="node"><title>n24 (0.58 &#45; 11)</title>
<ellipse fill="none" stroke="black" cx="485.995" cy="-772.046" rx="64.189" ry="18"/>
<text text-anchor="middle" x="485.995" y="-768.346" font-family="Times,serif" font-size="14.00">n24 (0.58 &#45; 11)</text>
</g>
<!-- n29 (0.44 &#45; 13)&#45;&gt;n24 (0.58 &#45; 11) -->
<g id="edge5" class="edge"><title>n29 (0.44 &#45; 13)&#45;&gt;n24 (0.58 &#45; 11)</title>
<path fill="none" stroke="black" d="M485.995,-825.742C485.995,-818.029 485.995,-808.758 485.995,-800.158"/>
<polygon fill="black" stroke="black" points="489.495,-800.15 485.995,-790.15 482.495,-800.15 489.495,-800.15"/>
</g>
<!-- KLOSGEN -->
<g id="node4" class="node"><title>KLOSGEN</title>
<ellipse fill="none" stroke="black" cx="51.9954" cy="-616.93" rx="51.9908" ry="18"/>
<text text-anchor="middle" x="51.9954" y="-613.23" font-family="Times,serif" font-size="14.00">KLOSGEN</text>
</g>
<!-- n26 (0.55 &#45; 2)&#45;&gt;KLOSGEN -->
<g id="edge3" class="edge"><title>n26 (0.55 &#45; 2)&#45;&gt;KLOSGEN</title>
<path fill="none" stroke="black" d="M183.6,-758.415C161.031,-749.724 133.258,-736.41 112.995,-718.046 90.2392,-697.422 73.1166,-666.329 62.8923,-644.272"/>
<polygon fill="black" stroke="black" points="65.9564,-642.55 58.6847,-634.845 59.5641,-645.403 65.9564,-642.55"/>
</g>
<!-- PIATETSKY_SHAPIRO -->
<g id="node5" class="node"><title>PIATETSKY_SHAPIRO</title>
<ellipse fill="none" stroke="black" cx="222.995" cy="-616.93" rx="100.983" ry="18"/>
<text text-anchor="middle" x="222.995" y="-613.23" font-family="Times,serif" font-size="14.00">PIATETSKY_SHAPIRO</text>
</g>
<!-- n26 (0.55 &#45; 2)&#45;&gt;PIATETSKY_SHAPIRO -->
<g id="edge4" class="edge"><title>n26 (0.55 &#45; 2)&#45;&gt;PIATETSKY_SHAPIRO</title>
<path fill="none" stroke="black" d="M222.995,-753.779C222.995,-727.473 222.995,-677.104 222.995,-645.639"/>
<polygon fill="black" stroke="black" points="226.495,-645.368 222.995,-635.368 219.495,-645.368 226.495,-645.368"/>
</g>
<!-- n20 (0.82 &#45; 5) -->
<g id="node7" class="node"><title>n20 (0.82 &#45; 5)</title>
<ellipse fill="none" stroke="black" cx="401.995" cy="-616.93" rx="59.5901" ry="18"/>
<text text-anchor="middle" x="401.995" y="-613.23" font-family="Times,serif" font-size="14.00">n20 (0.82 &#45; 5)</text>
</g>
<!-- n24 (0.58 &#45; 11)&#45;&gt;n20 (0.82 &#45; 5) -->
<g id="edge6" class="edge"><title>n24 (0.58 &#45; 11)&#45;&gt;n20 (0.82 &#45; 5)</title>
<path fill="none" stroke="black" d="M476.685,-754.075C462.052,-727.402 433.565,-675.475 416.313,-644.028"/>
<polygon fill="black" stroke="black" points="419.226,-642.061 411.348,-634.977 413.089,-645.427 419.226,-642.061"/>
</g>
<!-- n23 (0.68 &#45; 6) -->
<g id="node10" class="node"><title>n23 (0.68 &#45; 6)</title>
<ellipse fill="none" stroke="black" cx="569.995" cy="-616.93" rx="59.5901" ry="18"/>
<text text-anchor="middle" x="569.995" y="-613.23" font-family="Times,serif" font-size="14.00">n23 (0.68 &#45; 6)</text>
</g>
<!-- n24 (0.58 &#45; 11)&#45;&gt;n23 (0.68 &#45; 6) -->
<g id="edge9" class="edge"><title>n24 (0.58 &#45; 11)&#45;&gt;n23 (0.68 &#45; 6)</title>
<path fill="none" stroke="black" d="M495.306,-754.075C509.939,-727.402 538.426,-675.475 555.678,-644.028"/>
<polygon fill="black" stroke="black" points="558.902,-645.427 560.643,-634.977 552.765,-642.061 558.902,-645.427"/>
</g>
<!-- JACCARD\nKAPPA -->
<g id="node8" class="node"><title>JACCARD\nKAPPA</title>
<ellipse fill="none" stroke="black" cx="226.995" cy="-442.337" rx="55.3091" ry="26.7407"/>
<text text-anchor="middle" x="226.995" y="-446.137" font-family="Times,serif" font-size="14.00">JACCARD</text>
<text text-anchor="middle" x="226.995" y="-431.137" font-family="Times,serif" font-size="14.00">KAPPA</text>
</g>
<!-- n20 (0.82 &#45; 5)&#45;&gt;JACCARD\nKAPPA -->
<g id="edge7" class="edge"><title>n20 (0.82 &#45; 5)&#45;&gt;JACCARD\nKAPPA</title>
<path fill="none" stroke="black" d="M392.892,-598.943C381.023,-577.825 358.717,-541.439 332.995,-515.813 314.836,-497.721 291.605,-481.26 271.521,-468.614"/>
<polygon fill="black" stroke="black" points="273.187,-465.53 262.839,-463.258 269.512,-471.487 273.187,-465.53"/>
</g>
<!-- COSINE\nPHI\nCHI_SQUARE -->
<g id="node9" class="node"><title>COSINE\nPHI\nCHI_SQUARE</title>
<ellipse fill="none" stroke="black" cx="371.995" cy="-442.337" rx="71.3357" ry="37.4533"/>
<text text-anchor="middle" x="371.995" y="-453.637" font-family="Times,serif" font-size="14.00">COSINE</text>
<text text-anchor="middle" x="371.995" y="-438.637" font-family="Times,serif" font-size="14.00">PHI</text>
<text text-anchor="middle" x="371.995" y="-423.637" font-family="Times,serif" font-size="14.00">CHI_SQUARE</text>
</g>
<!-- n20 (0.82 &#45; 5)&#45;&gt;COSINE\nPHI\nCHI_SQUARE -->
<g id="edge8" class="edge"><title>n20 (0.82 &#45; 5)&#45;&gt;COSINE\nPHI\nCHI_SQUARE</title>
<path fill="none" stroke="black" d="M399.009,-598.75C394.652,-573.684 386.393,-526.165 380.148,-490.242"/>
<polygon fill="black" stroke="black" points="383.525,-489.228 378.364,-479.975 376.628,-490.427 383.525,-489.228"/>
</g>
<!-- GINI\nIMPLICATION_INDEX -->
<g id="node11" class="node"><title>GINI\nIMPLICATION_INDEX</title>
<ellipse fill="none" stroke="black" cx="569.995" cy="-442.337" rx="108.789" ry="26.7407"/>
<text text-anchor="middle" x="569.995" y="-446.137" font-family="Times,serif" font-size="14.00">GINI</text>
<text text-anchor="middle" x="569.995" y="-431.137" font-family="Times,serif" font-size="14.00">IMPLICATION_INDEX</text>
</g>
<!-- n23 (0.68 &#45; 6)&#45;&gt;GINI\nIMPLICATION_INDEX -->
<g id="edge10" class="edge"><title>n23 (0.68 &#45; 6)&#45;&gt;GINI\nIMPLICATION_INDEX</title>
<path fill="none" stroke="black" d="M569.995,-598.75C569.995,-571.123 569.995,-516.221 569.995,-479.631"/>
<polygon fill="black" stroke="black" points="573.495,-479.374 569.995,-469.374 566.495,-479.374 573.495,-479.374"/>
</g>
<!-- n18 (0.88 &#45; 4) -->
<g id="node12" class="node"><title>n18 (0.88 &#45; 4)</title>
<ellipse fill="none" stroke="black" cx="756.995" cy="-442.337" rx="59.5901" ry="18"/>
<text text-anchor="middle" x="756.995" y="-438.637" font-family="Times,serif" font-size="14.00">n18 (0.88 &#45; 4)</text>
</g>
<!-- n23 (0.68 &#45; 6)&#45;&gt;n18 (0.88 &#45; 4) -->
<g id="edge11" class="edge"><title>n23 (0.68 &#45; 6)&#45;&gt;n18 (0.88 &#45; 4)</title>
<path fill="none" stroke="black" d="M587.588,-599.692C620.862,-568.982 693.121,-502.29 731.634,-466.744"/>
<polygon fill="black" stroke="black" points="734.339,-469.011 739.313,-459.656 729.591,-463.867 734.339,-469.011"/>
</g>
<!-- TWO_WAY_SUPPORT -->
<g id="node13" class="node"><title>TWO_WAY_SUPPORT</title>
<ellipse fill="none" stroke="black" cx="613.995" cy="-331.383" rx="100.182" ry="18"/>
<text text-anchor="middle" x="613.995" y="-327.683" font-family="Times,serif" font-size="14.00">TWO_WAY_SUPPORT</text>
</g>
<!-- n18 (0.88 &#45; 4)&#45;&gt;TWO_WAY_SUPPORT -->
<g id="edge12" class="edge"><title>n18 (0.88 &#45; 4)&#45;&gt;TWO_WAY_SUPPORT</title>
<path fill="none" stroke="black" d="M735.895,-425.26C711.675,-406.807 671.756,-376.392 644.235,-355.423"/>
<polygon fill="black" stroke="black" points="646.199,-352.519 636.124,-349.243 641.957,-358.087 646.199,-352.519"/>
</g>
<!-- J_MEASURE\nTWO_WAY_SUPPORT_VARIATION\nFISHER_PVAL -->
<g id="node14" class="node"><title>J_MEASURE\nTWO_WAY_SUPPORT_VARIATION\nFISHER_PVAL</title>
<ellipse fill="none" stroke="black" cx="898.995" cy="-331.383" rx="166.754" ry="37.4533"/>
<text text-anchor="middle" x="898.995" y="-342.683" font-family="Times,serif" font-size="14.00">J_MEASURE</text>
<text text-anchor="middle" x="898.995" y="-327.683" font-family="Times,serif" font-size="14.00">TWO_WAY_SUPPORT_VARIATION</text>
<text text-anchor="middle" x="898.995" y="-312.683" font-family="Times,serif" font-size="14.00">FISHER_PVAL</text>
</g>
<!-- n18 (0.88 &#45; 4)&#45;&gt;J_MEASURE\nTWO_WAY_SUPPORT_VARIATION\nFISHER_PVAL -->
<g id="edge13" class="edge"><title>n18 (0.88 &#45; 4)&#45;&gt;J_MEASURE\nTWO_WAY_SUPPORT_VARIATION\nFISHER_PVAL</title>
<path fill="none" stroke="black" d="M777.948,-425.26C795.615,-411.705 821.693,-391.695 845.125,-373.717"/>
<polygon fill="black" stroke="black" points="847.481,-376.321 853.284,-367.457 843.22,-370.767 847.481,-376.321"/>
</g>
<!-- n30 (0.30 &#45; 11) -->
<g id="node16" class="node"><title>n30 (0.30 &#45; 11)</title>
<ellipse fill="none" stroke="black" cx="1112" cy="-772.046" rx="64.189" ry="18"/>
<text text-anchor="middle" x="1112" y="-768.346" font-family="Times,serif" font-size="14.00">n30 (0.30 &#45; 11)</text>
</g>
<!-- n33 (0.07 &#45; 23)&#45;&gt;n30 (0.30 &#45; 11) -->
<g id="edge15" class="edge"><title>n33 (0.07 &#45; 23)&#45;&gt;n30 (0.30 &#45; 11)</title>
<path fill="none" stroke="black" d="M1112,-825.742C1112,-818.029 1112,-808.758 1112,-800.158"/>
<polygon fill="black" stroke="black" points="1115.5,-800.15 1112,-790.15 1108.5,-800.15 1115.5,-800.15"/>
</g>
<!-- n32 (0.14 &#45; 12) -->
<g id="node21" class="node"><title>n32 (0.14 &#45; 12)</title>
<ellipse fill="none" stroke="black" cx="1491" cy="-772.046" rx="64.189" ry="18"/>
<text text-anchor="middle" x="1491" y="-768.346" font-family="Times,serif" font-size="14.00">n32 (0.14 &#45; 12)</text>
</g>
<!-- n33 (0.07 &#45; 23)&#45;&gt;n32 (0.14 &#45; 12) -->
<g id="edge20" class="edge"><title>n33 (0.07 &#45; 23)&#45;&gt;n32 (0.14 &#45; 12)</title>
<path fill="none" stroke="black" d="M1164.3,-833.386C1233.44,-820.616 1355.1,-798.146 1428.85,-784.524"/>
<polygon fill="black" stroke="black" points="1429.73,-787.921 1438.93,-782.662 1428.46,-781.037 1429.73,-787.921"/>
</g>
<!-- n22 (0.70 &#45; 2) -->
<g id="node17" class="node"><title>n22 (0.70 &#45; 2)</title>
<ellipse fill="none" stroke="black" cx="1005" cy="-616.93" rx="59.5901" ry="18"/>
<text text-anchor="middle" x="1005" y="-613.23" font-family="Times,serif" font-size="14.00">n22 (0.70 &#45; 2)</text>
</g>
<!-- n30 (0.30 &#45; 11)&#45;&gt;n22 (0.70 &#45; 2) -->
<g id="edge16" class="edge"><title>n30 (0.30 &#45; 11)&#45;&gt;n22 (0.70 &#45; 2)</title>
<path fill="none" stroke="black" d="M1099.59,-753.918C1092.13,-743.566 1082.46,-730.087 1074,-718.046 1056.12,-692.623 1035.99,-663.332 1022.1,-643.028"/>
<polygon fill="black" stroke="black" points="1024.91,-640.93 1016.38,-634.647 1019.13,-644.878 1024.91,-640.93"/>
</g>
<!-- CENTERED_CONFIDENCE\nADDED_VALUE\nLOEVINGER\nCONVICTION\nCERTAINTY_FACTOR\nSEBAG_SCHOENAUER\nCOUNTER_EXAMPLE_RATE\nLEVERAGE\nCONFIDENCE -->
<g id="node20" class="node"><title>CENTERED_CONFIDENCE\nADDED_VALUE\nLOEVINGER\nCONVICTION\nCERTAINTY_FACTOR\nSEBAG_SCHOENAUER\nCOUNTER_EXAMPLE_RATE\nLEVERAGE\nCONFIDENCE</title>
<ellipse fill="none" stroke="black" cx="1220" cy="-616.93" rx="137.358" ry="101.233"/>
<text text-anchor="middle" x="1220" y="-673.23" font-family="Times,serif" font-size="14.00">CENTERED_CONFIDENCE</text>
<text text-anchor="middle" x="1220" y="-658.23" font-family="Times,serif" font-size="14.00">ADDED_VALUE</text>
<text text-anchor="middle" x="1220" y="-643.23" font-family="Times,serif" font-size="14.00">LOEVINGER</text>
<text text-anchor="middle" x="1220" y="-628.23" font-family="Times,serif" font-size="14.00">CONVICTION</text>
<text text-anchor="middle" x="1220" y="-613.23" font-family="Times,serif" font-size="14.00">CERTAINTY_FACTOR</text>
<text text-anchor="middle" x="1220" y="-598.23" font-family="Times,serif" font-size="14.00">SEBAG_SCHOENAUER</text>
<text text-anchor="middle" x="1220" y="-583.23" font-family="Times,serif" font-size="14.00">COUNTER_EXAMPLE_RATE</text>
<text text-anchor="middle" x="1220" y="-568.23" font-family="Times,serif" font-size="14.00">LEVERAGE</text>
<text text-anchor="middle" x="1220" y="-553.23" font-family="Times,serif" font-size="14.00">CONFIDENCE</text>
</g>
<!-- n30 (0.30 &#45; 11)&#45;&gt;CENTERED_CONFIDENCE\nADDED_VALUE\nLOEVINGER\nCONVICTION\nCERTAINTY_FACTOR\nSEBAG_SCHOENAUER\nCOUNTER_EXAMPLE_RATE\nLEVERAGE\nCONFIDENCE -->
<g id="edge19" class="edge"><title>n30 (0.30 &#45; 11)&#45;&gt;CENTERED_CONFIDENCE\nADDED_VALUE\nLOEVINGER\nCONVICTION\nCERTAINTY_FACTOR\nSEBAG_SCHOENAUER\nCOUNTER_EXAMPLE_RATE\nLEVERAGE\nCONFIDENCE</title>
<path fill="none" stroke="black" d="M1123.97,-754.075C1131.1,-743.957 1140.8,-730.207 1151.3,-715.318"/>
<polygon fill="black" stroke="black" points="1154.3,-717.135 1157.21,-706.946 1148.58,-713.1 1154.3,-717.135"/>
</g>
<!-- LEAST_CONTRADICTION -->
<g id="node18" class="node"><title>LEAST_CONTRADICTION</title>
<ellipse fill="none" stroke="black" cx="948.995" cy="-442.337" rx="114.28" ry="18"/>
<text text-anchor="middle" x="948.995" y="-438.637" font-family="Times,serif" font-size="14.00">LEAST_CONTRADICTION</text>
</g>
<!-- n22 (0.70 &#45; 2)&#45;&gt;LEAST_CONTRADICTION -->
<g id="edge17" class="edge"><title>n22 (0.70 &#45; 2)&#45;&gt;LEAST_CONTRADICTION</title>
<path fill="none" stroke="black" d="M999.421,-598.75C989.651,-568.639 969.37,-506.131 957.725,-470.241"/>
<polygon fill="black" stroke="black" points="960.963,-468.879 954.547,-460.447 954.304,-471.039 960.963,-468.879"/>
</g>
<!-- ONE_WAY_SUPPORT -->
<g id="node19" class="node"><title>ONE_WAY_SUPPORT</title>
<ellipse fill="none" stroke="black" cx="1179" cy="-442.337" rx="97.4827" ry="18"/>
<text text-anchor="middle" x="1179" y="-438.637" font-family="Times,serif" font-size="14.00">ONE_WAY_SUPPORT</text>
</g>
<!-- n22 (0.70 &#45; 2)&#45;&gt;ONE_WAY_SUPPORT -->
<g id="edge18" class="edge"><title>n22 (0.70 &#45; 2)&#45;&gt;ONE_WAY_SUPPORT</title>
<path fill="none" stroke="black" d="M1014.12,-598.962C1026.01,-577.862 1048.33,-541.496 1074,-515.813 1093.86,-495.934 1119.83,-477.958 1140.96,-464.88"/>
<polygon fill="black" stroke="black" points="1142.96,-467.763 1149.7,-459.584 1139.33,-461.777 1142.96,-467.763"/>
</g>
<!-- n28 (0.45 &#45; 2) -->
<g id="node22" class="node"><title>n28 (0.45 &#45; 2)</title>
<ellipse fill="none" stroke="black" cx="1491" cy="-616.93" rx="59.5901" ry="18"/>
<text text-anchor="middle" x="1491" y="-613.23" font-family="Times,serif" font-size="14.00">n28 (0.45 &#45; 2)</text>
</g>
<!-- n32 (0.14 &#45; 12)&#45;&gt;n28 (0.45 &#45; 2) -->
<g id="edge21" class="edge"><title>n32 (0.14 &#45; 12)&#45;&gt;n28 (0.45 &#45; 2)</title>
<path fill="none" stroke="black" d="M1491,-753.779C1491,-727.473 1491,-677.104 1491,-645.639"/>
<polygon fill="black" stroke="black" points="1494.5,-645.368 1491,-635.368 1487.5,-645.368 1494.5,-645.368"/>
</g>
<!-- n31 (0.18 &#45; 10) -->
<g id="node25" class="node"><title>n31 (0.18 &#45; 10)</title>
<ellipse fill="none" stroke="black" cx="1721" cy="-616.93" rx="64.189" ry="18"/>
<text text-anchor="middle" x="1721" y="-613.23" font-family="Times,serif" font-size="14.00">n31 (0.18 &#45; 10)</text>
</g>
<!-- n32 (0.14 &#45; 12)&#45;&gt;n31 (0.18 &#45; 10) -->
<g id="edge24" class="edge"><title>n32 (0.14 &#45; 12)&#45;&gt;n31 (0.18 &#45; 10)</title>
<path fill="none" stroke="black" d="M1514.74,-755.236C1556.15,-727.672 1641.6,-670.785 1688.47,-639.581"/>
<polygon fill="black" stroke="black" points="1690.65,-642.337 1697.03,-633.882 1686.77,-636.511 1690.65,-642.337"/>
</g>
<!-- COLLECTIVE_STRENGH -->
<g id="node23" class="node"><title>COLLECTIVE_STRENGH</title>
<ellipse fill="none" stroke="black" cx="1404" cy="-442.337" rx="109.681" ry="18"/>
<text text-anchor="middle" x="1404" y="-438.637" font-family="Times,serif" font-size="14.00">COLLECTIVE_STRENGH</text>
</g>
<!-- n28 (0.45 &#45; 2)&#45;&gt;COLLECTIVE_STRENGH -->
<g id="edge22" class="edge"><title>n28 (0.45 &#45; 2)&#45;&gt;COLLECTIVE_STRENGH</title>
<path fill="none" stroke="black" d="M1482.5,-599.066C1467.33,-568.984 1435.51,-505.855 1417.38,-469.896"/>
<polygon fill="black" stroke="black" points="1420.29,-467.878 1412.66,-460.524 1414.03,-471.029 1420.29,-467.878"/>
</g>
<!-- SPECIFICITY -->
<g id="node24" class="node"><title>SPECIFICITY</title>
<ellipse fill="none" stroke="black" cx="1595" cy="-442.337" rx="63.0888" ry="18"/>
<text text-anchor="middle" x="1595" y="-438.637" font-family="Times,serif" font-size="14.00">SPECIFICITY</text>
</g>
<!-- n28 (0.45 &#45; 2)&#45;&gt;SPECIFICITY -->
<g id="edge23" class="edge"><title>n28 (0.45 &#45; 2)&#45;&gt;SPECIFICITY</title>
<path fill="none" stroke="black" d="M1501.16,-599.066C1519.41,-568.777 1557.85,-504.987 1579.44,-469.159"/>
<polygon fill="black" stroke="black" points="1582.63,-470.64 1584.79,-460.268 1576.63,-467.027 1582.63,-470.64"/>
</g>
<!-- RECALL -->
<g id="node26" class="node"><title>RECALL</title>
<ellipse fill="none" stroke="black" cx="1721" cy="-442.337" rx="44.6926" ry="18"/>
<text text-anchor="middle" x="1721" y="-438.637" font-family="Times,serif" font-size="14.00">RECALL</text>
</g>
<!-- n31 (0.18 &#45; 10)&#45;&gt;RECALL -->
<g id="edge25" class="edge"><title>n31 (0.18 &#45; 10)&#45;&gt;RECALL</title>
<path fill="none" stroke="black" d="M1721,-598.75C1721,-568.769 1721,-506.667 1721,-470.704"/>
<polygon fill="black" stroke="black" points="1724.5,-470.447 1721,-460.447 1717.5,-470.447 1724.5,-470.447"/>
</g>
<!-- n27 (0.49 &#45; 9) -->
<g id="node27" class="node"><title>n27 (0.49 &#45; 9)</title>
<ellipse fill="none" stroke="black" cx="1844" cy="-442.337" rx="59.5901" ry="18"/>
<text text-anchor="middle" x="1844" y="-438.637" font-family="Times,serif" font-size="14.00">n27 (0.49 &#45; 9)</text>
</g>
<!-- n31 (0.18 &#45; 10)&#45;&gt;n27 (0.49 &#45; 9) -->
<g id="edge26" class="edge"><title>n31 (0.18 &#45; 10)&#45;&gt;n27 (0.49 &#45; 9)</title>
<path fill="none" stroke="black" d="M1733.01,-599.066C1754.75,-568.57 1800.68,-504.113 1826.11,-468.428"/>
<polygon fill="black" stroke="black" points="1829.16,-470.189 1832.11,-460.014 1823.46,-466.126 1829.16,-470.189"/>
</g>
<!-- ACCURACY -->
<g id="node28" class="node"><title>ACCURACY</title>
<ellipse fill="none" stroke="black" cx="1775" cy="-331.383" rx="59.5901" ry="18"/>
<text text-anchor="middle" x="1775" y="-327.683" font-family="Times,serif" font-size="14.00">ACCURACY</text>
</g>
<!-- n27 (0.49 &#45; 9)&#45;&gt;ACCURACY -->
<g id="edge27" class="edge"><title>n27 (0.49 &#45; 9)&#45;&gt;ACCURACY</title>
<path fill="none" stroke="black" d="M1833.21,-424.313C1821.92,-406.483 1804.06,-378.278 1791.1,-357.808"/>
<polygon fill="black" stroke="black" points="1794.01,-355.863 1785.7,-349.288 1788.09,-359.609 1794.01,-355.863"/>
</g>
<!-- n25 (0.57 &#45; 8) -->
<g id="node29" class="node"><title>n25 (0.57 &#45; 8)</title>
<ellipse fill="none" stroke="black" cx="1913" cy="-331.383" rx="59.5901" ry="18"/>
<text text-anchor="middle" x="1913" y="-327.683" font-family="Times,serif" font-size="14.00">n25 (0.57 &#45; 8)</text>
</g>
<!-- n27 (0.49 &#45; 9)&#45;&gt;n25 (0.57 &#45; 8) -->
<g id="edge28" class="edge"><title>n27 (0.49 &#45; 9)&#45;&gt;n25 (0.57 &#45; 8)</title>
<path fill="none" stroke="black" d="M1854.78,-424.313C1866.07,-406.483 1883.93,-378.278 1896.89,-357.808"/>
<polygon fill="black" stroke="black" points="1899.9,-359.609 1902.29,-349.288 1893.98,-355.863 1899.9,-359.609"/>
</g>
<!-- ODD_MULTIPLIER\nZHANG\nBAYES -->
<g id="node30" class="node"><title>ODD_MULTIPLIER\nZHANG\nBAYES</title>
<ellipse fill="none" stroke="black" cx="1826" cy="-220.43" rx="94.5053" ry="37.4533"/>
<text text-anchor="middle" x="1826" y="-231.73" font-family="Times,serif" font-size="14.00">ODD_MULTIPLIER</text>
<text text-anchor="middle" x="1826" y="-216.73" font-family="Times,serif" font-size="14.00">ZHANG</text>
<text text-anchor="middle" x="1826" y="-201.73" font-family="Times,serif" font-size="14.00">BAYES</text>
</g>
<!-- n25 (0.57 &#45; 8)&#45;&gt;ODD_MULTIPLIER\nZHANG\nBAYES -->
<g id="edge29" class="edge"><title>n25 (0.57 &#45; 8)&#45;&gt;ODD_MULTIPLIER\nZHANG\nBAYES</title>
<path fill="none" stroke="black" d="M1899.4,-313.359C1888.97,-300.295 1874.09,-281.662 1860.45,-264.582"/>
<polygon fill="black" stroke="black" points="1862.86,-261.984 1853.88,-256.353 1857.39,-266.351 1862.86,-261.984"/>
</g>
<!-- n21 (0.75 &#45; 5) -->
<g id="node31" class="node"><title>n21 (0.75 &#45; 5)</title>
<ellipse fill="none" stroke="black" cx="1999" cy="-220.43" rx="59.5901" ry="18"/>
<text text-anchor="middle" x="1999" y="-216.73" font-family="Times,serif" font-size="14.00">n21 (0.75 &#45; 5)</text>
</g>
<!-- n25 (0.57 &#45; 8)&#45;&gt;n21 (0.75 &#45; 5) -->
<g id="edge30" class="edge"><title>n25 (0.57 &#45; 8)&#45;&gt;n21 (0.75 &#45; 5)</title>
<path fill="none" stroke="black" d="M1926.43,-313.359C1940.63,-295.369 1963.17,-266.818 1979.36,-246.306"/>
<polygon fill="black" stroke="black" points="1982.2,-248.352 1985.65,-238.334 1976.71,-244.015 1982.2,-248.352"/>
</g>
<!-- n19 (0.85 &#45; 2) -->
<g id="node32" class="node"><title>n19 (0.85 &#45; 2)</title>
<ellipse fill="none" stroke="black" cx="1924" cy="-109.477" rx="59.5901" ry="18"/>
<text text-anchor="middle" x="1924" y="-105.777" font-family="Times,serif" font-size="14.00">n19 (0.85 &#45; 2)</text>
</g>
<!-- n21 (0.75 &#45; 5)&#45;&gt;n19 (0.85 &#45; 2) -->
<g id="edge31" class="edge"><title>n21 (0.75 &#45; 5)&#45;&gt;n19 (0.85 &#45; 2)</title>
<path fill="none" stroke="black" d="M1987.28,-202.406C1974.95,-184.496 1955.41,-156.118 1941.31,-135.627"/>
<polygon fill="black" stroke="black" points="1944.19,-133.634 1935.63,-127.381 1938.42,-137.603 1944.19,-133.634"/>
</g>
<!-- YULE_Y\nYULE_Q\nODDS_RATIO -->
<g id="node35" class="node"><title>YULE_Y\nYULE_Q\nODDS_RATIO</title>
<ellipse fill="none" stroke="black" cx="2073" cy="-109.477" rx="71.3357" ry="37.4533"/>
<text text-anchor="middle" x="2073" y="-120.777" font-family="Times,serif" font-size="14.00">YULE_Y</text>
<text text-anchor="middle" x="2073" y="-105.777" font-family="Times,serif" font-size="14.00">YULE_Q</text>
<text text-anchor="middle" x="2073" y="-90.7767" font-family="Times,serif" font-size="14.00">ODDS_RATIO</text>
</g>
<!-- n21 (0.75 &#45; 5)&#45;&gt;YULE_Y\nYULE_Q\nODDS_RATIO -->
<g id="edge34" class="edge"><title>n21 (0.75 &#45; 5)&#45;&gt;YULE_Y\nYULE_Q\nODDS_RATIO</title>
<path fill="none" stroke="black" d="M2010.56,-202.406C2019.5,-189.239 2032.29,-170.414 2043.96,-153.225"/>
<polygon fill="black" stroke="black" points="2046.86,-155.189 2049.58,-144.95 2041.07,-151.256 2046.86,-155.189"/>
</g>
<!-- RELATIVE_RISK -->
<g id="node33" class="node"><title>RELATIVE_RISK</title>
<ellipse fill="none" stroke="black" cx="1862" cy="-18" rx="77.9862" ry="18"/>
<text text-anchor="middle" x="1862" y="-14.3" font-family="Times,serif" font-size="14.00">RELATIVE_RISK</text>
</g>
<!-- n19 (0.85 &#45; 2)&#45;&gt;RELATIVE_RISK -->
<g id="edge32" class="edge"><title>n19 (0.85 &#45; 2)&#45;&gt;RELATIVE_RISK</title>
<path fill="none" stroke="black" d="M1912.33,-91.6468C1903.13,-78.3589 1890.13,-59.6021 1879.65,-44.4762"/>
<polygon fill="black" stroke="black" points="1882.39,-42.2848 1873.82,-36.0586 1876.63,-46.2717 1882.39,-42.2848"/>
</g>
<!-- LIFT -->
<g id="node34" class="node"><title>LIFT</title>
<ellipse fill="none" stroke="black" cx="1987" cy="-18" rx="29.4969" ry="18"/>
<text text-anchor="middle" x="1987" y="-14.3" font-family="Times,serif" font-size="14.00">LIFT</text>
</g>
<!-- n19 (0.85 &#45; 2)&#45;&gt;LIFT -->
<g id="edge33" class="edge"><title>n19 (0.85 &#45; 2)&#45;&gt;LIFT</title>
<path fill="none" stroke="black" d="M1935.85,-91.6468C1945.44,-78.0204 1959.08,-58.6428 1969.87,-43.3273"/>
<polygon fill="black" stroke="black" points="1972.94,-45.0449 1975.83,-34.8533 1967.21,-41.0149 1972.94,-45.0449"/>
</g>
</g>
</svg>
