<?xml version="1.0" encoding="UTF-8" standalone="no"?>
<!DOCTYPE svg PUBLIC "-//W3C//DTD SVG 1.1//EN"
 "http://www.w3.org/Graphics/SVG/1.1/DTD/svg11.dtd">
<!-- Generated by graphviz version 2.38.0 (20140413.2041)
 -->
<!-- Title: dendrogram Pages: 1 -->
<svg width="2356pt" height="941pt"
 viewBox="0.00 0.00 2356.37 941.03" xmlns="http://www.w3.org/2000/svg" xmlns:xlink="http://www.w3.org/1999/xlink">
<g id="graph0" class="graph" transform="scale(1 1) rotate(0) translate(4 937.026)">
<title>dendrogram</title>
<polygon fill="white" stroke="none" points="-4,4 -4,-937.026 2352.37,-937.026 2352.37,4 -4,4"/>
<!-- n34 (0.00 &#45; 36) -->
<g id="node1" class="node"><title>n34 (0.00 &#45; 36)</title>
<ellipse fill="none" stroke="black" cx="460.491" cy="-915.026" rx="64.189" ry="18"/>
<text text-anchor="middle" x="460.491" y="-911.326" font-family="Times,serif" font-size="14.00">n34 (0.00 &#45; 36)</text>
</g>
<!-- n23 (0.47 &#45; 3) -->
<g id="node2" class="node"><title>n23 (0.47 &#45; 3)</title>
<ellipse fill="none" stroke="black" cx="329.491" cy="-843.026" rx="59.5901" ry="18"/>
<text text-anchor="middle" x="329.491" y="-839.326" font-family="Times,serif" font-size="14.00">n23 (0.47 &#45; 3)</text>
</g>
<!-- n34 (0.00 &#45; 36)&#45;&gt;n23 (0.47 &#45; 3) -->
<g id="edge1" class="edge"><title>n34 (0.00 &#45; 36)&#45;&gt;n23 (0.47 &#45; 3)</title>
<path fill="none" stroke="black" d="M432.066,-898.838C412.795,-888.54 387.138,-874.83 366.306,-863.698"/>
<polygon fill="black" stroke="black" points="367.88,-860.571 357.411,-858.945 364.581,-866.745 367.88,-860.571"/>
</g>
<!-- n33 (0.00 &#45; 33) -->
<g id="node7" class="node"><title>n33 (0.00 &#45; 33)</title>
<ellipse fill="none" stroke="black" cx="592.491" cy="-843.026" rx="64.189" ry="18"/>
<text text-anchor="middle" x="592.491" y="-839.326" font-family="Times,serif" font-size="14.00">n33 (0.00 &#45; 33)</text>
</g>
<!-- n34 (0.00 &#45; 36)&#45;&gt;n33 (0.00 &#45; 33) -->
<g id="edge6" class="edge"><title>n34 (0.00 &#45; 36)&#45;&gt;n33 (0.00 &#45; 33)</title>
<path fill="none" stroke="black" d="M489.133,-898.838C508.42,-888.61 534.053,-875.016 554.967,-863.926"/>
<polygon fill="black" stroke="black" points="556.71,-866.963 563.905,-859.186 553.431,-860.779 556.71,-866.963"/>
</g>
<!-- ADDED_VALUE -->
<g id="node3" class="node"><title>ADDED_VALUE</title>
<ellipse fill="none" stroke="black" cx="176.491" cy="-771.026" rx="75.2868" ry="18"/>
<text text-anchor="middle" x="176.491" y="-767.326" font-family="Times,serif" font-size="14.00">ADDED_VALUE</text>
</g>
<!-- n23 (0.47 &#45; 3)&#45;&gt;ADDED_VALUE -->
<g id="edge2" class="edge"><title>n23 (0.47 &#45; 3)&#45;&gt;ADDED_VALUE</title>
<path fill="none" stroke="black" d="M298.16,-827.692C275.369,-817.265 244.244,-803.024 219.18,-791.557"/>
<polygon fill="black" stroke="black" points="220.451,-788.29 209.901,-787.312 217.538,-794.655 220.451,-788.29"/>
</g>
<!-- n19 (0.66 &#45; 2) -->
<g id="node4" class="node"><title>n19 (0.66 &#45; 2)</title>
<ellipse fill="none" stroke="black" cx="329.491" cy="-771.026" rx="59.5901" ry="18"/>
<text text-anchor="middle" x="329.491" y="-767.326" font-family="Times,serif" font-size="14.00">n19 (0.66 &#45; 2)</text>
</g>
<!-- n23 (0.47 &#45; 3)&#45;&gt;n19 (0.66 &#45; 2) -->
<g id="edge3" class="edge"><title>n23 (0.47 &#45; 3)&#45;&gt;n19 (0.66 &#45; 2)</title>
<path fill="none" stroke="black" d="M329.491,-824.723C329.491,-817.009 329.491,-807.739 329.491,-799.139"/>
<polygon fill="black" stroke="black" points="332.991,-799.131 329.491,-789.131 325.991,-799.131 332.991,-799.131"/>
</g>
<!-- ONE_WAY_SUPPORT -->
<g id="node5" class="node"><title>ONE_WAY_SUPPORT</title>
<ellipse fill="none" stroke="black" cx="97.4913" cy="-679.55" rx="97.4827" ry="18"/>
<text text-anchor="middle" x="97.4913" y="-675.85" font-family="Times,serif" font-size="14.00">ONE_WAY_SUPPORT</text>
</g>
<!-- n19 (0.66 &#45; 2)&#45;&gt;ONE_WAY_SUPPORT -->
<g id="edge4" class="edge"><title>n19 (0.66 &#45; 2)&#45;&gt;ONE_WAY_SUPPORT</title>
<path fill="none" stroke="black" d="M294.256,-756.437C255.048,-741.316 191.403,-716.769 147.155,-699.704"/>
<polygon fill="black" stroke="black" points="148.335,-696.408 137.745,-696.075 145.816,-702.939 148.335,-696.408"/>
</g>
<!-- CENTERED_CONFIDENCE -->
<g id="node6" class="node"><title>CENTERED_CONFIDENCE</title>
<ellipse fill="none" stroke="black" cx="329.491" cy="-679.55" rx="116.18" ry="18"/>
<text text-anchor="middle" x="329.491" y="-675.85" font-family="Times,serif" font-size="14.00">CENTERED_CONFIDENCE</text>
</g>
<!-- n19 (0.66 &#45; 2)&#45;&gt;CENTERED_CONFIDENCE -->
<g id="edge5" class="edge"><title>n19 (0.66 &#45; 2)&#45;&gt;CENTERED_CONFIDENCE</title>
<path fill="none" stroke="black" d="M329.491,-752.774C329.491,-740.025 329.491,-722.412 329.491,-707.772"/>
<polygon fill="black" stroke="black" points="332.991,-707.749 329.491,-697.749 325.991,-707.749 332.991,-707.749"/>
</g>
<!-- n27 (0.14 &#45; 9) -->
<g id="node8" class="node"><title>n27 (0.14 &#45; 9)</title>
<ellipse fill="none" stroke="black" cx="592.491" cy="-771.026" rx="59.5901" ry="18"/>
<text text-anchor="middle" x="592.491" y="-767.326" font-family="Times,serif" font-size="14.00">n27 (0.14 &#45; 9)</text>
</g>
<!-- n33 (0.00 &#45; 33)&#45;&gt;n27 (0.14 &#45; 9) -->
<g id="edge7" class="edge"><title>n33 (0.00 &#45; 33)&#45;&gt;n27 (0.14 &#45; 9)</title>
<path fill="none" stroke="black" d="M592.491,-824.723C592.491,-817.009 592.491,-807.739 592.491,-799.139"/>
<polygon fill="black" stroke="black" points="595.991,-799.131 592.491,-789.131 588.991,-799.131 595.991,-799.131"/>
</g>
<!-- n32 (0.00 &#45; 24) -->
<g id="node13" class="node"><title>n32 (0.00 &#45; 24)</title>
<ellipse fill="none" stroke="black" cx="847.491" cy="-771.026" rx="64.189" ry="18"/>
<text text-anchor="middle" x="847.491" y="-767.326" font-family="Times,serif" font-size="14.00">n32 (0.00 &#45; 24)</text>
</g>
<!-- n33 (0.00 &#45; 33)&#45;&gt;n32 (0.00 &#45; 24) -->
<g id="edge12" class="edge"><title>n33 (0.00 &#45; 33)&#45;&gt;n32 (0.00 &#45; 24)</title>
<path fill="none" stroke="black" d="M636.618,-829.913C680.044,-817.992 746.45,-799.763 793.114,-786.954"/>
<polygon fill="black" stroke="black" points="794.334,-790.248 803.05,-784.226 792.481,-783.498 794.334,-790.248"/>
</g>
<!-- ACCURACY -->
<g id="node9" class="node"><title>ACCURACY</title>
<ellipse fill="none" stroke="black" cx="523.491" cy="-679.55" rx="59.5901" ry="18"/>
<text text-anchor="middle" x="523.491" y="-675.85" font-family="Times,serif" font-size="14.00">ACCURACY</text>
</g>
<!-- n27 (0.14 &#45; 9)&#45;&gt;ACCURACY -->
<g id="edge8" class="edge"><title>n27 (0.14 &#45; 9)&#45;&gt;ACCURACY</title>
<path fill="none" stroke="black" d="M579.513,-753.197C569.104,-739.699 554.344,-720.559 542.587,-705.313"/>
<polygon fill="black" stroke="black" points="545.29,-703.086 536.412,-697.304 539.747,-707.36 545.29,-703.086"/>
</g>
<!-- n14 (0.84 &#45; 8) -->
<g id="node10" class="node"><title>n14 (0.84 &#45; 8)</title>
<ellipse fill="none" stroke="black" cx="661.491" cy="-679.55" rx="59.5901" ry="18"/>
<text text-anchor="middle" x="661.491" y="-675.85" font-family="Times,serif" font-size="14.00">n14 (0.84 &#45; 8)</text>
</g>
<!-- n27 (0.14 &#45; 9)&#45;&gt;n14 (0.84 &#45; 8) -->
<g id="edge9" class="edge"><title>n27 (0.14 &#45; 9)&#45;&gt;n14 (0.84 &#45; 8)</title>
<path fill="none" stroke="black" d="M605.47,-753.197C615.878,-739.699 630.638,-720.559 642.395,-705.313"/>
<polygon fill="black" stroke="black" points="645.236,-707.36 648.571,-697.304 639.693,-703.086 645.236,-707.36"/>
</g>
<!-- YULE_Y\nYULE_Q\nODDS_RATIO\nRELATIVE_RISK -->
<g id="node11" class="node"><title>YULE_Y\nYULE_Q\nODDS_RATIO\nRELATIVE_RISK</title>
<ellipse fill="none" stroke="black" cx="514.491" cy="-557.99" rx="84.7059" ry="48.1667"/>
<text text-anchor="middle" x="514.491" y="-576.79" font-family="Times,serif" font-size="14.00">YULE_Y</text>
<text text-anchor="middle" x="514.491" y="-561.79" font-family="Times,serif" font-size="14.00">YULE_Q</text>
<text text-anchor="middle" x="514.491" y="-546.79" font-family="Times,serif" font-size="14.00">ODDS_RATIO</text>
<text text-anchor="middle" x="514.491" y="-531.79" font-family="Times,serif" font-size="14.00">RELATIVE_RISK</text>
</g>
<!-- n14 (0.84 &#45; 8)&#45;&gt;YULE_Y\nYULE_Q\nODDS_RATIO\nRELATIVE_RISK -->
<g id="edge10" class="edge"><title>n14 (0.84 &#45; 8)&#45;&gt;YULE_Y\nYULE_Q\nODDS_RATIO\nRELATIVE_RISK</title>
<path fill="none" stroke="black" d="M641.666,-662.425C623.422,-647.587 595.475,-624.857 570.422,-604.48"/>
<polygon fill="black" stroke="black" points="572.372,-601.554 562.405,-597.96 567.955,-606.985 572.372,-601.554"/>
</g>
<!-- ODD_MULTIPLIER\nZHANG\nBAYES\nLIFT -->
<g id="node12" class="node"><title>ODD_MULTIPLIER\nZHANG\nBAYES\nLIFT</title>
<ellipse fill="none" stroke="black" cx="712.491" cy="-557.99" rx="94.5053" ry="48.1667"/>
<text text-anchor="middle" x="712.491" y="-576.79" font-family="Times,serif" font-size="14.00">ODD_MULTIPLIER</text>
<text text-anchor="middle" x="712.491" y="-561.79" font-family="Times,serif" font-size="14.00">ZHANG</text>
<text text-anchor="middle" x="712.491" y="-546.79" font-family="Times,serif" font-size="14.00">BAYES</text>
<text text-anchor="middle" x="712.491" y="-531.79" font-family="Times,serif" font-size="14.00">LIFT</text>
</g>
<!-- n14 (0.84 &#45; 8)&#45;&gt;ODD_MULTIPLIER\nZHANG\nBAYES\nLIFT -->
<g id="edge11" class="edge"><title>n14 (0.84 &#45; 8)&#45;&gt;ODD_MULTIPLIER\nZHANG\nBAYES\nLIFT</title>
<path fill="none" stroke="black" d="M668.69,-661.673C673.972,-649.29 681.469,-631.717 688.77,-614.601"/>
<polygon fill="black" stroke="black" points="692.086,-615.746 692.791,-605.175 685.648,-613 692.086,-615.746"/>
</g>
<!-- LOEVINGER\nCONVICTION\nCERTAINTY_FACTOR -->
<g id="node14" class="node"><title>LOEVINGER\nCONVICTION\nCERTAINTY_FACTOR</title>
<ellipse fill="none" stroke="black" cx="847.491" cy="-679.55" rx="108.375" ry="37.4533"/>
<text text-anchor="middle" x="847.491" y="-690.85" font-family="Times,serif" font-size="14.00">LOEVINGER</text>
<text text-anchor="middle" x="847.491" y="-675.85" font-family="Times,serif" font-size="14.00">CONVICTION</text>
<text text-anchor="middle" x="847.491" y="-660.85" font-family="Times,serif" font-size="14.00">CERTAINTY_FACTOR</text>
</g>
<!-- n32 (0.00 &#45; 24)&#45;&gt;LOEVINGER\nCONVICTION\nCERTAINTY_FACTOR -->
<g id="edge13" class="edge"><title>n32 (0.00 &#45; 24)&#45;&gt;LOEVINGER\nCONVICTION\nCERTAINTY_FACTOR</title>
<path fill="none" stroke="black" d="M847.491,-752.774C847.491,-745.469 847.491,-736.567 847.491,-727.542"/>
<polygon fill="black" stroke="black" points="850.991,-727.379 847.491,-717.379 843.991,-727.379 850.991,-727.379"/>
</g>
<!-- n31 (0.00 &#45; 21) -->
<g id="node15" class="node"><title>n31 (0.00 &#45; 21)</title>
<ellipse fill="none" stroke="black" cx="1038.49" cy="-679.55" rx="64.189" ry="18"/>
<text text-anchor="middle" x="1038.49" y="-675.85" font-family="Times,serif" font-size="14.00">n31 (0.00 &#45; 21)</text>
</g>
<!-- n32 (0.00 &#45; 24)&#45;&gt;n31 (0.00 &#45; 21) -->
<g id="edge14" class="edge"><title>n32 (0.00 &#45; 24)&#45;&gt;n31 (0.00 &#45; 21)</title>
<path fill="none" stroke="black" d="M880.404,-755.462C903.922,-744.971 936.268,-730.371 964.491,-717.026 975.822,-711.669 988.052,-705.713 999.243,-700.193"/>
<polygon fill="black" stroke="black" points="1000.95,-703.255 1008.36,-695.681 997.841,-696.981 1000.95,-703.255"/>
</g>
<!-- n30 (0.00 &#45; 7) -->
<g id="node16" class="node"><title>n30 (0.00 &#45; 7)</title>
<ellipse fill="none" stroke="black" cx="987.491" cy="-557.99" rx="59.5901" ry="18"/>
<text text-anchor="middle" x="987.491" y="-554.29" font-family="Times,serif" font-size="14.00">n30 (0.00 &#45; 7)</text>
</g>
<!-- n31 (0.00 &#45; 21)&#45;&gt;n30 (0.00 &#45; 7) -->
<g id="edge15" class="edge"><title>n31 (0.00 &#45; 21)&#45;&gt;n30 (0.00 &#45; 7)</title>
<path fill="none" stroke="black" d="M1031.18,-661.42C1022.7,-641.533 1008.61,-608.505 998.733,-585.343"/>
<polygon fill="black" stroke="black" points="1001.93,-583.913 994.785,-576.088 995.489,-586.66 1001.93,-583.913"/>
</g>
<!-- n28 (0.03 &#45; 14) -->
<g id="node23" class="node"><title>n28 (0.03 &#45; 14)</title>
<ellipse fill="none" stroke="black" cx="1202.49" cy="-557.99" rx="64.189" ry="18"/>
<text text-anchor="middle" x="1202.49" y="-554.29" font-family="Times,serif" font-size="14.00">n28 (0.03 &#45; 14)</text>
</g>
<!-- n31 (0.00 &#45; 21)&#45;&gt;n28 (0.03 &#45; 14) -->
<g id="edge22" class="edge"><title>n31 (0.00 &#45; 21)&#45;&gt;n28 (0.03 &#45; 14)</title>
<path fill="none" stroke="black" d="M1060.61,-662.425C1089.42,-641.42 1139.92,-604.603 1172.26,-581.031"/>
<polygon fill="black" stroke="black" points="1174.44,-583.769 1180.46,-575.049 1170.32,-578.112 1174.44,-583.769"/>
</g>
<!-- n29 (0.01 &#45; 3) -->
<g id="node17" class="node"><title>n29 (0.01 &#45; 3)</title>
<ellipse fill="none" stroke="black" cx="772.491" cy="-425.823" rx="59.5901" ry="18"/>
<text text-anchor="middle" x="772.491" y="-422.123" font-family="Times,serif" font-size="14.00">n29 (0.01 &#45; 3)</text>
</g>
<!-- n30 (0.00 &#45; 7)&#45;&gt;n29 (0.01 &#45; 3) -->
<g id="edge16" class="edge"><title>n30 (0.00 &#45; 7)&#45;&gt;n29 (0.01 &#45; 3)</title>
<path fill="none" stroke="black" d="M959.652,-542.029C929.98,-525.88 881.816,-499.08 841.491,-473.907 828.622,-465.873 814.749,-456.543 802.841,-448.317"/>
<polygon fill="black" stroke="black" points="804.768,-445.394 794.56,-442.558 800.771,-451.141 804.768,-445.394"/>
</g>
<!-- LEVERAGE\nCOUNTER_EXAMPLE_RATE\nSEBAG_SCHOENAUER\nCONFIDENCE -->
<g id="node22" class="node"><title>LEVERAGE\nCOUNTER_EXAMPLE_RATE\nSEBAG_SCHOENAUER\nCONFIDENCE</title>
<ellipse fill="none" stroke="black" cx="987.491" cy="-425.823" rx="137.358" ry="48.1667"/>
<text text-anchor="middle" x="987.491" y="-444.623" font-family="Times,serif" font-size="14.00">LEVERAGE</text>
<text text-anchor="middle" x="987.491" y="-429.623" font-family="Times,serif" font-size="14.00">COUNTER_EXAMPLE_RATE</text>
<text text-anchor="middle" x="987.491" y="-414.623" font-family="Times,serif" font-size="14.00">SEBAG_SCHOENAUER</text>
<text text-anchor="middle" x="987.491" y="-399.623" font-family="Times,serif" font-size="14.00">CONFIDENCE</text>
</g>
<!-- n30 (0.00 &#45; 7)&#45;&gt;LEVERAGE\nCOUNTER_EXAMPLE_RATE\nSEBAG_SCHOENAUER\nCONFIDENCE -->
<g id="edge21" class="edge"><title>n30 (0.00 &#45; 7)&#45;&gt;LEVERAGE\nCOUNTER_EXAMPLE_RATE\nSEBAG_SCHOENAUER\nCONFIDENCE</title>
<path fill="none" stroke="black" d="M987.491,-539.973C987.491,-525.706 987.491,-504.478 987.491,-484.25"/>
<polygon fill="black" stroke="black" points="990.991,-484.121 987.491,-474.121 983.991,-484.121 990.991,-484.121"/>
</g>
<!-- RECALL -->
<g id="node18" class="node"><title>RECALL</title>
<ellipse fill="none" stroke="black" cx="672.491" cy="-323.74" rx="44.6926" ry="18"/>
<text text-anchor="middle" x="672.491" y="-320.04" font-family="Times,serif" font-size="14.00">RECALL</text>
</g>
<!-- n29 (0.01 &#45; 3)&#45;&gt;RECALL -->
<g id="edge17" class="edge"><title>n29 (0.01 &#45; 3)&#45;&gt;RECALL</title>
<path fill="none" stroke="black" d="M755.978,-408.297C739.572,-391.876 714.263,-366.546 695.81,-348.078"/>
<polygon fill="black" stroke="black" points="697.912,-345.23 688.368,-340.63 692.96,-350.178 697.912,-345.23"/>
</g>
<!-- n26 (0.30 &#45; 2) -->
<g id="node19" class="node"><title>n26 (0.30 &#45; 2)</title>
<ellipse fill="none" stroke="black" cx="795.491" cy="-323.74" rx="59.5901" ry="18"/>
<text text-anchor="middle" x="795.491" y="-320.04" font-family="Times,serif" font-size="14.00">n26 (0.30 &#45; 2)</text>
</g>
<!-- n29 (0.01 &#45; 3)&#45;&gt;n26 (0.30 &#45; 2) -->
<g id="edge18" class="edge"><title>n29 (0.01 &#45; 3)&#45;&gt;n26 (0.30 &#45; 2)</title>
<path fill="none" stroke="black" d="M776.393,-407.846C779.929,-392.461 785.198,-369.53 789.307,-351.65"/>
<polygon fill="black" stroke="black" points="792.742,-352.331 791.571,-341.801 785.92,-350.763 792.742,-352.331"/>
</g>
<!-- COLLECTIVE_STRENGH -->
<g id="node20" class="node"><title>COLLECTIVE_STRENGH</title>
<ellipse fill="none" stroke="black" cx="702.491" cy="-251.74" rx="109.681" ry="18"/>
<text text-anchor="middle" x="702.491" y="-248.04" font-family="Times,serif" font-size="14.00">COLLECTIVE_STRENGH</text>
</g>
<!-- n26 (0.30 &#45; 2)&#45;&gt;COLLECTIVE_STRENGH -->
<g id="edge19" class="edge"><title>n26 (0.30 &#45; 2)&#45;&gt;COLLECTIVE_STRENGH</title>
<path fill="none" stroke="black" d="M774.388,-306.856C762.139,-297.636 746.499,-285.864 732.935,-275.655"/>
<polygon fill="black" stroke="black" points="734.902,-272.755 724.808,-269.537 730.693,-278.348 734.902,-272.755"/>
</g>
<!-- SPECIFICITY -->
<g id="node21" class="node"><title>SPECIFICITY</title>
<ellipse fill="none" stroke="black" cx="893.491" cy="-251.74" rx="63.0888" ry="18"/>
<text text-anchor="middle" x="893.491" y="-248.04" font-family="Times,serif" font-size="14.00">SPECIFICITY</text>
</g>
<!-- n26 (0.30 &#45; 2)&#45;&gt;SPECIFICITY -->
<g id="edge20" class="edge"><title>n26 (0.30 &#45; 2)&#45;&gt;SPECIFICITY</title>
<path fill="none" stroke="black" d="M817.729,-306.856C831.042,-297.347 848.156,-285.122 862.749,-274.699"/>
<polygon fill="black" stroke="black" points="864.899,-277.464 871.002,-268.804 860.831,-271.768 864.899,-277.464"/>
</g>
<!-- n25 (0.35 &#45; 3) -->
<g id="node24" class="node"><title>n25 (0.35 &#45; 3)</title>
<ellipse fill="none" stroke="black" cx="1202.49" cy="-425.823" rx="59.5901" ry="18"/>
<text text-anchor="middle" x="1202.49" y="-422.123" font-family="Times,serif" font-size="14.00">n25 (0.35 &#45; 3)</text>
</g>
<!-- n28 (0.03 &#45; 14)&#45;&gt;n25 (0.35 &#45; 3) -->
<g id="edge23" class="edge"><title>n28 (0.03 &#45; 14)&#45;&gt;n25 (0.35 &#45; 3)</title>
<path fill="none" stroke="black" d="M1202.49,-539.973C1202.49,-518.145 1202.49,-480.019 1202.49,-454.115"/>
<polygon fill="black" stroke="black" points="1205.99,-453.845 1202.49,-443.845 1198.99,-453.845 1205.99,-453.845"/>
</g>
<!-- n24 (0.39 &#45; 11) -->
<g id="node29" class="node"><title>n24 (0.39 &#45; 11)</title>
<ellipse fill="none" stroke="black" cx="1371.49" cy="-425.823" rx="64.189" ry="18"/>
<text text-anchor="middle" x="1371.49" y="-422.123" font-family="Times,serif" font-size="14.00">n24 (0.39 &#45; 11)</text>
</g>
<!-- n28 (0.03 &#45; 14)&#45;&gt;n24 (0.39 &#45; 11) -->
<g id="edge28" class="edge"><title>n28 (0.03 &#45; 14)&#45;&gt;n24 (0.39 &#45; 11)</title>
<path fill="none" stroke="black" d="M1223.55,-540.767C1253.49,-517.71 1308.46,-475.371 1342.31,-449.301"/>
<polygon fill="black" stroke="black" points="1344.64,-451.92 1350.43,-443.045 1340.37,-446.375 1344.64,-451.92"/>
</g>
<!-- LEAST_CONTRADICTION -->
<g id="node25" class="node"><title>LEAST_CONTRADICTION</title>
<ellipse fill="none" stroke="black" cx="1010.49" cy="-323.74" rx="114.28" ry="18"/>
<text text-anchor="middle" x="1010.49" y="-320.04" font-family="Times,serif" font-size="14.00">LEAST_CONTRADICTION</text>
</g>
<!-- n25 (0.35 &#45; 3)&#45;&gt;LEAST_CONTRADICTION -->
<g id="edge24" class="edge"><title>n25 (0.35 &#45; 3)&#45;&gt;LEAST_CONTRADICTION</title>
<path fill="none" stroke="black" d="M1181.41,-408.878C1168.09,-399.195 1150.27,-386.965 1133.49,-377.74 1110.76,-365.239 1084.48,-353.568 1062.07,-344.378"/>
<polygon fill="black" stroke="black" points="1063.3,-341.102 1052.72,-340.596 1060.67,-347.591 1063.3,-341.102"/>
</g>
<!-- n15 (0.82 &#45; 2) -->
<g id="node26" class="node"><title>n15 (0.82 &#45; 2)</title>
<ellipse fill="none" stroke="black" cx="1202.49" cy="-323.74" rx="59.5901" ry="18"/>
<text text-anchor="middle" x="1202.49" y="-320.04" font-family="Times,serif" font-size="14.00">n15 (0.82 &#45; 2)</text>
</g>
<!-- n25 (0.35 &#45; 3)&#45;&gt;n15 (0.82 &#45; 2) -->
<g id="edge25" class="edge"><title>n25 (0.35 &#45; 3)&#45;&gt;n15 (0.82 &#45; 2)</title>
<path fill="none" stroke="black" d="M1202.49,-407.39C1202.49,-392.178 1202.49,-369.845 1202.49,-352.227"/>
<polygon fill="black" stroke="black" points="1205.99,-351.973 1202.49,-341.974 1198.99,-351.974 1205.99,-351.973"/>
</g>
<!-- COSINE -->
<g id="node27" class="node"><title>COSINE</title>
<ellipse fill="none" stroke="black" cx="1091.49" cy="-251.74" rx="42.4939" ry="18"/>
<text text-anchor="middle" x="1091.49" y="-248.04" font-family="Times,serif" font-size="14.00">COSINE</text>
</g>
<!-- n15 (0.82 &#45; 2)&#45;&gt;COSINE -->
<g id="edge26" class="edge"><title>n15 (0.82 &#45; 2)&#45;&gt;COSINE</title>
<path fill="none" stroke="black" d="M1177.86,-307.205C1161.65,-296.984 1140.29,-283.515 1122.87,-272.529"/>
<polygon fill="black" stroke="black" points="1124.49,-269.414 1114.17,-267.04 1120.76,-275.335 1124.49,-269.414"/>
</g>
<!-- JACCARD -->
<g id="node28" class="node"><title>JACCARD</title>
<ellipse fill="none" stroke="black" cx="1202.49" cy="-251.74" rx="50.8918" ry="18"/>
<text text-anchor="middle" x="1202.49" y="-248.04" font-family="Times,serif" font-size="14.00">JACCARD</text>
</g>
<!-- n15 (0.82 &#45; 2)&#45;&gt;JACCARD -->
<g id="edge27" class="edge"><title>n15 (0.82 &#45; 2)&#45;&gt;JACCARD</title>
<path fill="none" stroke="black" d="M1202.49,-305.437C1202.49,-297.723 1202.49,-288.453 1202.49,-279.853"/>
<polygon fill="black" stroke="black" points="1205.99,-279.844 1202.49,-269.844 1198.99,-279.844 1205.99,-279.844"/>
</g>
<!-- n21 (0.54 &#45; 3) -->
<g id="node30" class="node"><title>n21 (0.54 &#45; 3)</title>
<ellipse fill="none" stroke="black" cx="1371.49" cy="-323.74" rx="59.5901" ry="18"/>
<text text-anchor="middle" x="1371.49" y="-320.04" font-family="Times,serif" font-size="14.00">n21 (0.54 &#45; 3)</text>
</g>
<!-- n24 (0.39 &#45; 11)&#45;&gt;n21 (0.54 &#45; 3) -->
<g id="edge29" class="edge"><title>n24 (0.39 &#45; 11)&#45;&gt;n21 (0.54 &#45; 3)</title>
<path fill="none" stroke="black" d="M1371.49,-407.39C1371.49,-392.178 1371.49,-369.845 1371.49,-352.227"/>
<polygon fill="black" stroke="black" points="1374.99,-351.973 1371.49,-341.974 1367.99,-351.974 1374.99,-351.973"/>
</g>
<!-- n22 (0.53 &#45; 8) -->
<g id="node35" class="node"><title>n22 (0.53 &#45; 8)</title>
<ellipse fill="none" stroke="black" cx="1537.49" cy="-323.74" rx="59.5901" ry="18"/>
<text text-anchor="middle" x="1537.49" y="-320.04" font-family="Times,serif" font-size="14.00">n22 (0.53 &#45; 8)</text>
</g>
<!-- n24 (0.39 &#45; 11)&#45;&gt;n22 (0.53 &#45; 8) -->
<g id="edge34" class="edge"><title>n24 (0.39 &#45; 11)&#45;&gt;n22 (0.53 &#45; 8)</title>
<path fill="none" stroke="black" d="M1397.43,-409.185C1425.9,-392.022 1471.72,-364.394 1503.15,-345.444"/>
<polygon fill="black" stroke="black" points="1505.25,-348.265 1512.01,-340.104 1501.64,-342.27 1505.25,-348.265"/>
</g>
<!-- GINI -->
<g id="node31" class="node"><title>GINI</title>
<ellipse fill="none" stroke="black" cx="1300.49" cy="-251.74" rx="29.4969" ry="18"/>
<text text-anchor="middle" x="1300.49" y="-248.04" font-family="Times,serif" font-size="14.00">GINI</text>
</g>
<!-- n21 (0.54 &#45; 3)&#45;&gt;GINI -->
<g id="edge30" class="edge"><title>n21 (0.54 &#45; 3)&#45;&gt;GINI</title>
<path fill="none" stroke="black" d="M1354.67,-306.151C1345.03,-296.651 1332.83,-284.622 1322.45,-274.386"/>
<polygon fill="black" stroke="black" points="1324.85,-271.839 1315.27,-267.311 1319.93,-276.824 1324.85,-271.839"/>
</g>
<!-- n16 (0.80 &#45; 2) -->
<g id="node32" class="node"><title>n16 (0.80 &#45; 2)</title>
<ellipse fill="none" stroke="black" cx="1407.49" cy="-251.74" rx="59.5901" ry="18"/>
<text text-anchor="middle" x="1407.49" y="-248.04" font-family="Times,serif" font-size="14.00">n16 (0.80 &#45; 2)</text>
</g>
<!-- n21 (0.54 &#45; 3)&#45;&gt;n16 (0.80 &#45; 2) -->
<g id="edge31" class="edge"><title>n21 (0.54 &#45; 3)&#45;&gt;n16 (0.80 &#45; 2)</title>
<path fill="none" stroke="black" d="M1380.21,-305.795C1384.35,-297.747 1389.39,-287.945 1394,-278.966"/>
<polygon fill="black" stroke="black" points="1397.15,-280.509 1398.61,-270.015 1390.92,-277.308 1397.15,-280.509"/>
</g>
<!-- TWO_WAY_SUPPORT -->
<g id="node33" class="node"><title>TWO_WAY_SUPPORT</title>
<ellipse fill="none" stroke="black" cx="1208.49" cy="-179.74" rx="100.182" ry="18"/>
<text text-anchor="middle" x="1208.49" y="-176.04" font-family="Times,serif" font-size="14.00">TWO_WAY_SUPPORT</text>
</g>
<!-- n16 (0.80 &#45; 2)&#45;&gt;TWO_WAY_SUPPORT -->
<g id="edge32" class="edge"><title>n16 (0.80 &#45; 2)&#45;&gt;TWO_WAY_SUPPORT</title>
<path fill="none" stroke="black" d="M1370.06,-237.574C1339.52,-226.832 1296,-211.522 1261.82,-199.498"/>
<polygon fill="black" stroke="black" points="1262.58,-196.058 1251.99,-196.041 1260.26,-202.661 1262.58,-196.058"/>
</g>
<!-- PIATETSKY_SHAPIRO -->
<g id="node34" class="node"><title>PIATETSKY_SHAPIRO</title>
<ellipse fill="none" stroke="black" cx="1427.49" cy="-179.74" rx="100.983" ry="18"/>
<text text-anchor="middle" x="1427.49" y="-176.04" font-family="Times,serif" font-size="14.00">PIATETSKY_SHAPIRO</text>
</g>
<!-- n16 (0.80 &#45; 2)&#45;&gt;PIATETSKY_SHAPIRO -->
<g id="edge33" class="edge"><title>n16 (0.80 &#45; 2)&#45;&gt;PIATETSKY_SHAPIRO</title>
<path fill="none" stroke="black" d="M1412.33,-233.795C1414.56,-226.001 1417.26,-216.562 1419.75,-207.819"/>
<polygon fill="black" stroke="black" points="1423.17,-208.592 1422.56,-198.015 1416.44,-206.669 1423.17,-208.592"/>
</g>
<!-- KLOSGEN -->
<g id="node36" class="node"><title>KLOSGEN</title>
<ellipse fill="none" stroke="black" cx="1537.49" cy="-251.74" rx="51.9908" ry="18"/>
<text text-anchor="middle" x="1537.49" y="-248.04" font-family="Times,serif" font-size="14.00">KLOSGEN</text>
</g>
<!-- n22 (0.53 &#45; 8)&#45;&gt;KLOSGEN -->
<g id="edge35" class="edge"><title>n22 (0.53 &#45; 8)&#45;&gt;KLOSGEN</title>
<path fill="none" stroke="black" d="M1537.49,-305.437C1537.49,-297.723 1537.49,-288.453 1537.49,-279.853"/>
<polygon fill="black" stroke="black" points="1540.99,-279.844 1537.49,-269.844 1533.99,-279.844 1540.99,-279.844"/>
</g>
<!-- n20 (0.59 &#45; 7) -->
<g id="node37" class="node"><title>n20 (0.59 &#45; 7)</title>
<ellipse fill="none" stroke="black" cx="1667.49" cy="-251.74" rx="59.5901" ry="18"/>
<text text-anchor="middle" x="1667.49" y="-248.04" font-family="Times,serif" font-size="14.00">n20 (0.59 &#45; 7)</text>
</g>
<!-- n22 (0.53 &#45; 8)&#45;&gt;n20 (0.59 &#45; 7) -->
<g id="edge36" class="edge"><title>n22 (0.53 &#45; 8)&#45;&gt;n20 (0.59 &#45; 7)</title>
<path fill="none" stroke="black" d="M1565.38,-307.723C1584.49,-297.435 1610.03,-283.682 1630.78,-272.505"/>
<polygon fill="black" stroke="black" points="1632.5,-275.555 1639.65,-267.732 1629.19,-269.391 1632.5,-275.555"/>
</g>
<!-- n18 (0.68 &#45; 2) -->
<g id="node38" class="node"><title>n18 (0.68 &#45; 2)</title>
<ellipse fill="none" stroke="black" cx="1646.49" cy="-179.74" rx="59.5901" ry="18"/>
<text text-anchor="middle" x="1646.49" y="-176.04" font-family="Times,serif" font-size="14.00">n18 (0.68 &#45; 2)</text>
</g>
<!-- n20 (0.59 &#45; 7)&#45;&gt;n18 (0.68 &#45; 2) -->
<g id="edge37" class="edge"><title>n20 (0.59 &#45; 7)&#45;&gt;n18 (0.68 &#45; 2)</title>
<path fill="none" stroke="black" d="M1662.41,-233.795C1660.07,-226.001 1657.24,-216.562 1654.62,-207.819"/>
<polygon fill="black" stroke="black" points="1657.9,-206.588 1651.67,-198.015 1651.2,-208.599 1657.9,-206.588"/>
</g>
<!-- n17 (0.77 &#45; 5) -->
<g id="node41" class="node"><title>n17 (0.77 &#45; 5)</title>
<ellipse fill="none" stroke="black" cx="1784.49" cy="-179.74" rx="59.5901" ry="18"/>
<text text-anchor="middle" x="1784.49" y="-176.04" font-family="Times,serif" font-size="14.00">n17 (0.77 &#45; 5)</text>
</g>
<!-- n20 (0.59 &#45; 7)&#45;&gt;n17 (0.77 &#45; 5) -->
<g id="edge40" class="edge"><title>n20 (0.59 &#45; 7)&#45;&gt;n17 (0.77 &#45; 5)</title>
<path fill="none" stroke="black" d="M1693.17,-235.378C1709.93,-225.348 1732.01,-212.137 1750.26,-201.218"/>
<polygon fill="black" stroke="black" points="1752.09,-204.204 1758.88,-196.066 1748.5,-198.197 1752.09,-204.204"/>
</g>
<!-- IMPLICATION_INDEX -->
<g id="node39" class="node"><title>IMPLICATION_INDEX</title>
<ellipse fill="none" stroke="black" cx="1493.49" cy="-107.74" rx="100.182" ry="18"/>
<text text-anchor="middle" x="1493.49" y="-104.04" font-family="Times,serif" font-size="14.00">IMPLICATION_INDEX</text>
</g>
<!-- n18 (0.68 &#45; 2)&#45;&gt;IMPLICATION_INDEX -->
<g id="edge38" class="edge"><title>n18 (0.68 &#45; 2)&#45;&gt;IMPLICATION_INDEX</title>
<path fill="none" stroke="black" d="M1615.16,-164.406C1592.76,-154.155 1562.3,-140.221 1537.46,-128.858"/>
<polygon fill="black" stroke="black" points="1538.8,-125.62 1528.25,-124.642 1535.89,-131.985 1538.8,-125.62"/>
</g>
<!-- KAPPA -->
<g id="node40" class="node"><title>KAPPA</title>
<ellipse fill="none" stroke="black" cx="1651.49" cy="-107.74" rx="39.7935" ry="18"/>
<text text-anchor="middle" x="1651.49" y="-104.04" font-family="Times,serif" font-size="14.00">KAPPA</text>
</g>
<!-- n18 (0.68 &#45; 2)&#45;&gt;KAPPA -->
<g id="edge39" class="edge"><title>n18 (0.68 &#45; 2)&#45;&gt;KAPPA</title>
<path fill="none" stroke="black" d="M1647.73,-161.437C1648.28,-153.723 1648.94,-144.453 1649.55,-135.853"/>
<polygon fill="black" stroke="black" points="1653.05,-136.068 1650.27,-125.844 1646.07,-135.57 1653.05,-136.068"/>
</g>
<!-- n13 (0.86 &#45; 2) -->
<g id="node42" class="node"><title>n13 (0.86 &#45; 2)</title>
<ellipse fill="none" stroke="black" cx="1778.49" cy="-107.74" rx="59.5901" ry="18"/>
<text text-anchor="middle" x="1778.49" y="-104.04" font-family="Times,serif" font-size="14.00">n13 (0.86 &#45; 2)</text>
</g>
<!-- n17 (0.77 &#45; 5)&#45;&gt;n13 (0.86 &#45; 2) -->
<g id="edge41" class="edge"><title>n17 (0.77 &#45; 5)&#45;&gt;n13 (0.86 &#45; 2)</title>
<path fill="none" stroke="black" d="M1783.01,-161.437C1782.35,-153.723 1781.55,-144.453 1780.82,-135.853"/>
<polygon fill="black" stroke="black" points="1784.3,-135.509 1779.96,-125.844 1777.32,-136.107 1784.3,-135.509"/>
</g>
<!-- n12 (0.87 &#45; 3) -->
<g id="node45" class="node"><title>n12 (0.87 &#45; 3)</title>
<ellipse fill="none" stroke="black" cx="1930.49" cy="-107.74" rx="59.5901" ry="18"/>
<text text-anchor="middle" x="1930.49" y="-104.04" font-family="Times,serif" font-size="14.00">n12 (0.87 &#45; 3)</text>
</g>
<!-- n17 (0.77 &#45; 5)&#45;&gt;n12 (0.87 &#45; 3) -->
<g id="edge44" class="edge"><title>n17 (0.77 &#45; 5)&#45;&gt;n12 (0.87 &#45; 3)</title>
<path fill="none" stroke="black" d="M1815.1,-164.066C1837.17,-153.484 1867.15,-139.108 1891.03,-127.662"/>
<polygon fill="black" stroke="black" points="1892.67,-130.754 1900.18,-123.275 1889.65,-124.442 1892.67,-130.754"/>
</g>
<!-- PHI -->
<g id="node43" class="node"><title>PHI</title>
<ellipse fill="none" stroke="black" cx="1665.49" cy="-26.8701" rx="27" ry="18"/>
<text text-anchor="middle" x="1665.49" y="-23.1701" font-family="Times,serif" font-size="14.00">PHI</text>
</g>
<!-- n13 (0.86 &#45; 2)&#45;&gt;PHI -->
<g id="edge42" class="edge"><title>n13 (0.86 &#45; 2)&#45;&gt;PHI</title>
<path fill="none" stroke="black" d="M1755.5,-91.0912C1740.15,-80.602 1719.54,-66.4376 1701.49,-53.7401 1698.19,-51.4155 1694.72,-48.9564 1691.3,-46.5156"/>
<polygon fill="black" stroke="black" points="1693.18,-43.5568 1683.02,-40.5734 1689.11,-49.2453 1693.18,-43.5568"/>
</g>
<!-- FISHER_PVAL -->
<g id="node44" class="node"><title>FISHER_PVAL</title>
<ellipse fill="none" stroke="black" cx="1778.49" cy="-26.8701" rx="68.4888" ry="18"/>
<text text-anchor="middle" x="1778.49" y="-23.1701" font-family="Times,serif" font-size="14.00">FISHER_PVAL</text>
</g>
<!-- n13 (0.86 &#45; 2)&#45;&gt;FISHER_PVAL -->
<g id="edge43" class="edge"><title>n13 (0.86 &#45; 2)&#45;&gt;FISHER_PVAL</title>
<path fill="none" stroke="black" d="M1778.49,-89.6265C1778.49,-79.6013 1778.49,-66.7063 1778.49,-55.2947"/>
<polygon fill="black" stroke="black" points="1781.99,-54.9503 1778.49,-44.9503 1774.99,-54.9503 1781.99,-54.9503"/>
</g>
<!-- CHI_SQUARE -->
<g id="node46" class="node"><title>CHI_SQUARE</title>
<ellipse fill="none" stroke="black" cx="1930.49" cy="-26.8701" rx="65.7887" ry="18"/>
<text text-anchor="middle" x="1930.49" y="-23.1701" font-family="Times,serif" font-size="14.00">CHI_SQUARE</text>
</g>
<!-- n12 (0.87 &#45; 3)&#45;&gt;CHI_SQUARE -->
<g id="edge45" class="edge"><title>n12 (0.87 &#45; 3)&#45;&gt;CHI_SQUARE</title>
<path fill="none" stroke="black" d="M1930.49,-89.6265C1930.49,-79.6013 1930.49,-66.7063 1930.49,-55.2947"/>
<polygon fill="black" stroke="black" points="1933.99,-54.9503 1930.49,-44.9503 1926.99,-54.9503 1933.99,-54.9503"/>
</g>
<!-- TWO_WAY_SUPPORT_VARIATION\nJ_MEASURE -->
<g id="node47" class="node"><title>TWO_WAY_SUPPORT_VARIATION\nJ_MEASURE</title>
<ellipse fill="none" stroke="black" cx="2181.49" cy="-26.8701" rx="166.754" ry="26.7407"/>
<text text-anchor="middle" x="2181.49" y="-30.6701" font-family="Times,serif" font-size="14.00">TWO_WAY_SUPPORT_VARIATION</text>
<text text-anchor="middle" x="2181.49" y="-15.6701" font-family="Times,serif" font-size="14.00">J_MEASURE</text>
</g>
<!-- n12 (0.87 &#45; 3)&#45;&gt;TWO_WAY_SUPPORT_VARIATION\nJ_MEASURE -->
<g id="edge46" class="edge"><title>n12 (0.87 &#45; 3)&#45;&gt;TWO_WAY_SUPPORT_VARIATION\nJ_MEASURE</title>
<path fill="none" stroke="black" d="M1970.26,-94.2429C2004.51,-83.4811 2055.08,-67.5924 2098.15,-54.0587"/>
<polygon fill="black" stroke="black" points="2099.29,-57.3685 2107.78,-51.0317 2097.19,-50.6905 2099.29,-57.3685"/>
</g>
</g>
</svg>
