<?xml version="1.0" encoding="UTF-8" standalone="no"?>
<!DOCTYPE svg PUBLIC "-//W3C//DTD SVG 1.1//EN"
 "http://www.w3.org/Graphics/SVG/1.1/DTD/svg11.dtd">
<!-- Generated by graphviz version 2.38.0 (20140413.2041)
 -->
<!-- Title: dendrogram Pages: 1 -->
<svg width="1198pt" height="886pt"
 viewBox="0.00 0.00 1198.28 886.37" xmlns="http://www.w3.org/2000/svg" xmlns:xlink="http://www.w3.org/1999/xlink">
<g id="graph0" class="graph" transform="scale(1 1) rotate(0) translate(4 882.372)">
<title>dendrogram</title>
<polygon fill="white" stroke="none" points="-4,4 -4,-882.372 1194.28,-882.372 1194.28,4 -4,4"/>
<!-- n34 (0.06 &#45; 36) -->
<g id="node1" class="node"><title>n34 (0.06 &#45; 36)</title>
<ellipse fill="none" stroke="black" cx="396.696" cy="-860.372" rx="64.189" ry="18"/>
<text text-anchor="middle" x="396.696" y="-856.672" font-family="Times,serif" font-size="14.00">n34 (0.06 &#45; 36)</text>
</g>
<!-- n32 (0.31 &#45; 16) -->
<g id="node2" class="node"><title>n32 (0.31 &#45; 16)</title>
<ellipse fill="none" stroke="black" cx="293.696" cy="-788.372" rx="64.189" ry="18"/>
<text text-anchor="middle" x="293.696" y="-784.672" font-family="Times,serif" font-size="14.00">n32 (0.31 &#45; 16)</text>
</g>
<!-- n34 (0.06 &#45; 36)&#45;&gt;n32 (0.31 &#45; 16) -->
<g id="edge1" class="edge"><title>n34 (0.06 &#45; 36)&#45;&gt;n32 (0.31 &#45; 16)</title>
<path fill="none" stroke="black" d="M373.323,-843.488C359.1,-833.822 340.749,-821.35 325.249,-810.816"/>
<polygon fill="black" stroke="black" points="327.213,-807.919 316.975,-805.193 323.279,-813.709 327.213,-807.919"/>
</g>
<!-- n33 (0.23 &#45; 20) -->
<g id="node21" class="node"><title>n33 (0.23 &#45; 20)</title>
<ellipse fill="none" stroke="black" cx="500.696" cy="-788.372" rx="64.189" ry="18"/>
<text text-anchor="middle" x="500.696" y="-784.672" font-family="Times,serif" font-size="14.00">n33 (0.23 &#45; 20)</text>
</g>
<!-- n34 (0.06 &#45; 36)&#45;&gt;n33 (0.23 &#45; 20) -->
<g id="edge20" class="edge"><title>n34 (0.06 &#45; 36)&#45;&gt;n33 (0.23 &#45; 20)</title>
<path fill="none" stroke="black" d="M420.295,-843.488C434.656,-833.822 453.185,-821.35 468.836,-810.816"/>
<polygon fill="black" stroke="black" points="470.848,-813.68 477.19,-805.193 466.939,-807.873 470.848,-813.68"/>
</g>
<!-- n29 (0.54 &#45; 2) -->
<g id="node3" class="node"><title>n29 (0.54 &#45; 2)</title>
<ellipse fill="none" stroke="black" cx="151.696" cy="-537.796" rx="59.5901" ry="18"/>
<text text-anchor="middle" x="151.696" y="-534.096" font-family="Times,serif" font-size="14.00">n29 (0.54 &#45; 2)</text>
</g>
<!-- n32 (0.31 &#45; 16)&#45;&gt;n29 (0.54 &#45; 2) -->
<g id="edge2" class="edge"><title>n32 (0.31 &#45; 16)&#45;&gt;n29 (0.54 &#45; 2)</title>
<path fill="none" stroke="black" d="M264.748,-772.045C249.799,-762.858 232.309,-749.937 220.696,-734.372 181.743,-682.163 163.386,-606.072 155.968,-565.928"/>
<polygon fill="black" stroke="black" points="159.374,-565.082 154.197,-555.838 152.479,-566.293 159.374,-565.082"/>
</g>
<!-- n31 (0.37 &#45; 14) -->
<g id="node6" class="node"><title>n31 (0.37 &#45; 14)</title>
<ellipse fill="none" stroke="black" cx="293.696" cy="-537.796" rx="64.189" ry="18"/>
<text text-anchor="middle" x="293.696" y="-534.096" font-family="Times,serif" font-size="14.00">n31 (0.37 &#45; 14)</text>
</g>
<!-- n32 (0.31 &#45; 16)&#45;&gt;n31 (0.37 &#45; 14) -->
<g id="edge5" class="edge"><title>n32 (0.31 &#45; 16)&#45;&gt;n31 (0.37 &#45; 14)</title>
<path fill="none" stroke="black" d="M293.696,-770.286C293.696,-727.891 293.696,-617.584 293.696,-566.058"/>
<polygon fill="black" stroke="black" points="297.196,-566.001 293.696,-556.001 290.196,-566.001 297.196,-566.001"/>
</g>
<!-- JACCARD -->
<g id="node4" class="node"><title>JACCARD</title>
<ellipse fill="none" stroke="black" cx="50.6955" cy="-287.22" rx="50.8918" ry="18"/>
<text text-anchor="middle" x="50.6955" y="-283.52" font-family="Times,serif" font-size="14.00">JACCARD</text>
</g>
<!-- n29 (0.54 &#45; 2)&#45;&gt;JACCARD -->
<g id="edge3" class="edge"><title>n29 (0.54 &#45; 2)&#45;&gt;JACCARD</title>
<path fill="none" stroke="black" d="M144.753,-519.71C127.414,-477.035 82.1146,-365.547 61.3606,-314.469"/>
<polygon fill="black" stroke="black" points="64.5596,-313.044 57.5527,-305.097 58.0745,-315.679 64.5596,-313.044"/>
</g>
<!-- KAPPA -->
<g id="node5" class="node"><title>KAPPA</title>
<ellipse fill="none" stroke="black" cx="158.696" cy="-287.22" rx="39.7935" ry="18"/>
<text text-anchor="middle" x="158.696" y="-283.52" font-family="Times,serif" font-size="14.00">KAPPA</text>
</g>
<!-- n29 (0.54 &#45; 2)&#45;&gt;KAPPA -->
<g id="edge4" class="edge"><title>n29 (0.54 &#45; 2)&#45;&gt;KAPPA</title>
<path fill="none" stroke="black" d="M152.177,-519.71C153.371,-477.315 156.477,-367.009 157.928,-315.483"/>
<polygon fill="black" stroke="black" points="161.428,-315.52 158.211,-305.426 154.431,-315.323 161.428,-315.52"/>
</g>
<!-- n26 (0.82 &#45; 3) -->
<g id="node7" class="node"><title>n26 (0.82 &#45; 3)</title>
<ellipse fill="none" stroke="black" cx="281.696" cy="-287.22" rx="59.5901" ry="18"/>
<text text-anchor="middle" x="281.696" y="-283.52" font-family="Times,serif" font-size="14.00">n26 (0.82 &#45; 3)</text>
</g>
<!-- n31 (0.37 &#45; 14)&#45;&gt;n26 (0.82 &#45; 3) -->
<g id="edge6" class="edge"><title>n31 (0.37 &#45; 14)&#45;&gt;n26 (0.82 &#45; 3)</title>
<path fill="none" stroke="black" d="M292.871,-519.71C290.824,-477.315 285.499,-367.009 283.012,-315.483"/>
<polygon fill="black" stroke="black" points="286.504,-315.245 282.526,-305.426 279.512,-315.583 286.504,-315.245"/>
</g>
<!-- n30 (0.51 &#45; 11) -->
<g id="node10" class="node"><title>n30 (0.51 &#45; 11)</title>
<ellipse fill="none" stroke="black" cx="478.696" cy="-287.22" rx="64.189" ry="18"/>
<text text-anchor="middle" x="478.696" y="-283.52" font-family="Times,serif" font-size="14.00">n30 (0.51 &#45; 11)</text>
</g>
<!-- n31 (0.37 &#45; 14)&#45;&gt;n30 (0.51 &#45; 11) -->
<g id="edge9" class="edge"><title>n31 (0.37 &#45; 14)&#45;&gt;n30 (0.51 &#45; 11)</title>
<path fill="none" stroke="black" d="M295.836,-519.656C301.292,-482.635 318.918,-394.264 367.696,-341.22 383.169,-324.394 405.11,-312.372 425.405,-304.079"/>
<polygon fill="black" stroke="black" points="426.824,-307.283 434.891,-300.415 424.302,-300.753 426.824,-307.283"/>
</g>
<!-- COSINE -->
<g id="node8" class="node"><title>COSINE</title>
<ellipse fill="none" stroke="black" cx="101.696" cy="-206.35" rx="42.4939" ry="18"/>
<text text-anchor="middle" x="101.696" y="-202.65" font-family="Times,serif" font-size="14.00">COSINE</text>
</g>
<!-- n26 (0.82 &#45; 3)&#45;&gt;COSINE -->
<g id="edge7" class="edge"><title>n26 (0.82 &#45; 3)&#45;&gt;COSINE</title>
<path fill="none" stroke="black" d="M246.33,-272.57C220.224,-262.282 183.952,-247.541 152.696,-233.22 147.318,-230.757 141.681,-228.038 136.197,-225.318"/>
<polygon fill="black" stroke="black" points="137.691,-222.151 127.185,-220.781 134.543,-228.403 137.691,-222.151"/>
</g>
<!-- COLLECTIVE_STRENGH\nRECALL -->
<g id="node9" class="node"><title>COLLECTIVE_STRENGH\nRECALL</title>
<ellipse fill="none" stroke="black" cx="281.696" cy="-206.35" rx="119.502" ry="26.7407"/>
<text text-anchor="middle" x="281.696" y="-210.15" font-family="Times,serif" font-size="14.00">COLLECTIVE_STRENGH</text>
<text text-anchor="middle" x="281.696" y="-195.15" font-family="Times,serif" font-size="14.00">RECALL</text>
</g>
<!-- n26 (0.82 &#45; 3)&#45;&gt;COLLECTIVE_STRENGH\nRECALL -->
<g id="edge8" class="edge"><title>n26 (0.82 &#45; 3)&#45;&gt;COLLECTIVE_STRENGH\nRECALL</title>
<path fill="none" stroke="black" d="M281.696,-269.107C281.696,-261.617 281.696,-252.526 281.696,-243.648"/>
<polygon fill="black" stroke="black" points="285.196,-243.433 281.696,-233.433 278.196,-243.433 285.196,-243.433"/>
</g>
<!-- n24 (0.87 &#45; 4) -->
<g id="node11" class="node"><title>n24 (0.87 &#45; 4)</title>
<ellipse fill="none" stroke="black" cx="478.696" cy="-206.35" rx="59.5901" ry="18"/>
<text text-anchor="middle" x="478.696" y="-202.65" font-family="Times,serif" font-size="14.00">n24 (0.87 &#45; 4)</text>
</g>
<!-- n30 (0.51 &#45; 11)&#45;&gt;n24 (0.87 &#45; 4) -->
<g id="edge10" class="edge"><title>n30 (0.51 &#45; 11)&#45;&gt;n24 (0.87 &#45; 4)</title>
<path fill="none" stroke="black" d="M478.696,-269.107C478.696,-259.082 478.696,-246.187 478.696,-234.775"/>
<polygon fill="black" stroke="black" points="482.196,-234.43 478.696,-224.431 475.196,-234.431 482.196,-234.43"/>
</g>
<!-- n28 (0.58 &#45; 7) -->
<g id="node14" class="node"><title>n28 (0.58 &#45; 7)</title>
<ellipse fill="none" stroke="black" cx="723.696" cy="-206.35" rx="59.5901" ry="18"/>
<text text-anchor="middle" x="723.696" y="-202.65" font-family="Times,serif" font-size="14.00">n28 (0.58 &#45; 7)</text>
</g>
<!-- n30 (0.51 &#45; 11)&#45;&gt;n28 (0.58 &#45; 7) -->
<g id="edge13" class="edge"><title>n30 (0.51 &#45; 11)&#45;&gt;n28 (0.58 &#45; 7)</title>
<path fill="none" stroke="black" d="M519.152,-273.197C561.824,-259.46 629.075,-237.81 674.716,-223.118"/>
<polygon fill="black" stroke="black" points="675.949,-226.398 684.396,-220.002 673.804,-219.734 675.949,-226.398"/>
</g>
<!-- GINI\nCHI_SQUARE -->
<g id="node12" class="node"><title>GINI\nCHI_SQUARE</title>
<ellipse fill="none" stroke="black" cx="222.696" cy="-116.61" rx="71.3357" ry="26.7407"/>
<text text-anchor="middle" x="222.696" y="-120.41" font-family="Times,serif" font-size="14.00">GINI</text>
<text text-anchor="middle" x="222.696" y="-105.41" font-family="Times,serif" font-size="14.00">CHI_SQUARE</text>
</g>
<!-- n24 (0.87 &#45; 4)&#45;&gt;GINI\nCHI_SQUARE -->
<g id="edge11" class="edge"><title>n24 (0.87 &#45; 4)&#45;&gt;GINI\nCHI_SQUARE</title>
<path fill="none" stroke="black" d="M443.515,-191.616C432.995,-187.604 421.41,-183.279 410.696,-179.48 387.312,-171.19 330.49,-152.566 285.394,-137.904"/>
<polygon fill="black" stroke="black" points="286.266,-134.508 275.674,-134.747 284.103,-141.165 286.266,-134.508"/>
</g>
<!-- TWO_WAY_SUPPORT_VARIATION\nJ_MEASURE -->
<g id="node13" class="node"><title>TWO_WAY_SUPPORT_VARIATION\nJ_MEASURE</title>
<ellipse fill="none" stroke="black" cx="478.696" cy="-116.61" rx="166.754" ry="26.7407"/>
<text text-anchor="middle" x="478.696" y="-120.41" font-family="Times,serif" font-size="14.00">TWO_WAY_SUPPORT_VARIATION</text>
<text text-anchor="middle" x="478.696" y="-105.41" font-family="Times,serif" font-size="14.00">J_MEASURE</text>
</g>
<!-- n24 (0.87 &#45; 4)&#45;&gt;TWO_WAY_SUPPORT_VARIATION\nJ_MEASURE -->
<g id="edge12" class="edge"><title>n24 (0.87 &#45; 4)&#45;&gt;TWO_WAY_SUPPORT_VARIATION\nJ_MEASURE</title>
<path fill="none" stroke="black" d="M478.696,-188.016C478.696,-178.204 478.696,-165.557 478.696,-153.694"/>
<polygon fill="black" stroke="black" points="482.196,-153.562 478.696,-143.562 475.196,-153.562 482.196,-153.562"/>
</g>
<!-- n27 (0.75 &#45; 3) -->
<g id="node15" class="node"><title>n27 (0.75 &#45; 3)</title>
<ellipse fill="none" stroke="black" cx="723.696" cy="-116.61" rx="59.5901" ry="18"/>
<text text-anchor="middle" x="723.696" y="-112.91" font-family="Times,serif" font-size="14.00">n27 (0.75 &#45; 3)</text>
</g>
<!-- n28 (0.58 &#45; 7)&#45;&gt;n27 (0.75 &#45; 3) -->
<g id="edge14" class="edge"><title>n28 (0.58 &#45; 7)&#45;&gt;n27 (0.75 &#45; 3)</title>
<path fill="none" stroke="black" d="M723.696,-188.016C723.696,-175.679 723.696,-158.857 723.696,-144.75"/>
<polygon fill="black" stroke="black" points="727.196,-144.61 723.696,-134.61 720.196,-144.61 727.196,-144.61"/>
</g>
<!-- n25 (0.86 &#45; 4) -->
<g id="node18" class="node"><title>n25 (0.86 &#45; 4)</title>
<ellipse fill="none" stroke="black" cx="925.696" cy="-116.61" rx="59.5901" ry="18"/>
<text text-anchor="middle" x="925.696" y="-112.91" font-family="Times,serif" font-size="14.00">n25 (0.86 &#45; 4)</text>
</g>
<!-- n28 (0.58 &#45; 7)&#45;&gt;n25 (0.86 &#45; 4) -->
<g id="edge17" class="edge"><title>n28 (0.58 &#45; 7)&#45;&gt;n25 (0.86 &#45; 4)</title>
<path fill="none" stroke="black" d="M756.6,-191.058C791.331,-175.972 846.172,-152.152 883.931,-135.751"/>
<polygon fill="black" stroke="black" points="885.362,-138.945 893.14,-131.751 882.573,-132.525 885.362,-138.945"/>
</g>
<!-- IMPLICATION_INDEX -->
<g id="node16" class="node"><title>IMPLICATION_INDEX</title>
<ellipse fill="none" stroke="black" cx="531.696" cy="-26.8701" rx="100.182" ry="18"/>
<text text-anchor="middle" x="531.696" y="-23.1701" font-family="Times,serif" font-size="14.00">IMPLICATION_INDEX</text>
</g>
<!-- n27 (0.75 &#45; 3)&#45;&gt;IMPLICATION_INDEX -->
<g id="edge15" class="edge"><title>n27 (0.75 &#45; 3)&#45;&gt;IMPLICATION_INDEX</title>
<path fill="none" stroke="black" d="M691.991,-101.122C660.312,-86.6452 611.347,-64.269 575.868,-48.0561"/>
<polygon fill="black" stroke="black" points="577.252,-44.8404 566.702,-43.8673 574.343,-51.2071 577.252,-44.8404"/>
</g>
<!-- FISHER_PVAL\nPHI -->
<g id="node17" class="node"><title>FISHER_PVAL\nPHI</title>
<ellipse fill="none" stroke="black" cx="723.696" cy="-26.8701" rx="74.4932" ry="26.7407"/>
<text text-anchor="middle" x="723.696" y="-30.6701" font-family="Times,serif" font-size="14.00">FISHER_PVAL</text>
<text text-anchor="middle" x="723.696" y="-15.6701" font-family="Times,serif" font-size="14.00">PHI</text>
</g>
<!-- n27 (0.75 &#45; 3)&#45;&gt;FISHER_PVAL\nPHI -->
<g id="edge16" class="edge"><title>n27 (0.75 &#45; 3)&#45;&gt;FISHER_PVAL\nPHI</title>
<path fill="none" stroke="black" d="M723.696,-98.2755C723.696,-88.4643 723.696,-75.8168 723.696,-63.9541"/>
<polygon fill="black" stroke="black" points="727.196,-63.8222 723.696,-53.8222 720.196,-63.8222 727.196,-63.8222"/>
</g>
<!-- PIATETSKY_SHAPIRO\nTWO_WAY_SUPPORT -->
<g id="node19" class="node"><title>PIATETSKY_SHAPIRO\nTWO_WAY_SUPPORT</title>
<ellipse fill="none" stroke="black" cx="925.696" cy="-26.8701" rx="109.703" ry="26.7407"/>
<text text-anchor="middle" x="925.696" y="-30.6701" font-family="Times,serif" font-size="14.00">PIATETSKY_SHAPIRO</text>
<text text-anchor="middle" x="925.696" y="-15.6701" font-family="Times,serif" font-size="14.00">TWO_WAY_SUPPORT</text>
</g>
<!-- n25 (0.86 &#45; 4)&#45;&gt;PIATETSKY_SHAPIRO\nTWO_WAY_SUPPORT -->
<g id="edge18" class="edge"><title>n25 (0.86 &#45; 4)&#45;&gt;PIATETSKY_SHAPIRO\nTWO_WAY_SUPPORT</title>
<path fill="none" stroke="black" d="M925.696,-98.2755C925.696,-88.4643 925.696,-75.8168 925.696,-63.9541"/>
<polygon fill="black" stroke="black" points="929.196,-63.8222 925.696,-53.8222 922.196,-63.8222 929.196,-63.8222"/>
</g>
<!-- KLOSGEN\nSPECIFICITY -->
<g id="node20" class="node"><title>KLOSGEN\nSPECIFICITY</title>
<ellipse fill="none" stroke="black" cx="1121.7" cy="-26.8701" rx="68.6788" ry="26.7407"/>
<text text-anchor="middle" x="1121.7" y="-30.6701" font-family="Times,serif" font-size="14.00">KLOSGEN</text>
<text text-anchor="middle" x="1121.7" y="-15.6701" font-family="Times,serif" font-size="14.00">SPECIFICITY</text>
</g>
<!-- n25 (0.86 &#45; 4)&#45;&gt;KLOSGEN\nSPECIFICITY -->
<g id="edge19" class="edge"><title>n25 (0.86 &#45; 4)&#45;&gt;KLOSGEN\nSPECIFICITY</title>
<path fill="none" stroke="black" d="M957.623,-101.318C987.595,-87.9007 1033,-67.5742 1068.45,-51.7035"/>
<polygon fill="black" stroke="black" points="1070.01,-54.8441 1077.7,-47.5636 1067.15,-48.455 1070.01,-54.8441"/>
</g>
<!-- LEAST_CONTRADICTION\nACCURACY -->
<g id="node22" class="node"><title>LEAST_CONTRADICTION\nACCURACY</title>
<ellipse fill="none" stroke="black" cx="500.696" cy="-537.796" rx="124.402" ry="26.7407"/>
<text text-anchor="middle" x="500.696" y="-541.596" font-family="Times,serif" font-size="14.00">LEAST_CONTRADICTION</text>
<text text-anchor="middle" x="500.696" y="-526.596" font-family="Times,serif" font-size="14.00">ACCURACY</text>
</g>
<!-- n33 (0.23 &#45; 20)&#45;&gt;LEAST_CONTRADICTION\nACCURACY -->
<g id="edge21" class="edge"><title>n33 (0.23 &#45; 20)&#45;&gt;LEAST_CONTRADICTION\nACCURACY</title>
<path fill="none" stroke="black" d="M500.696,-770.286C500.696,-730.181 500.696,-629.306 500.696,-574.905"/>
<polygon fill="black" stroke="black" points="504.196,-574.676 500.696,-564.676 497.196,-574.676 504.196,-574.676"/>
</g>
<!-- RELATIVE_RISK\nYULE_Y\nYULE_Q\nODDS_RATIO\nLEVERAGE\nONE_WAY_SUPPORT\nLOEVINGER\nSEBAG_SCHOENAUER\nCONVICTION\nODD_MULTIPLIER\nCOUNTER_EXAMPLE_RATE\nZHANG\nBAYES\nCENTERED_CONFIDENCE\nCERTAINTY_FACTOR\nADDED_VALUE\nLIFT\nCONFIDENCE -->
<g id="node23" class="node"><title>RELATIVE_RISK\nYULE_Y\nYULE_Q\nODDS_RATIO\nLEVERAGE\nONE_WAY_SUPPORT\nLOEVINGER\nSEBAG_SCHOENAUER\nCONVICTION\nODD_MULTIPLIER\nCOUNTER_EXAMPLE_RATE\nZHANG\nBAYES\nCENTERED_CONFIDENCE\nCERTAINTY_FACTOR\nADDED_VALUE\nLIFT\nCONFIDENCE</title>
<ellipse fill="none" stroke="black" cx="780.696" cy="-537.796" rx="137.358" ry="196.651"/>
<text text-anchor="middle" x="780.696" y="-661.596" font-family="Times,serif" font-size="14.00">RELATIVE_RISK</text>
<text text-anchor="middle" x="780.696" y="-646.596" font-family="Times,serif" font-size="14.00">YULE_Y</text>
<text text-anchor="middle" x="780.696" y="-631.596" font-family="Times,serif" font-size="14.00">YULE_Q</text>
<text text-anchor="middle" x="780.696" y="-616.596" font-family="Times,serif" font-size="14.00">ODDS_RATIO</text>
<text text-anchor="middle" x="780.696" y="-601.596" font-family="Times,serif" font-size="14.00">LEVERAGE</text>
<text text-anchor="middle" x="780.696" y="-586.596" font-family="Times,serif" font-size="14.00">ONE_WAY_SUPPORT</text>
<text text-anchor="middle" x="780.696" y="-571.596" font-family="Times,serif" font-size="14.00">LOEVINGER</text>
<text text-anchor="middle" x="780.696" y="-556.596" font-family="Times,serif" font-size="14.00">SEBAG_SCHOENAUER</text>
<text text-anchor="middle" x="780.696" y="-541.596" font-family="Times,serif" font-size="14.00">CONVICTION</text>
<text text-anchor="middle" x="780.696" y="-526.596" font-family="Times,serif" font-size="14.00">ODD_MULTIPLIER</text>
<text text-anchor="middle" x="780.696" y="-511.596" font-family="Times,serif" font-size="14.00">COUNTER_EXAMPLE_RATE</text>
<text text-anchor="middle" x="780.696" y="-496.596" font-family="Times,serif" font-size="14.00">ZHANG</text>
<text text-anchor="middle" x="780.696" y="-481.596" font-family="Times,serif" font-size="14.00">BAYES</text>
<text text-anchor="middle" x="780.696" y="-466.596" font-family="Times,serif" font-size="14.00">CENTERED_CONFIDENCE</text>
<text text-anchor="middle" x="780.696" y="-451.596" font-family="Times,serif" font-size="14.00">CERTAINTY_FACTOR</text>
<text text-anchor="middle" x="780.696" y="-436.596" font-family="Times,serif" font-size="14.00">ADDED_VALUE</text>
<text text-anchor="middle" x="780.696" y="-421.596" font-family="Times,serif" font-size="14.00">LIFT</text>
<text text-anchor="middle" x="780.696" y="-406.596" font-family="Times,serif" font-size="14.00">CONFIDENCE</text>
</g>
<!-- n33 (0.23 &#45; 20)&#45;&gt;RELATIVE_RISK\nYULE_Y\nYULE_Q\nODDS_RATIO\nLEVERAGE\nONE_WAY_SUPPORT\nLOEVINGER\nSEBAG_SCHOENAUER\nCONVICTION\nODD_MULTIPLIER\nCOUNTER_EXAMPLE_RATE\nZHANG\nBAYES\nCENTERED_CONFIDENCE\nCERTAINTY_FACTOR\nADDED_VALUE\nLIFT\nCONFIDENCE -->
<g id="edge22" class="edge"><title>n33 (0.23 &#45; 20)&#45;&gt;RELATIVE_RISK\nYULE_Y\nYULE_Q\nODDS_RATIO\nLEVERAGE\nONE_WAY_SUPPORT\nLOEVINGER\nSEBAG_SCHOENAUER\nCONVICTION\nODD_MULTIPLIER\nCOUNTER_EXAMPLE_RATE\nZHANG\nBAYES\nCENTERED_CONFIDENCE\nCERTAINTY_FACTOR\nADDED_VALUE\nLIFT\nCONFIDENCE</title>
<path fill="none" stroke="black" d="M546.981,-775.756C574.129,-767.358 608.025,-753.997 633.696,-734.372 650.521,-721.508 666.37,-706.235 680.983,-689.981"/>
<polygon fill="black" stroke="black" points="683.632,-692.268 687.609,-682.448 678.376,-687.645 683.632,-692.268"/>
</g>
</g>
</svg>
