<?xml version="1.0" encoding="UTF-8" standalone="no"?>
<!DOCTYPE svg PUBLIC "-//W3C//DTD SVG 1.1//EN"
 "http://www.w3.org/Graphics/SVG/1.1/DTD/svg11.dtd">
<!-- Generated by graphviz version 2.38.0 (20140413.2041)
 -->
<!-- Title: dendrogram Pages: 1 -->
<svg width="2705pt" height="691pt"
 viewBox="0.00 0.00 2705.14 690.57" xmlns="http://www.w3.org/2000/svg" xmlns:xlink="http://www.w3.org/1999/xlink">
<g id="graph0" class="graph" transform="scale(1 1) rotate(0) translate(4 686.566)">
<title>dendrogram</title>
<polygon fill="white" stroke="none" points="-4,4 -4,-686.566 2701.14,-686.566 2701.14,4 -4,4"/>
<!-- n34 (&#45;0.00 &#45; 36) -->
<g id="node1" class="node"><title>n34 (&#45;0.00 &#45; 36)</title>
<ellipse fill="none" stroke="black" cx="1030.39" cy="-664.566" rx="67.6881" ry="18"/>
<text text-anchor="middle" x="1030.39" y="-660.866" font-family="Times,serif" font-size="14.00">n34 (&#45;0.00 &#45; 36)</text>
</g>
<!-- n32 (0.22 &#45; 11) -->
<g id="node2" class="node"><title>n32 (0.22 &#45; 11)</title>
<ellipse fill="none" stroke="black" cx="668.39" cy="-592.566" rx="64.189" ry="18"/>
<text text-anchor="middle" x="668.39" y="-588.866" font-family="Times,serif" font-size="14.00">n32 (0.22 &#45; 11)</text>
</g>
<!-- n34 (&#45;0.00 &#45; 36)&#45;&gt;n32 (0.22 &#45; 11) -->
<g id="edge1" class="edge"><title>n34 (&#45;0.00 &#45; 36)&#45;&gt;n32 (0.22 &#45; 11)</title>
<path fill="none" stroke="black" d="M977.364,-653.312C911.477,-640.571 799.27,-618.874 729.738,-605.428"/>
<polygon fill="black" stroke="black" points="730.282,-601.969 719.799,-603.507 728.953,-608.842 730.282,-601.969"/>
</g>
<!-- n33 (0.13 &#45; 25) -->
<g id="node13" class="node"><title>n33 (0.13 &#45; 25)</title>
<ellipse fill="none" stroke="black" cx="1392.39" cy="-592.566" rx="64.189" ry="18"/>
<text text-anchor="middle" x="1392.39" y="-588.866" font-family="Times,serif" font-size="14.00">n33 (0.13 &#45; 25)</text>
</g>
<!-- n34 (&#45;0.00 &#45; 36)&#45;&gt;n33 (0.13 &#45; 25) -->
<g id="edge12" class="edge"><title>n34 (&#45;0.00 &#45; 36)&#45;&gt;n33 (0.13 &#45; 25)</title>
<path fill="none" stroke="black" d="M1083.42,-653.312C1149.3,-640.571 1261.51,-618.874 1331.04,-605.428"/>
<polygon fill="black" stroke="black" points="1331.83,-608.842 1340.98,-603.507 1330.5,-601.969 1331.83,-608.842"/>
</g>
<!-- n27 (0.84 &#45; 5) -->
<g id="node3" class="node"><title>n27 (0.84 &#45; 5)</title>
<ellipse fill="none" stroke="black" cx="384.39" cy="-520.566" rx="59.5901" ry="18"/>
<text text-anchor="middle" x="384.39" y="-516.866" font-family="Times,serif" font-size="14.00">n27 (0.84 &#45; 5)</text>
</g>
<!-- n32 (0.22 &#45; 11)&#45;&gt;n27 (0.84 &#45; 5) -->
<g id="edge2" class="edge"><title>n32 (0.22 &#45; 11)&#45;&gt;n27 (0.84 &#45; 5)</title>
<path fill="none" stroke="black" d="M621.811,-580.085C571.695,-567.732 492.065,-548.105 439.028,-535.033"/>
<polygon fill="black" stroke="black" points="439.666,-531.585 429.119,-532.59 437.991,-538.382 439.666,-531.585"/>
</g>
<!-- n31 (0.42 &#45; 6) -->
<g id="node6" class="node"><title>n31 (0.42 &#45; 6)</title>
<ellipse fill="none" stroke="black" cx="668.39" cy="-520.566" rx="59.5901" ry="18"/>
<text text-anchor="middle" x="668.39" y="-516.866" font-family="Times,serif" font-size="14.00">n31 (0.42 &#45; 6)</text>
</g>
<!-- n32 (0.22 &#45; 11)&#45;&gt;n31 (0.42 &#45; 6) -->
<g id="edge5" class="edge"><title>n32 (0.22 &#45; 11)&#45;&gt;n31 (0.42 &#45; 6)</title>
<path fill="none" stroke="black" d="M668.39,-574.262C668.39,-566.548 668.39,-557.278 668.39,-548.678"/>
<polygon fill="black" stroke="black" points="671.89,-548.67 668.39,-538.67 664.89,-548.67 671.89,-548.67"/>
</g>
<!-- LEAST_CONTRADICTION -->
<g id="node4" class="node"><title>LEAST_CONTRADICTION</title>
<ellipse fill="none" stroke="black" cx="114.39" cy="-418.482" rx="114.28" ry="18"/>
<text text-anchor="middle" x="114.39" y="-414.782" font-family="Times,serif" font-size="14.00">LEAST_CONTRADICTION</text>
</g>
<!-- n27 (0.84 &#45; 5)&#45;&gt;LEAST_CONTRADICTION -->
<g id="edge3" class="edge"><title>n27 (0.84 &#45; 5)&#45;&gt;LEAST_CONTRADICTION</title>
<path fill="none" stroke="black" d="M347.433,-506.319C317.884,-495.687 275.424,-480.318 238.39,-466.566 214.32,-457.628 187.695,-447.544 165.305,-439.008"/>
<polygon fill="black" stroke="black" points="166.257,-435.625 155.666,-435.329 163.761,-442.164 166.257,-435.625"/>
</g>
<!-- LEVERAGE\nCOUNTER_EXAMPLE_RATE\nSEBAG_SCHOENAUER\nCONFIDENCE -->
<g id="node5" class="node"><title>LEVERAGE\nCOUNTER_EXAMPLE_RATE\nSEBAG_SCHOENAUER\nCONFIDENCE</title>
<ellipse fill="none" stroke="black" cx="384.39" cy="-418.482" rx="137.358" ry="48.1667"/>
<text text-anchor="middle" x="384.39" y="-437.282" font-family="Times,serif" font-size="14.00">LEVERAGE</text>
<text text-anchor="middle" x="384.39" y="-422.282" font-family="Times,serif" font-size="14.00">COUNTER_EXAMPLE_RATE</text>
<text text-anchor="middle" x="384.39" y="-407.282" font-family="Times,serif" font-size="14.00">SEBAG_SCHOENAUER</text>
<text text-anchor="middle" x="384.39" y="-392.282" font-family="Times,serif" font-size="14.00">CONFIDENCE</text>
</g>
<!-- n27 (0.84 &#45; 5)&#45;&gt;LEVERAGE\nCOUNTER_EXAMPLE_RATE\nSEBAG_SCHOENAUER\nCONFIDENCE -->
<g id="edge4" class="edge"><title>n27 (0.84 &#45; 5)&#45;&gt;LEVERAGE\nCOUNTER_EXAMPLE_RATE\nSEBAG_SCHOENAUER\nCONFIDENCE</title>
<path fill="none" stroke="black" d="M384.39,-502.132C384.39,-494.894 384.39,-486.043 384.39,-476.855"/>
<polygon fill="black" stroke="black" points="387.89,-476.813 384.39,-466.813 380.89,-476.813 387.89,-476.813"/>
</g>
<!-- n29 (0.72 &#45; 2) -->
<g id="node7" class="node"><title>n29 (0.72 &#45; 2)</title>
<ellipse fill="none" stroke="black" cx="599.39" cy="-418.482" rx="59.5901" ry="18"/>
<text text-anchor="middle" x="599.39" y="-414.782" font-family="Times,serif" font-size="14.00">n29 (0.72 &#45; 2)</text>
</g>
<!-- n31 (0.42 &#45; 6)&#45;&gt;n29 (0.72 &#45; 2) -->
<g id="edge6" class="edge"><title>n31 (0.42 &#45; 6)&#45;&gt;n29 (0.72 &#45; 2)</title>
<path fill="none" stroke="black" d="M656.685,-502.588C645.715,-486.676 629.179,-462.691 616.687,-444.572"/>
<polygon fill="black" stroke="black" points="619.48,-442.456 610.922,-436.209 613.716,-446.429 619.48,-442.456"/>
</g>
<!-- n25 (0.86 &#45; 4) -->
<g id="node10" class="node"><title>n25 (0.86 &#45; 4)</title>
<ellipse fill="none" stroke="black" cx="737.39" cy="-418.482" rx="59.5901" ry="18"/>
<text text-anchor="middle" x="737.39" y="-414.782" font-family="Times,serif" font-size="14.00">n25 (0.86 &#45; 4)</text>
</g>
<!-- n31 (0.42 &#45; 6)&#45;&gt;n25 (0.86 &#45; 4) -->
<g id="edge9" class="edge"><title>n31 (0.42 &#45; 6)&#45;&gt;n25 (0.86 &#45; 4)</title>
<path fill="none" stroke="black" d="M680.095,-502.588C691.065,-486.676 707.6,-462.691 720.092,-444.572"/>
<polygon fill="black" stroke="black" points="723.063,-446.429 725.858,-436.209 717.3,-442.456 723.063,-446.429"/>
</g>
<!-- COSINE -->
<g id="node8" class="node"><title>COSINE</title>
<ellipse fill="none" stroke="black" cx="488.39" cy="-275.709" rx="42.4939" ry="18"/>
<text text-anchor="middle" x="488.39" y="-272.009" font-family="Times,serif" font-size="14.00">COSINE</text>
</g>
<!-- n29 (0.72 &#45; 2)&#45;&gt;COSINE -->
<g id="edge7" class="edge"><title>n29 (0.72 &#45; 2)&#45;&gt;COSINE</title>
<path fill="none" stroke="black" d="M586.221,-400.781C566.673,-375.99 529.875,-329.321 507.404,-300.824"/>
<polygon fill="black" stroke="black" points="510.139,-298.64 501.199,-292.954 504.643,-302.974 510.139,-298.64"/>
</g>
<!-- JACCARD -->
<g id="node9" class="node"><title>JACCARD</title>
<ellipse fill="none" stroke="black" cx="599.39" cy="-275.709" rx="50.8918" ry="18"/>
<text text-anchor="middle" x="599.39" y="-272.009" font-family="Times,serif" font-size="14.00">JACCARD</text>
</g>
<!-- n29 (0.72 &#45; 2)&#45;&gt;JACCARD -->
<g id="edge8" class="edge"><title>n29 (0.72 &#45; 2)&#45;&gt;JACCARD</title>
<path fill="none" stroke="black" d="M599.39,-400.221C599.39,-376.263 599.39,-332.674 599.39,-304.209"/>
<polygon fill="black" stroke="black" points="602.89,-304.112 599.39,-294.112 595.89,-304.112 602.89,-304.112"/>
</g>
<!-- GINI -->
<g id="node11" class="node"><title>GINI</title>
<ellipse fill="none" stroke="black" cx="697.39" cy="-275.709" rx="29.4969" ry="18"/>
<text text-anchor="middle" x="697.39" y="-272.009" font-family="Times,serif" font-size="14.00">GINI</text>
</g>
<!-- n25 (0.86 &#45; 4)&#45;&gt;GINI -->
<g id="edge10" class="edge"><title>n25 (0.86 &#45; 4)&#45;&gt;GINI</title>
<path fill="none" stroke="black" d="M732.565,-400.502C725.718,-376.404 713.113,-332.046 704.999,-303.489"/>
<polygon fill="black" stroke="black" points="708.332,-302.413 702.232,-293.75 701.598,-304.326 708.332,-302.413"/>
</g>
<!-- CHI_SQUARE\nTWO_WAY_SUPPORT_VARIATION\nJ_MEASURE -->
<g id="node12" class="node"><title>CHI_SQUARE\nTWO_WAY_SUPPORT_VARIATION\nJ_MEASURE</title>
<ellipse fill="none" stroke="black" cx="911.39" cy="-275.709" rx="166.754" ry="37.4533"/>
<text text-anchor="middle" x="911.39" y="-287.009" font-family="Times,serif" font-size="14.00">CHI_SQUARE</text>
<text text-anchor="middle" x="911.39" y="-272.009" font-family="Times,serif" font-size="14.00">TWO_WAY_SUPPORT_VARIATION</text>
<text text-anchor="middle" x="911.39" y="-257.009" font-family="Times,serif" font-size="14.00">J_MEASURE</text>
</g>
<!-- n25 (0.86 &#45; 4)&#45;&gt;CHI_SQUARE\nTWO_WAY_SUPPORT_VARIATION\nJ_MEASURE -->
<g id="edge11" class="edge"><title>n25 (0.86 &#45; 4)&#45;&gt;CHI_SQUARE\nTWO_WAY_SUPPORT_VARIATION\nJ_MEASURE</title>
<path fill="none" stroke="black" d="M757.35,-401.334C782.142,-381.276 825.364,-346.308 859.726,-318.508"/>
<polygon fill="black" stroke="black" points="862.232,-320.982 867.805,-311.971 857.829,-315.54 862.232,-320.982"/>
</g>
<!-- n30 (0.53 &#45; 4) -->
<g id="node14" class="node"><title>n30 (0.53 &#45; 4)</title>
<ellipse fill="none" stroke="black" cx="1392.39" cy="-520.566" rx="59.5901" ry="18"/>
<text text-anchor="middle" x="1392.39" y="-516.866" font-family="Times,serif" font-size="14.00">n30 (0.53 &#45; 4)</text>
</g>
<!-- n33 (0.13 &#45; 25)&#45;&gt;n30 (0.53 &#45; 4) -->
<g id="edge13" class="edge"><title>n33 (0.13 &#45; 25)&#45;&gt;n30 (0.53 &#45; 4)</title>
<path fill="none" stroke="black" d="M1392.39,-574.262C1392.39,-566.548 1392.39,-557.278 1392.39,-548.678"/>
<polygon fill="black" stroke="black" points="1395.89,-548.67 1392.39,-538.67 1388.89,-548.67 1395.89,-548.67"/>
</g>
<!-- n26 (0.85 &#45; 21) -->
<g id="node21" class="node"><title>n26 (0.85 &#45; 21)</title>
<ellipse fill="none" stroke="black" cx="1976.39" cy="-520.566" rx="64.189" ry="18"/>
<text text-anchor="middle" x="1976.39" y="-516.866" font-family="Times,serif" font-size="14.00">n26 (0.85 &#45; 21)</text>
</g>
<!-- n33 (0.13 &#45; 25)&#45;&gt;n26 (0.85 &#45; 21) -->
<g id="edge20" class="edge"><title>n33 (0.13 &#45; 25)&#45;&gt;n26 (0.85 &#45; 21)</title>
<path fill="none" stroke="black" d="M1450.25,-584.63C1558.77,-571.622 1792.34,-543.626 1908.26,-529.732"/>
<polygon fill="black" stroke="black" points="1908.92,-533.178 1918.43,-528.513 1908.08,-526.228 1908.92,-533.178"/>
</g>
<!-- n22 (0.88 &#45; 2) -->
<g id="node15" class="node"><title>n22 (0.88 &#45; 2)</title>
<ellipse fill="none" stroke="black" cx="1297.39" cy="-418.482" rx="59.5901" ry="18"/>
<text text-anchor="middle" x="1297.39" y="-414.782" font-family="Times,serif" font-size="14.00">n22 (0.88 &#45; 2)</text>
</g>
<!-- n30 (0.53 &#45; 4)&#45;&gt;n22 (0.88 &#45; 2) -->
<g id="edge14" class="edge"><title>n30 (0.53 &#45; 4)&#45;&gt;n22 (0.88 &#45; 2)</title>
<path fill="none" stroke="black" d="M1376.7,-503.039C1361.3,-486.813 1337.64,-461.887 1320.17,-443.479"/>
<polygon fill="black" stroke="black" points="1322.52,-440.877 1313.1,-436.034 1317.45,-445.696 1322.52,-440.877"/>
</g>
<!-- n28 (0.83 &#45; 2) -->
<g id="node18" class="node"><title>n28 (0.83 &#45; 2)</title>
<ellipse fill="none" stroke="black" cx="1488.39" cy="-418.482" rx="59.5901" ry="18"/>
<text text-anchor="middle" x="1488.39" y="-414.782" font-family="Times,serif" font-size="14.00">n28 (0.83 &#45; 2)</text>
</g>
<!-- n30 (0.53 &#45; 4)&#45;&gt;n28 (0.83 &#45; 2) -->
<g id="edge17" class="edge"><title>n30 (0.53 &#45; 4)&#45;&gt;n28 (0.83 &#45; 2)</title>
<path fill="none" stroke="black" d="M1408.24,-503.039C1423.81,-486.813 1447.72,-461.887 1465.37,-443.479"/>
<polygon fill="black" stroke="black" points="1468.12,-445.673 1472.51,-436.034 1463.07,-440.828 1468.12,-445.673"/>
</g>
<!-- ACCURACY -->
<g id="node16" class="node"><title>ACCURACY</title>
<ellipse fill="none" stroke="black" cx="1156.39" cy="-275.709" rx="59.5901" ry="18"/>
<text text-anchor="middle" x="1156.39" y="-272.009" font-family="Times,serif" font-size="14.00">ACCURACY</text>
</g>
<!-- n22 (0.88 &#45; 2)&#45;&gt;ACCURACY -->
<g id="edge15" class="edge"><title>n22 (0.88 &#45; 2)&#45;&gt;ACCURACY</title>
<path fill="none" stroke="black" d="M1280.94,-401.058C1256,-376.158 1208.5,-328.74 1179.92,-300.198"/>
<polygon fill="black" stroke="black" points="1182.29,-297.617 1172.74,-293.029 1177.34,-302.571 1182.29,-297.617"/>
</g>
<!-- SPECIFICITY -->
<g id="node17" class="node"><title>SPECIFICITY</title>
<ellipse fill="none" stroke="black" cx="1297.39" cy="-275.709" rx="63.0888" ry="18"/>
<text text-anchor="middle" x="1297.39" y="-272.009" font-family="Times,serif" font-size="14.00">SPECIFICITY</text>
</g>
<!-- n22 (0.88 &#45; 2)&#45;&gt;SPECIFICITY -->
<g id="edge16" class="edge"><title>n22 (0.88 &#45; 2)&#45;&gt;SPECIFICITY</title>
<path fill="none" stroke="black" d="M1297.39,-400.221C1297.39,-376.263 1297.39,-332.674 1297.39,-304.209"/>
<polygon fill="black" stroke="black" points="1300.89,-304.112 1297.39,-294.112 1293.89,-304.112 1300.89,-304.112"/>
</g>
<!-- COLLECTIVE_STRENGH -->
<g id="node19" class="node"><title>COLLECTIVE_STRENGH</title>
<ellipse fill="none" stroke="black" cx="1488.39" cy="-275.709" rx="109.681" ry="18"/>
<text text-anchor="middle" x="1488.39" y="-272.009" font-family="Times,serif" font-size="14.00">COLLECTIVE_STRENGH</text>
</g>
<!-- n28 (0.83 &#45; 2)&#45;&gt;COLLECTIVE_STRENGH -->
<g id="edge18" class="edge"><title>n28 (0.83 &#45; 2)&#45;&gt;COLLECTIVE_STRENGH</title>
<path fill="none" stroke="black" d="M1488.39,-400.221C1488.39,-376.263 1488.39,-332.674 1488.39,-304.209"/>
<polygon fill="black" stroke="black" points="1491.89,-304.112 1488.39,-294.112 1484.89,-304.112 1491.89,-304.112"/>
</g>
<!-- RECALL -->
<g id="node20" class="node"><title>RECALL</title>
<ellipse fill="none" stroke="black" cx="1661.39" cy="-275.709" rx="44.6926" ry="18"/>
<text text-anchor="middle" x="1661.39" y="-272.009" font-family="Times,serif" font-size="14.00">RECALL</text>
</g>
<!-- n28 (0.83 &#45; 2)&#45;&gt;RECALL -->
<g id="edge19" class="edge"><title>n28 (0.83 &#45; 2)&#45;&gt;RECALL</title>
<path fill="none" stroke="black" d="M1513.66,-402.036C1538.54,-386.33 1577.11,-360.634 1607.39,-334.399 1619.32,-324.062 1631.44,-311.362 1641.16,-300.511"/>
<polygon fill="black" stroke="black" points="1643.8,-302.815 1647.78,-292.998 1638.54,-298.187 1643.8,-302.815"/>
</g>
<!-- n21 (0.89 &#45; 7) -->
<g id="node22" class="node"><title>n21 (0.89 &#45; 7)</title>
<ellipse fill="none" stroke="black" cx="1976.39" cy="-418.482" rx="59.5901" ry="18"/>
<text text-anchor="middle" x="1976.39" y="-414.782" font-family="Times,serif" font-size="14.00">n21 (0.89 &#45; 7)</text>
</g>
<!-- n26 (0.85 &#45; 21)&#45;&gt;n21 (0.89 &#45; 7) -->
<g id="edge21" class="edge"><title>n26 (0.85 &#45; 21)&#45;&gt;n21 (0.89 &#45; 7)</title>
<path fill="none" stroke="black" d="M1976.39,-502.132C1976.39,-486.92 1976.39,-464.587 1976.39,-446.97"/>
<polygon fill="black" stroke="black" points="1979.89,-446.716 1976.39,-436.716 1972.89,-446.716 1979.89,-446.716"/>
</g>
<!-- n24 (0.88 &#45; 14) -->
<g id="node25" class="node"><title>n24 (0.88 &#45; 14)</title>
<ellipse fill="none" stroke="black" cx="2339.39" cy="-418.482" rx="64.189" ry="18"/>
<text text-anchor="middle" x="2339.39" y="-414.782" font-family="Times,serif" font-size="14.00">n24 (0.88 &#45; 14)</text>
</g>
<!-- n26 (0.85 &#45; 21)&#45;&gt;n24 (0.88 &#45; 14) -->
<g id="edge24" class="edge"><title>n26 (0.85 &#45; 21)&#45;&gt;n24 (0.88 &#45; 14)</title>
<path fill="none" stroke="black" d="M2020.54,-507.393C2087.22,-489.009 2213.46,-454.203 2285.48,-434.347"/>
<polygon fill="black" stroke="black" points="2286.56,-437.68 2295.27,-431.648 2284.69,-430.932 2286.56,-437.68"/>
</g>
<!-- CENTERED_CONFIDENCE\nIMPLICATION_INDEX -->
<g id="node23" class="node"><title>CENTERED_CONFIDENCE\nIMPLICATION_INDEX</title>
<ellipse fill="none" stroke="black" cx="1850.39" cy="-275.709" rx="126.644" ry="26.7407"/>
<text text-anchor="middle" x="1850.39" y="-279.509" font-family="Times,serif" font-size="14.00">CENTERED_CONFIDENCE</text>
<text text-anchor="middle" x="1850.39" y="-264.509" font-family="Times,serif" font-size="14.00">IMPLICATION_INDEX</text>
</g>
<!-- n21 (0.89 &#45; 7)&#45;&gt;CENTERED_CONFIDENCE\nIMPLICATION_INDEX -->
<g id="edge22" class="edge"><title>n21 (0.89 &#45; 7)&#45;&gt;CENTERED_CONFIDENCE\nIMPLICATION_INDEX</title>
<path fill="none" stroke="black" d="M1961.44,-400.781C1941.48,-378.479 1905.67,-338.475 1880.11,-309.919"/>
<polygon fill="black" stroke="black" points="1882.48,-307.31 1873.2,-302.193 1877.26,-311.979 1882.48,-307.31"/>
</g>
<!-- ONE_WAY_SUPPORT\nADDED_VALUE\nLOEVINGER\nCONVICTION\nCERTAINTY_FACTOR -->
<g id="node24" class="node"><title>ONE_WAY_SUPPORT\nADDED_VALUE\nLOEVINGER\nCONVICTION\nCERTAINTY_FACTOR</title>
<ellipse fill="none" stroke="black" cx="2103.39" cy="-275.709" rx="108.375" ry="58.8803"/>
<text text-anchor="middle" x="2103.39" y="-302.009" font-family="Times,serif" font-size="14.00">ONE_WAY_SUPPORT</text>
<text text-anchor="middle" x="2103.39" y="-287.009" font-family="Times,serif" font-size="14.00">ADDED_VALUE</text>
<text text-anchor="middle" x="2103.39" y="-272.009" font-family="Times,serif" font-size="14.00">LOEVINGER</text>
<text text-anchor="middle" x="2103.39" y="-257.009" font-family="Times,serif" font-size="14.00">CONVICTION</text>
<text text-anchor="middle" x="2103.39" y="-242.009" font-family="Times,serif" font-size="14.00">CERTAINTY_FACTOR</text>
</g>
<!-- n21 (0.89 &#45; 7)&#45;&gt;ONE_WAY_SUPPORT\nADDED_VALUE\nLOEVINGER\nCONVICTION\nCERTAINTY_FACTOR -->
<g id="edge23" class="edge"><title>n21 (0.89 &#45; 7)&#45;&gt;ONE_WAY_SUPPORT\nADDED_VALUE\nLOEVINGER\nCONVICTION\nCERTAINTY_FACTOR</title>
<path fill="none" stroke="black" d="M1991.46,-400.781C2005.86,-384.811 2028.46,-359.764 2049.59,-336.344"/>
<polygon fill="black" stroke="black" points="2052.29,-338.58 2056.39,-328.811 2047.09,-333.891 2052.29,-338.58"/>
</g>
<!-- FISHER_PVAL\nKLOSGEN\nPHI\nPIATETSKY_SHAPIRO\nTWO_WAY_SUPPORT -->
<g id="node26" class="node"><title>FISHER_PVAL\nKLOSGEN\nPHI\nPIATETSKY_SHAPIRO\nTWO_WAY_SUPPORT</title>
<ellipse fill="none" stroke="black" cx="2339.39" cy="-275.709" rx="109.703" ry="58.8803"/>
<text text-anchor="middle" x="2339.39" y="-302.009" font-family="Times,serif" font-size="14.00">FISHER_PVAL</text>
<text text-anchor="middle" x="2339.39" y="-287.009" font-family="Times,serif" font-size="14.00">KLOSGEN</text>
<text text-anchor="middle" x="2339.39" y="-272.009" font-family="Times,serif" font-size="14.00">PHI</text>
<text text-anchor="middle" x="2339.39" y="-257.009" font-family="Times,serif" font-size="14.00">PIATETSKY_SHAPIRO</text>
<text text-anchor="middle" x="2339.39" y="-242.009" font-family="Times,serif" font-size="14.00">TWO_WAY_SUPPORT</text>
</g>
<!-- n24 (0.88 &#45; 14)&#45;&gt;FISHER_PVAL\nKLOSGEN\nPHI\nPIATETSKY_SHAPIRO\nTWO_WAY_SUPPORT -->
<g id="edge25" class="edge"><title>n24 (0.88 &#45; 14)&#45;&gt;FISHER_PVAL\nKLOSGEN\nPHI\nPIATETSKY_SHAPIRO\nTWO_WAY_SUPPORT</title>
<path fill="none" stroke="black" d="M2339.39,-400.221C2339.39,-386.151 2339.39,-365.31 2339.39,-344.737"/>
<polygon fill="black" stroke="black" points="2342.89,-344.691 2339.39,-334.691 2335.89,-344.691 2342.89,-344.691"/>
</g>
<!-- n23 (0.88 &#45; 9) -->
<g id="node27" class="node"><title>n23 (0.88 &#45; 9)</title>
<ellipse fill="none" stroke="black" cx="2526.39" cy="-275.709" rx="59.5901" ry="18"/>
<text text-anchor="middle" x="2526.39" y="-272.009" font-family="Times,serif" font-size="14.00">n23 (0.88 &#45; 9)</text>
</g>
<!-- n24 (0.88 &#45; 14)&#45;&gt;n23 (0.88 &#45; 9) -->
<g id="edge26" class="edge"><title>n24 (0.88 &#45; 14)&#45;&gt;n23 (0.88 &#45; 9)</title>
<path fill="none" stroke="black" d="M2363.57,-401.575C2387.95,-385.309 2426.46,-359.006 2458.39,-334.399 2472.57,-323.469 2487.82,-310.639 2500.28,-299.858"/>
<polygon fill="black" stroke="black" points="2502.78,-302.318 2508.02,-293.109 2498.18,-297.041 2502.78,-302.318"/>
</g>
<!-- KAPPA -->
<g id="node28" class="node"><title>KAPPA</title>
<ellipse fill="none" stroke="black" cx="2450.39" cy="-90.5097" rx="39.7935" ry="18"/>
<text text-anchor="middle" x="2450.39" y="-86.8097" font-family="Times,serif" font-size="14.00">KAPPA</text>
</g>
<!-- n23 (0.88 &#45; 9)&#45;&gt;KAPPA -->
<g id="edge27" class="edge"><title>n23 (0.88 &#45; 9)&#45;&gt;KAPPA</title>
<path fill="none" stroke="black" d="M2519.38,-257.803C2506.09,-225.765 2477.15,-156.009 2461.3,-117.81"/>
<polygon fill="black" stroke="black" points="2464.45,-116.271 2457.39,-108.375 2457.99,-118.953 2464.45,-116.271"/>
</g>
<!-- BAYES\nRELATIVE_RISK\nLIFT\nZHANG\nODD_MULTIPLIER\nYULE_Y\nYULE_Q\nODDS_RATIO -->
<g id="node29" class="node"><title>BAYES\nRELATIVE_RISK\nLIFT\nZHANG\nODD_MULTIPLIER\nYULE_Y\nYULE_Q\nODDS_RATIO</title>
<ellipse fill="none" stroke="black" cx="2602.39" cy="-90.5097" rx="94.5053" ry="90.5193"/>
<text text-anchor="middle" x="2602.39" y="-139.31" font-family="Times,serif" font-size="14.00">BAYES</text>
<text text-anchor="middle" x="2602.39" y="-124.31" font-family="Times,serif" font-size="14.00">RELATIVE_RISK</text>
<text text-anchor="middle" x="2602.39" y="-109.31" font-family="Times,serif" font-size="14.00">LIFT</text>
<text text-anchor="middle" x="2602.39" y="-94.3097" font-family="Times,serif" font-size="14.00">ZHANG</text>
<text text-anchor="middle" x="2602.39" y="-79.3097" font-family="Times,serif" font-size="14.00">ODD_MULTIPLIER</text>
<text text-anchor="middle" x="2602.39" y="-64.3097" font-family="Times,serif" font-size="14.00">YULE_Y</text>
<text text-anchor="middle" x="2602.39" y="-49.3097" font-family="Times,serif" font-size="14.00">YULE_Q</text>
<text text-anchor="middle" x="2602.39" y="-34.3097" font-family="Times,serif" font-size="14.00">ODDS_RATIO</text>
</g>
<!-- n23 (0.88 &#45; 9)&#45;&gt;BAYES\nRELATIVE_RISK\nLIFT\nZHANG\nODD_MULTIPLIER\nYULE_Y\nYULE_Q\nODDS_RATIO -->
<g id="edge28" class="edge"><title>n23 (0.88 &#45; 9)&#45;&gt;BAYES\nRELATIVE_RISK\nLIFT\nZHANG\nODD_MULTIPLIER\nYULE_Y\nYULE_Q\nODDS_RATIO</title>
<path fill="none" stroke="black" d="M2533.4,-257.803C2540.53,-240.613 2552.17,-212.564 2563.87,-184.357"/>
<polygon fill="black" stroke="black" points="2567.24,-185.378 2567.84,-174.8 2560.77,-182.696 2567.24,-185.378"/>
</g>
</g>
</svg>
