<?xml version="1.0" encoding="UTF-8" standalone="no"?>
<!DOCTYPE svg PUBLIC "-//W3C//DTD SVG 1.1//EN"
 "http://www.w3.org/Graphics/SVG/1.1/DTD/svg11.dtd">
<!-- Generated by graphviz version 2.38.0 (20140413.2041)
 -->
<!-- Title: dendrogram Pages: 1 -->
<svg width="2082pt" height="878pt"
 viewBox="0.00 0.00 2081.67 878.41" xmlns="http://www.w3.org/2000/svg" xmlns:xlink="http://www.w3.org/1999/xlink">
<g id="graph0" class="graph" transform="scale(1 1) rotate(0) translate(4 874.406)">
<title>dendrogram</title>
<polygon fill="white" stroke="none" points="-4,4 -4,-874.406 2077.67,-874.406 2077.67,4 -4,4"/>
<!-- n34 (0.03 &#45; 36) -->
<g id="node1" class="node"><title>n34 (0.03 &#45; 36)</title>
<ellipse fill="none" stroke="black" cx="318.795" cy="-852.406" rx="64.189" ry="18"/>
<text text-anchor="middle" x="318.795" y="-848.706" font-family="Times,serif" font-size="14.00">n34 (0.03 &#45; 36)</text>
</g>
<!-- n30 (0.23 &#45; 9) -->
<g id="node2" class="node"><title>n30 (0.23 &#45; 9)</title>
<ellipse fill="none" stroke="black" cx="232.795" cy="-780.406" rx="59.5901" ry="18"/>
<text text-anchor="middle" x="232.795" y="-776.706" font-family="Times,serif" font-size="14.00">n30 (0.23 &#45; 9)</text>
</g>
<!-- n34 (0.03 &#45; 36)&#45;&gt;n30 (0.23 &#45; 9) -->
<g id="edge1" class="edge"><title>n34 (0.03 &#45; 36)&#45;&gt;n30 (0.23 &#45; 9)</title>
<path fill="none" stroke="black" d="M298.848,-835.171C287.451,-825.894 272.987,-814.121 260.5,-803.957"/>
<polygon fill="black" stroke="black" points="262.598,-801.152 252.633,-797.554 258.179,-806.581 262.598,-801.152"/>
</g>
<!-- n33 (0.03 &#45; 27) -->
<g id="node5" class="node"><title>n33 (0.03 &#45; 27)</title>
<ellipse fill="none" stroke="black" cx="405.795" cy="-780.406" rx="64.189" ry="18"/>
<text text-anchor="middle" x="405.795" y="-776.706" font-family="Times,serif" font-size="14.00">n33 (0.03 &#45; 27)</text>
</g>
<!-- n34 (0.03 &#45; 36)&#45;&gt;n33 (0.03 &#45; 27) -->
<g id="edge4" class="edge"><title>n34 (0.03 &#45; 36)&#45;&gt;n33 (0.03 &#45; 27)</title>
<path fill="none" stroke="black" d="M338.973,-835.171C350.502,-825.894 365.135,-814.121 377.767,-803.957"/>
<polygon fill="black" stroke="black" points="380.129,-806.549 385.726,-797.554 375.741,-801.095 380.129,-806.549"/>
</g>
<!-- ACCURACY -->
<g id="node3" class="node"><title>ACCURACY</title>
<ellipse fill="none" stroke="black" cx="59.7947" cy="-635.897" rx="59.5901" ry="18"/>
<text text-anchor="middle" x="59.7947" y="-632.197" font-family="Times,serif" font-size="14.00">ACCURACY</text>
</g>
<!-- n30 (0.23 &#45; 9)&#45;&gt;ACCURACY -->
<g id="edge2" class="edge"><title>n30 (0.23 &#45; 9)&#45;&gt;ACCURACY</title>
<path fill="none" stroke="black" d="M196.747,-765.754C175.57,-756.634 149.068,-743.23 128.795,-726.406 106.896,-708.233 87.6643,-681.923 75.1057,-662.528"/>
<polygon fill="black" stroke="black" points="77.9536,-660.482 69.6571,-653.893 72.0337,-664.218 77.9536,-660.482"/>
</g>
<!-- RELATIVE_RISK\nLIFT\nBAYES\nZHANG\nODD_MULTIPLIER\nYULE_Y\nYULE_Q\nODDS_RATIO -->
<g id="node4" class="node"><title>RELATIVE_RISK\nLIFT\nBAYES\nZHANG\nODD_MULTIPLIER\nYULE_Y\nYULE_Q\nODDS_RATIO</title>
<ellipse fill="none" stroke="black" cx="232.795" cy="-635.897" rx="94.5053" ry="90.5193"/>
<text text-anchor="middle" x="232.795" y="-684.697" font-family="Times,serif" font-size="14.00">RELATIVE_RISK</text>
<text text-anchor="middle" x="232.795" y="-669.697" font-family="Times,serif" font-size="14.00">LIFT</text>
<text text-anchor="middle" x="232.795" y="-654.697" font-family="Times,serif" font-size="14.00">BAYES</text>
<text text-anchor="middle" x="232.795" y="-639.697" font-family="Times,serif" font-size="14.00">ZHANG</text>
<text text-anchor="middle" x="232.795" y="-624.697" font-family="Times,serif" font-size="14.00">ODD_MULTIPLIER</text>
<text text-anchor="middle" x="232.795" y="-609.697" font-family="Times,serif" font-size="14.00">YULE_Y</text>
<text text-anchor="middle" x="232.795" y="-594.697" font-family="Times,serif" font-size="14.00">YULE_Q</text>
<text text-anchor="middle" x="232.795" y="-579.697" font-family="Times,serif" font-size="14.00">ODDS_RATIO</text>
</g>
<!-- n30 (0.23 &#45; 9)&#45;&gt;RELATIVE_RISK\nLIFT\nBAYES\nZHANG\nODD_MULTIPLIER\nYULE_Y\nYULE_Q\nODDS_RATIO -->
<g id="edge3" class="edge"><title>n30 (0.23 &#45; 9)&#45;&gt;RELATIVE_RISK\nLIFT\nBAYES\nZHANG\nODD_MULTIPLIER\nYULE_Y\nYULE_Q\nODDS_RATIO</title>
<path fill="none" stroke="black" d="M232.795,-762.216C232.795,-755.183 232.795,-746.446 232.795,-736.879"/>
<polygon fill="black" stroke="black" points="236.295,-736.645 232.795,-726.645 229.295,-736.645 236.295,-736.645"/>
</g>
<!-- n28 (0.33 &#45; 3) -->
<g id="node6" class="node"><title>n28 (0.33 &#45; 3)</title>
<ellipse fill="none" stroke="black" cx="405.795" cy="-635.897" rx="59.5901" ry="18"/>
<text text-anchor="middle" x="405.795" y="-632.197" font-family="Times,serif" font-size="14.00">n28 (0.33 &#45; 3)</text>
</g>
<!-- n33 (0.03 &#45; 27)&#45;&gt;n28 (0.33 &#45; 3) -->
<g id="edge5" class="edge"><title>n33 (0.03 &#45; 27)&#45;&gt;n28 (0.33 &#45; 3)</title>
<path fill="none" stroke="black" d="M405.795,-762.216C405.795,-737.928 405.795,-693.309 405.795,-664.388"/>
<polygon fill="black" stroke="black" points="409.295,-664.147 405.795,-654.147 402.295,-664.148 409.295,-664.147"/>
</g>
<!-- n32 (0.07 &#45; 24) -->
<g id="node11" class="node"><title>n32 (0.07 &#45; 24)</title>
<ellipse fill="none" stroke="black" cx="646.795" cy="-635.897" rx="64.189" ry="18"/>
<text text-anchor="middle" x="646.795" y="-632.197" font-family="Times,serif" font-size="14.00">n32 (0.07 &#45; 24)</text>
</g>
<!-- n33 (0.03 &#45; 27)&#45;&gt;n32 (0.07 &#45; 24) -->
<g id="edge10" class="edge"><title>n33 (0.03 &#45; 27)&#45;&gt;n32 (0.07 &#45; 24)</title>
<path fill="none" stroke="black" d="M432.045,-763.884C475.687,-738.077 563.18,-686.34 611.942,-657.506"/>
<polygon fill="black" stroke="black" points="613.751,-660.502 620.577,-652.4 610.188,-654.477 613.751,-660.502"/>
</g>
<!-- RECALL -->
<g id="node7" class="node"><title>RECALL</title>
<ellipse fill="none" stroke="black" cx="282.795" cy="-491.387" rx="44.6926" ry="18"/>
<text text-anchor="middle" x="282.795" y="-487.687" font-family="Times,serif" font-size="14.00">RECALL</text>
</g>
<!-- n28 (0.33 &#45; 3)&#45;&gt;RECALL -->
<g id="edge6" class="edge"><title>n28 (0.33 &#45; 3)&#45;&gt;RECALL</title>
<path fill="none" stroke="black" d="M393.982,-618.187C380.734,-599.788 358.281,-569.604 336.795,-545.387 327.577,-534.997 316.761,-524.149 307.241,-514.993"/>
<polygon fill="black" stroke="black" points="309.598,-512.405 299.938,-508.054 304.776,-517.48 309.598,-512.405"/>
</g>
<!-- n25 (0.54 &#45; 2) -->
<g id="node8" class="node"><title>n25 (0.54 &#45; 2)</title>
<ellipse fill="none" stroke="black" cx="405.795" cy="-491.387" rx="59.5901" ry="18"/>
<text text-anchor="middle" x="405.795" y="-487.687" font-family="Times,serif" font-size="14.00">n25 (0.54 &#45; 2)</text>
</g>
<!-- n28 (0.33 &#45; 3)&#45;&gt;n25 (0.54 &#45; 2) -->
<g id="edge7" class="edge"><title>n28 (0.33 &#45; 3)&#45;&gt;n25 (0.54 &#45; 2)</title>
<path fill="none" stroke="black" d="M405.795,-617.707C405.795,-593.418 405.795,-548.799 405.795,-519.878"/>
<polygon fill="black" stroke="black" points="409.295,-519.638 405.795,-509.638 402.295,-519.638 409.295,-519.638"/>
</g>
<!-- COLLECTIVE_STRENGH -->
<g id="node9" class="node"><title>COLLECTIVE_STRENGH</title>
<ellipse fill="none" stroke="black" cx="214.795" cy="-419.387" rx="109.681" ry="18"/>
<text text-anchor="middle" x="214.795" y="-415.687" font-family="Times,serif" font-size="14.00">COLLECTIVE_STRENGH</text>
</g>
<!-- n25 (0.54 &#45; 2)&#45;&gt;COLLECTIVE_STRENGH -->
<g id="edge8" class="edge"><title>n25 (0.54 &#45; 2)&#45;&gt;COLLECTIVE_STRENGH</title>
<path fill="none" stroke="black" d="M369.419,-477.056C340.483,-466.451 299.608,-451.47 267.15,-439.575"/>
<polygon fill="black" stroke="black" points="267.964,-436.145 257.37,-435.99 265.555,-442.718 267.964,-436.145"/>
</g>
<!-- SPECIFICITY -->
<g id="node10" class="node"><title>SPECIFICITY</title>
<ellipse fill="none" stroke="black" cx="405.795" cy="-419.387" rx="63.0888" ry="18"/>
<text text-anchor="middle" x="405.795" y="-415.687" font-family="Times,serif" font-size="14.00">SPECIFICITY</text>
</g>
<!-- n25 (0.54 &#45; 2)&#45;&gt;SPECIFICITY -->
<g id="edge9" class="edge"><title>n25 (0.54 &#45; 2)&#45;&gt;SPECIFICITY</title>
<path fill="none" stroke="black" d="M405.795,-473.083C405.795,-465.37 405.795,-456.099 405.795,-447.499"/>
<polygon fill="black" stroke="black" points="409.295,-447.491 405.795,-437.491 402.295,-447.491 409.295,-447.491"/>
</g>
<!-- n31 (0.13 &#45; 11) -->
<g id="node12" class="node"><title>n31 (0.13 &#45; 11)</title>
<ellipse fill="none" stroke="black" cx="646.795" cy="-491.387" rx="64.189" ry="18"/>
<text text-anchor="middle" x="646.795" y="-487.687" font-family="Times,serif" font-size="14.00">n31 (0.13 &#45; 11)</text>
</g>
<!-- n32 (0.07 &#45; 24)&#45;&gt;n31 (0.13 &#45; 11) -->
<g id="edge11" class="edge"><title>n32 (0.07 &#45; 24)&#45;&gt;n31 (0.13 &#45; 11)</title>
<path fill="none" stroke="black" d="M646.795,-617.707C646.795,-593.418 646.795,-548.799 646.795,-519.878"/>
<polygon fill="black" stroke="black" points="650.295,-519.638 646.795,-509.638 643.295,-519.638 650.295,-519.638"/>
</g>
<!-- n29 (0.31 &#45; 13) -->
<g id="node21" class="node"><title>n29 (0.31 &#45; 13)</title>
<ellipse fill="none" stroke="black" cx="1100.79" cy="-491.387" rx="64.189" ry="18"/>
<text text-anchor="middle" x="1100.79" y="-487.687" font-family="Times,serif" font-size="14.00">n29 (0.31 &#45; 13)</text>
</g>
<!-- n32 (0.07 &#45; 24)&#45;&gt;n29 (0.31 &#45; 13) -->
<g id="edge20" class="edge"><title>n32 (0.07 &#45; 24)&#45;&gt;n29 (0.31 &#45; 13)</title>
<path fill="none" stroke="black" d="M687.885,-621.998C770.988,-595.913 958.819,-536.953 1049.67,-508.434"/>
<polygon fill="black" stroke="black" points="1050.98,-511.693 1059.47,-505.359 1048.88,-505.014 1050.98,-511.693"/>
</g>
<!-- n18 (0.78 &#45; 5) -->
<g id="node13" class="node"><title>n18 (0.78 &#45; 5)</title>
<ellipse fill="none" stroke="black" cx="546.795" cy="-419.387" rx="59.5901" ry="18"/>
<text text-anchor="middle" x="546.795" y="-415.687" font-family="Times,serif" font-size="14.00">n18 (0.78 &#45; 5)</text>
</g>
<!-- n31 (0.13 &#45; 11)&#45;&gt;n18 (0.78 &#45; 5) -->
<g id="edge12" class="edge"><title>n31 (0.13 &#45; 11)&#45;&gt;n18 (0.78 &#45; 5)</title>
<path fill="none" stroke="black" d="M624.103,-474.503C610.423,-464.926 592.807,-452.596 577.848,-442.124"/>
<polygon fill="black" stroke="black" points="579.596,-439.075 569.396,-436.208 575.582,-444.81 579.596,-439.075"/>
</g>
<!-- n21 (0.61 &#45; 6) -->
<g id="node16" class="node"><title>n21 (0.61 &#45; 6)</title>
<ellipse fill="none" stroke="black" cx="746.795" cy="-419.387" rx="59.5901" ry="18"/>
<text text-anchor="middle" x="746.795" y="-415.687" font-family="Times,serif" font-size="14.00">n21 (0.61 &#45; 6)</text>
</g>
<!-- n31 (0.13 &#45; 11)&#45;&gt;n21 (0.61 &#45; 6) -->
<g id="edge15" class="edge"><title>n31 (0.13 &#45; 11)&#45;&gt;n21 (0.61 &#45; 6)</title>
<path fill="none" stroke="black" d="M669.486,-474.503C683.167,-464.926 700.782,-452.596 715.742,-442.124"/>
<polygon fill="black" stroke="black" points="718.008,-444.81 724.193,-436.208 713.993,-439.075 718.008,-444.81"/>
</g>
<!-- LEAST_CONTRADICTION -->
<g id="node14" class="node"><title>LEAST_CONTRADICTION</title>
<ellipse fill="none" stroke="black" cx="213.795" cy="-317.304" rx="114.28" ry="18"/>
<text text-anchor="middle" x="213.795" y="-313.604" font-family="Times,serif" font-size="14.00">LEAST_CONTRADICTION</text>
</g>
<!-- n18 (0.78 &#45; 5)&#45;&gt;LEAST_CONTRADICTION -->
<g id="edge13" class="edge"><title>n18 (0.78 &#45; 5)&#45;&gt;LEAST_CONTRADICTION</title>
<path fill="none" stroke="black" d="M501.955,-407.307C445.344,-393.272 353.413,-370.314 337.795,-365.387 312.43,-357.384 284.713,-347.019 261.928,-338.051"/>
<polygon fill="black" stroke="black" points="263.072,-334.74 252.486,-334.305 260.49,-341.246 263.072,-334.74"/>
</g>
<!-- LEVERAGE\nCOUNTER_EXAMPLE_RATE\nSEBAG_SCHOENAUER\nCONFIDENCE -->
<g id="node15" class="node"><title>LEVERAGE\nCOUNTER_EXAMPLE_RATE\nSEBAG_SCHOENAUER\nCONFIDENCE</title>
<ellipse fill="none" stroke="black" cx="483.795" cy="-317.304" rx="137.358" ry="48.1667"/>
<text text-anchor="middle" x="483.795" y="-336.104" font-family="Times,serif" font-size="14.00">LEVERAGE</text>
<text text-anchor="middle" x="483.795" y="-321.104" font-family="Times,serif" font-size="14.00">COUNTER_EXAMPLE_RATE</text>
<text text-anchor="middle" x="483.795" y="-306.104" font-family="Times,serif" font-size="14.00">SEBAG_SCHOENAUER</text>
<text text-anchor="middle" x="483.795" y="-291.104" font-family="Times,serif" font-size="14.00">CONFIDENCE</text>
</g>
<!-- n18 (0.78 &#45; 5)&#45;&gt;LEVERAGE\nCOUNTER_EXAMPLE_RATE\nSEBAG_SCHOENAUER\nCONFIDENCE -->
<g id="edge14" class="edge"><title>n18 (0.78 &#45; 5)&#45;&gt;LEVERAGE\nCOUNTER_EXAMPLE_RATE\nSEBAG_SCHOENAUER\nCONFIDENCE</title>
<path fill="none" stroke="black" d="M536.108,-401.409C531.116,-393.479 524.862,-383.545 518.432,-373.33"/>
<polygon fill="black" stroke="black" points="521.303,-371.32 513.014,-364.722 515.379,-375.049 521.303,-371.32"/>
</g>
<!-- LOEVINGER\nCONVICTION\nCERTAINTY_FACTOR -->
<g id="node17" class="node"><title>LOEVINGER\nCONVICTION\nCERTAINTY_FACTOR</title>
<ellipse fill="none" stroke="black" cx="746.795" cy="-317.304" rx="108.375" ry="37.4533"/>
<text text-anchor="middle" x="746.795" y="-328.604" font-family="Times,serif" font-size="14.00">LOEVINGER</text>
<text text-anchor="middle" x="746.795" y="-313.604" font-family="Times,serif" font-size="14.00">CONVICTION</text>
<text text-anchor="middle" x="746.795" y="-298.604" font-family="Times,serif" font-size="14.00">CERTAINTY_FACTOR</text>
</g>
<!-- n21 (0.61 &#45; 6)&#45;&gt;LOEVINGER\nCONVICTION\nCERTAINTY_FACTOR -->
<g id="edge16" class="edge"><title>n21 (0.61 &#45; 6)&#45;&gt;LOEVINGER\nCONVICTION\nCERTAINTY_FACTOR</title>
<path fill="none" stroke="black" d="M746.795,-400.954C746.795,-390.966 746.795,-377.91 746.795,-365.134"/>
<polygon fill="black" stroke="black" points="750.295,-365.011 746.795,-355.011 743.295,-365.012 750.295,-365.011"/>
</g>
<!-- n17 (0.81 &#45; 3) -->
<g id="node18" class="node"><title>n17 (0.81 &#45; 3)</title>
<ellipse fill="none" stroke="black" cx="932.795" cy="-317.304" rx="59.5901" ry="18"/>
<text text-anchor="middle" x="932.795" y="-313.604" font-family="Times,serif" font-size="14.00">n17 (0.81 &#45; 3)</text>
</g>
<!-- n21 (0.61 &#45; 6)&#45;&gt;n17 (0.81 &#45; 3) -->
<g id="edge17" class="edge"><title>n21 (0.61 &#45; 6)&#45;&gt;n17 (0.81 &#45; 3)</title>
<path fill="none" stroke="black" d="M781.355,-404.597C805.066,-394.688 836.969,-380.465 863.795,-365.387 877.121,-357.896 891.172,-348.591 903.091,-340.236"/>
<polygon fill="black" stroke="black" points="905.233,-343.008 911.353,-334.36 901.175,-337.304 905.233,-343.008"/>
</g>
<!-- ADDED_VALUE -->
<g id="node19" class="node"><title>ADDED_VALUE</title>
<ellipse fill="none" stroke="black" cx="716.795" cy="-206.35" rx="75.2868" ry="18"/>
<text text-anchor="middle" x="716.795" y="-202.65" font-family="Times,serif" font-size="14.00">ADDED_VALUE</text>
</g>
<!-- n17 (0.81 &#45; 3)&#45;&gt;ADDED_VALUE -->
<g id="edge18" class="edge"><title>n17 (0.81 &#45; 3)&#45;&gt;ADDED_VALUE</title>
<path fill="none" stroke="black" d="M911.745,-300.308C898.427,-290.606 880.607,-278.374 863.795,-269.22 832.442,-252.15 795.385,-236.581 766.322,-225.331"/>
<polygon fill="black" stroke="black" points="767.382,-221.99 756.792,-221.686 764.881,-228.528 767.382,-221.99"/>
</g>
<!-- ONE_WAY_SUPPORT\nCENTERED_CONFIDENCE -->
<g id="node20" class="node"><title>ONE_WAY_SUPPORT\nCENTERED_CONFIDENCE</title>
<ellipse fill="none" stroke="black" cx="936.795" cy="-206.35" rx="126.644" ry="26.7407"/>
<text text-anchor="middle" x="936.795" y="-210.15" font-family="Times,serif" font-size="14.00">ONE_WAY_SUPPORT</text>
<text text-anchor="middle" x="936.795" y="-195.15" font-family="Times,serif" font-size="14.00">CENTERED_CONFIDENCE</text>
</g>
<!-- n17 (0.81 &#45; 3)&#45;&gt;ONE_WAY_SUPPORT\nCENTERED_CONFIDENCE -->
<g id="edge19" class="edge"><title>n17 (0.81 &#45; 3)&#45;&gt;ONE_WAY_SUPPORT\nCENTERED_CONFIDENCE</title>
<path fill="none" stroke="black" d="M933.42,-299.28C933.965,-284.433 934.774,-262.394 935.463,-243.616"/>
<polygon fill="black" stroke="black" points="938.962,-243.708 935.832,-233.586 931.967,-243.451 938.962,-243.708"/>
</g>
<!-- n19 (0.69 &#45; 2) -->
<g id="node22" class="node"><title>n19 (0.69 &#45; 2)</title>
<ellipse fill="none" stroke="black" cx="1100.79" cy="-419.387" rx="59.5901" ry="18"/>
<text text-anchor="middle" x="1100.79" y="-415.687" font-family="Times,serif" font-size="14.00">n19 (0.69 &#45; 2)</text>
</g>
<!-- n29 (0.31 &#45; 13)&#45;&gt;n19 (0.69 &#45; 2) -->
<g id="edge21" class="edge"><title>n29 (0.31 &#45; 13)&#45;&gt;n19 (0.69 &#45; 2)</title>
<path fill="none" stroke="black" d="M1100.79,-473.083C1100.79,-465.37 1100.79,-456.099 1100.79,-447.499"/>
<polygon fill="black" stroke="black" points="1104.29,-447.491 1100.79,-437.491 1097.29,-447.491 1104.29,-447.491"/>
</g>
<!-- n27 (0.48 &#45; 11) -->
<g id="node25" class="node"><title>n27 (0.48 &#45; 11)</title>
<ellipse fill="none" stroke="black" cx="1291.79" cy="-419.387" rx="64.189" ry="18"/>
<text text-anchor="middle" x="1291.79" y="-415.687" font-family="Times,serif" font-size="14.00">n27 (0.48 &#45; 11)</text>
</g>
<!-- n29 (0.31 &#45; 13)&#45;&gt;n27 (0.48 &#45; 11) -->
<g id="edge24" class="edge"><title>n29 (0.31 &#45; 13)&#45;&gt;n27 (0.48 &#45; 11)</title>
<path fill="none" stroke="black" d="M1138.53,-476.557C1168.97,-465.4 1211.96,-449.644 1244.67,-437.658"/>
<polygon fill="black" stroke="black" points="1246.28,-440.796 1254.46,-434.069 1243.87,-434.224 1246.28,-440.796"/>
</g>
<!-- COSINE -->
<g id="node23" class="node"><title>COSINE</title>
<ellipse fill="none" stroke="black" cx="1052.79" cy="-317.304" rx="42.4939" ry="18"/>
<text text-anchor="middle" x="1052.79" y="-313.604" font-family="Times,serif" font-size="14.00">COSINE</text>
</g>
<!-- n19 (0.69 &#45; 2)&#45;&gt;COSINE -->
<g id="edge22" class="edge"><title>n19 (0.69 &#45; 2)&#45;&gt;COSINE</title>
<path fill="none" stroke="black" d="M1092.65,-401.409C1085.16,-385.787 1073.93,-362.382 1065.3,-344.387"/>
<polygon fill="black" stroke="black" points="1068.3,-342.534 1060.82,-335.031 1061.99,-345.561 1068.3,-342.534"/>
</g>
<!-- JACCARD -->
<g id="node24" class="node"><title>JACCARD</title>
<ellipse fill="none" stroke="black" cx="1163.79" cy="-317.304" rx="50.8918" ry="18"/>
<text text-anchor="middle" x="1163.79" y="-313.604" font-family="Times,serif" font-size="14.00">JACCARD</text>
</g>
<!-- n19 (0.69 &#45; 2)&#45;&gt;JACCARD -->
<g id="edge23" class="edge"><title>n19 (0.69 &#45; 2)&#45;&gt;JACCARD</title>
<path fill="none" stroke="black" d="M1111.48,-401.409C1121.41,-385.642 1136.32,-361.948 1147.69,-343.889"/>
<polygon fill="black" stroke="black" points="1150.9,-345.358 1153.27,-335.031 1144.98,-341.629 1150.9,-345.358"/>
</g>
<!-- n26 (0.50 &#45; 5) -->
<g id="node26" class="node"><title>n26 (0.50 &#45; 5)</title>
<ellipse fill="none" stroke="black" cx="1291.79" cy="-317.304" rx="59.5901" ry="18"/>
<text text-anchor="middle" x="1291.79" y="-313.604" font-family="Times,serif" font-size="14.00">n26 (0.50 &#45; 5)</text>
</g>
<!-- n27 (0.48 &#45; 11)&#45;&gt;n26 (0.50 &#45; 5) -->
<g id="edge25" class="edge"><title>n27 (0.48 &#45; 11)&#45;&gt;n26 (0.50 &#45; 5)</title>
<path fill="none" stroke="black" d="M1291.79,-400.954C1291.79,-385.741 1291.79,-363.408 1291.79,-345.791"/>
<polygon fill="black" stroke="black" points="1295.29,-345.537 1291.79,-335.537 1288.29,-345.537 1295.29,-345.537"/>
</g>
<!-- n23 (0.55 &#45; 6) -->
<g id="node33" class="node"><title>n23 (0.55 &#45; 6)</title>
<ellipse fill="none" stroke="black" cx="1470.79" cy="-317.304" rx="59.5901" ry="18"/>
<text text-anchor="middle" x="1470.79" y="-313.604" font-family="Times,serif" font-size="14.00">n23 (0.55 &#45; 6)</text>
</g>
<!-- n27 (0.48 &#45; 11)&#45;&gt;n23 (0.55 &#45; 6) -->
<g id="edge32" class="edge"><title>n27 (0.48 &#45; 11)&#45;&gt;n23 (0.55 &#45; 6)</title>
<path fill="none" stroke="black" d="M1319.37,-402.968C1350.3,-385.677 1400.57,-357.567 1434.63,-338.526"/>
<polygon fill="black" stroke="black" points="1436.75,-341.347 1443.77,-333.412 1433.34,-335.237 1436.75,-341.347"/>
</g>
<!-- n24 (0.54 &#45; 2) -->
<g id="node27" class="node"><title>n24 (0.54 &#45; 2)</title>
<ellipse fill="none" stroke="black" cx="1148.79" cy="-206.35" rx="59.5901" ry="18"/>
<text text-anchor="middle" x="1148.79" y="-202.65" font-family="Times,serif" font-size="14.00">n24 (0.54 &#45; 2)</text>
</g>
<!-- n26 (0.50 &#45; 5)&#45;&gt;n24 (0.54 &#45; 2) -->
<g id="edge26" class="edge"><title>n26 (0.50 &#45; 5)&#45;&gt;n24 (0.54 &#45; 2)</title>
<path fill="none" stroke="black" d="M1270.69,-300.227C1246.19,-281.559 1205.62,-250.65 1178.08,-229.663"/>
<polygon fill="black" stroke="black" points="1180.06,-226.769 1169.98,-223.493 1175.81,-232.337 1180.06,-226.769"/>
</g>
<!-- n22 (0.59 &#45; 3) -->
<g id="node30" class="node"><title>n22 (0.59 &#45; 3)</title>
<ellipse fill="none" stroke="black" cx="1291.79" cy="-206.35" rx="59.5901" ry="18"/>
<text text-anchor="middle" x="1291.79" y="-202.65" font-family="Times,serif" font-size="14.00">n22 (0.59 &#45; 3)</text>
</g>
<!-- n26 (0.50 &#45; 5)&#45;&gt;n22 (0.59 &#45; 3) -->
<g id="edge29" class="edge"><title>n26 (0.50 &#45; 5)&#45;&gt;n22 (0.59 &#45; 3)</title>
<path fill="none" stroke="black" d="M1291.79,-299.28C1291.79,-282.031 1291.79,-255.072 1291.79,-234.801"/>
<polygon fill="black" stroke="black" points="1295.29,-234.614 1291.79,-224.614 1288.29,-234.614 1295.29,-234.614"/>
</g>
<!-- IMPLICATION_INDEX -->
<g id="node28" class="node"><title>IMPLICATION_INDEX</title>
<ellipse fill="none" stroke="black" cx="1001.79" cy="-116.61" rx="100.182" ry="18"/>
<text text-anchor="middle" x="1001.79" y="-112.91" font-family="Times,serif" font-size="14.00">IMPLICATION_INDEX</text>
</g>
<!-- n24 (0.54 &#45; 2)&#45;&gt;IMPLICATION_INDEX -->
<g id="edge27" class="edge"><title>n24 (0.54 &#45; 2)&#45;&gt;IMPLICATION_INDEX</title>
<path fill="none" stroke="black" d="M1123.19,-190.067C1099.61,-175.996 1064.39,-154.974 1037.95,-139.192"/>
<polygon fill="black" stroke="black" points="1039.73,-136.179 1029.35,-134.059 1036.15,-142.189 1039.73,-136.179"/>
</g>
<!-- GINI -->
<g id="node29" class="node"><title>GINI</title>
<ellipse fill="none" stroke="black" cx="1148.79" cy="-116.61" rx="29.4969" ry="18"/>
<text text-anchor="middle" x="1148.79" y="-112.91" font-family="Times,serif" font-size="14.00">GINI</text>
</g>
<!-- n24 (0.54 &#45; 2)&#45;&gt;GINI -->
<g id="edge28" class="edge"><title>n24 (0.54 &#45; 2)&#45;&gt;GINI</title>
<path fill="none" stroke="black" d="M1148.79,-188.016C1148.79,-175.679 1148.79,-158.857 1148.79,-144.75"/>
<polygon fill="black" stroke="black" points="1152.29,-144.61 1148.79,-134.61 1145.29,-144.61 1152.29,-144.61"/>
</g>
<!-- KLOSGEN -->
<g id="node31" class="node"><title>KLOSGEN</title>
<ellipse fill="none" stroke="black" cx="1247.79" cy="-116.61" rx="51.9908" ry="18"/>
<text text-anchor="middle" x="1247.79" y="-112.91" font-family="Times,serif" font-size="14.00">KLOSGEN</text>
</g>
<!-- n22 (0.59 &#45; 3)&#45;&gt;KLOSGEN -->
<g id="edge30" class="edge"><title>n22 (0.59 &#45; 3)&#45;&gt;KLOSGEN</title>
<path fill="none" stroke="black" d="M1283.31,-188.433C1276.92,-175.688 1268.04,-157.988 1260.76,-143.471"/>
<polygon fill="black" stroke="black" points="1263.86,-141.845 1256.25,-134.475 1257.61,-144.983 1263.86,-141.845"/>
</g>
<!-- PIATETSKY_SHAPIRO\nTWO_WAY_SUPPORT -->
<g id="node32" class="node"><title>PIATETSKY_SHAPIRO\nTWO_WAY_SUPPORT</title>
<ellipse fill="none" stroke="black" cx="1427.79" cy="-116.61" rx="109.703" ry="26.7407"/>
<text text-anchor="middle" x="1427.79" y="-120.41" font-family="Times,serif" font-size="14.00">PIATETSKY_SHAPIRO</text>
<text text-anchor="middle" x="1427.79" y="-105.41" font-family="Times,serif" font-size="14.00">TWO_WAY_SUPPORT</text>
</g>
<!-- n22 (0.59 &#45; 3)&#45;&gt;PIATETSKY_SHAPIRO\nTWO_WAY_SUPPORT -->
<g id="edge31" class="edge"><title>n22 (0.59 &#45; 3)&#45;&gt;PIATETSKY_SHAPIRO\nTWO_WAY_SUPPORT</title>
<path fill="none" stroke="black" d="M1316.11,-189.664C1334.25,-177.959 1359.59,-161.611 1381.55,-147.445"/>
<polygon fill="black" stroke="black" points="1383.58,-150.297 1390.09,-141.935 1379.79,-144.415 1383.58,-150.297"/>
</g>
<!-- KAPPA -->
<g id="node34" class="node"><title>KAPPA</title>
<ellipse fill="none" stroke="black" cx="1470.79" cy="-206.35" rx="39.7935" ry="18"/>
<text text-anchor="middle" x="1470.79" y="-202.65" font-family="Times,serif" font-size="14.00">KAPPA</text>
</g>
<!-- n23 (0.55 &#45; 6)&#45;&gt;KAPPA -->
<g id="edge33" class="edge"><title>n23 (0.55 &#45; 6)&#45;&gt;KAPPA</title>
<path fill="none" stroke="black" d="M1470.79,-299.28C1470.79,-282.031 1470.79,-255.072 1470.79,-234.801"/>
<polygon fill="black" stroke="black" points="1474.29,-234.614 1470.79,-224.614 1467.29,-234.614 1474.29,-234.614"/>
</g>
<!-- n20 (0.67 &#45; 5) -->
<g id="node35" class="node"><title>n20 (0.67 &#45; 5)</title>
<ellipse fill="none" stroke="black" cx="1629.79" cy="-206.35" rx="59.5901" ry="18"/>
<text text-anchor="middle" x="1629.79" y="-202.65" font-family="Times,serif" font-size="14.00">n20 (0.67 &#45; 5)</text>
</g>
<!-- n23 (0.55 &#45; 6)&#45;&gt;n20 (0.67 &#45; 5) -->
<g id="edge34" class="edge"><title>n23 (0.55 &#45; 6)&#45;&gt;n20 (0.67 &#45; 5)</title>
<path fill="none" stroke="black" d="M1493.91,-300.461C1521.43,-281.606 1567.51,-250.031 1598.27,-228.949"/>
<polygon fill="black" stroke="black" points="1600.63,-231.575 1606.9,-223.035 1596.68,-225.801 1600.63,-231.575"/>
</g>
<!-- PHI\nFISHER_PVAL -->
<g id="node36" class="node"><title>PHI\nFISHER_PVAL</title>
<ellipse fill="none" stroke="black" cx="1629.79" cy="-116.61" rx="74.4932" ry="26.7407"/>
<text text-anchor="middle" x="1629.79" y="-120.41" font-family="Times,serif" font-size="14.00">PHI</text>
<text text-anchor="middle" x="1629.79" y="-105.41" font-family="Times,serif" font-size="14.00">FISHER_PVAL</text>
</g>
<!-- n20 (0.67 &#45; 5)&#45;&gt;PHI\nFISHER_PVAL -->
<g id="edge35" class="edge"><title>n20 (0.67 &#45; 5)&#45;&gt;PHI\nFISHER_PVAL</title>
<path fill="none" stroke="black" d="M1629.79,-188.016C1629.79,-178.204 1629.79,-165.557 1629.79,-153.694"/>
<polygon fill="black" stroke="black" points="1633.29,-153.562 1629.79,-143.562 1626.29,-153.562 1633.29,-153.562"/>
</g>
<!-- n16 (0.88 &#45; 3) -->
<g id="node37" class="node"><title>n16 (0.88 &#45; 3)</title>
<ellipse fill="none" stroke="black" cx="1781.79" cy="-116.61" rx="59.5901" ry="18"/>
<text text-anchor="middle" x="1781.79" y="-112.91" font-family="Times,serif" font-size="14.00">n16 (0.88 &#45; 3)</text>
</g>
<!-- n20 (0.67 &#45; 5)&#45;&gt;n16 (0.88 &#45; 3) -->
<g id="edge36" class="edge"><title>n20 (0.67 &#45; 5)&#45;&gt;n16 (0.88 &#45; 3)</title>
<path fill="none" stroke="black" d="M1656.27,-190.067C1681.26,-175.643 1718.9,-153.915 1746.45,-138.015"/>
<polygon fill="black" stroke="black" points="1748.46,-140.896 1755.37,-132.865 1744.96,-134.833 1748.46,-140.896"/>
</g>
<!-- CHI_SQUARE -->
<g id="node38" class="node"><title>CHI_SQUARE</title>
<ellipse fill="none" stroke="black" cx="1655.79" cy="-26.8701" rx="65.7887" ry="18"/>
<text text-anchor="middle" x="1655.79" y="-23.1701" font-family="Times,serif" font-size="14.00">CHI_SQUARE</text>
</g>
<!-- n16 (0.88 &#45; 3)&#45;&gt;CHI_SQUARE -->
<g id="edge37" class="edge"><title>n16 (0.88 &#45; 3)&#45;&gt;CHI_SQUARE</title>
<path fill="none" stroke="black" d="M1759.27,-99.924C1739.27,-85.9992 1709.84,-65.5048 1687.47,-49.9296"/>
<polygon fill="black" stroke="black" points="1689.18,-46.8564 1678.98,-44.014 1685.18,-52.6008 1689.18,-46.8564"/>
</g>
<!-- TWO_WAY_SUPPORT_VARIATION\nJ_MEASURE -->
<g id="node39" class="node"><title>TWO_WAY_SUPPORT_VARIATION\nJ_MEASURE</title>
<ellipse fill="none" stroke="black" cx="1906.79" cy="-26.8701" rx="166.754" ry="26.7407"/>
<text text-anchor="middle" x="1906.79" y="-30.6701" font-family="Times,serif" font-size="14.00">TWO_WAY_SUPPORT_VARIATION</text>
<text text-anchor="middle" x="1906.79" y="-15.6701" font-family="Times,serif" font-size="14.00">J_MEASURE</text>
</g>
<!-- n16 (0.88 &#45; 3)&#45;&gt;TWO_WAY_SUPPORT_VARIATION\nJ_MEASURE -->
<g id="edge38" class="edge"><title>n16 (0.88 &#45; 3)&#45;&gt;TWO_WAY_SUPPORT_VARIATION\nJ_MEASURE</title>
<path fill="none" stroke="black" d="M1804.43,-99.7211C1820.56,-88.4 1842.77,-72.812 1862.38,-59.048"/>
<polygon fill="black" stroke="black" points="1864.42,-61.8884 1870.6,-53.2785 1860.4,-56.159 1864.42,-61.8884"/>
</g>
</g>
</svg>
