<?xml version="1.0" encoding="UTF-8" standalone="no"?>
<!DOCTYPE svg PUBLIC "-//W3C//DTD SVG 1.1//EN"
 "http://www.w3.org/Graphics/SVG/1.1/DTD/svg11.dtd">
<!-- Generated by graphviz version 2.38.0 (20140413.2041)
 -->
<!-- Title: dendrogram Pages: 1 -->
<svg width="1521pt" height="903pt"
 viewBox="0.00 0.00 1521.02 902.70" xmlns="http://www.w3.org/2000/svg" xmlns:xlink="http://www.w3.org/1999/xlink">
<g id="graph0" class="graph" transform="scale(1 1) rotate(0) translate(4 898.698)">
<title>dendrogram</title>
<polygon fill="white" stroke="none" points="-4,4 -4,-898.698 1517.02,-898.698 1517.02,4 -4,4"/>
<!-- n34 (0.56 &#45; 36) -->
<g id="node1" class="node"><title>n34 (0.56 &#45; 36)</title>
<ellipse fill="none" stroke="black" cx="625.84" cy="-876.698" rx="64.189" ry="18"/>
<text text-anchor="middle" x="625.84" y="-872.998" font-family="Times,serif" font-size="14.00">n34 (0.56 &#45; 36)</text>
</g>
<!-- n33 (0.74 &#45; 5) -->
<g id="node2" class="node"><title>n33 (0.74 &#45; 5)</title>
<ellipse fill="none" stroke="black" cx="497.84" cy="-804.698" rx="59.5901" ry="18"/>
<text text-anchor="middle" x="497.84" y="-800.998" font-family="Times,serif" font-size="14.00">n33 (0.74 &#45; 5)</text>
</g>
<!-- n34 (0.56 &#45; 36)&#45;&gt;n33 (0.74 &#45; 5) -->
<g id="edge1" class="edge"><title>n34 (0.56 &#45; 36)&#45;&gt;n33 (0.74 &#45; 5)</title>
<path fill="none" stroke="black" d="M597.75,-860.336C579.115,-850.145 554.475,-836.67 534.328,-825.652"/>
<polygon fill="black" stroke="black" points="535.878,-822.51 525.425,-820.783 532.519,-828.652 535.878,-822.51"/>
</g>
<!-- n32 (0.75 &#45; 31) -->
<g id="node9" class="node"><title>n32 (0.75 &#45; 31)</title>
<ellipse fill="none" stroke="black" cx="821.84" cy="-804.698" rx="64.189" ry="18"/>
<text text-anchor="middle" x="821.84" y="-800.998" font-family="Times,serif" font-size="14.00">n32 (0.75 &#45; 31)</text>
</g>
<!-- n34 (0.56 &#45; 36)&#45;&gt;n32 (0.75 &#45; 31) -->
<g id="edge8" class="edge"><title>n34 (0.56 &#45; 36)&#45;&gt;n32 (0.75 &#45; 31)</title>
<path fill="none" stroke="black" d="M664.096,-862.035C695.529,-850.809 740.222,-834.847 774.015,-822.778"/>
<polygon fill="black" stroke="black" points="775.44,-825.986 783.681,-819.326 773.086,-819.393 775.44,-825.986"/>
</g>
<!-- n28 (0.86 &#45; 2) -->
<g id="node3" class="node"><title>n28 (0.86 &#45; 2)</title>
<ellipse fill="none" stroke="black" cx="282.84" cy="-732.698" rx="59.5901" ry="18"/>
<text text-anchor="middle" x="282.84" y="-728.998" font-family="Times,serif" font-size="14.00">n28 (0.86 &#45; 2)</text>
</g>
<!-- n33 (0.74 &#45; 5)&#45;&gt;n28 (0.86 &#45; 2) -->
<g id="edge2" class="edge"><title>n33 (0.74 &#45; 5)&#45;&gt;n28 (0.86 &#45; 2)</title>
<path fill="none" stroke="black" d="M458.905,-791.021C423.248,-779.412 370.316,-762.178 331.804,-749.639"/>
<polygon fill="black" stroke="black" points="332.44,-746.166 321.848,-746.398 330.273,-752.822 332.44,-746.166"/>
</g>
<!-- n29 (0.86 &#45; 3) -->
<g id="node6" class="node"><title>n29 (0.86 &#45; 3)</title>
<ellipse fill="none" stroke="black" cx="497.84" cy="-732.698" rx="59.5901" ry="18"/>
<text text-anchor="middle" x="497.84" y="-728.998" font-family="Times,serif" font-size="14.00">n29 (0.86 &#45; 3)</text>
</g>
<!-- n33 (0.74 &#45; 5)&#45;&gt;n29 (0.86 &#45; 3) -->
<g id="edge5" class="edge"><title>n33 (0.74 &#45; 5)&#45;&gt;n29 (0.86 &#45; 3)</title>
<path fill="none" stroke="black" d="M497.84,-786.394C497.84,-778.68 497.84,-769.41 497.84,-760.81"/>
<polygon fill="black" stroke="black" points="501.34,-760.802 497.84,-750.802 494.34,-760.802 501.34,-760.802"/>
</g>
<!-- COLLECTIVE_STRENGH -->
<g id="node4" class="node"><title>COLLECTIVE_STRENGH</title>
<ellipse fill="none" stroke="black" cx="109.84" cy="-482.122" rx="109.681" ry="18"/>
<text text-anchor="middle" x="109.84" y="-478.422" font-family="Times,serif" font-size="14.00">COLLECTIVE_STRENGH</text>
</g>
<!-- n28 (0.86 &#45; 2)&#45;&gt;COLLECTIVE_STRENGH -->
<g id="edge3" class="edge"><title>n28 (0.86 &#45; 2)&#45;&gt;COLLECTIVE_STRENGH</title>
<path fill="none" stroke="black" d="M264.186,-715.541C253.213,-705.534 239.454,-692.076 228.84,-678.698 184.206,-622.438 143.296,-548.166 123.089,-509.335"/>
<polygon fill="black" stroke="black" points="126.102,-507.542 118.408,-500.259 119.881,-510.751 126.102,-507.542"/>
</g>
<!-- RECALL -->
<g id="node5" class="node"><title>RECALL</title>
<ellipse fill="none" stroke="black" cx="282.84" cy="-482.122" rx="44.6926" ry="18"/>
<text text-anchor="middle" x="282.84" y="-478.422" font-family="Times,serif" font-size="14.00">RECALL</text>
</g>
<!-- n28 (0.86 &#45; 2)&#45;&gt;RECALL -->
<g id="edge4" class="edge"><title>n28 (0.86 &#45; 2)&#45;&gt;RECALL</title>
<path fill="none" stroke="black" d="M282.84,-714.612C282.84,-672.217 282.84,-561.91 282.84,-510.384"/>
<polygon fill="black" stroke="black" points="286.34,-510.327 282.84,-500.327 279.34,-510.327 286.34,-510.327"/>
</g>
<!-- JACCARD -->
<g id="node7" class="node"><title>JACCARD</title>
<ellipse fill="none" stroke="black" cx="396.84" cy="-482.122" rx="50.8918" ry="18"/>
<text text-anchor="middle" x="396.84" y="-478.422" font-family="Times,serif" font-size="14.00">JACCARD</text>
</g>
<!-- n29 (0.86 &#45; 3)&#45;&gt;JACCARD -->
<g id="edge6" class="edge"><title>n29 (0.86 &#45; 3)&#45;&gt;JACCARD</title>
<path fill="none" stroke="black" d="M482.06,-715.187C473.3,-705.266 462.8,-692.016 455.84,-678.698 426.412,-622.385 409.277,-549.105 401.642,-510.187"/>
<polygon fill="black" stroke="black" points="405.043,-509.335 399.738,-500.163 398.166,-510.641 405.043,-509.335"/>
</g>
<!-- PIATETSKY_SHAPIRO\nSPECIFICITY -->
<g id="node8" class="node"><title>PIATETSKY_SHAPIRO\nSPECIFICITY</title>
<ellipse fill="none" stroke="black" cx="574.84" cy="-482.122" rx="109.703" ry="26.7407"/>
<text text-anchor="middle" x="574.84" y="-485.922" font-family="Times,serif" font-size="14.00">PIATETSKY_SHAPIRO</text>
<text text-anchor="middle" x="574.84" y="-470.922" font-family="Times,serif" font-size="14.00">SPECIFICITY</text>
</g>
<!-- n29 (0.86 &#45; 3)&#45;&gt;PIATETSKY_SHAPIRO\nSPECIFICITY -->
<g id="edge7" class="edge"><title>n29 (0.86 &#45; 3)&#45;&gt;PIATETSKY_SHAPIRO\nSPECIFICITY</title>
<path fill="none" stroke="black" d="M503.133,-714.612C515.582,-674.424 546.934,-573.211 563.76,-518.891"/>
<polygon fill="black" stroke="black" points="567.208,-519.59 566.823,-509.002 560.521,-517.519 567.208,-519.59"/>
</g>
<!-- n31 (0.82 &#45; 11) -->
<g id="node10" class="node"><title>n31 (0.82 &#45; 11)</title>
<ellipse fill="none" stroke="black" cx="821.84" cy="-732.698" rx="64.189" ry="18"/>
<text text-anchor="middle" x="821.84" y="-728.998" font-family="Times,serif" font-size="14.00">n31 (0.82 &#45; 11)</text>
</g>
<!-- n32 (0.75 &#45; 31)&#45;&gt;n31 (0.82 &#45; 11) -->
<g id="edge9" class="edge"><title>n32 (0.75 &#45; 31)&#45;&gt;n31 (0.82 &#45; 11)</title>
<path fill="none" stroke="black" d="M821.84,-786.394C821.84,-778.68 821.84,-769.41 821.84,-760.81"/>
<polygon fill="black" stroke="black" points="825.34,-760.802 821.84,-750.802 818.34,-760.802 825.34,-760.802"/>
</g>
<!-- n26 (0.88 &#45; 20) -->
<g id="node17" class="node"><title>n26 (0.88 &#45; 20)</title>
<ellipse fill="none" stroke="black" cx="1095.84" cy="-732.698" rx="64.189" ry="18"/>
<text text-anchor="middle" x="1095.84" y="-728.998" font-family="Times,serif" font-size="14.00">n26 (0.88 &#45; 20)</text>
</g>
<!-- n32 (0.75 &#45; 31)&#45;&gt;n26 (0.88 &#45; 20) -->
<g id="edge16" class="edge"><title>n32 (0.75 &#45; 31)&#45;&gt;n26 (0.88 &#45; 20)</title>
<path fill="none" stroke="black" d="M867.702,-791.981C915.119,-779.867 989.195,-760.943 1039.99,-747.965"/>
<polygon fill="black" stroke="black" points="1041.01,-751.319 1049.83,-745.452 1039.27,-744.537 1041.01,-751.319"/>
</g>
<!-- KLOSGEN -->
<g id="node11" class="node"><title>KLOSGEN</title>
<ellipse fill="none" stroke="black" cx="754.84" cy="-482.122" rx="51.9908" ry="18"/>
<text text-anchor="middle" x="754.84" y="-478.422" font-family="Times,serif" font-size="14.00">KLOSGEN</text>
</g>
<!-- n31 (0.82 &#45; 11)&#45;&gt;KLOSGEN -->
<g id="edge10" class="edge"><title>n31 (0.82 &#45; 11)&#45;&gt;KLOSGEN</title>
<path fill="none" stroke="black" d="M817.235,-714.612C805.784,-672.128 775.952,-561.448 762.101,-510.062"/>
<polygon fill="black" stroke="black" points="765.46,-509.072 759.478,-500.327 758.701,-510.893 765.46,-509.072"/>
</g>
<!-- n30 (0.84 &#45; 10) -->
<g id="node12" class="node"><title>n30 (0.84 &#45; 10)</title>
<ellipse fill="none" stroke="black" cx="888.84" cy="-482.122" rx="64.189" ry="18"/>
<text text-anchor="middle" x="888.84" y="-478.422" font-family="Times,serif" font-size="14.00">n30 (0.84 &#45; 10)</text>
</g>
<!-- n31 (0.82 &#45; 11)&#45;&gt;n30 (0.84 &#45; 10) -->
<g id="edge11" class="edge"><title>n31 (0.82 &#45; 11)&#45;&gt;n30 (0.84 &#45; 10)</title>
<path fill="none" stroke="black" d="M826.445,-714.612C837.896,-672.128 867.729,-561.448 881.579,-510.062"/>
<polygon fill="black" stroke="black" points="884.98,-510.893 884.203,-500.327 878.221,-509.072 884.98,-510.893"/>
</g>
<!-- COSINE\nTWO_WAY_SUPPORT -->
<g id="node13" class="node"><title>COSINE\nTWO_WAY_SUPPORT</title>
<ellipse fill="none" stroke="black" cx="794.84" cy="-222.676" rx="108.789" ry="26.7407"/>
<text text-anchor="middle" x="794.84" y="-226.476" font-family="Times,serif" font-size="14.00">COSINE</text>
<text text-anchor="middle" x="794.84" y="-211.476" font-family="Times,serif" font-size="14.00">TWO_WAY_SUPPORT</text>
</g>
<!-- n30 (0.84 &#45; 10)&#45;&gt;COSINE\nTWO_WAY_SUPPORT -->
<g id="edge12" class="edge"><title>n30 (0.84 &#45; 10)&#45;&gt;COSINE\nTWO_WAY_SUPPORT</title>
<path fill="none" stroke="black" d="M882.527,-463.83C867.304,-422.14 828.329,-315.393 807.853,-259.314"/>
<polygon fill="black" stroke="black" points="811.091,-257.979 804.373,-249.786 804.516,-260.38 811.091,-257.979"/>
</g>
<!-- n27 (0.87 &#45; 8) -->
<g id="node14" class="node"><title>n27 (0.87 &#45; 8)</title>
<ellipse fill="none" stroke="black" cx="981.84" cy="-222.676" rx="59.5901" ry="18"/>
<text text-anchor="middle" x="981.84" y="-218.976" font-family="Times,serif" font-size="14.00">n27 (0.87 &#45; 8)</text>
</g>
<!-- n30 (0.84 &#45; 10)&#45;&gt;n27 (0.87 &#45; 8) -->
<g id="edge13" class="edge"><title>n30 (0.84 &#45; 10)&#45;&gt;n27 (0.87 &#45; 8)</title>
<path fill="none" stroke="black" d="M895.087,-463.83C910.97,-419.862 952.992,-303.536 972.116,-250.595"/>
<polygon fill="black" stroke="black" points="975.515,-251.487 975.621,-240.892 968.932,-249.108 975.515,-251.487"/>
</g>
<!-- KAPPA -->
<g id="node15" class="node"><title>KAPPA</title>
<ellipse fill="none" stroke="black" cx="869.84" cy="-79.9031" rx="39.7935" ry="18"/>
<text text-anchor="middle" x="869.84" y="-76.2031" font-family="Times,serif" font-size="14.00">KAPPA</text>
</g>
<!-- n27 (0.87 &#45; 8)&#45;&gt;KAPPA -->
<g id="edge14" class="edge"><title>n27 (0.87 &#45; 8)&#45;&gt;KAPPA</title>
<path fill="none" stroke="black" d="M963.019,-205.399C949.837,-193.493 932.253,-176.56 918.84,-159.806 905.446,-143.075 892.751,-122.448 883.641,-106.48"/>
<polygon fill="black" stroke="black" points="886.653,-104.696 878.712,-97.6822 880.546,-108.117 886.653,-104.696"/>
</g>
<!-- J_MEASURE\nTWO_WAY_SUPPORT_VARIATION\nFISHER_PVAL\nIMPLICATION_INDEX\nPHI\nGINI\nCHI_SQUARE -->
<g id="node16" class="node"><title>J_MEASURE\nTWO_WAY_SUPPORT_VARIATION\nFISHER_PVAL\nIMPLICATION_INDEX\nPHI\nGINI\nCHI_SQUARE</title>
<ellipse fill="none" stroke="black" cx="1094.84" cy="-79.9031" rx="166.754" ry="79.8063"/>
<text text-anchor="middle" x="1094.84" y="-121.203" font-family="Times,serif" font-size="14.00">J_MEASURE</text>
<text text-anchor="middle" x="1094.84" y="-106.203" font-family="Times,serif" font-size="14.00">TWO_WAY_SUPPORT_VARIATION</text>
<text text-anchor="middle" x="1094.84" y="-91.2031" font-family="Times,serif" font-size="14.00">FISHER_PVAL</text>
<text text-anchor="middle" x="1094.84" y="-76.2031" font-family="Times,serif" font-size="14.00">IMPLICATION_INDEX</text>
<text text-anchor="middle" x="1094.84" y="-61.2031" font-family="Times,serif" font-size="14.00">PHI</text>
<text text-anchor="middle" x="1094.84" y="-46.2031" font-family="Times,serif" font-size="14.00">GINI</text>
<text text-anchor="middle" x="1094.84" y="-31.2031" font-family="Times,serif" font-size="14.00">CHI_SQUARE</text>
</g>
<!-- n27 (0.87 &#45; 8)&#45;&gt;J_MEASURE\nTWO_WAY_SUPPORT_VARIATION\nFISHER_PVAL\nIMPLICATION_INDEX\nPHI\nGINI\nCHI_SQUARE -->
<g id="edge15" class="edge"><title>n27 (0.87 &#45; 8)&#45;&gt;J_MEASURE\nTWO_WAY_SUPPORT_VARIATION\nFISHER_PVAL\nIMPLICATION_INDEX\nPHI\nGINI\nCHI_SQUARE</title>
<path fill="none" stroke="black" d="M995.247,-204.975C1004.04,-194.022 1016.26,-178.799 1029.13,-162.759"/>
<polygon fill="black" stroke="black" points="1031.96,-164.823 1035.5,-154.834 1026.51,-160.442 1031.96,-164.823"/>
</g>
<!-- LEAST_CONTRADICTION\nACCURACY -->
<g id="node18" class="node"><title>LEAST_CONTRADICTION\nACCURACY</title>
<ellipse fill="none" stroke="black" cx="1095.84" cy="-482.122" rx="124.402" ry="26.7407"/>
<text text-anchor="middle" x="1095.84" y="-485.922" font-family="Times,serif" font-size="14.00">LEAST_CONTRADICTION</text>
<text text-anchor="middle" x="1095.84" y="-470.922" font-family="Times,serif" font-size="14.00">ACCURACY</text>
</g>
<!-- n26 (0.88 &#45; 20)&#45;&gt;LEAST_CONTRADICTION\nACCURACY -->
<g id="edge17" class="edge"><title>n26 (0.88 &#45; 20)&#45;&gt;LEAST_CONTRADICTION\nACCURACY</title>
<path fill="none" stroke="black" d="M1095.84,-714.612C1095.84,-674.507 1095.84,-573.632 1095.84,-519.231"/>
<polygon fill="black" stroke="black" points="1099.34,-519.002 1095.84,-509.002 1092.34,-519.002 1099.34,-519.002"/>
</g>
<!-- RELATIVE_RISK\nYULE_Y\nYULE_Q\nODDS_RATIO\nLEVERAGE\nONE_WAY_SUPPORT\nCONVICTION\nLOEVINGER\nSEBAG_SCHOENAUER\nODD_MULTIPLIER\nCOUNTER_EXAMPLE_RATE\nZHANG\nBAYES\nCENTERED_CONFIDENCE\nCERTAINTY_FACTOR\nADDED_VALUE\nLIFT\nCONFIDENCE -->
<g id="node19" class="node"><title>RELATIVE_RISK\nYULE_Y\nYULE_Q\nODDS_RATIO\nLEVERAGE\nONE_WAY_SUPPORT\nCONVICTION\nLOEVINGER\nSEBAG_SCHOENAUER\nODD_MULTIPLIER\nCOUNTER_EXAMPLE_RATE\nZHANG\nBAYES\nCENTERED_CONFIDENCE\nCERTAINTY_FACTOR\nADDED_VALUE\nLIFT\nCONFIDENCE</title>
<ellipse fill="none" stroke="black" cx="1375.84" cy="-482.122" rx="137.358" ry="196.651"/>
<text text-anchor="middle" x="1375.84" y="-605.922" font-family="Times,serif" font-size="14.00">RELATIVE_RISK</text>
<text text-anchor="middle" x="1375.84" y="-590.922" font-family="Times,serif" font-size="14.00">YULE_Y</text>
<text text-anchor="middle" x="1375.84" y="-575.922" font-family="Times,serif" font-size="14.00">YULE_Q</text>
<text text-anchor="middle" x="1375.84" y="-560.922" font-family="Times,serif" font-size="14.00">ODDS_RATIO</text>
<text text-anchor="middle" x="1375.84" y="-545.922" font-family="Times,serif" font-size="14.00">LEVERAGE</text>
<text text-anchor="middle" x="1375.84" y="-530.922" font-family="Times,serif" font-size="14.00">ONE_WAY_SUPPORT</text>
<text text-anchor="middle" x="1375.84" y="-515.922" font-family="Times,serif" font-size="14.00">CONVICTION</text>
<text text-anchor="middle" x="1375.84" y="-500.922" font-family="Times,serif" font-size="14.00">LOEVINGER</text>
<text text-anchor="middle" x="1375.84" y="-485.922" font-family="Times,serif" font-size="14.00">SEBAG_SCHOENAUER</text>
<text text-anchor="middle" x="1375.84" y="-470.922" font-family="Times,serif" font-size="14.00">ODD_MULTIPLIER</text>
<text text-anchor="middle" x="1375.84" y="-455.922" font-family="Times,serif" font-size="14.00">COUNTER_EXAMPLE_RATE</text>
<text text-anchor="middle" x="1375.84" y="-440.922" font-family="Times,serif" font-size="14.00">ZHANG</text>
<text text-anchor="middle" x="1375.84" y="-425.922" font-family="Times,serif" font-size="14.00">BAYES</text>
<text text-anchor="middle" x="1375.84" y="-410.922" font-family="Times,serif" font-size="14.00">CENTERED_CONFIDENCE</text>
<text text-anchor="middle" x="1375.84" y="-395.922" font-family="Times,serif" font-size="14.00">CERTAINTY_FACTOR</text>
<text text-anchor="middle" x="1375.84" y="-380.922" font-family="Times,serif" font-size="14.00">ADDED_VALUE</text>
<text text-anchor="middle" x="1375.84" y="-365.922" font-family="Times,serif" font-size="14.00">LIFT</text>
<text text-anchor="middle" x="1375.84" y="-350.922" font-family="Times,serif" font-size="14.00">CONFIDENCE</text>
</g>
<!-- n26 (0.88 &#45; 20)&#45;&gt;RELATIVE_RISK\nYULE_Y\nYULE_Q\nODDS_RATIO\nLEVERAGE\nONE_WAY_SUPPORT\nCONVICTION\nLOEVINGER\nSEBAG_SCHOENAUER\nODD_MULTIPLIER\nCOUNTER_EXAMPLE_RATE\nZHANG\nBAYES\nCENTERED_CONFIDENCE\nCERTAINTY_FACTOR\nADDED_VALUE\nLIFT\nCONFIDENCE -->
<g id="edge18" class="edge"><title>n26 (0.88 &#45; 20)&#45;&gt;RELATIVE_RISK\nYULE_Y\nYULE_Q\nODDS_RATIO\nLEVERAGE\nONE_WAY_SUPPORT\nCONVICTION\nLOEVINGER\nSEBAG_SCHOENAUER\nODD_MULTIPLIER\nCOUNTER_EXAMPLE_RATE\nZHANG\nBAYES\nCENTERED_CONFIDENCE\nCERTAINTY_FACTOR\nADDED_VALUE\nLIFT\nCONFIDENCE</title>
<path fill="none" stroke="black" d="M1142.13,-720.081C1169.27,-711.684 1203.17,-698.323 1228.84,-678.698 1245.67,-665.834 1261.51,-650.561 1276.13,-634.307"/>
<polygon fill="black" stroke="black" points="1278.78,-636.594 1282.75,-626.774 1273.52,-631.971 1278.78,-636.594"/>
</g>
</g>
</svg>
