<?xml version="1.0" encoding="UTF-8" standalone="no"?>
<!DOCTYPE svg PUBLIC "-//W3C//DTD SVG 1.1//EN"
 "http://www.w3.org/Graphics/SVG/1.1/DTD/svg11.dtd">
<!-- Generated by graphviz version 2.38.0 (20140413.2041)
 -->
<!-- Title: dendrogram Pages: 1 -->
<svg width="1009pt" height="788pt"
 viewBox="0.00 0.00 1009.06 788.27" xmlns="http://www.w3.org/2000/svg" xmlns:xlink="http://www.w3.org/1999/xlink">
<g id="graph0" class="graph" transform="scale(1 1) rotate(0) translate(4 784.271)">
<title>dendrogram</title>
<polygon fill="white" stroke="none" points="-4,4 -4,-784.271 1005.06,-784.271 1005.06,4 -4,4"/>
<!-- n34 (0.52 &#45; 36) -->
<g id="node1" class="node"><title>n34 (0.52 &#45; 36)</title>
<ellipse fill="none" stroke="black" cx="401.877" cy="-762.271" rx="64.189" ry="18"/>
<text text-anchor="middle" x="401.877" y="-758.571" font-family="Times,serif" font-size="14.00">n34 (0.52 &#45; 36)</text>
</g>
<!-- LEAST_CONTRADICTION\nACCURACY -->
<g id="node2" class="node"><title>LEAST_CONTRADICTION\nACCURACY</title>
<ellipse fill="none" stroke="black" cx="298.877" cy="-681.401" rx="124.402" ry="26.7407"/>
<text text-anchor="middle" x="298.877" y="-685.201" font-family="Times,serif" font-size="14.00">LEAST_CONTRADICTION</text>
<text text-anchor="middle" x="298.877" y="-670.201" font-family="Times,serif" font-size="14.00">ACCURACY</text>
</g>
<!-- n34 (0.52 &#45; 36)&#45;&gt;LEAST_CONTRADICTION\nACCURACY -->
<g id="edge1" class="edge"><title>n34 (0.52 &#45; 36)&#45;&gt;LEAST_CONTRADICTION\nACCURACY</title>
<path fill="none" stroke="black" d="M380.536,-744.929C368.714,-735.877 353.619,-724.318 339.63,-713.607"/>
<polygon fill="black" stroke="black" points="341.623,-710.725 331.555,-707.424 337.367,-716.282 341.623,-710.725"/>
</g>
<!-- n33 (0.64 &#45; 34) -->
<g id="node3" class="node"><title>n33 (0.64 &#45; 34)</title>
<ellipse fill="none" stroke="black" cx="505.877" cy="-681.401" rx="64.189" ry="18"/>
<text text-anchor="middle" x="505.877" y="-677.701" font-family="Times,serif" font-size="14.00">n33 (0.64 &#45; 34)</text>
</g>
<!-- n34 (0.52 &#45; 36)&#45;&gt;n33 (0.64 &#45; 34) -->
<g id="edge2" class="edge"><title>n34 (0.52 &#45; 36)&#45;&gt;n33 (0.64 &#45; 34)</title>
<path fill="none" stroke="black" d="M423.174,-745.12C438.597,-733.424 459.635,-717.47 476.632,-704.58"/>
<polygon fill="black" stroke="black" points="478.756,-707.362 484.609,-698.53 474.526,-701.784 478.756,-707.362"/>
</g>
<!-- n32 (0.70 &#45; 8) -->
<g id="node4" class="node"><title>n32 (0.70 &#45; 8)</title>
<ellipse fill="none" stroke="black" cx="411.877" cy="-600.531" rx="59.5901" ry="18"/>
<text text-anchor="middle" x="411.877" y="-596.831" font-family="Times,serif" font-size="14.00">n32 (0.70 &#45; 8)</text>
</g>
<!-- n33 (0.64 &#45; 34)&#45;&gt;n32 (0.70 &#45; 8) -->
<g id="edge3" class="edge"><title>n33 (0.64 &#45; 34)&#45;&gt;n32 (0.70 &#45; 8)</title>
<path fill="none" stroke="black" d="M486.4,-664.059C472.788,-652.638 454.421,-637.227 439.327,-624.563"/>
<polygon fill="black" stroke="black" points="441.239,-621.599 431.329,-617.852 436.74,-626.961 441.239,-621.599"/>
</g>
<!-- n31 (0.87 &#45; 26) -->
<g id="node9" class="node"><title>n31 (0.87 &#45; 26)</title>
<ellipse fill="none" stroke="black" cx="598.877" cy="-600.531" rx="64.189" ry="18"/>
<text text-anchor="middle" x="598.877" y="-596.831" font-family="Times,serif" font-size="14.00">n31 (0.87 &#45; 26)</text>
</g>
<!-- n33 (0.64 &#45; 34)&#45;&gt;n31 (0.87 &#45; 26) -->
<g id="edge8" class="edge"><title>n33 (0.64 &#45; 34)&#45;&gt;n31 (0.87 &#45; 26)</title>
<path fill="none" stroke="black" d="M525.147,-664.059C538.614,-652.638 556.786,-637.227 571.72,-624.563"/>
<polygon fill="black" stroke="black" points="574.269,-626.989 579.632,-617.852 569.742,-621.651 574.269,-626.989"/>
</g>
<!-- GINI\nCHI_SQUARE\nJ_MEASURE\nTWO_WAY_SUPPORT_VARIATION -->
<g id="node5" class="node"><title>GINI\nCHI_SQUARE\nJ_MEASURE\nTWO_WAY_SUPPORT_VARIATION</title>
<ellipse fill="none" stroke="black" cx="166.877" cy="-328.742" rx="166.754" ry="48.1667"/>
<text text-anchor="middle" x="166.877" y="-347.542" font-family="Times,serif" font-size="14.00">GINI</text>
<text text-anchor="middle" x="166.877" y="-332.542" font-family="Times,serif" font-size="14.00">CHI_SQUARE</text>
<text text-anchor="middle" x="166.877" y="-317.542" font-family="Times,serif" font-size="14.00">J_MEASURE</text>
<text text-anchor="middle" x="166.877" y="-302.542" font-family="Times,serif" font-size="14.00">TWO_WAY_SUPPORT_VARIATION</text>
</g>
<!-- n32 (0.70 &#45; 8)&#45;&gt;GINI\nCHI_SQUARE\nJ_MEASURE\nTWO_WAY_SUPPORT_VARIATION -->
<g id="edge4" class="edge"><title>n32 (0.70 &#45; 8)&#45;&gt;GINI\nCHI_SQUARE\nJ_MEASURE\nTWO_WAY_SUPPORT_VARIATION</title>
<path fill="none" stroke="black" d="M388.732,-583.835C374.792,-573.888 357.056,-560.333 342.877,-546.531 290.717,-495.757 239.195,-429.963 205.508,-384.237"/>
<polygon fill="black" stroke="black" points="208.163,-381.938 199.43,-375.94 202.517,-386.075 208.163,-381.938"/>
</g>
<!-- n30 (0.89 &#45; 4) -->
<g id="node6" class="node"><title>n30 (0.89 &#45; 4)</title>
<ellipse fill="none" stroke="black" cx="411.877" cy="-328.742" rx="59.5901" ry="18"/>
<text text-anchor="middle" x="411.877" y="-325.042" font-family="Times,serif" font-size="14.00">n30 (0.89 &#45; 4)</text>
</g>
<!-- n32 (0.70 &#45; 8)&#45;&gt;n30 (0.89 &#45; 4) -->
<g id="edge5" class="edge"><title>n32 (0.70 &#45; 8)&#45;&gt;n30 (0.89 &#45; 4)</title>
<path fill="none" stroke="black" d="M411.877,-582.244C411.877,-536.56 411.877,-412.349 411.877,-356.994"/>
<polygon fill="black" stroke="black" points="415.377,-356.885 411.877,-346.885 408.377,-356.885 415.377,-356.885"/>
</g>
<!-- COLLECTIVE_STRENGH -->
<g id="node7" class="node"><title>COLLECTIVE_STRENGH</title>
<ellipse fill="none" stroke="black" cx="319.877" cy="-37.4767" rx="109.681" ry="18"/>
<text text-anchor="middle" x="319.877" y="-33.7767" font-family="Times,serif" font-size="14.00">COLLECTIVE_STRENGH</text>
</g>
<!-- n30 (0.89 &#45; 4)&#45;&gt;COLLECTIVE_STRENGH -->
<g id="edge6" class="edge"><title>n30 (0.89 &#45; 4)&#45;&gt;COLLECTIVE_STRENGH</title>
<path fill="none" stroke="black" d="M406.398,-310.514C390.961,-261.979 347.031,-123.855 328.399,-65.2706"/>
<polygon fill="black" stroke="black" points="331.694,-64.0838 325.328,-55.615 325.024,-66.2054 331.694,-64.0838"/>
</g>
<!-- COSINE\nJACCARD\nRECALL -->
<g id="node8" class="node"><title>COSINE\nJACCARD\nRECALL</title>
<ellipse fill="none" stroke="black" cx="502.877" cy="-37.4767" rx="55.3091" ry="37.4533"/>
<text text-anchor="middle" x="502.877" y="-48.7767" font-family="Times,serif" font-size="14.00">COSINE</text>
<text text-anchor="middle" x="502.877" y="-33.7767" font-family="Times,serif" font-size="14.00">JACCARD</text>
<text text-anchor="middle" x="502.877" y="-18.7767" font-family="Times,serif" font-size="14.00">RECALL</text>
</g>
<!-- n30 (0.89 &#45; 4)&#45;&gt;COSINE\nJACCARD\nRECALL -->
<g id="edge7" class="edge"><title>n30 (0.89 &#45; 4)&#45;&gt;COSINE\nJACCARD\nRECALL</title>
<path fill="none" stroke="black" d="M417.235,-310.593C428.692,-273.938 456.437,-185.247 479.877,-110.953 482.648,-102.17 485.617,-92.7916 488.47,-83.7943"/>
<polygon fill="black" stroke="black" points="491.818,-84.8175 491.506,-74.2272 485.145,-82.7004 491.818,-84.8175"/>
</g>
<!-- KLOSGEN\nPHI\nFISHER_PVAL\nTWO_WAY_SUPPORT\nPIATETSKY_SHAPIRO\nSPECIFICITY -->
<g id="node10" class="node"><title>KLOSGEN\nPHI\nFISHER_PVAL\nTWO_WAY_SUPPORT\nPIATETSKY_SHAPIRO\nSPECIFICITY</title>
<ellipse fill="none" stroke="black" cx="598.877" cy="-328.742" rx="109.703" ry="69.0935"/>
<text text-anchor="middle" x="598.877" y="-362.542" font-family="Times,serif" font-size="14.00">KLOSGEN</text>
<text text-anchor="middle" x="598.877" y="-347.542" font-family="Times,serif" font-size="14.00">PHI</text>
<text text-anchor="middle" x="598.877" y="-332.542" font-family="Times,serif" font-size="14.00">FISHER_PVAL</text>
<text text-anchor="middle" x="598.877" y="-317.542" font-family="Times,serif" font-size="14.00">TWO_WAY_SUPPORT</text>
<text text-anchor="middle" x="598.877" y="-302.542" font-family="Times,serif" font-size="14.00">PIATETSKY_SHAPIRO</text>
<text text-anchor="middle" x="598.877" y="-287.542" font-family="Times,serif" font-size="14.00">SPECIFICITY</text>
</g>
<!-- n31 (0.87 &#45; 26)&#45;&gt;KLOSGEN\nPHI\nFISHER_PVAL\nTWO_WAY_SUPPORT\nPIATETSKY_SHAPIRO\nSPECIFICITY -->
<g id="edge9" class="edge"><title>n31 (0.87 &#45; 26)&#45;&gt;KLOSGEN\nPHI\nFISHER_PVAL\nTWO_WAY_SUPPORT\nPIATETSKY_SHAPIRO\nSPECIFICITY</title>
<path fill="none" stroke="black" d="M598.877,-582.244C598.877,-547.888 598.877,-469.12 598.877,-408.626"/>
<polygon fill="black" stroke="black" points="602.377,-408.322 598.877,-398.322 595.377,-408.322 602.377,-408.322"/>
</g>
<!-- IMPLICATION_INDEX\nKAPPA\nLEVERAGE\nRELATIVE_RISK\nYULE_Y\nYULE_Q\nODDS_RATIO\nONE_WAY_SUPPORT\nLOEVINGER\nSEBAG_SCHOENAUER\nCONVICTION\nODD_MULTIPLIER\nCOUNTER_EXAMPLE_RATE\nZHANG\nBAYES\nCENTERED_CONFIDENCE\nCERTAINTY_FACTOR\nADDED_VALUE\nLIFT\nCONFIDENCE -->
<g id="node11" class="node"><title>IMPLICATION_INDEX\nKAPPA\nLEVERAGE\nRELATIVE_RISK\nYULE_Y\nYULE_Q\nODDS_RATIO\nONE_WAY_SUPPORT\nLOEVINGER\nSEBAG_SCHOENAUER\nCONVICTION\nODD_MULTIPLIER\nCOUNTER_EXAMPLE_RATE\nZHANG\nBAYES\nCENTERED_CONFIDENCE\nCERTAINTY_FACTOR\nADDED_VALUE\nLIFT\nCONFIDENCE</title>
<ellipse fill="none" stroke="black" cx="863.877" cy="-328.742" rx="137.358" ry="217.578"/>
<text text-anchor="middle" x="863.877" y="-467.542" font-family="Times,serif" font-size="14.00">IMPLICATION_INDEX</text>
<text text-anchor="middle" x="863.877" y="-452.542" font-family="Times,serif" font-size="14.00">KAPPA</text>
<text text-anchor="middle" x="863.877" y="-437.542" font-family="Times,serif" font-size="14.00">LEVERAGE</text>
<text text-anchor="middle" x="863.877" y="-422.542" font-family="Times,serif" font-size="14.00">RELATIVE_RISK</text>
<text text-anchor="middle" x="863.877" y="-407.542" font-family="Times,serif" font-size="14.00">YULE_Y</text>
<text text-anchor="middle" x="863.877" y="-392.542" font-family="Times,serif" font-size="14.00">YULE_Q</text>
<text text-anchor="middle" x="863.877" y="-377.542" font-family="Times,serif" font-size="14.00">ODDS_RATIO</text>
<text text-anchor="middle" x="863.877" y="-362.542" font-family="Times,serif" font-size="14.00">ONE_WAY_SUPPORT</text>
<text text-anchor="middle" x="863.877" y="-347.542" font-family="Times,serif" font-size="14.00">LOEVINGER</text>
<text text-anchor="middle" x="863.877" y="-332.542" font-family="Times,serif" font-size="14.00">SEBAG_SCHOENAUER</text>
<text text-anchor="middle" x="863.877" y="-317.542" font-family="Times,serif" font-size="14.00">CONVICTION</text>
<text text-anchor="middle" x="863.877" y="-302.542" font-family="Times,serif" font-size="14.00">ODD_MULTIPLIER</text>
<text text-anchor="middle" x="863.877" y="-287.542" font-family="Times,serif" font-size="14.00">COUNTER_EXAMPLE_RATE</text>
<text text-anchor="middle" x="863.877" y="-272.542" font-family="Times,serif" font-size="14.00">ZHANG</text>
<text text-anchor="middle" x="863.877" y="-257.542" font-family="Times,serif" font-size="14.00">BAYES</text>
<text text-anchor="middle" x="863.877" y="-242.542" font-family="Times,serif" font-size="14.00">CENTERED_CONFIDENCE</text>
<text text-anchor="middle" x="863.877" y="-227.542" font-family="Times,serif" font-size="14.00">CERTAINTY_FACTOR</text>
<text text-anchor="middle" x="863.877" y="-212.542" font-family="Times,serif" font-size="14.00">ADDED_VALUE</text>
<text text-anchor="middle" x="863.877" y="-197.542" font-family="Times,serif" font-size="14.00">LIFT</text>
<text text-anchor="middle" x="863.877" y="-182.542" font-family="Times,serif" font-size="14.00">CONFIDENCE</text>
</g>
<!-- n31 (0.87 &#45; 26)&#45;&gt;IMPLICATION_INDEX\nKAPPA\nLEVERAGE\nRELATIVE_RISK\nYULE_Y\nYULE_Q\nODDS_RATIO\nONE_WAY_SUPPORT\nLOEVINGER\nSEBAG_SCHOENAUER\nCONVICTION\nODD_MULTIPLIER\nCOUNTER_EXAMPLE_RATE\nZHANG\nBAYES\nCENTERED_CONFIDENCE\nCERTAINTY_FACTOR\nADDED_VALUE\nLIFT\nCONFIDENCE -->
<g id="edge10" class="edge"><title>n31 (0.87 &#45; 26)&#45;&gt;IMPLICATION_INDEX\nKAPPA\nLEVERAGE\nRELATIVE_RISK\nYULE_Y\nYULE_Q\nODDS_RATIO\nONE_WAY_SUPPORT\nLOEVINGER\nSEBAG_SCHOENAUER\nCONVICTION\nODD_MULTIPLIER\nCOUNTER_EXAMPLE_RATE\nZHANG\nBAYES\nCENTERED_CONFIDENCE\nCERTAINTY_FACTOR\nADDED_VALUE\nLIFT\nCONFIDENCE</title>
<path fill="none" stroke="black" d="M641.751,-586.994C665.959,-578.398 695.709,-565.148 717.877,-546.531 734.752,-532.36 750.478,-515.763 764.884,-498.173"/>
<polygon fill="black" stroke="black" points="767.89,-500.019 771.41,-490.026 762.427,-495.642 767.89,-500.019"/>
</g>
</g>
</svg>
