<?xml version="1.0" encoding="UTF-8" standalone="no"?>
<!DOCTYPE svg PUBLIC "-//W3C//DTD SVG 1.1//EN"
 "http://www.w3.org/Graphics/SVG/1.1/DTD/svg11.dtd">
<!-- Generated by graphviz version 2.38.0 (20140413.2041)
 -->
<!-- Title: dendrogram Pages: 1 -->
<svg width="1718pt" height="852pt"
 viewBox="0.00 0.00 1718.37 852.31" xmlns="http://www.w3.org/2000/svg" xmlns:xlink="http://www.w3.org/1999/xlink">
<g id="graph0" class="graph" transform="scale(1 1) rotate(0) translate(4 848.306)">
<title>dendrogram</title>
<polygon fill="white" stroke="none" points="-4,4 -4,-848.306 1714.37,-848.306 1714.37,4 -4,4"/>
<!-- n34 (0.01 &#45; 36) -->
<g id="node1" class="node"><title>n34 (0.01 &#45; 36)</title>
<ellipse fill="none" stroke="black" cx="651.491" cy="-826.306" rx="64.189" ry="18"/>
<text text-anchor="middle" x="651.491" y="-822.606" font-family="Times,serif" font-size="14.00">n34 (0.01 &#45; 36)</text>
</g>
<!-- n31 (0.21 &#45; 11) -->
<g id="node2" class="node"><title>n31 (0.21 &#45; 11)</title>
<ellipse fill="none" stroke="black" cx="541.491" cy="-754.306" rx="64.189" ry="18"/>
<text text-anchor="middle" x="541.491" y="-750.606" font-family="Times,serif" font-size="14.00">n31 (0.21 &#45; 11)</text>
</g>
<!-- n34 (0.01 &#45; 36)&#45;&gt;n31 (0.21 &#45; 11) -->
<g id="edge1" class="edge"><title>n34 (0.01 &#45; 36)&#45;&gt;n31 (0.21 &#45; 11)</title>
<path fill="none" stroke="black" d="M626.805,-809.596C611.378,-799.779 591.324,-787.017 574.535,-776.334"/>
<polygon fill="black" stroke="black" points="576.411,-773.379 566.095,-770.963 572.653,-779.284 576.411,-773.379"/>
</g>
<!-- n33 (0.02 &#45; 25) -->
<g id="node7" class="node"><title>n33 (0.02 &#45; 25)</title>
<ellipse fill="none" stroke="black" cx="761.491" cy="-754.306" rx="64.189" ry="18"/>
<text text-anchor="middle" x="761.491" y="-750.606" font-family="Times,serif" font-size="14.00">n33 (0.02 &#45; 25)</text>
</g>
<!-- n34 (0.01 &#45; 36)&#45;&gt;n33 (0.02 &#45; 25) -->
<g id="edge6" class="edge"><title>n34 (0.01 &#45; 36)&#45;&gt;n33 (0.02 &#45; 25)</title>
<path fill="none" stroke="black" d="M676.177,-809.596C691.605,-799.779 711.659,-787.017 728.448,-776.334"/>
<polygon fill="black" stroke="black" points="730.33,-779.284 736.888,-770.963 726.572,-773.379 730.33,-779.284"/>
</g>
<!-- n29 (0.40 &#45; 2) -->
<g id="node3" class="node"><title>n29 (0.40 &#45; 2)</title>
<ellipse fill="none" stroke="black" cx="326.491" cy="-599.189" rx="59.5901" ry="18"/>
<text text-anchor="middle" x="326.491" y="-595.489" font-family="Times,serif" font-size="14.00">n29 (0.40 &#45; 2)</text>
</g>
<!-- n31 (0.21 &#45; 11)&#45;&gt;n29 (0.40 &#45; 2) -->
<g id="edge2" class="edge"><title>n31 (0.21 &#45; 11)&#45;&gt;n29 (0.40 &#45; 2)</title>
<path fill="none" stroke="black" d="M490.708,-743.093C460.735,-735.172 423.339,-721.82 395.491,-700.306 369.912,-680.544 350.246,-648.604 338.572,-626.124"/>
<polygon fill="black" stroke="black" points="341.674,-624.503 334.063,-617.132 335.417,-627.641 341.674,-624.503"/>
</g>
<!-- CENTERED_CONFIDENCE\nADDED_VALUE\nLOEVINGER\nSEBAG_SCHOENAUER\nCOUNTER_EXAMPLE_RATE\nCONVICTION\nCERTAINTY_FACTOR\nLEVERAGE\nCONFIDENCE -->
<g id="node6" class="node"><title>CENTERED_CONFIDENCE\nADDED_VALUE\nLOEVINGER\nSEBAG_SCHOENAUER\nCOUNTER_EXAMPLE_RATE\nCONVICTION\nCERTAINTY_FACTOR\nLEVERAGE\nCONFIDENCE</title>
<ellipse fill="none" stroke="black" cx="541.491" cy="-599.189" rx="137.358" ry="101.233"/>
<text text-anchor="middle" x="541.491" y="-655.489" font-family="Times,serif" font-size="14.00">CENTERED_CONFIDENCE</text>
<text text-anchor="middle" x="541.491" y="-640.489" font-family="Times,serif" font-size="14.00">ADDED_VALUE</text>
<text text-anchor="middle" x="541.491" y="-625.489" font-family="Times,serif" font-size="14.00">LOEVINGER</text>
<text text-anchor="middle" x="541.491" y="-610.489" font-family="Times,serif" font-size="14.00">SEBAG_SCHOENAUER</text>
<text text-anchor="middle" x="541.491" y="-595.489" font-family="Times,serif" font-size="14.00">COUNTER_EXAMPLE_RATE</text>
<text text-anchor="middle" x="541.491" y="-580.489" font-family="Times,serif" font-size="14.00">CONVICTION</text>
<text text-anchor="middle" x="541.491" y="-565.489" font-family="Times,serif" font-size="14.00">CERTAINTY_FACTOR</text>
<text text-anchor="middle" x="541.491" y="-550.489" font-family="Times,serif" font-size="14.00">LEVERAGE</text>
<text text-anchor="middle" x="541.491" y="-535.489" font-family="Times,serif" font-size="14.00">CONFIDENCE</text>
</g>
<!-- n31 (0.21 &#45; 11)&#45;&gt;CENTERED_CONFIDENCE\nADDED_VALUE\nLOEVINGER\nSEBAG_SCHOENAUER\nCOUNTER_EXAMPLE_RATE\nCONVICTION\nCERTAINTY_FACTOR\nLEVERAGE\nCONFIDENCE -->
<g id="edge5" class="edge"><title>n31 (0.21 &#45; 11)&#45;&gt;CENTERED_CONFIDENCE\nADDED_VALUE\nLOEVINGER\nSEBAG_SCHOENAUER\nCOUNTER_EXAMPLE_RATE\nCONVICTION\nCERTAINTY_FACTOR\nLEVERAGE\nCONFIDENCE</title>
<path fill="none" stroke="black" d="M541.491,-736.039C541.491,-728.941 541.491,-720.092 541.491,-710.335"/>
<polygon fill="black" stroke="black" points="544.991,-710.306 541.491,-700.306 537.991,-710.306 544.991,-710.306"/>
</g>
<!-- ONE_WAY_SUPPORT -->
<g id="node4" class="node"><title>ONE_WAY_SUPPORT</title>
<ellipse fill="none" stroke="black" cx="97.4913" cy="-424.597" rx="97.4827" ry="18"/>
<text text-anchor="middle" x="97.4913" y="-420.897" font-family="Times,serif" font-size="14.00">ONE_WAY_SUPPORT</text>
</g>
<!-- n29 (0.40 &#45; 2)&#45;&gt;ONE_WAY_SUPPORT -->
<g id="edge3" class="edge"><title>n29 (0.40 &#45; 2)&#45;&gt;ONE_WAY_SUPPORT</title>
<path fill="none" stroke="black" d="M305.358,-582.262C264.517,-551.481 174.638,-483.741 127.573,-448.269"/>
<polygon fill="black" stroke="black" points="129.671,-445.467 119.579,-442.243 125.458,-451.057 129.671,-445.467"/>
</g>
<!-- LEAST_CONTRADICTION -->
<g id="node5" class="node"><title>LEAST_CONTRADICTION</title>
<ellipse fill="none" stroke="black" cx="327.491" cy="-424.597" rx="114.28" ry="18"/>
<text text-anchor="middle" x="327.491" y="-420.897" font-family="Times,serif" font-size="14.00">LEAST_CONTRADICTION</text>
</g>
<!-- n29 (0.40 &#45; 2)&#45;&gt;LEAST_CONTRADICTION -->
<g id="edge4" class="edge"><title>n29 (0.40 &#45; 2)&#45;&gt;LEAST_CONTRADICTION</title>
<path fill="none" stroke="black" d="M326.591,-581.01C326.765,-551.028 327.124,-488.927 327.333,-452.964"/>
<polygon fill="black" stroke="black" points="330.834,-452.727 327.392,-442.707 323.834,-452.686 330.834,-452.727"/>
</g>
<!-- n32 (0.11 &#45; 12) -->
<g id="node8" class="node"><title>n32 (0.11 &#45; 12)</title>
<ellipse fill="none" stroke="black" cx="761.491" cy="-599.189" rx="64.189" ry="18"/>
<text text-anchor="middle" x="761.491" y="-595.489" font-family="Times,serif" font-size="14.00">n32 (0.11 &#45; 12)</text>
</g>
<!-- n33 (0.02 &#45; 25)&#45;&gt;n32 (0.11 &#45; 12) -->
<g id="edge7" class="edge"><title>n33 (0.02 &#45; 25)&#45;&gt;n32 (0.11 &#45; 12)</title>
<path fill="none" stroke="black" d="M761.491,-736.039C761.491,-709.733 761.491,-659.364 761.491,-627.899"/>
<polygon fill="black" stroke="black" points="764.991,-627.628 761.491,-617.628 757.991,-627.628 764.991,-627.628"/>
</g>
<!-- n26 (0.48 &#45; 13) -->
<g id="node21" class="node"><title>n26 (0.48 &#45; 13)</title>
<ellipse fill="none" stroke="black" cx="915.491" cy="-599.189" rx="64.189" ry="18"/>
<text text-anchor="middle" x="915.491" y="-595.489" font-family="Times,serif" font-size="14.00">n26 (0.48 &#45; 13)</text>
</g>
<!-- n33 (0.02 &#45; 25)&#45;&gt;n26 (0.48 &#45; 13) -->
<g id="edge20" class="edge"><title>n33 (0.02 &#45; 25)&#45;&gt;n26 (0.48 &#45; 13)</title>
<path fill="none" stroke="black" d="M786.403,-737.613C801.129,-727.77 819.723,-714.321 834.491,-700.306 858.864,-677.174 882.537,-646.696 897.932,-625.471"/>
<polygon fill="black" stroke="black" points="900.829,-627.436 903.803,-617.268 895.137,-623.362 900.829,-627.436"/>
</g>
<!-- COLLECTIVE_STRENGH -->
<g id="node9" class="node"><title>COLLECTIVE_STRENGH</title>
<ellipse fill="none" stroke="black" cx="569.491" cy="-424.597" rx="109.681" ry="18"/>
<text text-anchor="middle" x="569.491" y="-420.897" font-family="Times,serif" font-size="14.00">COLLECTIVE_STRENGH</text>
</g>
<!-- n32 (0.11 &#45; 12)&#45;&gt;COLLECTIVE_STRENGH -->
<g id="edge8" class="edge"><title>n32 (0.11 &#45; 12)&#45;&gt;COLLECTIVE_STRENGH</title>
<path fill="none" stroke="black" d="M751.665,-581.045C738.87,-559.763 714.881,-523.21 687.491,-498.073 665.052,-477.479 635.925,-459.519 612.224,-446.629"/>
<polygon fill="black" stroke="black" points="613.572,-443.382 603.101,-441.77 610.282,-449.56 613.572,-443.382"/>
</g>
<!-- n30 (0.34 &#45; 11) -->
<g id="node10" class="node"><title>n30 (0.34 &#45; 11)</title>
<ellipse fill="none" stroke="black" cx="761.491" cy="-424.597" rx="64.189" ry="18"/>
<text text-anchor="middle" x="761.491" y="-420.897" font-family="Times,serif" font-size="14.00">n30 (0.34 &#45; 11)</text>
</g>
<!-- n32 (0.11 &#45; 12)&#45;&gt;n30 (0.34 &#45; 11) -->
<g id="edge9" class="edge"><title>n32 (0.11 &#45; 12)&#45;&gt;n30 (0.34 &#45; 11)</title>
<path fill="none" stroke="black" d="M761.491,-581.01C761.491,-551.028 761.491,-488.927 761.491,-452.964"/>
<polygon fill="black" stroke="black" points="764.991,-452.707 761.491,-442.707 757.991,-452.707 764.991,-452.707"/>
</g>
<!-- n28 (0.40 &#45; 2) -->
<g id="node11" class="node"><title>n28 (0.40 &#45; 2)</title>
<ellipse fill="none" stroke="black" cx="655.491" cy="-333.12" rx="59.5901" ry="18"/>
<text text-anchor="middle" x="655.491" y="-329.42" font-family="Times,serif" font-size="14.00">n28 (0.40 &#45; 2)</text>
</g>
<!-- n30 (0.34 &#45; 11)&#45;&gt;n28 (0.40 &#45; 2) -->
<g id="edge10" class="edge"><title>n30 (0.34 &#45; 11)&#45;&gt;n28 (0.40 &#45; 2)</title>
<path fill="none" stroke="black" d="M742.049,-407.185C725.389,-393.122 701.213,-372.714 682.643,-357.039"/>
<polygon fill="black" stroke="black" points="684.709,-354.203 674.81,-350.427 680.194,-359.552 684.709,-354.203"/>
</g>
<!-- n27 (0.46 &#45; 9) -->
<g id="node14" class="node"><title>n27 (0.46 &#45; 9)</title>
<ellipse fill="none" stroke="black" cx="793.491" cy="-333.12" rx="59.5901" ry="18"/>
<text text-anchor="middle" x="793.491" y="-329.42" font-family="Times,serif" font-size="14.00">n27 (0.46 &#45; 9)</text>
</g>
<!-- n30 (0.34 &#45; 11)&#45;&gt;n27 (0.46 &#45; 9) -->
<g id="edge13" class="edge"><title>n30 (0.34 &#45; 11)&#45;&gt;n27 (0.46 &#45; 9)</title>
<path fill="none" stroke="black" d="M767.661,-406.345C772.265,-393.471 778.642,-375.64 783.908,-360.917"/>
<polygon fill="black" stroke="black" points="787.268,-361.913 787.34,-351.319 780.677,-359.556 787.268,-361.913"/>
</g>
<!-- SPECIFICITY -->
<g id="node12" class="node"><title>SPECIFICITY</title>
<ellipse fill="none" stroke="black" cx="533.491" cy="-261.12" rx="63.0888" ry="18"/>
<text text-anchor="middle" x="533.491" y="-257.42" font-family="Times,serif" font-size="14.00">SPECIFICITY</text>
</g>
<!-- n28 (0.40 &#45; 2)&#45;&gt;SPECIFICITY -->
<g id="edge11" class="edge"><title>n28 (0.40 &#45; 2)&#45;&gt;SPECIFICITY</title>
<path fill="none" stroke="black" d="M629.019,-316.931C611.474,-306.864 588.248,-293.537 569.09,-282.545"/>
<polygon fill="black" stroke="black" points="570.749,-279.462 560.333,-277.521 567.265,-285.533 570.749,-279.462"/>
</g>
<!-- RECALL -->
<g id="node13" class="node"><title>RECALL</title>
<ellipse fill="none" stroke="black" cx="659.491" cy="-261.12" rx="44.6926" ry="18"/>
<text text-anchor="middle" x="659.491" y="-257.42" font-family="Times,serif" font-size="14.00">RECALL</text>
</g>
<!-- n28 (0.40 &#45; 2)&#45;&gt;RECALL -->
<g id="edge12" class="edge"><title>n28 (0.40 &#45; 2)&#45;&gt;RECALL</title>
<path fill="none" stroke="black" d="M656.48,-314.816C656.921,-307.103 657.451,-297.832 657.942,-289.232"/>
<polygon fill="black" stroke="black" points="661.438,-289.408 658.514,-279.224 654.449,-289.008 661.438,-289.408"/>
</g>
<!-- ACCURACY -->
<g id="node15" class="node"><title>ACCURACY</title>
<ellipse fill="none" stroke="black" cx="789.491" cy="-261.12" rx="59.5901" ry="18"/>
<text text-anchor="middle" x="789.491" y="-257.42" font-family="Times,serif" font-size="14.00">ACCURACY</text>
</g>
<!-- n27 (0.46 &#45; 9)&#45;&gt;ACCURACY -->
<g id="edge14" class="edge"><title>n27 (0.46 &#45; 9)&#45;&gt;ACCURACY</title>
<path fill="none" stroke="black" d="M792.503,-314.816C792.062,-307.103 791.532,-297.832 791.041,-289.232"/>
<polygon fill="black" stroke="black" points="794.534,-289.008 790.469,-279.224 787.545,-289.408 794.534,-289.008"/>
</g>
<!-- n25 (0.54 &#45; 8) -->
<g id="node16" class="node"><title>n25 (0.54 &#45; 8)</title>
<ellipse fill="none" stroke="black" cx="927.491" cy="-261.12" rx="59.5901" ry="18"/>
<text text-anchor="middle" x="927.491" y="-257.42" font-family="Times,serif" font-size="14.00">n25 (0.54 &#45; 8)</text>
</g>
<!-- n27 (0.46 &#45; 9)&#45;&gt;n25 (0.54 &#45; 8) -->
<g id="edge15" class="edge"><title>n27 (0.46 &#45; 9)&#45;&gt;n25 (0.54 &#45; 8)</title>
<path fill="none" stroke="black" d="M821.909,-317.275C841.673,-306.951 868.23,-293.077 889.765,-281.828"/>
<polygon fill="black" stroke="black" points="891.409,-284.917 898.652,-277.185 888.168,-278.713 891.409,-284.917"/>
</g>
<!-- ODD_MULTIPLIER\nZHANG\nBAYES -->
<g id="node17" class="node"><title>ODD_MULTIPLIER\nZHANG\nBAYES</title>
<ellipse fill="none" stroke="black" cx="796.491" cy="-169.643" rx="94.5053" ry="37.4533"/>
<text text-anchor="middle" x="796.491" y="-180.943" font-family="Times,serif" font-size="14.00">ODD_MULTIPLIER</text>
<text text-anchor="middle" x="796.491" y="-165.943" font-family="Times,serif" font-size="14.00">ZHANG</text>
<text text-anchor="middle" x="796.491" y="-150.943" font-family="Times,serif" font-size="14.00">BAYES</text>
</g>
<!-- n25 (0.54 &#45; 8)&#45;&gt;ODD_MULTIPLIER\nZHANG\nBAYES -->
<g id="edge16" class="edge"><title>n25 (0.54 &#45; 8)&#45;&gt;ODD_MULTIPLIER\nZHANG\nBAYES</title>
<path fill="none" stroke="black" d="M904.373,-244.329C889.659,-234.279 869.944,-220.814 851.395,-208.144"/>
<polygon fill="black" stroke="black" points="853.208,-205.144 842.976,-202.393 849.26,-210.924 853.208,-205.144"/>
</g>
<!-- n20 (0.80 &#45; 5) -->
<g id="node18" class="node"><title>n20 (0.80 &#45; 5)</title>
<ellipse fill="none" stroke="black" cx="969.491" cy="-169.643" rx="59.5901" ry="18"/>
<text text-anchor="middle" x="969.491" y="-165.943" font-family="Times,serif" font-size="14.00">n20 (0.80 &#45; 5)</text>
</g>
<!-- n25 (0.54 &#45; 8)&#45;&gt;n20 (0.80 &#45; 5) -->
<g id="edge17" class="edge"><title>n25 (0.54 &#45; 8)&#45;&gt;n20 (0.80 &#45; 5)</title>
<path fill="none" stroke="black" d="M935.589,-242.868C941.729,-229.787 950.272,-211.588 957.245,-196.732"/>
<polygon fill="black" stroke="black" points="960.48,-198.078 961.561,-187.539 954.143,-195.104 960.48,-198.078"/>
</g>
<!-- RELATIVE_RISK -->
<g id="node19" class="node"><title>RELATIVE_RISK</title>
<ellipse fill="none" stroke="black" cx="857.491" cy="-48.0833" rx="77.9862" ry="18"/>
<text text-anchor="middle" x="857.491" y="-44.3833" font-family="Times,serif" font-size="14.00">RELATIVE_RISK</text>
</g>
<!-- n20 (0.80 &#45; 5)&#45;&gt;RELATIVE_RISK -->
<g id="edge18" class="edge"><title>n20 (0.80 &#45; 5)&#45;&gt;RELATIVE_RISK</title>
<path fill="none" stroke="black" d="M953.918,-152.019C934.802,-131.612 902.227,-96.838 880.29,-73.4208"/>
<polygon fill="black" stroke="black" points="882.684,-70.857 873.293,-65.9518 877.576,-75.6427 882.684,-70.857"/>
</g>
<!-- LIFT\nYULE_Y\nYULE_Q\nODDS_RATIO -->
<g id="node20" class="node"><title>LIFT\nYULE_Y\nYULE_Q\nODDS_RATIO</title>
<ellipse fill="none" stroke="black" cx="1024.49" cy="-48.0833" rx="71.3357" ry="48.1667"/>
<text text-anchor="middle" x="1024.49" y="-66.8833" font-family="Times,serif" font-size="14.00">LIFT</text>
<text text-anchor="middle" x="1024.49" y="-51.8833" font-family="Times,serif" font-size="14.00">YULE_Y</text>
<text text-anchor="middle" x="1024.49" y="-36.8833" font-family="Times,serif" font-size="14.00">YULE_Q</text>
<text text-anchor="middle" x="1024.49" y="-21.8833" font-family="Times,serif" font-size="14.00">ODDS_RATIO</text>
</g>
<!-- n20 (0.80 &#45; 5)&#45;&gt;LIFT\nYULE_Y\nYULE_Q\nODDS_RATIO -->
<g id="edge19" class="edge"><title>n20 (0.80 &#45; 5)&#45;&gt;LIFT\nYULE_Y\nYULE_Q\nODDS_RATIO</title>
<path fill="none" stroke="black" d="M977.255,-151.767C983.105,-139.05 991.473,-120.858 999.546,-103.31"/>
<polygon fill="black" stroke="black" points="1002.73,-104.773 1003.73,-94.2252 996.366,-101.847 1002.73,-104.773"/>
</g>
<!-- KAPPA\nPHI\nCHI_SQUARE -->
<g id="node22" class="node"><title>KAPPA\nPHI\nCHI_SQUARE</title>
<ellipse fill="none" stroke="black" cx="915.491" cy="-424.597" rx="71.3357" ry="37.4533"/>
<text text-anchor="middle" x="915.491" y="-435.897" font-family="Times,serif" font-size="14.00">KAPPA</text>
<text text-anchor="middle" x="915.491" y="-420.897" font-family="Times,serif" font-size="14.00">PHI</text>
<text text-anchor="middle" x="915.491" y="-405.897" font-family="Times,serif" font-size="14.00">CHI_SQUARE</text>
</g>
<!-- n26 (0.48 &#45; 13)&#45;&gt;KAPPA\nPHI\nCHI_SQUARE -->
<g id="edge21" class="edge"><title>n26 (0.48 &#45; 13)&#45;&gt;KAPPA\nPHI\nCHI_SQUARE</title>
<path fill="none" stroke="black" d="M915.491,-581.01C915.491,-555.944 915.491,-508.425 915.491,-472.502"/>
<polygon fill="black" stroke="black" points="918.991,-472.235 915.491,-462.235 911.991,-472.235 918.991,-472.235"/>
</g>
<!-- n24 (0.59 &#45; 10) -->
<g id="node23" class="node"><title>n24 (0.59 &#45; 10)</title>
<ellipse fill="none" stroke="black" cx="1069.49" cy="-424.597" rx="64.189" ry="18"/>
<text text-anchor="middle" x="1069.49" y="-420.897" font-family="Times,serif" font-size="14.00">n24 (0.59 &#45; 10)</text>
</g>
<!-- n26 (0.48 &#45; 13)&#45;&gt;n24 (0.59 &#45; 10) -->
<g id="edge22" class="edge"><title>n26 (0.48 &#45; 13)&#45;&gt;n24 (0.59 &#45; 10)</title>
<path fill="none" stroke="black" d="M930.258,-581.64C957.554,-551.049 1016.01,-485.53 1047.81,-449.894"/>
<polygon fill="black" stroke="black" points="1050.5,-452.141 1054.54,-442.349 1045.27,-447.48 1050.5,-452.141"/>
</g>
<!-- PIATETSKY_SHAPIRO -->
<g id="node24" class="node"><title>PIATETSKY_SHAPIRO</title>
<ellipse fill="none" stroke="black" cx="1036.49" cy="-333.12" rx="100.983" ry="18"/>
<text text-anchor="middle" x="1036.49" y="-329.42" font-family="Times,serif" font-size="14.00">PIATETSKY_SHAPIRO</text>
</g>
<!-- n24 (0.59 &#45; 10)&#45;&gt;PIATETSKY_SHAPIRO -->
<g id="edge23" class="edge"><title>n24 (0.59 &#45; 10)&#45;&gt;PIATETSKY_SHAPIRO</title>
<path fill="none" stroke="black" d="M1063.13,-406.345C1058.38,-393.471 1051.8,-375.64 1046.37,-360.917"/>
<polygon fill="black" stroke="black" points="1049.58,-359.49 1042.83,-351.319 1043.01,-361.912 1049.58,-359.49"/>
</g>
<!-- n23 (0.68 &#45; 9) -->
<g id="node25" class="node"><title>n23 (0.68 &#45; 9)</title>
<ellipse fill="none" stroke="black" cx="1215.49" cy="-333.12" rx="59.5901" ry="18"/>
<text text-anchor="middle" x="1215.49" y="-329.42" font-family="Times,serif" font-size="14.00">n23 (0.68 &#45; 9)</text>
</g>
<!-- n24 (0.59 &#45; 10)&#45;&gt;n23 (0.68 &#45; 9) -->
<g id="edge24" class="edge"><title>n24 (0.59 &#45; 10)&#45;&gt;n23 (0.68 &#45; 9)</title>
<path fill="none" stroke="black" d="M1094.92,-408.011C1119,-393.256 1155.3,-371.008 1181.78,-354.78"/>
<polygon fill="black" stroke="black" points="1183.65,-357.736 1190.35,-349.527 1180,-351.768 1183.65,-357.736"/>
</g>
<!-- KLOSGEN -->
<g id="node26" class="node"><title>KLOSGEN</title>
<ellipse fill="none" stroke="black" cx="1150.49" cy="-261.12" rx="51.9908" ry="18"/>
<text text-anchor="middle" x="1150.49" y="-257.42" font-family="Times,serif" font-size="14.00">KLOSGEN</text>
</g>
<!-- n23 (0.68 &#45; 9)&#45;&gt;KLOSGEN -->
<g id="edge25" class="edge"><title>n23 (0.68 &#45; 9)&#45;&gt;KLOSGEN</title>
<path fill="none" stroke="black" d="M1200.09,-315.531C1191.91,-306.726 1181.72,-295.748 1172.7,-286.039"/>
<polygon fill="black" stroke="black" points="1175.15,-283.536 1165.78,-278.59 1170.02,-288.299 1175.15,-283.536"/>
</g>
<!-- n22 (0.75 &#45; 8) -->
<g id="node27" class="node"><title>n22 (0.75 &#45; 8)</title>
<ellipse fill="none" stroke="black" cx="1280.49" cy="-261.12" rx="59.5901" ry="18"/>
<text text-anchor="middle" x="1280.49" y="-257.42" font-family="Times,serif" font-size="14.00">n22 (0.75 &#45; 8)</text>
</g>
<!-- n23 (0.68 &#45; 9)&#45;&gt;n22 (0.75 &#45; 8) -->
<g id="edge26" class="edge"><title>n23 (0.68 &#45; 9)&#45;&gt;n22 (0.75 &#45; 8)</title>
<path fill="none" stroke="black" d="M1230.9,-315.531C1239.07,-306.726 1249.27,-295.748 1258.28,-286.039"/>
<polygon fill="black" stroke="black" points="1260.96,-288.299 1265.2,-278.59 1255.83,-283.536 1260.96,-288.299"/>
</g>
<!-- COSINE\nJACCARD -->
<g id="node28" class="node"><title>COSINE\nJACCARD</title>
<ellipse fill="none" stroke="black" cx="1213.49" cy="-169.643" rx="55.3091" ry="26.7407"/>
<text text-anchor="middle" x="1213.49" y="-173.443" font-family="Times,serif" font-size="14.00">COSINE</text>
<text text-anchor="middle" x="1213.49" y="-158.443" font-family="Times,serif" font-size="14.00">JACCARD</text>
</g>
<!-- n22 (0.75 &#45; 8)&#45;&gt;COSINE\nJACCARD -->
<g id="edge27" class="edge"><title>n22 (0.75 &#45; 8)&#45;&gt;COSINE\nJACCARD</title>
<path fill="none" stroke="black" d="M1267.89,-243.29C1259.48,-232.055 1248.14,-216.91 1237.99,-203.355"/>
<polygon fill="black" stroke="black" points="1240.65,-201.077 1231.86,-195.171 1235.05,-205.273 1240.65,-201.077"/>
</g>
<!-- n21 (0.80 &#45; 6) -->
<g id="node29" class="node"><title>n21 (0.80 &#45; 6)</title>
<ellipse fill="none" stroke="black" cx="1346.49" cy="-169.643" rx="59.5901" ry="18"/>
<text text-anchor="middle" x="1346.49" y="-165.943" font-family="Times,serif" font-size="14.00">n21 (0.80 &#45; 6)</text>
</g>
<!-- n22 (0.75 &#45; 8)&#45;&gt;n21 (0.80 &#45; 6) -->
<g id="edge28" class="edge"><title>n22 (0.75 &#45; 8)&#45;&gt;n21 (0.80 &#45; 6)</title>
<path fill="none" stroke="black" d="M1292.91,-243.29C1302.77,-229.917 1316.72,-211.006 1327.91,-195.831"/>
<polygon fill="black" stroke="black" points="1331.01,-197.523 1334.13,-187.398 1325.38,-193.368 1331.01,-197.523"/>
</g>
<!-- GINI\nIMPLICATION_INDEX -->
<g id="node30" class="node"><title>GINI\nIMPLICATION_INDEX</title>
<ellipse fill="none" stroke="black" cx="1249.49" cy="-48.0833" rx="108.789" ry="26.7407"/>
<text text-anchor="middle" x="1249.49" y="-51.8833" font-family="Times,serif" font-size="14.00">GINI</text>
<text text-anchor="middle" x="1249.49" y="-36.8833" font-family="Times,serif" font-size="14.00">IMPLICATION_INDEX</text>
</g>
<!-- n21 (0.80 &#45; 6)&#45;&gt;GINI\nIMPLICATION_INDEX -->
<g id="edge29" class="edge"><title>n21 (0.80 &#45; 6)&#45;&gt;GINI\nIMPLICATION_INDEX</title>
<path fill="none" stroke="black" d="M1333,-152.019C1318.54,-134.189 1295.18,-105.393 1276.83,-82.7858"/>
<polygon fill="black" stroke="black" points="1279.35,-80.3291 1270.33,-74.7686 1273.91,-84.7394 1279.35,-80.3291"/>
</g>
<!-- TWO_WAY_SUPPORT\nTWO_WAY_SUPPORT_VARIATION\nJ_MEASURE\nFISHER_PVAL -->
<g id="node31" class="node"><title>TWO_WAY_SUPPORT\nTWO_WAY_SUPPORT_VARIATION\nJ_MEASURE\nFISHER_PVAL</title>
<ellipse fill="none" stroke="black" cx="1543.49" cy="-48.0833" rx="166.754" ry="48.1667"/>
<text text-anchor="middle" x="1543.49" y="-66.8833" font-family="Times,serif" font-size="14.00">TWO_WAY_SUPPORT</text>
<text text-anchor="middle" x="1543.49" y="-51.8833" font-family="Times,serif" font-size="14.00">TWO_WAY_SUPPORT_VARIATION</text>
<text text-anchor="middle" x="1543.49" y="-36.8833" font-family="Times,serif" font-size="14.00">J_MEASURE</text>
<text text-anchor="middle" x="1543.49" y="-21.8833" font-family="Times,serif" font-size="14.00">FISHER_PVAL</text>
</g>
<!-- n21 (0.80 &#45; 6)&#45;&gt;TWO_WAY_SUPPORT\nTWO_WAY_SUPPORT_VARIATION\nJ_MEASURE\nFISHER_PVAL -->
<g id="edge30" class="edge"><title>n21 (0.80 &#45; 6)&#45;&gt;TWO_WAY_SUPPORT\nTWO_WAY_SUPPORT_VARIATION\nJ_MEASURE\nFISHER_PVAL</title>
<path fill="none" stroke="black" d="M1371.84,-153.258C1395.21,-139.073 1431.17,-117.25 1464.15,-97.2349"/>
<polygon fill="black" stroke="black" points="1466.18,-100.1 1472.91,-91.9193 1462.55,-94.1156 1466.18,-100.1"/>
</g>
</g>
</svg>
