<?xml version="1.0" encoding="UTF-8" standalone="no"?>
<!DOCTYPE svg PUBLIC "-//W3C//DTD SVG 1.1//EN"
 "http://www.w3.org/Graphics/SVG/1.1/DTD/svg11.dtd">
<!-- Generated by graphviz version 2.38.0 (20140413.2041)
 -->
<!-- Title: dendrogram Pages: 1 -->
<svg width="1541pt" height="784pt"
 viewBox="0.00 0.00 1541.02 783.78" xmlns="http://www.w3.org/2000/svg" xmlns:xlink="http://www.w3.org/1999/xlink">
<g id="graph0" class="graph" transform="scale(1 1) rotate(0) translate(4 779.779)">
<title>dendrogram</title>
<polygon fill="white" stroke="none" points="-4,4 -4,-779.779 1537.02,-779.779 1537.02,4 -4,4"/>
<!-- n34 (0.00 &#45; 36) -->
<g id="node1" class="node"><title>n34 (0.00 &#45; 36)</title>
<ellipse fill="none" stroke="black" cx="653.84" cy="-757.779" rx="64.189" ry="18"/>
<text text-anchor="middle" x="653.84" y="-754.079" font-family="Times,serif" font-size="14.00">n34 (0.00 &#45; 36)</text>
</g>
<!-- n33 (0.06 &#45; 16) -->
<g id="node2" class="node"><title>n33 (0.06 &#45; 16)</title>
<ellipse fill="none" stroke="black" cx="546.84" cy="-685.779" rx="64.189" ry="18"/>
<text text-anchor="middle" x="546.84" y="-682.079" font-family="Times,serif" font-size="14.00">n33 (0.06 &#45; 16)</text>
</g>
<!-- n34 (0.00 &#45; 36)&#45;&gt;n33 (0.06 &#45; 16) -->
<g id="edge1" class="edge"><title>n34 (0.00 &#45; 36)&#45;&gt;n33 (0.06 &#45; 16)</title>
<path fill="none" stroke="black" d="M629.827,-741.069C615.063,-731.41 595.941,-718.901 579.774,-708.324"/>
<polygon fill="black" stroke="black" points="581.428,-705.224 571.143,-702.678 577.595,-711.081 581.428,-705.224"/>
</g>
<!-- n32 (0.11 &#45; 20) -->
<g id="node19" class="node"><title>n32 (0.11 &#45; 20)</title>
<ellipse fill="none" stroke="black" cx="761.84" cy="-685.779" rx="64.189" ry="18"/>
<text text-anchor="middle" x="761.84" y="-682.079" font-family="Times,serif" font-size="14.00">n32 (0.11 &#45; 20)</text>
</g>
<!-- n34 (0.00 &#45; 36)&#45;&gt;n32 (0.11 &#45; 20) -->
<g id="edge18" class="edge"><title>n34 (0.00 &#45; 36)&#45;&gt;n32 (0.11 &#45; 20)</title>
<path fill="none" stroke="black" d="M678.078,-741.069C692.98,-731.41 712.281,-718.901 728.599,-708.324"/>
<polygon fill="black" stroke="black" points="730.822,-711.054 737.31,-702.678 727.015,-705.18 730.822,-711.054"/>
</g>
<!-- n31 (0.25 &#45; 2) -->
<g id="node3" class="node"><title>n31 (0.25 &#45; 2)</title>
<ellipse fill="none" stroke="black" cx="300.84" cy="-613.779" rx="59.5901" ry="18"/>
<text text-anchor="middle" x="300.84" y="-610.079" font-family="Times,serif" font-size="14.00">n31 (0.25 &#45; 2)</text>
</g>
<!-- n33 (0.06 &#45; 16)&#45;&gt;n31 (0.25 &#45; 2) -->
<g id="edge2" class="edge"><title>n33 (0.06 &#45; 16)&#45;&gt;n31 (0.25 &#45; 2)</title>
<path fill="none" stroke="black" d="M503.427,-672.425C461.366,-660.457 397.545,-642.297 352.804,-629.565"/>
<polygon fill="black" stroke="black" points="353.574,-626.145 342.998,-626.775 351.658,-632.878 353.574,-626.145"/>
</g>
<!-- n30 (0.33 &#45; 14) -->
<g id="node6" class="node"><title>n30 (0.33 &#45; 14)</title>
<ellipse fill="none" stroke="black" cx="546.84" cy="-613.779" rx="64.189" ry="18"/>
<text text-anchor="middle" x="546.84" y="-610.079" font-family="Times,serif" font-size="14.00">n30 (0.33 &#45; 14)</text>
</g>
<!-- n33 (0.06 &#45; 16)&#45;&gt;n30 (0.33 &#45; 14) -->
<g id="edge5" class="edge"><title>n33 (0.06 &#45; 16)&#45;&gt;n30 (0.33 &#45; 14)</title>
<path fill="none" stroke="black" d="M546.84,-667.475C546.84,-659.762 546.84,-650.491 546.84,-641.891"/>
<polygon fill="black" stroke="black" points="550.34,-641.883 546.84,-631.883 543.34,-641.883 550.34,-641.883"/>
</g>
<!-- COLLECTIVE_STRENGH -->
<g id="node4" class="node"><title>COLLECTIVE_STRENGH</title>
<ellipse fill="none" stroke="black" cx="109.84" cy="-448.056" rx="109.681" ry="18"/>
<text text-anchor="middle" x="109.84" y="-444.356" font-family="Times,serif" font-size="14.00">COLLECTIVE_STRENGH</text>
</g>
<!-- n31 (0.25 &#45; 2)&#45;&gt;COLLECTIVE_STRENGH -->
<g id="edge3" class="edge"><title>n31 (0.25 &#45; 2)&#45;&gt;COLLECTIVE_STRENGH</title>
<path fill="none" stroke="black" d="M277.957,-596.953C263.548,-586.741 244.736,-572.95 228.84,-559.779 194.724,-531.509 157.694,-496.267 134.157,-473.239"/>
<polygon fill="black" stroke="black" points="136.595,-470.728 127.01,-466.216 131.689,-475.721 136.595,-470.728"/>
</g>
<!-- SPECIFICITY -->
<g id="node5" class="node"><title>SPECIFICITY</title>
<ellipse fill="none" stroke="black" cx="300.84" cy="-448.056" rx="63.0888" ry="18"/>
<text text-anchor="middle" x="300.84" y="-444.356" font-family="Times,serif" font-size="14.00">SPECIFICITY</text>
</g>
<!-- n31 (0.25 &#45; 2)&#45;&gt;SPECIFICITY -->
<g id="edge4" class="edge"><title>n31 (0.25 &#45; 2)&#45;&gt;SPECIFICITY</title>
<path fill="none" stroke="black" d="M300.84,-595.567C300.84,-567.268 300.84,-510.667 300.84,-476.699"/>
<polygon fill="black" stroke="black" points="304.34,-476.53 300.84,-466.53 297.34,-476.53 304.34,-476.53"/>
</g>
<!-- n26 (0.70 &#45; 2) -->
<g id="node7" class="node"><title>n26 (0.70 &#45; 2)</title>
<ellipse fill="none" stroke="black" cx="441.84" cy="-448.056" rx="59.5901" ry="18"/>
<text text-anchor="middle" x="441.84" y="-444.356" font-family="Times,serif" font-size="14.00">n26 (0.70 &#45; 2)</text>
</g>
<!-- n30 (0.33 &#45; 14)&#45;&gt;n26 (0.70 &#45; 2) -->
<g id="edge6" class="edge"><title>n30 (0.33 &#45; 14)&#45;&gt;n26 (0.70 &#45; 2)</title>
<path fill="none" stroke="black" d="M534.995,-595.708C527.888,-585.376 518.728,-571.898 510.84,-559.779 492.054,-530.915 471.242,-497.278 457.439,-474.72"/>
<polygon fill="black" stroke="black" points="460.355,-472.78 452.156,-466.069 454.38,-476.428 460.355,-472.78"/>
</g>
<!-- n27 (0.54 &#45; 12) -->
<g id="node10" class="node"><title>n27 (0.54 &#45; 12)</title>
<ellipse fill="none" stroke="black" cx="583.84" cy="-448.056" rx="64.189" ry="18"/>
<text text-anchor="middle" x="583.84" y="-444.356" font-family="Times,serif" font-size="14.00">n27 (0.54 &#45; 12)</text>
</g>
<!-- n30 (0.33 &#45; 14)&#45;&gt;n27 (0.54 &#45; 12) -->
<g id="edge9" class="edge"><title>n30 (0.33 &#45; 14)&#45;&gt;n27 (0.54 &#45; 12)</title>
<path fill="none" stroke="black" d="M550.73,-595.567C557.159,-567.119 570.051,-510.074 577.713,-476.167"/>
<polygon fill="black" stroke="black" points="581.212,-476.563 580.003,-466.037 574.384,-475.02 581.212,-476.563"/>
</g>
<!-- PIATETSKY_SHAPIRO -->
<g id="node8" class="node"><title>PIATETSKY_SHAPIRO</title>
<ellipse fill="none" stroke="black" cx="282.84" cy="-282.333" rx="100.983" ry="18"/>
<text text-anchor="middle" x="282.84" y="-278.633" font-family="Times,serif" font-size="14.00">PIATETSKY_SHAPIRO</text>
</g>
<!-- n26 (0.70 &#45; 2)&#45;&gt;PIATETSKY_SHAPIRO -->
<g id="edge7" class="edge"><title>n26 (0.70 &#45; 2)&#45;&gt;PIATETSKY_SHAPIRO</title>
<path fill="none" stroke="black" d="M434.383,-429.928C423.539,-406.539 401.541,-364.323 372.84,-336.333 359.709,-323.527 342.905,-312.567 327.379,-303.993"/>
<polygon fill="black" stroke="black" points="328.895,-300.835 318.423,-299.225 325.605,-307.014 328.895,-300.835"/>
</g>
<!-- RECALL -->
<g id="node9" class="node"><title>RECALL</title>
<ellipse fill="none" stroke="black" cx="446.84" cy="-282.333" rx="44.6926" ry="18"/>
<text text-anchor="middle" x="446.84" y="-278.633" font-family="Times,serif" font-size="14.00">RECALL</text>
</g>
<!-- n26 (0.70 &#45; 2)&#45;&gt;RECALL -->
<g id="edge8" class="edge"><title>n26 (0.70 &#45; 2)&#45;&gt;RECALL</title>
<path fill="none" stroke="black" d="M442.366,-429.844C443.23,-401.545 444.959,-344.944 445.996,-310.976"/>
<polygon fill="black" stroke="black" points="449.5,-310.909 446.307,-300.807 442.503,-310.695 449.5,-310.909"/>
</g>
<!-- n24 (0.74 &#45; 6) -->
<g id="node11" class="node"><title>n24 (0.74 &#45; 6)</title>
<ellipse fill="none" stroke="black" cx="578.84" cy="-282.333" rx="59.5901" ry="18"/>
<text text-anchor="middle" x="578.84" y="-278.633" font-family="Times,serif" font-size="14.00">n24 (0.74 &#45; 6)</text>
</g>
<!-- n27 (0.54 &#45; 12)&#45;&gt;n24 (0.74 &#45; 6) -->
<g id="edge10" class="edge"><title>n27 (0.54 &#45; 12)&#45;&gt;n24 (0.74 &#45; 6)</title>
<path fill="none" stroke="black" d="M583.315,-429.844C582.45,-401.545 580.722,-344.944 579.684,-310.976"/>
<polygon fill="black" stroke="black" points="583.178,-310.695 579.374,-300.807 576.181,-310.909 583.178,-310.695"/>
</g>
<!-- n25 (0.70 &#45; 6) -->
<g id="node14" class="node"><title>n25 (0.70 &#45; 6)</title>
<ellipse fill="none" stroke="black" cx="805.84" cy="-282.333" rx="59.5901" ry="18"/>
<text text-anchor="middle" x="805.84" y="-278.633" font-family="Times,serif" font-size="14.00">n25 (0.70 &#45; 6)</text>
</g>
<!-- n27 (0.54 &#45; 12)&#45;&gt;n25 (0.70 &#45; 6) -->
<g id="edge13" class="edge"><title>n27 (0.54 &#45; 12)&#45;&gt;n25 (0.70 &#45; 6)</title>
<path fill="none" stroke="black" d="M590.877,-429.932C601.638,-405.762 624.404,-361.759 656.84,-336.333 682.855,-315.941 717.354,-303.007 746.604,-295.027"/>
<polygon fill="black" stroke="black" points="747.505,-298.409 756.303,-292.507 745.744,-291.634 747.505,-298.409"/>
</g>
<!-- KLOSGEN -->
<g id="node12" class="node"><title>KLOSGEN</title>
<ellipse fill="none" stroke="black" cx="399.84" cy="-169.643" rx="51.9908" ry="18"/>
<text text-anchor="middle" x="399.84" y="-165.943" font-family="Times,serif" font-size="14.00">KLOSGEN</text>
</g>
<!-- n24 (0.74 &#45; 6)&#45;&gt;KLOSGEN -->
<g id="edge11" class="edge"><title>n24 (0.74 &#45; 6)&#45;&gt;KLOSGEN</title>
<path fill="none" stroke="black" d="M541.293,-268.203C517.24,-258.911 485.942,-245.134 460.84,-228.333 446.569,-218.781 432.514,-205.803 421.499,-194.575"/>
<polygon fill="black" stroke="black" points="423.834,-191.953 414.393,-187.145 418.775,-196.791 423.834,-191.953"/>
</g>
<!-- COSINE\nGINI\nPHI\nCHI_SQUARE\nIMPLICATION_INDEX -->
<g id="node13" class="node"><title>COSINE\nGINI\nPHI\nCHI_SQUARE\nIMPLICATION_INDEX</title>
<ellipse fill="none" stroke="black" cx="578.84" cy="-169.643" rx="108.789" ry="58.8803"/>
<text text-anchor="middle" x="578.84" y="-195.943" font-family="Times,serif" font-size="14.00">COSINE</text>
<text text-anchor="middle" x="578.84" y="-180.943" font-family="Times,serif" font-size="14.00">GINI</text>
<text text-anchor="middle" x="578.84" y="-165.943" font-family="Times,serif" font-size="14.00">PHI</text>
<text text-anchor="middle" x="578.84" y="-150.943" font-family="Times,serif" font-size="14.00">CHI_SQUARE</text>
<text text-anchor="middle" x="578.84" y="-135.943" font-family="Times,serif" font-size="14.00">IMPLICATION_INDEX</text>
</g>
<!-- n24 (0.74 &#45; 6)&#45;&gt;COSINE\nGINI\nPHI\nCHI_SQUARE\nIMPLICATION_INDEX -->
<g id="edge12" class="edge"><title>n24 (0.74 &#45; 6)&#45;&gt;COSINE\nGINI\nPHI\nCHI_SQUARE\nIMPLICATION_INDEX</title>
<path fill="none" stroke="black" d="M578.84,-264.038C578.84,-256.893 578.84,-248.109 578.84,-238.814"/>
<polygon fill="black" stroke="black" points="582.34,-238.582 578.84,-228.582 575.34,-238.582 582.34,-238.582"/>
</g>
<!-- TWO_WAY_SUPPORT -->
<g id="node15" class="node"><title>TWO_WAY_SUPPORT</title>
<ellipse fill="none" stroke="black" cx="805.84" cy="-169.643" rx="100.182" ry="18"/>
<text text-anchor="middle" x="805.84" y="-165.943" font-family="Times,serif" font-size="14.00">TWO_WAY_SUPPORT</text>
</g>
<!-- n25 (0.70 &#45; 6)&#45;&gt;TWO_WAY_SUPPORT -->
<g id="edge14" class="edge"><title>n25 (0.70 &#45; 6)&#45;&gt;TWO_WAY_SUPPORT</title>
<path fill="none" stroke="black" d="M805.84,-264.038C805.84,-246.33 805.84,-218.549 805.84,-197.884"/>
<polygon fill="black" stroke="black" points="809.34,-197.817 805.84,-187.817 802.34,-197.817 809.34,-197.817"/>
</g>
<!-- n23 (0.78 &#45; 5) -->
<g id="node16" class="node"><title>n23 (0.78 &#45; 5)</title>
<ellipse fill="none" stroke="black" cx="983.84" cy="-169.643" rx="59.5901" ry="18"/>
<text text-anchor="middle" x="983.84" y="-165.943" font-family="Times,serif" font-size="14.00">n23 (0.78 &#45; 5)</text>
</g>
<!-- n25 (0.70 &#45; 6)&#45;&gt;n23 (0.78 &#45; 5) -->
<g id="edge15" class="edge"><title>n25 (0.70 &#45; 6)&#45;&gt;n23 (0.78 &#45; 5)</title>
<path fill="none" stroke="black" d="M839.891,-267.35C861.985,-257.664 890.993,-243.769 914.84,-228.333 930.324,-218.31 946.21,-205.254 958.83,-194.098"/>
<polygon fill="black" stroke="black" points="961.522,-196.383 966.614,-187.092 956.84,-191.18 961.522,-196.383"/>
</g>
<!-- JACCARD\nKAPPA -->
<g id="node17" class="node"><title>JACCARD\nKAPPA</title>
<ellipse fill="none" stroke="black" cx="863.84" cy="-37.4767" rx="55.3091" ry="26.7407"/>
<text text-anchor="middle" x="863.84" y="-41.2767" font-family="Times,serif" font-size="14.00">JACCARD</text>
<text text-anchor="middle" x="863.84" y="-26.2767" font-family="Times,serif" font-size="14.00">KAPPA</text>
</g>
<!-- n23 (0.78 &#45; 5)&#45;&gt;JACCARD\nKAPPA -->
<g id="edge16" class="edge"><title>n23 (0.78 &#45; 5)&#45;&gt;JACCARD\nKAPPA</title>
<path fill="none" stroke="black" d="M968.642,-152.158C949.585,-131.486 916.518,-95.6178 892.616,-69.6907"/>
<polygon fill="black" stroke="black" points="895.18,-67.3076 885.828,-62.3275 890.033,-72.0523 895.18,-67.3076"/>
</g>
<!-- J_MEASURE\nTWO_WAY_SUPPORT_VARIATION\nFISHER_PVAL -->
<g id="node18" class="node"><title>J_MEASURE\nTWO_WAY_SUPPORT_VARIATION\nFISHER_PVAL</title>
<ellipse fill="none" stroke="black" cx="1103.84" cy="-37.4767" rx="166.754" ry="37.4533"/>
<text text-anchor="middle" x="1103.84" y="-48.7767" font-family="Times,serif" font-size="14.00">J_MEASURE</text>
<text text-anchor="middle" x="1103.84" y="-33.7767" font-family="Times,serif" font-size="14.00">TWO_WAY_SUPPORT_VARIATION</text>
<text text-anchor="middle" x="1103.84" y="-18.7767" font-family="Times,serif" font-size="14.00">FISHER_PVAL</text>
</g>
<!-- n23 (0.78 &#45; 5)&#45;&gt;J_MEASURE\nTWO_WAY_SUPPORT_VARIATION\nFISHER_PVAL -->
<g id="edge17" class="edge"><title>n23 (0.78 &#45; 5)&#45;&gt;J_MEASURE\nTWO_WAY_SUPPORT_VARIATION\nFISHER_PVAL</title>
<path fill="none" stroke="black" d="M999.038,-152.158C1015.2,-134.626 1041.44,-106.165 1063.62,-82.1075"/>
<polygon fill="black" stroke="black" points="1066.45,-84.1954 1070.66,-74.4707 1061.31,-79.4507 1066.45,-84.1954"/>
</g>
<!-- n29 (0.41 &#45; 9) -->
<g id="node20" class="node"><title>n29 (0.41 &#45; 9)</title>
<ellipse fill="none" stroke="black" cx="761.84" cy="-613.779" rx="59.5901" ry="18"/>
<text text-anchor="middle" x="761.84" y="-610.079" font-family="Times,serif" font-size="14.00">n29 (0.41 &#45; 9)</text>
</g>
<!-- n32 (0.11 &#45; 20)&#45;&gt;n29 (0.41 &#45; 9) -->
<g id="edge19" class="edge"><title>n32 (0.11 &#45; 20)&#45;&gt;n29 (0.41 &#45; 9)</title>
<path fill="none" stroke="black" d="M761.84,-667.475C761.84,-659.762 761.84,-650.491 761.84,-641.891"/>
<polygon fill="black" stroke="black" points="765.34,-641.883 761.84,-631.883 758.34,-641.883 765.34,-641.883"/>
</g>
<!-- n28 (0.45 &#45; 11) -->
<g id="node23" class="node"><title>n28 (0.45 &#45; 11)</title>
<ellipse fill="none" stroke="black" cx="1125.84" cy="-613.779" rx="64.189" ry="18"/>
<text text-anchor="middle" x="1125.84" y="-610.079" font-family="Times,serif" font-size="14.00">n28 (0.45 &#45; 11)</text>
</g>
<!-- n32 (0.11 &#45; 20)&#45;&gt;n28 (0.45 &#45; 11) -->
<g id="edge22" class="edge"><title>n32 (0.11 &#45; 20)&#45;&gt;n28 (0.45 &#45; 11)</title>
<path fill="none" stroke="black" d="M813.221,-674.898C879.249,-662.2 993.755,-640.18 1064.34,-626.605"/>
<polygon fill="black" stroke="black" points="1065.27,-629.991 1074.43,-624.666 1063.95,-623.117 1065.27,-629.991"/>
</g>
<!-- ACCURACY -->
<g id="node21" class="node"><title>ACCURACY</title>
<ellipse fill="none" stroke="black" cx="725.84" cy="-448.056" rx="59.5901" ry="18"/>
<text text-anchor="middle" x="725.84" y="-444.356" font-family="Times,serif" font-size="14.00">ACCURACY</text>
</g>
<!-- n29 (0.41 &#45; 9)&#45;&gt;ACCURACY -->
<g id="edge20" class="edge"><title>n29 (0.41 &#45; 9)&#45;&gt;ACCURACY</title>
<path fill="none" stroke="black" d="M758.056,-595.567C751.8,-567.119 739.257,-510.074 731.802,-476.167"/>
<polygon fill="black" stroke="black" points="735.14,-475.052 729.574,-466.037 728.303,-476.555 735.14,-475.052"/>
</g>
<!-- RELATIVE_RISK\nLIFT\nYULE_Y\nYULE_Q\nODD_MULTIPLIER\nZHANG\nODDS_RATIO\nBAYES -->
<g id="node22" class="node"><title>RELATIVE_RISK\nLIFT\nYULE_Y\nYULE_Q\nODD_MULTIPLIER\nZHANG\nODDS_RATIO\nBAYES</title>
<ellipse fill="none" stroke="black" cx="898.84" cy="-448.056" rx="94.5053" ry="90.5193"/>
<text text-anchor="middle" x="898.84" y="-496.856" font-family="Times,serif" font-size="14.00">RELATIVE_RISK</text>
<text text-anchor="middle" x="898.84" y="-481.856" font-family="Times,serif" font-size="14.00">LIFT</text>
<text text-anchor="middle" x="898.84" y="-466.856" font-family="Times,serif" font-size="14.00">YULE_Y</text>
<text text-anchor="middle" x="898.84" y="-451.856" font-family="Times,serif" font-size="14.00">YULE_Q</text>
<text text-anchor="middle" x="898.84" y="-436.856" font-family="Times,serif" font-size="14.00">ODD_MULTIPLIER</text>
<text text-anchor="middle" x="898.84" y="-421.856" font-family="Times,serif" font-size="14.00">ZHANG</text>
<text text-anchor="middle" x="898.84" y="-406.856" font-family="Times,serif" font-size="14.00">ODDS_RATIO</text>
<text text-anchor="middle" x="898.84" y="-391.856" font-family="Times,serif" font-size="14.00">BAYES</text>
</g>
<!-- n29 (0.41 &#45; 9)&#45;&gt;RELATIVE_RISK\nLIFT\nYULE_Y\nYULE_Q\nODD_MULTIPLIER\nZHANG\nODDS_RATIO\nBAYES -->
<g id="edge21" class="edge"><title>n29 (0.41 &#45; 9)&#45;&gt;RELATIVE_RISK\nLIFT\nYULE_Y\nYULE_Q\nODD_MULTIPLIER\nZHANG\nODDS_RATIO\nBAYES</title>
<path fill="none" stroke="black" d="M775.73,-596.179C789.537,-579.679 811.744,-553.141 833.521,-527.116"/>
<polygon fill="black" stroke="black" points="836.215,-529.35 839.949,-519.435 830.847,-524.858 836.215,-529.35"/>
</g>
<!-- LEAST_CONTRADICTION -->
<g id="node24" class="node"><title>LEAST_CONTRADICTION</title>
<ellipse fill="none" stroke="black" cx="1125.84" cy="-448.056" rx="114.28" ry="18"/>
<text text-anchor="middle" x="1125.84" y="-444.356" font-family="Times,serif" font-size="14.00">LEAST_CONTRADICTION</text>
</g>
<!-- n28 (0.45 &#45; 11)&#45;&gt;LEAST_CONTRADICTION -->
<g id="edge23" class="edge"><title>n28 (0.45 &#45; 11)&#45;&gt;LEAST_CONTRADICTION</title>
<path fill="none" stroke="black" d="M1125.84,-595.567C1125.84,-567.268 1125.84,-510.667 1125.84,-476.699"/>
<polygon fill="black" stroke="black" points="1129.34,-476.53 1125.84,-466.53 1122.34,-476.53 1129.34,-476.53"/>
</g>
<!-- ONE_WAY_SUPPORT\nCONVICTION\nLOEVINGER\nSEBAG_SCHOENAUER\nCOUNTER_EXAMPLE_RATE\nCERTAINTY_FACTOR\nCENTERED_CONFIDENCE\nADDED_VALUE\nLEVERAGE\nCONFIDENCE -->
<g id="node25" class="node"><title>ONE_WAY_SUPPORT\nCONVICTION\nLOEVINGER\nSEBAG_SCHOENAUER\nCOUNTER_EXAMPLE_RATE\nCERTAINTY_FACTOR\nCENTERED_CONFIDENCE\nADDED_VALUE\nLEVERAGE\nCONFIDENCE</title>
<ellipse fill="none" stroke="black" cx="1395.84" cy="-448.056" rx="137.358" ry="111.946"/>
<text text-anchor="middle" x="1395.84" y="-511.856" font-family="Times,serif" font-size="14.00">ONE_WAY_SUPPORT</text>
<text text-anchor="middle" x="1395.84" y="-496.856" font-family="Times,serif" font-size="14.00">CONVICTION</text>
<text text-anchor="middle" x="1395.84" y="-481.856" font-family="Times,serif" font-size="14.00">LOEVINGER</text>
<text text-anchor="middle" x="1395.84" y="-466.856" font-family="Times,serif" font-size="14.00">SEBAG_SCHOENAUER</text>
<text text-anchor="middle" x="1395.84" y="-451.856" font-family="Times,serif" font-size="14.00">COUNTER_EXAMPLE_RATE</text>
<text text-anchor="middle" x="1395.84" y="-436.856" font-family="Times,serif" font-size="14.00">CERTAINTY_FACTOR</text>
<text text-anchor="middle" x="1395.84" y="-421.856" font-family="Times,serif" font-size="14.00">CENTERED_CONFIDENCE</text>
<text text-anchor="middle" x="1395.84" y="-406.856" font-family="Times,serif" font-size="14.00">ADDED_VALUE</text>
<text text-anchor="middle" x="1395.84" y="-391.856" font-family="Times,serif" font-size="14.00">LEVERAGE</text>
<text text-anchor="middle" x="1395.84" y="-376.856" font-family="Times,serif" font-size="14.00">CONFIDENCE</text>
</g>
<!-- n28 (0.45 &#45; 11)&#45;&gt;ONE_WAY_SUPPORT\nCONVICTION\nLOEVINGER\nSEBAG_SCHOENAUER\nCOUNTER_EXAMPLE_RATE\nCERTAINTY_FACTOR\nCENTERED_CONFIDENCE\nADDED_VALUE\nLEVERAGE\nCONFIDENCE -->
<g id="edge24" class="edge"><title>n28 (0.45 &#45; 11)&#45;&gt;ONE_WAY_SUPPORT\nCONVICTION\nLOEVINGER\nSEBAG_SCHOENAUER\nCOUNTER_EXAMPLE_RATE\nCERTAINTY_FACTOR\nCENTERED_CONFIDENCE\nADDED_VALUE\nLEVERAGE\nCONFIDENCE</title>
<path fill="none" stroke="black" d="M1163.83,-599.123C1188.73,-589.524 1221.6,-575.603 1248.84,-559.779 1262.68,-551.739 1276.74,-542.605 1290.39,-533.113"/>
<polygon fill="black" stroke="black" points="1292.68,-535.785 1298.83,-527.164 1288.64,-530.062 1292.68,-535.785"/>
</g>
</g>
</svg>
