<?xml version="1.0" encoding="UTF-8" standalone="no"?>
<!DOCTYPE svg PUBLIC "-//W3C//DTD SVG 1.1//EN"
 "http://www.w3.org/Graphics/SVG/1.1/DTD/svg11.dtd">
<!-- Generated by graphviz version 2.38.0 (20140413.2041)
 -->
<!-- Title: dendrogram Pages: 1 -->
<svg width="1114pt" height="1112pt"
 viewBox="0.00 0.00 1114.44 1111.75" xmlns="http://www.w3.org/2000/svg" xmlns:xlink="http://www.w3.org/1999/xlink">
<g id="graph0" class="graph" transform="scale(1 1) rotate(0) translate(4 1107.75)">
<title>dendrogram</title>
<polygon fill="white" stroke="none" points="-4,4 -4,-1107.75 1110.44,-1107.75 1110.44,4 -4,4"/>
<!-- n34 (0.22 &#45; 36) -->
<g id="node1" class="node"><title>n34 (0.22 &#45; 36)</title>
<ellipse fill="none" stroke="black" cx="323.84" cy="-1085.75" rx="64.189" ry="18"/>
<text text-anchor="middle" x="323.84" y="-1082.05" font-family="Times,serif" font-size="14.00">n34 (0.22 &#45; 36)</text>
</g>
<!-- LEAST_CONTRADICTION\nACCURACY -->
<g id="node2" class="node"><title>LEAST_CONTRADICTION\nACCURACY</title>
<ellipse fill="none" stroke="black" cx="220.84" cy="-1004.88" rx="124.402" ry="26.7407"/>
<text text-anchor="middle" x="220.84" y="-1008.68" font-family="Times,serif" font-size="14.00">LEAST_CONTRADICTION</text>
<text text-anchor="middle" x="220.84" y="-993.681" font-family="Times,serif" font-size="14.00">ACCURACY</text>
</g>
<!-- n34 (0.22 &#45; 36)&#45;&gt;LEAST_CONTRADICTION\nACCURACY -->
<g id="edge1" class="edge"><title>n34 (0.22 &#45; 36)&#45;&gt;LEAST_CONTRADICTION\nACCURACY</title>
<path fill="none" stroke="black" d="M302.499,-1068.41C290.677,-1059.36 275.582,-1047.8 261.594,-1037.09"/>
<polygon fill="black" stroke="black" points="263.586,-1034.2 253.519,-1030.9 259.33,-1039.76 263.586,-1034.2"/>
</g>
<!-- n33 (0.32 &#45; 34) -->
<g id="node3" class="node"><title>n33 (0.32 &#45; 34)</title>
<ellipse fill="none" stroke="black" cx="427.84" cy="-1004.88" rx="64.189" ry="18"/>
<text text-anchor="middle" x="427.84" y="-1001.18" font-family="Times,serif" font-size="14.00">n33 (0.32 &#45; 34)</text>
</g>
<!-- n34 (0.22 &#45; 36)&#45;&gt;n33 (0.32 &#45; 34) -->
<g id="edge2" class="edge"><title>n34 (0.22 &#45; 36)&#45;&gt;n33 (0.32 &#45; 34)</title>
<path fill="none" stroke="black" d="M345.137,-1068.6C360.56,-1056.9 381.598,-1040.95 398.595,-1028.06"/>
<polygon fill="black" stroke="black" points="400.719,-1030.84 406.572,-1022.01 396.489,-1025.26 400.719,-1030.84"/>
</g>
<!-- n32 (0.43 &#45; 16) -->
<g id="node4" class="node"><title>n32 (0.43 &#45; 16)</title>
<ellipse fill="none" stroke="black" cx="317.84" cy="-745.436" rx="64.189" ry="18"/>
<text text-anchor="middle" x="317.84" y="-741.736" font-family="Times,serif" font-size="14.00">n32 (0.43 &#45; 16)</text>
</g>
<!-- n33 (0.32 &#45; 34)&#45;&gt;n32 (0.43 &#45; 16) -->
<g id="edge3" class="edge"><title>n33 (0.32 &#45; 34)&#45;&gt;n32 (0.43 &#45; 16)</title>
<path fill="none" stroke="black" d="M416.971,-986.96C409.385,-974.751 399.319,-957.72 391.84,-942.011 364.024,-883.587 339.069,-811.709 326.476,-773.435"/>
<polygon fill="black" stroke="black" points="329.687,-771.992 323.259,-763.57 323.031,-774.162 329.687,-771.992"/>
</g>
<!-- RELATIVE_RISK\nYULE_Y\nYULE_Q\nODDS_RATIO\nLEVERAGE\nONE_WAY_SUPPORT\nCONVICTION\nLOEVINGER\nSEBAG_SCHOENAUER\nODD_MULTIPLIER\nCOUNTER_EXAMPLE_RATE\nZHANG\nBAYES\nCENTERED_CONFIDENCE\nCERTAINTY_FACTOR\nADDED_VALUE\nLIFT\nCONFIDENCE -->
<g id="node23" class="node"><title>RELATIVE_RISK\nYULE_Y\nYULE_Q\nODDS_RATIO\nLEVERAGE\nONE_WAY_SUPPORT\nCONVICTION\nLOEVINGER\nSEBAG_SCHOENAUER\nODD_MULTIPLIER\nCOUNTER_EXAMPLE_RATE\nZHANG\nBAYES\nCENTERED_CONFIDENCE\nCERTAINTY_FACTOR\nADDED_VALUE\nLIFT\nCONFIDENCE</title>
<ellipse fill="none" stroke="black" cx="537.84" cy="-745.436" rx="137.358" ry="196.651"/>
<text text-anchor="middle" x="537.84" y="-869.236" font-family="Times,serif" font-size="14.00">RELATIVE_RISK</text>
<text text-anchor="middle" x="537.84" y="-854.236" font-family="Times,serif" font-size="14.00">YULE_Y</text>
<text text-anchor="middle" x="537.84" y="-839.236" font-family="Times,serif" font-size="14.00">YULE_Q</text>
<text text-anchor="middle" x="537.84" y="-824.236" font-family="Times,serif" font-size="14.00">ODDS_RATIO</text>
<text text-anchor="middle" x="537.84" y="-809.236" font-family="Times,serif" font-size="14.00">LEVERAGE</text>
<text text-anchor="middle" x="537.84" y="-794.236" font-family="Times,serif" font-size="14.00">ONE_WAY_SUPPORT</text>
<text text-anchor="middle" x="537.84" y="-779.236" font-family="Times,serif" font-size="14.00">CONVICTION</text>
<text text-anchor="middle" x="537.84" y="-764.236" font-family="Times,serif" font-size="14.00">LOEVINGER</text>
<text text-anchor="middle" x="537.84" y="-749.236" font-family="Times,serif" font-size="14.00">SEBAG_SCHOENAUER</text>
<text text-anchor="middle" x="537.84" y="-734.236" font-family="Times,serif" font-size="14.00">ODD_MULTIPLIER</text>
<text text-anchor="middle" x="537.84" y="-719.236" font-family="Times,serif" font-size="14.00">COUNTER_EXAMPLE_RATE</text>
<text text-anchor="middle" x="537.84" y="-704.236" font-family="Times,serif" font-size="14.00">ZHANG</text>
<text text-anchor="middle" x="537.84" y="-689.236" font-family="Times,serif" font-size="14.00">BAYES</text>
<text text-anchor="middle" x="537.84" y="-674.236" font-family="Times,serif" font-size="14.00">CENTERED_CONFIDENCE</text>
<text text-anchor="middle" x="537.84" y="-659.236" font-family="Times,serif" font-size="14.00">CERTAINTY_FACTOR</text>
<text text-anchor="middle" x="537.84" y="-644.236" font-family="Times,serif" font-size="14.00">ADDED_VALUE</text>
<text text-anchor="middle" x="537.84" y="-629.236" font-family="Times,serif" font-size="14.00">LIFT</text>
<text text-anchor="middle" x="537.84" y="-614.236" font-family="Times,serif" font-size="14.00">CONFIDENCE</text>
</g>
<!-- n33 (0.32 &#45; 34)&#45;&gt;RELATIVE_RISK\nYULE_Y\nYULE_Q\nODDS_RATIO\nLEVERAGE\nONE_WAY_SUPPORT\nCONVICTION\nLOEVINGER\nSEBAG_SCHOENAUER\nODD_MULTIPLIER\nCOUNTER_EXAMPLE_RATE\nZHANG\nBAYES\nCENTERED_CONFIDENCE\nCERTAINTY_FACTOR\nADDED_VALUE\nLIFT\nCONFIDENCE -->
<g id="edge22" class="edge"><title>n33 (0.32 &#45; 34)&#45;&gt;RELATIVE_RISK\nYULE_Y\nYULE_Q\nODDS_RATIO\nLEVERAGE\nONE_WAY_SUPPORT\nCONVICTION\nLOEVINGER\nSEBAG_SCHOENAUER\nODD_MULTIPLIER\nCOUNTER_EXAMPLE_RATE\nZHANG\nBAYES\nCENTERED_CONFIDENCE\nCERTAINTY_FACTOR\nADDED_VALUE\nLIFT\nCONFIDENCE</title>
<path fill="none" stroke="black" d="M435.058,-986.99C441.364,-972.23 451.246,-949.102 462.442,-922.899"/>
<polygon fill="black" stroke="black" points="465.742,-924.083 466.453,-913.512 459.305,-921.332 465.742,-924.083"/>
</g>
<!-- n28 (0.78 &#45; 3) -->
<g id="node5" class="node"><title>n28 (0.78 &#45; 3)</title>
<ellipse fill="none" stroke="black" cx="195.84" cy="-494.86" rx="59.5901" ry="18"/>
<text text-anchor="middle" x="195.84" y="-491.16" font-family="Times,serif" font-size="14.00">n28 (0.78 &#45; 3)</text>
</g>
<!-- n32 (0.43 &#45; 16)&#45;&gt;n28 (0.78 &#45; 3) -->
<g id="edge4" class="edge"><title>n32 (0.43 &#45; 16)&#45;&gt;n28 (0.78 &#45; 3)</title>
<path fill="none" stroke="black" d="M309.455,-727.35C288.466,-684.586 233.564,-572.722 208.567,-521.79"/>
<polygon fill="black" stroke="black" points="211.671,-520.171 204.123,-512.736 205.387,-523.256 211.671,-520.171"/>
</g>
<!-- n31 (0.61 &#45; 13) -->
<g id="node10" class="node"><title>n31 (0.61 &#45; 13)</title>
<ellipse fill="none" stroke="black" cx="440.84" cy="-494.86" rx="64.189" ry="18"/>
<text text-anchor="middle" x="440.84" y="-491.16" font-family="Times,serif" font-size="14.00">n31 (0.61 &#45; 13)</text>
</g>
<!-- n32 (0.43 &#45; 16)&#45;&gt;n31 (0.61 &#45; 13) -->
<g id="edge9" class="edge"><title>n32 (0.43 &#45; 16)&#45;&gt;n31 (0.61 &#45; 13)</title>
<path fill="none" stroke="black" d="M321.961,-727.214C330.917,-691.868 354.409,-609.373 391.84,-548.86 398.367,-538.309 407.173,-527.993 415.52,-519.307"/>
<polygon fill="black" stroke="black" points="418.092,-521.684 422.669,-512.129 413.132,-516.745 418.092,-521.684"/>
</g>
<!-- COSINE -->
<g id="node6" class="node"><title>COSINE</title>
<ellipse fill="none" stroke="black" cx="75.8403" cy="-392.777" rx="42.4939" ry="18"/>
<text text-anchor="middle" x="75.8403" y="-389.077" font-family="Times,serif" font-size="14.00">COSINE</text>
</g>
<!-- n28 (0.78 &#45; 3)&#45;&gt;COSINE -->
<g id="edge5" class="edge"><title>n28 (0.78 &#45; 3)&#45;&gt;COSINE</title>
<path fill="none" stroke="black" d="M174,-477.878C160.227,-467.606 142.203,-453.806 126.84,-440.86 117.669,-433.131 107.92,-424.295 99.4284,-416.381"/>
<polygon fill="black" stroke="black" points="101.72,-413.731 92.0368,-409.43 96.9242,-418.83 101.72,-413.731"/>
</g>
<!-- n25 (0.87 &#45; 2) -->
<g id="node7" class="node"><title>n25 (0.87 &#45; 2)</title>
<ellipse fill="none" stroke="black" cx="195.84" cy="-392.777" rx="59.5901" ry="18"/>
<text text-anchor="middle" x="195.84" y="-389.077" font-family="Times,serif" font-size="14.00">n25 (0.87 &#45; 2)</text>
</g>
<!-- n28 (0.78 &#45; 3)&#45;&gt;n25 (0.87 &#45; 2) -->
<g id="edge6" class="edge"><title>n28 (0.78 &#45; 3)&#45;&gt;n25 (0.87 &#45; 2)</title>
<path fill="none" stroke="black" d="M195.84,-476.427C195.84,-461.214 195.84,-438.881 195.84,-421.264"/>
<polygon fill="black" stroke="black" points="199.34,-421.01 195.84,-411.01 192.34,-421.01 199.34,-421.01"/>
</g>
<!-- COLLECTIVE_STRENGH -->
<g id="node8" class="node"><title>COLLECTIVE_STRENGH</title>
<ellipse fill="none" stroke="black" cx="109.84" cy="-290.693" rx="109.681" ry="18"/>
<text text-anchor="middle" x="109.84" y="-286.993" font-family="Times,serif" font-size="14.00">COLLECTIVE_STRENGH</text>
</g>
<!-- n25 (0.87 &#45; 2)&#45;&gt;COLLECTIVE_STRENGH -->
<g id="edge7" class="edge"><title>n25 (0.87 &#45; 2)&#45;&gt;COLLECTIVE_STRENGH</title>
<path fill="none" stroke="black" d="M181.639,-375.25C167.904,-359.265 146.913,-334.837 131.169,-316.515"/>
<polygon fill="black" stroke="black" points="133.522,-313.883 124.35,-308.579 128.213,-318.445 133.522,-313.883"/>
</g>
<!-- RECALL -->
<g id="node9" class="node"><title>RECALL</title>
<ellipse fill="none" stroke="black" cx="282.84" cy="-290.693" rx="44.6926" ry="18"/>
<text text-anchor="middle" x="282.84" y="-286.993" font-family="Times,serif" font-size="14.00">RECALL</text>
</g>
<!-- n25 (0.87 &#45; 2)&#45;&gt;RECALL -->
<g id="edge8" class="edge"><title>n25 (0.87 &#45; 2)&#45;&gt;RECALL</title>
<path fill="none" stroke="black" d="M210.207,-375.25C224.269,-359.073 245.849,-334.247 261.837,-315.856"/>
<polygon fill="black" stroke="black" points="264.822,-317.756 268.741,-307.913 259.539,-313.164 264.822,-317.756"/>
</g>
<!-- GINI\nCHI_SQUARE\nTWO_WAY_SUPPORT_VARIATION\nJ_MEASURE -->
<g id="node11" class="node"><title>GINI\nCHI_SQUARE\nTWO_WAY_SUPPORT_VARIATION\nJ_MEASURE</title>
<ellipse fill="none" stroke="black" cx="440.84" cy="-392.777" rx="166.754" ry="48.1667"/>
<text text-anchor="middle" x="440.84" y="-411.577" font-family="Times,serif" font-size="14.00">GINI</text>
<text text-anchor="middle" x="440.84" y="-396.577" font-family="Times,serif" font-size="14.00">CHI_SQUARE</text>
<text text-anchor="middle" x="440.84" y="-381.577" font-family="Times,serif" font-size="14.00">TWO_WAY_SUPPORT_VARIATION</text>
<text text-anchor="middle" x="440.84" y="-366.577" font-family="Times,serif" font-size="14.00">J_MEASURE</text>
</g>
<!-- n31 (0.61 &#45; 13)&#45;&gt;GINI\nCHI_SQUARE\nTWO_WAY_SUPPORT_VARIATION\nJ_MEASURE -->
<g id="edge10" class="edge"><title>n31 (0.61 &#45; 13)&#45;&gt;GINI\nCHI_SQUARE\nTWO_WAY_SUPPORT_VARIATION\nJ_MEASURE</title>
<path fill="none" stroke="black" d="M440.84,-476.427C440.84,-469.188 440.84,-460.337 440.84,-451.149"/>
<polygon fill="black" stroke="black" points="444.34,-451.107 440.84,-441.107 437.34,-451.107 444.34,-451.107"/>
</g>
<!-- n30 (0.64 &#45; 9) -->
<g id="node12" class="node"><title>n30 (0.64 &#45; 9)</title>
<ellipse fill="none" stroke="black" cx="685.84" cy="-392.777" rx="59.5901" ry="18"/>
<text text-anchor="middle" x="685.84" y="-389.077" font-family="Times,serif" font-size="14.00">n30 (0.64 &#45; 9)</text>
</g>
<!-- n31 (0.61 &#45; 13)&#45;&gt;n30 (0.64 &#45; 9) -->
<g id="edge11" class="edge"><title>n31 (0.61 &#45; 13)&#45;&gt;n30 (0.64 &#45; 9)</title>
<path fill="none" stroke="black" d="M490.518,-483.217C526.623,-474.463 576.096,-460.323 616.84,-440.86 630.951,-434.12 645.416,-424.704 657.433,-416.063"/>
<polygon fill="black" stroke="black" points="659.741,-418.71 665.712,-409.957 655.586,-413.076 659.741,-418.71"/>
</g>
<!-- JACCARD -->
<g id="node13" class="node"><title>JACCARD</title>
<ellipse fill="none" stroke="black" cx="621.84" cy="-290.693" rx="50.8918" ry="18"/>
<text text-anchor="middle" x="621.84" y="-286.993" font-family="Times,serif" font-size="14.00">JACCARD</text>
</g>
<!-- n30 (0.64 &#45; 9)&#45;&gt;JACCARD -->
<g id="edge12" class="edge"><title>n30 (0.64 &#45; 9)&#45;&gt;JACCARD</title>
<path fill="none" stroke="black" d="M674.984,-374.799C664.901,-359.032 649.749,-335.338 638.201,-317.279"/>
<polygon fill="black" stroke="black" points="640.873,-314.96 632.537,-308.42 634.975,-318.731 640.873,-314.96"/>
</g>
<!-- n29 (0.71 &#45; 8) -->
<g id="node14" class="node"><title>n29 (0.71 &#45; 8)</title>
<ellipse fill="none" stroke="black" cx="749.84" cy="-290.693" rx="59.5901" ry="18"/>
<text text-anchor="middle" x="749.84" y="-286.993" font-family="Times,serif" font-size="14.00">n29 (0.71 &#45; 8)</text>
</g>
<!-- n30 (0.64 &#45; 9)&#45;&gt;n29 (0.71 &#45; 8) -->
<g id="edge13" class="edge"><title>n30 (0.64 &#45; 9)&#45;&gt;n29 (0.71 &#45; 8)</title>
<path fill="none" stroke="black" d="M696.697,-374.799C706.78,-359.032 721.931,-335.338 733.479,-317.279"/>
<polygon fill="black" stroke="black" points="736.705,-318.731 739.144,-308.42 730.808,-314.96 736.705,-318.731"/>
</g>
<!-- n27 (0.82 &#45; 4) -->
<g id="node15" class="node"><title>n27 (0.82 &#45; 4)</title>
<ellipse fill="none" stroke="black" cx="680.84" cy="-218.693" rx="59.5901" ry="18"/>
<text text-anchor="middle" x="680.84" y="-214.993" font-family="Times,serif" font-size="14.00">n27 (0.82 &#45; 4)</text>
</g>
<!-- n29 (0.71 &#45; 8)&#45;&gt;n27 (0.82 &#45; 4) -->
<g id="edge14" class="edge"><title>n29 (0.71 &#45; 8)&#45;&gt;n27 (0.82 &#45; 4)</title>
<path fill="none" stroke="black" d="M733.488,-273.104C724.723,-264.212 713.774,-253.104 704.134,-243.324"/>
<polygon fill="black" stroke="black" points="706.588,-240.828 697.075,-236.163 701.602,-245.742 706.588,-240.828"/>
</g>
<!-- n26 (0.84 &#45; 4) -->
<g id="node20" class="node"><title>n26 (0.84 &#45; 4)</title>
<ellipse fill="none" stroke="black" cx="818.84" cy="-218.693" rx="59.5901" ry="18"/>
<text text-anchor="middle" x="818.84" y="-214.993" font-family="Times,serif" font-size="14.00">n26 (0.84 &#45; 4)</text>
</g>
<!-- n29 (0.71 &#45; 8)&#45;&gt;n26 (0.84 &#45; 4) -->
<g id="edge19" class="edge"><title>n29 (0.71 &#45; 8)&#45;&gt;n26 (0.84 &#45; 4)</title>
<path fill="none" stroke="black" d="M766.192,-273.104C774.957,-264.212 785.907,-253.104 795.547,-243.324"/>
<polygon fill="black" stroke="black" points="798.078,-245.742 802.606,-236.163 793.093,-240.828 798.078,-245.742"/>
</g>
<!-- KAPPA -->
<g id="node16" class="node"><title>KAPPA</title>
<ellipse fill="none" stroke="black" cx="565.84" cy="-127.217" rx="39.7935" ry="18"/>
<text text-anchor="middle" x="565.84" y="-123.517" font-family="Times,serif" font-size="14.00">KAPPA</text>
</g>
<!-- n27 (0.82 &#45; 4)&#45;&gt;KAPPA -->
<g id="edge15" class="edge"><title>n27 (0.82 &#45; 4)&#45;&gt;KAPPA</title>
<path fill="none" stroke="black" d="M660.281,-201.697C641.542,-187.117 613.728,-165.476 593.133,-149.452"/>
<polygon fill="black" stroke="black" points="595.116,-146.561 585.074,-143.182 590.818,-152.085 595.116,-146.561"/>
</g>
<!-- n24 (0.88 &#45; 3) -->
<g id="node17" class="node"><title>n24 (0.88 &#45; 3)</title>
<ellipse fill="none" stroke="black" cx="682.84" cy="-127.217" rx="59.5901" ry="18"/>
<text text-anchor="middle" x="682.84" y="-123.517" font-family="Times,serif" font-size="14.00">n24 (0.88 &#45; 3)</text>
</g>
<!-- n27 (0.82 &#45; 4)&#45;&gt;n24 (0.88 &#45; 3) -->
<g id="edge16" class="edge"><title>n27 (0.82 &#45; 4)&#45;&gt;n24 (0.88 &#45; 3)</title>
<path fill="none" stroke="black" d="M681.226,-200.441C681.511,-187.692 681.905,-170.079 682.232,-155.439"/>
<polygon fill="black" stroke="black" points="685.731,-155.492 682.456,-145.416 678.733,-155.335 685.731,-155.492"/>
</g>
<!-- IMPLICATION_INDEX -->
<g id="node18" class="node"><title>IMPLICATION_INDEX</title>
<ellipse fill="none" stroke="black" cx="586.84" cy="-26.8701" rx="100.182" ry="18"/>
<text text-anchor="middle" x="586.84" y="-23.1701" font-family="Times,serif" font-size="14.00">IMPLICATION_INDEX</text>
</g>
<!-- n24 (0.88 &#45; 3)&#45;&gt;IMPLICATION_INDEX -->
<g id="edge17" class="edge"><title>n24 (0.88 &#45; 3)&#45;&gt;IMPLICATION_INDEX</title>
<path fill="none" stroke="black" d="M666.555,-109.534C651.109,-93.7094 627.731,-69.7602 610.281,-51.8834"/>
<polygon fill="black" stroke="black" points="612.695,-49.3462 603.205,-44.6351 607.686,-54.2359 612.695,-49.3462"/>
</g>
<!-- FISHER_PVAL\nPHI -->
<g id="node19" class="node"><title>FISHER_PVAL\nPHI</title>
<ellipse fill="none" stroke="black" cx="778.84" cy="-26.8701" rx="74.4932" ry="26.7407"/>
<text text-anchor="middle" x="778.84" y="-30.6701" font-family="Times,serif" font-size="14.00">FISHER_PVAL</text>
<text text-anchor="middle" x="778.84" y="-15.6701" font-family="Times,serif" font-size="14.00">PHI</text>
</g>
<!-- n24 (0.88 &#45; 3)&#45;&gt;FISHER_PVAL\nPHI -->
<g id="edge18" class="edge"><title>n24 (0.88 &#45; 3)&#45;&gt;FISHER_PVAL\nPHI</title>
<path fill="none" stroke="black" d="M699.125,-109.534C712.393,-95.9418 731.512,-76.3556 747.7,-59.7718"/>
<polygon fill="black" stroke="black" points="750.419,-61.9966 754.9,-52.3958 745.41,-57.1069 750.419,-61.9966"/>
</g>
<!-- KLOSGEN -->
<g id="node21" class="node"><title>KLOSGEN</title>
<ellipse fill="none" stroke="black" cx="816.84" cy="-127.217" rx="51.9908" ry="18"/>
<text text-anchor="middle" x="816.84" y="-123.517" font-family="Times,serif" font-size="14.00">KLOSGEN</text>
</g>
<!-- n26 (0.84 &#45; 4)&#45;&gt;KLOSGEN -->
<g id="edge20" class="edge"><title>n26 (0.84 &#45; 4)&#45;&gt;KLOSGEN</title>
<path fill="none" stroke="black" d="M818.455,-200.441C818.17,-187.692 817.776,-170.079 817.449,-155.439"/>
<polygon fill="black" stroke="black" points="820.947,-155.335 817.225,-145.416 813.949,-155.492 820.947,-155.335"/>
</g>
<!-- TWO_WAY_SUPPORT\nPIATETSKY_SHAPIRO\nSPECIFICITY -->
<g id="node22" class="node"><title>TWO_WAY_SUPPORT\nPIATETSKY_SHAPIRO\nSPECIFICITY</title>
<ellipse fill="none" stroke="black" cx="996.84" cy="-127.217" rx="109.703" ry="37.4533"/>
<text text-anchor="middle" x="996.84" y="-138.517" font-family="Times,serif" font-size="14.00">TWO_WAY_SUPPORT</text>
<text text-anchor="middle" x="996.84" y="-123.517" font-family="Times,serif" font-size="14.00">PIATETSKY_SHAPIRO</text>
<text text-anchor="middle" x="996.84" y="-108.517" font-family="Times,serif" font-size="14.00">SPECIFICITY</text>
</g>
<!-- n26 (0.84 &#45; 4)&#45;&gt;TWO_WAY_SUPPORT\nPIATETSKY_SHAPIRO\nSPECIFICITY -->
<g id="edge21" class="edge"><title>n26 (0.84 &#45; 4)&#45;&gt;TWO_WAY_SUPPORT\nPIATETSKY_SHAPIRO\nSPECIFICITY</title>
<path fill="none" stroke="black" d="M848.233,-202.918C869.702,-192.126 899.736,-177.029 927.189,-163.229"/>
<polygon fill="black" stroke="black" points="929.021,-166.225 936.384,-158.607 925.877,-159.971 929.021,-166.225"/>
</g>
</g>
</svg>
