<?xml version="1.0" encoding="UTF-8" standalone="no"?>
<!-- Generated by graphviz version 2.38.0 (20140413.2041)
 -->

<!-- Title: dendrogram Pages: 1 -->

<svg
   xmlns:dc="http://purl.org/dc/elements/1.1/"
   xmlns:cc="http://creativecommons.org/ns#"
   xmlns:rdf="http://www.w3.org/1999/02/22-rdf-syntax-ns#"
   xmlns:svg="http://www.w3.org/2000/svg"
   xmlns="http://www.w3.org/2000/svg"
   xmlns:sodipodi="http://sodipodi.sourceforge.net/DTD/sodipodi-0.dtd"
   xmlns:inkscape="http://www.inkscape.org/namespaces/inkscape"
   width="1241pt"
   height="908pt"
   viewBox="0.00 0.00 1240.85 907.58"
   id="svg2"
   version="1.1"
   inkscape:version="0.48.5 r10040"
   sodipodi:docname="patterns_demo-perTarget-OVERLAP_AT_20.svg">
  <metadata
     id="metadata376">
    <rdf:RDF>
      <cc:Work
         rdf:about="">
        <dc:format>image/svg+xml</dc:format>
        <dc:type
           rdf:resource="http://purl.org/dc/dcmitype/StillImage" />
      </cc:Work>
    </rdf:RDF>
  </metadata>
  <defs
     id="defs374" />
  <sodipodi:namedview
     pagecolor="#ffffff"
     bordercolor="#666666"
     borderopacity="1"
     objecttolerance="10"
     gridtolerance="10"
     guidetolerance="10"
     inkscape:pageopacity="0"
     inkscape:pageshadow="2"
     inkscape:window-width="1920"
     inkscape:window-height="1052"
     id="namedview372"
     showgrid="false"
     inkscape:zoom="0.71556993"
     inkscape:cx="752.24333"
     inkscape:cy="588.38591"
     inkscape:window-x="0"
     inkscape:window-y="0"
     inkscape:window-maximized="1"
     inkscape:current-layer="svg2" />
  <g
     class="node"
     id="node1"
     transform="translate(4,903.585)">
    <title
       id="title10">n34 (0.10 - 36)</title>
    <ellipse
       style="fill:none;stroke:#000000"
       sodipodi:ry="18"
       sodipodi:rx="64.189003"
       sodipodi:cy="-881.58502"
       sodipodi:cx="522.24597"
       d="m 586.43497,-881.58502 c 0,9.94112 -28.73839,18 -64.189,18 -35.45061,0 -64.189,-8.05888 -64.189,-18 0,-9.94113 28.73839,-18 64.189,-18 35.45061,0 64.189,8.05887 64.189,18 z"
       id="ellipse12"
       ry="18"
       rx="64.189003"
       cy="-881.58502"
       cx="522.24597" />
    <text
       style="font-size:14px;text-anchor:middle;font-family:'Times,serif'"
       id="text14"
       font-size="14.00"
       y="-877.88501"
       x="522.24597">n34 (0.10 - 36)</text>
  </g>
  <g
     class="node"
     id="node2"
     transform="translate(4,903.585)">
    <title
       id="title17">n32 (0.37 - 16)</title>
    <ellipse
       style="fill:none;stroke:#000000"
       sodipodi:ry="18"
       sodipodi:rx="64.189003"
       sodipodi:cy="-809.58502"
       sodipodi:cx="419.246"
       d="m 483.43501,-809.58502 c 0,9.94112 -28.7384,18 -64.18901,18 -35.45061,0 -64.189,-8.05888 -64.189,-18 0,-9.94113 28.73839,-18 64.189,-18 35.45061,0 64.18901,8.05887 64.18901,18 z"
       id="ellipse19"
       ry="18"
       rx="64.189003"
       cy="-809.58502"
       cx="419.246" />
    <text
       style="font-size:14px;text-anchor:middle;font-family:'Times,serif'"
       id="text21"
       font-size="14.00"
       y="-805.88501"
       x="419.246">n32 (0.37 - 16)</text>
  </g>
  <g
     class="edge"
     id="edge1"
     transform="translate(4,903.585)">
    <title
       id="title24">n34 (0.10 - 36)-&gt;n32 (0.37 - 16)</title>
    <path
       style="fill:none;stroke:#000000"
       inkscape:connector-curvature="0"
       id="path26"
       d="m 498.874,-864.701 c -14.223,9.666 -32.574,22.138 -48.074,32.672" />
    <polygon
       style="fill:#000000;stroke:#000000"
       id="polygon28"
       points="448.829,-834.922 452.764,-829.132 452.764,-829.132 442.526,-826.406 " />
  </g>
  <g
     class="node"
     id="node21"
     transform="translate(4,903.585)">
    <title
       id="title31">n33 (0.25 - 20)</title>
    <ellipse
       style="fill:none;stroke:#000000"
       sodipodi:ry="18"
       sodipodi:rx="64.189003"
       sodipodi:cy="-809.58502"
       sodipodi:cx="626.24597"
       d="m 690.43497,-809.58502 c 0,9.94112 -28.73839,18 -64.189,18 -35.45061,0 -64.189,-8.05888 -64.189,-18 0,-9.94113 28.73839,-18 64.189,-18 35.45061,0 64.189,8.05887 64.189,18 z"
       id="ellipse33"
       ry="18"
       rx="64.189003"
       cy="-809.58502"
       cx="626.24597" />
    <text
       style="font-size:14px;text-anchor:middle;font-family:'Times,serif'"
       id="text35"
       font-size="14.00"
       y="-805.88501"
       x="626.24597">n33 (0.25 - 20)</text>
  </g>
  <g
     class="edge"
     id="edge20"
     transform="translate(4,903.585)">
    <title
       id="title38">n34 (0.10 - 36)-&gt;n33 (0.25 - 20)</title>
    <path
       style="fill:none;stroke:#000000"
       inkscape:connector-curvature="0"
       id="path40"
       d="m 545.845,-864.701 c 14.361,9.666 32.891,22.138 48.542,32.672" />
    <polygon
       style="fill:#000000;stroke:#000000"
       id="polygon42"
       points="592.49,-829.086 596.399,-834.894 596.399,-834.894 602.74,-826.406 " />
  </g>
  <g
     class="node"
     id="node3"
     transform="translate(4,903.585)">
    <title
       id="title45">n25 (0.86 - 3)</title>
    <ellipse
       style="fill:none;stroke:#000000"
       sodipodi:ry="18"
       sodipodi:rx="59.590099"
       sodipodi:cy="-559.00897"
       sodipodi:cx="222.246"
       d="m 281.8361,-559.00897 c 0,9.94112 -26.67939,18 -59.5901,18 -32.9107,0 -59.5901,-8.05888 -59.5901,-18 0,-9.94113 26.6794,-18 59.5901,-18 32.91071,0 59.5901,8.05887 59.5901,18 z"
       id="ellipse47"
       ry="18"
       rx="59.590099"
       cy="-559.00897"
       cx="222.246" />
    <text
       style="font-size:14px;text-anchor:middle;font-family:'Times,serif'"
       id="text49"
       font-size="14.00"
       y="-555.30902"
       x="222.246">n25 (0.86 - 3)</text>
  </g>
  <g
     class="edge"
     id="edge2"
     transform="translate(4,903.585)">
    <title
       id="title52">n32 (0.37 - 16)-&gt;n25 (0.86 - 3)</title>
    <path
       style="fill:none;stroke:#000000"
       inkscape:connector-curvature="0"
       id="path54"
       d="m 393.038,-793.046 c -14.819,9.597 -33.069,22.847 -46.792,37.461 -50.105,53.362 -91.662,129.747 -111.485,169.415" />
    <polygon
       style="fill:#000000;stroke:#000000"
       id="polygon56"
       points="231.48,-587.429 237.759,-584.334 237.759,-584.334 230.198,-576.912 " />
  </g>
  <g
     class="node"
     id="node6"
     transform="translate(4,903.585)">
    <title
       id="title59">n31 (0.44 - 13)</title>
    <ellipse
       style="fill:none;stroke:#000000"
       sodipodi:ry="18"
       sodipodi:rx="64.189003"
       sodipodi:cy="-559.00897"
       sodipodi:cx="419.246"
       d="m 483.43501,-559.00897 c 0,9.94112 -28.7384,18 -64.18901,18 -35.45061,0 -64.189,-8.05888 -64.189,-18 0,-9.94113 28.73839,-18 64.189,-18 35.45061,0 64.18901,8.05887 64.18901,18 z"
       id="ellipse61"
       ry="18"
       rx="64.189003"
       cy="-559.00897"
       cx="419.246" />
    <text
       style="font-size:14px;text-anchor:middle;font-family:'Times,serif'"
       id="text63"
       font-size="14.00"
       y="-555.30902"
       x="419.246">n31 (0.44 - 13)</text>
  </g>
  <g
     class="edge"
     id="edge5"
     transform="translate(4,903.585)">
    <title
       id="title66">n32 (0.37 - 16)-&gt;n31 (0.44 - 13)</title>
    <path
       style="fill:none;stroke:#000000"
       inkscape:connector-curvature="0"
       id="path68"
       d="m 419.246,-791.499 c 0,42.395 0,152.702 0,204.227" />
    <polygon
       style="fill:#000000;stroke:#000000"
       id="polygon70"
       points="415.746,-587.214 422.746,-587.214 422.746,-587.214 419.246,-577.214 " />
  </g>
  <ellipse
     cx="42.2463"
     cy="-299.56299"
     rx="42.4939"
     ry="18"
     id="ellipse75"
     d="m 84.7402,-299.56299 c 0,9.94113 -19.025167,18 -42.4939,18 -23.468733,0 -42.49390056,-8.05887 -42.49390056,-18 0,-9.94112 19.02516756,-18 42.49390056,-18 23.468733,0 42.4939,8.05888 42.4939,18 z"
     sodipodi:cx="42.2463"
     sodipodi:cy="-299.56299"
     sodipodi:rx="42.4939"
     sodipodi:ry="18"
     style="fill:#ead5c0;stroke:#000000"
     transform="translate(118.6142,740.7538)" />
  <text
     x="160.8605"
     y="444.89081"
     font-size="14.00"
     id="text77"
     style="font-size:14px;text-anchor:middle;font-family:'Times,serif'">COSINE</text>
  <g
     class="edge"
     id="edge3"
     transform="translate(4,903.585)">
    <title
       id="title80">n25 (0.86 - 3)-&gt;COSINE</title>
    <path
       style="fill:none;stroke:#000000"
       inkscape:connector-curvature="0"
       id="path82"
       d="m 210.436,-541.118 c -30.905,44.203 -0.85497,1.80946 -37.30567,53.94346"
       sodipodi:nodetypes="cc" />
    <polygon
       style="fill:#000000;stroke:#000000"
       id="polygon84"
       points="62.4646,-323.373 62.4646,-323.373 53.866,-317.183 56.7277,-327.384 "
       transform="translate(114.6142,-162.8312)" />
  </g>
  <ellipse
     cx="222.246"
     cy="-299.56299"
     rx="119.502"
     ry="26.7407"
     id="ellipse89"
     d="m 341.748,-299.56299 c 0,14.76848 -53.50287,26.7407 -119.502,26.7407 -65.99913,0 -119.502,-11.97222 -119.502,-26.7407 0,-14.76848 53.50287,-26.7407 119.502,-26.7407 65.99913,0 119.502,11.97222 119.502,26.7407 z"
     sodipodi:cx="222.246"
     sodipodi:cy="-299.56299"
     sodipodi:rx="119.502"
     sodipodi:ry="26.7407"
     style="fill:#aaaaff;stroke:#000000"
     transform="translate(4,812.68409)" />
  <text
     x="226.246"
     y="509.32108"
     font-size="14.00"
     id="text91"
     style="font-size:14px;text-anchor:middle;font-family:'Times,serif'">COLLECTIVE_STRENGH</text>
  <text
     x="226.246"
     y="524.32111"
     font-size="14.00"
     id="text93"
     style="font-size:14px;text-anchor:middle;font-family:'Times,serif'">RECALL</text>
  <g
     class="edge"
     id="edge4"
     transform="translate(4,903.585)">
    <title
       id="title96">n25 (0.86 - 3)-&gt;COLLECTIVE_STRENGH\nRECALL</title>
    <path
       style="fill:none;stroke:#000000"
       inkscape:connector-curvature="0"
       id="path98"
       d="m 222.246,-540.718 c 0,41.518 0,59.81486 0,116.07786"
       sodipodi:nodetypes="cc" />
    <polygon
       style="fill:#000000;stroke:#000000"
       id="polygon100"
       points="225.746,-336.673 225.746,-336.673 222.246,-326.673 218.746,-336.673 "
       transform="translate(0,-90.110471)" />
  </g>
  <g
     class="node"
     id="node7"
     transform="translate(-57.482015,868.9315)">
    <title
       id="title103">n29 (0.56 - 2)</title>
    <ellipse
       style="fill:none;stroke:#000000"
       sodipodi:ry="18"
       sodipodi:rx="59.590099"
       sodipodi:cy="-299.56299"
       sodipodi:cx="419.246"
       d="m 478.8361,-299.56299 c 0,9.94113 -26.67939,18 -59.5901,18 -32.9107,0 -59.5901,-8.05887 -59.5901,-18 0,-9.94112 26.6794,-18 59.5901,-18 32.91071,0 59.5901,8.05888 59.5901,18 z"
       id="ellipse105"
       ry="18"
       rx="59.590099"
       cy="-299.56299"
       cx="419.246" />
    <text
       style="font-size:14px;text-anchor:middle;font-family:'Times,serif'"
       id="text107"
       font-size="14.00"
       y="-295.86301"
       x="419.246">n29 (0.56 - 2)</text>
  </g>
  <g
     class="edge"
     id="edge6"
     transform="translate(4,903.585)">
    <title
       id="title110">n31 (0.44 - 13)-&gt;n29 (0.56 - 2)</title>
    <path
       style="fill:none;stroke:#000000"
       inkscape:connector-curvature="0"
       id="path112"
       d="m 419.246,-540.718 c -11.85664,41.90089 -42.28869,143.60692 -57.3071,186.02895"
       sodipodi:nodetypes="cc" />
    <polygon
       style="fill:#000000;stroke:#000000"
       id="polygon114"
       points="422.746,-327.78 419.246,-317.78 415.746,-327.78 422.746,-327.78 "
       transform="matrix(0.94816826,0.31776871,-0.31776871,0.94816826,-138.14623,-182.36166)" />
  </g>
  <g
     class="node"
     id="node10"
     transform="translate(-57.482015,868.9315)">
    <title
       id="title117">n30 (0.55 - 11)</title>
    <ellipse
       style="fill:none;stroke:#000000"
       sodipodi:ry="18"
       sodipodi:rx="64.189003"
       sodipodi:cy="-299.56299"
       sodipodi:cx="561.24597"
       d="m 625.43497,-299.56299 c 0,9.94113 -28.73839,18 -64.189,18 -35.45061,0 -64.189,-8.05887 -64.189,-18 0,-9.94112 28.73839,-18 64.189,-18 35.45061,0 64.189,8.05888 64.189,18 z"
       id="ellipse119"
       ry="18"
       rx="64.189003"
       cy="-299.56299"
       cx="561.24597" />
    <text
       style="font-size:14px;text-anchor:middle;font-family:'Times,serif'"
       id="text121"
       font-size="14.00"
       y="-295.86301"
       x="561.24597">n30 (0.55 - 11)</text>
  </g>
  <g
     class="edge"
     id="edge9"
     transform="translate(4,903.585)">
    <title
       id="title124">n31 (0.44 - 13)-&gt;n30 (0.55 - 11)</title>
    <path
       style="fill:none;stroke:#000000"
       inkscape:connector-curvature="0"
       id="path126"
       d="m 422.88,-540.785 c 22.58787,89.78152 51.6126,157.93425 62.23395,185.54621"
       sodipodi:nodetypes="cc" />
    <polygon
       style="fill:#000000;stroke:#000000"
       id="polygon128"
       points="533.189,-325.509 538.796,-316.52 528.807,-320.05 533.189,-325.509 "
       transform="matrix(0.88391466,0.46764824,-0.46764824,0.88391466,-137.34095,-324.90347)" />
  </g>
  <ellipse
     cx="317.246"
     cy="-218.69299"
     rx="50.8918"
     ry="18"
     id="ellipse133"
     d="m 368.1378,-218.69299 c 0,9.94112 -22.78503,18 -50.8918,18 -28.10676,0 -50.8918,-8.05888 -50.8918,-18 0,-9.94113 22.78504,-18 50.8918,-18 28.10677,0 50.8918,8.05887 50.8918,18 z"
     sodipodi:cx="317.246"
     sodipodi:cy="-218.69299"
     sodipodi:rx="50.8918"
     sodipodi:ry="18"
     style="fill:#aaffaa;stroke:#000000"
     transform="translate(-57.482015,868.9315)" />
  <text
     x="259.76398"
     y="653.93848"
     font-size="14.00"
     id="text135"
     style="font-size:14px;text-anchor:middle;font-family:'Times,serif'">JACCARD</text>
  <g
     class="edge"
     id="edge7"
     transform="translate(-57.482015,868.9315)">
    <title
       id="title138">n29 (0.56 - 2)-&gt;JACCARD</title>
    <path
       style="fill:none;stroke:#000000"
       inkscape:connector-curvature="0"
       id="path140"
       d="m 398.605,-282.603 c -15.169,11.729 -35.971,27.814 -52.744,40.783" />
    <polygon
       style="fill:#000000;stroke:#000000"
       id="polygon142"
       points="347.561,-238.709 347.561,-238.709 337.509,-235.361 343.279,-244.247 " />
  </g>
  <ellipse
     cx="425.246"
     cy="-218.69299"
     rx="39.793499"
     ry="18"
     id="ellipse147"
     d="m 465.0395,-218.69299 c 0,9.94112 -17.81616,18 -39.7935,18 -21.97734,0 -39.7935,-8.05888 -39.7935,-18 0,-9.94113 17.81616,-18 39.7935,-18 21.97734,0 39.7935,8.05887 39.7935,18 z"
     sodipodi:cx="425.246"
     sodipodi:cy="-218.69299"
     sodipodi:rx="39.793499"
     sodipodi:ry="18"
     style="fill:#aaffaa;stroke:#000000"
     transform="translate(-57.482015,868.9315)" />
  <text
     x="367.76398"
     y="653.93848"
     font-size="14.00"
     id="text149"
     style="font-size:14px;text-anchor:middle;font-family:'Times,serif'">KAPPA</text>
  <g
     class="edge"
     id="edge8"
     transform="translate(-57.482015,868.9315)">
    <title
       id="title152">n29 (0.56 - 2)-&gt;KAPPA</title>
    <path
       style="fill:none;stroke:#000000"
       inkscape:connector-curvature="0"
       id="path154"
       d="m 420.548,-281.45 c 0.771,10.129 1.764,23.187 2.639,34.684" />
    <polygon
       style="fill:#000000;stroke:#000000"
       id="polygon156"
       points="426.678,-247.01 426.678,-247.01 423.947,-236.774 419.698,-246.479 " />
  </g>
  <g
     class="node"
     id="node11"
     transform="translate(-57.482015,868.9315)">
    <title
       id="title159">n24 (0.88 - 4)</title>
    <ellipse
       style="fill:none;stroke:#000000"
       sodipodi:ry="18"
       sodipodi:rx="59.590099"
       sodipodi:cy="-218.69299"
       sodipodi:cx="554.24597"
       d="m 613.83607,-218.69299 c 0,9.94112 -26.6794,18 -59.5901,18 -32.9107,0 -59.5901,-8.05888 -59.5901,-18 0,-9.94113 26.6794,-18 59.5901,-18 32.9107,0 59.5901,8.05887 59.5901,18 z"
       id="ellipse161"
       ry="18"
       rx="59.590099"
       cy="-218.69299"
       cx="554.24597" />
    <text
       style="font-size:14px;text-anchor:middle;font-family:'Times,serif'"
       id="text163"
       font-size="14.00"
       y="-214.993"
       x="554.24597">n24 (0.88 - 4)</text>
  </g>
  <g
     class="edge"
     id="edge10"
     transform="translate(-57.482015,868.9315)">
    <title
       id="title166">n30 (0.55 - 11)-&gt;n24 (0.88 - 4)</title>
    <path
       style="fill:none;stroke:#000000"
       inkscape:connector-curvature="0"
       id="path168"
       d="m 559.727,-281.45 c -0.899,10.129 -2.058,23.187 -3.078,34.684" />
    <polygon
       style="fill:#000000;stroke:#000000"
       id="polygon170"
       points="560.133,-246.425 560.133,-246.425 555.762,-236.774 553.16,-247.044 " />
  </g>
  <g
     class="node"
     id="node14"
     transform="translate(-69.778418,868.9315)">
    <title
       id="title173">n28 (0.61 - 7)</title>
    <ellipse
       style="fill:none;stroke:#000000"
       sodipodi:ry="18"
       sodipodi:rx="59.590099"
       sodipodi:cy="-218.69299"
       sodipodi:cx="799.24597"
       d="m 858.83607,-218.69299 c 0,9.94112 -26.6794,18 -59.5901,18 -32.9107,0 -59.5901,-8.05888 -59.5901,-18 0,-9.94113 26.6794,-18 59.5901,-18 32.9107,0 59.5901,8.05887 59.5901,18 z"
       id="ellipse175"
       ry="18"
       rx="59.590099"
       cy="-218.69299"
       cx="799.24597" />
    <text
       style="font-size:14px;text-anchor:middle;font-family:'Times,serif'"
       id="text177"
       font-size="14.00"
       y="-214.993"
       x="799.24597">n28 (0.61 - 7)</text>
  </g>
  <g
     class="edge"
     id="edge13"
     transform="translate(-40.714193,862.22437)">
    <title
       id="title180">n30 (0.55 - 11)-&gt;n28 (0.61 - 7)</title>
    <path
       style="fill:none;stroke:#000000"
       inkscape:connector-curvature="0"
       id="path182"
       d="m 601.082,-285.362 c 41.214,13.657 105.612,34.998 149.739,49.621" />
    <polygon
       style="fill:#000000;stroke:#000000"
       id="polygon184"
       points="752.075,-239.013 752.075,-239.013 760.466,-232.545 749.873,-232.368 " />
  </g>
  <ellipse
     cx="298.246"
     cy="-137.823"
     rx="71.335701"
     ry="26.7407"
     id="ellipse189"
     d="m 369.5817,-137.823 c 0,14.76848 -31.93808,26.7407 -71.3357,26.7407 -39.39762,0 -71.3357,-11.97222 -71.3357,-26.7407 0,-14.76848 31.93808,-26.7407 71.3357,-26.7407 39.39762,0 71.3357,11.97222 71.3357,26.7407 z"
     sodipodi:cx="298.246"
     sodipodi:cy="-137.823"
     sodipodi:rx="71.335701"
     sodipodi:ry="26.7407"
     style="fill:#aaffaa;stroke:#000000"
     transform="translate(-57.482015,868.9315)" />
  <text
     x="240.76399"
     y="727.30847"
     font-size="14.00"
     id="text191"
     style="font-size:14px;text-anchor:middle;font-family:'Times,serif'">GINI</text>
  <text
     x="240.76399"
     y="742.30847"
     font-size="14.00"
     id="text193"
     style="font-size:14px;text-anchor:middle;font-family:'Times,serif'">CHI_SQUARE</text>
  <g
     class="edge"
     id="edge11"
     transform="translate(-57.482015,868.9315)">
    <title
       id="title196">n24 (0.88 - 4)-&gt;GINI\nCHI_SQUARE</title>
    <path
       style="fill:none;stroke:#000000"
       inkscape:connector-curvature="0"
       id="path198"
       d="m 512.923,-205.507 c -35.713,10.594 -88.681,26.453 -134.677,40.814 -5.623,1.755 -11.462,3.601 -17.308,5.463" />
    <polygon
       style="fill:#000000;stroke:#000000"
       id="polygon200"
       points="361.719,-155.805 361.719,-155.805 351.128,-156.091 359.586,-162.472 " />
  </g>
  <ellipse
     cx="554.24597"
     cy="-137.823"
     rx="166.754"
     ry="26.7407"
     id="ellipse205"
     d="m 720.99997,-137.823 c 0,14.76848 -74.65831,26.7407 -166.754,26.7407 -92.09569,0 -166.754,-11.97222 -166.754,-26.7407 0,-14.76848 74.65831,-26.7407 166.754,-26.7407 92.09569,0 166.754,11.97222 166.754,26.7407 z"
     sodipodi:cx="554.24597"
     sodipodi:cy="-137.823"
     sodipodi:rx="166.754"
     sodipodi:ry="26.7407"
     style="fill:#aaffaa;stroke:#000000"
     transform="translate(-57.482015,868.9315)" />
  <text
     x="496.76395"
     y="727.30847"
     font-size="14.00"
     id="text207"
     style="font-size:14px;text-anchor:middle;font-family:'Times,serif'">J_MEASURE</text>
  <text
     x="496.76395"
     y="742.30847"
     font-size="14.00"
     id="text209"
     style="font-size:14px;text-anchor:middle;font-family:'Times,serif'">TWO_WAY_SUPPORT_VARIATION</text>
  <g
     class="edge"
     id="edge12"
     transform="translate(-57.482015,868.9315)">
    <title
       id="title212">n24 (0.88 - 4)-&gt;J_MEASURE\nTWO_WAY_SUPPORT_VARIATION</title>
    <path
       style="fill:none;stroke:#000000"
       inkscape:connector-curvature="0"
       id="path214"
       d="m 554.246,-200.58 c 0,7.49 0,16.581 0,25.459" />
    <polygon
       style="fill:#000000;stroke:#000000"
       id="polygon216"
       points="557.746,-174.906 557.746,-174.906 554.246,-164.906 550.746,-174.906 " />
  </g>
  <g
     class="node"
     id="node15"
     transform="translate(-69.778418,868.9315)">
    <title
       id="title219">n27 (0.79 - 3)</title>
    <ellipse
       style="fill:none;stroke:#000000"
       sodipodi:ry="18"
       sodipodi:rx="59.590099"
       sodipodi:cy="-137.823"
       sodipodi:cx="799.24597"
       d="m 858.83607,-137.823 c 0,9.94113 -26.6794,18 -59.5901,18 -32.9107,0 -59.5901,-8.05887 -59.5901,-18 0,-9.94112 26.6794,-18 59.5901,-18 32.9107,0 59.5901,8.05888 59.5901,18 z"
       id="ellipse221"
       ry="18"
       rx="59.590099"
       cy="-137.823"
       cx="799.24597" />
    <text
       style="font-size:14px;text-anchor:middle;font-family:'Times,serif'"
       id="text223"
       font-size="14.00"
       y="-134.123"
       x="799.24597">n27 (0.79 - 3)</text>
  </g>
  <g
     class="edge"
     id="edge14"
     transform="translate(-69.778418,868.9315)">
    <title
       id="title226">n28 (0.61 - 7)-&gt;n27 (0.79 - 3)</title>
    <path
       style="fill:none;stroke:#000000"
       inkscape:connector-curvature="0"
       id="path228"
       d="m 799.246,-200.58 c 0,10.025 0,22.92 0,34.332" />
    <polygon
       style="fill:#000000;stroke:#000000"
       id="polygon230"
       points="802.746,-165.904 802.746,-165.904 799.246,-155.904 795.746,-165.904 " />
  </g>
  <g
     class="node"
     id="node18"
     transform="translate(-69.778418,868.9315)">
    <title
       id="title233">n26 (0.85 - 4)</title>
    <ellipse
       style="fill:none;stroke:#000000"
       sodipodi:ry="18"
       sodipodi:rx="59.590099"
       sodipodi:cy="-137.823"
       sodipodi:cx="943.24597"
       d="m 1002.8361,-137.823 c 0,9.94113 -26.67943,18 -59.59013,18 -32.9107,0 -59.5901,-8.05887 -59.5901,-18 0,-9.94112 26.6794,-18 59.5901,-18 32.9107,0 59.59013,8.05888 59.59013,18 z"
       id="ellipse235"
       ry="18"
       rx="59.590099"
       cy="-137.823"
       cx="943.24597" />
    <text
       style="font-size:14px;text-anchor:middle;font-family:'Times,serif'"
       id="text237"
       font-size="14.00"
       y="-134.123"
       x="943.24597">n26 (0.85 - 4)</text>
  </g>
  <g
     class="edge"
     id="edge17"
     transform="translate(-69.778418,868.9315)">
    <title
       id="title240">n28 (0.61 - 7)-&gt;n26 (0.85 - 4)</title>
    <path
       style="fill:none;stroke:#000000"
       inkscape:connector-curvature="0"
       id="path242"
       d="m 826.67,-202.673 c 22.676,12.419 55.075,30.165 79.965,43.798" />
    <polygon
       style="fill:#000000;stroke:#000000"
       id="polygon244"
       points="908.344,-161.93 908.344,-161.93 915.434,-154.057 904.982,-155.791 " />
  </g>
  <ellipse
     cx="607.24597"
     cy="-37.4767"
     rx="100.182"
     ry="18"
     id="ellipse249"
     d="m 707.42797,-37.4767 c 0,9.941126 -44.85301,18 -100.182,18 -55.32899,0 -100.182,-8.058874 -100.182,-18 0,-9.941125 44.85301,-18 100.182,-18 55.32899,0 100.182,8.058875 100.182,18 z"
     sodipodi:cx="607.24597"
     sodipodi:cy="-37.4767"
     sodipodi:rx="100.182"
     sodipodi:ry="18"
     style="fill:#aaffaa;stroke:#000000"
     transform="translate(-69.778418,868.9315)" />
  <text
     x="537.46753"
     y="835.15479"
     font-size="14.00"
     id="text251"
     style="font-size:14px;text-anchor:middle;font-family:'Times,serif'">IMPLICATION_INDEX</text>
  <g
     class="edge"
     id="edge15"
     transform="translate(-69.778418,868.9315)">
    <title
       id="title254">n27 (0.79 - 3)-&gt;IMPLICATION_INDEX</title>
    <path
       style="fill:none;stroke:#000000"
       inkscape:connector-curvature="0"
       id="path256"
       d="m 770.086,-121.887 c -32.591,16.694 -85.586,43.8392 -122.224,62.6058" />
    <polygon
       style="fill:#000000;stroke:#000000"
       id="polygon258"
       points="649.419,-56.1459 649.419,-56.1459 638.923,-54.702 646.227,-62.3761 " />
  </g>
  <ellipse
     cx="799.24597"
     cy="-37.4767"
     rx="74.493202"
     ry="26.7407"
     id="ellipse263"
     d="m 873.73917,-37.4767 c 0,14.768481 -33.35174,26.7407 -74.4932,26.7407 -41.14146,0 -74.4932,-11.972219 -74.4932,-26.7407 0,-14.768481 33.35174,-26.7407 74.4932,-26.7407 41.14146,0 74.4932,11.972219 74.4932,26.7407 z"
     sodipodi:cx="799.24597"
     sodipodi:cy="-37.4767"
     sodipodi:rx="74.493202"
     sodipodi:ry="26.7407"
     style="fill:#aaffaa;stroke:#000000"
     transform="translate(-69.778418,868.9315)" />
  <text
     x="729.46753"
     y="827.65479"
     font-size="14.00"
     id="text265"
     style="font-size:14px;text-anchor:middle;font-family:'Times,serif'">PHI</text>
  <text
     x="729.46753"
     y="842.65479"
     font-size="14.00"
     id="text267"
     style="font-size:14px;text-anchor:middle;font-family:'Times,serif'">FISHER_PVAL</text>
  <g
     class="edge"
     id="edge16"
     transform="translate(-69.778418,868.9315)">
    <title
       id="title270">n27 (0.79 - 3)-&gt;PHI\nFISHER_PVAL</title>
    <path
       style="fill:none;stroke:#000000"
       inkscape:connector-curvature="0"
       id="path272"
       d="m 799.246,-119.693 c 0,12.342 0,29.4521 0,44.7867" />
    <polygon
       style="fill:#000000;stroke:#000000"
       id="polygon274"
       points="802.746,-74.6541 802.746,-74.6541 799.246,-64.6542 795.746,-74.6542 " />
  </g>
  <ellipse
     cx="943.24597"
     cy="-37.4767"
     rx="51.990799"
     ry="18"
     id="ellipse279"
     d="m 995.23677,-37.4767 c 0,9.941126 -23.27707,18 -51.9908,18 -28.71372,0 -51.9908,-8.058874 -51.9908,-18 0,-9.941125 23.27708,-18 51.9908,-18 28.71373,0 51.9908,8.058875 51.9908,18 z"
     sodipodi:cx="943.24597"
     sodipodi:cy="-37.4767"
     sodipodi:rx="51.990799"
     sodipodi:ry="18"
     style="fill:#d5d5d5;stroke:#000000"
     transform="translate(-69.778418,868.9315)" />
  <text
     x="873.46753"
     y="835.15479"
     font-size="14.00"
     id="text281"
     style="font-size:14px;text-anchor:middle;font-family:'Times,serif'">KLOSGEN</text>
  <g
     class="edge"
     id="edge18"
     transform="translate(-69.778418,868.9315)">
    <title
       id="title284">n26 (0.85 - 4)-&gt;KLOSGEN</title>
    <path
       style="fill:none;stroke:#000000"
       inkscape:connector-curvature="0"
       id="path286"
       d="m 943.246,-119.693 c 0,14.858 0,36.6271 0,53.8888" />
    <polygon
       style="fill:#000000;stroke:#000000"
       id="polygon288"
       points="946.746,-65.741 946.746,-65.741 943.246,-55.741 939.746,-65.7411 " />
  </g>
  <ellipse
     cx="1123.25"
     cy="-37.4767"
     rx="109.703"
     ry="37.4533"
     id="ellipse293"
     d="m 1232.953,-37.4767 c 0,20.684887 -49.1157,37.45330065 -109.703,37.45330065 -60.5873,0 -109.703,-16.76841365 -109.703,-37.45330065 0,-20.684887 49.1157,-37.4533 109.703,-37.4533 60.5873,0 109.703,16.768413 109.703,37.4533 z"
     sodipodi:cx="1123.25"
     sodipodi:cy="-37.4767"
     sodipodi:rx="109.703"
     sodipodi:ry="37.4533"
     style="fill:#d5d5d5;stroke:#000000"
     transform="translate(-69.778418,868.9315)" />
  <text
     x="1053.4716"
     y="820.15479"
     font-size="14.00"
     id="text295"
     style="font-size:14px;text-anchor:middle;font-family:'Times,serif'">TWO_WAY_SUPPORT</text>
  <text
     x="1053.4716"
     y="835.15479"
     font-size="14.00"
     id="text297"
     style="font-size:14px;text-anchor:middle;font-family:'Times,serif'">PIATETSKY_SHAPIRO</text>
  <text
     x="1053.4716"
     y="850.15479"
     font-size="14.00"
     id="text299"
     style="font-size:14px;text-anchor:middle;font-family:'Times,serif'">SPECIFICITY</text>
  <g
     class="edge"
     id="edge19"
     transform="translate(-69.778418,868.9315)">
    <title
       id="title302">n26 (0.85 - 4)-&gt;TWO_WAY_SUPPORT\nPIATETSKY_SHAPIRO\nSPECIFICITY</title>
    <path
       style="fill:none;stroke:#000000"
       inkscape:connector-curvature="0"
       id="path304"
       d="m 970.977,-121.672 c 22.968,12.549 56.553,30.8967 86.333,47.1706" />
    <polygon
       style="fill:#000000;stroke:#000000"
       id="polygon306"
       points="1059.32,-77.3924 1059.32,-77.3924 1066.42,-69.5261 1055.96,-71.2494 " />
  </g>
  <ellipse
     cx="626.24597"
     cy="-559.00897"
     rx="124.402"
     ry="26.7407"
     id="ellipse311"
     d="m 750.64797,-559.00897 c 0,14.76848 -55.69667,26.7407 -124.402,26.7407 -68.70533,0 -124.402,-11.97222 -124.402,-26.7407 0,-14.76848 55.69667,-26.7407 124.402,-26.7407 68.70533,0 124.402,11.97222 124.402,26.7407 z"
     sodipodi:cx="626.24597"
     sodipodi:cy="-559.00897"
     sodipodi:rx="124.402"
     sodipodi:ry="26.7407"
     style="fill:#ffaaaa;stroke:#000000"
     transform="translate(4,903.585)" />
  <text
     x="630.24597"
     y="340.77597"
     font-size="14.00"
     id="text313"
     style="font-size:14px;text-anchor:middle;font-family:'Times,serif'">LEAST_CONTRADICTION</text>
  <text
     x="630.24597"
     y="355.77597"
     font-size="14.00"
     id="text315"
     style="font-size:14px;text-anchor:middle;font-family:'Times,serif'">ACCURACY</text>
  <g
     class="edge"
     id="edge21"
     transform="translate(4,903.585)">
    <title
       id="title318">n33 (0.25 - 20)-&gt;LEAST_CONTRADICTION\nACCURACY</title>
    <path
       style="fill:none;stroke:#000000"
       inkscape:connector-curvature="0"
       id="path320"
       d="m 626.246,-791.499 c 0,40.104 0,140.98 0,195.381" />
    <polygon
       style="fill:#000000;stroke:#000000"
       id="polygon322"
       points="622.746,-595.89 629.746,-595.889 629.746,-595.889 626.246,-585.89 " />
  </g>
  <ellipse
     cx="906.24597"
     cy="-559.00897"
     rx="137.358"
     ry="196.651"
     id="ellipse327"
     d="m 1043.604,-559.00897 c 0,108.60735 -61.4973,196.651 -137.35803,196.651 -75.86073,0 -137.358,-88.04365 -137.358,-196.651 0,-108.60735 61.49727,-196.651 137.358,-196.651 75.86073,0 137.35803,88.04365 137.35803,196.651 z"
     sodipodi:cx="906.24597"
     sodipodi:cy="-559.00897"
     sodipodi:rx="137.358"
     sodipodi:ry="196.651"
     style="fill:#ffffaa;stroke:#000000"
     transform="translate(4,903.585)" />
  <text
     x="910.24597"
     y="220.77599"
     font-size="14.00"
     id="text329"
     style="font-size:14px;text-anchor:middle;font-family:'Times,serif'">RELATIVE_RISK</text>
  <text
     x="910.24597"
     y="235.77599"
     font-size="14.00"
     id="text331"
     style="font-size:14px;text-anchor:middle;font-family:'Times,serif'">YULE_Y</text>
  <text
     x="910.24597"
     y="250.77599"
     font-size="14.00"
     id="text333"
     style="font-size:14px;text-anchor:middle;font-family:'Times,serif'">YULE_Q</text>
  <text
     x="910.24597"
     y="265.77597"
     font-size="14.00"
     id="text335"
     style="font-size:14px;text-anchor:middle;font-family:'Times,serif'">ODDS_RATIO</text>
  <text
     x="910.24597"
     y="280.77597"
     font-size="14.00"
     id="text337"
     style="font-size:14px;text-anchor:middle;font-family:'Times,serif'">LEVERAGE</text>
  <text
     x="910.24597"
     y="295.77597"
     font-size="14.00"
     id="text339"
     style="font-size:14px;text-anchor:middle;font-family:'Times,serif'">ONE_WAY_SUPPORT</text>
  <text
     x="910.24597"
     y="310.77597"
     font-size="14.00"
     id="text341"
     style="font-size:14px;text-anchor:middle;font-family:'Times,serif'">CONVICTION</text>
  <text
     x="910.24597"
     y="325.77597"
     font-size="14.00"
     id="text343"
     style="font-size:14px;text-anchor:middle;font-family:'Times,serif'">LOEVINGER</text>
  <text
     x="910.24597"
     y="340.77597"
     font-size="14.00"
     id="text345"
     style="font-size:14px;text-anchor:middle;font-family:'Times,serif'">SEBAG_SCHOENAUER</text>
  <text
     x="910.24597"
     y="355.77597"
     font-size="14.00"
     id="text347"
     style="font-size:14px;text-anchor:middle;font-family:'Times,serif'">ODD_MULTIPLIER</text>
  <text
     x="910.24597"
     y="370.77597"
     font-size="14.00"
     id="text349"
     style="font-size:14px;text-anchor:middle;font-family:'Times,serif'">COUNTER_EXAMPLE_RATE</text>
  <text
     x="910.24597"
     y="385.77597"
     font-size="14.00"
     id="text351"
     style="font-size:14px;text-anchor:middle;font-family:'Times,serif'">ZHANG</text>
  <text
     x="910.24597"
     y="400.776"
     font-size="14.00"
     id="text353"
     style="font-size:14px;text-anchor:middle;font-family:'Times,serif'">BAYES</text>
  <text
     x="910.24597"
     y="415.776"
     font-size="14.00"
     id="text355"
     style="font-size:14px;text-anchor:middle;font-family:'Times,serif'">CENTERED_CONFIDENCE</text>
  <text
     x="910.24597"
     y="430.776"
     font-size="14.00"
     id="text357"
     style="font-size:14px;text-anchor:middle;font-family:'Times,serif'">CERTAINTY_FACTOR</text>
  <text
     x="910.24597"
     y="445.776"
     font-size="14.00"
     id="text359"
     style="font-size:14px;text-anchor:middle;font-family:'Times,serif'">ADDED_VALUE</text>
  <text
     x="910.24597"
     y="460.776"
     font-size="14.00"
     id="text361"
     style="font-size:14px;text-anchor:middle;font-family:'Times,serif'">LIFT</text>
  <text
     x="910.24597"
     y="475.776"
     font-size="14.00"
     id="text363"
     style="font-size:14px;text-anchor:middle;font-family:'Times,serif'">CONFIDENCE</text>
  <g
     class="edge"
     id="edge22"
     transform="translate(4,903.585)">
    <title
       id="title366">n33 (0.25 - 20)-&gt;RELATIVE_RISK\nYULE_Y\nYULE_Q\nODDS_RATIO\nLEVERAGE\nONE_WAY_SUPPORT\nCONVICTION\nLOEVINGER\nSEBAG_SCHOENAUER\nODD_MULTIPLIER\nCOUNTER_EXAMPLE_RATE\nZHANG\nBAYES\nCENTERED_CONFIDENCE\nCERTAINTY_FACTOR\nADDED_VALUE\nLIFT\nCONFIDENCE</title>
    <path
       style="fill:none;stroke:#000000"
       inkscape:connector-curvature="0"
       id="path368"
       d="m 672.532,-796.969 c 27.148,8.398 61.044,21.759 86.714,41.384 16.826,12.864 32.674,28.136 47.287,44.391" />
    <polygon
       style="fill:#000000;stroke:#000000"
       id="polygon370"
       points="803.927,-708.858 809.182,-713.481 809.182,-713.481 813.16,-703.661 " />
  </g>
</svg>
