<?xml version="1.0" encoding="UTF-8" standalone="no"?>
<!-- Generated by graphviz version 2.38.0 (20140413.2041)
 -->

<!-- Title: dendrogram Pages: 1 -->

<svg
   xmlns:dc="http://purl.org/dc/elements/1.1/"
   xmlns:cc="http://creativecommons.org/ns#"
   xmlns:rdf="http://www.w3.org/1999/02/22-rdf-syntax-ns#"
   xmlns:svg="http://www.w3.org/2000/svg"
   xmlns="http://www.w3.org/2000/svg"
   xmlns:sodipodi="http://sodipodi.sourceforge.net/DTD/sodipodi-0.dtd"
   xmlns:inkscape="http://www.inkscape.org/namespaces/inkscape"
   width="1923pt"
   height="805pt"
   viewBox="0.00 0.00 1923.41 804.99"
   id="svg5905"
   version="1.1"
   inkscape:version="0.48.5 r10040"
   sodipodi:docname="patterns_prods_per_client2-global-KENDAL.svg">
  <metadata
     id="metadata6357">
    <rdf:RDF>
      <cc:Work
         rdf:about="">
        <dc:format>image/svg+xml</dc:format>
        <dc:type
           rdf:resource="http://purl.org/dc/dcmitype/StillImage" />
      </cc:Work>
    </rdf:RDF>
  </metadata>
  <defs
     id="defs6355" />
  <sodipodi:namedview
     pagecolor="#ffffff"
     bordercolor="#666666"
     borderopacity="1"
     objecttolerance="10"
     gridtolerance="10"
     guidetolerance="10"
     inkscape:pageopacity="0"
     inkscape:pageshadow="2"
     inkscape:window-width="1920"
     inkscape:window-height="1052"
     id="namedview6353"
     showgrid="false"
     inkscape:zoom="0.75465419"
     inkscape:cx="1201.875"
     inkscape:cy="503.125"
     inkscape:window-x="0"
     inkscape:window-y="0"
     inkscape:window-maximized="1"
     inkscape:current-layer="svg5905" />
  <polygon
     style="fill:#ffffff;stroke:none"
     id="polygon5910"
     points="1919.41,-800.992 1919.41,4 -4,4 -4,4 -4,-800.992 "
     transform="translate(4,800.992)" />
  <g
     class="node"
     id="node1"
     transform="translate(4,800.992)">
    <title
       id="title5913">n34 (-0.11 - 36)</title>
    <ellipse
       style="fill:none;stroke:#000000"
       sodipodi:ry="18"
       sodipodi:rx="67.688103"
       sodipodi:cy="-778.992"
       sodipodi:cx="588.84003"
       d="m 656.52813,-778.992 c 0,9.94112 -30.305,18 -67.6881,18 -37.38311,0 -67.68811,-8.05888 -67.68811,-18 0,-9.94113 30.305,-18 67.68811,-18 37.3831,0 67.6881,8.05887 67.6881,18 z"
       id="ellipse5915"
       ry="18"
       rx="67.688103"
       cy="-778.992"
       cx="588.84003" />
    <text
       style="font-size:14px;text-anchor:middle;font-family:'Times,serif'"
       id="text5917"
       font-size="14.00"
       y="-775.29199"
       x="588.84003">n34 (-0.11 - 36)</text>
  </g>
  <g
     class="node"
     id="node2"
     transform="translate(4,800.992)">
    <title
       id="title5920">n33 (0.36 - 5)</title>
    <ellipse
       style="fill:none;stroke:#000000"
       sodipodi:ry="18"
       sodipodi:rx="59.590099"
       sodipodi:cy="-706.992"
       sodipodi:cx="462.84"
       d="m 522.4301,-706.992 c 0,9.94112 -26.6794,18 -59.5901,18 -32.91071,0 -59.5901,-8.05888 -59.5901,-18 0,-9.94113 26.67939,-18 59.5901,-18 32.9107,0 59.5901,8.05887 59.5901,18 z"
       id="ellipse5922"
       ry="18"
       rx="59.590099"
       cy="-706.992"
       cx="462.84" />
    <text
       style="font-size:14px;text-anchor:middle;font-family:'Times,serif'"
       id="text5924"
       font-size="14.00"
       y="-703.29199"
       x="462.84">n33 (0.36 - 5)</text>
  </g>
  <g
     class="edge"
     id="edge1"
     transform="translate(4,800.992)">
    <title
       id="title5927">n34 (-0.11 - 36)-&gt;n33 (0.36 - 5)</title>
    <path
       style="fill:none;stroke:#000000"
       inkscape:connector-curvature="0"
       id="path5929"
       d="m 560.877,-762.457 c -18.151,10.084 -41.991,23.328 -61.617,34.232" />
    <polygon
       style="fill:#000000;stroke:#000000"
       id="polygon5931"
       points="497.334,-731.159 500.733,-725.04 500.733,-725.04 490.292,-723.243 " />
  </g>
  <g
     class="node"
     id="node11"
     transform="translate(4,800.992)">
    <title
       id="title5934">n32 (0.47 - 31)</title>
    <ellipse
       style="fill:none;stroke:#000000"
       sodipodi:ry="18"
       sodipodi:rx="64.189003"
       sodipodi:cy="-706.992"
       sodipodi:cx="660.84003"
       d="m 725.02903,-706.992 c 0,9.94112 -28.7384,18 -64.189,18 -35.45061,0 -64.18901,-8.05888 -64.18901,-18 0,-9.94113 28.7384,-18 64.18901,-18 35.4506,0 64.189,8.05887 64.189,18 z"
       id="ellipse5936"
       ry="18"
       rx="64.189003"
       cy="-706.992"
       cx="660.84003" />
    <text
       style="font-size:14px;text-anchor:middle;font-family:'Times,serif'"
       id="text5938"
       font-size="14.00"
       y="-703.29199"
       x="660.84003">n32 (0.47 - 31)</text>
  </g>
  <g
     class="edge"
     id="edge10"
     transform="translate(4,800.992)">
    <title
       id="title5941">n34 (-0.11 - 36)-&gt;n32 (0.47 - 31)</title>
    <path
       style="fill:none;stroke:#000000"
       inkscape:connector-curvature="0"
       id="path5943"
       d="m 605.903,-761.403 c 9.146,8.892 20.572,20 30.631,29.78" />
    <polygon
       style="fill:#000000;stroke:#000000"
       id="polygon5945"
       points="634.29,-728.923 639.17,-733.942 639.17,-733.942 643.9,-724.462 " />
  </g>
  <ellipse
     cx="324.84"
     cy="-634.992"
     rx="59.590099"
     ry="18"
     id="ellipse5950"
     d="m 384.4301,-634.992 c 0,9.94112 -26.6794,18 -59.5901,18 -32.91071,0 -59.5901,-8.05888 -59.5901,-18 0,-9.94113 26.67939,-18 59.5901,-18 32.9107,0 59.5901,8.05887 59.5901,18 z"
     sodipodi:cx="324.84"
     sodipodi:cy="-634.992"
     sodipodi:rx="59.590099"
     sodipodi:ry="18"
     style="fill:#ffaaaa;stroke:#000000"
     transform="translate(4,800.992)" />
  <text
     x="328.84"
     y="169.70001"
     font-size="14.00"
     id="text5952"
     style="font-size:14px;text-anchor:middle;font-family:'Times,serif'">ACCURACY</text>
  <g
     class="edge"
     id="edge2"
     transform="translate(4,800.992)">
    <title
       id="title5955">n33 (0.36 - 5)-&gt;ACCURACY</title>
    <path
       style="fill:none;stroke:#000000"
       inkscape:connector-curvature="0"
       id="path5957"
       d="m 433.574,-691.147 c -20.492,10.395 -48.076,24.386 -70.333,35.676" />
    <polygon
       style="fill:#000000;stroke:#000000"
       id="polygon5959"
       points="361.399,-658.461 364.566,-652.218 364.566,-652.218 354.064,-650.816 " />
  </g>
  <g
     class="node"
     id="node4"
     transform="translate(4,800.992)">
    <title
       id="title5962">n29 (0.63 - 4)</title>
    <ellipse
       style="fill:none;stroke:#000000"
       sodipodi:ry="18"
       sodipodi:rx="59.590099"
       sodipodi:cy="-634.992"
       sodipodi:cx="462.84"
       d="m 522.4301,-634.992 c 0,9.94112 -26.6794,18 -59.5901,18 -32.91071,0 -59.5901,-8.05888 -59.5901,-18 0,-9.94113 26.67939,-18 59.5901,-18 32.9107,0 59.5901,8.05887 59.5901,18 z"
       id="ellipse5964"
       ry="18"
       rx="59.590099"
       cy="-634.992"
       cx="462.84" />
    <text
       style="font-size:14px;text-anchor:middle;font-family:'Times,serif'"
       id="text5966"
       font-size="14.00"
       y="-631.29199"
       x="462.84">n29 (0.63 - 4)</text>
  </g>
  <g
     class="edge"
     id="edge3"
     transform="translate(4,800.992)">
    <title
       id="title5969">n33 (0.36 - 5)-&gt;n29 (0.63 - 4)</title>
    <path
       style="fill:none;stroke:#000000"
       inkscape:connector-curvature="0"
       id="path5971"
       d="m 462.84,-688.689 c 0,7.714 0,16.985 0,25.585" />
    <polygon
       style="fill:#000000;stroke:#000000"
       id="polygon5973"
       points="459.34,-663.096 466.34,-663.096 466.34,-663.096 462.84,-653.096 " />
  </g>
  <g
     class="node"
     id="node5"
     transform="translate(4,800.992)">
    <title
       id="title5976">n27 (0.68 - 2)</title>
    <ellipse
       style="fill:none;stroke:#000000"
       sodipodi:ry="18"
       sodipodi:rx="59.590099"
       sodipodi:cy="-490.48199"
       sodipodi:cx="300.84"
       d="m 360.4301,-490.48199 c 0,9.94112 -26.6794,18 -59.5901,18 -32.91071,0 -59.5901,-8.05888 -59.5901,-18 0,-9.94113 26.67939,-18 59.5901,-18 32.9107,0 59.5901,8.05887 59.5901,18 z"
       id="ellipse5978"
       ry="18"
       rx="59.590099"
       cy="-490.48199"
       cx="300.84" />
    <text
       style="font-size:14px;text-anchor:middle;font-family:'Times,serif'"
       id="text5980"
       font-size="14.00"
       y="-486.78201"
       x="300.84">n27 (0.68 - 2)</text>
  </g>
  <g
     class="edge"
     id="edge4"
     transform="translate(4,800.992)">
    <title
       id="title5983">n29 (0.63 - 4)-&gt;n27 (0.68 - 2)</title>
    <path
       style="fill:none;stroke:#000000"
       inkscape:connector-curvature="0"
       id="path5985"
       d="m 440.906,-618.12 c -13.81,10.23 -31.839,24.023 -47.066,37.128 -24.671,21.233 -51.285,47.186 -69.695,65.669" />
    <polygon
       style="fill:#000000;stroke:#000000"
       id="polygon5987"
       points="321.338,-517.463 326.311,-512.537 326.311,-512.537 316.787,-507.895 " />
  </g>
  <g
     class="node"
     id="node8"
     transform="translate(4,800.992)">
    <title
       id="title5990">n24 (0.78 - 2)</title>
    <ellipse
       style="fill:none;stroke:#000000"
       sodipodi:ry="18"
       sodipodi:rx="59.590099"
       sodipodi:cy="-490.48199"
       sodipodi:cx="462.84"
       d="m 522.4301,-490.48199 c 0,9.94112 -26.6794,18 -59.5901,18 -32.91071,0 -59.5901,-8.05888 -59.5901,-18 0,-9.94113 26.67939,-18 59.5901,-18 32.9107,0 59.5901,8.05887 59.5901,18 z"
       id="ellipse5992"
       ry="18"
       rx="59.590099"
       cy="-490.48199"
       cx="462.84" />
    <text
       style="font-size:14px;text-anchor:middle;font-family:'Times,serif'"
       id="text5994"
       font-size="14.00"
       y="-486.78201"
       x="462.84">n24 (0.78 - 2)</text>
  </g>
  <g
     class="edge"
     id="edge7"
     transform="translate(4,800.992)">
    <title
       id="title5997">n29 (0.63 - 4)-&gt;n24 (0.78 - 2)</title>
    <path
       style="fill:none;stroke:#000000"
       inkscape:connector-curvature="0"
       id="path5999"
       d="m 462.84,-616.802 c 0,24.288 0,68.907 0,97.828" />
    <polygon
       style="fill:#000000;stroke:#000000"
       id="polygon6001"
       points="459.34,-518.733 466.34,-518.733 466.34,-518.733 462.84,-508.733 " />
  </g>
  <ellipse
     cx="109.84"
     cy="-345.97299"
     rx="109.681"
     ry="18"
     id="ellipse6006"
     d="m 219.521,-345.97299 c 0,9.94112 -49.10586,18 -109.681,18 -60.575147,0 -109.68100342,-8.05888 -109.68100342,-18 0,-9.94113 49.10585642,-18 109.68100342,-18 60.57514,0 109.681,8.05887 109.681,18 z"
     sodipodi:cx="109.84"
     sodipodi:cy="-345.97299"
     sodipodi:rx="109.681"
     sodipodi:ry="18"
     style="fill:#aaaaff;stroke:#000000"
     transform="translate(4,800.992)" />
  <text
     x="113.84"
     y="458.71899"
     font-size="14.00"
     id="text6008"
     style="font-size:14px;text-anchor:middle;font-family:'Times,serif'">COLLECTIVE_STRENGH</text>
  <g
     class="edge"
     id="edge5"
     transform="translate(4,800.992)">
    <title
       id="title6011">n27 (0.68 - 2)-&gt;COLLECTIVE_STRENGH</title>
    <path
       style="fill:none;stroke:#000000"
       inkscape:connector-curvature="0"
       id="path6013"
       d="m 279.301,-473.412 c -33.922,25.311 -99.924,74.556 -138.79,103.555" />
    <polygon
       style="fill:#000000;stroke:#000000"
       id="polygon6015"
       points="138.106,-372.429 142.292,-366.819 142.292,-366.819 132.184,-363.644 " />
  </g>
  <ellipse
     cx="300.84"
     cy="-345.97299"
     rx="63.088799"
     ry="18"
     id="ellipse6020"
     d="m 363.92879,-345.97299 c 0,9.94112 -28.24581,18 -63.08879,18 -34.84298,0 -63.0888,-8.05888 -63.0888,-18 0,-9.94113 28.24582,-18 63.0888,-18 34.84298,0 63.08879,8.05887 63.08879,18 z"
     sodipodi:cx="300.84"
     sodipodi:cy="-345.97299"
     sodipodi:rx="63.088799"
     sodipodi:ry="18"
     style="fill:#d5d5d5;stroke:#000000"
     transform="translate(4,800.992)" />
  <text
     x="304.84"
     y="458.71899"
     font-size="14.00"
     id="text6022"
     style="font-size:14px;text-anchor:middle;font-family:'Times,serif'">SPECIFICITY</text>
  <g
     class="edge"
     id="edge6"
     transform="translate(4,800.992)">
    <title
       id="title6025">n27 (0.68 - 2)-&gt;SPECIFICITY</title>
    <path
       style="fill:none;stroke:#000000"
       inkscape:connector-curvature="0"
       id="path6027"
       d="m 300.84,-472.292 c 0,24.288 0,68.907 0,97.828" />
    <polygon
       style="fill:#000000;stroke:#000000"
       id="polygon6029"
       points="297.34,-374.224 304.34,-374.224 304.34,-374.224 300.84,-364.224 " />
  </g>
  <ellipse
     cx="432.84"
     cy="-345.97299"
     rx="50.8918"
     ry="18"
     id="ellipse6034"
     d="m 483.7318,-345.97299 c 0,9.94112 -22.78504,18 -50.8918,18 -28.10677,0 -50.8918,-8.05888 -50.8918,-18 0,-9.94113 22.78503,-18 50.8918,-18 28.10676,0 50.8918,8.05887 50.8918,18 z"
     sodipodi:cx="432.84"
     sodipodi:cy="-345.97299"
     sodipodi:rx="50.8918"
     sodipodi:ry="18"
     style="fill:#aaffaa;stroke:#000000"
     transform="translate(4,800.992)" />
  <text
     x="436.84"
     y="458.71899"
     font-size="14.00"
     id="text6036"
     style="font-size:14px;text-anchor:middle;font-family:'Times,serif'">JACCARD</text>
  <g
     class="edge"
     id="edge8"
     transform="translate(4,800.992)">
    <title
       id="title6039">n24 (0.78 - 2)-&gt;JACCARD</title>
    <path
       style="fill:none;stroke:#000000"
       inkscape:connector-curvature="0"
       id="path6041"
       d="m 459.222,-472.292 c -5.136,24.395 -14.589,69.3 -20.675,98.209" />
    <polygon
       style="fill:#000000;stroke:#000000"
       id="polygon6043"
       points="435.107,-374.73 441.957,-373.288 441.957,-373.288 436.472,-364.224 " />
  </g>
  <ellipse
     cx="546.84003"
     cy="-345.97299"
     rx="44.6926"
     ry="18"
     id="ellipse6048"
     d="m 591.53263,-345.97299 c 0,9.94112 -20.00956,18 -44.6926,18 -24.68304,0 -44.6926,-8.05888 -44.6926,-18 0,-9.94113 20.00956,-18 44.6926,-18 24.68304,0 44.6926,8.05887 44.6926,18 z"
     sodipodi:cx="546.84003"
     sodipodi:cy="-345.97299"
     sodipodi:rx="44.6926"
     sodipodi:ry="18"
     style="fill:#aaaaff;stroke:#000000"
     transform="translate(4,800.992)" />
  <text
     x="550.84003"
     y="458.71899"
     font-size="14.00"
     id="text6050"
     style="font-size:14px;text-anchor:middle;font-family:'Times,serif'">RECALL</text>
  <g
     class="edge"
     id="edge9"
     transform="translate(4,800.992)">
    <title
       id="title6053">n24 (0.78 - 2)-&gt;RECALL</title>
    <path
       style="fill:none;stroke:#000000"
       inkscape:connector-curvature="0"
       id="path6055"
       d="m 472.806,-472.575 c 14.588,24.749 41.869,71.033 58.93,99.978" />
    <polygon
       style="fill:#000000;stroke:#000000"
       id="polygon6057"
       points="528.794,-370.696 534.825,-374.25 534.825,-374.25 536.887,-363.858 " />
  </g>
  <g
     class="node"
     id="node12"
     transform="translate(4,800.992)">
    <title
       id="title6060">n31 (0.59 - 9)</title>
    <ellipse
       style="fill:none;stroke:#000000"
       sodipodi:ry="18"
       sodipodi:rx="59.590099"
       sodipodi:cy="-634.992"
       sodipodi:cx="660.84003"
       d="m 720.43013,-634.992 c 0,9.94112 -26.6794,18 -59.5901,18 -32.91071,0 -59.5901,-8.05888 -59.5901,-18 0,-9.94113 26.67939,-18 59.5901,-18 32.9107,0 59.5901,8.05887 59.5901,18 z"
       id="ellipse6062"
       ry="18"
       rx="59.590099"
       cy="-634.992"
       cx="660.84003" />
    <text
       style="font-size:14px;text-anchor:middle;font-family:'Times,serif'"
       id="text6064"
       font-size="14.00"
       y="-631.29199"
       x="660.84003">n31 (0.59 - 9)</text>
  </g>
  <g
     class="edge"
     id="edge11"
     transform="translate(4,800.992)">
    <title
       id="title6067">n32 (0.47 - 31)-&gt;n31 (0.59 - 9)</title>
    <path
       style="fill:none;stroke:#000000"
       inkscape:connector-curvature="0"
       id="path6069"
       d="m 660.84,-688.689 c 0,7.714 0,16.985 0,25.585" />
    <polygon
       style="fill:#000000;stroke:#000000"
       id="polygon6071"
       points="657.34,-663.096 664.34,-663.096 664.34,-663.096 660.84,-653.096 " />
  </g>
  <g
     class="node"
     id="node19"
     transform="translate(4,800.992)">
    <title
       id="title6074">n30 (0.61 - 22)</title>
    <ellipse
       style="fill:none;stroke:#000000"
       sodipodi:ry="18"
       sodipodi:rx="64.189003"
       sodipodi:cy="-634.992"
       sodipodi:cx="894.84003"
       d="m 959.02903,-634.992 c 0,9.94112 -28.7384,18 -64.189,18 -35.45061,0 -64.18901,-8.05888 -64.18901,-18 0,-9.94113 28.7384,-18 64.18901,-18 35.4506,0 64.189,8.05887 64.189,18 z"
       id="ellipse6076"
       ry="18"
       rx="64.189003"
       cy="-634.992"
       cx="894.84003" />
    <text
       style="font-size:14px;text-anchor:middle;font-family:'Times,serif'"
       id="text6078"
       font-size="14.00"
       y="-631.29199"
       x="894.84003">n30 (0.61 - 22)</text>
  </g>
  <g
     class="edge"
     id="edge18"
     transform="translate(4,800.992)">
    <title
       id="title6081">n32 (0.47 - 31)-&gt;n30 (0.61 - 22)</title>
    <path
       style="fill:none;stroke:#000000"
       inkscape:connector-curvature="0"
       id="path6083"
       d="m 703.216,-693.316 c 39.139,11.709 97.4,29.137 139.4,41.701" />
    <polygon
       style="fill:#000000;stroke:#000000"
       id="polygon6085"
       points="841.802,-648.205 843.808,-654.911 843.808,-654.911 852.385,-648.692 " />
  </g>
  <ellipse
     cx="598.84003"
     cy="-490.48199"
     rx="39.793499"
     ry="18"
     id="ellipse6090"
     d="m 638.63353,-490.48199 c 0,9.94112 -17.81616,18 -39.7935,18 -21.97735,0 -39.7935,-8.05888 -39.7935,-18 0,-9.94113 17.81615,-18 39.7935,-18 21.97734,0 39.7935,8.05887 39.7935,18 z"
     sodipodi:cx="598.84003"
     sodipodi:cy="-490.48199"
     sodipodi:rx="39.793499"
     sodipodi:ry="18"
     style="fill:none;stroke:#000000"
     transform="translate(4,800.992)" />
  <text
     x="602.84003"
     y="314.20999"
     font-size="14.00"
     id="text6092"
     style="font-size:14px;text-anchor:middle;font-family:'Times,serif'">KAPPA</text>
  <g
     class="edge"
     id="edge12"
     transform="translate(4,800.992)">
    <title
       id="title6095">n31 (0.59 - 9)-&gt;KAPPA</title>
    <path
       style="fill:none;stroke:#000000"
       inkscape:connector-curvature="0"
       id="path6097"
       d="m 653.485,-617.085 c -10.674,24.535 -30.556,70.234 -43.168,99.223" />
    <polygon
       style="fill:#000000;stroke:#000000"
       id="polygon6099"
       points="606.966,-518.934 613.385,-516.141 613.385,-516.141 606.186,-508.368 " />
  </g>
  <g
     class="node"
     id="node14"
     transform="translate(4,800.992)">
    <title
       id="title6102">n28 (0.67 - 8)</title>
    <ellipse
       style="fill:none;stroke:#000000"
       sodipodi:ry="18"
       sodipodi:rx="59.590099"
       sodipodi:cy="-490.48199"
       sodipodi:cx="715.84003"
       d="m 775.43013,-490.48199 c 0,9.94112 -26.6794,18 -59.5901,18 -32.91071,0 -59.5901,-8.05888 -59.5901,-18 0,-9.94113 26.67939,-18 59.5901,-18 32.9107,0 59.5901,8.05887 59.5901,18 z"
       id="ellipse6104"
       ry="18"
       rx="59.590099"
       cy="-490.48199"
       cx="715.84003" />
    <text
       style="font-size:14px;text-anchor:middle;font-family:'Times,serif'"
       id="text6106"
       font-size="14.00"
       y="-486.78201"
       x="715.84003">n28 (0.67 - 8)</text>
  </g>
  <g
     class="edge"
     id="edge13"
     transform="translate(4,800.992)">
    <title
       id="title6109">n31 (0.59 - 9)-&gt;n28 (0.67 - 8)</title>
    <path
       style="fill:none;stroke:#000000"
       inkscape:connector-curvature="0"
       id="path6111"
       d="m 667.365,-617.085 c 9.418,24.403 26.917,69.743 38.113,98.754" />
    <polygon
       style="fill:#000000;stroke:#000000"
       id="polygon6113"
       points="702.286,-516.881 708.817,-519.402 708.817,-519.402 709.152,-508.812 " />
  </g>
  <ellipse
     cx="710.84003"
     cy="-345.97299"
     rx="100.983"
     ry="18"
     id="ellipse6118"
     d="m 811.82303,-345.97299 c 0,9.94112 -45.21163,18 -100.983,18 -55.77137,0 -100.983,-8.05888 -100.983,-18 0,-9.94113 45.21163,-18 100.983,-18 55.77137,0 100.983,8.05887 100.983,18 z"
     sodipodi:cx="710.84003"
     sodipodi:cy="-345.97299"
     sodipodi:rx="100.983"
     sodipodi:ry="18"
     style="fill:#d5d5d5;stroke:#000000"
     transform="translate(4,800.992)" />
  <text
     x="714.84003"
     y="458.71899"
     font-size="14.00"
     id="text6120"
     style="font-size:14px;text-anchor:middle;font-family:'Times,serif'">PIATETSKY_SHAPIRO</text>
  <g
     class="edge"
     id="edge14"
     transform="translate(4,800.992)">
    <title
       id="title6123">n28 (0.67 - 8)-&gt;PIATETSKY_SHAPIRO</title>
    <path
       style="fill:none;stroke:#000000"
       inkscape:connector-curvature="0"
       id="path6125"
       d="m 715.237,-472.292 c -0.852,24.288 -2.417,68.907 -3.432,97.828" />
    <polygon
       style="fill:#000000;stroke:#000000"
       id="polygon6127"
       points="708.298,-374.34 715.294,-374.095 715.294,-374.095 711.446,-364.224 " />
  </g>
  <g
     class="node"
     id="node16"
     transform="translate(4,800.992)">
    <title
       id="title6130">n23 (0.82 - 7)</title>
    <ellipse
       style="fill:none;stroke:#000000"
       sodipodi:ry="18"
       sodipodi:rx="59.590099"
       sodipodi:cy="-345.97299"
       sodipodi:cx="889.84003"
       d="m 949.43013,-345.97299 c 0,9.94112 -26.6794,18 -59.5901,18 -32.91071,0 -59.5901,-8.05888 -59.5901,-18 0,-9.94113 26.67939,-18 59.5901,-18 32.9107,0 59.5901,8.05887 59.5901,18 z"
       id="ellipse6132"
       ry="18"
       rx="59.590099"
       cy="-345.97299"
       cx="889.84003" />
    <text
       style="font-size:14px;text-anchor:middle;font-family:'Times,serif'"
       id="text6134"
       font-size="14.00"
       y="-342.27301"
       x="889.84003">n23 (0.82 - 7)</text>
  </g>
  <g
     class="edge"
     id="edge15"
     transform="translate(4,800.992)">
    <title
       id="title6137">n28 (0.67 - 8)-&gt;n23 (0.82 - 7)</title>
    <path
       style="fill:none;stroke:#000000"
       inkscape:connector-curvature="0"
       id="path6139"
       d="m 726.965,-472.638 c 13.404,19.348 37.444,51.184 63.875,72.665 16.955,13.78 38.037,25.652 56.384,34.645" />
    <polygon
       style="fill:#000000;stroke:#000000"
       id="polygon6141"
       points="845.723,-362.166 848.736,-368.484 848.736,-368.484 856.256,-361.02 " />
  </g>
  <ellipse
     cx="631.84003"
     cy="-233.283"
     rx="108.789"
     ry="26.7407"
     id="ellipse6146"
     d="m 740.62903,-233.283 c 0,14.76848 -48.7065,26.7407 -108.789,26.7407 -60.08251,0 -108.789,-11.97222 -108.789,-26.7407 0,-14.76849 48.70649,-26.7407 108.789,-26.7407 60.0825,0 108.789,11.97221 108.789,26.7407 z"
     sodipodi:cx="631.84003"
     sodipodi:cy="-233.283"
     sodipodi:rx="108.789"
     sodipodi:ry="26.7407"
     style="fill:none;stroke:#000000"
     transform="translate(4,800.992)" />
  <text
     x="635.84003"
     y="563.909"
     font-size="14.00"
     id="text6148"
     style="font-size:14px;text-anchor:middle;font-family:'Times,serif'">COSINE</text>
  <text
     x="635.84003"
     y="578.909"
     font-size="14.00"
     id="text6150"
     style="font-size:14px;text-anchor:middle;font-family:'Times,serif'">TWO_WAY_SUPPORT</text>
  <g
     class="edge"
     id="edge16"
     transform="translate(4,800.992)">
    <title
       id="title6153">n23 (0.82 - 7)-&gt;COSINE\nTWO_WAY_SUPPORT</title>
    <path
       style="fill:none;stroke:#000000"
       inkscape:connector-curvature="0"
       id="path6155"
       d="m 852.323,-331.842 c -28.41,10.201 -68.254,25.061 -102.483,39.869 -20.958,9.067 -43.576,19.868 -63.347,29.659" />
    <polygon
       style="fill:#000000;stroke:#000000"
       id="polygon6157"
       points="684.72,-265.341 687.842,-259.076 687.842,-259.076 677.331,-257.749 " />
  </g>
  <ellipse
     cx="925.84003"
     cy="-233.283"
     rx="166.754"
     ry="58.880299"
     id="ellipse6162"
     d="m 1092.594,-233.283 c 0,32.51869 -74.6583,58.88029 -166.75397,58.88029 -92.09569,0 -166.754,-26.3616 -166.754,-58.88029 0,-32.5187 74.65831,-58.8803 166.754,-58.8803 92.09567,0 166.75397,26.3616 166.75397,58.8803 z"
     sodipodi:cx="925.84003"
     sodipodi:cy="-233.283"
     sodipodi:rx="166.754"
     sodipodi:ry="58.880299"
     style="fill:#aaffaa;stroke:#000000"
     transform="translate(4,800.992)" />
  <text
     x="929.84003"
     y="541.409"
     font-size="14.00"
     id="text6164"
     style="font-size:14px;text-anchor:middle;font-family:'Times,serif'">CHI_SQUARE</text>
  <text
     x="929.84003"
     y="556.409"
     font-size="14.00"
     id="text6166"
     style="font-size:14px;text-anchor:middle;font-family:'Times,serif'">PHI</text>
  <text
     x="929.84003"
     y="571.409"
     font-size="14.00"
     id="text6168"
     style="font-size:14px;text-anchor:middle;font-family:'Times,serif'">J_MEASURE</text>
  <text
     x="929.84003"
     y="586.409"
     font-size="14.00"
     id="text6170"
     style="font-size:14px;text-anchor:middle;font-family:'Times,serif'">TWO_WAY_SUPPORT_VARIATION</text>
  <text
     x="929.84003"
     y="601.409"
     font-size="14.00"
     id="text6172"
     style="font-size:14px;text-anchor:middle;font-family:'Times,serif'">FISHER_PVAL</text>
  <g
     class="edge"
     id="edge17"
     transform="translate(4,800.992)">
    <title
       id="title6175">n23 (0.82 - 7)-&gt;CHI_SQUARE\nPHI\nJ_MEASURE\nTWO_WAY_SUPPORT_VARIATION\nFISHER_PVAL</title>
    <path
       style="fill:none;stroke:#000000"
       inkscape:connector-curvature="0"
       id="path6177"
       d="m 895.465,-327.677 c 2.403,7.387 5.376,16.528 8.513,26.174" />
    <polygon
       style="fill:#000000;stroke:#000000"
       id="polygon6179"
       points="900.734,-300.162 907.39,-302.327 907.39,-302.327 907.155,-291.735 " />
  </g>
  <ellipse
     cx="894.84003"
     cy="-490.48199"
     rx="94.505302"
     ry="90.519302"
     id="ellipse6184"
     d="m 989.34533,-490.48199 c 0,49.99243 -42.31147,90.5193 -94.5053,90.5193 -52.19384,0 -94.50531,-40.52687 -94.50531,-90.5193 0,-49.99243 42.31147,-90.51931 94.50531,-90.51931 52.19383,0 94.5053,40.52688 94.5053,90.51931 z"
     sodipodi:cx="894.84003"
     sodipodi:cy="-490.48199"
     sodipodi:rx="94.505302"
     sodipodi:ry="90.519302"
     style="fill:#ffffaa;stroke:#000000"
     transform="translate(4,800.992)" />
  <text
     x="898.84003"
     y="261.71002"
     font-size="14.00"
     id="text6186"
     style="font-size:14px;text-anchor:middle;font-family:'Times,serif'">RELATIVE_RISK</text>
  <text
     x="898.84003"
     y="276.71002"
     font-size="14.00"
     id="text6188"
     style="font-size:14px;text-anchor:middle;font-family:'Times,serif'">LIFT</text>
  <text
     x="898.84003"
     y="291.70999"
     font-size="14.00"
     id="text6190"
     style="font-size:14px;text-anchor:middle;font-family:'Times,serif'">YULE_Y</text>
  <text
     x="898.84003"
     y="306.70999"
     font-size="14.00"
     id="text6192"
     style="font-size:14px;text-anchor:middle;font-family:'Times,serif'">YULE_Q</text>
  <text
     x="898.84003"
     y="321.70999"
     font-size="14.00"
     id="text6194"
     style="font-size:14px;text-anchor:middle;font-family:'Times,serif'">ODDS_RATIO</text>
  <text
     x="898.84003"
     y="336.70999"
     font-size="14.00"
     id="text6196"
     style="font-size:14px;text-anchor:middle;font-family:'Times,serif'">ODD_MULTIPLIER</text>
  <text
     x="898.84003"
     y="351.70999"
     font-size="14.00"
     id="text6198"
     style="font-size:14px;text-anchor:middle;font-family:'Times,serif'">ZHANG</text>
  <text
     x="898.84003"
     y="366.70999"
     font-size="14.00"
     id="text6200"
     style="font-size:14px;text-anchor:middle;font-family:'Times,serif'">BAYES</text>
  <g
     class="edge"
     id="edge19"
     transform="translate(4,800.992)">
    <title
       id="title6203">n30 (0.61 - 22)-&gt;RELATIVE_RISK\nLIFT\nYULE_Y\nYULE_Q\nODDS_RATIO\nODD_MULTIPLIER\nZHANG\nBAYES</title>
    <path
       style="fill:none;stroke:#000000"
       inkscape:connector-curvature="0"
       id="path6205"
       d="m 894.84,-616.802 c 0,7.033 0,15.77 0,25.338" />
    <polygon
       style="fill:#000000;stroke:#000000"
       id="polygon6207"
       points="891.34,-591.23 898.34,-591.23 898.34,-591.23 894.84,-581.23 " />
  </g>
  <g
     class="node"
     id="node21"
     transform="translate(4,800.992)">
    <title
       id="title6210">n26 (0.68 - 14)</title>
    <ellipse
       style="fill:none;stroke:#000000"
       sodipodi:ry="18"
       sodipodi:rx="64.189003"
       sodipodi:cy="-490.48199"
       sodipodi:cx="1081.84"
       d="m 1146.029,-490.48199 c 0,9.94112 -28.7384,18 -64.189,18 -35.4506,0 -64.189,-8.05888 -64.189,-18 0,-9.94113 28.7384,-18 64.189,-18 35.4506,0 64.189,8.05887 64.189,18 z"
       id="ellipse6212"
       ry="18"
       rx="64.189003"
       cy="-490.48199"
       cx="1081.84" />
    <text
       style="font-size:14px;text-anchor:middle;font-family:'Times,serif'"
       id="text6214"
       font-size="14.00"
       y="-486.78201"
       x="1081.84">n26 (0.68 - 14)</text>
  </g>
  <g
     class="edge"
     id="edge20"
     transform="translate(4,800.992)">
    <title
       id="title6217">n30 (0.61 - 22)-&gt;n26 (0.68 - 14)</title>
    <path
       style="fill:none;stroke:#000000"
       inkscape:connector-curvature="0"
       id="path6219"
       d="m 929.864,-619.873 c 21.061,9.371 47.798,22.874 68.976,38.881 24.74,18.7 48.32,45.271 63.98,64.603" />
    <polygon
       style="fill:#000000;stroke:#000000"
       id="polygon6221"
       points="1060.26,-513.978 1065.74,-518.336 1065.74,-518.336 1069.23,-508.331 " />
  </g>
  <ellipse
     cx="1081.84"
     cy="-345.97299"
     rx="114.28"
     ry="18"
     id="ellipse6226"
     d="m 1196.12,-345.97299 c 0,9.94112 -51.1649,18 -114.28,18 -63.1151,0 -114.28003,-8.05888 -114.28003,-18 0,-9.94113 51.16493,-18 114.28003,-18 63.1151,0 114.28,8.05887 114.28,18 z"
     sodipodi:cx="1081.84"
     sodipodi:cy="-345.97299"
     sodipodi:rx="114.28"
     sodipodi:ry="18"
     style="fill:#ffaaaa;stroke:#000000"
     transform="translate(4,800.992)" />
  <text
     x="1085.84"
     y="458.71899"
     font-size="14.00"
     id="text6228"
     style="font-size:14px;text-anchor:middle;font-family:'Times,serif'">LEAST_CONTRADICTION</text>
  <g
     class="edge"
     id="edge21"
     transform="translate(4,800.992)">
    <title
       id="title6231">n26 (0.68 - 14)-&gt;LEAST_CONTRADICTION</title>
    <path
       style="fill:none;stroke:#000000"
       inkscape:connector-curvature="0"
       id="path6233"
       d="m 1081.84,-472.292 c 0,24.288 0,68.907 0,97.828" />
    <polygon
       style="fill:#000000;stroke:#000000"
       id="polygon6235"
       points="1078.34,-374.224 1085.34,-374.224 1085.34,-374.224 1081.84,-364.224 " />
  </g>
  <g
     class="node"
     id="node23"
     transform="translate(4,800.992)">
    <title
       id="title6238">n25 (0.75 - 13)</title>
    <ellipse
       style="fill:none;stroke:#000000"
       sodipodi:ry="18"
       sodipodi:rx="64.189003"
       sodipodi:cy="-345.97299"
       sodipodi:cx="1278.84"
       d="m 1343.029,-345.97299 c 0,9.94112 -28.7384,18 -64.189,18 -35.4506,0 -64.189,-8.05888 -64.189,-18 0,-9.94113 28.7384,-18 64.189,-18 35.4506,0 64.189,8.05887 64.189,18 z"
       id="ellipse6240"
       ry="18"
       rx="64.189003"
       cy="-345.97299"
       cx="1278.84" />
    <text
       style="font-size:14px;text-anchor:middle;font-family:'Times,serif'"
       id="text6242"
       font-size="14.00"
       y="-342.27301"
       x="1278.84">n25 (0.75 - 13)</text>
  </g>
  <g
     class="edge"
     id="edge22"
     transform="translate(4,800.992)">
    <title
       id="title6245">n26 (0.68 - 14)-&gt;n25 (0.75 - 13)</title>
    <path
       style="fill:none;stroke:#000000"
       inkscape:connector-curvature="0"
       id="path6247"
       d="m 1104.06,-473.412 c 35.34,25.567 104.44,75.557 144.36,104.431" />
    <polygon
       style="fill:#000000;stroke:#000000"
       id="polygon6249"
       points="1246.55,-366.01 1250.66,-371.682 1250.66,-371.682 1256.71,-362.985 " />
  </g>
  <g
     class="node"
     id="node24"
     transform="translate(4,800.992)">
    <title
       id="title6252">n22 (0.88 - 3)</title>
    <ellipse
       style="fill:none;stroke:#000000"
       sodipodi:ry="18"
       sodipodi:rx="59.590099"
       sodipodi:cy="-233.283"
       sodipodi:cx="1242.84"
       d="m 1302.4301,-233.283 c 0,9.94112 -26.6794,18 -59.5901,18 -32.9107,0 -59.5901,-8.05888 -59.5901,-18 0,-9.94113 26.6794,-18 59.5901,-18 32.9107,0 59.5901,8.05887 59.5901,18 z"
       id="ellipse6254"
       ry="18"
       rx="59.590099"
       cy="-233.283"
       cx="1242.84" />
    <text
       style="font-size:14px;text-anchor:middle;font-family:'Times,serif'"
       id="text6256"
       font-size="14.00"
       y="-229.58299"
       x="1242.84">n22 (0.88 - 3)</text>
  </g>
  <g
     class="edge"
     id="edge23"
     transform="translate(4,800.992)">
    <title
       id="title6259">n25 (0.75 - 13)-&gt;n22 (0.88 - 3)</title>
    <path
       style="fill:none;stroke:#000000"
       inkscape:connector-curvature="0"
       id="path6261"
       d="m 1273.22,-327.677 c -5.79,17.789 -14.88,45.744 -21.61,66.438" />
    <polygon
       style="fill:#000000;stroke:#000000"
       id="polygon6263"
       points="1248.19,-262.049 1254.85,-259.884 1254.85,-259.884 1248.43,-251.457 " />
  </g>
  <g
     class="node"
     id="node27"
     transform="translate(4,800.992)">
    <title
       id="title6266">n21 (0.89 - 10)</title>
    <ellipse
       style="fill:none;stroke:#000000"
       sodipodi:ry="18"
       sodipodi:rx="64.189003"
       sodipodi:cy="-233.283"
       sodipodi:cx="1506.84"
       d="m 1571.029,-233.283 c 0,9.94112 -28.7384,18 -64.189,18 -35.4506,0 -64.189,-8.05888 -64.189,-18 0,-9.94113 28.7384,-18 64.189,-18 35.4506,0 64.189,8.05887 64.189,18 z"
       id="ellipse6268"
       ry="18"
       rx="64.189003"
       cy="-233.283"
       cx="1506.84" />
    <text
       style="font-size:14px;text-anchor:middle;font-family:'Times,serif'"
       id="text6270"
       font-size="14.00"
       y="-229.58299"
       x="1506.84">n21 (0.89 - 10)</text>
  </g>
  <g
     class="edge"
     id="edge26"
     transform="translate(4,800.992)">
    <title
       id="title6273">n25 (0.75 - 13)-&gt;n21 (0.89 - 10)</title>
    <path
       style="fill:none;stroke:#000000"
       inkscape:connector-curvature="0"
       id="path6275"
       d="m 1309.59,-330.045 c 40.74,19.779 112.67,54.698 157.49,76.46" />
    <polygon
       style="fill:#000000;stroke:#000000"
       id="polygon6277"
       points="1465.69,-250.37 1468.75,-256.667 1468.75,-256.667 1476.22,-249.151 " />
  </g>
  <ellipse
     cx="1063.84"
     cy="-69.296501"
     rx="51.990799"
     ry="18"
     id="ellipse6282"
     d="m 1115.8308,-69.296501 c 0,9.941125 -23.2771,18 -51.9908,18 -28.7138,0 -51.9908,-8.058875 -51.9908,-18 0,-9.941126 23.277,-18 51.9908,-18 28.7137,0 51.9908,8.058874 51.9908,18 z"
     sodipodi:cx="1063.84"
     sodipodi:cy="-69.296501"
     sodipodi:rx="51.990799"
     sodipodi:ry="18"
     style="fill:#d5d5d5;stroke:#000000"
     transform="translate(4,800.992)" />
  <text
     x="1067.84"
     y="735.39551"
     font-size="14.00"
     id="text6284"
     style="font-size:14px;text-anchor:middle;font-family:'Times,serif'">KLOSGEN</text>
  <g
     class="edge"
     id="edge24"
     transform="translate(4,800.992)">
    <title
       id="title6287">n22 (0.88 - 3)-&gt;KLOSGEN</title>
    <path
       style="fill:none;stroke:#000000"
       inkscape:connector-curvature="0"
       id="path6289"
       d="m 1220.61,-216.413 c -24.43,17.84 -64.38,48.198 -95.77,77.82 -14.55,13.734 -29.54,30.474 -41.02,43.9436" />
    <polygon
       style="fill:#000000;stroke:#000000"
       id="polygon6291"
       points="1080.92,-96.6457 1086.28,-92.1374 1086.28,-92.1374 1077.16,-86.7417 " />
  </g>
  <ellipse
     cx="1242.84"
     cy="-69.296501"
     rx="108.789"
     ry="26.7407"
     id="ellipse6296"
     d="m 1351.629,-69.296501 c 0,14.768481 -48.7065,26.7407 -108.789,26.7407 -60.0825,0 -108.789,-11.972219 -108.789,-26.7407 0,-14.768481 48.7065,-26.7407 108.789,-26.7407 60.0825,0 108.789,11.972219 108.789,26.7407 z"
     sodipodi:cx="1242.84"
     sodipodi:cy="-69.296501"
     sodipodi:rx="108.789"
     sodipodi:ry="26.7407"
     style="fill:#aaffaa;stroke:#000000"
     transform="translate(4,800.992)" />
  <text
     x="1246.84"
     y="727.89551"
     font-size="14.00"
     id="text6298"
     style="font-size:14px;text-anchor:middle;font-family:'Times,serif'">GINI</text>
  <text
     x="1246.84"
     y="742.89551"
     font-size="14.00"
     id="text6300"
     style="font-size:14px;text-anchor:middle;font-family:'Times,serif'">IMPLICATION_INDEX</text>
  <g
     class="edge"
     id="edge25"
     transform="translate(4,800.992)">
    <title
       id="title6303">n22 (0.88 - 3)-&gt;GINI\nIMPLICATION_INDEX</title>
    <path
       style="fill:none;stroke:#000000"
       inkscape:connector-curvature="0"
       id="path6305"
       d="m 1242.84,-215.254 c 0,25.581 0,74.533 0,108.429" />
    <polygon
       style="fill:#000000;stroke:#000000"
       id="polygon6307"
       points="1239.34,-106.398 1246.34,-106.398 1246.34,-106.398 1242.84,-96.3976 " />
  </g>
  <ellipse
     cx="1506.84"
     cy="-69.296501"
     rx="137.358"
     ry="48.166698"
     id="ellipse6312"
     d="m 1644.198,-69.296501 c 0,26.601733 -61.4973,48.166698 -137.358,48.166698 -75.8608,0 -137.358,-21.564965 -137.358,-48.166698 0,-26.601733 61.4972,-48.166699 137.358,-48.166699 75.8607,0 137.358,21.564966 137.358,48.166699 z"
     sodipodi:cx="1506.84"
     sodipodi:cy="-69.296501"
     sodipodi:rx="137.358"
     sodipodi:ry="48.166698"
     style="fill:#ffffaa;stroke:#000000"
     transform="translate(4,800.992)" />
  <text
     x="1510.84"
     y="712.89551"
     font-size="14.00"
     id="text6314"
     style="font-size:14px;text-anchor:middle;font-family:'Times,serif'">LEVERAGE</text>
  <text
     x="1510.84"
     y="727.89551"
     font-size="14.00"
     id="text6316"
     style="font-size:14px;text-anchor:middle;font-family:'Times,serif'">COUNTER_EXAMPLE_RATE</text>
  <text
     x="1510.84"
     y="742.89551"
     font-size="14.00"
     id="text6318"
     style="font-size:14px;text-anchor:middle;font-family:'Times,serif'">SEBAG_SCHOENAUER</text>
  <text
     x="1510.84"
     y="757.89551"
     font-size="14.00"
     id="text6320"
     style="font-size:14px;text-anchor:middle;font-family:'Times,serif'">CONFIDENCE</text>
  <g
     class="edge"
     id="edge27"
     transform="translate(4,800.992)">
    <title
       id="title6323">n21 (0.89 - 10)-&gt;LEVERAGE\nCOUNTER_EXAMPLE_RATE\nSEBAG_SCHOENAUER\nCONFIDENCE</title>
    <path
       style="fill:none;stroke:#000000"
       inkscape:connector-curvature="0"
       id="path6325"
       d="m 1506.84,-215.254 c 0,20.654 0,56.542 0,87.441" />
    <polygon
       style="fill:#000000;stroke:#000000"
       id="polygon6327"
       points="1503.34,-127.555 1510.34,-127.555 1510.34,-127.555 1506.84,-117.555 " />
  </g>
  <ellipse
     cx="1788.84"
     cy="-69.296501"
     rx="126.644"
     ry="69.093498"
     id="ellipse6332"
     d="m 1915.484,-69.296501 c 0,38.159285 -56.7005,69.09349807 -126.644,69.09349807 -69.9436,0 -126.644,-30.93421307 -126.644,-69.09349807 0,-38.159289 56.7004,-69.093499 126.644,-69.093499 69.9435,0 126.644,30.93421 126.644,69.093499 z"
     sodipodi:cx="1788.84"
     sodipodi:cy="-69.296501"
     sodipodi:rx="126.644"
     sodipodi:ry="69.093498"
     style="fill:#ffffaa;stroke:#000000"
     transform="translate(4,800.992)" />
  <text
     x="1792.84"
     y="697.896"
     font-size="14.00"
     id="text6334"
     style="font-size:14px;text-anchor:middle;font-family:'Times,serif'">ONE_WAY_SUPPORT</text>
  <text
     x="1792.84"
     y="712.89551"
     font-size="14.00"
     id="text6336"
     style="font-size:14px;text-anchor:middle;font-family:'Times,serif'">CENTERED_CONFIDENCE</text>
  <text
     x="1792.84"
     y="727.89551"
     font-size="14.00"
     id="text6338"
     style="font-size:14px;text-anchor:middle;font-family:'Times,serif'">ADDED_VALUE</text>
  <text
     x="1792.84"
     y="742.89551"
     font-size="14.00"
     id="text6340"
     style="font-size:14px;text-anchor:middle;font-family:'Times,serif'">CERTAINTY_FACTOR</text>
  <text
     x="1792.84"
     y="757.89551"
     font-size="14.00"
     id="text6342"
     style="font-size:14px;text-anchor:middle;font-family:'Times,serif'">LOEVINGER</text>
  <text
     x="1792.84"
     y="772.89551"
     font-size="14.00"
     id="text6344"
     style="font-size:14px;text-anchor:middle;font-family:'Times,serif'">CONVICTION</text>
  <g
     class="edge"
     id="edge28"
     transform="translate(4,800.992)">
    <title
       id="title6347">n21 (0.89 - 10)-&gt;ONE_WAY_SUPPORT\nCENTERED_CONFIDENCE\nADDED_VALUE\nCERTAINTY_FACTOR\nLOEVINGER\nCONVICTION</title>
    <path
       style="fill:none;stroke:#000000"
       inkscape:connector-curvature="0"
       id="path6349"
       d="m 1533.62,-216.897 c 36.41,20.914 103.44,59.415 159.67,91.714" />
    <polygon
       style="fill:#000000;stroke:#000000"
       id="polygon6351"
       points="1691.8,-122.002 1695.29,-128.072 1695.29,-128.072 1702.21,-120.056 " />
  </g>
</svg>
