<?xml version="1.0" encoding="UTF-8" standalone="no"?>
<!DOCTYPE svg PUBLIC "-//W3C//DTD SVG 1.1//EN"
 "http://www.w3.org/Graphics/SVG/1.1/DTD/svg11.dtd">
<!-- Generated by graphviz version 2.38.0 (20140413.2041)
 -->
<!-- Title: dendrogram Pages: 1 -->
<svg width="1620pt" height="893pt"
 viewBox="0.00 0.00 1620.02 893.32" xmlns="http://www.w3.org/2000/svg" xmlns:xlink="http://www.w3.org/1999/xlink">
<g id="graph0" class="graph" transform="scale(1 1) rotate(0) translate(4 889.318)">
<title>dendrogram</title>
<polygon fill="white" stroke="none" points="-4,4 -4,-889.318 1616.02,-889.318 1616.02,4 -4,4"/>
<!-- n34 (0.21 &#45; 36) -->
<g id="node1" class="node"><title>n34 (0.21 &#45; 36)</title>
<ellipse fill="none" stroke="black" cx="652.84" cy="-867.318" rx="64.189" ry="18"/>
<text text-anchor="middle" x="652.84" y="-863.618" font-family="Times,serif" font-size="14.00">n34 (0.21 &#45; 36)</text>
</g>
<!-- n32 (0.58 &#45; 5) -->
<g id="node2" class="node"><title>n32 (0.58 &#45; 5)</title>
<ellipse fill="none" stroke="black" cx="499.84" cy="-795.318" rx="59.5901" ry="18"/>
<text text-anchor="middle" x="499.84" y="-791.618" font-family="Times,serif" font-size="14.00">n32 (0.58 &#45; 5)</text>
</g>
<!-- n34 (0.21 &#45; 36)&#45;&gt;n32 (0.58 &#45; 5) -->
<g id="edge1" class="edge"><title>n34 (0.21 &#45; 36)&#45;&gt;n32 (0.58 &#45; 5)</title>
<path fill="none" stroke="black" d="M620.766,-851.644C597.457,-840.979 565.725,-826.461 540.616,-814.973"/>
<polygon fill="black" stroke="black" points="541.897,-811.711 531.348,-810.733 538.985,-818.076 541.897,-811.711"/>
</g>
<!-- n33 (0.47 &#45; 31) -->
<g id="node9" class="node"><title>n33 (0.47 &#45; 31)</title>
<ellipse fill="none" stroke="black" cx="896.84" cy="-795.318" rx="64.189" ry="18"/>
<text text-anchor="middle" x="896.84" y="-791.618" font-family="Times,serif" font-size="14.00">n33 (0.47 &#45; 31)</text>
</g>
<!-- n34 (0.21 &#45; 36)&#45;&gt;n33 (0.47 &#45; 31) -->
<g id="edge8" class="edge"><title>n34 (0.21 &#45; 36)&#45;&gt;n33 (0.47 &#45; 31)</title>
<path fill="none" stroke="black" d="M696.181,-853.884C737.432,-842.05 799.597,-824.216 843.791,-811.537"/>
<polygon fill="black" stroke="black" points="844.845,-814.876 853.493,-808.754 842.915,-808.147 844.845,-814.876"/>
</g>
<!-- n26 (0.85 &#45; 2) -->
<g id="node3" class="node"><title>n26 (0.85 &#45; 2)</title>
<ellipse fill="none" stroke="black" cx="282.84" cy="-723.318" rx="59.5901" ry="18"/>
<text text-anchor="middle" x="282.84" y="-719.618" font-family="Times,serif" font-size="14.00">n26 (0.85 &#45; 2)</text>
</g>
<!-- n32 (0.58 &#45; 5)&#45;&gt;n26 (0.85 &#45; 2) -->
<g id="edge2" class="edge"><title>n32 (0.58 &#45; 5)&#45;&gt;n26 (0.85 &#45; 2)</title>
<path fill="none" stroke="black" d="M460.543,-781.641C424.401,-769.983 370.675,-752.652 331.765,-740.1"/>
<polygon fill="black" stroke="black" points="332.803,-736.757 322.211,-737.018 330.654,-743.419 332.803,-736.757"/>
</g>
<!-- n31 (0.64 &#45; 3) -->
<g id="node6" class="node"><title>n31 (0.64 &#45; 3)</title>
<ellipse fill="none" stroke="black" cx="499.84" cy="-723.318" rx="59.5901" ry="18"/>
<text text-anchor="middle" x="499.84" y="-719.618" font-family="Times,serif" font-size="14.00">n31 (0.64 &#45; 3)</text>
</g>
<!-- n32 (0.58 &#45; 5)&#45;&gt;n31 (0.64 &#45; 3) -->
<g id="edge5" class="edge"><title>n32 (0.58 &#45; 5)&#45;&gt;n31 (0.64 &#45; 3)</title>
<path fill="none" stroke="black" d="M499.84,-777.015C499.84,-769.301 499.84,-760.03 499.84,-751.43"/>
<polygon fill="black" stroke="black" points="503.34,-751.422 499.84,-741.422 496.34,-751.422 503.34,-751.422"/>
</g>
<!-- COLLECTIVE_STRENGH -->
<g id="node4" class="node"><title>COLLECTIVE_STRENGH</title>
<ellipse fill="none" stroke="black" cx="109.84" cy="-472.742" rx="109.681" ry="18"/>
<text text-anchor="middle" x="109.84" y="-469.042" font-family="Times,serif" font-size="14.00">COLLECTIVE_STRENGH</text>
</g>
<!-- n26 (0.85 &#45; 2)&#45;&gt;COLLECTIVE_STRENGH -->
<g id="edge3" class="edge"><title>n26 (0.85 &#45; 2)&#45;&gt;COLLECTIVE_STRENGH</title>
<path fill="none" stroke="black" d="M264.186,-706.161C253.213,-696.154 239.454,-682.696 228.84,-669.318 184.206,-613.058 143.296,-538.786 123.089,-499.955"/>
<polygon fill="black" stroke="black" points="126.102,-498.162 118.408,-490.879 119.881,-501.371 126.102,-498.162"/>
</g>
<!-- RECALL -->
<g id="node5" class="node"><title>RECALL</title>
<ellipse fill="none" stroke="black" cx="282.84" cy="-472.742" rx="44.6926" ry="18"/>
<text text-anchor="middle" x="282.84" y="-469.042" font-family="Times,serif" font-size="14.00">RECALL</text>
</g>
<!-- n26 (0.85 &#45; 2)&#45;&gt;RECALL -->
<g id="edge4" class="edge"><title>n26 (0.85 &#45; 2)&#45;&gt;RECALL</title>
<path fill="none" stroke="black" d="M282.84,-705.232C282.84,-662.837 282.84,-552.53 282.84,-501.005"/>
<polygon fill="black" stroke="black" points="286.34,-500.947 282.84,-490.947 279.34,-500.947 286.34,-500.947"/>
</g>
<!-- KLOSGEN -->
<g id="node7" class="node"><title>KLOSGEN</title>
<ellipse fill="none" stroke="black" cx="397.84" cy="-472.742" rx="51.9908" ry="18"/>
<text text-anchor="middle" x="397.84" y="-469.042" font-family="Times,serif" font-size="14.00">KLOSGEN</text>
</g>
<!-- n31 (0.64 &#45; 3)&#45;&gt;KLOSGEN -->
<g id="edge6" class="edge"><title>n31 (0.64 &#45; 3)&#45;&gt;KLOSGEN</title>
<path fill="none" stroke="black" d="M484.501,-705.722C475.971,-695.773 465.721,-682.523 458.84,-669.318 429.394,-612.809 411.287,-539.608 403.07,-500.754"/>
<polygon fill="black" stroke="black" points="406.455,-499.839 401.013,-490.748 399.598,-501.248 406.455,-499.839"/>
</g>
<!-- PIATETSKY_SHAPIRO\nSPECIFICITY -->
<g id="node8" class="node"><title>PIATETSKY_SHAPIRO\nSPECIFICITY</title>
<ellipse fill="none" stroke="black" cx="577.84" cy="-472.742" rx="109.703" ry="26.7407"/>
<text text-anchor="middle" x="577.84" y="-476.542" font-family="Times,serif" font-size="14.00">PIATETSKY_SHAPIRO</text>
<text text-anchor="middle" x="577.84" y="-461.542" font-family="Times,serif" font-size="14.00">SPECIFICITY</text>
</g>
<!-- n31 (0.64 &#45; 3)&#45;&gt;PIATETSKY_SHAPIRO\nSPECIFICITY -->
<g id="edge7" class="edge"><title>n31 (0.64 &#45; 3)&#45;&gt;PIATETSKY_SHAPIRO\nSPECIFICITY</title>
<path fill="none" stroke="black" d="M505.202,-705.232C517.838,-664.96 549.704,-563.41 566.722,-509.174"/>
<polygon fill="black" stroke="black" points="570.065,-510.212 569.719,-499.622 563.386,-508.116 570.065,-510.212"/>
</g>
<!-- n30 (0.69 &#45; 11) -->
<g id="node10" class="node"><title>n30 (0.69 &#45; 11)</title>
<ellipse fill="none" stroke="black" cx="896.84" cy="-723.318" rx="64.189" ry="18"/>
<text text-anchor="middle" x="896.84" y="-719.618" font-family="Times,serif" font-size="14.00">n30 (0.69 &#45; 11)</text>
</g>
<!-- n33 (0.47 &#45; 31)&#45;&gt;n30 (0.69 &#45; 11) -->
<g id="edge9" class="edge"><title>n33 (0.47 &#45; 31)&#45;&gt;n30 (0.69 &#45; 11)</title>
<path fill="none" stroke="black" d="M896.84,-777.015C896.84,-769.301 896.84,-760.03 896.84,-751.43"/>
<polygon fill="black" stroke="black" points="900.34,-751.422 896.84,-741.422 893.34,-751.422 900.34,-751.422"/>
</g>
<!-- n27 (0.81 &#45; 20) -->
<g id="node21" class="node"><title>n27 (0.81 &#45; 20)</title>
<ellipse fill="none" stroke="black" cx="1194.84" cy="-723.318" rx="64.189" ry="18"/>
<text text-anchor="middle" x="1194.84" y="-719.618" font-family="Times,serif" font-size="14.00">n27 (0.81 &#45; 20)</text>
</g>
<!-- n33 (0.47 &#45; 31)&#45;&gt;n27 (0.81 &#45; 20) -->
<g id="edge20" class="edge"><title>n33 (0.47 &#45; 31)&#45;&gt;n27 (0.81 &#45; 20)</title>
<path fill="none" stroke="black" d="M944.389,-783.149C996.784,-770.841 1081.05,-751.046 1137.18,-737.863"/>
<polygon fill="black" stroke="black" points="1138.03,-741.257 1146.97,-735.563 1136.43,-734.443 1138.03,-741.257"/>
</g>
<!-- TWO_WAY_SUPPORT -->
<g id="node11" class="node"><title>TWO_WAY_SUPPORT</title>
<ellipse fill="none" stroke="black" cx="805.84" cy="-472.742" rx="100.182" ry="18"/>
<text text-anchor="middle" x="805.84" y="-469.042" font-family="Times,serif" font-size="14.00">TWO_WAY_SUPPORT</text>
</g>
<!-- n30 (0.69 &#45; 11)&#45;&gt;TWO_WAY_SUPPORT -->
<g id="edge10" class="edge"><title>n30 (0.69 &#45; 11)&#45;&gt;TWO_WAY_SUPPORT</title>
<path fill="none" stroke="black" d="M890.585,-705.232C875,-662.66 834.345,-551.606 815.585,-500.361"/>
<polygon fill="black" stroke="black" points="818.863,-499.135 812.139,-490.947 812.29,-501.541 818.863,-499.135"/>
</g>
<!-- n29 (0.76 &#45; 10) -->
<g id="node12" class="node"><title>n29 (0.76 &#45; 10)</title>
<ellipse fill="none" stroke="black" cx="987.84" cy="-472.742" rx="64.189" ry="18"/>
<text text-anchor="middle" x="987.84" y="-469.042" font-family="Times,serif" font-size="14.00">n29 (0.76 &#45; 10)</text>
</g>
<!-- n30 (0.69 &#45; 11)&#45;&gt;n29 (0.76 &#45; 10) -->
<g id="edge11" class="edge"><title>n30 (0.69 &#45; 11)&#45;&gt;n29 (0.76 &#45; 10)</title>
<path fill="none" stroke="black" d="M903.095,-705.232C918.68,-662.66 959.335,-551.606 978.096,-500.361"/>
<polygon fill="black" stroke="black" points="981.391,-501.541 981.542,-490.947 974.817,-499.135 981.391,-501.541"/>
</g>
<!-- n24 (0.87 &#45; 2) -->
<g id="node13" class="node"><title>n24 (0.87 &#45; 2)</title>
<ellipse fill="none" stroke="black" cx="918.84" cy="-222.167" rx="59.5901" ry="18"/>
<text text-anchor="middle" x="918.84" y="-218.467" font-family="Times,serif" font-size="14.00">n24 (0.87 &#45; 2)</text>
</g>
<!-- n29 (0.76 &#45; 10)&#45;&gt;n24 (0.87 &#45; 2) -->
<g id="edge12" class="edge"><title>n29 (0.76 &#45; 10)&#45;&gt;n24 (0.87 &#45; 2)</title>
<path fill="none" stroke="black" d="M983.098,-454.657C971.305,-412.173 940.582,-301.493 926.318,-250.106"/>
<polygon fill="black" stroke="black" points="929.663,-249.071 923.616,-240.372 922.918,-250.944 929.663,-249.071"/>
</g>
<!-- n28 (0.80 &#45; 8) -->
<g id="node16" class="node"><title>n28 (0.80 &#45; 8)</title>
<ellipse fill="none" stroke="black" cx="1056.84" cy="-222.167" rx="59.5901" ry="18"/>
<text text-anchor="middle" x="1056.84" y="-218.467" font-family="Times,serif" font-size="14.00">n28 (0.80 &#45; 8)</text>
</g>
<!-- n29 (0.76 &#45; 10)&#45;&gt;n28 (0.80 &#45; 8) -->
<g id="edge15" class="edge"><title>n29 (0.76 &#45; 10)&#45;&gt;n28 (0.80 &#45; 8)</title>
<path fill="none" stroke="black" d="M992.583,-454.657C1004.38,-412.173 1035.1,-301.493 1049.36,-250.106"/>
<polygon fill="black" stroke="black" points="1052.76,-250.944 1052.06,-240.372 1046.02,-249.071 1052.76,-250.944"/>
</g>
<!-- JACCARD -->
<g id="node14" class="node"><title>JACCARD</title>
<ellipse fill="none" stroke="black" cx="820.84" cy="-150.167" rx="50.8918" ry="18"/>
<text text-anchor="middle" x="820.84" y="-146.467" font-family="Times,serif" font-size="14.00">JACCARD</text>
</g>
<!-- n24 (0.87 &#45; 2)&#45;&gt;JACCARD -->
<g id="edge13" class="edge"><title>n24 (0.87 &#45; 2)&#45;&gt;JACCARD</title>
<path fill="none" stroke="black" d="M896.603,-205.282C883.007,-195.571 865.446,-183.027 850.654,-172.462"/>
<polygon fill="black" stroke="black" points="852.488,-169.471 842.316,-166.507 848.419,-175.167 852.488,-169.471"/>
</g>
<!-- KAPPA -->
<g id="node15" class="node"><title>KAPPA</title>
<ellipse fill="none" stroke="black" cx="928.84" cy="-150.167" rx="39.7935" ry="18"/>
<text text-anchor="middle" x="928.84" y="-146.467" font-family="Times,serif" font-size="14.00">KAPPA</text>
</g>
<!-- n24 (0.87 &#45; 2)&#45;&gt;KAPPA -->
<g id="edge14" class="edge"><title>n24 (0.87 &#45; 2)&#45;&gt;KAPPA</title>
<path fill="none" stroke="black" d="M921.312,-203.863C922.414,-196.149 923.738,-186.879 924.967,-178.279"/>
<polygon fill="black" stroke="black" points="928.447,-178.665 926.397,-168.271 921.518,-177.675 928.447,-178.665"/>
</g>
<!-- COSINE -->
<g id="node17" class="node"><title>COSINE</title>
<ellipse fill="none" stroke="black" cx="1047.84" cy="-150.167" rx="42.4939" ry="18"/>
<text text-anchor="middle" x="1047.84" y="-146.467" font-family="Times,serif" font-size="14.00">COSINE</text>
</g>
<!-- n28 (0.80 &#45; 8)&#45;&gt;COSINE -->
<g id="edge16" class="edge"><title>n28 (0.80 &#45; 8)&#45;&gt;COSINE</title>
<path fill="none" stroke="black" d="M1054.62,-203.863C1053.62,-196.149 1052.43,-186.879 1051.33,-178.279"/>
<polygon fill="black" stroke="black" points="1054.79,-177.743 1050.04,-168.271 1047.84,-178.636 1054.79,-177.743"/>
</g>
<!-- n25 (0.87 &#45; 7) -->
<g id="node18" class="node"><title>n25 (0.87 &#45; 7)</title>
<ellipse fill="none" stroke="black" cx="1167.84" cy="-150.167" rx="59.5901" ry="18"/>
<text text-anchor="middle" x="1167.84" y="-146.467" font-family="Times,serif" font-size="14.00">n25 (0.87 &#45; 7)</text>
</g>
<!-- n28 (0.80 &#45; 8)&#45;&gt;n25 (0.87 &#45; 7) -->
<g id="edge17" class="edge"><title>n28 (0.80 &#45; 8)&#45;&gt;n25 (0.87 &#45; 7)</title>
<path fill="none" stroke="black" d="M1081.47,-205.631C1097.14,-195.753 1117.61,-182.842 1134.69,-172.069"/>
<polygon fill="black" stroke="black" points="1136.68,-174.953 1143.27,-166.658 1132.95,-169.032 1136.68,-174.953"/>
</g>
<!-- J_MEASURE\nTWO_WAY_SUPPORT_VARIATION\nFISHER_PVAL -->
<g id="node19" class="node"><title>J_MEASURE\nTWO_WAY_SUPPORT_VARIATION\nFISHER_PVAL</title>
<ellipse fill="none" stroke="black" cx="1020.84" cy="-48.0833" rx="166.754" ry="37.4533"/>
<text text-anchor="middle" x="1020.84" y="-59.3833" font-family="Times,serif" font-size="14.00">J_MEASURE</text>
<text text-anchor="middle" x="1020.84" y="-44.3833" font-family="Times,serif" font-size="14.00">TWO_WAY_SUPPORT_VARIATION</text>
<text text-anchor="middle" x="1020.84" y="-29.3833" font-family="Times,serif" font-size="14.00">FISHER_PVAL</text>
</g>
<!-- n25 (0.87 &#45; 7)&#45;&gt;J_MEASURE\nTWO_WAY_SUPPORT_VARIATION\nFISHER_PVAL -->
<g id="edge18" class="edge"><title>n25 (0.87 &#45; 7)&#45;&gt;J_MEASURE\nTWO_WAY_SUPPORT_VARIATION\nFISHER_PVAL</title>
<path fill="none" stroke="black" d="M1144.87,-133.529C1127.54,-121.728 1102.94,-104.981 1080.22,-89.5081"/>
<polygon fill="black" stroke="black" points="1082.18,-86.6116 1071.94,-83.8768 1078.24,-92.3978 1082.18,-86.6116"/>
</g>
<!-- IMPLICATION_INDEX\nPHI\nGINI\nCHI_SQUARE -->
<g id="node20" class="node"><title>IMPLICATION_INDEX\nPHI\nGINI\nCHI_SQUARE</title>
<ellipse fill="none" stroke="black" cx="1314.84" cy="-48.0833" rx="108.789" ry="48.1667"/>
<text text-anchor="middle" x="1314.84" y="-66.8833" font-family="Times,serif" font-size="14.00">IMPLICATION_INDEX</text>
<text text-anchor="middle" x="1314.84" y="-51.8833" font-family="Times,serif" font-size="14.00">PHI</text>
<text text-anchor="middle" x="1314.84" y="-36.8833" font-family="Times,serif" font-size="14.00">GINI</text>
<text text-anchor="middle" x="1314.84" y="-21.8833" font-family="Times,serif" font-size="14.00">CHI_SQUARE</text>
</g>
<!-- n25 (0.87 &#45; 7)&#45;&gt;IMPLICATION_INDEX\nPHI\nGINI\nCHI_SQUARE -->
<g id="edge19" class="edge"><title>n25 (0.87 &#45; 7)&#45;&gt;IMPLICATION_INDEX\nPHI\nGINI\nCHI_SQUARE</title>
<path fill="none" stroke="black" d="M1190.81,-133.529C1206.28,-122.995 1227.54,-108.519 1248.09,-94.5269"/>
<polygon fill="black" stroke="black" points="1250.23,-97.3036 1256.53,-88.7826 1246.3,-91.5173 1250.23,-97.3036"/>
</g>
<!-- LEAST_CONTRADICTION\nACCURACY -->
<g id="node22" class="node"><title>LEAST_CONTRADICTION\nACCURACY</title>
<ellipse fill="none" stroke="black" cx="1194.84" cy="-472.742" rx="124.402" ry="26.7407"/>
<text text-anchor="middle" x="1194.84" y="-476.542" font-family="Times,serif" font-size="14.00">LEAST_CONTRADICTION</text>
<text text-anchor="middle" x="1194.84" y="-461.542" font-family="Times,serif" font-size="14.00">ACCURACY</text>
</g>
<!-- n27 (0.81 &#45; 20)&#45;&gt;LEAST_CONTRADICTION\nACCURACY -->
<g id="edge21" class="edge"><title>n27 (0.81 &#45; 20)&#45;&gt;LEAST_CONTRADICTION\nACCURACY</title>
<path fill="none" stroke="black" d="M1194.84,-705.232C1194.84,-665.128 1194.84,-564.252 1194.84,-509.851"/>
<polygon fill="black" stroke="black" points="1198.34,-509.622 1194.84,-499.622 1191.34,-509.623 1198.34,-509.622"/>
</g>
<!-- RELATIVE_RISK\nYULE_Y\nYULE_Q\nODDS_RATIO\nLEVERAGE\nONE_WAY_SUPPORT\nCONVICTION\nLOEVINGER\nSEBAG_SCHOENAUER\nODD_MULTIPLIER\nCOUNTER_EXAMPLE_RATE\nZHANG\nBAYES\nCENTERED_CONFIDENCE\nCERTAINTY_FACTOR\nADDED_VALUE\nLIFT\nCONFIDENCE -->
<g id="node23" class="node"><title>RELATIVE_RISK\nYULE_Y\nYULE_Q\nODDS_RATIO\nLEVERAGE\nONE_WAY_SUPPORT\nCONVICTION\nLOEVINGER\nSEBAG_SCHOENAUER\nODD_MULTIPLIER\nCOUNTER_EXAMPLE_RATE\nZHANG\nBAYES\nCENTERED_CONFIDENCE\nCERTAINTY_FACTOR\nADDED_VALUE\nLIFT\nCONFIDENCE</title>
<ellipse fill="none" stroke="black" cx="1474.84" cy="-472.742" rx="137.358" ry="196.651"/>
<text text-anchor="middle" x="1474.84" y="-596.542" font-family="Times,serif" font-size="14.00">RELATIVE_RISK</text>
<text text-anchor="middle" x="1474.84" y="-581.542" font-family="Times,serif" font-size="14.00">YULE_Y</text>
<text text-anchor="middle" x="1474.84" y="-566.542" font-family="Times,serif" font-size="14.00">YULE_Q</text>
<text text-anchor="middle" x="1474.84" y="-551.542" font-family="Times,serif" font-size="14.00">ODDS_RATIO</text>
<text text-anchor="middle" x="1474.84" y="-536.542" font-family="Times,serif" font-size="14.00">LEVERAGE</text>
<text text-anchor="middle" x="1474.84" y="-521.542" font-family="Times,serif" font-size="14.00">ONE_WAY_SUPPORT</text>
<text text-anchor="middle" x="1474.84" y="-506.542" font-family="Times,serif" font-size="14.00">CONVICTION</text>
<text text-anchor="middle" x="1474.84" y="-491.542" font-family="Times,serif" font-size="14.00">LOEVINGER</text>
<text text-anchor="middle" x="1474.84" y="-476.542" font-family="Times,serif" font-size="14.00">SEBAG_SCHOENAUER</text>
<text text-anchor="middle" x="1474.84" y="-461.542" font-family="Times,serif" font-size="14.00">ODD_MULTIPLIER</text>
<text text-anchor="middle" x="1474.84" y="-446.542" font-family="Times,serif" font-size="14.00">COUNTER_EXAMPLE_RATE</text>
<text text-anchor="middle" x="1474.84" y="-431.542" font-family="Times,serif" font-size="14.00">ZHANG</text>
<text text-anchor="middle" x="1474.84" y="-416.542" font-family="Times,serif" font-size="14.00">BAYES</text>
<text text-anchor="middle" x="1474.84" y="-401.542" font-family="Times,serif" font-size="14.00">CENTERED_CONFIDENCE</text>
<text text-anchor="middle" x="1474.84" y="-386.542" font-family="Times,serif" font-size="14.00">CERTAINTY_FACTOR</text>
<text text-anchor="middle" x="1474.84" y="-371.542" font-family="Times,serif" font-size="14.00">ADDED_VALUE</text>
<text text-anchor="middle" x="1474.84" y="-356.542" font-family="Times,serif" font-size="14.00">LIFT</text>
<text text-anchor="middle" x="1474.84" y="-341.542" font-family="Times,serif" font-size="14.00">CONFIDENCE</text>
</g>
<!-- n27 (0.81 &#45; 20)&#45;&gt;RELATIVE_RISK\nYULE_Y\nYULE_Q\nODDS_RATIO\nLEVERAGE\nONE_WAY_SUPPORT\nCONVICTION\nLOEVINGER\nSEBAG_SCHOENAUER\nODD_MULTIPLIER\nCOUNTER_EXAMPLE_RATE\nZHANG\nBAYES\nCENTERED_CONFIDENCE\nCERTAINTY_FACTOR\nADDED_VALUE\nLIFT\nCONFIDENCE -->
<g id="edge22" class="edge"><title>n27 (0.81 &#45; 20)&#45;&gt;RELATIVE_RISK\nYULE_Y\nYULE_Q\nODDS_RATIO\nLEVERAGE\nONE_WAY_SUPPORT\nCONVICTION\nLOEVINGER\nSEBAG_SCHOENAUER\nODD_MULTIPLIER\nCOUNTER_EXAMPLE_RATE\nZHANG\nBAYES\nCENTERED_CONFIDENCE\nCERTAINTY_FACTOR\nADDED_VALUE\nLIFT\nCONFIDENCE</title>
<path fill="none" stroke="black" d="M1241.13,-710.702C1268.27,-702.304 1302.17,-688.943 1327.84,-669.318 1344.67,-656.454 1360.51,-641.182 1375.13,-624.927"/>
<polygon fill="black" stroke="black" points="1377.78,-627.214 1381.75,-617.394 1372.52,-622.591 1377.78,-627.214"/>
</g>
</g>
</svg>
