<?xml version="1.0" encoding="UTF-8" standalone="no"?>
<!DOCTYPE svg PUBLIC "-//W3C//DTD SVG 1.1//EN"
 "http://www.w3.org/Graphics/SVG/1.1/DTD/svg11.dtd">
<!-- Generated by graphviz version 2.38.0 (20140413.2041)
 -->
<!-- Title: dendrogram Pages: 1 -->
<svg width="2081pt" height="1026pt"
 viewBox="0.00 0.00 2081.43 1025.88" xmlns="http://www.w3.org/2000/svg" xmlns:xlink="http://www.w3.org/1999/xlink">
<g id="graph0" class="graph" transform="scale(1 1) rotate(0) translate(4 1021.88)">
<title>dendrogram</title>
<polygon fill="white" stroke="none" points="-4,4 -4,-1021.88 2077.43,-1021.88 2077.43,4 -4,4"/>
<!-- n34 (0.00 &#45; 36) -->
<g id="node1" class="node"><title>n34 (0.00 &#45; 36)</title>
<ellipse fill="none" stroke="black" cx="449.187" cy="-999.879" rx="64.189" ry="18"/>
<text text-anchor="middle" x="449.187" y="-996.179" font-family="Times,serif" font-size="14.00">n34 (0.00 &#45; 36)</text>
</g>
<!-- n30 (0.02 &#45; 6) -->
<g id="node2" class="node"><title>n30 (0.02 &#45; 6)</title>
<ellipse fill="none" stroke="black" cx="294.187" cy="-927.879" rx="59.5901" ry="18"/>
<text text-anchor="middle" x="294.187" y="-924.179" font-family="Times,serif" font-size="14.00">n30 (0.02 &#45; 6)</text>
</g>
<!-- n34 (0.00 &#45; 36)&#45;&gt;n30 (0.02 &#45; 6) -->
<g id="edge1" class="edge"><title>n34 (0.00 &#45; 36)&#45;&gt;n30 (0.02 &#45; 6)</title>
<path fill="none" stroke="black" d="M416.694,-984.205C393.001,-973.505 360.719,-958.926 335.242,-947.42"/>
<polygon fill="black" stroke="black" points="336.397,-944.101 325.842,-943.175 333.515,-950.481 336.397,-944.101"/>
</g>
<!-- n33 (0.00 &#45; 30) -->
<g id="node9" class="node"><title>n33 (0.00 &#45; 30)</title>
<ellipse fill="none" stroke="black" cx="527.187" cy="-927.879" rx="64.189" ry="18"/>
<text text-anchor="middle" x="527.187" y="-924.179" font-family="Times,serif" font-size="14.00">n33 (0.00 &#45; 30)</text>
</g>
<!-- n34 (0.00 &#45; 36)&#45;&gt;n33 (0.00 &#45; 30) -->
<g id="edge8" class="edge"><title>n34 (0.00 &#45; 36)&#45;&gt;n33 (0.00 &#45; 30)</title>
<path fill="none" stroke="black" d="M467.672,-982.29C477.678,-973.311 490.201,-962.072 501.176,-952.223"/>
<polygon fill="black" stroke="black" points="503.73,-954.633 508.835,-945.349 499.055,-949.424 503.73,-954.633"/>
</g>
<!-- LOEVINGER\nCONVICTION\nCERTAINTY_FACTOR -->
<g id="node3" class="node"><title>LOEVINGER\nCONVICTION\nCERTAINTY_FACTOR</title>
<ellipse fill="none" stroke="black" cx="108.187" cy="-836.403" rx="108.375" ry="37.4533"/>
<text text-anchor="middle" x="108.187" y="-847.703" font-family="Times,serif" font-size="14.00">LOEVINGER</text>
<text text-anchor="middle" x="108.187" y="-832.703" font-family="Times,serif" font-size="14.00">CONVICTION</text>
<text text-anchor="middle" x="108.187" y="-817.703" font-family="Times,serif" font-size="14.00">CERTAINTY_FACTOR</text>
</g>
<!-- n30 (0.02 &#45; 6)&#45;&gt;LOEVINGER\nCONVICTION\nCERTAINTY_FACTOR -->
<g id="edge2" class="edge"><title>n30 (0.02 &#45; 6)&#45;&gt;LOEVINGER\nCONVICTION\nCERTAINTY_FACTOR</title>
<path fill="none" stroke="black" d="M263.889,-912.304C241.039,-901.312 208.736,-885.772 179.471,-871.694"/>
<polygon fill="black" stroke="black" points="180.621,-868.364 170.092,-867.182 177.587,-874.672 180.621,-868.364"/>
</g>
<!-- n22 (0.61 &#45; 3) -->
<g id="node4" class="node"><title>n22 (0.61 &#45; 3)</title>
<ellipse fill="none" stroke="black" cx="294.187" cy="-836.403" rx="59.5901" ry="18"/>
<text text-anchor="middle" x="294.187" y="-832.703" font-family="Times,serif" font-size="14.00">n22 (0.61 &#45; 3)</text>
</g>
<!-- n30 (0.02 &#45; 6)&#45;&gt;n22 (0.61 &#45; 3) -->
<g id="edge3" class="edge"><title>n30 (0.02 &#45; 6)&#45;&gt;n22 (0.61 &#45; 3)</title>
<path fill="none" stroke="black" d="M294.187,-909.627C294.187,-896.878 294.187,-879.265 294.187,-864.625"/>
<polygon fill="black" stroke="black" points="297.687,-864.602 294.187,-854.602 290.687,-864.602 297.687,-864.602"/>
</g>
<!-- ONE_WAY_SUPPORT -->
<g id="node5" class="node"><title>ONE_WAY_SUPPORT</title>
<ellipse fill="none" stroke="black" cx="119.187" cy="-672.416" rx="97.4827" ry="18"/>
<text text-anchor="middle" x="119.187" y="-668.716" font-family="Times,serif" font-size="14.00">ONE_WAY_SUPPORT</text>
</g>
<!-- n22 (0.61 &#45; 3)&#45;&gt;ONE_WAY_SUPPORT -->
<g id="edge4" class="edge"><title>n22 (0.61 &#45; 3)&#45;&gt;ONE_WAY_SUPPORT</title>
<path fill="none" stroke="black" d="M276.444,-818.979C245.342,-790.19 180.872,-730.514 144.888,-697.206"/>
<polygon fill="black" stroke="black" points="146.955,-694.35 137.239,-690.126 142.2,-699.487 146.955,-694.35"/>
</g>
<!-- n17 (0.80 &#45; 2) -->
<g id="node6" class="node"><title>n17 (0.80 &#45; 2)</title>
<ellipse fill="none" stroke="black" cx="294.187" cy="-672.416" rx="59.5901" ry="18"/>
<text text-anchor="middle" x="294.187" y="-668.716" font-family="Times,serif" font-size="14.00">n17 (0.80 &#45; 2)</text>
</g>
<!-- n22 (0.61 &#45; 3)&#45;&gt;n17 (0.80 &#45; 2) -->
<g id="edge5" class="edge"><title>n22 (0.61 &#45; 3)&#45;&gt;n17 (0.80 &#45; 2)</title>
<path fill="none" stroke="black" d="M294.187,-818.373C294.187,-790.374 294.187,-734.374 294.187,-700.766"/>
<polygon fill="black" stroke="black" points="297.687,-700.705 294.187,-690.705 290.687,-700.705 297.687,-700.705"/>
</g>
<!-- CENTERED_CONFIDENCE -->
<g id="node7" class="node"><title>CENTERED_CONFIDENCE</title>
<ellipse fill="none" stroke="black" cx="142.187" cy="-497.823" rx="116.18" ry="18"/>
<text text-anchor="middle" x="142.187" y="-494.123" font-family="Times,serif" font-size="14.00">CENTERED_CONFIDENCE</text>
</g>
<!-- n17 (0.80 &#45; 2)&#45;&gt;CENTERED_CONFIDENCE -->
<g id="edge6" class="edge"><title>n17 (0.80 &#45; 2)&#45;&gt;CENTERED_CONFIDENCE</title>
<path fill="none" stroke="black" d="M282.329,-654.746C269.042,-636.382 246.555,-606.229 225.187,-581.907 206.867,-561.052 184.557,-538.88 167.683,-522.691"/>
<polygon fill="black" stroke="black" points="170.001,-520.064 160.347,-515.7 165.171,-525.132 170.001,-520.064"/>
</g>
<!-- ADDED_VALUE -->
<g id="node8" class="node"><title>ADDED_VALUE</title>
<ellipse fill="none" stroke="black" cx="352.187" cy="-497.823" rx="75.2868" ry="18"/>
<text text-anchor="middle" x="352.187" y="-494.123" font-family="Times,serif" font-size="14.00">ADDED_VALUE</text>
</g>
<!-- n17 (0.80 &#45; 2)&#45;&gt;ADDED_VALUE -->
<g id="edge7" class="edge"><title>n17 (0.80 &#45; 2)&#45;&gt;ADDED_VALUE</title>
<path fill="none" stroke="black" d="M299.961,-654.236C310.079,-624.126 331.085,-561.618 343.146,-525.727"/>
<polygon fill="black" stroke="black" points="346.57,-526.528 346.437,-515.934 339.934,-524.298 346.57,-526.528"/>
</g>
<!-- n27 (0.11 &#45; 9) -->
<g id="node10" class="node"><title>n27 (0.11 &#45; 9)</title>
<ellipse fill="none" stroke="black" cx="527.187" cy="-836.403" rx="59.5901" ry="18"/>
<text text-anchor="middle" x="527.187" y="-832.703" font-family="Times,serif" font-size="14.00">n27 (0.11 &#45; 9)</text>
</g>
<!-- n33 (0.00 &#45; 30)&#45;&gt;n27 (0.11 &#45; 9) -->
<g id="edge9" class="edge"><title>n33 (0.00 &#45; 30)&#45;&gt;n27 (0.11 &#45; 9)</title>
<path fill="none" stroke="black" d="M527.187,-909.627C527.187,-896.878 527.187,-879.265 527.187,-864.625"/>
<polygon fill="black" stroke="black" points="530.687,-864.602 527.187,-854.602 523.687,-864.602 530.687,-864.602"/>
</g>
<!-- n32 (0.00 &#45; 21) -->
<g id="node13" class="node"><title>n32 (0.00 &#45; 21)</title>
<ellipse fill="none" stroke="black" cx="778.187" cy="-836.403" rx="64.189" ry="18"/>
<text text-anchor="middle" x="778.187" y="-832.703" font-family="Times,serif" font-size="14.00">n32 (0.00 &#45; 21)</text>
</g>
<!-- n33 (0.00 &#45; 30)&#45;&gt;n32 (0.00 &#45; 21) -->
<g id="edge12" class="edge"><title>n33 (0.00 &#45; 30)&#45;&gt;n32 (0.00 &#45; 21)</title>
<path fill="none" stroke="black" d="M565.309,-913.29C609.573,-897.51 682.627,-871.468 730.583,-854.373"/>
<polygon fill="black" stroke="black" points="731.875,-857.628 740.119,-850.973 729.524,-851.034 731.875,-857.628"/>
</g>
<!-- ACCURACY -->
<g id="node11" class="node"><title>ACCURACY</title>
<ellipse fill="none" stroke="black" cx="432.187" cy="-672.416" rx="59.5901" ry="18"/>
<text text-anchor="middle" x="432.187" y="-668.716" font-family="Times,serif" font-size="14.00">ACCURACY</text>
</g>
<!-- n27 (0.11 &#45; 9)&#45;&gt;ACCURACY -->
<g id="edge10" class="edge"><title>n27 (0.11 &#45; 9)&#45;&gt;ACCURACY</title>
<path fill="none" stroke="black" d="M517.2,-818.373C500.479,-789.862 466.73,-732.316 447.159,-698.945"/>
<polygon fill="black" stroke="black" points="450.119,-697.073 442.041,-690.217 444.08,-700.614 450.119,-697.073"/>
</g>
<!-- YULE_Y\nYULE_Q\nODDS_RATIO\nRELATIVE_RISK\nODD_MULTIPLIER\nZHANG\nBAYES\nLIFT -->
<g id="node12" class="node"><title>YULE_Y\nYULE_Q\nODDS_RATIO\nRELATIVE_RISK\nODD_MULTIPLIER\nZHANG\nBAYES\nLIFT</title>
<ellipse fill="none" stroke="black" cx="605.187" cy="-672.416" rx="94.5053" ry="90.5193"/>
<text text-anchor="middle" x="605.187" y="-721.216" font-family="Times,serif" font-size="14.00">YULE_Y</text>
<text text-anchor="middle" x="605.187" y="-706.216" font-family="Times,serif" font-size="14.00">YULE_Q</text>
<text text-anchor="middle" x="605.187" y="-691.216" font-family="Times,serif" font-size="14.00">ODDS_RATIO</text>
<text text-anchor="middle" x="605.187" y="-676.216" font-family="Times,serif" font-size="14.00">RELATIVE_RISK</text>
<text text-anchor="middle" x="605.187" y="-661.216" font-family="Times,serif" font-size="14.00">ODD_MULTIPLIER</text>
<text text-anchor="middle" x="605.187" y="-646.216" font-family="Times,serif" font-size="14.00">ZHANG</text>
<text text-anchor="middle" x="605.187" y="-631.216" font-family="Times,serif" font-size="14.00">BAYES</text>
<text text-anchor="middle" x="605.187" y="-616.216" font-family="Times,serif" font-size="14.00">LIFT</text>
</g>
<!-- n27 (0.11 &#45; 9)&#45;&gt;YULE_Y\nYULE_Q\nODDS_RATIO\nRELATIVE_RISK\nODD_MULTIPLIER\nZHANG\nBAYES\nLIFT -->
<g id="edge11" class="edge"><title>n27 (0.11 &#45; 9)&#45;&gt;YULE_Y\nYULE_Q\nODDS_RATIO\nRELATIVE_RISK\nODD_MULTIPLIER\nZHANG\nBAYES\nLIFT</title>
<path fill="none" stroke="black" d="M535.387,-818.373C541.861,-804.929 551.443,-785.03 561.447,-764.253"/>
<polygon fill="black" stroke="black" points="564.723,-765.518 565.908,-754.99 558.416,-762.481 564.723,-765.518"/>
</g>
<!-- n31 (0.00 &#45; 7) -->
<g id="node14" class="node"><title>n31 (0.00 &#45; 7)</title>
<ellipse fill="none" stroke="black" cx="778.187" cy="-672.416" rx="59.5901" ry="18"/>
<text text-anchor="middle" x="778.187" y="-668.716" font-family="Times,serif" font-size="14.00">n31 (0.00 &#45; 7)</text>
</g>
<!-- n32 (0.00 &#45; 21)&#45;&gt;n31 (0.00 &#45; 7) -->
<g id="edge13" class="edge"><title>n32 (0.00 &#45; 21)&#45;&gt;n31 (0.00 &#45; 7)</title>
<path fill="none" stroke="black" d="M778.187,-818.373C778.187,-790.374 778.187,-734.374 778.187,-700.766"/>
<polygon fill="black" stroke="black" points="781.687,-700.705 778.187,-690.705 774.687,-700.705 781.687,-700.705"/>
</g>
<!-- n28 (0.04 &#45; 14) -->
<g id="node21" class="node"><title>n28 (0.04 &#45; 14)</title>
<ellipse fill="none" stroke="black" cx="993.187" cy="-672.416" rx="64.189" ry="18"/>
<text text-anchor="middle" x="993.187" y="-668.716" font-family="Times,serif" font-size="14.00">n28 (0.04 &#45; 14)</text>
</g>
<!-- n32 (0.00 &#45; 21)&#45;&gt;n28 (0.04 &#45; 14) -->
<g id="edge20" class="edge"><title>n32 (0.00 &#45; 21)&#45;&gt;n28 (0.04 &#45; 14)</title>
<path fill="none" stroke="black" d="M799.588,-819.279C838.304,-790.109 920.019,-728.543 963.885,-695.494"/>
<polygon fill="black" stroke="black" points="965.992,-698.288 971.873,-689.475 961.78,-692.697 965.992,-698.288"/>
</g>
<!-- n29 (0.03 &#45; 3) -->
<g id="node15" class="node"><title>n29 (0.03 &#45; 3)</title>
<ellipse fill="none" stroke="black" cx="563.187" cy="-497.823" rx="59.5901" ry="18"/>
<text text-anchor="middle" x="563.187" y="-494.123" font-family="Times,serif" font-size="14.00">n29 (0.03 &#45; 3)</text>
</g>
<!-- n31 (0.00 &#45; 7)&#45;&gt;n29 (0.03 &#45; 3) -->
<g id="edge14" class="edge"><title>n31 (0.00 &#45; 7)&#45;&gt;n29 (0.03 &#45; 3)</title>
<path fill="none" stroke="black" d="M768.661,-654.615C756.844,-635.012 735.061,-602.646 709.187,-581.907 679.711,-558.279 665.008,-564.614 632.187,-545.907 618.906,-538.336 604.863,-529.017 592.937,-520.673"/>
<polygon fill="black" stroke="black" points="594.851,-517.739 584.669,-514.809 590.801,-523.449 594.851,-517.739"/>
</g>
<!-- LEVERAGE\nCOUNTER_EXAMPLE_RATE\nSEBAG_SCHOENAUER\nCONFIDENCE -->
<g id="node20" class="node"><title>LEVERAGE\nCOUNTER_EXAMPLE_RATE\nSEBAG_SCHOENAUER\nCONFIDENCE</title>
<ellipse fill="none" stroke="black" cx="778.187" cy="-497.823" rx="137.358" ry="48.1667"/>
<text text-anchor="middle" x="778.187" y="-516.623" font-family="Times,serif" font-size="14.00">LEVERAGE</text>
<text text-anchor="middle" x="778.187" y="-501.623" font-family="Times,serif" font-size="14.00">COUNTER_EXAMPLE_RATE</text>
<text text-anchor="middle" x="778.187" y="-486.623" font-family="Times,serif" font-size="14.00">SEBAG_SCHOENAUER</text>
<text text-anchor="middle" x="778.187" y="-471.623" font-family="Times,serif" font-size="14.00">CONFIDENCE</text>
</g>
<!-- n31 (0.00 &#45; 7)&#45;&gt;LEVERAGE\nCOUNTER_EXAMPLE_RATE\nSEBAG_SCHOENAUER\nCONFIDENCE -->
<g id="edge19" class="edge"><title>n31 (0.00 &#45; 7)&#45;&gt;LEVERAGE\nCOUNTER_EXAMPLE_RATE\nSEBAG_SCHOENAUER\nCONFIDENCE</title>
<path fill="none" stroke="black" d="M778.187,-654.236C778.187,-631.596 778.187,-590.639 778.187,-556.453"/>
<polygon fill="black" stroke="black" points="781.687,-556.089 778.187,-546.089 774.687,-556.089 781.687,-556.089"/>
</g>
<!-- RECALL -->
<g id="node16" class="node"><title>RECALL</title>
<ellipse fill="none" stroke="black" cx="463.187" cy="-395.74" rx="44.6926" ry="18"/>
<text text-anchor="middle" x="463.187" y="-392.04" font-family="Times,serif" font-size="14.00">RECALL</text>
</g>
<!-- n29 (0.03 &#45; 3)&#45;&gt;RECALL -->
<g id="edge15" class="edge"><title>n29 (0.03 &#45; 3)&#45;&gt;RECALL</title>
<path fill="none" stroke="black" d="M546.674,-480.297C530.268,-463.876 504.959,-438.546 486.506,-420.078"/>
<polygon fill="black" stroke="black" points="488.608,-417.23 479.064,-412.63 483.656,-422.178 488.608,-417.23"/>
</g>
<!-- n25 (0.39 &#45; 2) -->
<g id="node17" class="node"><title>n25 (0.39 &#45; 2)</title>
<ellipse fill="none" stroke="black" cx="586.187" cy="-395.74" rx="59.5901" ry="18"/>
<text text-anchor="middle" x="586.187" y="-392.04" font-family="Times,serif" font-size="14.00">n25 (0.39 &#45; 2)</text>
</g>
<!-- n29 (0.03 &#45; 3)&#45;&gt;n25 (0.39 &#45; 2) -->
<g id="edge16" class="edge"><title>n29 (0.03 &#45; 3)&#45;&gt;n25 (0.39 &#45; 2)</title>
<path fill="none" stroke="black" d="M567.089,-479.846C570.625,-464.461 575.894,-441.53 580.003,-423.65"/>
<polygon fill="black" stroke="black" points="583.438,-424.331 582.267,-413.801 576.616,-422.763 583.438,-424.331"/>
</g>
<!-- COLLECTIVE_STRENGH -->
<g id="node18" class="node"><title>COLLECTIVE_STRENGH</title>
<ellipse fill="none" stroke="black" cx="466.187" cy="-323.74" rx="109.681" ry="18"/>
<text text-anchor="middle" x="466.187" y="-320.04" font-family="Times,serif" font-size="14.00">COLLECTIVE_STRENGH</text>
</g>
<!-- n25 (0.39 &#45; 2)&#45;&gt;COLLECTIVE_STRENGH -->
<g id="edge17" class="edge"><title>n25 (0.39 &#45; 2)&#45;&gt;COLLECTIVE_STRENGH</title>
<path fill="none" stroke="black" d="M559.853,-379.378C543.252,-369.694 521.566,-357.045 503.243,-346.356"/>
<polygon fill="black" stroke="black" points="504.956,-343.303 494.554,-341.288 501.429,-349.35 504.956,-343.303"/>
</g>
<!-- SPECIFICITY -->
<g id="node19" class="node"><title>SPECIFICITY</title>
<ellipse fill="none" stroke="black" cx="657.187" cy="-323.74" rx="63.0888" ry="18"/>
<text text-anchor="middle" x="657.187" y="-320.04" font-family="Times,serif" font-size="14.00">SPECIFICITY</text>
</g>
<!-- n25 (0.39 &#45; 2)&#45;&gt;SPECIFICITY -->
<g id="edge18" class="edge"><title>n25 (0.39 &#45; 2)&#45;&gt;SPECIFICITY</title>
<path fill="none" stroke="black" d="M603.013,-378.151C612.032,-369.259 623.299,-358.151 633.219,-348.371"/>
<polygon fill="black" stroke="black" points="635.818,-350.723 640.482,-341.21 630.904,-345.738 635.818,-350.723"/>
</g>
<!-- n26 (0.29 &#45; 3) -->
<g id="node22" class="node"><title>n26 (0.29 &#45; 3)</title>
<ellipse fill="none" stroke="black" cx="993.187" cy="-497.823" rx="59.5901" ry="18"/>
<text text-anchor="middle" x="993.187" y="-494.123" font-family="Times,serif" font-size="14.00">n26 (0.29 &#45; 3)</text>
</g>
<!-- n28 (0.04 &#45; 14)&#45;&gt;n26 (0.29 &#45; 3) -->
<g id="edge21" class="edge"><title>n28 (0.04 &#45; 14)&#45;&gt;n26 (0.29 &#45; 3)</title>
<path fill="none" stroke="black" d="M993.187,-654.236C993.187,-624.255 993.187,-562.154 993.187,-526.191"/>
<polygon fill="black" stroke="black" points="996.687,-525.934 993.187,-515.934 989.687,-525.934 996.687,-525.934"/>
</g>
<!-- n24 (0.47 &#45; 11) -->
<g id="node27" class="node"><title>n24 (0.47 &#45; 11)</title>
<ellipse fill="none" stroke="black" cx="1158.19" cy="-497.823" rx="64.189" ry="18"/>
<text text-anchor="middle" x="1158.19" y="-494.123" font-family="Times,serif" font-size="14.00">n24 (0.47 &#45; 11)</text>
</g>
<!-- n28 (0.04 &#45; 14)&#45;&gt;n24 (0.47 &#45; 11) -->
<g id="edge26" class="edge"><title>n28 (0.04 &#45; 14)&#45;&gt;n24 (0.47 &#45; 11)</title>
<path fill="none" stroke="black" d="M1009.01,-654.867C1038.33,-624.197 1101.21,-558.421 1135.22,-522.847"/>
<polygon fill="black" stroke="black" points="1138.03,-524.969 1142.41,-515.322 1132.97,-520.132 1138.03,-524.969"/>
</g>
<!-- LEAST_CONTRADICTION -->
<g id="node23" class="node"><title>LEAST_CONTRADICTION</title>
<ellipse fill="none" stroke="black" cx="801.187" cy="-395.74" rx="114.28" ry="18"/>
<text text-anchor="middle" x="801.187" y="-392.04" font-family="Times,serif" font-size="14.00">LEAST_CONTRADICTION</text>
</g>
<!-- n26 (0.29 &#45; 3)&#45;&gt;LEAST_CONTRADICTION -->
<g id="edge22" class="edge"><title>n26 (0.29 &#45; 3)&#45;&gt;LEAST_CONTRADICTION</title>
<path fill="none" stroke="black" d="M972.11,-480.878C958.782,-471.195 940.961,-458.965 924.187,-449.74 901.457,-437.239 875.179,-425.568 852.762,-416.378"/>
<polygon fill="black" stroke="black" points="853.995,-413.102 843.412,-412.596 851.37,-419.591 853.995,-413.102"/>
</g>
<!-- n16 (0.81 &#45; 2) -->
<g id="node24" class="node"><title>n16 (0.81 &#45; 2)</title>
<ellipse fill="none" stroke="black" cx="993.187" cy="-395.74" rx="59.5901" ry="18"/>
<text text-anchor="middle" x="993.187" y="-392.04" font-family="Times,serif" font-size="14.00">n16 (0.81 &#45; 2)</text>
</g>
<!-- n26 (0.29 &#45; 3)&#45;&gt;n16 (0.81 &#45; 2) -->
<g id="edge23" class="edge"><title>n26 (0.29 &#45; 3)&#45;&gt;n16 (0.81 &#45; 2)</title>
<path fill="none" stroke="black" d="M993.187,-479.39C993.187,-464.178 993.187,-441.845 993.187,-424.227"/>
<polygon fill="black" stroke="black" points="996.687,-423.973 993.187,-413.974 989.687,-423.974 996.687,-423.973"/>
</g>
<!-- JACCARD -->
<g id="node25" class="node"><title>JACCARD</title>
<ellipse fill="none" stroke="black" cx="882.187" cy="-323.74" rx="50.8918" ry="18"/>
<text text-anchor="middle" x="882.187" y="-320.04" font-family="Times,serif" font-size="14.00">JACCARD</text>
</g>
<!-- n16 (0.81 &#45; 2)&#45;&gt;JACCARD -->
<g id="edge24" class="edge"><title>n16 (0.81 &#45; 2)&#45;&gt;JACCARD</title>
<path fill="none" stroke="black" d="M968.553,-379.205C952.671,-369.189 931.845,-356.056 914.623,-345.195"/>
<polygon fill="black" stroke="black" points="916.317,-342.125 905.991,-339.752 912.583,-348.046 916.317,-342.125"/>
</g>
<!-- COSINE -->
<g id="node26" class="node"><title>COSINE</title>
<ellipse fill="none" stroke="black" cx="993.187" cy="-323.74" rx="42.4939" ry="18"/>
<text text-anchor="middle" x="993.187" y="-320.04" font-family="Times,serif" font-size="14.00">COSINE</text>
</g>
<!-- n16 (0.81 &#45; 2)&#45;&gt;COSINE -->
<g id="edge25" class="edge"><title>n16 (0.81 &#45; 2)&#45;&gt;COSINE</title>
<path fill="none" stroke="black" d="M993.187,-377.437C993.187,-369.723 993.187,-360.453 993.187,-351.853"/>
<polygon fill="black" stroke="black" points="996.687,-351.844 993.187,-341.844 989.687,-351.844 996.687,-351.844"/>
</g>
<!-- n21 (0.62 &#45; 3) -->
<g id="node28" class="node"><title>n21 (0.62 &#45; 3)</title>
<ellipse fill="none" stroke="black" cx="1158.19" cy="-395.74" rx="59.5901" ry="18"/>
<text text-anchor="middle" x="1158.19" y="-392.04" font-family="Times,serif" font-size="14.00">n21 (0.62 &#45; 3)</text>
</g>
<!-- n24 (0.47 &#45; 11)&#45;&gt;n21 (0.62 &#45; 3) -->
<g id="edge27" class="edge"><title>n24 (0.47 &#45; 11)&#45;&gt;n21 (0.62 &#45; 3)</title>
<path fill="none" stroke="black" d="M1158.19,-479.39C1158.19,-464.178 1158.19,-441.845 1158.19,-424.227"/>
<polygon fill="black" stroke="black" points="1161.69,-423.973 1158.19,-413.974 1154.69,-423.974 1161.69,-423.973"/>
</g>
<!-- n23 (0.48 &#45; 8) -->
<g id="node33" class="node"><title>n23 (0.48 &#45; 8)</title>
<ellipse fill="none" stroke="black" cx="1319.19" cy="-395.74" rx="59.5901" ry="18"/>
<text text-anchor="middle" x="1319.19" y="-392.04" font-family="Times,serif" font-size="14.00">n23 (0.48 &#45; 8)</text>
</g>
<!-- n24 (0.47 &#45; 11)&#45;&gt;n23 (0.48 &#45; 8) -->
<g id="edge32" class="edge"><title>n24 (0.47 &#45; 11)&#45;&gt;n23 (0.48 &#45; 8)</title>
<path fill="none" stroke="black" d="M1183.34,-481.185C1210.87,-464.072 1255.14,-436.555 1285.61,-417.61"/>
<polygon fill="black" stroke="black" points="1287.56,-420.52 1294.21,-412.268 1283.87,-414.575 1287.56,-420.52"/>
</g>
<!-- GINI -->
<g id="node29" class="node"><title>GINI</title>
<ellipse fill="none" stroke="black" cx="1082.19" cy="-323.74" rx="29.4969" ry="18"/>
<text text-anchor="middle" x="1082.19" y="-320.04" font-family="Times,serif" font-size="14.00">GINI</text>
</g>
<!-- n21 (0.62 &#45; 3)&#45;&gt;GINI -->
<g id="edge28" class="edge"><title>n21 (0.62 &#45; 3)&#45;&gt;GINI</title>
<path fill="none" stroke="black" d="M1140.56,-378.505C1130.09,-368.857 1116.68,-356.509 1105.36,-346.08"/>
<polygon fill="black" stroke="black" points="1107.64,-343.423 1097.91,-339.223 1102.9,-348.572 1107.64,-343.423"/>
</g>
<!-- n15 (0.83 &#45; 2) -->
<g id="node30" class="node"><title>n15 (0.83 &#45; 2)</title>
<ellipse fill="none" stroke="black" cx="1189.19" cy="-323.74" rx="59.5901" ry="18"/>
<text text-anchor="middle" x="1189.19" y="-320.04" font-family="Times,serif" font-size="14.00">n15 (0.83 &#45; 2)</text>
</g>
<!-- n21 (0.62 &#45; 3)&#45;&gt;n15 (0.83 &#45; 2) -->
<g id="edge29" class="edge"><title>n21 (0.62 &#45; 3)&#45;&gt;n15 (0.83 &#45; 2)</title>
<path fill="none" stroke="black" d="M1165.69,-377.795C1169.22,-369.832 1173.51,-360.151 1177.45,-351.25"/>
<polygon fill="black" stroke="black" points="1180.69,-352.576 1181.54,-342.015 1174.29,-349.742 1180.69,-352.576"/>
</g>
<!-- TWO_WAY_SUPPORT -->
<g id="node31" class="node"><title>TWO_WAY_SUPPORT</title>
<ellipse fill="none" stroke="black" cx="990.187" cy="-251.74" rx="100.182" ry="18"/>
<text text-anchor="middle" x="990.187" y="-248.04" font-family="Times,serif" font-size="14.00">TWO_WAY_SUPPORT</text>
</g>
<!-- n15 (0.83 &#45; 2)&#45;&gt;TWO_WAY_SUPPORT -->
<g id="edge30" class="edge"><title>n15 (0.83 &#45; 2)&#45;&gt;TWO_WAY_SUPPORT</title>
<path fill="none" stroke="black" d="M1151.76,-309.574C1121.22,-298.832 1077.7,-283.522 1043.51,-271.498"/>
<polygon fill="black" stroke="black" points="1044.28,-268.058 1033.69,-268.041 1041.96,-274.661 1044.28,-268.058"/>
</g>
<!-- PIATETSKY_SHAPIRO -->
<g id="node32" class="node"><title>PIATETSKY_SHAPIRO</title>
<ellipse fill="none" stroke="black" cx="1209.19" cy="-251.74" rx="100.983" ry="18"/>
<text text-anchor="middle" x="1209.19" y="-248.04" font-family="Times,serif" font-size="14.00">PIATETSKY_SHAPIRO</text>
</g>
<!-- n15 (0.83 &#45; 2)&#45;&gt;PIATETSKY_SHAPIRO -->
<g id="edge31" class="edge"><title>n15 (0.83 &#45; 2)&#45;&gt;PIATETSKY_SHAPIRO</title>
<path fill="none" stroke="black" d="M1194.03,-305.795C1196.26,-298.001 1198.95,-288.562 1201.45,-279.819"/>
<polygon fill="black" stroke="black" points="1204.87,-280.592 1204.25,-270.015 1198.14,-278.669 1204.87,-280.592"/>
</g>
<!-- KLOSGEN -->
<g id="node34" class="node"><title>KLOSGEN</title>
<ellipse fill="none" stroke="black" cx="1319.19" cy="-323.74" rx="51.9908" ry="18"/>
<text text-anchor="middle" x="1319.19" y="-320.04" font-family="Times,serif" font-size="14.00">KLOSGEN</text>
</g>
<!-- n23 (0.48 &#45; 8)&#45;&gt;KLOSGEN -->
<g id="edge33" class="edge"><title>n23 (0.48 &#45; 8)&#45;&gt;KLOSGEN</title>
<path fill="none" stroke="black" d="M1319.19,-377.437C1319.19,-369.723 1319.19,-360.453 1319.19,-351.853"/>
<polygon fill="black" stroke="black" points="1322.69,-351.844 1319.19,-341.844 1315.69,-351.844 1322.69,-351.844"/>
</g>
<!-- n20 (0.66 &#45; 7) -->
<g id="node35" class="node"><title>n20 (0.66 &#45; 7)</title>
<ellipse fill="none" stroke="black" cx="1449.19" cy="-323.74" rx="59.5901" ry="18"/>
<text text-anchor="middle" x="1449.19" y="-320.04" font-family="Times,serif" font-size="14.00">n20 (0.66 &#45; 7)</text>
</g>
<!-- n23 (0.48 &#45; 8)&#45;&gt;n20 (0.66 &#45; 7) -->
<g id="edge34" class="edge"><title>n23 (0.48 &#45; 8)&#45;&gt;n20 (0.66 &#45; 7)</title>
<path fill="none" stroke="black" d="M1347.08,-379.723C1366.18,-369.435 1391.72,-355.682 1412.48,-344.505"/>
<polygon fill="black" stroke="black" points="1414.2,-347.555 1421.35,-339.732 1410.88,-341.391 1414.2,-347.555"/>
</g>
<!-- n13 (0.87 &#45; 3) -->
<g id="node36" class="node"><title>n13 (0.87 &#45; 3)</title>
<ellipse fill="none" stroke="black" cx="1428.19" cy="-251.74" rx="59.5901" ry="18"/>
<text text-anchor="middle" x="1428.19" y="-248.04" font-family="Times,serif" font-size="14.00">n13 (0.87 &#45; 3)</text>
</g>
<!-- n20 (0.66 &#45; 7)&#45;&gt;n13 (0.87 &#45; 3) -->
<g id="edge35" class="edge"><title>n20 (0.66 &#45; 7)&#45;&gt;n13 (0.87 &#45; 3)</title>
<path fill="none" stroke="black" d="M1444.1,-305.795C1441.77,-298.001 1438.93,-288.562 1436.31,-279.819"/>
<polygon fill="black" stroke="black" points="1439.6,-278.588 1433.37,-270.015 1432.89,-280.599 1439.6,-278.588"/>
</g>
<!-- n19 (0.71 &#45; 4) -->
<g id="node39" class="node"><title>n19 (0.71 &#45; 4)</title>
<ellipse fill="none" stroke="black" cx="1713.19" cy="-251.74" rx="59.5901" ry="18"/>
<text text-anchor="middle" x="1713.19" y="-248.04" font-family="Times,serif" font-size="14.00">n19 (0.71 &#45; 4)</text>
</g>
<!-- n20 (0.66 &#45; 7)&#45;&gt;n19 (0.71 &#45; 4) -->
<g id="edge38" class="edge"><title>n20 (0.66 &#45; 7)&#45;&gt;n19 (0.71 &#45; 4)</title>
<path fill="none" stroke="black" d="M1492.49,-311.259C1538.33,-299.103 1610.75,-279.902 1660.03,-266.836"/>
<polygon fill="black" stroke="black" points="1661.1,-270.173 1669.87,-264.227 1659.3,-263.407 1661.1,-270.173"/>
</g>
<!-- CHI_SQUARE -->
<g id="node37" class="node"><title>CHI_SQUARE</title>
<ellipse fill="none" stroke="black" cx="1177.19" cy="-170.87" rx="65.7887" ry="18"/>
<text text-anchor="middle" x="1177.19" y="-167.17" font-family="Times,serif" font-size="14.00">CHI_SQUARE</text>
</g>
<!-- n13 (0.87 &#45; 3)&#45;&gt;CHI_SQUARE -->
<g id="edge36" class="edge"><title>n13 (0.87 &#45; 3)&#45;&gt;CHI_SQUARE</title>
<path fill="none" stroke="black" d="M1386.44,-238.674C1350.68,-228.221 1297.89,-212.497 1252.19,-197.74 1243.62,-194.973 1234.53,-191.931 1225.75,-188.936"/>
<polygon fill="black" stroke="black" points="1226.61,-185.53 1216.02,-185.591 1224.34,-192.15 1226.61,-185.53"/>
</g>
<!-- TWO_WAY_SUPPORT_VARIATION\nJ_MEASURE -->
<g id="node38" class="node"><title>TWO_WAY_SUPPORT_VARIATION\nJ_MEASURE</title>
<ellipse fill="none" stroke="black" cx="1428.19" cy="-170.87" rx="166.754" ry="26.7407"/>
<text text-anchor="middle" x="1428.19" y="-174.67" font-family="Times,serif" font-size="14.00">TWO_WAY_SUPPORT_VARIATION</text>
<text text-anchor="middle" x="1428.19" y="-159.67" font-family="Times,serif" font-size="14.00">J_MEASURE</text>
</g>
<!-- n13 (0.87 &#45; 3)&#45;&gt;TWO_WAY_SUPPORT_VARIATION\nJ_MEASURE -->
<g id="edge37" class="edge"><title>n13 (0.87 &#45; 3)&#45;&gt;TWO_WAY_SUPPORT_VARIATION\nJ_MEASURE</title>
<path fill="none" stroke="black" d="M1428.19,-233.626C1428.19,-226.137 1428.19,-217.046 1428.19,-208.168"/>
<polygon fill="black" stroke="black" points="1431.69,-207.953 1428.19,-197.953 1424.69,-207.953 1431.69,-207.953"/>
</g>
<!-- IMPLICATION_INDEX -->
<g id="node40" class="node"><title>IMPLICATION_INDEX</title>
<ellipse fill="none" stroke="black" cx="1713.19" cy="-170.87" rx="100.182" ry="18"/>
<text text-anchor="middle" x="1713.19" y="-167.17" font-family="Times,serif" font-size="14.00">IMPLICATION_INDEX</text>
</g>
<!-- n19 (0.71 &#45; 4)&#45;&gt;IMPLICATION_INDEX -->
<g id="edge39" class="edge"><title>n19 (0.71 &#45; 4)&#45;&gt;IMPLICATION_INDEX</title>
<path fill="none" stroke="black" d="M1713.19,-233.626C1713.19,-223.601 1713.19,-210.706 1713.19,-199.295"/>
<polygon fill="black" stroke="black" points="1716.69,-198.95 1713.19,-188.95 1709.69,-198.95 1716.69,-198.95"/>
</g>
<!-- n18 (0.78 &#45; 3) -->
<g id="node41" class="node"><title>n18 (0.78 &#45; 3)</title>
<ellipse fill="none" stroke="black" cx="1891.19" cy="-170.87" rx="59.5901" ry="18"/>
<text text-anchor="middle" x="1891.19" y="-167.17" font-family="Times,serif" font-size="14.00">n18 (0.78 &#45; 3)</text>
</g>
<!-- n19 (0.71 &#45; 4)&#45;&gt;n18 (0.78 &#45; 3) -->
<g id="edge40" class="edge"><title>n19 (0.71 &#45; 4)&#45;&gt;n18 (0.78 &#45; 3)</title>
<path fill="none" stroke="black" d="M1745.42,-236.457C1774.57,-223.544 1817.65,-204.454 1849.42,-190.376"/>
<polygon fill="black" stroke="black" points="1851.17,-193.431 1858.89,-186.18 1848.33,-187.031 1851.17,-193.431"/>
</g>
<!-- KAPPA -->
<g id="node42" class="node"><title>KAPPA</title>
<ellipse fill="none" stroke="black" cx="1832.19" cy="-90" rx="39.7935" ry="18"/>
<text text-anchor="middle" x="1832.19" y="-86.3" font-family="Times,serif" font-size="14.00">KAPPA</text>
</g>
<!-- n18 (0.78 &#45; 3)&#45;&gt;KAPPA -->
<g id="edge41" class="edge"><title>n18 (0.78 &#45; 3)&#45;&gt;KAPPA</title>
<path fill="none" stroke="black" d="M1878.67,-153.144C1870.43,-142.122 1859.5,-127.51 1850.31,-115.224"/>
<polygon fill="black" stroke="black" points="1853.07,-113.074 1844.28,-107.163 1847.47,-117.267 1853.07,-113.074"/>
</g>
<!-- n14 (0.87 &#45; 2) -->
<g id="node43" class="node"><title>n14 (0.87 &#45; 2)</title>
<ellipse fill="none" stroke="black" cx="1949.19" cy="-90" rx="59.5901" ry="18"/>
<text text-anchor="middle" x="1949.19" y="-86.3" font-family="Times,serif" font-size="14.00">n14 (0.87 &#45; 2)</text>
</g>
<!-- n18 (0.78 &#45; 3)&#45;&gt;n14 (0.87 &#45; 2) -->
<g id="edge42" class="edge"><title>n18 (0.78 &#45; 3)&#45;&gt;n14 (0.87 &#45; 2)</title>
<path fill="none" stroke="black" d="M1903.49,-153.144C1911.41,-142.373 1921.85,-128.175 1930.75,-116.069"/>
<polygon fill="black" stroke="black" points="1933.8,-117.832 1936.9,-107.702 1928.16,-113.685 1933.8,-117.832"/>
</g>
<!-- PHI -->
<g id="node44" class="node"><title>PHI</title>
<ellipse fill="none" stroke="black" cx="1892.19" cy="-18" rx="27" ry="18"/>
<text text-anchor="middle" x="1892.19" y="-14.3" font-family="Times,serif" font-size="14.00">PHI</text>
</g>
<!-- n14 (0.87 &#45; 2)&#45;&gt;PHI -->
<g id="edge43" class="edge"><title>n14 (0.87 &#45; 2)&#45;&gt;PHI</title>
<path fill="none" stroke="black" d="M1935.68,-72.411C1928.37,-63.4407 1919.23,-52.2148 1911.22,-42.3727"/>
<polygon fill="black" stroke="black" points="1913.85,-40.0552 1904.82,-34.5108 1908.42,-44.4752 1913.85,-40.0552"/>
</g>
<!-- FISHER_PVAL -->
<g id="node45" class="node"><title>FISHER_PVAL</title>
<ellipse fill="none" stroke="black" cx="2005.19" cy="-18" rx="68.4888" ry="18"/>
<text text-anchor="middle" x="2005.19" y="-14.3" font-family="Times,serif" font-size="14.00">FISHER_PVAL</text>
</g>
<!-- n14 (0.87 &#45; 2)&#45;&gt;FISHER_PVAL -->
<g id="edge44" class="edge"><title>n14 (0.87 &#45; 2)&#45;&gt;FISHER_PVAL</title>
<path fill="none" stroke="black" d="M1962.46,-72.411C1969.26,-63.9056 1977.69,-53.3724 1985.26,-43.9138"/>
<polygon fill="black" stroke="black" points="1988.11,-45.9514 1991.62,-35.9562 1982.64,-41.5785 1988.11,-45.9514"/>
</g>
</g>
</svg>
