<?xml version="1.0" encoding="UTF-8" standalone="no"?>
<!DOCTYPE svg PUBLIC "-//W3C//DTD SVG 1.1//EN"
 "http://www.w3.org/Graphics/SVG/1.1/DTD/svg11.dtd">
<!-- Generated by graphviz version 2.38.0 (20140413.2041)
 -->
<!-- Title: dendrogram Pages: 1 -->
<svg width="2539pt" height="861pt"
 viewBox="0.00 0.00 2538.72 860.67" xmlns="http://www.w3.org/2000/svg" xmlns:xlink="http://www.w3.org/1999/xlink">
<g id="graph0" class="graph" transform="scale(1 1) rotate(0) translate(4 856.666)">
<title>dendrogram</title>
<polygon fill="white" stroke="none" points="-4,4 -4,-856.666 2534.72,-856.666 2534.72,4 -4,4"/>
<!-- n34 (0.00 &#45; 36) -->
<g id="node1" class="node"><title>n34 (0.00 &#45; 36)</title>
<ellipse fill="none" stroke="black" cx="714.84" cy="-834.666" rx="64.189" ry="18"/>
<text text-anchor="middle" x="714.84" y="-830.966" font-family="Times,serif" font-size="14.00">n34 (0.00 &#45; 36)</text>
</g>
<!-- n31 (0.03 &#45; 12) -->
<g id="node2" class="node"><title>n31 (0.03 &#45; 12)</title>
<ellipse fill="none" stroke="black" cx="520.84" cy="-762.666" rx="64.189" ry="18"/>
<text text-anchor="middle" x="520.84" y="-758.966" font-family="Times,serif" font-size="14.00">n31 (0.03 &#45; 12)</text>
</g>
<!-- n34 (0.00 &#45; 36)&#45;&gt;n31 (0.03 &#45; 12) -->
<g id="edge1" class="edge"><title>n34 (0.00 &#45; 36)&#45;&gt;n31 (0.03 &#45; 12)</title>
<path fill="none" stroke="black" d="M676.975,-820.003C645.862,-808.777 601.626,-792.815 568.177,-780.746"/>
<polygon fill="black" stroke="black" points="569.205,-777.396 558.61,-777.295 566.829,-783.981 569.205,-777.396"/>
</g>
<!-- n33 (0.01 &#45; 24) -->
<g id="node11" class="node"><title>n33 (0.01 &#45; 24)</title>
<ellipse fill="none" stroke="black" cx="908.84" cy="-762.666" rx="64.189" ry="18"/>
<text text-anchor="middle" x="908.84" y="-758.966" font-family="Times,serif" font-size="14.00">n33 (0.01 &#45; 24)</text>
</g>
<!-- n34 (0.00 &#45; 36)&#45;&gt;n33 (0.01 &#45; 24) -->
<g id="edge10" class="edge"><title>n34 (0.00 &#45; 36)&#45;&gt;n33 (0.01 &#45; 24)</title>
<path fill="none" stroke="black" d="M752.706,-820.003C783.818,-808.777 828.055,-792.815 861.503,-780.746"/>
<polygon fill="black" stroke="black" points="862.852,-783.981 871.07,-777.295 860.476,-777.396 862.852,-783.981"/>
</g>
<!-- n30 (0.07 &#45; 3) -->
<g id="node3" class="node"><title>n30 (0.07 &#45; 3)</title>
<ellipse fill="none" stroke="black" cx="295.84" cy="-690.666" rx="59.5901" ry="18"/>
<text text-anchor="middle" x="295.84" y="-686.966" font-family="Times,serif" font-size="14.00">n30 (0.07 &#45; 3)</text>
</g>
<!-- n31 (0.03 &#45; 12)&#45;&gt;n30 (0.07 &#45; 3) -->
<g id="edge2" class="edge"><title>n31 (0.03 &#45; 12)&#45;&gt;n30 (0.07 &#45; 3)</title>
<path fill="none" stroke="black" d="M479.572,-748.827C441.833,-737.086 385.925,-719.693 345.701,-707.178"/>
<polygon fill="black" stroke="black" points="346.678,-703.817 336.09,-704.188 344.599,-710.501 346.678,-703.817"/>
</g>
<!-- n28 (0.17 &#45; 9) -->
<g id="node8" class="node"><title>n28 (0.17 &#45; 9)</title>
<ellipse fill="none" stroke="black" cx="520.84" cy="-690.666" rx="59.5901" ry="18"/>
<text text-anchor="middle" x="520.84" y="-686.966" font-family="Times,serif" font-size="14.00">n28 (0.17 &#45; 9)</text>
</g>
<!-- n31 (0.03 &#45; 12)&#45;&gt;n28 (0.17 &#45; 9) -->
<g id="edge7" class="edge"><title>n31 (0.03 &#45; 12)&#45;&gt;n28 (0.17 &#45; 9)</title>
<path fill="none" stroke="black" d="M520.84,-744.363C520.84,-736.649 520.84,-727.379 520.84,-718.779"/>
<polygon fill="black" stroke="black" points="524.34,-718.77 520.84,-708.77 517.34,-718.77 524.34,-718.77"/>
</g>
<!-- RECALL -->
<g id="node4" class="node"><title>RECALL</title>
<ellipse fill="none" stroke="black" cx="172.84" cy="-546.156" rx="44.6926" ry="18"/>
<text text-anchor="middle" x="172.84" y="-542.456" font-family="Times,serif" font-size="14.00">RECALL</text>
</g>
<!-- n30 (0.07 &#45; 3)&#45;&gt;RECALL -->
<g id="edge3" class="edge"><title>n30 (0.07 &#45; 3)&#45;&gt;RECALL</title>
<path fill="none" stroke="black" d="M271.331,-674.204C257.244,-664.54 239.825,-651.195 226.84,-636.666 209.642,-617.422 194.887,-591.936 185.169,-573.082"/>
<polygon fill="black" stroke="black" points="188.172,-571.264 180.559,-563.896 181.916,-574.403 188.172,-571.264"/>
</g>
<!-- n25 (0.37 &#45; 2) -->
<g id="node5" class="node"><title>n25 (0.37 &#45; 2)</title>
<ellipse fill="none" stroke="black" cx="295.84" cy="-546.156" rx="59.5901" ry="18"/>
<text text-anchor="middle" x="295.84" y="-542.456" font-family="Times,serif" font-size="14.00">n25 (0.37 &#45; 2)</text>
</g>
<!-- n30 (0.07 &#45; 3)&#45;&gt;n25 (0.37 &#45; 2) -->
<g id="edge4" class="edge"><title>n30 (0.07 &#45; 3)&#45;&gt;n25 (0.37 &#45; 2)</title>
<path fill="none" stroke="black" d="M295.84,-672.476C295.84,-648.188 295.84,-603.569 295.84,-574.648"/>
<polygon fill="black" stroke="black" points="299.34,-574.407 295.84,-564.407 292.34,-574.407 299.34,-574.407"/>
</g>
<!-- COLLECTIVE_STRENGH -->
<g id="node6" class="node"><title>COLLECTIVE_STRENGH</title>
<ellipse fill="none" stroke="black" cx="109.84" cy="-371.563" rx="109.681" ry="18"/>
<text text-anchor="middle" x="109.84" y="-367.863" font-family="Times,serif" font-size="14.00">COLLECTIVE_STRENGH</text>
</g>
<!-- n25 (0.37 &#45; 2)&#45;&gt;COLLECTIVE_STRENGH -->
<g id="edge5" class="edge"><title>n25 (0.37 &#45; 2)&#45;&gt;COLLECTIVE_STRENGH</title>
<path fill="none" stroke="black" d="M284.958,-528.116C272.361,-509.156 250.319,-478.222 226.84,-455.647 202.369,-432.118 170.8,-410.097 146.622,-394.646"/>
<polygon fill="black" stroke="black" points="148.402,-391.63 138.076,-389.259 144.67,-397.552 148.402,-391.63"/>
</g>
<!-- SPECIFICITY -->
<g id="node7" class="node"><title>SPECIFICITY</title>
<ellipse fill="none" stroke="black" cx="300.84" cy="-371.563" rx="63.0888" ry="18"/>
<text text-anchor="middle" x="300.84" y="-367.863" font-family="Times,serif" font-size="14.00">SPECIFICITY</text>
</g>
<!-- n25 (0.37 &#45; 2)&#45;&gt;SPECIFICITY -->
<g id="edge6" class="edge"><title>n25 (0.37 &#45; 2)&#45;&gt;SPECIFICITY</title>
<path fill="none" stroke="black" d="M296.338,-527.977C297.207,-497.995 299.006,-435.894 300.047,-399.931"/>
<polygon fill="black" stroke="black" points="303.553,-399.771 300.345,-389.674 296.556,-399.568 303.553,-399.771"/>
</g>
<!-- ACCURACY -->
<g id="node9" class="node"><title>ACCURACY</title>
<ellipse fill="none" stroke="black" cx="433.84" cy="-546.156" rx="59.5901" ry="18"/>
<text text-anchor="middle" x="433.84" y="-542.456" font-family="Times,serif" font-size="14.00">ACCURACY</text>
</g>
<!-- n28 (0.17 &#45; 9)&#45;&gt;ACCURACY -->
<g id="edge8" class="edge"><title>n28 (0.17 &#45; 9)&#45;&gt;ACCURACY</title>
<path fill="none" stroke="black" d="M510.519,-672.759C495.41,-648.01 467.154,-601.725 449.484,-572.781"/>
<polygon fill="black" stroke="black" points="452.346,-570.753 444.149,-564.042 446.372,-574.401 452.346,-570.753"/>
</g>
<!-- RELATIVE_RISK\nYULE_Y\nYULE_Q\nODDS_RATIO\nLIFT\nZHANG\nODD_MULTIPLIER\nBAYES -->
<g id="node10" class="node"><title>RELATIVE_RISK\nYULE_Y\nYULE_Q\nODDS_RATIO\nLIFT\nZHANG\nODD_MULTIPLIER\nBAYES</title>
<ellipse fill="none" stroke="black" cx="606.84" cy="-546.156" rx="94.5053" ry="90.5193"/>
<text text-anchor="middle" x="606.84" y="-594.956" font-family="Times,serif" font-size="14.00">RELATIVE_RISK</text>
<text text-anchor="middle" x="606.84" y="-579.956" font-family="Times,serif" font-size="14.00">YULE_Y</text>
<text text-anchor="middle" x="606.84" y="-564.956" font-family="Times,serif" font-size="14.00">YULE_Q</text>
<text text-anchor="middle" x="606.84" y="-549.956" font-family="Times,serif" font-size="14.00">ODDS_RATIO</text>
<text text-anchor="middle" x="606.84" y="-534.956" font-family="Times,serif" font-size="14.00">LIFT</text>
<text text-anchor="middle" x="606.84" y="-519.956" font-family="Times,serif" font-size="14.00">ZHANG</text>
<text text-anchor="middle" x="606.84" y="-504.956" font-family="Times,serif" font-size="14.00">ODD_MULTIPLIER</text>
<text text-anchor="middle" x="606.84" y="-489.956" font-family="Times,serif" font-size="14.00">BAYES</text>
</g>
<!-- n28 (0.17 &#45; 9)&#45;&gt;RELATIVE_RISK\nYULE_Y\nYULE_Q\nODDS_RATIO\nLIFT\nZHANG\nODD_MULTIPLIER\nBAYES -->
<g id="edge9" class="edge"><title>n28 (0.17 &#45; 9)&#45;&gt;RELATIVE_RISK\nYULE_Y\nYULE_Q\nODDS_RATIO\nLIFT\nZHANG\nODD_MULTIPLIER\nBAYES</title>
<path fill="none" stroke="black" d="M531.043,-672.759C537.217,-662.528 545.613,-648.616 554.571,-633.771"/>
<polygon fill="black" stroke="black" points="557.728,-635.313 559.899,-624.943 551.735,-631.696 557.728,-635.313"/>
</g>
<!-- n32 (0.02 &#45; 11) -->
<g id="node12" class="node"><title>n32 (0.02 &#45; 11)</title>
<ellipse fill="none" stroke="black" cx="908.84" cy="-690.666" rx="64.189" ry="18"/>
<text text-anchor="middle" x="908.84" y="-686.966" font-family="Times,serif" font-size="14.00">n32 (0.02 &#45; 11)</text>
</g>
<!-- n33 (0.01 &#45; 24)&#45;&gt;n32 (0.02 &#45; 11) -->
<g id="edge11" class="edge"><title>n33 (0.01 &#45; 24)&#45;&gt;n32 (0.02 &#45; 11)</title>
<path fill="none" stroke="black" d="M908.84,-744.363C908.84,-736.649 908.84,-727.379 908.84,-718.779"/>
<polygon fill="black" stroke="black" points="912.34,-718.77 908.84,-708.77 905.34,-718.77 912.34,-718.77"/>
</g>
<!-- n27 (0.17 &#45; 13) -->
<g id="node23" class="node"><title>n27 (0.17 &#45; 13)</title>
<ellipse fill="none" stroke="black" cx="1406.84" cy="-690.666" rx="64.189" ry="18"/>
<text text-anchor="middle" x="1406.84" y="-686.966" font-family="Times,serif" font-size="14.00">n27 (0.17 &#45; 13)</text>
</g>
<!-- n33 (0.01 &#45; 24)&#45;&gt;n27 (0.17 &#45; 13) -->
<g id="edge22" class="edge"><title>n33 (0.01 &#45; 24)&#45;&gt;n27 (0.17 &#45; 13)</title>
<path fill="none" stroke="black" d="M964.999,-753.772C1057.5,-740.77 1241.48,-714.91 1340.34,-701.014"/>
<polygon fill="black" stroke="black" points="1341.09,-704.443 1350.51,-699.585 1340.12,-697.511 1341.09,-704.443"/>
</g>
<!-- n29 (0.10 &#45; 5) -->
<g id="node13" class="node"><title>n29 (0.10 &#45; 5)</title>
<ellipse fill="none" stroke="black" cx="779.84" cy="-546.156" rx="59.5901" ry="18"/>
<text text-anchor="middle" x="779.84" y="-542.456" font-family="Times,serif" font-size="14.00">n29 (0.10 &#45; 5)</text>
</g>
<!-- n32 (0.02 &#45; 11)&#45;&gt;n29 (0.10 &#45; 5) -->
<g id="edge12" class="edge"><title>n32 (0.02 &#45; 11)&#45;&gt;n29 (0.10 &#45; 5)</title>
<path fill="none" stroke="black" d="M893.79,-673.04C871.069,-647.939 827.889,-600.237 801.7,-571.305"/>
<polygon fill="black" stroke="black" points="804.101,-568.742 794.795,-563.677 798.911,-573.44 804.101,-568.742"/>
</g>
<!-- n26 (0.23 &#45; 6) -->
<g id="node16" class="node"><title>n26 (0.23 &#45; 6)</title>
<ellipse fill="none" stroke="black" cx="1037.84" cy="-546.156" rx="59.5901" ry="18"/>
<text text-anchor="middle" x="1037.84" y="-542.456" font-family="Times,serif" font-size="14.00">n26 (0.23 &#45; 6)</text>
</g>
<!-- n32 (0.02 &#45; 11)&#45;&gt;n26 (0.23 &#45; 6) -->
<g id="edge15" class="edge"><title>n32 (0.02 &#45; 11)&#45;&gt;n26 (0.23 &#45; 6)</title>
<path fill="none" stroke="black" d="M923.891,-673.04C946.611,-647.939 989.792,-600.237 1015.98,-571.305"/>
<polygon fill="black" stroke="black" points="1018.77,-573.44 1022.89,-563.677 1013.58,-568.742 1018.77,-573.44"/>
</g>
<!-- LEAST_CONTRADICTION -->
<g id="node14" class="node"><title>LEAST_CONTRADICTION</title>
<ellipse fill="none" stroke="black" cx="504.84" cy="-371.563" rx="114.28" ry="18"/>
<text text-anchor="middle" x="504.84" y="-367.863" font-family="Times,serif" font-size="14.00">LEAST_CONTRADICTION</text>
</g>
<!-- n29 (0.10 &#45; 5)&#45;&gt;LEAST_CONTRADICTION -->
<g id="edge13" class="edge"><title>n29 (0.10 &#45; 5)&#45;&gt;LEAST_CONTRADICTION</title>
<path fill="none" stroke="black" d="M770.505,-528.111C758.871,-508.272 737.264,-475.681 710.84,-455.647 704.254,-450.653 614.087,-415.081 555.249,-392.129"/>
<polygon fill="black" stroke="black" points="556.322,-388.791 545.733,-388.421 553.78,-395.313 556.322,-388.791"/>
</g>
<!-- LEVERAGE\nCOUNTER_EXAMPLE_RATE\nSEBAG_SCHOENAUER\nCONFIDENCE -->
<g id="node15" class="node"><title>LEVERAGE\nCOUNTER_EXAMPLE_RATE\nSEBAG_SCHOENAUER\nCONFIDENCE</title>
<ellipse fill="none" stroke="black" cx="774.84" cy="-371.563" rx="137.358" ry="48.1667"/>
<text text-anchor="middle" x="774.84" y="-390.363" font-family="Times,serif" font-size="14.00">LEVERAGE</text>
<text text-anchor="middle" x="774.84" y="-375.363" font-family="Times,serif" font-size="14.00">COUNTER_EXAMPLE_RATE</text>
<text text-anchor="middle" x="774.84" y="-360.363" font-family="Times,serif" font-size="14.00">SEBAG_SCHOENAUER</text>
<text text-anchor="middle" x="774.84" y="-345.363" font-family="Times,serif" font-size="14.00">CONFIDENCE</text>
</g>
<!-- n29 (0.10 &#45; 5)&#45;&gt;LEVERAGE\nCOUNTER_EXAMPLE_RATE\nSEBAG_SCHOENAUER\nCONFIDENCE -->
<g id="edge14" class="edge"><title>n29 (0.10 &#45; 5)&#45;&gt;LEVERAGE\nCOUNTER_EXAMPLE_RATE\nSEBAG_SCHOENAUER\nCONFIDENCE</title>
<path fill="none" stroke="black" d="M779.343,-527.977C778.687,-505.336 777.5,-464.379 776.51,-430.193"/>
<polygon fill="black" stroke="black" points="779.998,-429.723 776.21,-419.829 773.001,-429.926 779.998,-429.723"/>
</g>
<!-- LOEVINGER\nCONVICTION\nCERTAINTY_FACTOR -->
<g id="node17" class="node"><title>LOEVINGER\nCONVICTION\nCERTAINTY_FACTOR</title>
<ellipse fill="none" stroke="black" cx="1037.84" cy="-371.563" rx="108.375" ry="37.4533"/>
<text text-anchor="middle" x="1037.84" y="-382.863" font-family="Times,serif" font-size="14.00">LOEVINGER</text>
<text text-anchor="middle" x="1037.84" y="-367.863" font-family="Times,serif" font-size="14.00">CONVICTION</text>
<text text-anchor="middle" x="1037.84" y="-352.863" font-family="Times,serif" font-size="14.00">CERTAINTY_FACTOR</text>
</g>
<!-- n26 (0.23 &#45; 6)&#45;&gt;LOEVINGER\nCONVICTION\nCERTAINTY_FACTOR -->
<g id="edge16" class="edge"><title>n26 (0.23 &#45; 6)&#45;&gt;LOEVINGER\nCONVICTION\nCERTAINTY_FACTOR</title>
<path fill="none" stroke="black" d="M1037.84,-527.977C1037.84,-502.911 1037.84,-455.392 1037.84,-419.469"/>
<polygon fill="black" stroke="black" points="1041.34,-419.202 1037.84,-409.202 1034.34,-419.202 1041.34,-419.202"/>
</g>
<!-- n18 (0.65 &#45; 3) -->
<g id="node18" class="node"><title>n18 (0.65 &#45; 3)</title>
<ellipse fill="none" stroke="black" cx="1223.84" cy="-371.563" rx="59.5901" ry="18"/>
<text text-anchor="middle" x="1223.84" y="-367.863" font-family="Times,serif" font-size="14.00">n18 (0.65 &#45; 3)</text>
</g>
<!-- n26 (0.23 &#45; 6)&#45;&gt;n18 (0.65 &#45; 3) -->
<g id="edge17" class="edge"><title>n26 (0.23 &#45; 6)&#45;&gt;n18 (0.65 &#45; 3)</title>
<path fill="none" stroke="black" d="M1055.34,-528.919C1088.43,-498.209 1160.31,-431.517 1198.61,-395.971"/>
<polygon fill="black" stroke="black" points="1201.3,-398.251 1206.25,-388.883 1196.54,-393.12 1201.3,-398.251"/>
</g>
<!-- ONE_WAY_SUPPORT -->
<g id="node19" class="node"><title>ONE_WAY_SUPPORT</title>
<ellipse fill="none" stroke="black" cx="1135.84" cy="-269.48" rx="97.4827" ry="18"/>
<text text-anchor="middle" x="1135.84" y="-265.78" font-family="Times,serif" font-size="14.00">ONE_WAY_SUPPORT</text>
</g>
<!-- n18 (0.65 &#45; 3)&#45;&gt;ONE_WAY_SUPPORT -->
<g id="edge18" class="edge"><title>n18 (0.65 &#45; 3)&#45;&gt;ONE_WAY_SUPPORT</title>
<path fill="none" stroke="black" d="M1209.31,-354.037C1195.25,-338.052 1173.77,-313.624 1157.67,-295.302"/>
<polygon fill="black" stroke="black" points="1159.92,-292.565 1150.69,-287.366 1154.66,-297.187 1159.92,-292.565"/>
</g>
<!-- n16 (0.85 &#45; 2) -->
<g id="node20" class="node"><title>n16 (0.85 &#45; 2)</title>
<ellipse fill="none" stroke="black" cx="1310.84" cy="-269.48" rx="59.5901" ry="18"/>
<text text-anchor="middle" x="1310.84" y="-265.78" font-family="Times,serif" font-size="14.00">n16 (0.85 &#45; 2)</text>
</g>
<!-- n18 (0.65 &#45; 3)&#45;&gt;n16 (0.85 &#45; 2) -->
<g id="edge19" class="edge"><title>n18 (0.65 &#45; 3)&#45;&gt;n16 (0.85 &#45; 2)</title>
<path fill="none" stroke="black" d="M1238.21,-354.037C1252.19,-337.956 1273.59,-313.329 1289.55,-294.972"/>
<polygon fill="black" stroke="black" points="1292.53,-296.875 1296.45,-287.031 1287.25,-292.282 1292.53,-296.875"/>
</g>
<!-- CENTERED_CONFIDENCE -->
<g id="node21" class="node"><title>CENTERED_CONFIDENCE</title>
<ellipse fill="none" stroke="black" cx="1205.84" cy="-197.48" rx="116.18" ry="18"/>
<text text-anchor="middle" x="1205.84" y="-193.78" font-family="Times,serif" font-size="14.00">CENTERED_CONFIDENCE</text>
</g>
<!-- n16 (0.85 &#45; 2)&#45;&gt;CENTERED_CONFIDENCE -->
<g id="edge20" class="edge"><title>n16 (0.85 &#45; 2)&#45;&gt;CENTERED_CONFIDENCE</title>
<path fill="none" stroke="black" d="M1287.28,-252.771C1273.09,-243.316 1254.81,-231.129 1239.17,-220.699"/>
<polygon fill="black" stroke="black" points="1241.05,-217.748 1230.79,-215.113 1237.17,-223.572 1241.05,-217.748"/>
</g>
<!-- ADDED_VALUE -->
<g id="node22" class="node"><title>ADDED_VALUE</title>
<ellipse fill="none" stroke="black" cx="1415.84" cy="-197.48" rx="75.2868" ry="18"/>
<text text-anchor="middle" x="1415.84" y="-193.78" font-family="Times,serif" font-size="14.00">ADDED_VALUE</text>
</g>
<!-- n16 (0.85 &#45; 2)&#45;&gt;ADDED_VALUE -->
<g id="edge21" class="edge"><title>n16 (0.85 &#45; 2)&#45;&gt;ADDED_VALUE</title>
<path fill="none" stroke="black" d="M1334.4,-252.771C1348.79,-243.18 1367.39,-230.778 1383.19,-220.25"/>
<polygon fill="black" stroke="black" points="1385.25,-223.082 1391.63,-214.623 1381.36,-217.258 1385.25,-223.082"/>
</g>
<!-- n17 (0.75 &#45; 2) -->
<g id="node24" class="node"><title>n17 (0.75 &#45; 2)</title>
<ellipse fill="none" stroke="black" cx="1406.84" cy="-546.156" rx="59.5901" ry="18"/>
<text text-anchor="middle" x="1406.84" y="-542.456" font-family="Times,serif" font-size="14.00">n17 (0.75 &#45; 2)</text>
</g>
<!-- n27 (0.17 &#45; 13)&#45;&gt;n17 (0.75 &#45; 2) -->
<g id="edge23" class="edge"><title>n27 (0.17 &#45; 13)&#45;&gt;n17 (0.75 &#45; 2)</title>
<path fill="none" stroke="black" d="M1406.84,-672.476C1406.84,-648.188 1406.84,-603.569 1406.84,-574.648"/>
<polygon fill="black" stroke="black" points="1410.34,-574.407 1406.84,-564.407 1403.34,-574.407 1410.34,-574.407"/>
</g>
<!-- n24 (0.41 &#45; 11) -->
<g id="node27" class="node"><title>n24 (0.41 &#45; 11)</title>
<ellipse fill="none" stroke="black" cx="1622.84" cy="-546.156" rx="64.189" ry="18"/>
<text text-anchor="middle" x="1622.84" y="-542.456" font-family="Times,serif" font-size="14.00">n24 (0.41 &#45; 11)</text>
</g>
<!-- n27 (0.17 &#45; 13)&#45;&gt;n24 (0.41 &#45; 11) -->
<g id="edge26" class="edge"><title>n27 (0.17 &#45; 13)&#45;&gt;n24 (0.41 &#45; 11)</title>
<path fill="none" stroke="black" d="M1430.78,-673.871C1469.62,-648.243 1546.43,-597.567 1590.23,-568.67"/>
<polygon fill="black" stroke="black" points="1592.37,-571.451 1598.79,-563.023 1588.52,-565.608 1592.37,-571.451"/>
</g>
<!-- JACCARD -->
<g id="node25" class="node"><title>JACCARD</title>
<ellipse fill="none" stroke="black" cx="1351.84" cy="-371.563" rx="50.8918" ry="18"/>
<text text-anchor="middle" x="1351.84" y="-367.863" font-family="Times,serif" font-size="14.00">JACCARD</text>
</g>
<!-- n17 (0.75 &#45; 2)&#45;&gt;JACCARD -->
<g id="edge24" class="edge"><title>n17 (0.75 &#45; 2)&#45;&gt;JACCARD</title>
<path fill="none" stroke="black" d="M1401.37,-527.977C1391.77,-497.866 1371.85,-435.358 1360.41,-399.468"/>
<polygon fill="black" stroke="black" points="1363.66,-398.139 1357.29,-389.674 1356.99,-400.265 1363.66,-398.139"/>
</g>
<!-- COSINE -->
<g id="node26" class="node"><title>COSINE</title>
<ellipse fill="none" stroke="black" cx="1462.84" cy="-371.563" rx="42.4939" ry="18"/>
<text text-anchor="middle" x="1462.84" y="-367.863" font-family="Times,serif" font-size="14.00">COSINE</text>
</g>
<!-- n17 (0.75 &#45; 2)&#45;&gt;COSINE -->
<g id="edge25" class="edge"><title>n17 (0.75 &#45; 2)&#45;&gt;COSINE</title>
<path fill="none" stroke="black" d="M1412.41,-527.977C1422.21,-497.789 1442.57,-435.036 1454.2,-399.191"/>
<polygon fill="black" stroke="black" points="1457.61,-400.011 1457.37,-389.419 1450.96,-397.851 1457.61,-400.011"/>
</g>
<!-- IMPLICATION_INDEX -->
<g id="node28" class="node"><title>IMPLICATION_INDEX</title>
<ellipse fill="none" stroke="black" cx="1622.84" cy="-371.563" rx="100.182" ry="18"/>
<text text-anchor="middle" x="1622.84" y="-367.863" font-family="Times,serif" font-size="14.00">IMPLICATION_INDEX</text>
</g>
<!-- n24 (0.41 &#45; 11)&#45;&gt;IMPLICATION_INDEX -->
<g id="edge27" class="edge"><title>n24 (0.41 &#45; 11)&#45;&gt;IMPLICATION_INDEX</title>
<path fill="none" stroke="black" d="M1622.84,-527.977C1622.84,-497.995 1622.84,-435.894 1622.84,-399.931"/>
<polygon fill="black" stroke="black" points="1626.34,-399.674 1622.84,-389.674 1619.34,-399.674 1626.34,-399.674"/>
</g>
<!-- n23 (0.47 &#45; 10) -->
<g id="node29" class="node"><title>n23 (0.47 &#45; 10)</title>
<ellipse fill="none" stroke="black" cx="1804.84" cy="-371.563" rx="64.189" ry="18"/>
<text text-anchor="middle" x="1804.84" y="-367.863" font-family="Times,serif" font-size="14.00">n23 (0.47 &#45; 10)</text>
</g>
<!-- n24 (0.41 &#45; 11)&#45;&gt;n23 (0.47 &#45; 10) -->
<g id="edge28" class="edge"><title>n24 (0.41 &#45; 11)&#45;&gt;n23 (0.47 &#45; 10)</title>
<path fill="none" stroke="black" d="M1640.29,-528.607C1672.77,-497.809 1742.58,-431.608 1779.98,-396.14"/>
<polygon fill="black" stroke="black" points="1782.59,-398.483 1787.44,-389.062 1777.78,-393.404 1782.59,-398.483"/>
</g>
<!-- n22 (0.48 &#45; 4) -->
<g id="node30" class="node"><title>n22 (0.48 &#45; 4)</title>
<ellipse fill="none" stroke="black" cx="1735.84" cy="-269.48" rx="59.5901" ry="18"/>
<text text-anchor="middle" x="1735.84" y="-265.78" font-family="Times,serif" font-size="14.00">n22 (0.48 &#45; 4)</text>
</g>
<!-- n23 (0.47 &#45; 10)&#45;&gt;n22 (0.48 &#45; 4) -->
<g id="edge29" class="edge"><title>n23 (0.47 &#45; 10)&#45;&gt;n22 (0.48 &#45; 4)</title>
<path fill="none" stroke="black" d="M1793.14,-353.586C1782.17,-337.674 1765.63,-313.689 1753.14,-295.57"/>
<polygon fill="black" stroke="black" points="1755.93,-293.454 1747.37,-287.207 1750.17,-297.427 1755.93,-293.454"/>
</g>
<!-- n21 (0.54 &#45; 6) -->
<g id="node35" class="node"><title>n21 (0.54 &#45; 6)</title>
<ellipse fill="none" stroke="black" cx="1873.84" cy="-269.48" rx="59.5901" ry="18"/>
<text text-anchor="middle" x="1873.84" y="-265.78" font-family="Times,serif" font-size="14.00">n21 (0.54 &#45; 6)</text>
</g>
<!-- n23 (0.47 &#45; 10)&#45;&gt;n21 (0.54 &#45; 6) -->
<g id="edge34" class="edge"><title>n23 (0.47 &#45; 10)&#45;&gt;n21 (0.54 &#45; 6)</title>
<path fill="none" stroke="black" d="M1816.55,-353.586C1827.52,-337.674 1844.05,-313.689 1856.54,-295.57"/>
<polygon fill="black" stroke="black" points="1859.51,-297.427 1862.31,-287.207 1853.75,-293.454 1859.51,-297.427"/>
</g>
<!-- GINI -->
<g id="node31" class="node"><title>GINI</title>
<ellipse fill="none" stroke="black" cx="1636.84" cy="-197.48" rx="29.4969" ry="18"/>
<text text-anchor="middle" x="1636.84" y="-193.78" font-family="Times,serif" font-size="14.00">GINI</text>
</g>
<!-- n22 (0.48 &#45; 4)&#45;&gt;GINI -->
<g id="edge30" class="edge"><title>n22 (0.48 &#45; 4)&#45;&gt;GINI</title>
<path fill="none" stroke="black" d="M1713.38,-252.596C1698.55,-242.113 1679.06,-228.33 1663.45,-217.298"/>
<polygon fill="black" stroke="black" points="1665.43,-214.406 1655.24,-211.49 1661.38,-220.121 1665.43,-214.406"/>
</g>
<!-- n20 (0.62 &#45; 3) -->
<g id="node32" class="node"><title>n20 (0.62 &#45; 3)</title>
<ellipse fill="none" stroke="black" cx="1743.84" cy="-197.48" rx="59.5901" ry="18"/>
<text text-anchor="middle" x="1743.84" y="-193.78" font-family="Times,serif" font-size="14.00">n20 (0.62 &#45; 3)</text>
</g>
<!-- n22 (0.48 &#45; 4)&#45;&gt;n20 (0.62 &#45; 3) -->
<g id="edge31" class="edge"><title>n22 (0.48 &#45; 4)&#45;&gt;n20 (0.62 &#45; 3)</title>
<path fill="none" stroke="black" d="M1737.82,-251.177C1738.7,-243.463 1739.76,-234.193 1740.74,-225.593"/>
<polygon fill="black" stroke="black" points="1744.23,-225.917 1741.89,-215.585 1737.27,-225.122 1744.23,-225.917"/>
</g>
<!-- KLOSGEN -->
<g id="node33" class="node"><title>KLOSGEN</title>
<ellipse fill="none" stroke="black" cx="1580.84" cy="-116.61" rx="51.9908" ry="18"/>
<text text-anchor="middle" x="1580.84" y="-112.91" font-family="Times,serif" font-size="14.00">KLOSGEN</text>
</g>
<!-- n20 (0.62 &#45; 3)&#45;&gt;KLOSGEN -->
<g id="edge32" class="edge"><title>n20 (0.62 &#45; 3)&#45;&gt;KLOSGEN</title>
<path fill="none" stroke="black" d="M1713.56,-181.83C1686.93,-168.943 1648.02,-150.116 1619.21,-136.176"/>
<polygon fill="black" stroke="black" points="1620.39,-132.857 1609.86,-131.652 1617.34,-139.158 1620.39,-132.857"/>
</g>
<!-- PIATETSKY_SHAPIRO\nTWO_WAY_SUPPORT -->
<g id="node34" class="node"><title>PIATETSKY_SHAPIRO\nTWO_WAY_SUPPORT</title>
<ellipse fill="none" stroke="black" cx="1760.84" cy="-116.61" rx="109.703" ry="26.7407"/>
<text text-anchor="middle" x="1760.84" y="-120.41" font-family="Times,serif" font-size="14.00">PIATETSKY_SHAPIRO</text>
<text text-anchor="middle" x="1760.84" y="-105.41" font-family="Times,serif" font-size="14.00">TWO_WAY_SUPPORT</text>
</g>
<!-- n20 (0.62 &#45; 3)&#45;&gt;PIATETSKY_SHAPIRO\nTWO_WAY_SUPPORT -->
<g id="edge33" class="edge"><title>n20 (0.62 &#45; 3)&#45;&gt;PIATETSKY_SHAPIRO\nTWO_WAY_SUPPORT</title>
<path fill="none" stroke="black" d="M1747.53,-179.367C1749.16,-171.796 1751.15,-162.588 1753.08,-153.619"/>
<polygon fill="black" stroke="black" points="1756.53,-154.206 1755.22,-143.693 1749.69,-152.731 1756.53,-154.206"/>
</g>
<!-- KAPPA -->
<g id="node36" class="node"><title>KAPPA</title>
<ellipse fill="none" stroke="black" cx="1869.84" cy="-197.48" rx="39.7935" ry="18"/>
<text text-anchor="middle" x="1869.84" y="-193.78" font-family="Times,serif" font-size="14.00">KAPPA</text>
</g>
<!-- n21 (0.54 &#45; 6)&#45;&gt;KAPPA -->
<g id="edge35" class="edge"><title>n21 (0.54 &#45; 6)&#45;&gt;KAPPA</title>
<path fill="none" stroke="black" d="M1872.85,-251.177C1872.41,-243.463 1871.88,-234.193 1871.39,-225.593"/>
<polygon fill="black" stroke="black" points="1874.88,-225.369 1870.82,-215.585 1867.89,-225.768 1874.88,-225.369"/>
</g>
<!-- n19 (0.65 &#45; 5) -->
<g id="node37" class="node"><title>n19 (0.65 &#45; 5)</title>
<ellipse fill="none" stroke="black" cx="1986.84" cy="-197.48" rx="59.5901" ry="18"/>
<text text-anchor="middle" x="1986.84" y="-193.78" font-family="Times,serif" font-size="14.00">n19 (0.65 &#45; 5)</text>
</g>
<!-- n21 (0.54 &#45; 6)&#45;&gt;n19 (0.65 &#45; 5) -->
<g id="edge36" class="edge"><title>n21 (0.54 &#45; 6)&#45;&gt;n19 (0.65 &#45; 5)</title>
<path fill="none" stroke="black" d="M1898.92,-252.945C1914.86,-243.067 1935.71,-230.155 1953.1,-219.383"/>
<polygon fill="black" stroke="black" points="1955.17,-222.214 1961.83,-213.972 1951.49,-216.263 1955.17,-222.214"/>
</g>
<!-- n15 (0.89 &#45; 2) -->
<g id="node38" class="node"><title>n15 (0.89 &#45; 2)</title>
<ellipse fill="none" stroke="black" cx="1981.84" cy="-116.61" rx="59.5901" ry="18"/>
<text text-anchor="middle" x="1981.84" y="-112.91" font-family="Times,serif" font-size="14.00">n15 (0.89 &#45; 2)</text>
</g>
<!-- n19 (0.65 &#45; 5)&#45;&gt;n15 (0.89 &#45; 2) -->
<g id="edge37" class="edge"><title>n19 (0.65 &#45; 5)&#45;&gt;n15 (0.89 &#45; 2)</title>
<path fill="none" stroke="black" d="M1985.76,-179.367C1985.11,-169.238 1984.29,-156.18 1983.56,-144.682"/>
<polygon fill="black" stroke="black" points="1987.05,-144.449 1982.92,-134.69 1980.06,-144.892 1987.05,-144.449"/>
</g>
<!-- n14 (0.90 &#45; 3) -->
<g id="node41" class="node"><title>n14 (0.90 &#45; 3)</title>
<ellipse fill="none" stroke="black" cx="2119.84" cy="-116.61" rx="59.5901" ry="18"/>
<text text-anchor="middle" x="2119.84" y="-112.91" font-family="Times,serif" font-size="14.00">n14 (0.90 &#45; 3)</text>
</g>
<!-- n19 (0.65 &#45; 5)&#45;&gt;n14 (0.90 &#45; 3) -->
<g id="edge40" class="edge"><title>n19 (0.65 &#45; 5)&#45;&gt;n14 (0.90 &#45; 3)</title>
<path fill="none" stroke="black" d="M2012.8,-181.086C2033.49,-168.818 2062.64,-151.529 2085.3,-138.092"/>
<polygon fill="black" stroke="black" points="2087.13,-141.077 2093.95,-132.966 2083.56,-135.056 2087.13,-141.077"/>
</g>
<!-- FISHER_PVAL -->
<g id="node39" class="node"><title>FISHER_PVAL</title>
<ellipse fill="none" stroke="black" cx="1875.84" cy="-26.8701" rx="68.4888" ry="18"/>
<text text-anchor="middle" x="1875.84" y="-23.1701" font-family="Times,serif" font-size="14.00">FISHER_PVAL</text>
</g>
<!-- n15 (0.89 &#45; 2)&#45;&gt;FISHER_PVAL -->
<g id="edge38" class="edge"><title>n15 (0.89 &#45; 2)&#45;&gt;FISHER_PVAL</title>
<path fill="none" stroke="black" d="M1962.4,-99.5173C1945.84,-85.8131 1921.86,-65.9655 1903.34,-50.6335"/>
<polygon fill="black" stroke="black" points="1905.45,-47.8383 1895.52,-44.1581 1900.99,-53.2306 1905.45,-47.8383"/>
</g>
<!-- PHI -->
<g id="node40" class="node"><title>PHI</title>
<ellipse fill="none" stroke="black" cx="1988.84" cy="-26.8701" rx="27" ry="18"/>
<text text-anchor="middle" x="1988.84" y="-23.1701" font-family="Times,serif" font-size="14.00">PHI</text>
</g>
<!-- n15 (0.89 &#45; 2)&#45;&gt;PHI -->
<g id="edge39" class="edge"><title>n15 (0.89 &#45; 2)&#45;&gt;PHI</title>
<path fill="none" stroke="black" d="M1983.22,-98.2755C1984.21,-85.9384 1985.55,-69.1165 1986.68,-55.0094"/>
<polygon fill="black" stroke="black" points="1990.18,-55.1168 1987.48,-44.8701 1983.2,-54.5601 1990.18,-55.1168"/>
</g>
<!-- CHI_SQUARE -->
<g id="node42" class="node"><title>CHI_SQUARE</title>
<ellipse fill="none" stroke="black" cx="2112.84" cy="-26.8701" rx="65.7887" ry="18"/>
<text text-anchor="middle" x="2112.84" y="-23.1701" font-family="Times,serif" font-size="14.00">CHI_SQUARE</text>
</g>
<!-- n14 (0.90 &#45; 3)&#45;&gt;CHI_SQUARE -->
<g id="edge41" class="edge"><title>n14 (0.90 &#45; 3)&#45;&gt;CHI_SQUARE</title>
<path fill="none" stroke="black" d="M2118.46,-98.2755C2117.47,-85.9384 2116.13,-69.1165 2115.01,-55.0094"/>
<polygon fill="black" stroke="black" points="2118.48,-54.5601 2114.2,-44.8701 2111.5,-55.1168 2118.48,-54.5601"/>
</g>
<!-- TWO_WAY_SUPPORT_VARIATION\nJ_MEASURE -->
<g id="node43" class="node"><title>TWO_WAY_SUPPORT_VARIATION\nJ_MEASURE</title>
<ellipse fill="none" stroke="black" cx="2363.84" cy="-26.8701" rx="166.754" ry="26.7407"/>
<text text-anchor="middle" x="2363.84" y="-30.6701" font-family="Times,serif" font-size="14.00">TWO_WAY_SUPPORT_VARIATION</text>
<text text-anchor="middle" x="2363.84" y="-15.6701" font-family="Times,serif" font-size="14.00">J_MEASURE</text>
</g>
<!-- n14 (0.90 &#45; 3)&#45;&gt;TWO_WAY_SUPPORT_VARIATION\nJ_MEASURE -->
<g id="edge42" class="edge"><title>n14 (0.90 &#45; 3)&#45;&gt;TWO_WAY_SUPPORT_VARIATION\nJ_MEASURE</title>
<path fill="none" stroke="black" d="M2156.63,-102.38C2191.36,-89.8915 2244.49,-70.7872 2288.25,-55.0503"/>
<polygon fill="black" stroke="black" points="2289.5,-58.3219 2297.72,-51.6445 2287.13,-51.7348 2289.5,-58.3219"/>
</g>
</g>
</svg>
