<?xml version="1.0" encoding="UTF-8" standalone="no"?>
<!-- Generated by graphviz version 2.38.0 (20140413.2041)
 -->

<!-- Title: dendrogram Pages: 1 -->

<svg
   xmlns:dc="http://purl.org/dc/elements/1.1/"
   xmlns:cc="http://creativecommons.org/ns#"
   xmlns:rdf="http://www.w3.org/1999/02/22-rdf-syntax-ns#"
   xmlns:svg="http://www.w3.org/2000/svg"
   xmlns="http://www.w3.org/2000/svg"
   xmlns:sodipodi="http://sodipodi.sourceforge.net/DTD/sodipodi-0.dtd"
   xmlns:inkscape="http://www.inkscape.org/namespaces/inkscape"
   width="1083pt"
   height="885pt"
   viewBox="0.00 0.00 1083.07 884.96"
   id="svg24885"
   version="1.1"
   inkscape:version="0.48.5 r10040"
   sodipodi:docname="patterns_prods_per_client2-perTarget-KENDAL.svg">
  <metadata
     id="metadata25207">
    <rdf:RDF>
      <cc:Work
         rdf:about="">
        <dc:format>image/svg+xml</dc:format>
        <dc:type
           rdf:resource="http://purl.org/dc/dcmitype/StillImage" />
      </cc:Work>
    </rdf:RDF>
  </metadata>
  <defs
     id="defs25205" />
  <sodipodi:namedview
     pagecolor="#ffffff"
     bordercolor="#666666"
     borderopacity="1"
     objecttolerance="10"
     gridtolerance="10"
     guidetolerance="10"
     inkscape:pageopacity="0"
     inkscape:pageshadow="2"
     inkscape:window-width="1920"
     inkscape:window-height="1052"
     id="namedview25203"
     showgrid="false"
     inkscape:zoom="0.7475"
     inkscape:cx="697.7209"
     inkscape:cy="552.01119"
     inkscape:window-x="0"
     inkscape:window-y="0"
     inkscape:window-maximized="1"
     inkscape:current-layer="svg24885" />
  <g
     class="node"
     id="node1"
     transform="translate(4,880.958)">
    <title
       id="title24893">n34 (-0.18 - 36)</title>
    <ellipse
       style="fill:none;stroke:#000000"
       sodipodi:ry="18"
       sodipodi:rx="67.688103"
       sodipodi:cy="-858.95801"
       sodipodi:cx="388.89401"
       d="m 456.58212,-858.95801 c 0,9.94113 -30.305,18 -67.68811,18 -37.3831,0 -67.6881,-8.05887 -67.6881,-18 0,-9.94112 30.305,-18 67.6881,-18 37.38311,0 67.68811,8.05888 67.68811,18 z"
       id="ellipse24895"
       ry="18"
       rx="67.688103"
       cy="-858.95801"
       cx="388.89401" />
    <text
       style="font-size:14px;text-anchor:middle;font-family:'Times,serif'"
       id="text24897"
       font-size="14.00"
       y="-855.258"
       x="388.89401">n34 (-0.18 - 36)</text>
  </g>
  <g
     class="node"
     id="node2"
     transform="translate(4,880.958)">
    <title
       id="title24900">n32 (0.59 - 2)</title>
    <ellipse
       style="fill:none;stroke:#000000"
       sodipodi:ry="18"
       sodipodi:rx="59.590099"
       sodipodi:cy="-786.95801"
       sodipodi:cx="317.89401"
       d="m 377.48411,-786.95801 c 0,9.94113 -26.67939,18 -59.5901,18 -32.9107,0 -59.5901,-8.05887 -59.5901,-18 0,-9.94112 26.6794,-18 59.5901,-18 32.91071,0 59.5901,8.05888 59.5901,18 z"
       id="ellipse24902"
       ry="18"
       rx="59.590099"
       cy="-786.95801"
       cx="317.89401" />
    <text
       style="font-size:14px;text-anchor:middle;font-family:'Times,serif'"
       id="text24904"
       font-size="14.00"
       y="-783.258"
       x="317.89401">n32 (0.59 - 2)</text>
  </g>
  <g
     class="edge"
     id="edge1"
     transform="translate(4,880.958)">
    <title
       id="title24907">n34 (-0.18 - 36)-&gt;n32 (0.59 - 2)</title>
    <path
       style="fill:none;stroke:#000000"
       inkscape:connector-curvature="0"
       id="path24909"
       d="m 372.068,-841.368 c -9.019,8.892 -20.286,20 -30.205,29.78" />
    <polygon
       style="fill:#000000;stroke:#000000"
       id="polygon24911"
       points="339.263,-813.941 344.178,-808.956 344.178,-808.956 334.6,-804.427 " />
  </g>
  <g
     class="node"
     id="node5"
     transform="translate(4,880.958)">
    <title
       id="title24914">n33 (0.56 - 34)</title>
    <ellipse
       style="fill:none;stroke:#000000"
       sodipodi:ry="18"
       sodipodi:rx="64.189003"
       sodipodi:cy="-786.95801"
       sodipodi:cx="459.89401"
       d="m 524.08302,-786.95801 c 0,9.94113 -28.7384,18 -64.18901,18 -35.45061,0 -64.189,-8.05887 -64.189,-18 0,-9.94112 28.73839,-18 64.189,-18 35.45061,0 64.18901,8.05888 64.18901,18 z"
       id="ellipse24916"
       ry="18"
       rx="64.189003"
       cy="-786.95801"
       cx="459.89401" />
    <text
       style="font-size:14px;text-anchor:middle;font-family:'Times,serif'"
       id="text24918"
       font-size="14.00"
       y="-783.258"
       x="459.89401">n33 (0.56 - 34)</text>
  </g>
  <g
     class="edge"
     id="edge4"
     transform="translate(4,880.958)">
    <title
       id="title24921">n34 (-0.18 - 36)-&gt;n33 (0.56 - 34)</title>
    <path
       style="fill:none;stroke:#000000"
       inkscape:connector-curvature="0"
       id="path24923"
       d="m 405.72,-841.368 c 9.019,8.892 20.286,20 30.206,29.78" />
    <polygon
       style="fill:#000000;stroke:#000000"
       id="polygon24925"
       points="433.611,-808.956 438.525,-813.941 438.525,-813.941 443.189,-804.427 " />
  </g>
  <ellipse
     cx="148.894"
     cy="-714.95801"
     rx="109.681"
     ry="18"
     id="ellipse24930"
     d="m 258.575,-714.95801 c 0,9.94113 -49.10586,18 -109.681,18 -60.575146,0 -109.681003,-8.05887 -109.681003,-18 0,-9.94112 49.105857,-18 109.681003,-18 60.57514,0 109.681,8.05888 109.681,18 z"
     sodipodi:cx="148.894"
     sodipodi:cy="-714.95801"
     sodipodi:rx="109.681"
     sodipodi:ry="18"
     style="fill:#aaaaff;stroke:#000000"
     transform="translate(4,880.958)" />
  <text
     x="152.894"
     y="169.7"
     font-size="14.00"
     id="text24932"
     style="font-size:14px;text-anchor:middle;font-family:'Times,serif'">COLLECTIVE_STRENGH</text>
  <g
     class="edge"
     id="edge2"
     transform="translate(4,880.958)">
    <title
       id="title24935">n32 (0.59 - 2)-&gt;COLLECTIVE_STRENGH</title>
    <path
       style="fill:none;stroke:#000000"
       inkscape:connector-curvature="0"
       id="path24937"
       d="m 284.101,-771.96 c -24.988,10.35 -59.364,24.588 -87.2,36.118" />
    <polygon
       style="fill:#000000;stroke:#000000"
       id="polygon24939"
       points="195.253,-738.948 197.932,-732.481 197.932,-732.481 187.354,-731.887 " />
  </g>
  <ellipse
     cx="321.89401"
     cy="-714.95801"
     rx="44.6926"
     ry="18"
     id="ellipse24944"
     d="m 366.58661,-714.95801 c 0,9.94113 -20.00956,18 -44.6926,18 -24.68304,0 -44.6926,-8.05887 -44.6926,-18 0,-9.94112 20.00956,-18 44.6926,-18 24.68304,0 44.6926,8.05888 44.6926,18 z"
     sodipodi:cx="321.89401"
     sodipodi:cy="-714.95801"
     sodipodi:rx="44.6926"
     sodipodi:ry="18"
     style="fill:#aaaaff;stroke:#000000"
     transform="translate(4,880.958)" />
  <text
     x="325.89401"
     y="169.7"
     font-size="14.00"
     id="text24946"
     style="font-size:14px;text-anchor:middle;font-family:'Times,serif'">RECALL</text>
  <g
     class="edge"
     id="edge3"
     transform="translate(4,880.958)">
    <title
       id="title24949">n32 (0.59 - 2)-&gt;RECALL</title>
    <path
       style="fill:none;stroke:#000000"
       inkscape:connector-curvature="0"
       id="path24951"
       d="m 318.883,-768.654 c 0.441,7.714 0.971,16.984 1.462,25.584" />
    <polygon
       style="fill:#000000;stroke:#000000"
       id="polygon24953"
       points="316.852,-742.846 323.841,-743.245 323.841,-743.245 320.917,-733.062 " />
  </g>
  <g
     class="node"
     id="node6"
     transform="translate(4,880.958)">
    <title
       id="title24956">n30 (0.70 - 14)</title>
    <ellipse
       style="fill:none;stroke:#000000"
       sodipodi:ry="18"
       sodipodi:rx="64.189003"
       sodipodi:cy="-714.95801"
       sodipodi:cx="455.89401"
       d="m 520.08302,-714.95801 c 0,9.94113 -28.7384,18 -64.18901,18 -35.45061,0 -64.189,-8.05887 -64.189,-18 0,-9.94112 28.73839,-18 64.189,-18 35.45061,0 64.18901,8.05888 64.18901,18 z"
       id="ellipse24958"
       ry="18"
       rx="64.189003"
       cy="-714.95801"
       cx="455.89401" />
    <text
       style="font-size:14px;text-anchor:middle;font-family:'Times,serif'"
       id="text24960"
       font-size="14.00"
       y="-711.258"
       x="455.89401">n30 (0.70 - 14)</text>
  </g>
  <g
     class="edge"
     id="edge5"
     transform="translate(4,880.958)">
    <title
       id="title24963">n33 (0.56 - 34)-&gt;n30 (0.70 - 14)</title>
    <path
       style="fill:none;stroke:#000000"
       inkscape:connector-curvature="0"
       id="path24965"
       d="m 458.906,-768.654 c -0.441,7.714 -0.971,16.984 -1.462,25.584" />
    <polygon
       style="fill:#000000;stroke:#000000"
       id="polygon24967"
       points="453.948,-743.245 460.937,-742.846 460.937,-742.846 456.872,-733.062 " />
  </g>
  <g
     class="node"
     id="node17"
     transform="translate(4,880.958)">
    <title
       id="title24970">n31 (0.62 - 20)</title>
    <ellipse
       style="fill:none;stroke:#000000"
       sodipodi:ry="18"
       sodipodi:rx="64.189003"
       sodipodi:cy="-714.95801"
       sodipodi:cx="657.89398"
       d="m 722.08298,-714.95801 c 0,9.94113 -28.73839,18 -64.189,18 -35.45061,0 -64.189,-8.05887 -64.189,-18 0,-9.94112 28.73839,-18 64.189,-18 35.45061,0 64.189,8.05888 64.189,18 z"
       id="ellipse24972"
       ry="18"
       rx="64.189003"
       cy="-714.95801"
       cx="657.89398" />
    <text
       style="font-size:14px;text-anchor:middle;font-family:'Times,serif'"
       id="text24974"
       font-size="14.00"
       y="-711.258"
       x="657.89398">n31 (0.62 - 20)</text>
  </g>
  <g
     class="edge"
     id="edge16"
     transform="translate(4,880.958)">
    <title
       id="title24977">n33 (0.56 - 34)-&gt;n31 (0.62 - 20)</title>
    <path
       style="fill:none;stroke:#000000"
       inkscape:connector-curvature="0"
       id="path24979"
       d="m 498.071,-772.461 c 31.809,11.246 77.295,27.327 111.614,39.46" />
    <polygon
       style="fill:#000000;stroke:#000000"
       id="polygon24981"
       points="608.903,-729.565 611.236,-736.165 611.236,-736.165 619.498,-729.532 " />
  </g>
  <g
     class="node"
     id="node7"
     transform="translate(4,880.958)">
    <title
       id="title24984">n28 (0.78 - 5)</title>
    <ellipse
       style="fill:none;stroke:#000000"
       sodipodi:ry="18"
       sodipodi:rx="59.590099"
       sodipodi:cy="-464.38199"
       sodipodi:cx="317.89401"
       d="m 377.48411,-464.38199 c 0,9.94113 -26.67939,18 -59.5901,18 -32.9107,0 -59.5901,-8.05887 -59.5901,-18 0,-9.94112 26.6794,-18 59.5901,-18 32.91071,0 59.5901,8.05888 59.5901,18 z"
       id="ellipse24986"
       ry="18"
       rx="59.590099"
       cy="-464.38199"
       cx="317.89401" />
    <text
       style="font-size:14px;text-anchor:middle;font-family:'Times,serif'"
       id="text24988"
       font-size="14.00"
       y="-460.68201"
       x="317.89401">n28 (0.78 - 5)</text>
  </g>
  <g
     class="edge"
     id="edge6"
     transform="translate(4,880.958)">
    <title
       id="title24991">n30 (0.70 - 14)-&gt;n28 (0.78 - 5)</title>
    <path
       style="fill:none;stroke:#000000"
       inkscape:connector-curvature="0"
       id="path24993"
       d="m 428.89,-698.533 c -14.199,9.296 -30.91,22.291 -41.996,37.575 -38.146,52.597 -56.799,128.222 -64.485,168.275" />
    <polygon
       style="fill:#000000;stroke:#000000"
       id="polygon24995"
       points="318.922,-493.075 325.808,-491.815 325.808,-491.815 320.564,-482.609 " />
  </g>
  <g
     class="node"
     id="node12"
     transform="translate(4,880.958)">
    <title
       id="title24998">n29 (0.77 - 9)</title>
    <ellipse
       style="fill:none;stroke:#000000"
       sodipodi:ry="18"
       sodipodi:rx="59.590099"
       sodipodi:cy="-464.38199"
       sodipodi:cx="455.89401"
       d="m 515.48411,-464.38199 c 0,9.94113 -26.67939,18 -59.5901,18 -32.9107,0 -59.5901,-8.05887 -59.5901,-18 0,-9.94112 26.6794,-18 59.5901,-18 32.91071,0 59.5901,8.05888 59.5901,18 z"
       id="ellipse25000"
       ry="18"
       rx="59.590099"
       cy="-464.38199"
       cx="455.89401" />
    <text
       style="font-size:14px;text-anchor:middle;font-family:'Times,serif'"
       id="text25002"
       font-size="14.00"
       y="-460.68201"
       x="455.89401">n29 (0.77 - 9)</text>
  </g>
  <g
     class="edge"
     id="edge11"
     transform="translate(4,880.958)">
    <title
       id="title25005">n30 (0.70 - 14)-&gt;n29 (0.77 - 9)</title>
    <path
       style="fill:none;stroke:#000000"
       inkscape:connector-curvature="0"
       id="path25007"
       d="m 455.894,-696.872 c 0,42.395 0,152.702 0,204.228" />
    <polygon
       style="fill:#000000;stroke:#000000"
       id="polygon25009"
       points="452.395,-492.587 459.395,-492.587 459.395,-492.587 455.894,-482.587 " />
  </g>
  <ellipse
     cx="192.894"
     cy="-213.806"
     rx="51.990799"
     ry="18"
     id="ellipse25014"
     d="m 244.8848,-213.806 c 0,9.94113 -23.27708,18 -51.9908,18 -28.71373,0 -51.9908,-8.05887 -51.9908,-18 0,-9.94113 23.27707,-18 51.9908,-18 28.71372,0 51.9908,8.05887 51.9908,18 z"
     sodipodi:cx="192.894"
     sodipodi:cy="-213.806"
     sodipodi:rx="51.990799"
     sodipodi:ry="18"
     style="fill:#d5d5d5;stroke:#000000"
     transform="translate(4,880.958)" />
  <text
     x="196.894"
     y="670.85199"
     font-size="14.00"
     id="text25016"
     style="font-size:14px;text-anchor:middle;font-family:'Times,serif'">KLOSGEN</text>
  <g
     class="edge"
     id="edge7"
     transform="translate(4,880.958)">
    <title
       id="title25019">n28 (0.78 - 5)-&gt;KLOSGEN</title>
    <path
       style="fill:none;stroke:#000000"
       inkscape:connector-curvature="0"
       id="path25021"
       d="m 309.303,-446.296 c -21.505,42.764 -77.757,154.628 -103.369,205.56" />
    <polygon
       style="fill:#000000;stroke:#000000"
       id="polygon25023"
       points="202.747,-242.189 209.001,-239.044 209.001,-239.044 201.381,-231.683 " />
  </g>
  <g
     class="node"
     id="node9"
     transform="translate(4,880.958)">
    <title
       id="title25026">n26 (0.85 - 4)</title>
    <ellipse
       style="fill:none;stroke:#000000"
       sodipodi:ry="18"
       sodipodi:rx="59.590099"
       sodipodi:cy="-213.806"
       sodipodi:cx="322.89401"
       d="m 382.48411,-213.806 c 0,9.94113 -26.67939,18 -59.5901,18 -32.9107,0 -59.5901,-8.05887 -59.5901,-18 0,-9.94113 26.6794,-18 59.5901,-18 32.91071,0 59.5901,8.05887 59.5901,18 z"
       id="ellipse25028"
       ry="18"
       rx="59.590099"
       cy="-213.806"
       cx="322.89401" />
    <text
       style="font-size:14px;text-anchor:middle;font-family:'Times,serif'"
       id="text25030"
       font-size="14.00"
       y="-210.106"
       x="322.89401">n26 (0.85 - 4)</text>
  </g>
  <g
     class="edge"
     id="edge8"
     transform="translate(4,880.958)">
    <title
       id="title25033">n28 (0.78 - 5)-&gt;n26 (0.85 - 4)</title>
    <path
       style="fill:none;stroke:#000000"
       inkscape:connector-curvature="0"
       id="path25035"
       d="m 318.238,-446.296 c 0.853,42.395 3.072,152.702 4.108,204.227" />
    <polygon
       style="fill:#000000;stroke:#000000"
       id="polygon25037"
       points="318.848,-241.939 325.846,-242.08 325.846,-242.08 322.548,-232.011 " />
  </g>
  <ellipse
     cx="108.894"
     cy="-79.903099"
     rx="108.789"
     ry="26.7407"
     id="ellipse25042"
     d="m 217.683,-79.903099 c 0,14.768481 -48.7065,26.7407 -108.789,26.7407 -60.082509,0 -108.78900427,-11.972219 -108.78900427,-26.7407 0,-14.768481 48.70649527,-26.740701 108.78900427,-26.740701 60.0825,0 108.789,11.97222 108.789,26.740701 z"
     sodipodi:cx="108.894"
     sodipodi:cy="-79.903099"
     sodipodi:rx="108.789"
     sodipodi:ry="26.7407"
     style="fill:none;stroke:#000000"
     transform="translate(4,880.958)" />
  <text
     x="112.894"
     y="797.25488"
     font-size="14.00"
     id="text25044"
     style="font-size:14px;text-anchor:middle;font-family:'Times,serif'">TWO_WAY_SUPPORT</text>
  <text
     x="112.894"
     y="812.25488"
     font-size="14.00"
     id="text25046"
     style="font-size:14px;text-anchor:middle;font-family:'Times,serif'">COSINE</text>
  <g
     class="edge"
     id="edge9"
     transform="translate(4,880.958)">
    <title
       id="title25049">n26 (0.85 - 4)-&gt;TWO_WAY_SUPPORT\nCOSINE</title>
    <path
       style="fill:none;stroke:#000000"
       inkscape:connector-curvature="0"
       id="path25051"
       d="m 294.06,-197.956 c -19.506,10.264 -45.707,24.482 -68.166,38.15 -25.035,15.236 -52.22,33.461 -74.079,48.555" />
    <polygon
       style="fill:#000000;stroke:#000000"
       id="polygon25053"
       points="149.631,-113.995 153.621,-108.244 153.621,-108.244 143.409,-105.42 " />
  </g>
  <ellipse
     cx="344.89401"
     cy="-79.903099"
     rx="109.703"
     ry="26.7407"
     id="ellipse25058"
     d="m 454.59702,-79.903099 c 0,14.768481 -49.11571,26.7407 -109.70301,26.7407 -60.58729,0 -109.703,-11.972219 -109.703,-26.7407 0,-14.768481 49.11571,-26.740701 109.703,-26.740701 60.5873,0 109.70301,11.97222 109.70301,26.740701 z"
     sodipodi:cx="344.89401"
     sodipodi:cy="-79.903099"
     sodipodi:rx="109.703"
     sodipodi:ry="26.7407"
     style="fill:#d5d5d5;stroke:#000000"
     transform="translate(4,880.958)" />
  <text
     x="348.89401"
     y="797.25488"
     font-size="14.00"
     id="text25060"
     style="font-size:14px;text-anchor:middle;font-family:'Times,serif'">PIATETSKY_SHAPIRO</text>
  <text
     x="348.89401"
     y="812.25488"
     font-size="14.00"
     id="text25062"
     style="font-size:14px;text-anchor:middle;font-family:'Times,serif'">SPECIFICITY</text>
  <g
     class="edge"
     id="edge10"
     transform="translate(4,880.958)">
    <title
       id="title25065">n26 (0.85 - 4)-&gt;PIATETSKY_SHAPIRO\nSPECIFICITY</title>
    <path
       style="fill:none;stroke:#000000"
       inkscape:connector-curvature="0"
       id="path25067"
       d="m 325.771,-195.562 c 3.316,19.886 8.859,53.12 13.126,78.702" />
    <polygon
       style="fill:#000000;stroke:#000000"
       id="polygon25069"
       points="335.482,-116.064 342.386,-117.216 342.386,-117.216 340.579,-106.776 " />
  </g>
  <ellipse
     cx="453.89401"
     cy="-213.806"
     rx="50.8918"
     ry="18"
     id="ellipse25074"
     d="m 504.78581,-213.806 c 0,9.94113 -22.78503,18 -50.8918,18 -28.10676,0 -50.8918,-8.05887 -50.8918,-18 0,-9.94113 22.78504,-18 50.8918,-18 28.10677,0 50.8918,8.05887 50.8918,18 z"
     sodipodi:cx="453.89401"
     sodipodi:cy="-213.806"
     sodipodi:rx="50.8918"
     sodipodi:ry="18"
     style="fill:#aaffaa;stroke:#000000"
     transform="translate(4,880.958)" />
  <text
     x="457.89401"
     y="670.85199"
     font-size="14.00"
     id="text25076"
     style="font-size:14px;text-anchor:middle;font-family:'Times,serif'">JACCARD</text>
  <g
     class="edge"
     id="edge12"
     transform="translate(4,880.958)">
    <title
       id="title25079">n29 (0.77 - 9)-&gt;JACCARD</title>
    <path
       style="fill:none;stroke:#000000"
       inkscape:connector-curvature="0"
       id="path25081"
       d="m 455.757,-446.296 c -0.341,42.395 -1.229,152.702 -1.643,204.227" />
    <polygon
       style="fill:#000000;stroke:#000000"
       id="polygon25083"
       points="450.614,-242.039 457.613,-241.983 457.613,-241.983 454.033,-232.011 " />
  </g>
  <g
     class="node"
     id="node14"
     transform="translate(4,880.958)">
    <title
       id="title25086">n27 (0.83 - 8)</title>
    <ellipse
       style="fill:none;stroke:#000000"
       sodipodi:ry="18"
       sodipodi:rx="59.590099"
       sodipodi:cy="-213.806"
       sodipodi:cx="581.89398"
       d="m 641.48408,-213.806 c 0,9.94113 -26.67939,18 -59.5901,18 -32.9107,0 -59.5901,-8.05887 -59.5901,-18 0,-9.94113 26.6794,-18 59.5901,-18 32.91071,0 59.5901,8.05887 59.5901,18 z"
       id="ellipse25088"
       ry="18"
       rx="59.590099"
       cy="-213.806"
       cx="581.89398" />
    <text
       style="font-size:14px;text-anchor:middle;font-family:'Times,serif'"
       id="text25090"
       font-size="14.00"
       y="-210.106"
       x="581.89398">n27 (0.83 - 8)</text>
  </g>
  <g
     class="edge"
     id="edge13"
     transform="translate(4,880.958)">
    <title
       id="title25093">n29 (0.77 - 9)-&gt;n27 (0.83 - 8)</title>
    <path
       style="fill:none;stroke:#000000"
       inkscape:connector-curvature="0"
       id="path25095"
       d="m 459.056,-446.186 c 7.149,35.65 27.038,119.218 65.838,178.38 7.427,11.323 17.773,21.903 27.616,30.586" />
    <polygon
       style="fill:#000000;stroke:#000000"
       id="polygon25097"
       points="550.336,-234.475 554.858,-239.817 554.858,-239.817 560.23,-230.685 " />
  </g>
  <ellipse
     cx="534.89398"
     cy="-79.903099"
     rx="39.793499"
     ry="18"
     id="ellipse25102"
     d="m 574.68748,-79.903099 c 0,9.941125 -17.81616,18 -39.7935,18 -21.97734,0 -39.7935,-8.058875 -39.7935,-18 0,-9.941126 17.81616,-18 39.7935,-18 21.97734,0 39.7935,8.058874 39.7935,18 z"
     sodipodi:cx="534.89398"
     sodipodi:cy="-79.903099"
     sodipodi:rx="39.793499"
     sodipodi:ry="18"
     style="fill:#aaffaa;stroke:#000000"
     transform="translate(4,880.958)" />
  <text
     x="538.89398"
     y="804.75488"
     font-size="14.00"
     id="text25104"
     style="font-size:14px;text-anchor:middle;font-family:'Times,serif'">KAPPA</text>
  <g
     class="edge"
     id="edge14"
     transform="translate(4,880.958)">
    <title
       id="title25107">n27 (0.83 - 8)-&gt;KAPPA</title>
    <path
       style="fill:none;stroke:#000000"
       inkscape:connector-curvature="0"
       id="path25109"
       d="m 575.846,-195.832 c -7.967,22.359 -22.065,61.924 -31.459,88.289" />
    <polygon
       style="fill:#000000;stroke:#000000"
       id="polygon25111"
       points="540.979,-108.407 547.573,-106.057 547.573,-106.057 540.919,-97.8119 " />
  </g>
  <ellipse
     cx="759.89398"
     cy="-79.903099"
     rx="166.754"
     ry="79.806297"
     id="ellipse25116"
     d="m 926.64798,-79.903099 c 0,44.075801 -74.65831,79.80629724 -166.754,79.80629724 -92.09569,0 -166.754,-35.73049624 -166.754,-79.80629724 0,-44.075801 74.65831,-79.806301 166.754,-79.806301 92.09569,0 166.754,35.7305 166.754,79.806301 z"
     sodipodi:cx="759.89398"
     sodipodi:cy="-79.903099"
     sodipodi:rx="166.754"
     sodipodi:ry="79.806297"
     style="fill:#aaffaa;stroke:#000000"
     transform="translate(4,880.958)" />
  <text
     x="763.89398"
     y="759.755"
     font-size="14.00"
     id="text25118"
     style="font-size:14px;text-anchor:middle;font-family:'Times,serif'">J_MEASURE</text>
  <text
     x="763.89398"
     y="774.755"
     font-size="14.00"
     id="text25120"
     style="font-size:14px;text-anchor:middle;font-family:'Times,serif'">TWO_WAY_SUPPORT_VARIATION</text>
  <text
     x="763.89398"
     y="789.75488"
     font-size="14.00"
     id="text25122"
     style="font-size:14px;text-anchor:middle;font-family:'Times,serif'">FISHER_PVAL</text>
  <text
     x="763.89398"
     y="804.75488"
     font-size="14.00"
     id="text25124"
     style="font-size:14px;text-anchor:middle;font-family:'Times,serif'">IMPLICATION_INDEX</text>
  <text
     x="763.89398"
     y="819.75488"
     font-size="14.00"
     id="text25126"
     style="font-size:14px;text-anchor:middle;font-family:'Times,serif'">PHI</text>
  <text
     x="763.89398"
     y="834.75488"
     font-size="14.00"
     id="text25128"
     style="font-size:14px;text-anchor:middle;font-family:'Times,serif'">GINI</text>
  <text
     x="763.89398"
     y="849.75488"
     font-size="14.00"
     id="text25130"
     style="font-size:14px;text-anchor:middle;font-family:'Times,serif'">CHI_SQUARE</text>
  <g
     class="edge"
     id="edge15"
     transform="translate(4,880.958)">
    <title
       id="title25133">n27 (0.83 - 8)-&gt;J_MEASURE\nTWO_WAY_SUPPORT_VARIATION\nFISHER_PVAL\nIMPLICATION_INDEX\nPHI\nGINI\nCHI_SQUARE</title>
    <path
       style="fill:none;stroke:#000000"
       inkscape:connector-curvature="0"
       id="path25135"
       d="m 603.365,-196.896 c 15.071,11.168 36.408,26.98 58.495,43.347" />
    <polygon
       style="fill:#000000;stroke:#000000"
       id="polygon25137"
       points="659.903,-150.643 664.071,-156.267 664.071,-156.267 670.022,-147.501 " />
  </g>
  <ellipse
     cx="657.89398"
     cy="-464.38199"
     rx="124.402"
     ry="26.7407"
     id="ellipse25142"
     d="m 782.29598,-464.38199 c 0,14.76848 -55.69667,26.7407 -124.402,26.7407 -68.70533,0 -124.402,-11.97222 -124.402,-26.7407 0,-14.76848 55.69667,-26.7407 124.402,-26.7407 68.70533,0 124.402,11.97222 124.402,26.7407 z"
     sodipodi:cx="657.89398"
     sodipodi:cy="-464.38199"
     sodipodi:rx="124.402"
     sodipodi:ry="26.7407"
     style="fill:#ffaaaa;stroke:#000000"
     transform="translate(-67.897778,753.05564)" />
  <text
     x="589.99622"
     y="284.87363"
     font-size="14.00"
     id="text25144"
     style="font-size:14px;text-anchor:middle;font-family:'Times,serif'">LEAST_CONTRADICTION</text>
  <text
     x="589.99622"
     y="299.87363"
     font-size="14.00"
     id="text25146"
     style="font-size:14px;text-anchor:middle;font-family:'Times,serif'">ACCURACY</text>
  <path
     d="m 661.894,184.086 c -10.59546,14.37316 -42.38184,53.94685 -61.30231,75.04682"
     id="path25151"
     inkscape:connector-curvature="0"
     style="fill:none;stroke:#000000"
     sodipodi:nodetypes="cc" />
  <polygon
     points="661.395,-501.262 657.894,-491.262 654.395,-501.262 661.395,-501.262 "
     id="polygon25153"
     style="fill:#000000;stroke:#000000"
     transform="matrix(0.72385715,0.68994987,-0.68994987,0.72385715,-215.55673,161.30702)"
     inkscape:transform-center-x="-17.725753"
     inkscape:transform-center-y="-6.657511" />
  <ellipse
     cx="937.89398"
     cy="-464.38199"
     rx="137.358"
     ry="196.651"
     id="ellipse25158"
     d="m 1075.252,-464.38199 c 0,108.60735 -61.4973,196.651 -137.35802,196.651 -75.86073,0 -137.358,-88.04365 -137.358,-196.651 0,-108.60735 61.49727,-196.651 137.358,-196.651 75.86072,0 137.35802,88.04365 137.35802,196.651 z"
     sodipodi:cx="937.89398"
     sodipodi:cy="-464.38199"
     sodipodi:rx="137.358"
     sodipodi:ry="196.651"
     style="fill:#ffffaa;stroke:#000000"
     transform="translate(-142.05678,941.7632)" />
  <text
     x="795.83722"
     y="353.58121"
     font-size="14.00"
     id="text25160"
     style="font-size:14px;text-anchor:middle;font-family:'Times,serif'">RELATIVE_RISK</text>
  <text
     x="795.83722"
     y="368.58121"
     font-size="14.00"
     id="text25162"
     style="font-size:14px;text-anchor:middle;font-family:'Times,serif'">YULE_Y</text>
  <text
     x="795.83722"
     y="383.58121"
     font-size="14.00"
     id="text25164"
     style="font-size:14px;text-anchor:middle;font-family:'Times,serif'">YULE_Q</text>
  <text
     x="795.83722"
     y="398.58121"
     font-size="14.00"
     id="text25166"
     style="font-size:14px;text-anchor:middle;font-family:'Times,serif'">ODDS_RATIO</text>
  <text
     x="795.83722"
     y="413.58121"
     font-size="14.00"
     id="text25168"
     style="font-size:14px;text-anchor:middle;font-family:'Times,serif'">LEVERAGE</text>
  <text
     x="795.83722"
     y="428.58121"
     font-size="14.00"
     id="text25170"
     style="font-size:14px;text-anchor:middle;font-family:'Times,serif'">ODD_MULTIPLIER</text>
  <text
     x="795.83722"
     y="443.58121"
     font-size="14.00"
     id="text25172"
     style="font-size:14px;text-anchor:middle;font-family:'Times,serif'">ZHANG</text>
  <text
     x="795.83722"
     y="458.58121"
     font-size="14.00"
     id="text25174"
     style="font-size:14px;text-anchor:middle;font-family:'Times,serif'">SEBAG_SCHOENAUER</text>
  <text
     x="795.83722"
     y="473.58121"
     font-size="14.00"
     id="text25176"
     style="font-size:14px;text-anchor:middle;font-family:'Times,serif'">COUNTER_EXAMPLE_RATE</text>
  <text
     x="795.83722"
     y="488.58121"
     font-size="14.00"
     id="text25178"
     style="font-size:14px;text-anchor:middle;font-family:'Times,serif'">ONE_WAY_SUPPORT</text>
  <text
     x="795.83722"
     y="503.58121"
     font-size="14.00"
     id="text25180"
     style="font-size:14px;text-anchor:middle;font-family:'Times,serif'">LOEVINGER</text>
  <text
     x="795.83722"
     y="518.58118"
     font-size="14.00"
     id="text25182"
     style="font-size:14px;text-anchor:middle;font-family:'Times,serif'">CONVICTION</text>
  <text
     x="795.83722"
     y="533.58118"
     font-size="14.00"
     id="text25184"
     style="font-size:14px;text-anchor:middle;font-family:'Times,serif'">BAYES</text>
  <text
     x="795.83722"
     y="548.58118"
     font-size="14.00"
     id="text25186"
     style="font-size:14px;text-anchor:middle;font-family:'Times,serif'">CENTERED_CONFIDENCE</text>
  <text
     x="795.83722"
     y="563.58118"
     font-size="14.00"
     id="text25188"
     style="font-size:14px;text-anchor:middle;font-family:'Times,serif'">CERTAINTY_FACTOR</text>
  <text
     x="795.83722"
     y="578.58118"
     font-size="14.00"
     id="text25190"
     style="font-size:14px;text-anchor:middle;font-family:'Times,serif'">ADDED_VALUE</text>
  <text
     x="795.83722"
     y="593.58118"
     font-size="14.00"
     id="text25192"
     style="font-size:14px;text-anchor:middle;font-family:'Times,serif'">LIFT</text>
  <text
     x="795.83722"
     y="608.58118"
     font-size="14.00"
     id="text25194"
     style="font-size:14px;text-anchor:middle;font-family:'Times,serif'">CONFIDENCE</text>
  <path
     d="m 708.18,178.617 c 32.43861,34.90496 46.02417,54.17182 81.78151,93.7216"
     id="path25199"
     inkscape:connector-curvature="0"
     style="fill:none;stroke:#000000"
     sodipodi:nodetypes="cc" />
  <polygon
     points="844.808,-609.034 835.575,-614.231 840.831,-618.854 840.831,-618.854 "
     id="polygon25201"
     style="fill:#000000;stroke:#000000"
     transform="translate(-48.598901,888.9046)" />
</svg>
