<?xml version="1.0" encoding="UTF-8" standalone="no"?>
<!DOCTYPE svg PUBLIC "-//W3C//DTD SVG 1.1//EN"
 "http://www.w3.org/Graphics/SVG/1.1/DTD/svg11.dtd">
<!-- Generated by graphviz version 2.38.0 (20140413.2041)
 -->
<!-- Title: dendrogram Pages: 1 -->
<svg width="1967pt" height="1821pt"
 viewBox="0.00 0.00 1967.22 1821.35" xmlns="http://www.w3.org/2000/svg" xmlns:xlink="http://www.w3.org/1999/xlink">
<g id="graph0" class="graph" transform="scale(1 1) rotate(0) translate(4 1817.35)">
<title>dendrogram</title>
<polygon fill="white" stroke="none" points="-4,4 -4,-1817.35 1963.22,-1817.35 1963.22,4 -4,4"/>
<!-- n34 (0.00 &#45; 36) -->
<g id="node1" class="node"><title>n34 (0.00 &#45; 36)</title>
<ellipse fill="none" stroke="black" cx="135.044" cy="-1795.35" rx="64.189" ry="18"/>
<text text-anchor="middle" x="135.044" y="-1791.65" font-family="Times,serif" font-size="14.00">n34 (0.00 &#45; 36)</text>
</g>
<!-- SPECIFICITY -->
<g id="node2" class="node"><title>SPECIFICITY</title>
<ellipse fill="none" stroke="black" cx="63.0444" cy="-1723.35" rx="63.0888" ry="18"/>
<text text-anchor="middle" x="63.0444" y="-1719.65" font-family="Times,serif" font-size="14.00">SPECIFICITY</text>
</g>
<!-- n34 (0.00 &#45; 36)&#45;&gt;SPECIFICITY -->
<g id="edge1" class="edge"><title>n34 (0.00 &#45; 36)&#45;&gt;SPECIFICITY</title>
<path fill="none" stroke="black" d="M117.981,-1777.76C108.835,-1768.87 97.4096,-1757.76 87.3505,-1747.98"/>
<polygon fill="black" stroke="black" points="89.5947,-1745.28 79.9849,-1740.82 84.7151,-1750.3 89.5947,-1745.28"/>
</g>
<!-- n33 (0.00 &#45; 35) -->
<g id="node3" class="node"><title>n33 (0.00 &#45; 35)</title>
<ellipse fill="none" stroke="black" cx="208.044" cy="-1723.35" rx="64.189" ry="18"/>
<text text-anchor="middle" x="208.044" y="-1719.65" font-family="Times,serif" font-size="14.00">n33 (0.00 &#45; 35)</text>
</g>
<!-- n34 (0.00 &#45; 36)&#45;&gt;n33 (0.00 &#45; 35) -->
<g id="edge2" class="edge"><title>n34 (0.00 &#45; 36)&#45;&gt;n33 (0.00 &#45; 35)</title>
<path fill="none" stroke="black" d="M152.344,-1777.76C161.617,-1768.87 173.202,-1757.76 183.401,-1747.98"/>
<polygon fill="black" stroke="black" points="186.073,-1750.27 190.869,-1740.82 181.228,-1745.22 186.073,-1750.27"/>
</g>
<!-- ACCURACY -->
<g id="node4" class="node"><title>ACCURACY</title>
<ellipse fill="none" stroke="black" cx="137.044" cy="-1651.35" rx="59.5901" ry="18"/>
<text text-anchor="middle" x="137.044" y="-1647.65" font-family="Times,serif" font-size="14.00">ACCURACY</text>
</g>
<!-- n33 (0.00 &#45; 35)&#45;&gt;ACCURACY -->
<g id="edge3" class="edge"><title>n33 (0.00 &#45; 35)&#45;&gt;ACCURACY</title>
<path fill="none" stroke="black" d="M191.218,-1705.76C182.199,-1696.87 170.932,-1685.76 161.013,-1675.98"/>
<polygon fill="black" stroke="black" points="163.328,-1673.35 153.75,-1668.82 158.413,-1678.34 163.328,-1673.35"/>
</g>
<!-- n32 (0.00 &#45; 34) -->
<g id="node5" class="node"><title>n32 (0.00 &#45; 34)</title>
<ellipse fill="none" stroke="black" cx="279.044" cy="-1651.35" rx="64.189" ry="18"/>
<text text-anchor="middle" x="279.044" y="-1647.65" font-family="Times,serif" font-size="14.00">n32 (0.00 &#45; 34)</text>
</g>
<!-- n33 (0.00 &#45; 35)&#45;&gt;n32 (0.00 &#45; 34) -->
<g id="edge4" class="edge"><title>n33 (0.00 &#45; 35)&#45;&gt;n32 (0.00 &#45; 34)</title>
<path fill="none" stroke="black" d="M224.87,-1705.76C233.889,-1696.87 245.156,-1685.76 255.076,-1675.98"/>
<polygon fill="black" stroke="black" points="257.675,-1678.34 262.339,-1668.82 252.761,-1673.35 257.675,-1678.34"/>
</g>
<!-- KAPPA -->
<g id="node6" class="node"><title>KAPPA</title>
<ellipse fill="none" stroke="black" cx="218.044" cy="-1579.35" rx="39.7935" ry="18"/>
<text text-anchor="middle" x="218.044" y="-1575.65" font-family="Times,serif" font-size="14.00">KAPPA</text>
</g>
<!-- n32 (0.00 &#45; 34)&#45;&gt;KAPPA -->
<g id="edge5" class="edge"><title>n32 (0.00 &#45; 34)&#45;&gt;KAPPA</title>
<path fill="none" stroke="black" d="M264.588,-1633.76C256.881,-1624.92 247.264,-1613.88 238.775,-1604.14"/>
<polygon fill="black" stroke="black" points="241.185,-1601.58 231.977,-1596.34 235.908,-1606.18 241.185,-1601.58"/>
</g>
<!-- n31 (0.00 &#45; 33) -->
<g id="node7" class="node"><title>n31 (0.00 &#45; 33)</title>
<ellipse fill="none" stroke="black" cx="340.044" cy="-1579.35" rx="64.189" ry="18"/>
<text text-anchor="middle" x="340.044" y="-1575.65" font-family="Times,serif" font-size="14.00">n31 (0.00 &#45; 33)</text>
</g>
<!-- n32 (0.00 &#45; 34)&#45;&gt;n31 (0.00 &#45; 33) -->
<g id="edge6" class="edge"><title>n32 (0.00 &#45; 34)&#45;&gt;n31 (0.00 &#45; 33)</title>
<path fill="none" stroke="black" d="M293.501,-1633.76C300.987,-1625.17 310.277,-1614.51 318.583,-1604.98"/>
<polygon fill="black" stroke="black" points="321.337,-1607.15 325.268,-1597.31 316.06,-1602.55 321.337,-1607.15"/>
</g>
<!-- LEVERAGE -->
<g id="node8" class="node"><title>LEVERAGE</title>
<ellipse fill="none" stroke="black" cx="270.044" cy="-1507.35" rx="57.3905" ry="18"/>
<text text-anchor="middle" x="270.044" y="-1503.65" font-family="Times,serif" font-size="14.00">LEVERAGE</text>
</g>
<!-- n31 (0.00 &#45; 33)&#45;&gt;LEVERAGE -->
<g id="edge7" class="edge"><title>n31 (0.00 &#45; 33)&#45;&gt;LEVERAGE</title>
<path fill="none" stroke="black" d="M323.455,-1561.76C314.563,-1552.87 303.455,-1541.76 293.675,-1531.98"/>
<polygon fill="black" stroke="black" points="296.06,-1529.42 286.514,-1524.82 291.111,-1534.37 296.06,-1529.42"/>
</g>
<!-- n30 (0.00 &#45; 32) -->
<g id="node9" class="node"><title>n30 (0.00 &#45; 32)</title>
<ellipse fill="none" stroke="black" cx="410.044" cy="-1507.35" rx="64.189" ry="18"/>
<text text-anchor="middle" x="410.044" y="-1503.65" font-family="Times,serif" font-size="14.00">n30 (0.00 &#45; 32)</text>
</g>
<!-- n31 (0.00 &#45; 33)&#45;&gt;n30 (0.00 &#45; 32) -->
<g id="edge8" class="edge"><title>n31 (0.00 &#45; 33)&#45;&gt;n30 (0.00 &#45; 32)</title>
<path fill="none" stroke="black" d="M356.633,-1561.76C365.525,-1552.87 376.634,-1541.76 386.414,-1531.98"/>
<polygon fill="black" stroke="black" points="388.978,-1534.37 393.574,-1524.82 384.028,-1529.42 388.978,-1534.37"/>
</g>
<!-- IMPLICATION_INDEX -->
<g id="node10" class="node"><title>IMPLICATION_INDEX</title>
<ellipse fill="none" stroke="black" cx="319.044" cy="-1435.35" rx="100.182" ry="18"/>
<text text-anchor="middle" x="319.044" y="-1431.65" font-family="Times,serif" font-size="14.00">IMPLICATION_INDEX</text>
</g>
<!-- n30 (0.00 &#45; 32)&#45;&gt;IMPLICATION_INDEX -->
<g id="edge9" class="edge"><title>n30 (0.00 &#45; 32)&#45;&gt;IMPLICATION_INDEX</title>
<path fill="none" stroke="black" d="M388.938,-1490.12C377.051,-1480.97 362.01,-1469.4 348.928,-1459.34"/>
<polygon fill="black" stroke="black" points="350.728,-1456.31 340.668,-1452.99 346.46,-1461.86 350.728,-1456.31"/>
</g>
<!-- n29 (0.00 &#45; 31) -->
<g id="node11" class="node"><title>n29 (0.00 &#45; 31)</title>
<ellipse fill="none" stroke="black" cx="501.044" cy="-1435.35" rx="64.189" ry="18"/>
<text text-anchor="middle" x="501.044" y="-1431.65" font-family="Times,serif" font-size="14.00">n29 (0.00 &#45; 31)</text>
</g>
<!-- n30 (0.00 &#45; 32)&#45;&gt;n29 (0.00 &#45; 31) -->
<g id="edge10" class="edge"><title>n30 (0.00 &#45; 32)&#45;&gt;n29 (0.00 &#45; 31)</title>
<path fill="none" stroke="black" d="M431.15,-1490.12C443.325,-1480.75 458.807,-1468.84 472.105,-1458.61"/>
<polygon fill="black" stroke="black" points="474.261,-1461.37 480.053,-1452.5 469.993,-1455.82 474.261,-1461.37"/>
</g>
<!-- RELATIVE_RISK -->
<g id="node12" class="node"><title>RELATIVE_RISK</title>
<ellipse fill="none" stroke="black" cx="421.044" cy="-1363.35" rx="77.9862" ry="18"/>
<text text-anchor="middle" x="421.044" y="-1359.65" font-family="Times,serif" font-size="14.00">RELATIVE_RISK</text>
</g>
<!-- n29 (0.00 &#45; 31)&#45;&gt;RELATIVE_RISK -->
<g id="edge11" class="edge"><title>n29 (0.00 &#45; 31)&#45;&gt;RELATIVE_RISK</title>
<path fill="none" stroke="black" d="M482.086,-1417.76C471.724,-1408.7 458.729,-1397.33 447.395,-1387.41"/>
<polygon fill="black" stroke="black" points="449.698,-1384.77 439.867,-1380.82 445.088,-1390.04 449.698,-1384.77"/>
</g>
<!-- n28 (0.00 &#45; 30) -->
<g id="node13" class="node"><title>n28 (0.00 &#45; 30)</title>
<ellipse fill="none" stroke="black" cx="581.044" cy="-1363.35" rx="64.189" ry="18"/>
<text text-anchor="middle" x="581.044" y="-1359.65" font-family="Times,serif" font-size="14.00">n28 (0.00 &#45; 30)</text>
</g>
<!-- n29 (0.00 &#45; 31)&#45;&gt;n28 (0.00 &#45; 30) -->
<g id="edge12" class="edge"><title>n29 (0.00 &#45; 31)&#45;&gt;n28 (0.00 &#45; 30)</title>
<path fill="none" stroke="black" d="M520.003,-1417.76C530.365,-1408.7 543.36,-1397.33 554.693,-1387.41"/>
<polygon fill="black" stroke="black" points="557.001,-1390.04 562.222,-1380.82 552.391,-1384.77 557.001,-1390.04"/>
</g>
<!-- JACCARD -->
<g id="node14" class="node"><title>JACCARD</title>
<ellipse fill="none" stroke="black" cx="514.044" cy="-1291.35" rx="50.8918" ry="18"/>
<text text-anchor="middle" x="514.044" y="-1287.65" font-family="Times,serif" font-size="14.00">JACCARD</text>
</g>
<!-- n28 (0.00 &#45; 30)&#45;&gt;JACCARD -->
<g id="edge13" class="edge"><title>n28 (0.00 &#45; 30)&#45;&gt;JACCARD</title>
<path fill="none" stroke="black" d="M565.166,-1345.76C556.739,-1336.96 546.231,-1325.98 536.938,-1316.27"/>
<polygon fill="black" stroke="black" points="539.252,-1313.63 529.808,-1308.82 534.195,-1318.47 539.252,-1313.63"/>
</g>
<!-- n27 (0.00 &#45; 29) -->
<g id="node15" class="node"><title>n27 (0.00 &#45; 29)</title>
<ellipse fill="none" stroke="black" cx="647.044" cy="-1291.35" rx="64.189" ry="18"/>
<text text-anchor="middle" x="647.044" y="-1287.65" font-family="Times,serif" font-size="14.00">n27 (0.00 &#45; 29)</text>
</g>
<!-- n28 (0.00 &#45; 30)&#45;&gt;n27 (0.00 &#45; 29) -->
<g id="edge14" class="edge"><title>n28 (0.00 &#45; 30)&#45;&gt;n27 (0.00 &#45; 29)</title>
<path fill="none" stroke="black" d="M596.685,-1345.76C604.987,-1336.96 615.338,-1325.98 624.492,-1316.27"/>
<polygon fill="black" stroke="black" points="627.202,-1318.5 631.516,-1308.82 622.109,-1313.7 627.202,-1318.5"/>
</g>
<!-- FISHER_PVAL -->
<g id="node16" class="node"><title>FISHER_PVAL</title>
<ellipse fill="none" stroke="black" cx="572.044" cy="-1219.35" rx="68.4888" ry="18"/>
<text text-anchor="middle" x="572.044" y="-1215.65" font-family="Times,serif" font-size="14.00">FISHER_PVAL</text>
</g>
<!-- n27 (0.00 &#45; 29)&#45;&gt;FISHER_PVAL -->
<g id="edge15" class="edge"><title>n27 (0.00 &#45; 29)&#45;&gt;FISHER_PVAL</title>
<path fill="none" stroke="black" d="M629.27,-1273.76C619.65,-1264.78 607.608,-1253.55 597.055,-1243.7"/>
<polygon fill="black" stroke="black" points="599.389,-1241.09 589.691,-1236.82 594.613,-1246.2 599.389,-1241.09"/>
</g>
<!-- n26 (0.00 &#45; 28) -->
<g id="node17" class="node"><title>n26 (0.00 &#45; 28)</title>
<ellipse fill="none" stroke="black" cx="723.044" cy="-1219.35" rx="64.189" ry="18"/>
<text text-anchor="middle" x="723.044" y="-1215.65" font-family="Times,serif" font-size="14.00">n26 (0.00 &#45; 28)</text>
</g>
<!-- n27 (0.00 &#45; 29)&#45;&gt;n26 (0.00 &#45; 28) -->
<g id="edge16" class="edge"><title>n27 (0.00 &#45; 29)&#45;&gt;n26 (0.00 &#45; 28)</title>
<path fill="none" stroke="black" d="M665.055,-1273.76C674.804,-1264.78 687.007,-1253.55 697.7,-1243.7"/>
<polygon fill="black" stroke="black" points="700.178,-1246.17 705.163,-1236.82 695.436,-1241.02 700.178,-1246.17"/>
</g>
<!-- YULE_Y\nYULE_Q\nODDS_RATIO -->
<g id="node18" class="node"><title>YULE_Y\nYULE_Q\nODDS_RATIO</title>
<ellipse fill="none" stroke="black" cx="646.044" cy="-1127.88" rx="71.3357" ry="37.4533"/>
<text text-anchor="middle" x="646.044" y="-1139.18" font-family="Times,serif" font-size="14.00">YULE_Y</text>
<text text-anchor="middle" x="646.044" y="-1124.18" font-family="Times,serif" font-size="14.00">YULE_Q</text>
<text text-anchor="middle" x="646.044" y="-1109.18" font-family="Times,serif" font-size="14.00">ODDS_RATIO</text>
</g>
<!-- n26 (0.00 &#45; 28)&#45;&gt;YULE_Y\nYULE_Q\nODDS_RATIO -->
<g id="edge17" class="edge"><title>n26 (0.00 &#45; 28)&#45;&gt;YULE_Y\nYULE_Q\nODDS_RATIO</title>
<path fill="none" stroke="black" d="M708.561,-1201.52C700.845,-1192.56 690.985,-1181.1 681.389,-1169.95"/>
<polygon fill="black" stroke="black" points="683.993,-1167.61 674.817,-1162.31 678.687,-1172.17 683.993,-1167.61"/>
</g>
<!-- n25 (0.00 &#45; 25) -->
<g id="node19" class="node"><title>n25 (0.00 &#45; 25)</title>
<ellipse fill="none" stroke="black" cx="800.044" cy="-1127.88" rx="64.189" ry="18"/>
<text text-anchor="middle" x="800.044" y="-1124.18" font-family="Times,serif" font-size="14.00">n25 (0.00 &#45; 25)</text>
</g>
<!-- n26 (0.00 &#45; 28)&#45;&gt;n25 (0.00 &#45; 25) -->
<g id="edge18" class="edge"><title>n26 (0.00 &#45; 28)&#45;&gt;n25 (0.00 &#45; 25)</title>
<path fill="none" stroke="black" d="M737.528,-1201.52C749.25,-1187.9 765.92,-1168.53 779.098,-1153.22"/>
<polygon fill="black" stroke="black" points="781.756,-1155.49 785.626,-1145.63 776.45,-1150.93 781.756,-1155.49"/>
</g>
<!-- GINI\nCHI_SQUARE -->
<g id="node20" class="node"><title>GINI\nCHI_SQUARE</title>
<ellipse fill="none" stroke="black" cx="723.044" cy="-1027.53" rx="71.3357" ry="26.7407"/>
<text text-anchor="middle" x="723.044" y="-1031.33" font-family="Times,serif" font-size="14.00">GINI</text>
<text text-anchor="middle" x="723.044" y="-1016.33" font-family="Times,serif" font-size="14.00">CHI_SQUARE</text>
</g>
<!-- n25 (0.00 &#45; 25)&#45;&gt;GINI\nCHI_SQUARE -->
<g id="edge19" class="edge"><title>n25 (0.00 &#45; 25)&#45;&gt;GINI\nCHI_SQUARE</title>
<path fill="none" stroke="black" d="M786.982,-1110.19C776.606,-1096.94 761.766,-1077.99 748.995,-1061.67"/>
<polygon fill="black" stroke="black" points="751.461,-1059.15 742.54,-1053.43 745.949,-1063.46 751.461,-1059.15"/>
</g>
<!-- n24 (0.00 &#45; 23) -->
<g id="node21" class="node"><title>n24 (0.00 &#45; 23)</title>
<ellipse fill="none" stroke="black" cx="877.044" cy="-1027.53" rx="64.189" ry="18"/>
<text text-anchor="middle" x="877.044" y="-1023.83" font-family="Times,serif" font-size="14.00">n24 (0.00 &#45; 23)</text>
</g>
<!-- n25 (0.00 &#45; 25)&#45;&gt;n24 (0.00 &#45; 23) -->
<g id="edge20" class="edge"><title>n25 (0.00 &#45; 25)&#45;&gt;n24 (0.00 &#45; 23)</title>
<path fill="none" stroke="black" d="M813.106,-1110.19C825.275,-1094.65 843.579,-1071.27 857.489,-1053.51"/>
<polygon fill="black" stroke="black" points="860.509,-1055.33 863.918,-1045.29 854.998,-1051.01 860.509,-1055.33"/>
</g>
<!-- PHI -->
<g id="node22" class="node"><title>PHI</title>
<ellipse fill="none" stroke="black" cx="822.044" cy="-946.659" rx="27" ry="18"/>
<text text-anchor="middle" x="822.044" y="-942.959" font-family="Times,serif" font-size="14.00">PHI</text>
</g>
<!-- n24 (0.00 &#45; 23)&#45;&gt;PHI -->
<g id="edge21" class="edge"><title>n24 (0.00 &#45; 23)&#45;&gt;PHI</title>
<path fill="none" stroke="black" d="M865.38,-1009.8C857.667,-998.741 847.431,-984.064 838.845,-971.751"/>
<polygon fill="black" stroke="black" points="841.534,-969.489 832.943,-963.288 835.793,-973.493 841.534,-969.489"/>
</g>
<!-- n23 (0.00 &#45; 22) -->
<g id="node23" class="node"><title>n23 (0.00 &#45; 22)</title>
<ellipse fill="none" stroke="black" cx="931.044" cy="-946.659" rx="64.189" ry="18"/>
<text text-anchor="middle" x="931.044" y="-942.959" font-family="Times,serif" font-size="14.00">n23 (0.00 &#45; 22)</text>
</g>
<!-- n24 (0.00 &#45; 23)&#45;&gt;n23 (0.00 &#45; 22) -->
<g id="edge22" class="edge"><title>n24 (0.00 &#45; 23)&#45;&gt;n23 (0.00 &#45; 22)</title>
<path fill="none" stroke="black" d="M888.496,-1009.8C895.821,-999.105 905.461,-985.025 913.712,-972.973"/>
<polygon fill="black" stroke="black" points="916.661,-974.862 919.423,-964.633 910.885,-970.907 916.661,-974.862"/>
</g>
<!-- KLOSGEN -->
<g id="node24" class="node"><title>KLOSGEN</title>
<ellipse fill="none" stroke="black" cx="864.044" cy="-874.659" rx="51.9908" ry="18"/>
<text text-anchor="middle" x="864.044" y="-870.959" font-family="Times,serif" font-size="14.00">KLOSGEN</text>
</g>
<!-- n23 (0.00 &#45; 22)&#45;&gt;KLOSGEN -->
<g id="edge23" class="edge"><title>n23 (0.00 &#45; 22)&#45;&gt;KLOSGEN</title>
<path fill="none" stroke="black" d="M915.166,-929.07C906.739,-920.265 896.231,-909.287 886.938,-899.578"/>
<polygon fill="black" stroke="black" points="889.252,-896.933 879.808,-892.129 884.195,-901.773 889.252,-896.933"/>
</g>
<!-- n22 (0.00 &#45; 21) -->
<g id="node25" class="node"><title>n22 (0.00 &#45; 21)</title>
<ellipse fill="none" stroke="black" cx="998.044" cy="-874.659" rx="64.189" ry="18"/>
<text text-anchor="middle" x="998.044" y="-870.959" font-family="Times,serif" font-size="14.00">n22 (0.00 &#45; 21)</text>
</g>
<!-- n23 (0.00 &#45; 22)&#45;&gt;n22 (0.00 &#45; 21) -->
<g id="edge24" class="edge"><title>n23 (0.00 &#45; 22)&#45;&gt;n22 (0.00 &#45; 21)</title>
<path fill="none" stroke="black" d="M946.922,-929.07C955.35,-920.265 965.857,-909.287 975.151,-899.578"/>
<polygon fill="black" stroke="black" points="977.894,-901.773 982.28,-892.129 972.837,-896.933 977.894,-901.773"/>
</g>
<!-- LEAST_CONTRADICTION -->
<g id="node26" class="node"><title>LEAST_CONTRADICTION</title>
<ellipse fill="none" stroke="black" cx="900.044" cy="-802.659" rx="114.28" ry="18"/>
<text text-anchor="middle" x="900.044" y="-798.959" font-family="Times,serif" font-size="14.00">LEAST_CONTRADICTION</text>
</g>
<!-- n22 (0.00 &#45; 21)&#45;&gt;LEAST_CONTRADICTION -->
<g id="edge25" class="edge"><title>n22 (0.00 &#45; 21)&#45;&gt;LEAST_CONTRADICTION</title>
<path fill="none" stroke="black" d="M975.315,-857.424C962.391,-848.192 946.006,-836.489 931.825,-826.359"/>
<polygon fill="black" stroke="black" points="933.503,-823.257 923.331,-820.292 929.434,-828.953 933.503,-823.257"/>
</g>
<!-- n21 (0.00 &#45; 20) -->
<g id="node27" class="node"><title>n21 (0.00 &#45; 20)</title>
<ellipse fill="none" stroke="black" cx="1097.04" cy="-802.659" rx="64.189" ry="18"/>
<text text-anchor="middle" x="1097.04" y="-798.959" font-family="Times,serif" font-size="14.00">n21 (0.00 &#45; 20)</text>
</g>
<!-- n22 (0.00 &#45; 21)&#45;&gt;n21 (0.00 &#45; 20) -->
<g id="edge26" class="edge"><title>n22 (0.00 &#45; 21)&#45;&gt;n21 (0.00 &#45; 20)</title>
<path fill="none" stroke="black" d="M1020.51,-857.775C1033.96,-848.266 1051.25,-836.041 1065.99,-825.618"/>
<polygon fill="black" stroke="black" points="1068.18,-828.354 1074.33,-819.722 1064.14,-822.638 1068.18,-828.354"/>
</g>
<!-- COLLECTIVE_STRENGH -->
<g id="node28" class="node"><title>COLLECTIVE_STRENGH</title>
<ellipse fill="none" stroke="black" cx="1001.04" cy="-730.659" rx="109.681" ry="18"/>
<text text-anchor="middle" x="1001.04" y="-726.959" font-family="Times,serif" font-size="14.00">COLLECTIVE_STRENGH</text>
</g>
<!-- n21 (0.00 &#45; 20)&#45;&gt;COLLECTIVE_STRENGH -->
<g id="edge27" class="edge"><title>n21 (0.00 &#45; 20)&#45;&gt;COLLECTIVE_STRENGH</title>
<path fill="none" stroke="black" d="M1074.78,-785.424C1062.12,-776.192 1046.07,-764.489 1032.18,-754.359"/>
<polygon fill="black" stroke="black" points="1034,-751.356 1023.86,-748.292 1029.87,-757.012 1034,-751.356"/>
</g>
<!-- n20 (0.00 &#45; 19) -->
<g id="node29" class="node"><title>n20 (0.00 &#45; 19)</title>
<ellipse fill="none" stroke="black" cx="1193.04" cy="-730.659" rx="64.189" ry="18"/>
<text text-anchor="middle" x="1193.04" y="-726.959" font-family="Times,serif" font-size="14.00">n20 (0.00 &#45; 19)</text>
</g>
<!-- n21 (0.00 &#45; 20)&#45;&gt;n20 (0.00 &#45; 19) -->
<g id="edge28" class="edge"><title>n21 (0.00 &#45; 20)&#45;&gt;n20 (0.00 &#45; 19)</title>
<path fill="none" stroke="black" d="M1119.31,-785.424C1132.15,-776.059 1148.49,-764.149 1162.51,-753.92"/>
<polygon fill="black" stroke="black" points="1164.88,-756.526 1170.9,-747.806 1160.76,-750.87 1164.88,-756.526"/>
</g>
<!-- COSINE -->
<g id="node30" class="node"><title>COSINE</title>
<ellipse fill="none" stroke="black" cx="1130.04" cy="-658.659" rx="42.4939" ry="18"/>
<text text-anchor="middle" x="1130.04" y="-654.959" font-family="Times,serif" font-size="14.00">COSINE</text>
</g>
<!-- n20 (0.00 &#45; 19)&#45;&gt;COSINE -->
<g id="edge29" class="edge"><title>n20 (0.00 &#45; 19)&#45;&gt;COSINE</title>
<path fill="none" stroke="black" d="M1178.11,-713.07C1170.08,-704.138 1160.02,-692.969 1151.19,-683.157"/>
<polygon fill="black" stroke="black" points="1153.72,-680.739 1144.43,-675.647 1148.52,-685.421 1153.72,-680.739"/>
</g>
<!-- n19 (0.00 &#45; 18) -->
<g id="node31" class="node"><title>n19 (0.00 &#45; 18)</title>
<ellipse fill="none" stroke="black" cx="1255.04" cy="-658.659" rx="64.189" ry="18"/>
<text text-anchor="middle" x="1255.04" y="-654.959" font-family="Times,serif" font-size="14.00">n19 (0.00 &#45; 18)</text>
</g>
<!-- n20 (0.00 &#45; 19)&#45;&gt;n19 (0.00 &#45; 18) -->
<g id="edge30" class="edge"><title>n20 (0.00 &#45; 19)&#45;&gt;n19 (0.00 &#45; 18)</title>
<path fill="none" stroke="black" d="M1207.74,-713.07C1215.35,-704.479 1224.79,-693.818 1233.23,-684.286"/>
<polygon fill="black" stroke="black" points="1236.02,-686.422 1240.03,-676.615 1230.78,-681.78 1236.02,-686.422"/>
</g>
<!-- J_MEASURE -->
<g id="node32" class="node"><title>J_MEASURE</title>
<ellipse fill="none" stroke="black" cx="1184.04" cy="-586.659" rx="61.1893" ry="18"/>
<text text-anchor="middle" x="1184.04" y="-582.959" font-family="Times,serif" font-size="14.00">J_MEASURE</text>
</g>
<!-- n19 (0.00 &#45; 18)&#45;&gt;J_MEASURE -->
<g id="edge31" class="edge"><title>n19 (0.00 &#45; 18)&#45;&gt;J_MEASURE</title>
<path fill="none" stroke="black" d="M1238.22,-641.07C1229.2,-632.178 1217.93,-621.07 1208.01,-611.29"/>
<polygon fill="black" stroke="black" points="1210.33,-608.657 1200.75,-604.129 1205.41,-613.642 1210.33,-608.657"/>
</g>
<!-- n18 (0.00 &#45; 17) -->
<g id="node33" class="node"><title>n18 (0.00 &#45; 17)</title>
<ellipse fill="none" stroke="black" cx="1327.04" cy="-586.659" rx="64.189" ry="18"/>
<text text-anchor="middle" x="1327.04" y="-582.959" font-family="Times,serif" font-size="14.00">n18 (0.00 &#45; 17)</text>
</g>
<!-- n19 (0.00 &#45; 18)&#45;&gt;n18 (0.00 &#45; 17) -->
<g id="edge32" class="edge"><title>n19 (0.00 &#45; 18)&#45;&gt;n18 (0.00 &#45; 17)</title>
<path fill="none" stroke="black" d="M1272.11,-641.07C1281.25,-632.178 1292.68,-621.07 1302.74,-611.29"/>
<polygon fill="black" stroke="black" points="1305.37,-613.609 1310.1,-604.129 1300.49,-608.59 1305.37,-613.609"/>
</g>
<!-- PIATETSKY_SHAPIRO -->
<g id="node34" class="node"><title>PIATETSKY_SHAPIRO</title>
<ellipse fill="none" stroke="black" cx="1236.04" cy="-514.659" rx="100.983" ry="18"/>
<text text-anchor="middle" x="1236.04" y="-510.959" font-family="Times,serif" font-size="14.00">PIATETSKY_SHAPIRO</text>
</g>
<!-- n18 (0.00 &#45; 17)&#45;&gt;PIATETSKY_SHAPIRO -->
<g id="edge33" class="edge"><title>n18 (0.00 &#45; 17)&#45;&gt;PIATETSKY_SHAPIRO</title>
<path fill="none" stroke="black" d="M1305.94,-569.424C1294.05,-560.279 1279.01,-548.709 1265.93,-538.647"/>
<polygon fill="black" stroke="black" points="1267.73,-535.615 1257.67,-532.292 1263.46,-541.164 1267.73,-535.615"/>
</g>
<!-- n17 (0.00 &#45; 16) -->
<g id="node35" class="node"><title>n17 (0.00 &#45; 16)</title>
<ellipse fill="none" stroke="black" cx="1419.04" cy="-514.659" rx="64.189" ry="18"/>
<text text-anchor="middle" x="1419.04" y="-510.959" font-family="Times,serif" font-size="14.00">n17 (0.00 &#45; 16)</text>
</g>
<!-- n18 (0.00 &#45; 17)&#45;&gt;n17 (0.00 &#45; 16) -->
<g id="edge34" class="edge"><title>n18 (0.00 &#45; 17)&#45;&gt;n17 (0.00 &#45; 16)</title>
<path fill="none" stroke="black" d="M1348.38,-569.424C1360.69,-560.059 1376.34,-548.149 1389.79,-537.92"/>
<polygon fill="black" stroke="black" points="1391.98,-540.647 1397.82,-531.806 1387.74,-535.076 1391.98,-540.647"/>
</g>
<!-- TWO_WAY_SUPPORT -->
<g id="node36" class="node"><title>TWO_WAY_SUPPORT</title>
<ellipse fill="none" stroke="black" cx="1328.04" cy="-442.659" rx="100.182" ry="18"/>
<text text-anchor="middle" x="1328.04" y="-438.959" font-family="Times,serif" font-size="14.00">TWO_WAY_SUPPORT</text>
</g>
<!-- n17 (0.00 &#45; 16)&#45;&gt;TWO_WAY_SUPPORT -->
<g id="edge35" class="edge"><title>n17 (0.00 &#45; 16)&#45;&gt;TWO_WAY_SUPPORT</title>
<path fill="none" stroke="black" d="M1397.94,-497.424C1386.05,-488.279 1371.01,-476.709 1357.93,-466.647"/>
<polygon fill="black" stroke="black" points="1359.73,-463.615 1349.67,-460.292 1355.46,-469.164 1359.73,-463.615"/>
</g>
<!-- n16 (0.00 &#45; 15) -->
<g id="node37" class="node"><title>n16 (0.00 &#45; 15)</title>
<ellipse fill="none" stroke="black" cx="1510.04" cy="-442.659" rx="64.189" ry="18"/>
<text text-anchor="middle" x="1510.04" y="-438.959" font-family="Times,serif" font-size="14.00">n16 (0.00 &#45; 15)</text>
</g>
<!-- n17 (0.00 &#45; 16)&#45;&gt;n16 (0.00 &#45; 15) -->
<g id="edge36" class="edge"><title>n17 (0.00 &#45; 16)&#45;&gt;n16 (0.00 &#45; 15)</title>
<path fill="none" stroke="black" d="M1440.15,-497.424C1452.32,-488.059 1467.81,-476.149 1481.1,-465.92"/>
<polygon fill="black" stroke="black" points="1483.26,-468.678 1489.05,-459.806 1478.99,-463.129 1483.26,-468.678"/>
</g>
<!-- TWO_WAY_SUPPORT_VARIATION -->
<g id="node38" class="node"><title>TWO_WAY_SUPPORT_VARIATION</title>
<ellipse fill="none" stroke="black" cx="1392.04" cy="-370.659" rx="153.273" ry="18"/>
<text text-anchor="middle" x="1392.04" y="-366.959" font-family="Times,serif" font-size="14.00">TWO_WAY_SUPPORT_VARIATION</text>
</g>
<!-- n16 (0.00 &#45; 15)&#45;&gt;TWO_WAY_SUPPORT_VARIATION -->
<g id="edge37" class="edge"><title>n16 (0.00 &#45; 15)&#45;&gt;TWO_WAY_SUPPORT_VARIATION</title>
<path fill="none" stroke="black" d="M1483.86,-426.124C1467.78,-416.588 1446.94,-404.227 1429.18,-393.691"/>
<polygon fill="black" stroke="black" points="1430.61,-390.465 1420.22,-388.373 1427.03,-396.485 1430.61,-390.465"/>
</g>
<!-- n15 (0.00 &#45; 14) -->
<g id="node39" class="node"><title>n15 (0.00 &#45; 14)</title>
<ellipse fill="none" stroke="black" cx="1628.04" cy="-370.659" rx="64.189" ry="18"/>
<text text-anchor="middle" x="1628.04" y="-366.959" font-family="Times,serif" font-size="14.00">n15 (0.00 &#45; 14)</text>
</g>
<!-- n16 (0.00 &#45; 15)&#45;&gt;n15 (0.00 &#45; 14) -->
<g id="edge38" class="edge"><title>n16 (0.00 &#45; 15)&#45;&gt;n15 (0.00 &#45; 14)</title>
<path fill="none" stroke="black" d="M1536.23,-426.124C1553.04,-416.155 1575.05,-403.097 1593.31,-392.266"/>
<polygon fill="black" stroke="black" points="1595.11,-395.263 1601.93,-387.151 1591.54,-389.243 1595.11,-395.263"/>
</g>
<!-- RECALL -->
<g id="node40" class="node"><title>RECALL</title>
<ellipse fill="none" stroke="black" cx="1564.04" cy="-298.659" rx="44.6926" ry="18"/>
<text text-anchor="middle" x="1564.04" y="-294.959" font-family="Times,serif" font-size="14.00">RECALL</text>
</g>
<!-- n15 (0.00 &#45; 14)&#45;&gt;RECALL -->
<g id="edge39" class="edge"><title>n15 (0.00 &#45; 14)&#45;&gt;RECALL</title>
<path fill="none" stroke="black" d="M1612.88,-353.07C1604.83,-344.265 1594.79,-333.287 1585.91,-323.578"/>
<polygon fill="black" stroke="black" points="1588.43,-321.148 1579.1,-316.129 1583.27,-325.871 1588.43,-321.148"/>
</g>
<!-- n14 (0.50 &#45; 13) -->
<g id="node41" class="node"><title>n14 (0.50 &#45; 13)</title>
<ellipse fill="none" stroke="black" cx="1691.04" cy="-298.659" rx="64.189" ry="18"/>
<text text-anchor="middle" x="1691.04" y="-294.959" font-family="Times,serif" font-size="14.00">n14 (0.50 &#45; 13)</text>
</g>
<!-- n15 (0.00 &#45; 14)&#45;&gt;n14 (0.50 &#45; 13) -->
<g id="edge40" class="edge"><title>n15 (0.00 &#45; 14)&#45;&gt;n14 (0.50 &#45; 13)</title>
<path fill="none" stroke="black" d="M1642.97,-353.07C1650.71,-344.479 1660.3,-333.818 1668.88,-324.286"/>
<polygon fill="black" stroke="black" points="1671.7,-326.39 1675.78,-316.615 1666.49,-321.707 1671.7,-326.39"/>
</g>
<!-- ONE_WAY_SUPPORT\nODD_MULTIPLIER -->
<g id="node42" class="node"><title>ONE_WAY_SUPPORT\nODD_MULTIPLIER</title>
<ellipse fill="none" stroke="black" cx="1561.04" cy="-122.329" rx="106.132" ry="26.7407"/>
<text text-anchor="middle" x="1561.04" y="-126.129" font-family="Times,serif" font-size="14.00">ONE_WAY_SUPPORT</text>
<text text-anchor="middle" x="1561.04" y="-111.129" font-family="Times,serif" font-size="14.00">ODD_MULTIPLIER</text>
</g>
<!-- n14 (0.50 &#45; 13)&#45;&gt;ONE_WAY_SUPPORT\nODD_MULTIPLIER -->
<g id="edge41" class="edge"><title>n14 (0.50 &#45; 13)&#45;&gt;ONE_WAY_SUPPORT\nODD_MULTIPLIER</title>
<path fill="none" stroke="black" d="M1678.58,-280.944C1657.37,-252.5 1613.87,-194.164 1586.15,-156.994"/>
<polygon fill="black" stroke="black" points="1588.93,-154.87 1580.15,-148.946 1583.32,-159.054 1588.93,-154.87"/>
</g>
<!-- LOEVINGER\nSEBAG_SCHOENAUER\nCONVICTION\nCOUNTER_EXAMPLE_RATE\nZHANG\nBAYES\nCENTERED_CONFIDENCE\nCERTAINTY_FACTOR\nADDED_VALUE\nLIFT\nCONFIDENCE -->
<g id="node43" class="node"><title>LOEVINGER\nSEBAG_SCHOENAUER\nCONVICTION\nCOUNTER_EXAMPLE_RATE\nZHANG\nBAYES\nCENTERED_CONFIDENCE\nCERTAINTY_FACTOR\nADDED_VALUE\nLIFT\nCONFIDENCE</title>
<ellipse fill="none" stroke="black" cx="1822.04" cy="-122.329" rx="137.358" ry="122.159"/>
<text text-anchor="middle" x="1822.04" y="-193.629" font-family="Times,serif" font-size="14.00">LOEVINGER</text>
<text text-anchor="middle" x="1822.04" y="-178.629" font-family="Times,serif" font-size="14.00">SEBAG_SCHOENAUER</text>
<text text-anchor="middle" x="1822.04" y="-163.629" font-family="Times,serif" font-size="14.00">CONVICTION</text>
<text text-anchor="middle" x="1822.04" y="-148.629" font-family="Times,serif" font-size="14.00">COUNTER_EXAMPLE_RATE</text>
<text text-anchor="middle" x="1822.04" y="-133.629" font-family="Times,serif" font-size="14.00">ZHANG</text>
<text text-anchor="middle" x="1822.04" y="-118.629" font-family="Times,serif" font-size="14.00">BAYES</text>
<text text-anchor="middle" x="1822.04" y="-103.629" font-family="Times,serif" font-size="14.00">CENTERED_CONFIDENCE</text>
<text text-anchor="middle" x="1822.04" y="-88.6295" font-family="Times,serif" font-size="14.00">CERTAINTY_FACTOR</text>
<text text-anchor="middle" x="1822.04" y="-73.6295" font-family="Times,serif" font-size="14.00">ADDED_VALUE</text>
<text text-anchor="middle" x="1822.04" y="-58.6295" font-family="Times,serif" font-size="14.00">LIFT</text>
<text text-anchor="middle" x="1822.04" y="-43.6295" font-family="Times,serif" font-size="14.00">CONFIDENCE</text>
</g>
<!-- n14 (0.50 &#45; 13)&#45;&gt;LOEVINGER\nSEBAG_SCHOENAUER\nCONVICTION\nCOUNTER_EXAMPLE_RATE\nZHANG\nBAYES\nCENTERED_CONFIDENCE\nCERTAINTY_FACTOR\nADDED_VALUE\nLIFT\nCONFIDENCE -->
<g id="edge42" class="edge"><title>n14 (0.50 &#45; 13)&#45;&gt;LOEVINGER\nSEBAG_SCHOENAUER\nCONVICTION\nCOUNTER_EXAMPLE_RATE\nZHANG\nBAYES\nCENTERED_CONFIDENCE\nCERTAINTY_FACTOR\nADDED_VALUE\nLIFT\nCONFIDENCE</title>
<path fill="none" stroke="black" d="M1703.61,-280.944C1712.63,-268.938 1725.65,-251.607 1739.79,-232.789"/>
<polygon fill="black" stroke="black" points="1742.7,-234.742 1745.91,-224.645 1737.11,-230.537 1742.7,-234.742"/>
</g>
</g>
</svg>
