<?xml version="1.0" encoding="UTF-8" standalone="no"?>
<!DOCTYPE svg PUBLIC "-//W3C//DTD SVG 1.1//EN"
 "http://www.w3.org/Graphics/SVG/1.1/DTD/svg11.dtd">
<!-- Generated by graphviz version 2.38.0 (20140413.2041)
 -->
<!-- Title: dendrogram Pages: 1 -->
<svg width="2667pt" height="1931pt"
 viewBox="0.00 0.00 2666.96 1931.29" xmlns="http://www.w3.org/2000/svg" xmlns:xlink="http://www.w3.org/1999/xlink">
<g id="graph0" class="graph" transform="scale(1 1) rotate(0) translate(4 1927.29)">
<title>dendrogram</title>
<polygon fill="white" stroke="none" points="-4,4 -4,-1927.29 2662.96,-1927.29 2662.96,4 -4,4"/>
<!-- n34 (0.00 &#45; 36) -->
<g id="node1" class="node"><title>n34 (0.00 &#45; 36)</title>
<ellipse fill="none" stroke="black" cx="349.39" cy="-1905.29" rx="64.189" ry="18"/>
<text text-anchor="middle" x="349.39" y="-1901.59" font-family="Times,serif" font-size="14.00">n34 (0.00 &#45; 36)</text>
</g>
<!-- SPECIFICITY -->
<g id="node2" class="node"><title>SPECIFICITY</title>
<ellipse fill="none" stroke="black" cx="277.39" cy="-1833.29" rx="63.0888" ry="18"/>
<text text-anchor="middle" x="277.39" y="-1829.59" font-family="Times,serif" font-size="14.00">SPECIFICITY</text>
</g>
<!-- n34 (0.00 &#45; 36)&#45;&gt;SPECIFICITY -->
<g id="edge1" class="edge"><title>n34 (0.00 &#45; 36)&#45;&gt;SPECIFICITY</title>
<path fill="none" stroke="black" d="M332.327,-1887.7C323.181,-1878.81 311.755,-1867.7 301.696,-1857.92"/>
<polygon fill="black" stroke="black" points="303.94,-1855.22 294.33,-1850.76 299.061,-1860.24 303.94,-1855.22"/>
</g>
<!-- n33 (0.00 &#45; 35) -->
<g id="node3" class="node"><title>n33 (0.00 &#45; 35)</title>
<ellipse fill="none" stroke="black" cx="422.39" cy="-1833.29" rx="64.189" ry="18"/>
<text text-anchor="middle" x="422.39" y="-1829.59" font-family="Times,serif" font-size="14.00">n33 (0.00 &#45; 35)</text>
</g>
<!-- n34 (0.00 &#45; 36)&#45;&gt;n33 (0.00 &#45; 35) -->
<g id="edge2" class="edge"><title>n34 (0.00 &#45; 36)&#45;&gt;n33 (0.00 &#45; 35)</title>
<path fill="none" stroke="black" d="M366.69,-1887.7C375.963,-1878.81 387.547,-1867.7 397.746,-1857.92"/>
<polygon fill="black" stroke="black" points="400.419,-1860.2 405.214,-1850.76 395.574,-1855.15 400.419,-1860.2"/>
</g>
<!-- n14 (0.55 &#45; 2) -->
<g id="node4" class="node"><title>n14 (0.55 &#45; 2)</title>
<ellipse fill="none" stroke="black" cx="306.39" cy="-1761.29" rx="59.5901" ry="18"/>
<text text-anchor="middle" x="306.39" y="-1757.59" font-family="Times,serif" font-size="14.00">n14 (0.55 &#45; 2)</text>
</g>
<!-- n33 (0.00 &#45; 35)&#45;&gt;n14 (0.55 &#45; 2) -->
<g id="edge3" class="edge"><title>n33 (0.00 &#45; 35)&#45;&gt;n14 (0.55 &#45; 2)</title>
<path fill="none" stroke="black" d="M396.646,-1816.75C380.276,-1806.87 358.88,-1793.96 341.029,-1783.19"/>
<polygon fill="black" stroke="black" points="342.432,-1779.95 332.062,-1777.78 338.816,-1785.94 342.432,-1779.95"/>
</g>
<!-- n32 (0.00 &#45; 33) -->
<g id="node7" class="node"><title>n32 (0.00 &#45; 33)</title>
<ellipse fill="none" stroke="black" cx="537.39" cy="-1761.29" rx="64.189" ry="18"/>
<text text-anchor="middle" x="537.39" y="-1757.59" font-family="Times,serif" font-size="14.00">n32 (0.00 &#45; 33)</text>
</g>
<!-- n33 (0.00 &#45; 35)&#45;&gt;n32 (0.00 &#45; 33) -->
<g id="edge6" class="edge"><title>n33 (0.00 &#45; 35)&#45;&gt;n32 (0.00 &#45; 33)</title>
<path fill="none" stroke="black" d="M447.912,-1816.75C464.028,-1806.94 485.058,-1794.14 502.681,-1783.41"/>
<polygon fill="black" stroke="black" points="504.819,-1786.21 511.541,-1778.02 501.179,-1780.23 504.819,-1786.21"/>
</g>
<!-- LEAST_CONTRADICTION -->
<g id="node5" class="node"><title>LEAST_CONTRADICTION</title>
<ellipse fill="none" stroke="black" cx="114.39" cy="-1689.29" rx="114.28" ry="18"/>
<text text-anchor="middle" x="114.39" y="-1685.59" font-family="Times,serif" font-size="14.00">LEAST_CONTRADICTION</text>
</g>
<!-- n14 (0.55 &#45; 2)&#45;&gt;LEAST_CONTRADICTION -->
<g id="edge4" class="edge"><title>n14 (0.55 &#45; 2)&#45;&gt;LEAST_CONTRADICTION</title>
<path fill="none" stroke="black" d="M269.824,-1746.96C240.71,-1736.34 199.572,-1721.34 166.931,-1709.44"/>
<polygon fill="black" stroke="black" points="168.127,-1706.15 157.533,-1706.02 165.729,-1712.73 168.127,-1706.15"/>
</g>
<!-- ACCURACY -->
<g id="node6" class="node"><title>ACCURACY</title>
<ellipse fill="none" stroke="black" cx="306.39" cy="-1689.29" rx="59.5901" ry="18"/>
<text text-anchor="middle" x="306.39" y="-1685.59" font-family="Times,serif" font-size="14.00">ACCURACY</text>
</g>
<!-- n14 (0.55 &#45; 2)&#45;&gt;ACCURACY -->
<g id="edge5" class="edge"><title>n14 (0.55 &#45; 2)&#45;&gt;ACCURACY</title>
<path fill="none" stroke="black" d="M306.39,-1742.98C306.39,-1735.27 306.39,-1726 306.39,-1717.4"/>
<polygon fill="black" stroke="black" points="309.89,-1717.39 306.39,-1707.39 302.89,-1717.39 309.89,-1717.39"/>
</g>
<!-- TWO_WAY_SUPPORT_VARIATION -->
<g id="node8" class="node"><title>TWO_WAY_SUPPORT_VARIATION</title>
<ellipse fill="none" stroke="black" cx="537.39" cy="-1689.29" rx="153.273" ry="18"/>
<text text-anchor="middle" x="537.39" y="-1685.59" font-family="Times,serif" font-size="14.00">TWO_WAY_SUPPORT_VARIATION</text>
</g>
<!-- n32 (0.00 &#45; 33)&#45;&gt;TWO_WAY_SUPPORT_VARIATION -->
<g id="edge7" class="edge"><title>n32 (0.00 &#45; 33)&#45;&gt;TWO_WAY_SUPPORT_VARIATION</title>
<path fill="none" stroke="black" d="M537.39,-1742.98C537.39,-1735.27 537.39,-1726 537.39,-1717.4"/>
<polygon fill="black" stroke="black" points="540.89,-1717.39 537.39,-1707.39 533.89,-1717.39 540.89,-1717.39"/>
</g>
<!-- n31 (0.00 &#45; 32) -->
<g id="node9" class="node"><title>n31 (0.00 &#45; 32)</title>
<ellipse fill="none" stroke="black" cx="773.39" cy="-1689.29" rx="64.189" ry="18"/>
<text text-anchor="middle" x="773.39" y="-1685.59" font-family="Times,serif" font-size="14.00">n31 (0.00 &#45; 32)</text>
</g>
<!-- n32 (0.00 &#45; 33)&#45;&gt;n31 (0.00 &#45; 32) -->
<g id="edge8" class="edge"><title>n32 (0.00 &#45; 33)&#45;&gt;n31 (0.00 &#45; 32)</title>
<path fill="none" stroke="black" d="M579.854,-1747.69C619.498,-1735.93 678.765,-1718.35 721.261,-1705.75"/>
<polygon fill="black" stroke="black" points="722.277,-1709.1 730.869,-1702.9 720.286,-1702.39 722.277,-1709.1"/>
</g>
<!-- LEVERAGE -->
<g id="node10" class="node"><title>LEVERAGE</title>
<ellipse fill="none" stroke="black" cx="703.39" cy="-1617.29" rx="57.3905" ry="18"/>
<text text-anchor="middle" x="703.39" y="-1613.59" font-family="Times,serif" font-size="14.00">LEVERAGE</text>
</g>
<!-- n31 (0.00 &#45; 32)&#45;&gt;LEVERAGE -->
<g id="edge9" class="edge"><title>n31 (0.00 &#45; 32)&#45;&gt;LEVERAGE</title>
<path fill="none" stroke="black" d="M756.801,-1671.7C747.909,-1662.81 736.801,-1651.7 727.021,-1641.92"/>
<polygon fill="black" stroke="black" points="729.406,-1639.35 719.86,-1634.76 724.456,-1644.3 729.406,-1639.35"/>
</g>
<!-- n30 (0.00 &#45; 31) -->
<g id="node11" class="node"><title>n30 (0.00 &#45; 31)</title>
<ellipse fill="none" stroke="black" cx="843.39" cy="-1617.29" rx="64.189" ry="18"/>
<text text-anchor="middle" x="843.39" y="-1613.59" font-family="Times,serif" font-size="14.00">n30 (0.00 &#45; 31)</text>
</g>
<!-- n31 (0.00 &#45; 32)&#45;&gt;n30 (0.00 &#45; 31) -->
<g id="edge10" class="edge"><title>n31 (0.00 &#45; 32)&#45;&gt;n30 (0.00 &#45; 31)</title>
<path fill="none" stroke="black" d="M789.979,-1671.7C798.871,-1662.81 809.979,-1651.7 819.759,-1641.92"/>
<polygon fill="black" stroke="black" points="822.324,-1644.3 826.92,-1634.76 817.374,-1639.35 822.324,-1644.3"/>
</g>
<!-- IMPLICATION_INDEX -->
<g id="node12" class="node"><title>IMPLICATION_INDEX</title>
<ellipse fill="none" stroke="black" cx="752.39" cy="-1545.29" rx="100.182" ry="18"/>
<text text-anchor="middle" x="752.39" y="-1541.59" font-family="Times,serif" font-size="14.00">IMPLICATION_INDEX</text>
</g>
<!-- n30 (0.00 &#45; 31)&#45;&gt;IMPLICATION_INDEX -->
<g id="edge11" class="edge"><title>n30 (0.00 &#45; 31)&#45;&gt;IMPLICATION_INDEX</title>
<path fill="none" stroke="black" d="M822.284,-1600.05C810.397,-1590.91 795.355,-1579.34 782.274,-1569.27"/>
<polygon fill="black" stroke="black" points="784.074,-1566.24 774.013,-1562.92 779.806,-1571.79 784.074,-1566.24"/>
</g>
<!-- n29 (0.00 &#45; 30) -->
<g id="node13" class="node"><title>n29 (0.00 &#45; 30)</title>
<ellipse fill="none" stroke="black" cx="934.39" cy="-1545.29" rx="64.189" ry="18"/>
<text text-anchor="middle" x="934.39" y="-1541.59" font-family="Times,serif" font-size="14.00">n29 (0.00 &#45; 30)</text>
</g>
<!-- n30 (0.00 &#45; 31)&#45;&gt;n29 (0.00 &#45; 30) -->
<g id="edge12" class="edge"><title>n30 (0.00 &#45; 31)&#45;&gt;n29 (0.00 &#45; 30)</title>
<path fill="none" stroke="black" d="M864.496,-1600.05C876.67,-1590.69 892.153,-1578.78 905.45,-1568.55"/>
<polygon fill="black" stroke="black" points="907.606,-1571.31 913.398,-1562.43 903.338,-1565.76 907.606,-1571.31"/>
</g>
<!-- n16 (0.28 &#45; 4) -->
<g id="node14" class="node"><title>n16 (0.28 &#45; 4)</title>
<ellipse fill="none" stroke="black" cx="863.39" cy="-1473.29" rx="59.5901" ry="18"/>
<text text-anchor="middle" x="863.39" y="-1469.59" font-family="Times,serif" font-size="14.00">n16 (0.28 &#45; 4)</text>
</g>
<!-- n29 (0.00 &#45; 30)&#45;&gt;n16 (0.28 &#45; 4) -->
<g id="edge13" class="edge"><title>n29 (0.00 &#45; 30)&#45;&gt;n16 (0.28 &#45; 4)</title>
<path fill="none" stroke="black" d="M917.564,-1527.7C908.545,-1518.81 897.278,-1507.7 887.358,-1497.92"/>
<polygon fill="black" stroke="black" points="889.673,-1495.28 880.095,-1490.76 884.759,-1500.27 889.673,-1495.28"/>
</g>
<!-- n28 (0.00 &#45; 26) -->
<g id="node17" class="node"><title>n28 (0.00 &#45; 26)</title>
<ellipse fill="none" stroke="black" cx="1005.39" cy="-1473.29" rx="64.189" ry="18"/>
<text text-anchor="middle" x="1005.39" y="-1469.59" font-family="Times,serif" font-size="14.00">n28 (0.00 &#45; 26)</text>
</g>
<!-- n29 (0.00 &#45; 30)&#45;&gt;n28 (0.00 &#45; 26) -->
<g id="edge16" class="edge"><title>n29 (0.00 &#45; 30)&#45;&gt;n28 (0.00 &#45; 26)</title>
<path fill="none" stroke="black" d="M951.216,-1527.7C960.235,-1518.81 971.502,-1507.7 981.421,-1497.92"/>
<polygon fill="black" stroke="black" points="984.021,-1500.27 988.685,-1490.76 979.106,-1495.28 984.021,-1500.27"/>
</g>
<!-- RELATIVE_RISK -->
<g id="node15" class="node"><title>RELATIVE_RISK</title>
<ellipse fill="none" stroke="black" cx="697.39" cy="-1381.81" rx="77.9862" ry="18"/>
<text text-anchor="middle" x="697.39" y="-1378.11" font-family="Times,serif" font-size="14.00">RELATIVE_RISK</text>
</g>
<!-- n16 (0.28 &#45; 4)&#45;&gt;RELATIVE_RISK -->
<g id="edge14" class="edge"><title>n16 (0.28 &#45; 4)&#45;&gt;RELATIVE_RISK</title>
<path fill="none" stroke="black" d="M835.605,-1457.31C808.253,-1442.57 766.261,-1419.93 735.739,-1403.48"/>
<polygon fill="black" stroke="black" points="737.127,-1400.25 726.664,-1398.59 733.806,-1406.41 737.127,-1400.25"/>
</g>
<!-- YULE_Y\nYULE_Q\nODDS_RATIO -->
<g id="node16" class="node"><title>YULE_Y\nYULE_Q\nODDS_RATIO</title>
<ellipse fill="none" stroke="black" cx="864.39" cy="-1381.81" rx="71.3357" ry="37.4533"/>
<text text-anchor="middle" x="864.39" y="-1393.11" font-family="Times,serif" font-size="14.00">YULE_Y</text>
<text text-anchor="middle" x="864.39" y="-1378.11" font-family="Times,serif" font-size="14.00">YULE_Q</text>
<text text-anchor="middle" x="864.39" y="-1363.11" font-family="Times,serif" font-size="14.00">ODDS_RATIO</text>
</g>
<!-- n16 (0.28 &#45; 4)&#45;&gt;YULE_Y\nYULE_Q\nODDS_RATIO -->
<g id="edge15" class="edge"><title>n16 (0.28 &#45; 4)&#45;&gt;YULE_Y\nYULE_Q\nODDS_RATIO</title>
<path fill="none" stroke="black" d="M863.583,-1455.03C863.664,-1447.73 863.764,-1438.83 863.865,-1429.8"/>
<polygon fill="black" stroke="black" points="867.366,-1429.68 863.978,-1419.64 860.367,-1429.6 867.366,-1429.68"/>
</g>
<!-- JACCARD -->
<g id="node18" class="node"><title>JACCARD</title>
<ellipse fill="none" stroke="black" cx="1005.39" cy="-1381.81" rx="50.8918" ry="18"/>
<text text-anchor="middle" x="1005.39" y="-1378.11" font-family="Times,serif" font-size="14.00">JACCARD</text>
</g>
<!-- n28 (0.00 &#45; 26)&#45;&gt;JACCARD -->
<g id="edge17" class="edge"><title>n28 (0.00 &#45; 26)&#45;&gt;JACCARD</title>
<path fill="none" stroke="black" d="M1005.39,-1455.03C1005.39,-1442.28 1005.39,-1424.67 1005.39,-1410.03"/>
<polygon fill="black" stroke="black" points="1008.89,-1410.01 1005.39,-1400.01 1001.89,-1410.01 1008.89,-1410.01"/>
</g>
<!-- n27 (0.00 &#45; 25) -->
<g id="node19" class="node"><title>n27 (0.00 &#45; 25)</title>
<ellipse fill="none" stroke="black" cx="1138.39" cy="-1381.81" rx="64.189" ry="18"/>
<text text-anchor="middle" x="1138.39" y="-1378.11" font-family="Times,serif" font-size="14.00">n27 (0.00 &#45; 25)</text>
</g>
<!-- n28 (0.00 &#45; 26)&#45;&gt;n27 (0.00 &#45; 25) -->
<g id="edge18" class="edge"><title>n28 (0.00 &#45; 26)&#45;&gt;n27 (0.00 &#45; 25)</title>
<path fill="none" stroke="black" d="M1028.86,-1456.5C1050.38,-1442.02 1082.43,-1420.45 1106.31,-1404.39"/>
<polygon fill="black" stroke="black" points="1108.36,-1407.23 1114.71,-1398.74 1104.45,-1401.42 1108.36,-1407.23"/>
</g>
<!-- FISHER_PVAL -->
<g id="node20" class="node"><title>FISHER_PVAL</title>
<ellipse fill="none" stroke="black" cx="1062.39" cy="-1290.33" rx="68.4888" ry="18"/>
<text text-anchor="middle" x="1062.39" y="-1286.63" font-family="Times,serif" font-size="14.00">FISHER_PVAL</text>
</g>
<!-- n27 (0.00 &#45; 25)&#45;&gt;FISHER_PVAL -->
<g id="edge19" class="edge"><title>n27 (0.00 &#45; 25)&#45;&gt;FISHER_PVAL</title>
<path fill="none" stroke="black" d="M1124.09,-1363.98C1112.63,-1350.48 1096.37,-1331.34 1083.42,-1316.1"/>
<polygon fill="black" stroke="black" points="1085.76,-1313.44 1076.62,-1308.09 1080.43,-1317.98 1085.76,-1313.44"/>
</g>
<!-- n26 (0.00 &#45; 24) -->
<g id="node21" class="node"><title>n26 (0.00 &#45; 24)</title>
<ellipse fill="none" stroke="black" cx="1213.39" cy="-1290.33" rx="64.189" ry="18"/>
<text text-anchor="middle" x="1213.39" y="-1286.63" font-family="Times,serif" font-size="14.00">n26 (0.00 &#45; 24)</text>
</g>
<!-- n27 (0.00 &#45; 25)&#45;&gt;n26 (0.00 &#45; 24) -->
<g id="edge20" class="edge"><title>n27 (0.00 &#45; 25)&#45;&gt;n26 (0.00 &#45; 24)</title>
<path fill="none" stroke="black" d="M1152.5,-1363.98C1163.81,-1350.48 1179.85,-1331.34 1192.63,-1316.1"/>
<polygon fill="black" stroke="black" points="1195.6,-1318 1199.35,-1308.09 1190.24,-1313.5 1195.6,-1318"/>
</g>
<!-- TWO_WAY_SUPPORT -->
<g id="node22" class="node"><title>TWO_WAY_SUPPORT</title>
<ellipse fill="none" stroke="black" cx="1122.39" cy="-1218.33" rx="100.182" ry="18"/>
<text text-anchor="middle" x="1122.39" y="-1214.63" font-family="Times,serif" font-size="14.00">TWO_WAY_SUPPORT</text>
</g>
<!-- n26 (0.00 &#45; 24)&#45;&gt;TWO_WAY_SUPPORT -->
<g id="edge21" class="edge"><title>n26 (0.00 &#45; 24)&#45;&gt;TWO_WAY_SUPPORT</title>
<path fill="none" stroke="black" d="M1192.28,-1273.1C1180.4,-1263.95 1165.36,-1252.38 1152.27,-1242.32"/>
<polygon fill="black" stroke="black" points="1154.07,-1239.29 1144.01,-1235.97 1149.81,-1244.84 1154.07,-1239.29"/>
</g>
<!-- n25 (0.00 &#45; 23) -->
<g id="node23" class="node"><title>n25 (0.00 &#45; 23)</title>
<ellipse fill="none" stroke="black" cx="1304.39" cy="-1218.33" rx="64.189" ry="18"/>
<text text-anchor="middle" x="1304.39" y="-1214.63" font-family="Times,serif" font-size="14.00">n25 (0.00 &#45; 23)</text>
</g>
<!-- n26 (0.00 &#45; 24)&#45;&gt;n25 (0.00 &#45; 23) -->
<g id="edge22" class="edge"><title>n26 (0.00 &#45; 24)&#45;&gt;n25 (0.00 &#45; 23)</title>
<path fill="none" stroke="black" d="M1234.5,-1273.1C1246.67,-1263.73 1262.15,-1251.82 1275.45,-1241.59"/>
<polygon fill="black" stroke="black" points="1277.61,-1244.35 1283.4,-1235.48 1273.34,-1238.8 1277.61,-1244.35"/>
</g>
<!-- n13 (0.92 &#45; 2) -->
<g id="node24" class="node"><title>n13 (0.92 &#45; 2)</title>
<ellipse fill="none" stroke="black" cx="1233.39" cy="-1146.33" rx="59.5901" ry="18"/>
<text text-anchor="middle" x="1233.39" y="-1142.63" font-family="Times,serif" font-size="14.00">n13 (0.92 &#45; 2)</text>
</g>
<!-- n25 (0.00 &#45; 23)&#45;&gt;n13 (0.92 &#45; 2) -->
<g id="edge23" class="edge"><title>n25 (0.00 &#45; 23)&#45;&gt;n13 (0.92 &#45; 2)</title>
<path fill="none" stroke="black" d="M1287.56,-1200.74C1278.54,-1191.85 1267.28,-1180.74 1257.36,-1170.96"/>
<polygon fill="black" stroke="black" points="1259.67,-1168.33 1250.1,-1163.8 1254.76,-1173.32 1259.67,-1168.33"/>
</g>
<!-- n24 (0.00 &#45; 21) -->
<g id="node27" class="node"><title>n24 (0.00 &#45; 21)</title>
<ellipse fill="none" stroke="black" cx="1375.39" cy="-1146.33" rx="64.189" ry="18"/>
<text text-anchor="middle" x="1375.39" y="-1142.63" font-family="Times,serif" font-size="14.00">n24 (0.00 &#45; 21)</text>
</g>
<!-- n25 (0.00 &#45; 23)&#45;&gt;n24 (0.00 &#45; 21) -->
<g id="edge26" class="edge"><title>n25 (0.00 &#45; 23)&#45;&gt;n24 (0.00 &#45; 21)</title>
<path fill="none" stroke="black" d="M1321.22,-1200.74C1330.23,-1191.85 1341.5,-1180.74 1351.42,-1170.96"/>
<polygon fill="black" stroke="black" points="1354.02,-1173.32 1358.68,-1163.8 1349.11,-1168.33 1354.02,-1173.32"/>
</g>
<!-- GINI -->
<g id="node25" class="node"><title>GINI</title>
<ellipse fill="none" stroke="black" cx="1124.39" cy="-1074.33" rx="29.4969" ry="18"/>
<text text-anchor="middle" x="1124.39" y="-1070.63" font-family="Times,serif" font-size="14.00">GINI</text>
</g>
<!-- n13 (0.92 &#45; 2)&#45;&gt;GINI -->
<g id="edge24" class="edge"><title>n13 (0.92 &#45; 2)&#45;&gt;GINI</title>
<path fill="none" stroke="black" d="M1209.2,-1129.8C1192.54,-1119.1 1170.33,-1104.84 1152.82,-1093.59"/>
<polygon fill="black" stroke="black" points="1154.45,-1090.48 1144.14,-1088.02 1150.67,-1096.37 1154.45,-1090.48"/>
</g>
<!-- CHI_SQUARE -->
<g id="node26" class="node"><title>CHI_SQUARE</title>
<ellipse fill="none" stroke="black" cx="1237.39" cy="-1074.33" rx="65.7887" ry="18"/>
<text text-anchor="middle" x="1237.39" y="-1070.63" font-family="Times,serif" font-size="14.00">CHI_SQUARE</text>
</g>
<!-- n13 (0.92 &#45; 2)&#45;&gt;CHI_SQUARE -->
<g id="edge25" class="edge"><title>n13 (0.92 &#45; 2)&#45;&gt;CHI_SQUARE</title>
<path fill="none" stroke="black" d="M1234.38,-1128.03C1234.82,-1120.32 1235.35,-1111.05 1235.84,-1102.45"/>
<polygon fill="black" stroke="black" points="1239.34,-1102.62 1236.41,-1092.44 1232.35,-1102.22 1239.34,-1102.62"/>
</g>
<!-- COSINE -->
<g id="node28" class="node"><title>COSINE</title>
<ellipse fill="none" stroke="black" cx="1371.39" cy="-1074.33" rx="42.4939" ry="18"/>
<text text-anchor="middle" x="1371.39" y="-1070.63" font-family="Times,serif" font-size="14.00">COSINE</text>
</g>
<!-- n24 (0.00 &#45; 21)&#45;&gt;COSINE -->
<g id="edge27" class="edge"><title>n24 (0.00 &#45; 21)&#45;&gt;COSINE</title>
<path fill="none" stroke="black" d="M1374.4,-1128.03C1373.96,-1120.32 1373.43,-1111.05 1372.94,-1102.45"/>
<polygon fill="black" stroke="black" points="1376.43,-1102.22 1372.37,-1092.44 1369.44,-1102.62 1376.43,-1102.22"/>
</g>
<!-- n23 (0.00 &#45; 20) -->
<g id="node29" class="node"><title>n23 (0.00 &#45; 20)</title>
<ellipse fill="none" stroke="black" cx="1496.39" cy="-1074.33" rx="64.189" ry="18"/>
<text text-anchor="middle" x="1496.39" y="-1070.63" font-family="Times,serif" font-size="14.00">n23 (0.00 &#45; 20)</text>
</g>
<!-- n24 (0.00 &#45; 21)&#45;&gt;n23 (0.00 &#45; 20) -->
<g id="edge28" class="edge"><title>n24 (0.00 &#45; 21)&#45;&gt;n23 (0.00 &#45; 20)</title>
<path fill="none" stroke="black" d="M1402.24,-1129.8C1419.48,-1119.83 1442.05,-1106.77 1460.77,-1095.94"/>
<polygon fill="black" stroke="black" points="1462.71,-1098.86 1469.61,-1090.82 1459.2,-1092.8 1462.71,-1098.86"/>
</g>
<!-- KLOSGEN -->
<g id="node30" class="node"><title>KLOSGEN</title>
<ellipse fill="none" stroke="black" cx="1429.39" cy="-1002.33" rx="51.9908" ry="18"/>
<text text-anchor="middle" x="1429.39" y="-998.633" font-family="Times,serif" font-size="14.00">KLOSGEN</text>
</g>
<!-- n23 (0.00 &#45; 20)&#45;&gt;KLOSGEN -->
<g id="edge29" class="edge"><title>n23 (0.00 &#45; 20)&#45;&gt;KLOSGEN</title>
<path fill="none" stroke="black" d="M1480.51,-1056.74C1472.08,-1047.94 1461.58,-1036.96 1452.28,-1027.25"/>
<polygon fill="black" stroke="black" points="1454.6,-1024.61 1445.15,-1019.8 1449.54,-1029.45 1454.6,-1024.61"/>
</g>
<!-- n22 (0.00 &#45; 19) -->
<g id="node31" class="node"><title>n22 (0.00 &#45; 19)</title>
<ellipse fill="none" stroke="black" cx="1563.39" cy="-1002.33" rx="64.189" ry="18"/>
<text text-anchor="middle" x="1563.39" y="-998.633" font-family="Times,serif" font-size="14.00">n22 (0.00 &#45; 19)</text>
</g>
<!-- n23 (0.00 &#45; 20)&#45;&gt;n22 (0.00 &#45; 19) -->
<g id="edge30" class="edge"><title>n23 (0.00 &#45; 20)&#45;&gt;n22 (0.00 &#45; 19)</title>
<path fill="none" stroke="black" d="M1512.27,-1056.74C1520.7,-1047.94 1531.2,-1036.96 1540.5,-1027.25"/>
<polygon fill="black" stroke="black" points="1543.24,-1029.45 1547.63,-1019.8 1538.18,-1024.61 1543.24,-1029.45"/>
</g>
<!-- PHI -->
<g id="node32" class="node"><title>PHI</title>
<ellipse fill="none" stroke="black" cx="1508.39" cy="-930.333" rx="27" ry="18"/>
<text text-anchor="middle" x="1508.39" y="-926.633" font-family="Times,serif" font-size="14.00">PHI</text>
</g>
<!-- n22 (0.00 &#45; 19)&#45;&gt;PHI -->
<g id="edge31" class="edge"><title>n22 (0.00 &#45; 19)&#45;&gt;PHI</title>
<path fill="none" stroke="black" d="M1550.08,-984.388C1543.09,-975.5 1534.43,-964.473 1526.81,-954.779"/>
<polygon fill="black" stroke="black" points="1529.39,-952.39 1520.46,-946.689 1523.88,-956.715 1529.39,-952.39"/>
</g>
<!-- n21 (0.00 &#45; 18) -->
<g id="node33" class="node"><title>n21 (0.00 &#45; 18)</title>
<ellipse fill="none" stroke="black" cx="1617.39" cy="-930.333" rx="64.189" ry="18"/>
<text text-anchor="middle" x="1617.39" y="-926.633" font-family="Times,serif" font-size="14.00">n21 (0.00 &#45; 18)</text>
</g>
<!-- n22 (0.00 &#45; 19)&#45;&gt;n21 (0.00 &#45; 18) -->
<g id="edge32" class="edge"><title>n22 (0.00 &#45; 19)&#45;&gt;n21 (0.00 &#45; 18)</title>
<path fill="none" stroke="black" d="M1576.46,-984.388C1582.96,-975.962 1590.95,-965.613 1598.13,-956.299"/>
<polygon fill="black" stroke="black" points="1601.1,-958.178 1604.44,-948.122 1595.56,-953.902 1601.1,-958.178"/>
</g>
<!-- COLLECTIVE_STRENGH -->
<g id="node34" class="node"><title>COLLECTIVE_STRENGH</title>
<ellipse fill="none" stroke="black" cx="1521.39" cy="-858.333" rx="109.681" ry="18"/>
<text text-anchor="middle" x="1521.39" y="-854.633" font-family="Times,serif" font-size="14.00">COLLECTIVE_STRENGH</text>
</g>
<!-- n21 (0.00 &#45; 18)&#45;&gt;COLLECTIVE_STRENGH -->
<g id="edge33" class="edge"><title>n21 (0.00 &#45; 18)&#45;&gt;COLLECTIVE_STRENGH</title>
<path fill="none" stroke="black" d="M1595.12,-913.098C1582.46,-903.866 1566.41,-892.163 1552.52,-882.034"/>
<polygon fill="black" stroke="black" points="1554.34,-879.03 1544.2,-875.966 1550.22,-884.686 1554.34,-879.03"/>
</g>
<!-- n20 (0.00 &#45; 17) -->
<g id="node35" class="node"><title>n20 (0.00 &#45; 17)</title>
<ellipse fill="none" stroke="black" cx="1713.39" cy="-858.333" rx="64.189" ry="18"/>
<text text-anchor="middle" x="1713.39" y="-854.633" font-family="Times,serif" font-size="14.00">n20 (0.00 &#45; 17)</text>
</g>
<!-- n21 (0.00 &#45; 18)&#45;&gt;n20 (0.00 &#45; 17) -->
<g id="edge34" class="edge"><title>n21 (0.00 &#45; 18)&#45;&gt;n20 (0.00 &#45; 17)</title>
<path fill="none" stroke="black" d="M1639.66,-913.098C1652.5,-903.733 1668.83,-891.823 1682.86,-881.594"/>
<polygon fill="black" stroke="black" points="1685.23,-884.2 1691.24,-875.48 1681.1,-878.544 1685.23,-884.2"/>
</g>
<!-- PIATETSKY_SHAPIRO -->
<g id="node36" class="node"><title>PIATETSKY_SHAPIRO</title>
<ellipse fill="none" stroke="black" cx="1621.39" cy="-786.333" rx="100.983" ry="18"/>
<text text-anchor="middle" x="1621.39" y="-782.633" font-family="Times,serif" font-size="14.00">PIATETSKY_SHAPIRO</text>
</g>
<!-- n20 (0.00 &#45; 17)&#45;&gt;PIATETSKY_SHAPIRO -->
<g id="edge35" class="edge"><title>n20 (0.00 &#45; 17)&#45;&gt;PIATETSKY_SHAPIRO</title>
<path fill="none" stroke="black" d="M1692.05,-841.098C1679.92,-831.866 1664.54,-820.163 1651.22,-810.034"/>
<polygon fill="black" stroke="black" points="1653.33,-807.236 1643.25,-803.966 1649.09,-812.807 1653.33,-807.236"/>
</g>
<!-- n19 (0.00 &#45; 16) -->
<g id="node37" class="node"><title>n19 (0.00 &#45; 16)</title>
<ellipse fill="none" stroke="black" cx="1804.39" cy="-786.333" rx="64.189" ry="18"/>
<text text-anchor="middle" x="1804.39" y="-782.633" font-family="Times,serif" font-size="14.00">n19 (0.00 &#45; 16)</text>
</g>
<!-- n20 (0.00 &#45; 17)&#45;&gt;n19 (0.00 &#45; 16) -->
<g id="edge36" class="edge"><title>n20 (0.00 &#45; 17)&#45;&gt;n19 (0.00 &#45; 16)</title>
<path fill="none" stroke="black" d="M1734.5,-841.098C1746.67,-831.733 1762.15,-819.823 1775.45,-809.594"/>
<polygon fill="black" stroke="black" points="1777.61,-812.352 1783.4,-803.48 1773.34,-806.803 1777.61,-812.352"/>
</g>
<!-- J_MEASURE -->
<g id="node38" class="node"><title>J_MEASURE</title>
<ellipse fill="none" stroke="black" cx="1732.39" cy="-714.333" rx="61.1893" ry="18"/>
<text text-anchor="middle" x="1732.39" y="-710.633" font-family="Times,serif" font-size="14.00">J_MEASURE</text>
</g>
<!-- n19 (0.00 &#45; 16)&#45;&gt;J_MEASURE -->
<g id="edge37" class="edge"><title>n19 (0.00 &#45; 16)&#45;&gt;J_MEASURE</title>
<path fill="none" stroke="black" d="M1787.33,-768.744C1778.18,-759.852 1766.76,-748.744 1756.7,-738.964"/>
<polygon fill="black" stroke="black" points="1758.94,-736.264 1749.33,-731.803 1754.06,-741.283 1758.94,-736.264"/>
</g>
<!-- n18 (0.00 &#45; 15) -->
<g id="node39" class="node"><title>n18 (0.00 &#45; 15)</title>
<ellipse fill="none" stroke="black" cx="1875.39" cy="-714.333" rx="64.189" ry="18"/>
<text text-anchor="middle" x="1875.39" y="-710.633" font-family="Times,serif" font-size="14.00">n18 (0.00 &#45; 15)</text>
</g>
<!-- n19 (0.00 &#45; 16)&#45;&gt;n18 (0.00 &#45; 15) -->
<g id="edge38" class="edge"><title>n19 (0.00 &#45; 16)&#45;&gt;n18 (0.00 &#45; 15)</title>
<path fill="none" stroke="black" d="M1821.22,-768.744C1830.23,-759.852 1841.5,-748.744 1851.42,-738.964"/>
<polygon fill="black" stroke="black" points="1854.02,-741.316 1858.68,-731.803 1849.11,-736.331 1854.02,-741.316"/>
</g>
<!-- RECALL -->
<g id="node40" class="node"><title>RECALL</title>
<ellipse fill="none" stroke="black" cx="1811.39" cy="-642.333" rx="44.6926" ry="18"/>
<text text-anchor="middle" x="1811.39" y="-638.633" font-family="Times,serif" font-size="14.00">RECALL</text>
</g>
<!-- n18 (0.00 &#45; 15)&#45;&gt;RECALL -->
<g id="edge39" class="edge"><title>n18 (0.00 &#45; 15)&#45;&gt;RECALL</title>
<path fill="none" stroke="black" d="M1860.22,-696.744C1852.17,-687.939 1842.14,-676.961 1833.26,-667.252"/>
<polygon fill="black" stroke="black" points="1835.78,-664.822 1826.45,-659.803 1830.61,-669.545 1835.78,-664.822"/>
</g>
<!-- n17 (0.00 &#45; 14) -->
<g id="node41" class="node"><title>n17 (0.00 &#45; 14)</title>
<ellipse fill="none" stroke="black" cx="1938.39" cy="-642.333" rx="64.189" ry="18"/>
<text text-anchor="middle" x="1938.39" y="-638.633" font-family="Times,serif" font-size="14.00">n17 (0.00 &#45; 14)</text>
</g>
<!-- n18 (0.00 &#45; 15)&#45;&gt;n17 (0.00 &#45; 14) -->
<g id="edge40" class="edge"><title>n18 (0.00 &#45; 15)&#45;&gt;n17 (0.00 &#45; 14)</title>
<path fill="none" stroke="black" d="M1890.32,-696.744C1898.05,-688.153 1907.65,-677.492 1916.23,-667.961"/>
<polygon fill="black" stroke="black" points="1919.04,-670.064 1923.13,-660.289 1913.84,-665.381 1919.04,-670.064"/>
</g>
<!-- KAPPA -->
<g id="node42" class="node"><title>KAPPA</title>
<ellipse fill="none" stroke="black" cx="1877.39" cy="-570.333" rx="39.7935" ry="18"/>
<text text-anchor="middle" x="1877.39" y="-566.633" font-family="Times,serif" font-size="14.00">KAPPA</text>
</g>
<!-- n17 (0.00 &#45; 14)&#45;&gt;KAPPA -->
<g id="edge41" class="edge"><title>n17 (0.00 &#45; 14)&#45;&gt;KAPPA</title>
<path fill="none" stroke="black" d="M1923.93,-624.744C1916.23,-615.9 1906.61,-604.864 1898.12,-595.122"/>
<polygon fill="black" stroke="black" points="1900.53,-592.561 1891.32,-587.321 1895.25,-597.16 1900.53,-592.561"/>
</g>
<!-- n15 (0.54 &#45; 13) -->
<g id="node43" class="node"><title>n15 (0.54 &#45; 13)</title>
<ellipse fill="none" stroke="black" cx="1999.39" cy="-570.333" rx="64.189" ry="18"/>
<text text-anchor="middle" x="1999.39" y="-566.633" font-family="Times,serif" font-size="14.00">n15 (0.54 &#45; 13)</text>
</g>
<!-- n17 (0.00 &#45; 14)&#45;&gt;n15 (0.54 &#45; 13) -->
<g id="edge42" class="edge"><title>n17 (0.00 &#45; 14)&#45;&gt;n15 (0.54 &#45; 13)</title>
<path fill="none" stroke="black" d="M1952.85,-624.744C1960.33,-616.153 1969.62,-605.492 1977.93,-595.961"/>
<polygon fill="black" stroke="black" points="1980.68,-598.128 1984.61,-588.289 1975.41,-593.529 1980.68,-598.128"/>
</g>
<!-- ONE_WAY_SUPPORT -->
<g id="node44" class="node"><title>ONE_WAY_SUPPORT</title>
<ellipse fill="none" stroke="black" cx="1909.39" cy="-498.333" rx="97.4827" ry="18"/>
<text text-anchor="middle" x="1909.39" y="-494.633" font-family="Times,serif" font-size="14.00">ONE_WAY_SUPPORT</text>
</g>
<!-- n15 (0.54 &#45; 13)&#45;&gt;ONE_WAY_SUPPORT -->
<g id="edge43" class="edge"><title>n15 (0.54 &#45; 13)&#45;&gt;ONE_WAY_SUPPORT</title>
<path fill="none" stroke="black" d="M1978.52,-553.098C1966.76,-543.954 1951.88,-532.383 1938.95,-522.321"/>
<polygon fill="black" stroke="black" points="1940.82,-519.343 1930.78,-515.966 1936.52,-524.869 1940.82,-519.343"/>
</g>
<!-- n12 (0.98 &#45; 12) -->
<g id="node45" class="node"><title>n12 (0.98 &#45; 12)</title>
<ellipse fill="none" stroke="black" cx="2089.39" cy="-498.333" rx="64.189" ry="18"/>
<text text-anchor="middle" x="2089.39" y="-494.633" font-family="Times,serif" font-size="14.00">n12 (0.98 &#45; 12)</text>
</g>
<!-- n15 (0.54 &#45; 13)&#45;&gt;n12 (0.98 &#45; 12) -->
<g id="edge44" class="edge"><title>n15 (0.54 &#45; 13)&#45;&gt;n12 (0.98 &#45; 12)</title>
<path fill="none" stroke="black" d="M2020.26,-553.098C2032.19,-543.821 2047.33,-532.047 2060.4,-521.884"/>
<polygon fill="black" stroke="black" points="2062.88,-524.383 2068.63,-515.48 2058.59,-518.857 2062.88,-524.383"/>
</g>
<!-- ZHANG -->
<g id="node46" class="node"><title>ZHANG</title>
<ellipse fill="none" stroke="black" cx="2027.39" cy="-426.333" rx="41.6928" ry="18"/>
<text text-anchor="middle" x="2027.39" y="-422.633" font-family="Times,serif" font-size="14.00">ZHANG</text>
</g>
<!-- n12 (0.98 &#45; 12)&#45;&gt;ZHANG -->
<g id="edge45" class="edge"><title>n12 (0.98 &#45; 12)&#45;&gt;ZHANG</title>
<path fill="none" stroke="black" d="M2074.7,-480.744C2066.79,-471.812 2056.89,-460.643 2048.2,-450.831"/>
<polygon fill="black" stroke="black" points="2050.8,-448.486 2041.55,-443.321 2045.56,-453.128 2050.8,-448.486"/>
</g>
<!-- n11 (0.99 &#45; 11) -->
<g id="node47" class="node"><title>n11 (0.99 &#45; 11)</title>
<ellipse fill="none" stroke="black" cx="2151.39" cy="-426.333" rx="64.189" ry="18"/>
<text text-anchor="middle" x="2151.39" y="-422.633" font-family="Times,serif" font-size="14.00">n11 (0.99 &#45; 11)</text>
</g>
<!-- n12 (0.98 &#45; 12)&#45;&gt;n11 (0.99 &#45; 11) -->
<g id="edge46" class="edge"><title>n12 (0.98 &#45; 12)&#45;&gt;n11 (0.99 &#45; 11)</title>
<path fill="none" stroke="black" d="M2104.08,-480.744C2111.69,-472.153 2121.13,-461.492 2129.58,-451.961"/>
<polygon fill="black" stroke="black" points="2132.36,-454.096 2136.37,-444.289 2127.12,-449.455 2132.36,-454.096"/>
</g>
<!-- LOEVINGER\nCONVICTION -->
<g id="node48" class="node"><title>LOEVINGER\nCONVICTION</title>
<ellipse fill="none" stroke="black" cx="2077.39" cy="-345.463" rx="71.3357" ry="26.7407"/>
<text text-anchor="middle" x="2077.39" y="-349.263" font-family="Times,serif" font-size="14.00">LOEVINGER</text>
<text text-anchor="middle" x="2077.39" y="-334.263" font-family="Times,serif" font-size="14.00">CONVICTION</text>
</g>
<!-- n11 (0.99 &#45; 11)&#45;&gt;LOEVINGER\nCONVICTION -->
<g id="edge47" class="edge"><title>n11 (0.99 &#45; 11)&#45;&gt;LOEVINGER\nCONVICTION</title>
<path fill="none" stroke="black" d="M2135.7,-408.607C2127.43,-399.801 2117.02,-388.704 2107.29,-378.333"/>
<polygon fill="black" stroke="black" points="2109.76,-375.85 2100.37,-370.952 2104.66,-380.639 2109.76,-375.85"/>
</g>
<!-- n10 (0.99 &#45; 9) -->
<g id="node49" class="node"><title>n10 (0.99 &#45; 9)</title>
<ellipse fill="none" stroke="black" cx="2226.39" cy="-345.463" rx="59.5901" ry="18"/>
<text text-anchor="middle" x="2226.39" y="-341.763" font-family="Times,serif" font-size="14.00">n10 (0.99 &#45; 9)</text>
</g>
<!-- n11 (0.99 &#45; 11)&#45;&gt;n10 (0.99 &#45; 9) -->
<g id="edge48" class="edge"><title>n11 (0.99 &#45; 11)&#45;&gt;n10 (0.99 &#45; 9)</title>
<path fill="none" stroke="black" d="M2167.3,-408.607C2177.91,-397.448 2192.02,-382.609 2203.79,-370.23"/>
<polygon fill="black" stroke="black" points="2206.41,-372.553 2210.76,-362.895 2201.34,-367.73 2206.41,-372.553"/>
</g>
<!-- ODD_MULTIPLIER -->
<g id="node50" class="node"><title>ODD_MULTIPLIER</title>
<ellipse fill="none" stroke="black" cx="2146.39" cy="-264.593" rx="87.1846" ry="18"/>
<text text-anchor="middle" x="2146.39" y="-260.893" font-family="Times,serif" font-size="14.00">ODD_MULTIPLIER</text>
</g>
<!-- n10 (0.99 &#45; 9)&#45;&gt;ODD_MULTIPLIER -->
<g id="edge49" class="edge"><title>n10 (0.99 &#45; 9)&#45;&gt;ODD_MULTIPLIER</title>
<path fill="none" stroke="black" d="M2209.81,-328.121C2198.49,-316.957 2183.3,-301.979 2170.62,-289.482"/>
<polygon fill="black" stroke="black" points="2173.08,-286.986 2163.5,-282.458 2168.16,-291.971 2173.08,-286.986"/>
</g>
<!-- n9 (1.00 &#45; 8) -->
<g id="node51" class="node"><title>n9 (1.00 &#45; 8)</title>
<ellipse fill="none" stroke="black" cx="2307.39" cy="-264.593" rx="55.7903" ry="18"/>
<text text-anchor="middle" x="2307.39" y="-260.893" font-family="Times,serif" font-size="14.00">n9 (1.00 &#45; 8)</text>
</g>
<!-- n10 (0.99 &#45; 9)&#45;&gt;n9 (1.00 &#45; 8) -->
<g id="edge50" class="edge"><title>n10 (0.99 &#45; 9)&#45;&gt;n9 (1.00 &#45; 8)</title>
<path fill="none" stroke="black" d="M2243.17,-328.121C2254.79,-316.806 2270.44,-301.574 2283.37,-288.977"/>
<polygon fill="black" stroke="black" points="2285.91,-291.398 2290.63,-281.914 2281.02,-286.383 2285.91,-291.398"/>
</g>
<!-- SEBAG_SCHOENAUER -->
<g id="node52" class="node"><title>SEBAG_SCHOENAUER</title>
<ellipse fill="none" stroke="black" cx="2219.39" cy="-192.593" rx="102.882" ry="18"/>
<text text-anchor="middle" x="2219.39" y="-188.893" font-family="Times,serif" font-size="14.00">SEBAG_SCHOENAUER</text>
</g>
<!-- n9 (1.00 &#45; 8)&#45;&gt;SEBAG_SCHOENAUER -->
<g id="edge51" class="edge"><title>n9 (1.00 &#45; 8)&#45;&gt;SEBAG_SCHOENAUER</title>
<path fill="none" stroke="black" d="M2287.42,-247.709C2275.94,-238.576 2261.31,-226.939 2248.56,-216.797"/>
<polygon fill="black" stroke="black" points="2250.51,-213.876 2240.51,-210.39 2246.15,-219.355 2250.51,-213.876"/>
</g>
<!-- n8 (1.00 &#45; 7) -->
<g id="node53" class="node"><title>n8 (1.00 &#45; 7)</title>
<ellipse fill="none" stroke="black" cx="2396.39" cy="-192.593" rx="55.7903" ry="18"/>
<text text-anchor="middle" x="2396.39" y="-188.893" font-family="Times,serif" font-size="14.00">n8 (1.00 &#45; 7)</text>
</g>
<!-- n9 (1.00 &#45; 8)&#45;&gt;n8 (1.00 &#45; 7) -->
<g id="edge52" class="edge"><title>n9 (1.00 &#45; 8)&#45;&gt;n8 (1.00 &#45; 7)</title>
<path fill="none" stroke="black" d="M2327.59,-247.709C2339.65,-238.222 2355.15,-226.032 2368.38,-215.624"/>
<polygon fill="black" stroke="black" points="2370.58,-218.347 2376.27,-209.414 2366.25,-212.845 2370.58,-218.347"/>
</g>
<!-- COUNTER_EXAMPLE_RATE -->
<g id="node54" class="node"><title>COUNTER_EXAMPLE_RATE</title>
<ellipse fill="none" stroke="black" cx="2261.39" cy="-69.2965" rx="126.178" ry="18"/>
<text text-anchor="middle" x="2261.39" y="-65.5965" font-family="Times,serif" font-size="14.00">COUNTER_EXAMPLE_RATE</text>
</g>
<!-- n8 (1.00 &#45; 7)&#45;&gt;COUNTER_EXAMPLE_RATE -->
<g id="edge53" class="edge"><title>n8 (1.00 &#45; 7)&#45;&gt;COUNTER_EXAMPLE_RATE</title>
<path fill="none" stroke="black" d="M2378.46,-175.486C2355.22,-154.605 2314.51,-118.025 2287.75,-93.9794"/>
<polygon fill="black" stroke="black" points="2290.04,-91.332 2280.26,-87.252 2285.36,-96.539 2290.04,-91.332"/>
</g>
<!-- BAYES\nCENTERED_CONFIDENCE\nCERTAINTY_FACTOR\nADDED_VALUE\nLIFT\nCONFIDENCE -->
<g id="node55" class="node"><title>BAYES\nCENTERED_CONFIDENCE\nCERTAINTY_FACTOR\nADDED_VALUE\nLIFT\nCONFIDENCE</title>
<ellipse fill="none" stroke="black" cx="2532.39" cy="-69.2965" rx="126.644" ry="69.0935"/>
<text text-anchor="middle" x="2532.39" y="-103.096" font-family="Times,serif" font-size="14.00">BAYES</text>
<text text-anchor="middle" x="2532.39" y="-88.0965" font-family="Times,serif" font-size="14.00">CENTERED_CONFIDENCE</text>
<text text-anchor="middle" x="2532.39" y="-73.0965" font-family="Times,serif" font-size="14.00">CERTAINTY_FACTOR</text>
<text text-anchor="middle" x="2532.39" y="-58.0965" font-family="Times,serif" font-size="14.00">ADDED_VALUE</text>
<text text-anchor="middle" x="2532.39" y="-43.0965" font-family="Times,serif" font-size="14.00">LIFT</text>
<text text-anchor="middle" x="2532.39" y="-28.0965" font-family="Times,serif" font-size="14.00">CONFIDENCE</text>
</g>
<!-- n8 (1.00 &#45; 7)&#45;&gt;BAYES\nCENTERED_CONFIDENCE\nCERTAINTY_FACTOR\nADDED_VALUE\nLIFT\nCONFIDENCE -->
<g id="edge54" class="edge"><title>n8 (1.00 &#45; 7)&#45;&gt;BAYES\nCENTERED_CONFIDENCE\nCERTAINTY_FACTOR\nADDED_VALUE\nLIFT\nCONFIDENCE</title>
<path fill="none" stroke="black" d="M2414.45,-175.486C2426.23,-164.979 2442.47,-150.499 2459.13,-135.64"/>
<polygon fill="black" stroke="black" points="2461.66,-138.067 2466.8,-128.799 2457,-132.843 2461.66,-138.067"/>
</g>
</g>
</svg>
