<?xml version="1.0" encoding="UTF-8" standalone="no"?>
<!DOCTYPE svg PUBLIC "-//W3C//DTD SVG 1.1//EN"
 "http://www.w3.org/Graphics/SVG/1.1/DTD/svg11.dtd">
<!-- Generated by graphviz version 2.38.0 (20140413.2041)
 -->
<!-- Title: dendrogram Pages: 1 -->
<svg width="2075pt" height="789pt"
 viewBox="0.00 0.00 2075.02 788.67" xmlns="http://www.w3.org/2000/svg" xmlns:xlink="http://www.w3.org/1999/xlink">
<g id="graph0" class="graph" transform="scale(1 1) rotate(0) translate(4 784.666)">
<title>dendrogram</title>
<polygon fill="white" stroke="none" points="-4,4 -4,-784.666 2071.02,-784.666 2071.02,4 -4,4"/>
<!-- n34 (0.04 &#45; 36) -->
<g id="node1" class="node"><title>n34 (0.04 &#45; 36)</title>
<ellipse fill="none" stroke="black" cx="417.84" cy="-762.666" rx="64.189" ry="18"/>
<text text-anchor="middle" x="417.84" y="-758.966" font-family="Times,serif" font-size="14.00">n34 (0.04 &#45; 36)</text>
</g>
<!-- n32 (0.15 &#45; 3) -->
<g id="node2" class="node"><title>n32 (0.15 &#45; 3)</title>
<ellipse fill="none" stroke="black" cx="300.84" cy="-690.666" rx="59.5901" ry="18"/>
<text text-anchor="middle" x="300.84" y="-686.966" font-family="Times,serif" font-size="14.00">n32 (0.15 &#45; 3)</text>
</g>
<!-- n34 (0.04 &#45; 36)&#45;&gt;n32 (0.15 &#45; 3) -->
<g id="edge1" class="edge"><title>n34 (0.04 &#45; 36)&#45;&gt;n32 (0.15 &#45; 3)</title>
<path fill="none" stroke="black" d="M391.874,-746.131C375.363,-736.253 353.783,-723.341 335.778,-712.569"/>
<polygon fill="black" stroke="black" points="337.112,-709.289 326.734,-707.158 333.518,-715.296 337.112,-709.289"/>
</g>
<!-- n33 (0.05 &#45; 33) -->
<g id="node7" class="node"><title>n33 (0.05 &#45; 33)</title>
<ellipse fill="none" stroke="black" cx="534.84" cy="-690.666" rx="64.189" ry="18"/>
<text text-anchor="middle" x="534.84" y="-686.966" font-family="Times,serif" font-size="14.00">n33 (0.05 &#45; 33)</text>
</g>
<!-- n34 (0.04 &#45; 36)&#45;&gt;n33 (0.05 &#45; 33) -->
<g id="edge6" class="edge"><title>n34 (0.04 &#45; 36)&#45;&gt;n33 (0.05 &#45; 33)</title>
<path fill="none" stroke="black" d="M443.806,-746.131C460.317,-736.253 481.898,-723.341 499.903,-712.569"/>
<polygon fill="black" stroke="black" points="502.162,-715.296 508.947,-707.158 498.568,-709.289 502.162,-715.296"/>
</g>
<!-- RECALL -->
<g id="node3" class="node"><title>RECALL</title>
<ellipse fill="none" stroke="black" cx="177.84" cy="-618.666" rx="44.6926" ry="18"/>
<text text-anchor="middle" x="177.84" y="-614.966" font-family="Times,serif" font-size="14.00">RECALL</text>
</g>
<!-- n32 (0.15 &#45; 3)&#45;&gt;RECALL -->
<g id="edge2" class="edge"><title>n32 (0.15 &#45; 3)&#45;&gt;RECALL</title>
<path fill="none" stroke="black" d="M274.151,-674.477C255.853,-664.063 231.424,-650.161 211.748,-638.963"/>
<polygon fill="black" stroke="black" points="213.223,-635.775 202.801,-633.871 209.761,-641.859 213.223,-635.775"/>
</g>
<!-- n25 (0.58 &#45; 2) -->
<g id="node4" class="node"><title>n25 (0.58 &#45; 2)</title>
<ellipse fill="none" stroke="black" cx="300.84" cy="-618.666" rx="59.5901" ry="18"/>
<text text-anchor="middle" x="300.84" y="-614.966" font-family="Times,serif" font-size="14.00">n25 (0.58 &#45; 2)</text>
</g>
<!-- n32 (0.15 &#45; 3)&#45;&gt;n25 (0.58 &#45; 2) -->
<g id="edge3" class="edge"><title>n32 (0.15 &#45; 3)&#45;&gt;n25 (0.58 &#45; 2)</title>
<path fill="none" stroke="black" d="M300.84,-672.363C300.84,-664.649 300.84,-655.379 300.84,-646.779"/>
<polygon fill="black" stroke="black" points="304.34,-646.77 300.84,-636.77 297.34,-646.77 304.34,-646.77"/>
</g>
<!-- COLLECTIVE_STRENGH -->
<g id="node5" class="node"><title>COLLECTIVE_STRENGH</title>
<ellipse fill="none" stroke="black" cx="109.84" cy="-546.666" rx="109.681" ry="18"/>
<text text-anchor="middle" x="109.84" y="-542.966" font-family="Times,serif" font-size="14.00">COLLECTIVE_STRENGH</text>
</g>
<!-- n25 (0.58 &#45; 2)&#45;&gt;COLLECTIVE_STRENGH -->
<g id="edge4" class="edge"><title>n25 (0.58 &#45; 2)&#45;&gt;COLLECTIVE_STRENGH</title>
<path fill="none" stroke="black" d="M264.465,-604.335C235.529,-593.73 194.653,-578.749 162.196,-566.854"/>
<polygon fill="black" stroke="black" points="163.009,-563.425 152.416,-563.27 160.601,-569.997 163.009,-563.425"/>
</g>
<!-- SPECIFICITY -->
<g id="node6" class="node"><title>SPECIFICITY</title>
<ellipse fill="none" stroke="black" cx="300.84" cy="-546.666" rx="63.0888" ry="18"/>
<text text-anchor="middle" x="300.84" y="-542.966" font-family="Times,serif" font-size="14.00">SPECIFICITY</text>
</g>
<!-- n25 (0.58 &#45; 2)&#45;&gt;SPECIFICITY -->
<g id="edge5" class="edge"><title>n25 (0.58 &#45; 2)&#45;&gt;SPECIFICITY</title>
<path fill="none" stroke="black" d="M300.84,-600.363C300.84,-592.649 300.84,-583.379 300.84,-574.779"/>
<polygon fill="black" stroke="black" points="304.34,-574.77 300.84,-564.77 297.34,-574.77 304.34,-574.77"/>
</g>
<!-- n30 (0.35 &#45; 13) -->
<g id="node8" class="node"><title>n30 (0.35 &#45; 13)</title>
<ellipse fill="none" stroke="black" cx="534.84" cy="-618.666" rx="64.189" ry="18"/>
<text text-anchor="middle" x="534.84" y="-614.966" font-family="Times,serif" font-size="14.00">n30 (0.35 &#45; 13)</text>
</g>
<!-- n33 (0.05 &#45; 33)&#45;&gt;n30 (0.35 &#45; 13) -->
<g id="edge7" class="edge"><title>n33 (0.05 &#45; 33)&#45;&gt;n30 (0.35 &#45; 13)</title>
<path fill="none" stroke="black" d="M534.84,-672.363C534.84,-664.649 534.84,-655.379 534.84,-646.779"/>
<polygon fill="black" stroke="black" points="538.34,-646.77 534.84,-636.77 531.34,-646.77 538.34,-646.77"/>
</g>
<!-- n31 (0.20 &#45; 20) -->
<g id="node25" class="node"><title>n31 (0.20 &#45; 20)</title>
<ellipse fill="none" stroke="black" cx="1184.84" cy="-618.666" rx="64.189" ry="18"/>
<text text-anchor="middle" x="1184.84" y="-614.966" font-family="Times,serif" font-size="14.00">n31 (0.20 &#45; 20)</text>
</g>
<!-- n33 (0.05 &#45; 33)&#45;&gt;n31 (0.20 &#45; 20) -->
<g id="edge24" class="edge"><title>n33 (0.05 &#45; 33)&#45;&gt;n31 (0.20 &#45; 20)</title>
<path fill="none" stroke="black" d="M593.67,-683.331C713.855,-670.388 987.035,-640.968 1115.56,-627.127"/>
<polygon fill="black" stroke="black" points="1116.11,-630.588 1125.68,-626.038 1115.36,-623.629 1116.11,-630.588"/>
</g>
<!-- n29 (0.44 &#45; 2) -->
<g id="node9" class="node"><title>n29 (0.44 &#45; 2)</title>
<ellipse fill="none" stroke="black" cx="441.84" cy="-546.666" rx="59.5901" ry="18"/>
<text text-anchor="middle" x="441.84" y="-542.966" font-family="Times,serif" font-size="14.00">n29 (0.44 &#45; 2)</text>
</g>
<!-- n30 (0.35 &#45; 13)&#45;&gt;n29 (0.44 &#45; 2) -->
<g id="edge8" class="edge"><title>n30 (0.35 &#45; 13)&#45;&gt;n29 (0.44 &#45; 2)</title>
<path fill="none" stroke="black" d="M513.27,-601.431C500.739,-591.999 484.779,-579.986 471.125,-569.708"/>
<polygon fill="black" stroke="black" points="473.067,-566.789 462.972,-563.572 468.857,-572.382 473.067,-566.789"/>
</g>
<!-- n27 (0.51 &#45; 11) -->
<g id="node12" class="node"><title>n27 (0.51 &#45; 11)</title>
<ellipse fill="none" stroke="black" cx="626.84" cy="-546.666" rx="64.189" ry="18"/>
<text text-anchor="middle" x="626.84" y="-542.966" font-family="Times,serif" font-size="14.00">n27 (0.51 &#45; 11)</text>
</g>
<!-- n30 (0.35 &#45; 13)&#45;&gt;n27 (0.51 &#45; 11) -->
<g id="edge11" class="edge"><title>n30 (0.35 &#45; 13)&#45;&gt;n27 (0.51 &#45; 11)</title>
<path fill="none" stroke="black" d="M556.178,-601.431C568.486,-592.066 584.139,-580.156 597.583,-569.927"/>
<polygon fill="black" stroke="black" points="599.779,-572.654 605.618,-563.813 595.54,-567.083 599.779,-572.654"/>
</g>
<!-- KLOSGEN -->
<g id="node10" class="node"><title>KLOSGEN</title>
<ellipse fill="none" stroke="black" cx="227.84" cy="-465.796" rx="51.9908" ry="18"/>
<text text-anchor="middle" x="227.84" y="-462.096" font-family="Times,serif" font-size="14.00">KLOSGEN</text>
</g>
<!-- n29 (0.44 &#45; 2)&#45;&gt;KLOSGEN -->
<g id="edge9" class="edge"><title>n29 (0.44 &#45; 2)&#45;&gt;KLOSGEN</title>
<path fill="none" stroke="black" d="M402.906,-532.988C371.827,-522.674 327.276,-507.454 288.84,-492.666 282.05,-490.053 274.891,-487.153 267.96,-484.265"/>
<polygon fill="black" stroke="black" points="269.282,-481.024 258.707,-480.365 266.563,-487.475 269.282,-481.024"/>
</g>
<!-- PIATETSKY_SHAPIRO -->
<g id="node11" class="node"><title>PIATETSKY_SHAPIRO</title>
<ellipse fill="none" stroke="black" cx="398.84" cy="-465.796" rx="100.983" ry="18"/>
<text text-anchor="middle" x="398.84" y="-462.096" font-family="Times,serif" font-size="14.00">PIATETSKY_SHAPIRO</text>
</g>
<!-- n29 (0.44 &#45; 2)&#45;&gt;PIATETSKY_SHAPIRO -->
<g id="edge10" class="edge"><title>n29 (0.44 &#45; 2)&#45;&gt;PIATETSKY_SHAPIRO</title>
<path fill="none" stroke="black" d="M432.51,-528.552C426.819,-518.114 419.431,-504.564 413.027,-492.817"/>
<polygon fill="black" stroke="black" points="416.012,-490.981 408.152,-483.876 409.866,-494.332 416.012,-490.981"/>
</g>
<!-- GINI\nIMPLICATION_INDEX -->
<g id="node13" class="node"><title>GINI\nIMPLICATION_INDEX</title>
<ellipse fill="none" stroke="black" cx="626.84" cy="-465.796" rx="108.789" ry="26.7407"/>
<text text-anchor="middle" x="626.84" y="-469.596" font-family="Times,serif" font-size="14.00">GINI</text>
<text text-anchor="middle" x="626.84" y="-454.596" font-family="Times,serif" font-size="14.00">IMPLICATION_INDEX</text>
</g>
<!-- n27 (0.51 &#45; 11)&#45;&gt;GINI\nIMPLICATION_INDEX -->
<g id="edge12" class="edge"><title>n27 (0.51 &#45; 11)&#45;&gt;GINI\nIMPLICATION_INDEX</title>
<path fill="none" stroke="black" d="M626.84,-528.552C626.84,-521.063 626.84,-511.972 626.84,-503.094"/>
<polygon fill="black" stroke="black" points="630.34,-502.879 626.84,-492.879 623.34,-502.879 630.34,-502.879"/>
</g>
<!-- n24 (0.64 &#45; 9) -->
<g id="node14" class="node"><title>n24 (0.64 &#45; 9)</title>
<ellipse fill="none" stroke="black" cx="813.84" cy="-465.796" rx="59.5901" ry="18"/>
<text text-anchor="middle" x="813.84" y="-462.096" font-family="Times,serif" font-size="14.00">n24 (0.64 &#45; 9)</text>
</g>
<!-- n27 (0.51 &#45; 11)&#45;&gt;n24 (0.64 &#45; 9) -->
<g id="edge13" class="edge"><title>n27 (0.51 &#45; 11)&#45;&gt;n24 (0.64 &#45; 9)</title>
<path fill="none" stroke="black" d="M661.139,-531.2C692.04,-518.167 737.597,-498.953 770.908,-484.903"/>
<polygon fill="black" stroke="black" points="772.534,-488.016 780.388,-480.905 769.814,-481.566 772.534,-488.016"/>
</g>
<!-- n21 (0.80 &#45; 4) -->
<g id="node15" class="node"><title>n21 (0.80 &#45; 4)</title>
<ellipse fill="none" stroke="black" cx="559.84" cy="-301.81" rx="59.5901" ry="18"/>
<text text-anchor="middle" x="559.84" y="-298.11" font-family="Times,serif" font-size="14.00">n21 (0.80 &#45; 4)</text>
</g>
<!-- n24 (0.64 &#45; 9)&#45;&gt;n21 (0.80 &#45; 4) -->
<g id="edge14" class="edge"><title>n24 (0.64 &#45; 9)&#45;&gt;n21 (0.80 &#45; 4)</title>
<path fill="none" stroke="black" d="M789.486,-449.264C743.591,-419.995 644.28,-356.66 592.594,-323.698"/>
<polygon fill="black" stroke="black" points="594.434,-320.721 584.121,-318.295 590.67,-326.623 594.434,-320.721"/>
</g>
<!-- n20 (0.80 &#45; 5) -->
<g id="node18" class="node"><title>n20 (0.80 &#45; 5)</title>
<ellipse fill="none" stroke="black" cx="813.84" cy="-301.81" rx="59.5901" ry="18"/>
<text text-anchor="middle" x="813.84" y="-298.11" font-family="Times,serif" font-size="14.00">n20 (0.80 &#45; 5)</text>
</g>
<!-- n24 (0.64 &#45; 9)&#45;&gt;n20 (0.80 &#45; 5) -->
<g id="edge17" class="edge"><title>n24 (0.64 &#45; 9)&#45;&gt;n20 (0.80 &#45; 5)</title>
<path fill="none" stroke="black" d="M813.84,-447.767C813.84,-419.767 813.84,-363.768 813.84,-330.159"/>
<polygon fill="black" stroke="black" points="817.34,-330.098 813.84,-320.098 810.34,-330.098 817.34,-330.098"/>
</g>
<!-- TWO_WAY_SUPPORT -->
<g id="node16" class="node"><title>TWO_WAY_SUPPORT</title>
<ellipse fill="none" stroke="black" cx="274.84" cy="-127.217" rx="100.182" ry="18"/>
<text text-anchor="middle" x="274.84" y="-123.517" font-family="Times,serif" font-size="14.00">TWO_WAY_SUPPORT</text>
</g>
<!-- n21 (0.80 &#45; 4)&#45;&gt;TWO_WAY_SUPPORT -->
<g id="edge15" class="edge"><title>n21 (0.80 &#45; 4)&#45;&gt;TWO_WAY_SUPPORT</title>
<path fill="none" stroke="black" d="M534.548,-285.493C483.858,-254.796 369.678,-185.65 311.063,-150.153"/>
<polygon fill="black" stroke="black" points="312.518,-146.942 302.151,-144.756 308.892,-152.93 312.518,-146.942"/>
</g>
<!-- J_MEASURE\nTWO_WAY_SUPPORT_VARIATION\nFISHER_PVAL -->
<g id="node17" class="node"><title>J_MEASURE\nTWO_WAY_SUPPORT_VARIATION\nFISHER_PVAL</title>
<ellipse fill="none" stroke="black" cx="559.84" cy="-127.217" rx="166.754" ry="37.4533"/>
<text text-anchor="middle" x="559.84" y="-138.517" font-family="Times,serif" font-size="14.00">J_MEASURE</text>
<text text-anchor="middle" x="559.84" y="-123.517" font-family="Times,serif" font-size="14.00">TWO_WAY_SUPPORT_VARIATION</text>
<text text-anchor="middle" x="559.84" y="-108.517" font-family="Times,serif" font-size="14.00">FISHER_PVAL</text>
</g>
<!-- n21 (0.80 &#45; 4)&#45;&gt;J_MEASURE\nTWO_WAY_SUPPORT_VARIATION\nFISHER_PVAL -->
<g id="edge16" class="edge"><title>n21 (0.80 &#45; 4)&#45;&gt;J_MEASURE\nTWO_WAY_SUPPORT_VARIATION\nFISHER_PVAL</title>
<path fill="none" stroke="black" d="M559.84,-283.63C559.84,-258.564 559.84,-211.046 559.84,-175.122"/>
<polygon fill="black" stroke="black" points="563.34,-174.856 559.84,-164.856 556.34,-174.856 563.34,-174.856"/>
</g>
<!-- n16 (0.88 &#45; 2) -->
<g id="node19" class="node"><title>n16 (0.88 &#45; 2)</title>
<ellipse fill="none" stroke="black" cx="804.84" cy="-127.217" rx="59.5901" ry="18"/>
<text text-anchor="middle" x="804.84" y="-123.517" font-family="Times,serif" font-size="14.00">n16 (0.88 &#45; 2)</text>
</g>
<!-- n20 (0.80 &#45; 5)&#45;&gt;n16 (0.88 &#45; 2) -->
<g id="edge18" class="edge"><title>n20 (0.80 &#45; 5)&#45;&gt;n16 (0.88 &#45; 2)</title>
<path fill="none" stroke="black" d="M812.944,-283.63C811.381,-253.649 808.143,-191.547 806.267,-155.584"/>
<polygon fill="black" stroke="black" points="809.749,-155.131 805.732,-145.327 802.758,-155.496 809.749,-155.131"/>
</g>
<!-- n18 (0.86 &#45; 3) -->
<g id="node22" class="node"><title>n18 (0.86 &#45; 3)</title>
<ellipse fill="none" stroke="black" cx="942.84" cy="-127.217" rx="59.5901" ry="18"/>
<text text-anchor="middle" x="942.84" y="-123.517" font-family="Times,serif" font-size="14.00">n18 (0.86 &#45; 3)</text>
</g>
<!-- n20 (0.80 &#45; 5)&#45;&gt;n18 (0.86 &#45; 3) -->
<g id="edge21" class="edge"><title>n20 (0.80 &#45; 5)&#45;&gt;n18 (0.86 &#45; 3)</title>
<path fill="none" stroke="black" d="M826.444,-283.947C849.238,-253.45 897.414,-188.994 924.086,-153.309"/>
<polygon fill="black" stroke="black" points="927.192,-155 930.375,-144.894 921.585,-150.809 927.192,-155"/>
</g>
<!-- JACCARD -->
<g id="node20" class="node"><title>JACCARD</title>
<ellipse fill="none" stroke="black" cx="705.84" cy="-26.8701" rx="50.8918" ry="18"/>
<text text-anchor="middle" x="705.84" y="-23.1701" font-family="Times,serif" font-size="14.00">JACCARD</text>
</g>
<!-- n16 (0.88 &#45; 2)&#45;&gt;JACCARD -->
<g id="edge19" class="edge"><title>n16 (0.88 &#45; 2)&#45;&gt;JACCARD</title>
<path fill="none" stroke="black" d="M788.046,-109.534C771.924,-93.5176 747.423,-69.1784 729.361,-51.236"/>
<polygon fill="black" stroke="black" points="731.619,-48.5456 722.058,-43.981 726.686,-53.5117 731.619,-48.5456"/>
</g>
<!-- KAPPA -->
<g id="node21" class="node"><title>KAPPA</title>
<ellipse fill="none" stroke="black" cx="813.84" cy="-26.8701" rx="39.7935" ry="18"/>
<text text-anchor="middle" x="813.84" y="-23.1701" font-family="Times,serif" font-size="14.00">KAPPA</text>
</g>
<!-- n16 (0.88 &#45; 2)&#45;&gt;KAPPA -->
<g id="edge20" class="edge"><title>n16 (0.88 &#45; 2)&#45;&gt;KAPPA</title>
<path fill="none" stroke="black" d="M806.408,-109.086C807.768,-94.2288 809.76,-72.4593 811.339,-55.1976"/>
<polygon fill="black" stroke="black" points="814.834,-55.4118 812.26,-45.1344 807.863,-54.7738 814.834,-55.4118"/>
</g>
<!-- COSINE -->
<g id="node23" class="node"><title>COSINE</title>
<ellipse fill="none" stroke="black" cx="932.84" cy="-26.8701" rx="42.4939" ry="18"/>
<text text-anchor="middle" x="932.84" y="-23.1701" font-family="Times,serif" font-size="14.00">COSINE</text>
</g>
<!-- n18 (0.86 &#45; 3)&#45;&gt;COSINE -->
<g id="edge22" class="edge"><title>n18 (0.86 &#45; 3)&#45;&gt;COSINE</title>
<path fill="none" stroke="black" d="M941.098,-109.086C939.588,-94.2288 937.374,-72.4593 935.619,-55.1976"/>
<polygon fill="black" stroke="black" points="939.089,-54.729 934.596,-45.1344 932.125,-55.4372 939.089,-54.729"/>
</g>
<!-- PHI\nCHI_SQUARE -->
<g id="node24" class="node"><title>PHI\nCHI_SQUARE</title>
<ellipse fill="none" stroke="black" cx="1064.84" cy="-26.8701" rx="71.3357" ry="26.7407"/>
<text text-anchor="middle" x="1064.84" y="-30.6701" font-family="Times,serif" font-size="14.00">PHI</text>
<text text-anchor="middle" x="1064.84" y="-15.6701" font-family="Times,serif" font-size="14.00">CHI_SQUARE</text>
</g>
<!-- n18 (0.86 &#45; 3)&#45;&gt;PHI\nCHI_SQUARE -->
<g id="edge23" class="edge"><title>n18 (0.86 &#45; 3)&#45;&gt;PHI\nCHI_SQUARE</title>
<path fill="none" stroke="black" d="M962.713,-110.197C980.196,-96.1039 1006.11,-75.2106 1027.47,-57.999"/>
<polygon fill="black" stroke="black" points="1029.81,-60.6055 1035.4,-51.6046 1025.42,-55.1557 1029.81,-60.6055"/>
</g>
<!-- n28 (0.48 &#45; 9) -->
<g id="node26" class="node"><title>n28 (0.48 &#45; 9)</title>
<ellipse fill="none" stroke="black" cx="1184.84" cy="-546.666" rx="59.5901" ry="18"/>
<text text-anchor="middle" x="1184.84" y="-542.966" font-family="Times,serif" font-size="14.00">n28 (0.48 &#45; 9)</text>
</g>
<!-- n31 (0.20 &#45; 20)&#45;&gt;n28 (0.48 &#45; 9) -->
<g id="edge25" class="edge"><title>n31 (0.20 &#45; 20)&#45;&gt;n28 (0.48 &#45; 9)</title>
<path fill="none" stroke="black" d="M1184.84,-600.363C1184.84,-592.649 1184.84,-583.379 1184.84,-574.779"/>
<polygon fill="black" stroke="black" points="1188.34,-574.77 1184.84,-564.77 1181.34,-574.77 1188.34,-574.77"/>
</g>
<!-- n26 (0.54 &#45; 11) -->
<g id="node35" class="node"><title>n26 (0.54 &#45; 11)</title>
<ellipse fill="none" stroke="black" cx="1462.84" cy="-546.666" rx="64.189" ry="18"/>
<text text-anchor="middle" x="1462.84" y="-542.966" font-family="Times,serif" font-size="14.00">n26 (0.54 &#45; 11)</text>
</g>
<!-- n31 (0.20 &#45; 20)&#45;&gt;n26 (0.54 &#45; 11) -->
<g id="edge34" class="edge"><title>n31 (0.20 &#45; 20)&#45;&gt;n26 (0.54 &#45; 11)</title>
<path fill="none" stroke="black" d="M1231.06,-606.028C1279.26,-593.892 1354.85,-574.857 1406.51,-561.849"/>
<polygon fill="black" stroke="black" points="1407.67,-565.167 1416.51,-559.332 1405.96,-558.379 1407.67,-565.167"/>
</g>
<!-- n23 (0.67 &#45; 3) -->
<g id="node27" class="node"><title>n23 (0.67 &#45; 3)</title>
<ellipse fill="none" stroke="black" cx="1098.84" cy="-465.796" rx="59.5901" ry="18"/>
<text text-anchor="middle" x="1098.84" y="-462.096" font-family="Times,serif" font-size="14.00">n23 (0.67 &#45; 3)</text>
</g>
<!-- n28 (0.48 &#45; 9)&#45;&gt;n23 (0.67 &#45; 3) -->
<g id="edge26" class="edge"><title>n28 (0.48 &#45; 9)&#45;&gt;n23 (0.67 &#45; 3)</title>
<path fill="none" stroke="black" d="M1167.02,-529.324C1154.68,-518.009 1138.07,-502.777 1124.34,-490.18"/>
<polygon fill="black" stroke="black" points="1126.37,-487.297 1116.64,-483.117 1121.64,-492.456 1126.37,-487.297"/>
</g>
<!-- n19 (0.82 &#45; 6) -->
<g id="node32" class="node"><title>n19 (0.82 &#45; 6)</title>
<ellipse fill="none" stroke="black" cx="1271.84" cy="-465.796" rx="59.5901" ry="18"/>
<text text-anchor="middle" x="1271.84" y="-462.096" font-family="Times,serif" font-size="14.00">n19 (0.82 &#45; 6)</text>
</g>
<!-- n28 (0.48 &#45; 9)&#45;&gt;n19 (0.82 &#45; 6) -->
<g id="edge31" class="edge"><title>n28 (0.48 &#45; 9)&#45;&gt;n19 (0.82 &#45; 6)</title>
<path fill="none" stroke="black" d="M1202.87,-529.324C1215.35,-518.009 1232.15,-502.777 1246.05,-490.18"/>
<polygon fill="black" stroke="black" points="1248.78,-492.427 1253.84,-483.117 1244.08,-487.24 1248.78,-492.427"/>
</g>
<!-- ACCURACY -->
<g id="node28" class="node"><title>ACCURACY</title>
<ellipse fill="none" stroke="black" cx="960.84" cy="-301.81" rx="59.5901" ry="18"/>
<text text-anchor="middle" x="960.84" y="-298.11" font-family="Times,serif" font-size="14.00">ACCURACY</text>
</g>
<!-- n23 (0.67 &#45; 3)&#45;&gt;ACCURACY -->
<g id="edge27" class="edge"><title>n23 (0.67 &#45; 3)&#45;&gt;ACCURACY</title>
<path fill="none" stroke="black" d="M1078.34,-448.615C1063.96,-436.755 1044.72,-419.837 1029.84,-402.926 1009.07,-379.32 989.108,-349.289 976.048,-328.302"/>
<polygon fill="black" stroke="black" points="978.938,-326.32 970.723,-319.63 972.972,-329.983 978.938,-326.32"/>
</g>
<!-- n17 (0.86 &#45; 2) -->
<g id="node29" class="node"><title>n17 (0.86 &#45; 2)</title>
<ellipse fill="none" stroke="black" cx="1098.84" cy="-301.81" rx="59.5901" ry="18"/>
<text text-anchor="middle" x="1098.84" y="-298.11" font-family="Times,serif" font-size="14.00">n17 (0.86 &#45; 2)</text>
</g>
<!-- n23 (0.67 &#45; 3)&#45;&gt;n17 (0.86 &#45; 2) -->
<g id="edge28" class="edge"><title>n23 (0.67 &#45; 3)&#45;&gt;n17 (0.86 &#45; 2)</title>
<path fill="none" stroke="black" d="M1098.84,-447.767C1098.84,-419.767 1098.84,-363.768 1098.84,-330.159"/>
<polygon fill="black" stroke="black" points="1102.34,-330.098 1098.84,-320.098 1095.34,-330.098 1102.34,-330.098"/>
</g>
<!-- RELATIVE_RISK -->
<g id="node30" class="node"><title>RELATIVE_RISK</title>
<ellipse fill="none" stroke="black" cx="1098.84" cy="-127.217" rx="77.9862" ry="18"/>
<text text-anchor="middle" x="1098.84" y="-123.517" font-family="Times,serif" font-size="14.00">RELATIVE_RISK</text>
</g>
<!-- n17 (0.86 &#45; 2)&#45;&gt;RELATIVE_RISK -->
<g id="edge29" class="edge"><title>n17 (0.86 &#45; 2)&#45;&gt;RELATIVE_RISK</title>
<path fill="none" stroke="black" d="M1098.84,-283.63C1098.84,-253.649 1098.84,-191.547 1098.84,-155.584"/>
<polygon fill="black" stroke="black" points="1102.34,-155.327 1098.84,-145.327 1095.34,-155.327 1102.34,-155.327"/>
</g>
<!-- LIFT -->
<g id="node31" class="node"><title>LIFT</title>
<ellipse fill="none" stroke="black" cx="1223.84" cy="-127.217" rx="29.4969" ry="18"/>
<text text-anchor="middle" x="1223.84" y="-123.517" font-family="Times,serif" font-size="14.00">LIFT</text>
</g>
<!-- n17 (0.86 &#45; 2)&#45;&gt;LIFT -->
<g id="edge30" class="edge"><title>n17 (0.86 &#45; 2)&#45;&gt;LIFT</title>
<path fill="none" stroke="black" d="M1110.04,-283.963C1123.47,-263.908 1146.8,-229.506 1167.84,-200.693 1179.95,-184.102 1194.1,-165.799 1205.15,-151.737"/>
<polygon fill="black" stroke="black" points="1208.13,-153.603 1211.58,-143.583 1202.64,-149.268 1208.13,-153.603"/>
</g>
<!-- ODD_MULTIPLIER\nZHANG\nBAYES -->
<g id="node33" class="node"><title>ODD_MULTIPLIER\nZHANG\nBAYES</title>
<ellipse fill="none" stroke="black" cx="1271.84" cy="-301.81" rx="94.5053" ry="37.4533"/>
<text text-anchor="middle" x="1271.84" y="-313.11" font-family="Times,serif" font-size="14.00">ODD_MULTIPLIER</text>
<text text-anchor="middle" x="1271.84" y="-298.11" font-family="Times,serif" font-size="14.00">ZHANG</text>
<text text-anchor="middle" x="1271.84" y="-283.11" font-family="Times,serif" font-size="14.00">BAYES</text>
</g>
<!-- n19 (0.82 &#45; 6)&#45;&gt;ODD_MULTIPLIER\nZHANG\nBAYES -->
<g id="edge32" class="edge"><title>n19 (0.82 &#45; 6)&#45;&gt;ODD_MULTIPLIER\nZHANG\nBAYES</title>
<path fill="none" stroke="black" d="M1271.84,-447.767C1271.84,-424.678 1271.84,-382.55 1271.84,-349.638"/>
<polygon fill="black" stroke="black" points="1275.34,-349.312 1271.84,-339.312 1268.34,-349.312 1275.34,-349.312"/>
</g>
<!-- YULE_Y\nYULE_Q\nODDS_RATIO -->
<g id="node34" class="node"><title>YULE_Y\nYULE_Q\nODDS_RATIO</title>
<ellipse fill="none" stroke="black" cx="1455.84" cy="-301.81" rx="71.3357" ry="37.4533"/>
<text text-anchor="middle" x="1455.84" y="-313.11" font-family="Times,serif" font-size="14.00">YULE_Y</text>
<text text-anchor="middle" x="1455.84" y="-298.11" font-family="Times,serif" font-size="14.00">YULE_Q</text>
<text text-anchor="middle" x="1455.84" y="-283.11" font-family="Times,serif" font-size="14.00">ODDS_RATIO</text>
</g>
<!-- n19 (0.82 &#45; 6)&#45;&gt;YULE_Y\nYULE_Q\nODDS_RATIO -->
<g id="edge33" class="edge"><title>n19 (0.82 &#45; 6)&#45;&gt;YULE_Y\nYULE_Q\nODDS_RATIO</title>
<path fill="none" stroke="black" d="M1302.89,-450.099C1324.64,-438.938 1353.66,-422.246 1375.84,-402.926 1394.98,-386.249 1412.96,-364.547 1427,-345.613"/>
<polygon fill="black" stroke="black" points="1429.91,-347.56 1432.97,-337.415 1424.25,-343.441 1429.91,-347.56"/>
</g>
<!-- ONE_WAY_SUPPORT -->
<g id="node36" class="node"><title>ONE_WAY_SUPPORT</title>
<ellipse fill="none" stroke="black" cx="1462.84" cy="-465.796" rx="97.4827" ry="18"/>
<text text-anchor="middle" x="1462.84" y="-462.096" font-family="Times,serif" font-size="14.00">ONE_WAY_SUPPORT</text>
</g>
<!-- n26 (0.54 &#45; 11)&#45;&gt;ONE_WAY_SUPPORT -->
<g id="edge35" class="edge"><title>n26 (0.54 &#45; 11)&#45;&gt;ONE_WAY_SUPPORT</title>
<path fill="none" stroke="black" d="M1462.84,-528.552C1462.84,-518.527 1462.84,-505.632 1462.84,-494.221"/>
<polygon fill="black" stroke="black" points="1466.34,-493.876 1462.84,-483.876 1459.34,-493.876 1466.34,-493.876"/>
</g>
<!-- n22 (0.74 &#45; 10) -->
<g id="node37" class="node"><title>n22 (0.74 &#45; 10)</title>
<ellipse fill="none" stroke="black" cx="1659.84" cy="-465.796" rx="64.189" ry="18"/>
<text text-anchor="middle" x="1659.84" y="-462.096" font-family="Times,serif" font-size="14.00">n22 (0.74 &#45; 10)</text>
</g>
<!-- n26 (0.54 &#45; 11)&#45;&gt;n22 (0.74 &#45; 10) -->
<g id="edge36" class="edge"><title>n26 (0.54 &#45; 11)&#45;&gt;n22 (0.74 &#45; 10)</title>
<path fill="none" stroke="black" d="M1498.06,-531.566C1530.74,-518.484 1579.52,-498.952 1614.97,-484.759"/>
<polygon fill="black" stroke="black" points="1616.61,-487.873 1624.59,-480.907 1614.01,-481.375 1616.61,-487.873"/>
</g>
<!-- LEAST_CONTRADICTION -->
<g id="node38" class="node"><title>LEAST_CONTRADICTION</title>
<ellipse fill="none" stroke="black" cx="1659.84" cy="-301.81" rx="114.28" ry="18"/>
<text text-anchor="middle" x="1659.84" y="-298.11" font-family="Times,serif" font-size="14.00">LEAST_CONTRADICTION</text>
</g>
<!-- n22 (0.74 &#45; 10)&#45;&gt;LEAST_CONTRADICTION -->
<g id="edge37" class="edge"><title>n22 (0.74 &#45; 10)&#45;&gt;LEAST_CONTRADICTION</title>
<path fill="none" stroke="black" d="M1659.84,-447.767C1659.84,-419.767 1659.84,-363.768 1659.84,-330.159"/>
<polygon fill="black" stroke="black" points="1663.34,-330.098 1659.84,-320.098 1656.34,-330.098 1663.34,-330.098"/>
</g>
<!-- CENTERED_CONFIDENCE\nADDED_VALUE\nLOEVINGER\nCONVICTION\nCERTAINTY_FACTOR\nSEBAG_SCHOENAUER\nCOUNTER_EXAMPLE_RATE\nLEVERAGE\nCONFIDENCE -->
<g id="node39" class="node"><title>CENTERED_CONFIDENCE\nADDED_VALUE\nLOEVINGER\nCONVICTION\nCERTAINTY_FACTOR\nSEBAG_SCHOENAUER\nCOUNTER_EXAMPLE_RATE\nLEVERAGE\nCONFIDENCE</title>
<ellipse fill="none" stroke="black" cx="1929.84" cy="-301.81" rx="137.358" ry="101.233"/>
<text text-anchor="middle" x="1929.84" y="-358.11" font-family="Times,serif" font-size="14.00">CENTERED_CONFIDENCE</text>
<text text-anchor="middle" x="1929.84" y="-343.11" font-family="Times,serif" font-size="14.00">ADDED_VALUE</text>
<text text-anchor="middle" x="1929.84" y="-328.11" font-family="Times,serif" font-size="14.00">LOEVINGER</text>
<text text-anchor="middle" x="1929.84" y="-313.11" font-family="Times,serif" font-size="14.00">CONVICTION</text>
<text text-anchor="middle" x="1929.84" y="-298.11" font-family="Times,serif" font-size="14.00">CERTAINTY_FACTOR</text>
<text text-anchor="middle" x="1929.84" y="-283.11" font-family="Times,serif" font-size="14.00">SEBAG_SCHOENAUER</text>
<text text-anchor="middle" x="1929.84" y="-268.11" font-family="Times,serif" font-size="14.00">COUNTER_EXAMPLE_RATE</text>
<text text-anchor="middle" x="1929.84" y="-253.11" font-family="Times,serif" font-size="14.00">LEVERAGE</text>
<text text-anchor="middle" x="1929.84" y="-238.11" font-family="Times,serif" font-size="14.00">CONFIDENCE</text>
</g>
<!-- n22 (0.74 &#45; 10)&#45;&gt;CENTERED_CONFIDENCE\nADDED_VALUE\nLOEVINGER\nCONVICTION\nCERTAINTY_FACTOR\nSEBAG_SCHOENAUER\nCOUNTER_EXAMPLE_RATE\nLEVERAGE\nCONFIDENCE -->
<g id="edge38" class="edge"><title>n22 (0.74 &#45; 10)&#45;&gt;CENTERED_CONFIDENCE\nADDED_VALUE\nLOEVINGER\nCONVICTION\nCERTAINTY_FACTOR\nSEBAG_SCHOENAUER\nCOUNTER_EXAMPLE_RATE\nLEVERAGE\nCONFIDENCE</title>
<path fill="none" stroke="black" d="M1691.79,-450.148C1716.99,-438.262 1752.76,-420.628 1782.84,-402.926 1795.94,-395.217 1809.43,-386.772 1822.69,-378.158"/>
<polygon fill="black" stroke="black" points="1824.91,-380.887 1831.36,-372.48 1821.07,-375.031 1824.91,-380.887"/>
</g>
</g>
</svg>
