<?xml version="1.0" encoding="UTF-8" standalone="no"?>
<!DOCTYPE svg PUBLIC "-//W3C//DTD SVG 1.1//EN"
 "http://www.w3.org/Graphics/SVG/1.1/DTD/svg11.dtd">
<!-- Generated by graphviz version 2.38.0 (20140413.2041)
 -->
<!-- Title: dendrogram Pages: 1 -->
<svg width="1119pt" height="980pt"
 viewBox="0.00 0.00 1119.44 979.58" xmlns="http://www.w3.org/2000/svg" xmlns:xlink="http://www.w3.org/1999/xlink">
<g id="graph0" class="graph" transform="scale(1 1) rotate(0) translate(4 975.585)">
<title>dendrogram</title>
<polygon fill="white" stroke="none" points="-4,4 -4,-975.585 1115.44,-975.585 1115.44,4 -4,4"/>
<!-- n34 (0.19 &#45; 36) -->
<g id="node1" class="node"><title>n34 (0.19 &#45; 36)</title>
<ellipse fill="none" stroke="black" cx="488.84" cy="-953.585" rx="64.189" ry="18"/>
<text text-anchor="middle" x="488.84" y="-949.885" font-family="Times,serif" font-size="14.00">n34 (0.19 &#45; 36)</text>
</g>
<!-- n32 (0.39 &#45; 16) -->
<g id="node2" class="node"><title>n32 (0.39 &#45; 16)</title>
<ellipse fill="none" stroke="black" cx="385.84" cy="-881.585" rx="64.189" ry="18"/>
<text text-anchor="middle" x="385.84" y="-877.885" font-family="Times,serif" font-size="14.00">n32 (0.39 &#45; 16)</text>
</g>
<!-- n34 (0.19 &#45; 36)&#45;&gt;n32 (0.39 &#45; 16) -->
<g id="edge1" class="edge"><title>n34 (0.19 &#45; 36)&#45;&gt;n32 (0.39 &#45; 16)</title>
<path fill="none" stroke="black" d="M465.468,-936.701C451.245,-927.035 432.894,-914.563 417.394,-904.029"/>
<polygon fill="black" stroke="black" points="419.358,-901.132 409.12,-898.406 415.423,-906.922 419.358,-901.132"/>
</g>
<!-- n33 (0.27 &#45; 20) -->
<g id="node23" class="node"><title>n33 (0.27 &#45; 20)</title>
<ellipse fill="none" stroke="black" cx="592.84" cy="-881.585" rx="64.189" ry="18"/>
<text text-anchor="middle" x="592.84" y="-877.885" font-family="Times,serif" font-size="14.00">n33 (0.27 &#45; 20)</text>
</g>
<!-- n34 (0.19 &#45; 36)&#45;&gt;n33 (0.27 &#45; 20) -->
<g id="edge22" class="edge"><title>n34 (0.19 &#45; 36)&#45;&gt;n33 (0.27 &#45; 20)</title>
<path fill="none" stroke="black" d="M512.439,-936.701C526.8,-927.035 545.33,-914.563 560.981,-904.029"/>
<polygon fill="black" stroke="black" points="562.993,-906.894 569.334,-898.406 559.084,-901.086 562.993,-906.894"/>
</g>
<!-- n27 (0.79 &#45; 3) -->
<g id="node3" class="node"><title>n27 (0.79 &#45; 3)</title>
<ellipse fill="none" stroke="black" cx="243.84" cy="-631.009" rx="59.5901" ry="18"/>
<text text-anchor="middle" x="243.84" y="-627.309" font-family="Times,serif" font-size="14.00">n27 (0.79 &#45; 3)</text>
</g>
<!-- n32 (0.39 &#45; 16)&#45;&gt;n27 (0.79 &#45; 3) -->
<g id="edge2" class="edge"><title>n32 (0.39 &#45; 16)&#45;&gt;n27 (0.79 &#45; 3)</title>
<path fill="none" stroke="black" d="M356.893,-865.258C341.944,-856.072 324.453,-843.15 312.84,-827.585 273.888,-775.376 255.531,-699.285 248.113,-659.141"/>
<polygon fill="black" stroke="black" points="251.518,-658.295 246.341,-649.051 244.624,-659.506 251.518,-658.295"/>
</g>
<!-- n31 (0.56 &#45; 13) -->
<g id="node8" class="node"><title>n31 (0.56 &#45; 13)</title>
<ellipse fill="none" stroke="black" cx="385.84" cy="-631.009" rx="64.189" ry="18"/>
<text text-anchor="middle" x="385.84" y="-627.309" font-family="Times,serif" font-size="14.00">n31 (0.56 &#45; 13)</text>
</g>
<!-- n32 (0.39 &#45; 16)&#45;&gt;n31 (0.56 &#45; 13) -->
<g id="edge7" class="edge"><title>n32 (0.39 &#45; 16)&#45;&gt;n31 (0.56 &#45; 13)</title>
<path fill="none" stroke="black" d="M385.84,-863.499C385.84,-821.104 385.84,-710.797 385.84,-659.272"/>
<polygon fill="black" stroke="black" points="389.34,-659.214 385.84,-649.214 382.34,-659.214 389.34,-659.214"/>
</g>
<!-- COSINE -->
<g id="node4" class="node"><title>COSINE</title>
<ellipse fill="none" stroke="black" cx="126.84" cy="-380.434" rx="42.4939" ry="18"/>
<text text-anchor="middle" x="126.84" y="-376.734" font-family="Times,serif" font-size="14.00">COSINE</text>
</g>
<!-- n27 (0.79 &#45; 3)&#45;&gt;COSINE -->
<g id="edge3" class="edge"><title>n27 (0.79 &#45; 3)&#45;&gt;COSINE</title>
<path fill="none" stroke="black" d="M235.798,-612.924C215.67,-570.159 163.018,-458.296 139.045,-407.364"/>
<polygon fill="black" stroke="black" points="142.209,-405.867 134.784,-398.31 135.876,-408.848 142.209,-405.867"/>
</g>
<!-- n24 (0.86 &#45; 2) -->
<g id="node5" class="node"><title>n24 (0.86 &#45; 2)</title>
<ellipse fill="none" stroke="black" cx="246.84" cy="-380.434" rx="59.5901" ry="18"/>
<text text-anchor="middle" x="246.84" y="-376.734" font-family="Times,serif" font-size="14.00">n24 (0.86 &#45; 2)</text>
</g>
<!-- n27 (0.79 &#45; 3)&#45;&gt;n24 (0.86 &#45; 2) -->
<g id="edge4" class="edge"><title>n27 (0.79 &#45; 3)&#45;&gt;n24 (0.86 &#45; 2)</title>
<path fill="none" stroke="black" d="M244.046,-612.924C244.558,-570.528 245.889,-460.222 246.511,-408.696"/>
<polygon fill="black" stroke="black" points="250.012,-408.68 246.633,-398.639 243.012,-408.596 250.012,-408.68"/>
</g>
<!-- COLLECTIVE_STRENGH -->
<g id="node6" class="node"><title>COLLECTIVE_STRENGH</title>
<ellipse fill="none" stroke="black" cx="109.84" cy="-308.434" rx="109.681" ry="18"/>
<text text-anchor="middle" x="109.84" y="-304.734" font-family="Times,serif" font-size="14.00">COLLECTIVE_STRENGH</text>
</g>
<!-- n24 (0.86 &#45; 2)&#45;&gt;COLLECTIVE_STRENGH -->
<g id="edge5" class="edge"><title>n24 (0.86 &#45; 2)&#45;&gt;COLLECTIVE_STRENGH</title>
<path fill="none" stroke="black" d="M217.786,-364.588C198.268,-354.615 172.267,-341.331 150.675,-330.298"/>
<polygon fill="black" stroke="black" points="152.22,-327.157 141.723,-325.724 149.035,-333.391 152.22,-327.157"/>
</g>
<!-- RECALL -->
<g id="node7" class="node"><title>RECALL</title>
<ellipse fill="none" stroke="black" cx="282.84" cy="-308.434" rx="44.6926" ry="18"/>
<text text-anchor="middle" x="282.84" y="-304.734" font-family="Times,serif" font-size="14.00">RECALL</text>
</g>
<!-- n24 (0.86 &#45; 2)&#45;&gt;RECALL -->
<g id="edge6" class="edge"><title>n24 (0.86 &#45; 2)&#45;&gt;RECALL</title>
<path fill="none" stroke="black" d="M255.555,-362.489C259.756,-354.32 264.886,-344.345 269.559,-335.258"/>
<polygon fill="black" stroke="black" points="272.745,-336.716 274.206,-326.223 266.52,-333.515 272.745,-336.716"/>
</g>
<!-- JACCARD -->
<g id="node9" class="node"><title>JACCARD</title>
<ellipse fill="none" stroke="black" cx="378.84" cy="-380.434" rx="50.8918" ry="18"/>
<text text-anchor="middle" x="378.84" y="-376.734" font-family="Times,serif" font-size="14.00">JACCARD</text>
</g>
<!-- n31 (0.56 &#45; 13)&#45;&gt;JACCARD -->
<g id="edge8" class="edge"><title>n31 (0.56 &#45; 13)&#45;&gt;JACCARD</title>
<path fill="none" stroke="black" d="M385.359,-612.924C384.165,-570.528 381.059,-460.222 379.608,-408.696"/>
<polygon fill="black" stroke="black" points="383.105,-408.536 379.325,-398.639 376.108,-408.733 383.105,-408.536"/>
</g>
<!-- n30 (0.59 &#45; 12) -->
<g id="node10" class="node"><title>n30 (0.59 &#45; 12)</title>
<ellipse fill="none" stroke="black" cx="511.84" cy="-380.434" rx="64.189" ry="18"/>
<text text-anchor="middle" x="511.84" y="-376.734" font-family="Times,serif" font-size="14.00">n30 (0.59 &#45; 12)</text>
</g>
<!-- n31 (0.56 &#45; 13)&#45;&gt;n30 (0.59 &#45; 12) -->
<g id="edge9" class="edge"><title>n31 (0.56 &#45; 13)&#45;&gt;n30 (0.59 &#45; 12)</title>
<path fill="none" stroke="black" d="M389.748,-612.966C398.381,-577.601 421.417,-494.538 459.84,-434.434 466.729,-423.657 476.089,-413.273 484.97,-404.596"/>
<polygon fill="black" stroke="black" points="487.373,-407.141 492.253,-397.737 482.573,-402.045 487.373,-407.141"/>
</g>
<!-- n23 (0.90 &#45; 4) -->
<g id="node11" class="node"><title>n23 (0.90 &#45; 4)</title>
<ellipse fill="none" stroke="black" cx="440.84" cy="-308.434" rx="59.5901" ry="18"/>
<text text-anchor="middle" x="440.84" y="-304.734" font-family="Times,serif" font-size="14.00">n23 (0.90 &#45; 4)</text>
</g>
<!-- n30 (0.59 &#45; 12)&#45;&gt;n23 (0.90 &#45; 4) -->
<g id="edge10" class="edge"><title>n30 (0.59 &#45; 12)&#45;&gt;n23 (0.90 &#45; 4)</title>
<path fill="none" stroke="black" d="M495.014,-362.845C485.995,-353.953 474.728,-342.844 464.809,-333.064"/>
<polygon fill="black" stroke="black" points="467.124,-330.432 457.545,-325.903 462.209,-335.417 467.124,-330.432"/>
</g>
<!-- n29 (0.64 &#45; 8) -->
<g id="node14" class="node"><title>n29 (0.64 &#45; 8)</title>
<ellipse fill="none" stroke="black" cx="685.84" cy="-308.434" rx="59.5901" ry="18"/>
<text text-anchor="middle" x="685.84" y="-304.734" font-family="Times,serif" font-size="14.00">n29 (0.64 &#45; 8)</text>
</g>
<!-- n30 (0.59 &#45; 12)&#45;&gt;n29 (0.64 &#45; 8) -->
<g id="edge13" class="edge"><title>n30 (0.59 &#45; 12)&#45;&gt;n29 (0.64 &#45; 8)</title>
<path fill="none" stroke="black" d="M547.052,-365.268C574.442,-354.249 612.599,-338.898 641.974,-327.081"/>
<polygon fill="black" stroke="black" points="643.599,-330.2 651.571,-323.22 640.987,-323.705 643.599,-330.2"/>
</g>
<!-- GINI\nCHI_SQUARE -->
<g id="node12" class="node"><title>GINI\nCHI_SQUARE</title>
<ellipse fill="none" stroke="black" cx="184.84" cy="-227.563" rx="71.3357" ry="26.7407"/>
<text text-anchor="middle" x="184.84" y="-231.363" font-family="Times,serif" font-size="14.00">GINI</text>
<text text-anchor="middle" x="184.84" y="-216.363" font-family="Times,serif" font-size="14.00">CHI_SQUARE</text>
</g>
<!-- n23 (0.90 &#45; 4)&#45;&gt;GINI\nCHI_SQUARE -->
<g id="edge11" class="edge"><title>n23 (0.90 &#45; 4)&#45;&gt;GINI\nCHI_SQUARE</title>
<path fill="none" stroke="black" d="M399.517,-295.247C363.804,-284.653 310.836,-268.794 264.84,-254.434 259.217,-252.678 253.378,-250.833 247.532,-248.97"/>
<polygon fill="black" stroke="black" points="248.313,-245.545 237.722,-245.831 246.18,-252.212 248.313,-245.545"/>
</g>
<!-- J_MEASURE\nTWO_WAY_SUPPORT_VARIATION -->
<g id="node13" class="node"><title>J_MEASURE\nTWO_WAY_SUPPORT_VARIATION</title>
<ellipse fill="none" stroke="black" cx="440.84" cy="-227.563" rx="166.754" ry="26.7407"/>
<text text-anchor="middle" x="440.84" y="-231.363" font-family="Times,serif" font-size="14.00">J_MEASURE</text>
<text text-anchor="middle" x="440.84" y="-216.363" font-family="Times,serif" font-size="14.00">TWO_WAY_SUPPORT_VARIATION</text>
</g>
<!-- n23 (0.90 &#45; 4)&#45;&gt;J_MEASURE\nTWO_WAY_SUPPORT_VARIATION -->
<g id="edge12" class="edge"><title>n23 (0.90 &#45; 4)&#45;&gt;J_MEASURE\nTWO_WAY_SUPPORT_VARIATION</title>
<path fill="none" stroke="black" d="M440.84,-290.32C440.84,-282.83 440.84,-273.739 440.84,-264.861"/>
<polygon fill="black" stroke="black" points="444.34,-264.646 440.84,-254.646 437.34,-264.646 444.34,-264.646"/>
</g>
<!-- n28 (0.73 &#45; 4) -->
<g id="node15" class="node"><title>n28 (0.73 &#45; 4)</title>
<ellipse fill="none" stroke="black" cx="685.84" cy="-227.563" rx="59.5901" ry="18"/>
<text text-anchor="middle" x="685.84" y="-223.863" font-family="Times,serif" font-size="14.00">n28 (0.73 &#45; 4)</text>
</g>
<!-- n29 (0.64 &#45; 8)&#45;&gt;n28 (0.73 &#45; 4) -->
<g id="edge14" class="edge"><title>n29 (0.64 &#45; 8)&#45;&gt;n28 (0.73 &#45; 4)</title>
<path fill="none" stroke="black" d="M685.84,-290.32C685.84,-280.295 685.84,-267.4 685.84,-255.988"/>
<polygon fill="black" stroke="black" points="689.34,-255.644 685.84,-245.644 682.34,-255.644 689.34,-255.644"/>
</g>
<!-- n25 (0.84 &#45; 4) -->
<g id="node20" class="node"><title>n25 (0.84 &#45; 4)</title>
<ellipse fill="none" stroke="black" cx="823.84" cy="-227.563" rx="59.5901" ry="18"/>
<text text-anchor="middle" x="823.84" y="-223.863" font-family="Times,serif" font-size="14.00">n25 (0.84 &#45; 4)</text>
</g>
<!-- n29 (0.64 &#45; 8)&#45;&gt;n25 (0.84 &#45; 4) -->
<g id="edge19" class="edge"><title>n29 (0.64 &#45; 8)&#45;&gt;n25 (0.84 &#45; 4)</title>
<path fill="none" stroke="black" d="M712.448,-292.227C734.116,-279.843 764.891,-262.254 788.605,-248.701"/>
<polygon fill="black" stroke="black" points="790.369,-251.725 797.314,-243.724 786.895,-245.647 790.369,-251.725"/>
</g>
<!-- KAPPA -->
<g id="node16" class="node"><title>KAPPA</title>
<ellipse fill="none" stroke="black" cx="570.84" cy="-127.217" rx="39.7935" ry="18"/>
<text text-anchor="middle" x="570.84" y="-123.517" font-family="Times,serif" font-size="14.00">KAPPA</text>
</g>
<!-- n28 (0.73 &#45; 4)&#45;&gt;KAPPA -->
<g id="edge15" class="edge"><title>n28 (0.73 &#45; 4)&#45;&gt;KAPPA</title>
<path fill="none" stroke="black" d="M666.85,-210.324C647.617,-193.875 617.745,-168.329 596.432,-150.102"/>
<polygon fill="black" stroke="black" points="598.597,-147.349 588.722,-143.509 594.047,-152.669 598.597,-147.349"/>
</g>
<!-- n26 (0.84 &#45; 3) -->
<g id="node17" class="node"><title>n26 (0.84 &#45; 3)</title>
<ellipse fill="none" stroke="black" cx="687.84" cy="-127.217" rx="59.5901" ry="18"/>
<text text-anchor="middle" x="687.84" y="-123.517" font-family="Times,serif" font-size="14.00">n26 (0.84 &#45; 3)</text>
</g>
<!-- n28 (0.73 &#45; 4)&#45;&gt;n26 (0.84 &#45; 3) -->
<g id="edge16" class="edge"><title>n28 (0.73 &#45; 4)&#45;&gt;n26 (0.84 &#45; 3)</title>
<path fill="none" stroke="black" d="M686.189,-209.433C686.491,-194.576 686.933,-172.806 687.285,-155.544"/>
<polygon fill="black" stroke="black" points="690.785,-155.55 687.489,-145.481 683.786,-155.408 690.785,-155.55"/>
</g>
<!-- IMPLICATION_INDEX -->
<g id="node18" class="node"><title>IMPLICATION_INDEX</title>
<ellipse fill="none" stroke="black" cx="591.84" cy="-26.8701" rx="100.182" ry="18"/>
<text text-anchor="middle" x="591.84" y="-23.1701" font-family="Times,serif" font-size="14.00">IMPLICATION_INDEX</text>
</g>
<!-- n26 (0.84 &#45; 3)&#45;&gt;IMPLICATION_INDEX -->
<g id="edge17" class="edge"><title>n26 (0.84 &#45; 3)&#45;&gt;IMPLICATION_INDEX</title>
<path fill="none" stroke="black" d="M671.555,-109.534C656.109,-93.7094 632.731,-69.7602 615.281,-51.8834"/>
<polygon fill="black" stroke="black" points="617.695,-49.3462 608.205,-44.6351 612.686,-54.2359 617.695,-49.3462"/>
</g>
<!-- FISHER_PVAL\nPHI -->
<g id="node19" class="node"><title>FISHER_PVAL\nPHI</title>
<ellipse fill="none" stroke="black" cx="783.84" cy="-26.8701" rx="74.4932" ry="26.7407"/>
<text text-anchor="middle" x="783.84" y="-30.6701" font-family="Times,serif" font-size="14.00">FISHER_PVAL</text>
<text text-anchor="middle" x="783.84" y="-15.6701" font-family="Times,serif" font-size="14.00">PHI</text>
</g>
<!-- n26 (0.84 &#45; 3)&#45;&gt;FISHER_PVAL\nPHI -->
<g id="edge18" class="edge"><title>n26 (0.84 &#45; 3)&#45;&gt;FISHER_PVAL\nPHI</title>
<path fill="none" stroke="black" d="M704.125,-109.534C717.393,-95.9418 736.512,-76.3556 752.7,-59.7718"/>
<polygon fill="black" stroke="black" points="755.419,-61.9966 759.9,-52.3958 750.41,-57.1069 755.419,-61.9966"/>
</g>
<!-- KLOSGEN -->
<g id="node21" class="node"><title>KLOSGEN</title>
<ellipse fill="none" stroke="black" cx="821.84" cy="-127.217" rx="51.9908" ry="18"/>
<text text-anchor="middle" x="821.84" y="-123.517" font-family="Times,serif" font-size="14.00">KLOSGEN</text>
</g>
<!-- n25 (0.84 &#45; 4)&#45;&gt;KLOSGEN -->
<g id="edge20" class="edge"><title>n25 (0.84 &#45; 4)&#45;&gt;KLOSGEN</title>
<path fill="none" stroke="black" d="M823.492,-209.433C823.19,-194.576 822.747,-172.806 822.396,-155.544"/>
<polygon fill="black" stroke="black" points="825.894,-155.408 822.191,-145.481 818.895,-155.55 825.894,-155.408"/>
</g>
<!-- TWO_WAY_SUPPORT\nPIATETSKY_SHAPIRO\nSPECIFICITY -->
<g id="node22" class="node"><title>TWO_WAY_SUPPORT\nPIATETSKY_SHAPIRO\nSPECIFICITY</title>
<ellipse fill="none" stroke="black" cx="1001.84" cy="-127.217" rx="109.703" ry="37.4533"/>
<text text-anchor="middle" x="1001.84" y="-138.517" font-family="Times,serif" font-size="14.00">TWO_WAY_SUPPORT</text>
<text text-anchor="middle" x="1001.84" y="-123.517" font-family="Times,serif" font-size="14.00">PIATETSKY_SHAPIRO</text>
<text text-anchor="middle" x="1001.84" y="-108.517" font-family="Times,serif" font-size="14.00">SPECIFICITY</text>
</g>
<!-- n25 (0.84 &#45; 4)&#45;&gt;TWO_WAY_SUPPORT\nPIATETSKY_SHAPIRO\nSPECIFICITY -->
<g id="edge21" class="edge"><title>n25 (0.84 &#45; 4)&#45;&gt;TWO_WAY_SUPPORT\nPIATETSKY_SHAPIRO\nSPECIFICITY</title>
<path fill="none" stroke="black" d="M851.263,-211.412C873.887,-198.912 906.925,-180.658 936.294,-164.432"/>
<polygon fill="black" stroke="black" points="938.215,-167.369 945.275,-159.469 934.83,-161.242 938.215,-167.369"/>
</g>
<!-- LEAST_CONTRADICTION\nACCURACY -->
<g id="node24" class="node"><title>LEAST_CONTRADICTION\nACCURACY</title>
<ellipse fill="none" stroke="black" cx="592.84" cy="-631.009" rx="124.402" ry="26.7407"/>
<text text-anchor="middle" x="592.84" y="-634.809" font-family="Times,serif" font-size="14.00">LEAST_CONTRADICTION</text>
<text text-anchor="middle" x="592.84" y="-619.809" font-family="Times,serif" font-size="14.00">ACCURACY</text>
</g>
<!-- n33 (0.27 &#45; 20)&#45;&gt;LEAST_CONTRADICTION\nACCURACY -->
<g id="edge23" class="edge"><title>n33 (0.27 &#45; 20)&#45;&gt;LEAST_CONTRADICTION\nACCURACY</title>
<path fill="none" stroke="black" d="M592.84,-863.499C592.84,-823.395 592.84,-722.519 592.84,-668.118"/>
<polygon fill="black" stroke="black" points="596.34,-667.889 592.84,-657.89 589.34,-667.89 596.34,-667.889"/>
</g>
<!-- RELATIVE_RISK\nYULE_Y\nYULE_Q\nODDS_RATIO\nLEVERAGE\nONE_WAY_SUPPORT\nCONVICTION\nLOEVINGER\nSEBAG_SCHOENAUER\nODD_MULTIPLIER\nCOUNTER_EXAMPLE_RATE\nZHANG\nBAYES\nCENTERED_CONFIDENCE\nCERTAINTY_FACTOR\nADDED_VALUE\nLIFT\nCONFIDENCE -->
<g id="node25" class="node"><title>RELATIVE_RISK\nYULE_Y\nYULE_Q\nODDS_RATIO\nLEVERAGE\nONE_WAY_SUPPORT\nCONVICTION\nLOEVINGER\nSEBAG_SCHOENAUER\nODD_MULTIPLIER\nCOUNTER_EXAMPLE_RATE\nZHANG\nBAYES\nCENTERED_CONFIDENCE\nCERTAINTY_FACTOR\nADDED_VALUE\nLIFT\nCONFIDENCE</title>
<ellipse fill="none" stroke="black" cx="872.84" cy="-631.009" rx="137.358" ry="196.651"/>
<text text-anchor="middle" x="872.84" y="-754.809" font-family="Times,serif" font-size="14.00">RELATIVE_RISK</text>
<text text-anchor="middle" x="872.84" y="-739.809" font-family="Times,serif" font-size="14.00">YULE_Y</text>
<text text-anchor="middle" x="872.84" y="-724.809" font-family="Times,serif" font-size="14.00">YULE_Q</text>
<text text-anchor="middle" x="872.84" y="-709.809" font-family="Times,serif" font-size="14.00">ODDS_RATIO</text>
<text text-anchor="middle" x="872.84" y="-694.809" font-family="Times,serif" font-size="14.00">LEVERAGE</text>
<text text-anchor="middle" x="872.84" y="-679.809" font-family="Times,serif" font-size="14.00">ONE_WAY_SUPPORT</text>
<text text-anchor="middle" x="872.84" y="-664.809" font-family="Times,serif" font-size="14.00">CONVICTION</text>
<text text-anchor="middle" x="872.84" y="-649.809" font-family="Times,serif" font-size="14.00">LOEVINGER</text>
<text text-anchor="middle" x="872.84" y="-634.809" font-family="Times,serif" font-size="14.00">SEBAG_SCHOENAUER</text>
<text text-anchor="middle" x="872.84" y="-619.809" font-family="Times,serif" font-size="14.00">ODD_MULTIPLIER</text>
<text text-anchor="middle" x="872.84" y="-604.809" font-family="Times,serif" font-size="14.00">COUNTER_EXAMPLE_RATE</text>
<text text-anchor="middle" x="872.84" y="-589.809" font-family="Times,serif" font-size="14.00">ZHANG</text>
<text text-anchor="middle" x="872.84" y="-574.809" font-family="Times,serif" font-size="14.00">BAYES</text>
<text text-anchor="middle" x="872.84" y="-559.809" font-family="Times,serif" font-size="14.00">CENTERED_CONFIDENCE</text>
<text text-anchor="middle" x="872.84" y="-544.809" font-family="Times,serif" font-size="14.00">CERTAINTY_FACTOR</text>
<text text-anchor="middle" x="872.84" y="-529.809" font-family="Times,serif" font-size="14.00">ADDED_VALUE</text>
<text text-anchor="middle" x="872.84" y="-514.809" font-family="Times,serif" font-size="14.00">LIFT</text>
<text text-anchor="middle" x="872.84" y="-499.809" font-family="Times,serif" font-size="14.00">CONFIDENCE</text>
</g>
<!-- n33 (0.27 &#45; 20)&#45;&gt;RELATIVE_RISK\nYULE_Y\nYULE_Q\nODDS_RATIO\nLEVERAGE\nONE_WAY_SUPPORT\nCONVICTION\nLOEVINGER\nSEBAG_SCHOENAUER\nODD_MULTIPLIER\nCOUNTER_EXAMPLE_RATE\nZHANG\nBAYES\nCENTERED_CONFIDENCE\nCERTAINTY_FACTOR\nADDED_VALUE\nLIFT\nCONFIDENCE -->
<g id="edge24" class="edge"><title>n33 (0.27 &#45; 20)&#45;&gt;RELATIVE_RISK\nYULE_Y\nYULE_Q\nODDS_RATIO\nLEVERAGE\nONE_WAY_SUPPORT\nCONVICTION\nLOEVINGER\nSEBAG_SCHOENAUER\nODD_MULTIPLIER\nCOUNTER_EXAMPLE_RATE\nZHANG\nBAYES\nCENTERED_CONFIDENCE\nCERTAINTY_FACTOR\nADDED_VALUE\nLIFT\nCONFIDENCE</title>
<path fill="none" stroke="black" d="M639.126,-868.969C666.274,-860.571 700.17,-847.21 725.84,-827.585 742.666,-814.721 758.514,-799.449 773.127,-783.194"/>
<polygon fill="black" stroke="black" points="775.776,-785.481 779.754,-775.661 770.521,-780.858 775.776,-785.481"/>
</g>
</g>
</svg>
