<?xml version="1.0" encoding="UTF-8" standalone="no"?>
<!-- Generated by graphviz version 2.38.0 (20140413.2041)
 -->

<!-- Title: dendrogram Pages: 1 -->

<svg
   xmlns:dc="http://purl.org/dc/elements/1.1/"
   xmlns:cc="http://creativecommons.org/ns#"
   xmlns:rdf="http://www.w3.org/1999/02/22-rdf-syntax-ns#"
   xmlns:svg="http://www.w3.org/2000/svg"
   xmlns="http://www.w3.org/2000/svg"
   xmlns:sodipodi="http://sodipodi.sourceforge.net/DTD/sodipodi-0.dtd"
   xmlns:inkscape="http://www.inkscape.org/namespaces/inkscape"
   width="1779pt"
   height="681pt"
   viewBox="0.00 0.00 1778.92 681.19"
   id="svg19162"
   version="1.1"
   inkscape:version="0.48.5 r10040"
   sodipodi:docname="patterns_prods_per_ticket-global-NDCG.svg">
  <metadata
     id="metadata19536">
    <rdf:RDF>
      <cc:Work
         rdf:about="">
        <dc:format>image/svg+xml</dc:format>
        <dc:type
           rdf:resource="http://purl.org/dc/dcmitype/StillImage" />
      </cc:Work>
    </rdf:RDF>
  </metadata>
  <defs
     id="defs19534" />
  <sodipodi:namedview
     pagecolor="#ffffff"
     bordercolor="#666666"
     borderopacity="1"
     objecttolerance="10"
     gridtolerance="10"
     guidetolerance="10"
     inkscape:pageopacity="0"
     inkscape:pageshadow="2"
     inkscape:window-width="1920"
     inkscape:window-height="1052"
     id="namedview19532"
     showgrid="false"
     inkscape:zoom="0.668086"
     inkscape:cx="1111.875"
     inkscape:cy="425.625"
     inkscape:window-x="0"
     inkscape:window-y="0"
     inkscape:window-maximized="1"
     inkscape:current-layer="svg19162" />
  <polygon
     style="fill:#ffffff;stroke:none"
     id="polygon19167"
     points="1774.92,-677.186 1774.92,4 -4,4 -4,4 -4,-677.186 "
     transform="translate(4,677.186)" />
  <g
     class="node"
     id="node1"
     transform="translate(4,677.186)">
    <title
       id="title19170">n34 (-0.57 - 36)</title>
    <ellipse
       style="fill:none;stroke:#000000"
       sodipodi:ry="18"
       sodipodi:rx="67.688103"
       sodipodi:cy="-655.18597"
       sodipodi:cx="567.74103"
       d="m 635.42913,-655.18597 c 0,9.94112 -30.305,18 -67.6881,18 -37.38311,0 -67.6881,-8.05888 -67.6881,-18 0,-9.94113 30.30499,-18 67.6881,-18 37.3831,0 67.6881,8.05887 67.6881,18 z"
       id="ellipse19172"
       ry="18"
       rx="67.688103"
       cy="-655.18597"
       cx="567.74103" />
    <text
       style="font-size:14px;text-anchor:middle;font-family:'Times,serif'"
       id="text19174"
       font-size="14.00"
       y="-651.48602"
       x="567.74103">n34 (-0.57 - 36)</text>
  </g>
  <g
     class="node"
     id="node2"
     transform="translate(4,677.186)">
    <title
       id="title19177">n31 (0.37 - 2)</title>
    <ellipse
       style="fill:none;stroke:#000000"
       sodipodi:ry="18"
       sodipodi:rx="59.590099"
       sodipodi:cy="-583.18597"
       sodipodi:cx="495.741"
       d="m 555.3311,-583.18597 c 0,9.94112 -26.6794,18 -59.5901,18 -32.91071,0 -59.5901,-8.05888 -59.5901,-18 0,-9.94113 26.67939,-18 59.5901,-18 32.9107,0 59.5901,8.05887 59.5901,18 z"
       id="ellipse19179"
       ry="18"
       rx="59.590099"
       cy="-583.18597"
       cx="495.741" />
    <text
       style="font-size:14px;text-anchor:middle;font-family:'Times,serif'"
       id="text19181"
       font-size="14.00"
       y="-579.48602"
       x="495.741">n31 (0.37 - 2)</text>
  </g>
  <g
     class="edge"
     id="edge1"
     transform="translate(4,677.186)">
    <title
       id="title19184">n34 (-0.57 - 36)-&gt;n31 (0.37 - 2)</title>
    <path
       style="fill:none;stroke:#000000"
       inkscape:connector-curvature="0"
       id="path19186"
       d="m 550.678,-637.597 c -9.146,8.892 -20.572,20 -30.631,29.78" />
    <polygon
       style="fill:#000000;stroke:#000000"
       id="polygon19188"
       points="517.412,-610.136 522.291,-605.117 522.291,-605.117 512.682,-600.656 " />
  </g>
  <g
     class="node"
     id="node5"
     transform="translate(4,677.186)">
    <title
       id="title19191">n33 (-0.37 - 34)</title>
    <ellipse
       style="fill:none;stroke:#000000"
       sodipodi:ry="18"
       sodipodi:rx="67.688103"
       sodipodi:cy="-583.18597"
       sodipodi:cx="640.74103"
       d="m 708.42913,-583.18597 c 0,9.94112 -30.305,18 -67.6881,18 -37.38311,0 -67.6881,-8.05888 -67.6881,-18 0,-9.94113 30.30499,-18 67.6881,-18 37.3831,0 67.6881,8.05887 67.6881,18 z"
       id="ellipse19193"
       ry="18"
       rx="67.688103"
       cy="-583.18597"
       cx="640.74103" />
    <text
       style="font-size:14px;text-anchor:middle;font-family:'Times,serif'"
       id="text19195"
       font-size="14.00"
       y="-579.48602"
       x="640.74103">n33 (-0.37 - 34)</text>
  </g>
  <g
     class="edge"
     id="edge4"
     transform="translate(4,677.186)">
    <title
       id="title19198">n34 (-0.57 - 36)-&gt;n33 (-0.37 - 34)</title>
    <path
       style="fill:none;stroke:#000000"
       inkscape:connector-curvature="0"
       id="path19200"
       d="m 585.041,-637.597 c 9.273,8.892 20.858,20 31.056,29.78" />
    <polygon
       style="fill:#000000;stroke:#000000"
       id="polygon19202"
       points="613.925,-605.051 618.77,-610.103 618.77,-610.103 623.565,-600.656 " />
  </g>
  <ellipse
     cx="305.741"
     cy="-511.186"
     rx="109.681"
     ry="18"
     id="ellipse19207"
     d="m 415.422,-511.186 c 0,9.94112 -49.10586,18 -109.681,18 -60.57515,0 -109.681,-8.05888 -109.681,-18 0,-9.94113 49.10585,-18 109.681,-18 60.57514,0 109.681,8.05887 109.681,18 z"
     sodipodi:cx="305.741"
     sodipodi:cy="-511.186"
     sodipodi:rx="109.681"
     sodipodi:ry="18"
     style="fill:#aaaaff;stroke:#000000"
     transform="translate(4,677.186)" />
  <text
     x="309.741"
     y="169.70001"
     font-size="14.00"
     id="text19209"
     style="font-size:14px;text-anchor:middle;font-family:'Times,serif'">COLLECTIVE_STRENGH</text>
  <g
     class="edge"
     id="edge2"
     transform="translate(4,677.186)">
    <title
       id="title19212">n31 (0.37 - 2)-&gt;COLLECTIVE_STRENGH</title>
    <path
       style="fill:none;stroke:#000000"
       inkscape:connector-curvature="0"
       id="path19214"
       d="m 459.556,-568.855 c -28.687,10.569 -69.171,25.484 -101.405,37.36" />
    <polygon
       style="fill:#000000;stroke:#000000"
       id="polygon19216"
       points="356.608,-534.656 359.028,-528.088 359.028,-528.088 348.434,-527.915 " />
  </g>
  <ellipse
     cx="496.741"
     cy="-511.186"
     rx="63.088799"
     ry="18"
     id="ellipse19221"
     d="m 559.8298,-511.186 c 0,9.94112 -28.24582,18 -63.0888,18 -34.84298,0 -63.0888,-8.05888 -63.0888,-18 0,-9.94113 28.24582,-18 63.0888,-18 34.84298,0 63.0888,8.05887 63.0888,18 z"
     sodipodi:cx="496.741"
     sodipodi:cy="-511.186"
     sodipodi:rx="63.088799"
     sodipodi:ry="18"
     style="fill:#d5d5d5;stroke:#000000"
     transform="translate(4,677.186)" />
  <text
     x="500.741"
     y="169.70001"
     font-size="14.00"
     id="text19223"
     style="font-size:14px;text-anchor:middle;font-family:'Times,serif'">SPECIFICITY</text>
  <g
     class="edge"
     id="edge3"
     transform="translate(4,677.186)">
    <title
       id="title19226">n31 (0.37 - 2)-&gt;SPECIFICITY</title>
    <path
       style="fill:none;stroke:#000000"
       inkscape:connector-curvature="0"
       id="path19228"
       d="m 495.988,-564.882 c 0.11,7.713 0.243,16.984 0.366,25.584" />
    <polygon
       style="fill:#000000;stroke:#000000"
       id="polygon19230"
       points="492.854,-539.239 499.853,-539.339 499.853,-539.339 496.497,-529.29 " />
  </g>
  <ellipse
     cx="639.74103"
     cy="-511.186"
     rx="59.590099"
     ry="18"
     id="ellipse19235"
     d="m 699.33113,-511.186 c 0,9.94112 -26.6794,18 -59.5901,18 -32.91071,0 -59.5901,-8.05888 -59.5901,-18 0,-9.94113 26.67939,-18 59.5901,-18 32.9107,0 59.5901,8.05887 59.5901,18 z"
     sodipodi:cx="639.74103"
     sodipodi:cy="-511.186"
     sodipodi:rx="59.590099"
     sodipodi:ry="18"
     style="fill:#ffaaaa;stroke:#000000"
     transform="translate(4,677.186)" />
  <text
     x="643.74103"
     y="169.70001"
     font-size="14.00"
     id="text19237"
     style="font-size:14px;text-anchor:middle;font-family:'Times,serif'">ACCURACY</text>
  <g
     class="edge"
     id="edge5"
     transform="translate(4,677.186)">
    <title
       id="title19240">n33 (-0.37 - 34)-&gt;ACCURACY</title>
    <path
       style="fill:none;stroke:#000000"
       inkscape:connector-curvature="0"
       id="path19242"
       d="m 640.494,-564.882 c -0.11,7.713 -0.243,16.984 -0.366,25.584" />
    <polygon
       style="fill:#000000;stroke:#000000"
       id="polygon19244"
       points="636.629,-539.339 643.628,-539.239 643.628,-539.239 639.985,-529.29 " />
  </g>
  <g
     class="node"
     id="node7"
     transform="translate(4,677.186)">
    <title
       id="title19247">n32 (-0.13 - 33)</title>
    <ellipse
       style="fill:none;stroke:#000000"
       sodipodi:ry="18"
       sodipodi:rx="67.688103"
       sodipodi:cy="-511.186"
       sodipodi:cx="784.74103"
       d="m 852.42913,-511.186 c 0,9.94112 -30.305,18 -67.6881,18 -37.38311,0 -67.6881,-8.05888 -67.6881,-18 0,-9.94113 30.30499,-18 67.6881,-18 37.3831,0 67.6881,8.05887 67.6881,18 z"
       id="ellipse19249"
       ry="18"
       rx="67.688103"
       cy="-511.186"
       cx="784.74103" />
    <text
       style="font-size:14px;text-anchor:middle;font-family:'Times,serif'"
       id="text19251"
       font-size="14.00"
       y="-507.48599"
       x="784.74103">n32 (-0.13 - 33)</text>
  </g>
  <g
     class="edge"
     id="edge6"
     transform="translate(4,677.186)">
    <title
       id="title19254">n33 (-0.37 - 34)-&gt;n32 (-0.13 - 33)</title>
    <path
       style="fill:none;stroke:#000000"
       inkscape:connector-curvature="0"
       id="path19256"
       d="m 671.633,-567.169 c 21.209,10.31 49.574,24.099 72.593,35.288" />
    <polygon
       style="fill:#000000;stroke:#000000"
       id="polygon19258"
       points="742.88,-528.644 745.94,-534.939 745.94,-534.939 753.404,-527.419 " />
  </g>
  <g
     class="node"
     id="node8"
     transform="translate(4,677.186)">
    <title
       id="title19261">n30 (0.55 - 14)</title>
    <ellipse
       style="fill:none;stroke:#000000"
       sodipodi:ry="18"
       sodipodi:rx="64.189003"
       sodipodi:cy="-439.186"
       sodipodi:cx="558.74103"
       d="m 622.93003,-439.186 c 0,9.94112 -28.73839,18 -64.189,18 -35.45061,0 -64.18901,-8.05888 -64.18901,-18 0,-9.94113 28.7384,-18 64.18901,-18 35.45061,0 64.189,8.05887 64.189,18 z"
       id="ellipse19263"
       ry="18"
       rx="64.189003"
       cy="-439.186"
       cx="558.74103" />
    <text
       style="font-size:14px;text-anchor:middle;font-family:'Times,serif'"
       id="text19265"
       font-size="14.00"
       y="-435.48599"
       x="558.74103">n30 (0.55 - 14)</text>
  </g>
  <g
     class="edge"
     id="edge7"
     transform="translate(4,677.186)">
    <title
       id="title19268">n32 (-0.13 - 33)-&gt;n30 (0.55 - 14)</title>
    <path
       style="fill:none;stroke:#000000"
       inkscape:connector-curvature="0"
       id="path19270"
       d="m 742.497,-497.102 c -37.532,11.626 -92.491,28.648 -132.522,41.047" />
    <polygon
       style="fill:#000000;stroke:#000000"
       id="polygon19272"
       points="608.912,-459.39 610.983,-452.703 610.983,-452.703 600.396,-453.088 " />
  </g>
  <g
     class="node"
     id="node17"
     transform="translate(4,677.186)">
    <title
       id="title19275">n29 (0.56 - 19)</title>
    <ellipse
       style="fill:none;stroke:#000000"
       sodipodi:ry="18"
       sodipodi:rx="64.189003"
       sodipodi:cy="-439.186"
       sodipodi:cx="1037.74"
       d="m 1101.929,-439.186 c 0,9.94112 -28.7384,18 -64.189,18 -35.4506,0 -64.18901,-8.05888 -64.18901,-18 0,-9.94113 28.73841,-18 64.18901,-18 35.4506,0 64.189,8.05887 64.189,18 z"
       id="ellipse19277"
       ry="18"
       rx="64.189003"
       cy="-439.186"
       cx="1037.74" />
    <text
       style="font-size:14px;text-anchor:middle;font-family:'Times,serif'"
       id="text19279"
       font-size="14.00"
       y="-435.48599"
       x="1037.74">n29 (0.56 - 19)</text>
  </g>
  <g
     class="edge"
     id="edge16"
     transform="translate(4,677.186)">
    <title
       id="title19282">n32 (-0.13 - 33)-&gt;n29 (0.56 - 19)</title>
    <path
       style="fill:none;stroke:#000000"
       inkscape:connector-curvature="0"
       id="path19284"
       d="m 829.972,-497.671 c 43.168,11.943 108.231,29.945 154.024,42.615" />
    <polygon
       style="fill:#000000;stroke:#000000"
       id="polygon19286"
       points="983.177,-451.651 985.044,-458.398 985.044,-458.398 993.749,-452.358 " />
  </g>
  <g
     class="node"
     id="node9"
     transform="translate(4,677.186)">
    <title
       id="title19289">n27 (0.75 - 4)</title>
    <ellipse
       style="fill:none;stroke:#000000"
       sodipodi:ry="18"
       sodipodi:rx="59.590099"
       sodipodi:cy="-367.186"
       sodipodi:cx="187.741"
       d="m 247.3311,-367.186 c 0,9.94112 -26.6794,18 -59.5901,18 -32.91071,0 -59.5901,-8.05888 -59.5901,-18 0,-9.94113 26.67939,-18 59.5901,-18 32.9107,0 59.5901,8.05887 59.5901,18 z"
       id="ellipse19291"
       ry="18"
       rx="59.590099"
       cy="-367.186"
       cx="187.741" />
    <text
       style="font-size:14px;text-anchor:middle;font-family:'Times,serif'"
       id="text19293"
       font-size="14.00"
       y="-363.48599"
       x="187.741">n27 (0.75 - 4)</text>
  </g>
  <g
     class="edge"
     id="edge8"
     transform="translate(4,677.186)">
    <title
       id="title19296">n30 (0.55 - 14)-&gt;n27 (0.75 - 4)</title>
    <path
       style="fill:none;stroke:#000000"
       inkscape:connector-curvature="0"
       id="path19298"
       d="m 506.764,-428.379 c -68.236,12.875 -187.753,35.425 -259.532,48.968" />
    <polygon
       style="fill:#000000;stroke:#000000"
       id="polygon19300"
       points="246.178,-382.774 247.476,-375.895 247.476,-375.895 237,-377.48 " />
  </g>
  <g
     class="node"
     id="node14"
     transform="translate(4,677.186)">
    <title
       id="title19303">n26 (0.85 - 10)</title>
    <ellipse
       style="fill:none;stroke:#000000"
       sodipodi:ry="18"
       sodipodi:rx="64.189003"
       sodipodi:cy="-367.186"
       sodipodi:cx="558.74103"
       d="m 622.93003,-367.186 c 0,9.94112 -28.73839,18 -64.189,18 -35.45061,0 -64.18901,-8.05888 -64.18901,-18 0,-9.94113 28.7384,-18 64.18901,-18 35.45061,0 64.189,8.05887 64.189,18 z"
       id="ellipse19305"
       ry="18"
       rx="64.189003"
       cy="-367.186"
       cx="558.74103" />
    <text
       style="font-size:14px;text-anchor:middle;font-family:'Times,serif'"
       id="text19307"
       font-size="14.00"
       y="-363.48599"
       x="558.74103">n26 (0.85 - 10)</text>
  </g>
  <g
     class="edge"
     id="edge13"
     transform="translate(4,677.186)">
    <title
       id="title19310">n30 (0.55 - 14)-&gt;n26 (0.85 - 10)</title>
    <path
       style="fill:none;stroke:#000000"
       inkscape:connector-curvature="0"
       id="path19312"
       d="m 558.741,-420.882 c 0,7.713 0,16.984 0,25.584" />
    <polygon
       style="fill:#000000;stroke:#000000"
       id="polygon19314"
       points="555.241,-395.29 562.241,-395.29 562.241,-395.29 558.741,-385.29 " />
  </g>
  <ellipse
     cx="64.741096"
     cy="-201.463"
     rx="44.6926"
     ry="18"
     id="ellipse19319"
     d="m 109.4337,-201.463 c 0,9.94113 -20.009562,18 -44.692604,18 -24.683041,0 -44.6926,-8.05887 -44.6926,-18 0,-9.94112 20.009559,-18 44.6926,-18 24.683042,0 44.692604,8.05888 44.692604,18 z"
     sodipodi:cx="64.741096"
     sodipodi:cy="-201.463"
     sodipodi:rx="44.6926"
     sodipodi:ry="18"
     style="fill:#aaaaff;stroke:#000000"
     transform="translate(4,677.186)" />
  <text
     x="68.741096"
     y="479.423"
     font-size="14.00"
     id="text19321"
     style="font-size:14px;text-anchor:middle;font-family:'Times,serif'">RECALL</text>
  <g
     class="edge"
     id="edge9"
     transform="translate(4,677.186)">
    <title
       id="title19324">n27 (0.75 - 4)-&gt;RECALL</title>
    <path
       style="fill:none;stroke:#000000"
       inkscape:connector-curvature="0"
       id="path19326"
       d="m 162.08,-350.694 c -14.129,9.49 -31.205,22.649 -43.339,37.508 -20.8321,25.511 -36.1419,60.397 -45.0348,84.147" />
    <polygon
       style="fill:#000000;stroke:#000000"
       id="polygon19328"
       points="70.4029,-230.196 76.985,-227.814 76.985,-227.814 70.2904,-219.602 " />
  </g>
  <g
     class="node"
     id="node11"
     transform="translate(4,677.186)">
    <title
       id="title19331">n25 (0.85 - 3)</title>
    <ellipse
       style="fill:none;stroke:#000000"
       sodipodi:ry="18"
       sodipodi:rx="59.590099"
       sodipodi:cy="-201.463"
       sodipodi:cx="187.741"
       d="m 247.3311,-201.463 c 0,9.94113 -26.6794,18 -59.5901,18 -32.91071,0 -59.5901,-8.05887 -59.5901,-18 0,-9.94112 26.67939,-18 59.5901,-18 32.9107,0 59.5901,8.05888 59.5901,18 z"
       id="ellipse19333"
       ry="18"
       rx="59.590099"
       cy="-201.463"
       cx="187.741" />
    <text
       style="font-size:14px;text-anchor:middle;font-family:'Times,serif'"
       id="text19335"
       font-size="14.00"
       y="-197.763"
       x="187.741">n25 (0.85 - 3)</text>
  </g>
  <g
     class="edge"
     id="edge10"
     transform="translate(4,677.186)">
    <title
       id="title19338">n27 (0.75 - 4)-&gt;n25 (0.85 - 3)</title>
    <path
       style="fill:none;stroke:#000000"
       inkscape:connector-curvature="0"
       id="path19340"
       d="m 187.741,-348.974 c 0,28.299 0,84.9 0,118.868" />
    <polygon
       style="fill:#000000;stroke:#000000"
       id="polygon19342"
       points="184.241,-229.937 191.241,-229.937 191.241,-229.937 187.741,-219.937 " />
  </g>
  <ellipse
     cx="100.741"
     cy="-26.8701"
     rx="100.983"
     ry="18"
     id="ellipse19347"
     d="m 201.724,-26.8701 c 0,9.941125 -45.21163,18 -100.983,18 -55.771375,0 -100.98300439,-8.058875 -100.98300439,-18 0,-9.941126 45.21162939,-18 100.98300439,-18 55.77137,0 100.983,8.058874 100.983,18 z"
     sodipodi:cx="100.741"
     sodipodi:cy="-26.8701"
     sodipodi:rx="100.983"
     sodipodi:ry="18"
     style="fill:#d5d5d5;stroke:#000000"
     transform="translate(4,677.186)" />
  <text
     x="104.741"
     y="654.01593"
     font-size="14.00"
     id="text19349"
     style="font-size:14px;text-anchor:middle;font-family:'Times,serif'">PIATETSKY_SHAPIRO</text>
  <g
     class="edge"
     id="edge11"
     transform="translate(4,677.186)">
    <title
       id="title19352">n25 (0.85 - 3)-&gt;PIATETSKY_SHAPIRO</title>
    <path
       style="fill:none;stroke:#000000"
       inkscape:connector-curvature="0"
       id="path19354"
       d="m 179.241,-183.6 c -15.164,30.083 -46.986,93.2114 -65.112,129.1708" />
    <polygon
       style="fill:#000000;stroke:#000000"
       id="polygon19356"
       points="110.781,-55.5625 117.031,-52.4116 117.031,-52.4116 109.405,-45.0574 " />
  </g>
  <ellipse
     cx="274.741"
     cy="-26.8701"
     rx="55.309101"
     ry="26.7407"
     id="ellipse19361"
     d="m 330.0501,-26.8701 c 0,14.768481 -24.76273,26.74069975 -55.3091,26.74069975 -30.54638,0 -55.3091,-11.97221875 -55.3091,-26.74069975 0,-14.768481 24.76272,-26.7407 55.3091,-26.7407 30.54637,0 55.3091,11.972219 55.3091,26.7407 z"
     sodipodi:cx="274.741"
     sodipodi:cy="-26.8701"
     sodipodi:rx="55.309101"
     sodipodi:ry="26.7407"
     style="fill:#aaffaa;stroke:#000000"
     transform="translate(4,677.186)" />
  <text
     x="278.741"
     y="646.51593"
     font-size="14.00"
     id="text19363"
     style="font-size:14px;text-anchor:middle;font-family:'Times,serif'">KAPPA</text>
  <text
     x="278.741"
     y="661.51593"
     font-size="14.00"
     id="text19365"
     style="font-size:14px;text-anchor:middle;font-family:'Times,serif'">JACCARD</text>
  <g
     class="edge"
     id="edge12"
     transform="translate(4,677.186)">
    <title
       id="title19368">n25 (0.85 - 3)-&gt;KAPPA\nJACCARD</title>
    <path
       style="fill:none;stroke:#000000"
       inkscape:connector-curvature="0"
       id="path19370"
       d="m 196.241,-183.6 c 14.091,27.953 42.564,84.4395 61.068,121.1472" />
    <polygon
       style="fill:#000000;stroke:#000000"
       id="polygon19372"
       points="254.386,-60.4745 260.637,-63.6254 260.637,-63.6254 262.013,-53.1203 " />
  </g>
  <ellipse
     cx="432.741"
     cy="-201.463"
     rx="166.754"
     ry="48.166698"
     id="ellipse19377"
     d="m 599.495,-201.463 c 0,26.60174 -74.65831,48.1667 -166.754,48.1667 -92.09569,0 -166.754,-21.56496 -166.754,-48.1667 0,-26.60173 74.65831,-48.1667 166.754,-48.1667 92.09569,0 166.754,21.56497 166.754,48.1667 z"
     sodipodi:cx="432.741"
     sodipodi:cy="-201.463"
     sodipodi:rx="166.754"
     sodipodi:ry="48.166698"
     style="fill:none;stroke:#000000"
     transform="translate(4,677.186)" />
  <text
     x="436.741"
     y="456.923"
     font-size="14.00"
     id="text19379"
     style="font-size:14px;text-anchor:middle;font-family:'Times,serif'">TWO_WAY_SUPPORT</text>
  <text
     x="436.741"
     y="471.923"
     font-size="14.00"
     id="text19381"
     style="font-size:14px;text-anchor:middle;font-family:'Times,serif'">J_MEASURE</text>
  <text
     x="436.741"
     y="486.923"
     font-size="14.00"
     id="text19383"
     style="font-size:14px;text-anchor:middle;font-family:'Times,serif'">FISHER_PVAL</text>
  <text
     x="436.741"
     y="501.923"
     font-size="14.00"
     id="text19385"
     style="font-size:14px;text-anchor:middle;font-family:'Times,serif'">TWO_WAY_SUPPORT_VARIATION</text>
  <g
     class="edge"
     id="edge14"
     transform="translate(4,677.186)">
    <title
       id="title19388">n26 (0.85 - 10)-&gt;TWO_WAY_SUPPORT\nJ_MEASURE\nFISHER_PVAL\nTWO_WAY_SUPPORT_VARIATION</title>
    <path
       style="fill:none;stroke:#000000"
       inkscape:connector-curvature="0"
       id="path19390"
       d="m 545.731,-349.281 c -16.693,21.691 -46.457,60.366 -71.246,92.577" />
    <polygon
       style="fill:#000000;stroke:#000000"
       id="polygon19392"
       points="471.626,-258.728 477.173,-254.459 477.173,-254.459 468.3,-248.668 " />
  </g>
  <ellipse
     cx="726.74103"
     cy="-201.463"
     rx="108.789"
     ry="69.093498"
     id="ellipse19397"
     d="m 835.53003,-201.463 c 0,38.15929 -48.7065,69.0935 -108.789,69.0935 -60.08251,0 -108.789,-30.93421 -108.789,-69.0935 0,-38.15928 48.70649,-69.0935 108.789,-69.0935 60.0825,0 108.789,30.93422 108.789,69.0935 z"
     sodipodi:cx="726.74103"
     sodipodi:cy="-201.463"
     sodipodi:rx="108.789"
     sodipodi:ry="69.093498"
     style="fill:#aaffaa;stroke:#000000"
     transform="translate(4,677.186)" />
  <text
     x="730.74103"
     y="441.923"
     font-size="14.00"
     id="text19399"
     style="font-size:14px;text-anchor:middle;font-family:'Times,serif'">KLOSGEN</text>
  <text
     x="730.74103"
     y="456.923"
     font-size="14.00"
     id="text19401"
     style="font-size:14px;text-anchor:middle;font-family:'Times,serif'">COSINE</text>
  <text
     x="730.74103"
     y="471.923"
     font-size="14.00"
     id="text19403"
     style="font-size:14px;text-anchor:middle;font-family:'Times,serif'">GINI</text>
  <text
     x="730.74103"
     y="486.923"
     font-size="14.00"
     id="text19405"
     style="font-size:14px;text-anchor:middle;font-family:'Times,serif'">IMPLICATION_INDEX</text>
  <text
     x="730.74103"
     y="501.923"
     font-size="14.00"
     id="text19407"
     style="font-size:14px;text-anchor:middle;font-family:'Times,serif'">PHI</text>
  <text
     x="730.74103"
     y="516.92297"
     font-size="14.00"
     id="text19409"
     style="font-size:14px;text-anchor:middle;font-family:'Times,serif'">CHI_SQUARE</text>
  <g
     class="edge"
     id="edge15"
     transform="translate(4,677.186)">
    <title
       id="title19412">n26 (0.85 - 10)-&gt;KLOSGEN\nCOSINE\nGINI\nIMPLICATION_INDEX\nPHI\nCHI_SQUARE</title>
    <path
       style="fill:none;stroke:#000000"
       inkscape:connector-curvature="0"
       id="path19414"
       d="m 575.774,-349.586 c 19.848,19.342 53.85,52.478 84.565,82.411" />
    <polygon
       style="fill:#000000;stroke:#000000"
       id="polygon19416"
       points="658.049,-264.519 662.935,-269.532 662.935,-269.532 667.654,-260.046 " />
  </g>
  <g
     class="node"
     id="node18"
     transform="translate(4,677.186)">
    <title
       id="title19419">n24 (0.87 - 8)</title>
    <ellipse
       style="fill:none;stroke:#000000"
       sodipodi:ry="18"
       sodipodi:rx="59.590099"
       sodipodi:cy="-367.186"
       sodipodi:cx="1037.74"
       d="m 1097.3301,-367.186 c 0,9.94112 -26.6794,18 -59.5901,18 -32.9107,0 -59.59011,-8.05888 -59.59011,-18 0,-9.94113 26.67941,-18 59.59011,-18 32.9107,0 59.5901,8.05887 59.5901,18 z"
       id="ellipse19421"
       ry="18"
       rx="59.590099"
       cy="-367.186"
       cx="1037.74" />
    <text
       style="font-size:14px;text-anchor:middle;font-family:'Times,serif'"
       id="text19423"
       font-size="14.00"
       y="-363.48599"
       x="1037.74">n24 (0.87 - 8)</text>
  </g>
  <g
     class="edge"
     id="edge17"
     transform="translate(4,677.186)">
    <title
       id="title19426">n29 (0.56 - 19)-&gt;n24 (0.87 - 8)</title>
    <path
       style="fill:none;stroke:#000000"
       inkscape:connector-curvature="0"
       id="path19428"
       d="m 1037.74,-420.882 c 0,7.713 0,16.984 0,25.584" />
    <polygon
       style="fill:#000000;stroke:#000000"
       id="polygon19430"
       points="1034.24,-395.29 1041.24,-395.29 1041.24,-395.29 1037.74,-385.29 " />
  </g>
  <g
     class="node"
     id="node21"
     transform="translate(4,677.186)">
    <title
       id="title19433">n28 (0.62 - 11)</title>
    <ellipse
       style="fill:none;stroke:#000000"
       sodipodi:ry="18"
       sodipodi:rx="64.189003"
       sodipodi:cy="-367.186"
       sodipodi:cx="1363.74"
       d="m 1427.929,-367.186 c 0,9.94112 -28.7384,18 -64.189,18 -35.4506,0 -64.189,-8.05888 -64.189,-18 0,-9.94113 28.7384,-18 64.189,-18 35.4506,0 64.189,8.05887 64.189,18 z"
       id="ellipse19435"
       ry="18"
       rx="64.189003"
       cy="-367.186"
       cx="1363.74" />
    <text
       style="font-size:14px;text-anchor:middle;font-family:'Times,serif'"
       id="text19437"
       font-size="14.00"
       y="-363.48599"
       x="1363.74">n28 (0.62 - 11)</text>
  </g>
  <g
     class="edge"
     id="edge20"
     transform="translate(4,677.186)">
    <title
       id="title19440">n29 (0.56 - 19)-&gt;n28 (0.62 - 11)</title>
    <path
       style="fill:none;stroke:#000000"
       inkscape:connector-curvature="0"
       id="path19442"
       d="m 1087.25,-427.554 c 58.21,12.499 154.76,33.23 216.99,46.591" />
    <polygon
       style="fill:#000000;stroke:#000000"
       id="polygon19444"
       points="1303.79,-377.48 1305.26,-384.324 1305.26,-384.324 1314.3,-378.802 " />
  </g>
  <ellipse
     cx="938.74103"
     cy="-201.463"
     rx="84.705902"
     ry="26.7407"
     id="ellipse19449"
     d="m 1023.4469,-201.463 c 0,14.76848 -37.92409,26.7407 -84.70587,26.7407 -46.78178,0 -84.7059,-11.97222 -84.7059,-26.7407 0,-14.76848 37.92412,-26.7407 84.7059,-26.7407 46.78178,0 84.70587,11.97222 84.70587,26.7407 z"
     sodipodi:cx="938.74103"
     sodipodi:cy="-201.463"
     sodipodi:rx="84.705902"
     sodipodi:ry="26.7407"
     style="fill:#ffffaa;stroke:#000000"
     transform="translate(4,677.186)" />
  <text
     x="942.74103"
     y="471.923"
     font-size="14.00"
     id="text19451"
     style="font-size:14px;text-anchor:middle;font-family:'Times,serif'">RELATIVE_RISK</text>
  <text
     x="942.74103"
     y="486.923"
     font-size="14.00"
     id="text19453"
     style="font-size:14px;text-anchor:middle;font-family:'Times,serif'">LIFT</text>
  <g
     class="edge"
     id="edge18"
     transform="translate(4,677.186)">
    <title
       id="title19456">n24 (0.87 - 8)-&gt;RELATIVE_RISK\nLIFT</title>
    <path
       style="fill:none;stroke:#000000"
       inkscape:connector-curvature="0"
       id="path19458"
       d="m 1027.52,-349.281 c -15.96,26.399 -47.138,77.954 -67.966,112.398" />
    <polygon
       style="fill:#000000;stroke:#000000"
       id="polygon19460"
       points="956.416,-238.458 962.406,-234.836 962.406,-234.836 954.237,-228.09 " />
  </g>
  <ellipse
     cx="1136.74"
     cy="-201.463"
     rx="94.505302"
     ry="69.093498"
     id="ellipse19465"
     d="m 1231.2453,-201.463 c 0,38.15929 -42.3115,69.0935 -94.5053,69.0935 -52.1938,0 -94.5053,-30.93421 -94.5053,-69.0935 0,-38.15928 42.3115,-69.0935 94.5053,-69.0935 52.1938,0 94.5053,30.93422 94.5053,69.0935 z"
     sodipodi:cx="1136.74"
     sodipodi:cy="-201.463"
     sodipodi:rx="94.505302"
     sodipodi:ry="69.093498"
     style="fill:#ffffaa;stroke:#000000"
     transform="translate(4,677.186)" />
  <text
     x="1140.74"
     y="441.923"
     font-size="14.00"
     id="text19467"
     style="font-size:14px;text-anchor:middle;font-family:'Times,serif'">ODD_MULTIPLIER</text>
  <text
     x="1140.74"
     y="456.923"
     font-size="14.00"
     id="text19469"
     style="font-size:14px;text-anchor:middle;font-family:'Times,serif'">ZHANG</text>
  <text
     x="1140.74"
     y="471.923"
     font-size="14.00"
     id="text19471"
     style="font-size:14px;text-anchor:middle;font-family:'Times,serif'">BAYES</text>
  <text
     x="1140.74"
     y="486.923"
     font-size="14.00"
     id="text19473"
     style="font-size:14px;text-anchor:middle;font-family:'Times,serif'">YULE_Y</text>
  <text
     x="1140.74"
     y="501.923"
     font-size="14.00"
     id="text19475"
     style="font-size:14px;text-anchor:middle;font-family:'Times,serif'">YULE_Q</text>
  <text
     x="1140.74"
     y="516.92297"
     font-size="14.00"
     id="text19477"
     style="font-size:14px;text-anchor:middle;font-family:'Times,serif'">ODDS_RATIO</text>
  <g
     class="edge"
     id="edge19"
     transform="translate(4,677.186)">
    <title
       id="title19480">n24 (0.87 - 8)-&gt;ODD_MULTIPLIER\nZHANG\nBAYES\nYULE_Y\nYULE_Q\nODDS_RATIO</title>
    <path
       style="fill:none;stroke:#000000"
       inkscape:connector-curvature="0"
       id="path19482"
       d="m 1047.96,-349.281 c 10.88,17.992 28.83,47.668 45.75,75.648" />
    <polygon
       style="fill:#000000;stroke:#000000"
       id="polygon19484"
       points="1090.75,-271.765 1096.74,-275.387 1096.74,-275.387 1098.92,-265.018 " />
  </g>
  <ellipse
     cx="1363.74"
     cy="-201.463"
     rx="114.28"
     ry="18"
     id="ellipse19489"
     d="m 1478.02,-201.463 c 0,9.94113 -51.1649,18 -114.28,18 -63.1151,0 -114.28,-8.05887 -114.28,-18 0,-9.94112 51.1649,-18 114.28,-18 63.1151,0 114.28,8.05888 114.28,18 z"
     sodipodi:cx="1363.74"
     sodipodi:cy="-201.463"
     sodipodi:rx="114.28"
     sodipodi:ry="18"
     style="fill:#ffaaaa;stroke:#000000"
     transform="translate(4,677.186)" />
  <text
     x="1367.74"
     y="479.423"
     font-size="14.00"
     id="text19491"
     style="font-size:14px;text-anchor:middle;font-family:'Times,serif'">LEAST_CONTRADICTION</text>
  <g
     class="edge"
     id="edge21"
     transform="translate(4,677.186)">
    <title
       id="title19494">n28 (0.62 - 11)-&gt;LEAST_CONTRADICTION</title>
    <path
       style="fill:none;stroke:#000000"
       inkscape:connector-curvature="0"
       id="path19496"
       d="m 1363.74,-348.974 c 0,28.299 0,84.9 0,118.868" />
    <polygon
       style="fill:#000000;stroke:#000000"
       id="polygon19498"
       points="1360.24,-229.937 1367.24,-229.937 1367.24,-229.937 1363.74,-219.937 " />
  </g>
  <ellipse
     cx="1633.74"
     cy="-201.463"
     rx="137.358"
     ry="111.946"
     id="ellipse19503"
     d="m 1771.098,-201.463 c 0,61.82607 -61.4973,111.946002 -137.358,111.946002 -75.8607,0 -137.358,-50.119932 -137.358,-111.946002 0,-61.82607 61.4973,-111.946 137.358,-111.946 75.8607,0 137.358,50.11993 137.358,111.946 z"
     sodipodi:cx="1633.74"
     sodipodi:cy="-201.463"
     sodipodi:rx="137.358"
     sodipodi:ry="111.946"
     style="fill:#ffffaa;stroke:#000000"
     transform="translate(4,677.186)" />
  <text
     x="1637.74"
     y="411.923"
     font-size="14.00"
     id="text19505"
     style="font-size:14px;text-anchor:middle;font-family:'Times,serif'">LEVERAGE</text>
  <text
     x="1637.74"
     y="426.923"
     font-size="14.00"
     id="text19507"
     style="font-size:14px;text-anchor:middle;font-family:'Times,serif'">COUNTER_EXAMPLE_RATE</text>
  <text
     x="1637.74"
     y="441.923"
     font-size="14.00"
     id="text19509"
     style="font-size:14px;text-anchor:middle;font-family:'Times,serif'">SEBAG_SCHOENAUER</text>
  <text
     x="1637.74"
     y="456.923"
     font-size="14.00"
     id="text19511"
     style="font-size:14px;text-anchor:middle;font-family:'Times,serif'">CONFIDENCE</text>
  <text
     x="1637.74"
     y="471.923"
     font-size="14.00"
     id="text19513"
     style="font-size:14px;text-anchor:middle;font-family:'Times,serif'">ONE_WAY_SUPPORT</text>
  <text
     x="1637.74"
     y="486.923"
     font-size="14.00"
     id="text19515"
     style="font-size:14px;text-anchor:middle;font-family:'Times,serif'">CENTERED_CONFIDENCE</text>
  <text
     x="1637.74"
     y="501.923"
     font-size="14.00"
     id="text19517"
     style="font-size:14px;text-anchor:middle;font-family:'Times,serif'">ADDED_VALUE</text>
  <text
     x="1637.74"
     y="516.92297"
     font-size="14.00"
     id="text19519"
     style="font-size:14px;text-anchor:middle;font-family:'Times,serif'">LOEVINGER</text>
  <text
     x="1637.74"
     y="531.92297"
     font-size="14.00"
     id="text19521"
     style="font-size:14px;text-anchor:middle;font-family:'Times,serif'">CONVICTION</text>
  <text
     x="1637.74"
     y="546.92297"
     font-size="14.00"
     id="text19523"
     style="font-size:14px;text-anchor:middle;font-family:'Times,serif'">CERTAINTY_FACTOR</text>
  <g
     class="edge"
     id="edge22"
     transform="translate(4,677.186)">
    <title
       id="title19526">n28 (0.62 - 11)-&gt;LEVERAGE\nCOUNTER_EXAMPLE_RATE\nSEBAG_SCHOENAUER\nCONFIDENCE\nONE_WAY_SUPPORT\nCENTERED_CONFIDENCE\nADDED_VALUE\nLOEVINGER\nCONVICTION\nCERTAINTY_FACTOR</title>
    <path
       style="fill:none;stroke:#000000"
       inkscape:connector-curvature="0"
       id="path19528"
       d="m 1401.73,-352.531 c 24.9,9.6 57.77,23.521 85.01,39.345 13.84,8.04 27.9,17.174 41.55,26.666" />
    <polygon
       style="fill:#000000;stroke:#000000"
       id="polygon19530"
       points="1526.54,-283.47 1530.58,-289.192 1530.58,-289.192 1536.74,-280.571 " />
  </g>
</svg>
