<?xml version="1.0" encoding="UTF-8" standalone="no"?>
<!DOCTYPE svg PUBLIC "-//W3C//DTD SVG 1.1//EN"
 "http://www.w3.org/Graphics/SVG/1.1/DTD/svg11.dtd">
<!-- Generated by graphviz version 2.38.0 (20140413.2041)
 -->
<!-- Title: dendrogram Pages: 1 -->
<svg width="1961pt" height="750pt"
 viewBox="0.00 0.00 1961.02 749.71" xmlns="http://www.w3.org/2000/svg" xmlns:xlink="http://www.w3.org/1999/xlink">
<g id="graph0" class="graph" transform="scale(1 1) rotate(0) translate(4 745.713)">
<title>dendrogram</title>
<polygon fill="white" stroke="none" points="-4,4 -4,-745.713 1957.02,-745.713 1957.02,4 -4,4"/>
<!-- n34 (0.02 &#45; 36) -->
<g id="node1" class="node"><title>n34 (0.02 &#45; 36)</title>
<ellipse fill="none" stroke="black" cx="410.84" cy="-723.713" rx="64.189" ry="18"/>
<text text-anchor="middle" x="410.84" y="-720.013" font-family="Times,serif" font-size="14.00">n34 (0.02 &#45; 36)</text>
</g>
<!-- n31 (0.30 &#45; 3) -->
<g id="node2" class="node"><title>n31 (0.30 &#45; 3)</title>
<ellipse fill="none" stroke="black" cx="300.84" cy="-651.713" rx="59.5901" ry="18"/>
<text text-anchor="middle" x="300.84" y="-648.013" font-family="Times,serif" font-size="14.00">n31 (0.30 &#45; 3)</text>
</g>
<!-- n34 (0.02 &#45; 36)&#45;&gt;n31 (0.30 &#45; 3) -->
<g id="edge1" class="edge"><title>n34 (0.02 &#45; 36)&#45;&gt;n31 (0.30 &#45; 3)</title>
<path fill="none" stroke="black" d="M386.154,-707.003C370.727,-697.186 350.673,-684.424 333.884,-673.741"/>
<polygon fill="black" stroke="black" points="335.76,-670.786 325.444,-668.37 332.002,-676.691 335.76,-670.786"/>
</g>
<!-- n33 (0.07 &#45; 33) -->
<g id="node7" class="node"><title>n33 (0.07 &#45; 33)</title>
<ellipse fill="none" stroke="black" cx="521.84" cy="-651.713" rx="64.189" ry="18"/>
<text text-anchor="middle" x="521.84" y="-648.013" font-family="Times,serif" font-size="14.00">n33 (0.07 &#45; 33)</text>
</g>
<!-- n34 (0.02 &#45; 36)&#45;&gt;n33 (0.07 &#45; 33) -->
<g id="edge6" class="edge"><title>n34 (0.02 &#45; 36)&#45;&gt;n33 (0.07 &#45; 33)</title>
<path fill="none" stroke="black" d="M435.751,-707.003C451.318,-697.186 471.555,-684.424 488.496,-673.741"/>
<polygon fill="black" stroke="black" points="490.421,-676.664 497.013,-668.37 486.687,-670.743 490.421,-676.664"/>
</g>
<!-- RECALL -->
<g id="node3" class="node"><title>RECALL</title>
<ellipse fill="none" stroke="black" cx="177.84" cy="-579.713" rx="44.6926" ry="18"/>
<text text-anchor="middle" x="177.84" y="-576.013" font-family="Times,serif" font-size="14.00">RECALL</text>
</g>
<!-- n31 (0.30 &#45; 3)&#45;&gt;RECALL -->
<g id="edge2" class="edge"><title>n31 (0.30 &#45; 3)&#45;&gt;RECALL</title>
<path fill="none" stroke="black" d="M274.151,-635.524C255.853,-625.11 231.424,-611.207 211.748,-600.01"/>
<polygon fill="black" stroke="black" points="213.223,-596.822 202.801,-594.918 209.761,-602.906 213.223,-596.822"/>
</g>
<!-- n27 (0.53 &#45; 2) -->
<g id="node4" class="node"><title>n27 (0.53 &#45; 2)</title>
<ellipse fill="none" stroke="black" cx="300.84" cy="-579.713" rx="59.5901" ry="18"/>
<text text-anchor="middle" x="300.84" y="-576.013" font-family="Times,serif" font-size="14.00">n27 (0.53 &#45; 2)</text>
</g>
<!-- n31 (0.30 &#45; 3)&#45;&gt;n27 (0.53 &#45; 2) -->
<g id="edge3" class="edge"><title>n31 (0.30 &#45; 3)&#45;&gt;n27 (0.53 &#45; 2)</title>
<path fill="none" stroke="black" d="M300.84,-633.409C300.84,-625.695 300.84,-616.425 300.84,-607.825"/>
<polygon fill="black" stroke="black" points="304.34,-607.817 300.84,-597.817 297.34,-607.817 304.34,-607.817"/>
</g>
<!-- COLLECTIVE_STRENGH -->
<g id="node5" class="node"><title>COLLECTIVE_STRENGH</title>
<ellipse fill="none" stroke="black" cx="109.84" cy="-507.713" rx="109.681" ry="18"/>
<text text-anchor="middle" x="109.84" y="-504.013" font-family="Times,serif" font-size="14.00">COLLECTIVE_STRENGH</text>
</g>
<!-- n27 (0.53 &#45; 2)&#45;&gt;COLLECTIVE_STRENGH -->
<g id="edge4" class="edge"><title>n27 (0.53 &#45; 2)&#45;&gt;COLLECTIVE_STRENGH</title>
<path fill="none" stroke="black" d="M264.465,-565.382C235.529,-554.777 194.653,-539.796 162.196,-527.901"/>
<polygon fill="black" stroke="black" points="163.009,-524.471 152.416,-524.316 160.601,-531.044 163.009,-524.471"/>
</g>
<!-- SPECIFICITY -->
<g id="node6" class="node"><title>SPECIFICITY</title>
<ellipse fill="none" stroke="black" cx="300.84" cy="-507.713" rx="63.0888" ry="18"/>
<text text-anchor="middle" x="300.84" y="-504.013" font-family="Times,serif" font-size="14.00">SPECIFICITY</text>
</g>
<!-- n27 (0.53 &#45; 2)&#45;&gt;SPECIFICITY -->
<g id="edge5" class="edge"><title>n27 (0.53 &#45; 2)&#45;&gt;SPECIFICITY</title>
<path fill="none" stroke="black" d="M300.84,-561.409C300.84,-553.695 300.84,-544.425 300.84,-535.825"/>
<polygon fill="black" stroke="black" points="304.34,-535.817 300.84,-525.817 297.34,-535.817 304.34,-535.817"/>
</g>
<!-- n29 (0.37 &#45; 13) -->
<g id="node8" class="node"><title>n29 (0.37 &#45; 13)</title>
<ellipse fill="none" stroke="black" cx="521.84" cy="-579.713" rx="64.189" ry="18"/>
<text text-anchor="middle" x="521.84" y="-576.013" font-family="Times,serif" font-size="14.00">n29 (0.37 &#45; 13)</text>
</g>
<!-- n33 (0.07 &#45; 33)&#45;&gt;n29 (0.37 &#45; 13) -->
<g id="edge7" class="edge"><title>n33 (0.07 &#45; 33)&#45;&gt;n29 (0.37 &#45; 13)</title>
<path fill="none" stroke="black" d="M521.84,-633.409C521.84,-625.695 521.84,-616.425 521.84,-607.825"/>
<polygon fill="black" stroke="black" points="525.34,-607.817 521.84,-597.817 518.34,-607.817 525.34,-607.817"/>
</g>
<!-- n32 (0.11 &#45; 20) -->
<g id="node25" class="node"><title>n32 (0.11 &#45; 20)</title>
<ellipse fill="none" stroke="black" cx="931.84" cy="-579.713" rx="64.189" ry="18"/>
<text text-anchor="middle" x="931.84" y="-576.013" font-family="Times,serif" font-size="14.00">n32 (0.11 &#45; 20)</text>
</g>
<!-- n33 (0.07 &#45; 33)&#45;&gt;n32 (0.11 &#45; 20) -->
<g id="edge24" class="edge"><title>n33 (0.07 &#45; 33)&#45;&gt;n32 (0.11 &#45; 20)</title>
<path fill="none" stroke="black" d="M575.441,-641.561C650.898,-628.679 788.189,-605.239 868.561,-591.517"/>
<polygon fill="black" stroke="black" points="869.284,-594.944 878.552,-589.811 868.106,-588.044 869.284,-594.944"/>
</g>
<!-- n26 (0.60 &#45; 2) -->
<g id="node9" class="node"><title>n26 (0.60 &#45; 2)</title>
<ellipse fill="none" stroke="black" cx="441.84" cy="-507.713" rx="59.5901" ry="18"/>
<text text-anchor="middle" x="441.84" y="-504.013" font-family="Times,serif" font-size="14.00">n26 (0.60 &#45; 2)</text>
</g>
<!-- n29 (0.37 &#45; 13)&#45;&gt;n26 (0.60 &#45; 2) -->
<g id="edge8" class="edge"><title>n29 (0.37 &#45; 13)&#45;&gt;n26 (0.60 &#45; 2)</title>
<path fill="none" stroke="black" d="M502.881,-562.124C492.445,-552.992 479.337,-541.522 467.945,-531.555"/>
<polygon fill="black" stroke="black" points="470.218,-528.892 460.387,-524.941 465.608,-534.16 470.218,-528.892"/>
</g>
<!-- n28 (0.47 &#45; 11) -->
<g id="node12" class="node"><title>n28 (0.47 &#45; 11)</title>
<ellipse fill="none" stroke="black" cx="601.84" cy="-507.713" rx="64.189" ry="18"/>
<text text-anchor="middle" x="601.84" y="-504.013" font-family="Times,serif" font-size="14.00">n28 (0.47 &#45; 11)</text>
</g>
<!-- n29 (0.37 &#45; 13)&#45;&gt;n28 (0.47 &#45; 11) -->
<g id="edge11" class="edge"><title>n29 (0.37 &#45; 13)&#45;&gt;n28 (0.47 &#45; 11)</title>
<path fill="none" stroke="black" d="M540.799,-562.124C551.161,-553.057 564.155,-541.687 575.489,-531.77"/>
<polygon fill="black" stroke="black" points="577.796,-534.402 583.017,-525.183 573.187,-529.134 577.796,-534.402"/>
</g>
<!-- TWO_WAY_SUPPORT -->
<g id="node10" class="node"><title>TWO_WAY_SUPPORT</title>
<ellipse fill="none" stroke="black" cx="203.84" cy="-435.713" rx="100.182" ry="18"/>
<text text-anchor="middle" x="203.84" y="-432.013" font-family="Times,serif" font-size="14.00">TWO_WAY_SUPPORT</text>
</g>
<!-- n26 (0.60 &#45; 2)&#45;&gt;TWO_WAY_SUPPORT -->
<g id="edge9" class="edge"><title>n26 (0.60 &#45; 2)&#45;&gt;TWO_WAY_SUPPORT</title>
<path fill="none" stroke="black" d="M400.656,-494.6C362.763,-483.455 306.124,-466.796 263.321,-454.207"/>
<polygon fill="black" stroke="black" points="264.167,-450.808 253.586,-451.344 262.192,-457.523 264.167,-450.808"/>
</g>
<!-- PIATETSKY_SHAPIRO -->
<g id="node11" class="node"><title>PIATETSKY_SHAPIRO</title>
<ellipse fill="none" stroke="black" cx="422.84" cy="-435.713" rx="100.983" ry="18"/>
<text text-anchor="middle" x="422.84" y="-432.013" font-family="Times,serif" font-size="14.00">PIATETSKY_SHAPIRO</text>
</g>
<!-- n26 (0.60 &#45; 2)&#45;&gt;PIATETSKY_SHAPIRO -->
<g id="edge10" class="edge"><title>n26 (0.60 &#45; 2)&#45;&gt;PIATETSKY_SHAPIRO</title>
<path fill="none" stroke="black" d="M437.144,-489.409C435.027,-481.611 432.478,-472.221 430.122,-463.542"/>
<polygon fill="black" stroke="black" points="433.48,-462.551 427.483,-453.817 426.725,-464.385 433.48,-462.551"/>
</g>
<!-- n25 (0.63 &#45; 3) -->
<g id="node13" class="node"><title>n25 (0.63 &#45; 3)</title>
<ellipse fill="none" stroke="black" cx="601.84" cy="-435.713" rx="59.5901" ry="18"/>
<text text-anchor="middle" x="601.84" y="-432.013" font-family="Times,serif" font-size="14.00">n25 (0.63 &#45; 3)</text>
</g>
<!-- n28 (0.47 &#45; 11)&#45;&gt;n25 (0.63 &#45; 3) -->
<g id="edge12" class="edge"><title>n28 (0.47 &#45; 11)&#45;&gt;n25 (0.63 &#45; 3)</title>
<path fill="none" stroke="black" d="M601.84,-489.409C601.84,-481.695 601.84,-472.425 601.84,-463.825"/>
<polygon fill="black" stroke="black" points="605.34,-463.817 601.84,-453.817 598.34,-463.817 605.34,-463.817"/>
</g>
<!-- n24 (0.66 &#45; 8) -->
<g id="node16" class="node"><title>n24 (0.66 &#45; 8)</title>
<ellipse fill="none" stroke="black" cx="763.84" cy="-435.713" rx="59.5901" ry="18"/>
<text text-anchor="middle" x="763.84" y="-432.013" font-family="Times,serif" font-size="14.00">n24 (0.66 &#45; 8)</text>
</g>
<!-- n28 (0.47 &#45; 11)&#45;&gt;n24 (0.66 &#45; 8) -->
<g id="edge15" class="edge"><title>n28 (0.47 &#45; 11)&#45;&gt;n24 (0.66 &#45; 8)</title>
<path fill="none" stroke="black" d="M635.407,-492.209C660.417,-481.402 694.742,-466.57 721.615,-454.958"/>
<polygon fill="black" stroke="black" points="723.356,-458.019 731.147,-450.839 720.579,-451.593 723.356,-458.019"/>
</g>
<!-- KLOSGEN -->
<g id="node14" class="node"><title>KLOSGEN</title>
<ellipse fill="none" stroke="black" cx="397.84" cy="-312.416" rx="51.9908" ry="18"/>
<text text-anchor="middle" x="397.84" y="-308.716" font-family="Times,serif" font-size="14.00">KLOSGEN</text>
</g>
<!-- n25 (0.63 &#45; 3)&#45;&gt;KLOSGEN -->
<g id="edge13" class="edge"><title>n25 (0.63 &#45; 3)&#45;&gt;KLOSGEN</title>
<path fill="none" stroke="black" d="M556.32,-423.971C526.809,-415.585 488.483,-401.921 458.84,-381.713 441.71,-370.035 426.204,-352.532 415.111,-338.17"/>
<polygon fill="black" stroke="black" points="417.902,-336.057 409.112,-330.144 412.296,-340.249 417.902,-336.057"/>
</g>
<!-- GINI\nIMPLICATION_INDEX -->
<g id="node15" class="node"><title>GINI\nIMPLICATION_INDEX</title>
<ellipse fill="none" stroke="black" cx="576.84" cy="-312.416" rx="108.789" ry="26.7407"/>
<text text-anchor="middle" x="576.84" y="-316.216" font-family="Times,serif" font-size="14.00">GINI</text>
<text text-anchor="middle" x="576.84" y="-301.216" font-family="Times,serif" font-size="14.00">IMPLICATION_INDEX</text>
</g>
<!-- n25 (0.63 &#45; 3)&#45;&gt;GINI\nIMPLICATION_INDEX -->
<g id="edge14" class="edge"><title>n25 (0.63 &#45; 3)&#45;&gt;GINI\nIMPLICATION_INDEX</title>
<path fill="none" stroke="black" d="M598.311,-417.591C594.67,-399.923 588.881,-371.837 584.231,-349.277"/>
<polygon fill="black" stroke="black" points="587.634,-348.446 582.187,-339.358 580.778,-349.859 587.634,-348.446"/>
</g>
<!-- n20 (0.82 &#45; 2) -->
<g id="node17" class="node"><title>n20 (0.82 &#45; 2)</title>
<ellipse fill="none" stroke="black" cx="763.84" cy="-312.416" rx="59.5901" ry="18"/>
<text text-anchor="middle" x="763.84" y="-308.716" font-family="Times,serif" font-size="14.00">n20 (0.82 &#45; 2)</text>
</g>
<!-- n24 (0.66 &#45; 8)&#45;&gt;n20 (0.82 &#45; 2) -->
<g id="edge16" class="edge"><title>n24 (0.66 &#45; 8)&#45;&gt;n20 (0.82 &#45; 2)</title>
<path fill="none" stroke="black" d="M763.84,-417.591C763.84,-397.544 763.84,-364.086 763.84,-340.506"/>
<polygon fill="black" stroke="black" points="767.34,-340.451 763.84,-330.451 760.34,-340.451 767.34,-340.451"/>
</g>
<!-- n21 (0.71 &#45; 6) -->
<g id="node20" class="node"><title>n21 (0.71 &#45; 6)</title>
<ellipse fill="none" stroke="black" cx="923.84" cy="-312.416" rx="59.5901" ry="18"/>
<text text-anchor="middle" x="923.84" y="-308.716" font-family="Times,serif" font-size="14.00">n21 (0.71 &#45; 6)</text>
</g>
<!-- n24 (0.66 &#45; 8)&#45;&gt;n21 (0.71 &#45; 6) -->
<g id="edge19" class="edge"><title>n24 (0.66 &#45; 8)&#45;&gt;n21 (0.71 &#45; 6)</title>
<path fill="none" stroke="black" d="M785.087,-418.606C813.257,-397.25 863.088,-359.473 894.739,-335.478"/>
<polygon fill="black" stroke="black" points="896.906,-338.227 902.76,-329.397 892.677,-332.649 896.906,-338.227"/>
</g>
<!-- JACCARD -->
<g id="node18" class="node"><title>JACCARD</title>
<ellipse fill="none" stroke="black" cx="633.84" cy="-148.43" rx="50.8918" ry="18"/>
<text text-anchor="middle" x="633.84" y="-144.73" font-family="Times,serif" font-size="14.00">JACCARD</text>
</g>
<!-- n20 (0.82 &#45; 2)&#45;&gt;JACCARD -->
<g id="edge17" class="edge"><title>n20 (0.82 &#45; 2)&#45;&gt;JACCARD</title>
<path fill="none" stroke="black" d="M750.418,-294.691C727.333,-265.927 680.025,-206.979 653.316,-173.697"/>
<polygon fill="black" stroke="black" points="655.985,-171.431 646.996,-165.823 650.526,-175.813 655.985,-171.431"/>
</g>
<!-- KAPPA -->
<g id="node19" class="node"><title>KAPPA</title>
<ellipse fill="none" stroke="black" cx="741.84" cy="-148.43" rx="39.7935" ry="18"/>
<text text-anchor="middle" x="741.84" y="-144.73" font-family="Times,serif" font-size="14.00">KAPPA</text>
</g>
<!-- n20 (0.82 &#45; 2)&#45;&gt;KAPPA -->
<g id="edge18" class="edge"><title>n20 (0.82 &#45; 2)&#45;&gt;KAPPA</title>
<path fill="none" stroke="black" d="M761.527,-294.387C757.725,-266.388 750.119,-210.388 745.555,-176.78"/>
<polygon fill="black" stroke="black" points="749.002,-176.157 744.188,-166.719 742.066,-177.099 749.002,-176.157"/>
</g>
<!-- J_MEASURE\nTWO_WAY_SUPPORT_VARIATION\nFISHER_PVAL -->
<g id="node21" class="node"><title>J_MEASURE\nTWO_WAY_SUPPORT_VARIATION\nFISHER_PVAL</title>
<ellipse fill="none" stroke="black" cx="966.84" cy="-148.43" rx="166.754" ry="37.4533"/>
<text text-anchor="middle" x="966.84" y="-159.73" font-family="Times,serif" font-size="14.00">J_MEASURE</text>
<text text-anchor="middle" x="966.84" y="-144.73" font-family="Times,serif" font-size="14.00">TWO_WAY_SUPPORT_VARIATION</text>
<text text-anchor="middle" x="966.84" y="-129.73" font-family="Times,serif" font-size="14.00">FISHER_PVAL</text>
</g>
<!-- n21 (0.71 &#45; 6)&#45;&gt;J_MEASURE\nTWO_WAY_SUPPORT_VARIATION\nFISHER_PVAL -->
<g id="edge20" class="edge"><title>n21 (0.71 &#45; 6)&#45;&gt;J_MEASURE\nTWO_WAY_SUPPORT_VARIATION\nFISHER_PVAL</title>
<path fill="none" stroke="black" d="M928.361,-294.387C934.516,-271.199 945.77,-228.805 954.523,-195.831"/>
<polygon fill="black" stroke="black" points="957.968,-196.495 957.151,-185.932 951.202,-194.699 957.968,-196.495"/>
</g>
<!-- n19 (0.84 &#45; 3) -->
<g id="node22" class="node"><title>n19 (0.84 &#45; 3)</title>
<ellipse fill="none" stroke="black" cx="1211.84" cy="-148.43" rx="59.5901" ry="18"/>
<text text-anchor="middle" x="1211.84" y="-144.73" font-family="Times,serif" font-size="14.00">n19 (0.84 &#45; 3)</text>
</g>
<!-- n21 (0.71 &#45; 6)&#45;&gt;n19 (0.84 &#45; 3) -->
<g id="edge21" class="edge"><title>n21 (0.71 &#45; 6)&#45;&gt;n19 (0.84 &#45; 3)</title>
<path fill="none" stroke="black" d="M936.204,-294.748C948.741,-279.052 969.571,-256.072 992.84,-243.12 1052.75,-209.776 1081.59,-237.922 1142.84,-207.12 1159.94,-198.522 1176.48,-184.933 1189.08,-173.104"/>
<polygon fill="black" stroke="black" points="1191.64,-175.498 1196.38,-166.026 1186.77,-170.471 1191.64,-175.498"/>
</g>
<!-- COSINE -->
<g id="node23" class="node"><title>COSINE</title>
<ellipse fill="none" stroke="black" cx="1145.84" cy="-26.8701" rx="42.4939" ry="18"/>
<text text-anchor="middle" x="1145.84" y="-23.1701" font-family="Times,serif" font-size="14.00">COSINE</text>
</g>
<!-- n19 (0.84 &#45; 3)&#45;&gt;COSINE -->
<g id="edge22" class="edge"><title>n19 (0.84 &#45; 3)&#45;&gt;COSINE</title>
<path fill="none" stroke="black" d="M1202.52,-130.554C1191.47,-110.526 1172.92,-76.9208 1160.06,-53.6352"/>
<polygon fill="black" stroke="black" points="1163.01,-51.7238 1155.11,-44.6606 1156.88,-55.1068 1163.01,-51.7238"/>
</g>
<!-- PHI\nCHI_SQUARE -->
<g id="node24" class="node"><title>PHI\nCHI_SQUARE</title>
<ellipse fill="none" stroke="black" cx="1277.84" cy="-26.8701" rx="71.3357" ry="26.7407"/>
<text text-anchor="middle" x="1277.84" y="-30.6701" font-family="Times,serif" font-size="14.00">PHI</text>
<text text-anchor="middle" x="1277.84" y="-15.6701" font-family="Times,serif" font-size="14.00">CHI_SQUARE</text>
</g>
<!-- n19 (0.84 &#45; 3)&#45;&gt;PHI\nCHI_SQUARE -->
<g id="edge23" class="edge"><title>n19 (0.84 &#45; 3)&#45;&gt;PHI\nCHI_SQUARE</title>
<path fill="none" stroke="black" d="M1221.16,-130.554C1230.9,-112.902 1246.47,-84.7039 1258.82,-62.3192"/>
<polygon fill="black" stroke="black" points="1261.96,-63.8869 1263.72,-53.4407 1255.83,-60.5039 1261.96,-63.8869"/>
</g>
<!-- ACCURACY -->
<g id="node26" class="node"><title>ACCURACY</title>
<ellipse fill="none" stroke="black" cx="931.84" cy="-507.713" rx="59.5901" ry="18"/>
<text text-anchor="middle" x="931.84" y="-504.013" font-family="Times,serif" font-size="14.00">ACCURACY</text>
</g>
<!-- n32 (0.11 &#45; 20)&#45;&gt;ACCURACY -->
<g id="edge25" class="edge"><title>n32 (0.11 &#45; 20)&#45;&gt;ACCURACY</title>
<path fill="none" stroke="black" d="M931.84,-561.409C931.84,-553.695 931.84,-544.425 931.84,-535.825"/>
<polygon fill="black" stroke="black" points="935.34,-535.817 931.84,-525.817 928.34,-535.817 935.34,-535.817"/>
</g>
<!-- n30 (0.32 &#45; 19) -->
<g id="node27" class="node"><title>n30 (0.32 &#45; 19)</title>
<ellipse fill="none" stroke="black" cx="1190.84" cy="-507.713" rx="64.189" ry="18"/>
<text text-anchor="middle" x="1190.84" y="-504.013" font-family="Times,serif" font-size="14.00">n30 (0.32 &#45; 19)</text>
</g>
<!-- n32 (0.11 &#45; 20)&#45;&gt;n30 (0.32 &#45; 19) -->
<g id="edge26" class="edge"><title>n32 (0.11 &#45; 20)&#45;&gt;n30 (0.32 &#45; 19)</title>
<path fill="none" stroke="black" d="M976.364,-566.679C1020.65,-554.709 1088.68,-536.323 1136.22,-523.476"/>
<polygon fill="black" stroke="black" points="1137.29,-526.811 1146.03,-520.823 1135.46,-520.054 1137.29,-526.811"/>
</g>
<!-- n22 (0.70 &#45; 8) -->
<g id="node28" class="node"><title>n22 (0.70 &#45; 8)</title>
<ellipse fill="none" stroke="black" cx="1190.84" cy="-435.713" rx="59.5901" ry="18"/>
<text text-anchor="middle" x="1190.84" y="-432.013" font-family="Times,serif" font-size="14.00">n22 (0.70 &#45; 8)</text>
</g>
<!-- n30 (0.32 &#45; 19)&#45;&gt;n22 (0.70 &#45; 8) -->
<g id="edge27" class="edge"><title>n30 (0.32 &#45; 19)&#45;&gt;n22 (0.70 &#45; 8)</title>
<path fill="none" stroke="black" d="M1190.84,-489.409C1190.84,-481.695 1190.84,-472.425 1190.84,-463.825"/>
<polygon fill="black" stroke="black" points="1194.34,-463.817 1190.84,-453.817 1187.34,-463.817 1194.34,-463.817"/>
</g>
<!-- n23 (0.67 &#45; 11) -->
<g id="node31" class="node"><title>n23 (0.67 &#45; 11)</title>
<ellipse fill="none" stroke="black" cx="1494.84" cy="-435.713" rx="64.189" ry="18"/>
<text text-anchor="middle" x="1494.84" y="-432.013" font-family="Times,serif" font-size="14.00">n23 (0.67 &#45; 11)</text>
</g>
<!-- n30 (0.32 &#45; 19)&#45;&gt;n23 (0.67 &#45; 11) -->
<g id="edge30" class="edge"><title>n30 (0.32 &#45; 19)&#45;&gt;n23 (0.67 &#45; 11)</title>
<path fill="none" stroke="black" d="M1239.01,-495.621C1292.71,-483.256 1379.53,-463.265 1436.89,-450.056"/>
<polygon fill="black" stroke="black" points="1437.94,-453.407 1446.9,-447.753 1436.37,-446.586 1437.94,-453.407"/>
</g>
<!-- RELATIVE_RISK\nLIFT -->
<g id="node29" class="node"><title>RELATIVE_RISK\nLIFT</title>
<ellipse fill="none" stroke="black" cx="1086.84" cy="-312.416" rx="84.7059" ry="26.7407"/>
<text text-anchor="middle" x="1086.84" y="-316.216" font-family="Times,serif" font-size="14.00">RELATIVE_RISK</text>
<text text-anchor="middle" x="1086.84" y="-301.216" font-family="Times,serif" font-size="14.00">LIFT</text>
</g>
<!-- n22 (0.70 &#45; 8)&#45;&gt;RELATIVE_RISK\nLIFT -->
<g id="edge28" class="edge"><title>n22 (0.70 &#45; 8)&#45;&gt;RELATIVE_RISK\nLIFT</title>
<path fill="none" stroke="black" d="M1176.6,-418.101C1160.87,-399.761 1135.15,-369.763 1115.27,-346.57"/>
<polygon fill="black" stroke="black" points="1117.67,-343.994 1108.5,-338.68 1112.35,-348.55 1117.67,-343.994"/>
</g>
<!-- ODD_MULTIPLIER\nZHANG\nBAYES\nYULE_Y\nYULE_Q\nODDS_RATIO -->
<g id="node30" class="node"><title>ODD_MULTIPLIER\nZHANG\nBAYES\nYULE_Y\nYULE_Q\nODDS_RATIO</title>
<ellipse fill="none" stroke="black" cx="1284.84" cy="-312.416" rx="94.5053" ry="69.0935"/>
<text text-anchor="middle" x="1284.84" y="-346.216" font-family="Times,serif" font-size="14.00">ODD_MULTIPLIER</text>
<text text-anchor="middle" x="1284.84" y="-331.216" font-family="Times,serif" font-size="14.00">ZHANG</text>
<text text-anchor="middle" x="1284.84" y="-316.216" font-family="Times,serif" font-size="14.00">BAYES</text>
<text text-anchor="middle" x="1284.84" y="-301.216" font-family="Times,serif" font-size="14.00">YULE_Y</text>
<text text-anchor="middle" x="1284.84" y="-286.216" font-family="Times,serif" font-size="14.00">YULE_Q</text>
<text text-anchor="middle" x="1284.84" y="-271.216" font-family="Times,serif" font-size="14.00">ODDS_RATIO</text>
</g>
<!-- n22 (0.70 &#45; 8)&#45;&gt;ODD_MULTIPLIER\nZHANG\nBAYES\nYULE_Y\nYULE_Q\nODDS_RATIO -->
<g id="edge29" class="edge"><title>n22 (0.70 &#45; 8)&#45;&gt;ODD_MULTIPLIER\nZHANG\nBAYES\nYULE_Y\nYULE_Q\nODDS_RATIO</title>
<path fill="none" stroke="black" d="M1203.71,-418.101C1211.36,-408.23 1221.63,-394.982 1232.28,-381.235"/>
<polygon fill="black" stroke="black" points="1235.22,-383.154 1238.58,-373.105 1229.69,-378.866 1235.22,-383.154"/>
</g>
<!-- ONE_WAY_SUPPORT -->
<g id="node32" class="node"><title>ONE_WAY_SUPPORT</title>
<ellipse fill="none" stroke="black" cx="1494.84" cy="-312.416" rx="97.4827" ry="18"/>
<text text-anchor="middle" x="1494.84" y="-308.716" font-family="Times,serif" font-size="14.00">ONE_WAY_SUPPORT</text>
</g>
<!-- n23 (0.67 &#45; 11)&#45;&gt;ONE_WAY_SUPPORT -->
<g id="edge31" class="edge"><title>n23 (0.67 &#45; 11)&#45;&gt;ONE_WAY_SUPPORT</title>
<path fill="none" stroke="black" d="M1494.84,-417.591C1494.84,-397.544 1494.84,-364.086 1494.84,-340.506"/>
<polygon fill="black" stroke="black" points="1498.34,-340.451 1494.84,-330.451 1491.34,-340.451 1498.34,-340.451"/>
</g>
<!-- n18 (0.87 &#45; 10) -->
<g id="node33" class="node"><title>n18 (0.87 &#45; 10)</title>
<ellipse fill="none" stroke="black" cx="1674.84" cy="-312.416" rx="64.189" ry="18"/>
<text text-anchor="middle" x="1674.84" y="-308.716" font-family="Times,serif" font-size="14.00">n18 (0.87 &#45; 10)</text>
</g>
<!-- n23 (0.67 &#45; 11)&#45;&gt;n18 (0.87 &#45; 10) -->
<g id="edge32" class="edge"><title>n23 (0.67 &#45; 11)&#45;&gt;n18 (0.87 &#45; 10)</title>
<path fill="none" stroke="black" d="M1529.63,-420.319C1551.01,-410.757 1578.49,-397.148 1600.84,-381.713 1619.53,-368.802 1638.31,-351.403 1652.28,-337.397"/>
<polygon fill="black" stroke="black" points="1655.01,-339.608 1659.51,-330.016 1650.01,-334.71 1655.01,-339.608"/>
</g>
<!-- CENTERED_CONFIDENCE\nADDED_VALUE\nLOEVINGER\nCONVICTION\nCERTAINTY_FACTOR -->
<g id="node34" class="node"><title>CENTERED_CONFIDENCE\nADDED_VALUE\nLOEVINGER\nCONVICTION\nCERTAINTY_FACTOR</title>
<ellipse fill="none" stroke="black" cx="1533.84" cy="-148.43" rx="126.644" ry="58.8803"/>
<text text-anchor="middle" x="1533.84" y="-174.73" font-family="Times,serif" font-size="14.00">CENTERED_CONFIDENCE</text>
<text text-anchor="middle" x="1533.84" y="-159.73" font-family="Times,serif" font-size="14.00">ADDED_VALUE</text>
<text text-anchor="middle" x="1533.84" y="-144.73" font-family="Times,serif" font-size="14.00">LOEVINGER</text>
<text text-anchor="middle" x="1533.84" y="-129.73" font-family="Times,serif" font-size="14.00">CONVICTION</text>
<text text-anchor="middle" x="1533.84" y="-114.73" font-family="Times,serif" font-size="14.00">CERTAINTY_FACTOR</text>
</g>
<!-- n18 (0.87 &#45; 10)&#45;&gt;CENTERED_CONFIDENCE\nADDED_VALUE\nLOEVINGER\nCONVICTION\nCERTAINTY_FACTOR -->
<g id="edge33" class="edge"><title>n18 (0.87 &#45; 10)&#45;&gt;CENTERED_CONFIDENCE\nADDED_VALUE\nLOEVINGER\nCONVICTION\nCERTAINTY_FACTOR</title>
<path fill="none" stroke="black" d="M1660.28,-294.691C1643.09,-274.943 1613.52,-240.97 1587.3,-210.842"/>
<polygon fill="black" stroke="black" points="1589.92,-208.521 1580.71,-203.276 1584.64,-213.117 1589.92,-208.521"/>
</g>
<!-- LEAST_CONTRADICTION\nSEBAG_SCHOENAUER\nCOUNTER_EXAMPLE_RATE\nLEVERAGE\nCONFIDENCE -->
<g id="node35" class="node"><title>LEAST_CONTRADICTION\nSEBAG_SCHOENAUER\nCOUNTER_EXAMPLE_RATE\nLEVERAGE\nCONFIDENCE</title>
<ellipse fill="none" stroke="black" cx="1815.84" cy="-148.43" rx="137.358" ry="58.8803"/>
<text text-anchor="middle" x="1815.84" y="-174.73" font-family="Times,serif" font-size="14.00">LEAST_CONTRADICTION</text>
<text text-anchor="middle" x="1815.84" y="-159.73" font-family="Times,serif" font-size="14.00">SEBAG_SCHOENAUER</text>
<text text-anchor="middle" x="1815.84" y="-144.73" font-family="Times,serif" font-size="14.00">COUNTER_EXAMPLE_RATE</text>
<text text-anchor="middle" x="1815.84" y="-129.73" font-family="Times,serif" font-size="14.00">LEVERAGE</text>
<text text-anchor="middle" x="1815.84" y="-114.73" font-family="Times,serif" font-size="14.00">CONFIDENCE</text>
</g>
<!-- n18 (0.87 &#45; 10)&#45;&gt;LEAST_CONTRADICTION\nSEBAG_SCHOENAUER\nCOUNTER_EXAMPLE_RATE\nLEVERAGE\nCONFIDENCE -->
<g id="edge34" class="edge"><title>n18 (0.87 &#45; 10)&#45;&gt;LEAST_CONTRADICTION\nSEBAG_SCHOENAUER\nCOUNTER_EXAMPLE_RATE\nLEVERAGE\nCONFIDENCE</title>
<path fill="none" stroke="black" d="M1689.4,-294.691C1706.52,-275.018 1735.94,-241.226 1762.09,-211.183"/>
<polygon fill="black" stroke="black" points="1764.73,-213.477 1768.66,-203.637 1759.45,-208.881 1764.73,-213.477"/>
</g>
</g>
</svg>
