<?xml version="1.0" encoding="UTF-8" standalone="no"?>
<!DOCTYPE svg PUBLIC "-//W3C//DTD SVG 1.1//EN"
 "http://www.w3.org/Graphics/SVG/1.1/DTD/svg11.dtd">
<!-- Generated by graphviz version 2.38.0 (20140413.2041)
 -->
<!-- Title: dendrogram Pages: 1 -->
<svg width="1650pt" height="775pt"
 viewBox="0.00 0.00 1650.02 775.42" xmlns="http://www.w3.org/2000/svg" xmlns:xlink="http://www.w3.org/1999/xlink">
<g id="graph0" class="graph" transform="scale(1 1) rotate(0) translate(4 771.418)">
<title>dendrogram</title>
<polygon fill="white" stroke="none" points="-4,4 -4,-771.418 1646.02,-771.418 1646.02,4 -4,4"/>
<!-- n34 (0.00 &#45; 36) -->
<g id="node1" class="node"><title>n34 (0.00 &#45; 36)</title>
<ellipse fill="none" stroke="black" cx="673.84" cy="-749.418" rx="64.189" ry="18"/>
<text text-anchor="middle" x="673.84" y="-745.718" font-family="Times,serif" font-size="14.00">n34 (0.00 &#45; 36)</text>
</g>
<!-- n33 (0.09 &#45; 16) -->
<g id="node2" class="node"><title>n33 (0.09 &#45; 16)</title>
<ellipse fill="none" stroke="black" cx="538.84" cy="-677.418" rx="64.189" ry="18"/>
<text text-anchor="middle" x="538.84" y="-673.718" font-family="Times,serif" font-size="14.00">n33 (0.09 &#45; 16)</text>
</g>
<!-- n34 (0.00 &#45; 36)&#45;&gt;n33 (0.09 &#45; 16) -->
<g id="edge1" class="edge"><title>n34 (0.00 &#45; 36)&#45;&gt;n33 (0.09 &#45; 16)</title>
<path fill="none" stroke="black" d="M644.547,-733.229C624.822,-723.002 598.607,-709.408 577.218,-698.318"/>
<polygon fill="black" stroke="black" points="578.565,-695.074 568.076,-693.578 575.343,-701.288 578.565,-695.074"/>
</g>
<!-- n32 (0.19 &#45; 20) -->
<g id="node17" class="node"><title>n32 (0.19 &#45; 20)</title>
<ellipse fill="none" stroke="black" cx="973.84" cy="-677.418" rx="64.189" ry="18"/>
<text text-anchor="middle" x="973.84" y="-673.718" font-family="Times,serif" font-size="14.00">n32 (0.19 &#45; 20)</text>
</g>
<!-- n34 (0.00 &#45; 36)&#45;&gt;n32 (0.19 &#45; 20) -->
<g id="edge16" class="edge"><title>n34 (0.00 &#45; 36)&#45;&gt;n32 (0.19 &#45; 20)</title>
<path fill="none" stroke="black" d="M721.708,-737.249C774.611,-724.905 859.792,-705.03 916.29,-691.847"/>
<polygon fill="black" stroke="black" points="917.2,-695.229 926.143,-689.548 915.609,-688.412 917.2,-695.229"/>
</g>
<!-- n28 (0.50 &#45; 2) -->
<g id="node3" class="node"><title>n28 (0.50 &#45; 2)</title>
<ellipse fill="none" stroke="black" cx="300.84" cy="-605.418" rx="59.5901" ry="18"/>
<text text-anchor="middle" x="300.84" y="-601.718" font-family="Times,serif" font-size="14.00">n28 (0.50 &#45; 2)</text>
</g>
<!-- n33 (0.09 &#45; 16)&#45;&gt;n28 (0.50 &#45; 2) -->
<g id="edge2" class="edge"><title>n33 (0.09 &#45; 16)&#45;&gt;n28 (0.50 &#45; 2)</title>
<path fill="none" stroke="black" d="M496.291,-663.904C455.853,-652.01 394.989,-634.109 351.942,-621.448"/>
<polygon fill="black" stroke="black" points="352.806,-618.054 342.224,-618.59 350.831,-624.77 352.806,-618.054"/>
</g>
<!-- n30 (0.49 &#45; 14) -->
<g id="node6" class="node"><title>n30 (0.49 &#45; 14)</title>
<ellipse fill="none" stroke="black" cx="538.84" cy="-605.418" rx="64.189" ry="18"/>
<text text-anchor="middle" x="538.84" y="-601.718" font-family="Times,serif" font-size="14.00">n30 (0.49 &#45; 14)</text>
</g>
<!-- n33 (0.09 &#45; 16)&#45;&gt;n30 (0.49 &#45; 14) -->
<g id="edge5" class="edge"><title>n33 (0.09 &#45; 16)&#45;&gt;n30 (0.49 &#45; 14)</title>
<path fill="none" stroke="black" d="M538.84,-659.115C538.84,-651.401 538.84,-642.131 538.84,-633.531"/>
<polygon fill="black" stroke="black" points="542.34,-633.523 538.84,-623.523 535.34,-633.523 542.34,-633.523"/>
</g>
<!-- COLLECTIVE_STRENGH -->
<g id="node4" class="node"><title>COLLECTIVE_STRENGH</title>
<ellipse fill="none" stroke="black" cx="109.84" cy="-439.696" rx="109.681" ry="18"/>
<text text-anchor="middle" x="109.84" y="-435.996" font-family="Times,serif" font-size="14.00">COLLECTIVE_STRENGH</text>
</g>
<!-- n28 (0.50 &#45; 2)&#45;&gt;COLLECTIVE_STRENGH -->
<g id="edge3" class="edge"><title>n28 (0.50 &#45; 2)&#45;&gt;COLLECTIVE_STRENGH</title>
<path fill="none" stroke="black" d="M277.957,-588.592C263.548,-578.381 244.736,-564.59 228.84,-551.418 194.724,-523.148 157.694,-487.906 134.157,-464.878"/>
<polygon fill="black" stroke="black" points="136.595,-462.368 127.01,-457.855 131.689,-467.361 136.595,-462.368"/>
</g>
<!-- SPECIFICITY -->
<g id="node5" class="node"><title>SPECIFICITY</title>
<ellipse fill="none" stroke="black" cx="300.84" cy="-439.696" rx="63.0888" ry="18"/>
<text text-anchor="middle" x="300.84" y="-435.996" font-family="Times,serif" font-size="14.00">SPECIFICITY</text>
</g>
<!-- n28 (0.50 &#45; 2)&#45;&gt;SPECIFICITY -->
<g id="edge4" class="edge"><title>n28 (0.50 &#45; 2)&#45;&gt;SPECIFICITY</title>
<path fill="none" stroke="black" d="M300.84,-587.207C300.84,-558.907 300.84,-502.307 300.84,-468.338"/>
<polygon fill="black" stroke="black" points="304.34,-468.169 300.84,-458.169 297.34,-468.169 304.34,-468.169"/>
</g>
<!-- n26 (0.70 &#45; 3) -->
<g id="node7" class="node"><title>n26 (0.70 &#45; 3)</title>
<ellipse fill="none" stroke="black" cx="441.84" cy="-439.696" rx="59.5901" ry="18"/>
<text text-anchor="middle" x="441.84" y="-435.996" font-family="Times,serif" font-size="14.00">n26 (0.70 &#45; 3)</text>
</g>
<!-- n30 (0.49 &#45; 14)&#45;&gt;n26 (0.70 &#45; 3) -->
<g id="edge6" class="edge"><title>n30 (0.49 &#45; 14)&#45;&gt;n26 (0.70 &#45; 3)</title>
<path fill="none" stroke="black" d="M528.825,-587.514C511.835,-558.837 477.259,-500.478 457.194,-466.611"/>
<polygon fill="black" stroke="black" points="460.055,-464.573 451.946,-457.753 454.033,-468.141 460.055,-464.573"/>
</g>
<!-- n27 (0.66 &#45; 11) -->
<g id="node12" class="node"><title>n27 (0.66 &#45; 11)</title>
<ellipse fill="none" stroke="black" cx="634.84" cy="-439.696" rx="64.189" ry="18"/>
<text text-anchor="middle" x="634.84" y="-435.996" font-family="Times,serif" font-size="14.00">n27 (0.66 &#45; 11)</text>
</g>
<!-- n30 (0.49 &#45; 14)&#45;&gt;n27 (0.66 &#45; 11) -->
<g id="edge11" class="edge"><title>n30 (0.49 &#45; 14)&#45;&gt;n27 (0.66 &#45; 11)</title>
<path fill="none" stroke="black" d="M548.752,-587.514C565.567,-558.837 599.787,-500.478 619.645,-466.611"/>
<polygon fill="black" stroke="black" points="622.799,-468.15 624.838,-457.753 616.761,-464.609 622.799,-468.15"/>
</g>
<!-- TWO_WAY_SUPPORT -->
<g id="node8" class="node"><title>TWO_WAY_SUPPORT</title>
<ellipse fill="none" stroke="black" cx="211.84" cy="-222.676" rx="100.182" ry="18"/>
<text text-anchor="middle" x="211.84" y="-218.976" font-family="Times,serif" font-size="14.00">TWO_WAY_SUPPORT</text>
</g>
<!-- n26 (0.70 &#45; 3)&#45;&gt;TWO_WAY_SUPPORT -->
<g id="edge7" class="edge"><title>n26 (0.70 &#45; 3)&#45;&gt;TWO_WAY_SUPPORT</title>
<path fill="none" stroke="black" d="M434.21,-421.74C423.167,-398.552 400.939,-356.568 372.84,-327.973 367.66,-322.7 292.216,-274.569 246.467,-245.568"/>
<polygon fill="black" stroke="black" points="248.339,-242.611 238.019,-240.215 244.593,-248.524 248.339,-242.611"/>
</g>
<!-- n25 (0.70 &#45; 2) -->
<g id="node9" class="node"><title>n25 (0.70 &#45; 2)</title>
<ellipse fill="none" stroke="black" cx="389.84" cy="-222.676" rx="59.5901" ry="18"/>
<text text-anchor="middle" x="389.84" y="-218.976" font-family="Times,serif" font-size="14.00">n25 (0.70 &#45; 2)</text>
</g>
<!-- n26 (0.70 &#45; 3)&#45;&gt;n25 (0.70 &#45; 2) -->
<g id="edge8" class="edge"><title>n26 (0.70 &#45; 3)&#45;&gt;n25 (0.70 &#45; 2)</title>
<path fill="none" stroke="black" d="M437.673,-421.463C428.637,-384.098 407.184,-295.391 396.345,-250.575"/>
<polygon fill="black" stroke="black" points="399.708,-249.589 393.955,-240.692 392.904,-251.235 399.708,-249.589"/>
</g>
<!-- PIATETSKY_SHAPIRO -->
<g id="node10" class="node"><title>PIATETSKY_SHAPIRO</title>
<ellipse fill="none" stroke="black" cx="307.84" cy="-58.6899" rx="100.983" ry="18"/>
<text text-anchor="middle" x="307.84" y="-54.9899" font-family="Times,serif" font-size="14.00">PIATETSKY_SHAPIRO</text>
</g>
<!-- n25 (0.70 &#45; 2)&#45;&gt;PIATETSKY_SHAPIRO -->
<g id="edge9" class="edge"><title>n25 (0.70 &#45; 2)&#45;&gt;PIATETSKY_SHAPIRO</title>
<path fill="none" stroke="black" d="M381.22,-204.647C366.923,-176.405 338.206,-119.676 321.246,-86.1716"/>
<polygon fill="black" stroke="black" points="324.231,-84.3197 316.592,-76.9785 317.986,-87.4812 324.231,-84.3197"/>
</g>
<!-- RECALL -->
<g id="node11" class="node"><title>RECALL</title>
<ellipse fill="none" stroke="black" cx="471.84" cy="-58.6899" rx="44.6926" ry="18"/>
<text text-anchor="middle" x="471.84" y="-54.9899" font-family="Times,serif" font-size="14.00">RECALL</text>
</g>
<!-- n25 (0.70 &#45; 2)&#45;&gt;RECALL -->
<g id="edge10" class="edge"><title>n25 (0.70 &#45; 2)&#45;&gt;RECALL</title>
<path fill="none" stroke="black" d="M398.461,-204.647C412.832,-176.257 441.775,-119.081 458.7,-85.6473"/>
<polygon fill="black" stroke="black" points="461.942,-86.9937 463.335,-76.4909 455.696,-83.8321 461.942,-86.9937"/>
</g>
<!-- JACCARD\nKAPPA\nJ_MEASURE\nTWO_WAY_SUPPORT_VARIATION\nFISHER_PVAL -->
<g id="node13" class="node"><title>JACCARD\nKAPPA\nJ_MEASURE\nTWO_WAY_SUPPORT_VARIATION\nFISHER_PVAL</title>
<ellipse fill="none" stroke="black" cx="634.84" cy="-222.676" rx="166.754" ry="58.8803"/>
<text text-anchor="middle" x="634.84" y="-248.976" font-family="Times,serif" font-size="14.00">JACCARD</text>
<text text-anchor="middle" x="634.84" y="-233.976" font-family="Times,serif" font-size="14.00">KAPPA</text>
<text text-anchor="middle" x="634.84" y="-218.976" font-family="Times,serif" font-size="14.00">J_MEASURE</text>
<text text-anchor="middle" x="634.84" y="-203.976" font-family="Times,serif" font-size="14.00">TWO_WAY_SUPPORT_VARIATION</text>
<text text-anchor="middle" x="634.84" y="-188.976" font-family="Times,serif" font-size="14.00">FISHER_PVAL</text>
</g>
<!-- n27 (0.66 &#45; 11)&#45;&gt;JACCARD\nKAPPA\nJ_MEASURE\nTWO_WAY_SUPPORT_VARIATION\nFISHER_PVAL -->
<g id="edge12" class="edge"><title>n27 (0.66 &#45; 11)&#45;&gt;JACCARD\nKAPPA\nJ_MEASURE\nTWO_WAY_SUPPORT_VARIATION\nFISHER_PVAL</title>
<path fill="none" stroke="black" d="M634.84,-421.463C634.84,-393.576 634.84,-337.089 634.84,-291.596"/>
<polygon fill="black" stroke="black" points="638.34,-291.48 634.84,-281.48 631.34,-291.48 638.34,-291.48"/>
</g>
<!-- n23 (0.78 &#45; 6) -->
<g id="node14" class="node"><title>n23 (0.78 &#45; 6)</title>
<ellipse fill="none" stroke="black" cx="879.84" cy="-222.676" rx="59.5901" ry="18"/>
<text text-anchor="middle" x="879.84" y="-218.976" font-family="Times,serif" font-size="14.00">n23 (0.78 &#45; 6)</text>
</g>
<!-- n27 (0.66 &#45; 11)&#45;&gt;n23 (0.78 &#45; 6) -->
<g id="edge13" class="edge"><title>n27 (0.66 &#45; 11)&#45;&gt;n23 (0.78 &#45; 6)</title>
<path fill="none" stroke="black" d="M655.376,-422.519C688.716,-396.049 756.374,-341.466 810.84,-291.973 826.586,-277.665 843.579,-260.862 856.762,-247.504"/>
<polygon fill="black" stroke="black" points="859.54,-249.67 864.045,-240.081 854.543,-244.768 859.54,-249.67"/>
</g>
<!-- KLOSGEN -->
<g id="node15" class="node"><title>KLOSGEN</title>
<ellipse fill="none" stroke="black" cx="789.84" cy="-58.6899" rx="51.9908" ry="18"/>
<text text-anchor="middle" x="789.84" y="-54.9899" font-family="Times,serif" font-size="14.00">KLOSGEN</text>
</g>
<!-- n23 (0.78 &#45; 6)&#45;&gt;KLOSGEN -->
<g id="edge14" class="edge"><title>n23 (0.78 &#45; 6)&#45;&gt;KLOSGEN</title>
<path fill="none" stroke="black" d="M870.379,-204.647C854.605,-176.257 822.838,-119.081 804.262,-85.6473"/>
<polygon fill="black" stroke="black" points="807.091,-83.5324 799.175,-76.4909 800.972,-86.9322 807.091,-83.5324"/>
</g>
<!-- COSINE\nGINI\nPHI\nCHI_SQUARE\nIMPLICATION_INDEX -->
<g id="node16" class="node"><title>COSINE\nGINI\nPHI\nCHI_SQUARE\nIMPLICATION_INDEX</title>
<ellipse fill="none" stroke="black" cx="968.84" cy="-58.6899" rx="108.789" ry="58.8803"/>
<text text-anchor="middle" x="968.84" y="-84.9899" font-family="Times,serif" font-size="14.00">COSINE</text>
<text text-anchor="middle" x="968.84" y="-69.9899" font-family="Times,serif" font-size="14.00">GINI</text>
<text text-anchor="middle" x="968.84" y="-54.9899" font-family="Times,serif" font-size="14.00">PHI</text>
<text text-anchor="middle" x="968.84" y="-39.9899" font-family="Times,serif" font-size="14.00">CHI_SQUARE</text>
<text text-anchor="middle" x="968.84" y="-24.9899" font-family="Times,serif" font-size="14.00">IMPLICATION_INDEX</text>
</g>
<!-- n23 (0.78 &#45; 6)&#45;&gt;COSINE\nGINI\nPHI\nCHI_SQUARE\nIMPLICATION_INDEX -->
<g id="edge15" class="edge"><title>n23 (0.78 &#45; 6)&#45;&gt;COSINE\nGINI\nPHI\nCHI_SQUARE\nIMPLICATION_INDEX</title>
<path fill="none" stroke="black" d="M889.197,-204.647C899.712,-185.507 917.417,-153.284 933.467,-124.072"/>
<polygon fill="black" stroke="black" points="936.637,-125.571 938.385,-115.121 930.502,-122.2 936.637,-125.571"/>
</g>
<!-- n31 (0.30 &#45; 9) -->
<g id="node18" class="node"><title>n31 (0.30 &#45; 9)</title>
<ellipse fill="none" stroke="black" cx="973.84" cy="-605.418" rx="59.5901" ry="18"/>
<text text-anchor="middle" x="973.84" y="-601.718" font-family="Times,serif" font-size="14.00">n31 (0.30 &#45; 9)</text>
</g>
<!-- n32 (0.19 &#45; 20)&#45;&gt;n31 (0.30 &#45; 9) -->
<g id="edge17" class="edge"><title>n32 (0.19 &#45; 20)&#45;&gt;n31 (0.30 &#45; 9)</title>
<path fill="none" stroke="black" d="M973.84,-659.115C973.84,-651.401 973.84,-642.131 973.84,-633.531"/>
<polygon fill="black" stroke="black" points="977.34,-633.523 973.84,-623.523 970.34,-633.523 977.34,-633.523"/>
</g>
<!-- n29 (0.50 &#45; 11) -->
<g id="node23" class="node"><title>n29 (0.50 &#45; 11)</title>
<ellipse fill="none" stroke="black" cx="1234.84" cy="-605.418" rx="64.189" ry="18"/>
<text text-anchor="middle" x="1234.84" y="-601.718" font-family="Times,serif" font-size="14.00">n29 (0.50 &#45; 11)</text>
</g>
<!-- n32 (0.19 &#45; 20)&#45;&gt;n29 (0.50 &#45; 11) -->
<g id="edge22" class="edge"><title>n32 (0.19 &#45; 20)&#45;&gt;n29 (0.50 &#45; 11)</title>
<path fill="none" stroke="black" d="M1018.71,-664.385C1063.48,-652.378 1132.31,-633.916 1180.23,-621.065"/>
<polygon fill="black" stroke="black" points="1181.37,-624.383 1190.12,-618.412 1179.56,-617.622 1181.37,-624.383"/>
</g>
<!-- ACCURACY -->
<g id="node19" class="node"><title>ACCURACY</title>
<ellipse fill="none" stroke="black" cx="904.84" cy="-439.696" rx="59.5901" ry="18"/>
<text text-anchor="middle" x="904.84" y="-435.996" font-family="Times,serif" font-size="14.00">ACCURACY</text>
</g>
<!-- n31 (0.30 &#45; 9)&#45;&gt;ACCURACY -->
<g id="edge18" class="edge"><title>n31 (0.30 &#45; 9)&#45;&gt;ACCURACY</title>
<path fill="none" stroke="black" d="M966.716,-587.514C954.682,-558.959 930.245,-500.976 915.946,-467.047"/>
<polygon fill="black" stroke="black" points="919.138,-465.609 912.029,-457.753 912.688,-468.328 919.138,-465.609"/>
</g>
<!-- n24 (0.70 &#45; 8) -->
<g id="node20" class="node"><title>n24 (0.70 &#45; 8)</title>
<ellipse fill="none" stroke="black" cx="1042.84" cy="-439.696" rx="59.5901" ry="18"/>
<text text-anchor="middle" x="1042.84" y="-435.996" font-family="Times,serif" font-size="14.00">n24 (0.70 &#45; 8)</text>
</g>
<!-- n31 (0.30 &#45; 9)&#45;&gt;n24 (0.70 &#45; 8) -->
<g id="edge19" class="edge"><title>n31 (0.30 &#45; 9)&#45;&gt;n24 (0.70 &#45; 8)</title>
<path fill="none" stroke="black" d="M980.965,-587.514C992.999,-558.959 1017.44,-500.976 1031.73,-467.047"/>
<polygon fill="black" stroke="black" points="1034.99,-468.328 1035.65,-457.753 1028.54,-465.609 1034.99,-468.328"/>
</g>
<!-- RELATIVE_RISK\nLIFT -->
<g id="node21" class="node"><title>RELATIVE_RISK\nLIFT</title>
<ellipse fill="none" stroke="black" cx="1042.84" cy="-222.676" rx="84.7059" ry="26.7407"/>
<text text-anchor="middle" x="1042.84" y="-226.476" font-family="Times,serif" font-size="14.00">RELATIVE_RISK</text>
<text text-anchor="middle" x="1042.84" y="-211.476" font-family="Times,serif" font-size="14.00">LIFT</text>
</g>
<!-- n24 (0.70 &#45; 8)&#45;&gt;RELATIVE_RISK\nLIFT -->
<g id="edge20" class="edge"><title>n24 (0.70 &#45; 8)&#45;&gt;RELATIVE_RISK\nLIFT</title>
<path fill="none" stroke="black" d="M1042.84,-421.463C1042.84,-386.535 1042.84,-306.741 1042.84,-259.876"/>
<polygon fill="black" stroke="black" points="1046.34,-259.841 1042.84,-249.841 1039.34,-259.841 1046.34,-259.841"/>
</g>
<!-- YULE_Y\nYULE_Q\nODDS_RATIO\nODD_MULTIPLIER\nZHANG\nBAYES -->
<g id="node22" class="node"><title>YULE_Y\nYULE_Q\nODDS_RATIO\nODD_MULTIPLIER\nZHANG\nBAYES</title>
<ellipse fill="none" stroke="black" cx="1240.84" cy="-222.676" rx="94.5053" ry="69.0935"/>
<text text-anchor="middle" x="1240.84" y="-256.476" font-family="Times,serif" font-size="14.00">YULE_Y</text>
<text text-anchor="middle" x="1240.84" y="-241.476" font-family="Times,serif" font-size="14.00">YULE_Q</text>
<text text-anchor="middle" x="1240.84" y="-226.476" font-family="Times,serif" font-size="14.00">ODDS_RATIO</text>
<text text-anchor="middle" x="1240.84" y="-211.476" font-family="Times,serif" font-size="14.00">ODD_MULTIPLIER</text>
<text text-anchor="middle" x="1240.84" y="-196.476" font-family="Times,serif" font-size="14.00">ZHANG</text>
<text text-anchor="middle" x="1240.84" y="-181.476" font-family="Times,serif" font-size="14.00">BAYES</text>
</g>
<!-- n24 (0.70 &#45; 8)&#45;&gt;YULE_Y\nYULE_Q\nODDS_RATIO\nODD_MULTIPLIER\nZHANG\nBAYES -->
<g id="edge21" class="edge"><title>n24 (0.70 &#45; 8)&#45;&gt;YULE_Y\nYULE_Q\nODDS_RATIO\nODD_MULTIPLIER\nZHANG\nBAYES</title>
<path fill="none" stroke="black" d="M1051.11,-421.764C1062.72,-398.97 1085.43,-357.835 1111.84,-327.973 1127.62,-310.134 1146.66,-292.937 1165.21,-277.83"/>
<polygon fill="black" stroke="black" points="1167.51,-280.474 1173.12,-271.488 1163.13,-275.012 1167.51,-280.474"/>
</g>
<!-- LEAST_CONTRADICTION -->
<g id="node24" class="node"><title>LEAST_CONTRADICTION</title>
<ellipse fill="none" stroke="black" cx="1234.84" cy="-439.696" rx="114.28" ry="18"/>
<text text-anchor="middle" x="1234.84" y="-435.996" font-family="Times,serif" font-size="14.00">LEAST_CONTRADICTION</text>
</g>
<!-- n29 (0.50 &#45; 11)&#45;&gt;LEAST_CONTRADICTION -->
<g id="edge23" class="edge"><title>n29 (0.50 &#45; 11)&#45;&gt;LEAST_CONTRADICTION</title>
<path fill="none" stroke="black" d="M1234.84,-587.207C1234.84,-558.907 1234.84,-502.307 1234.84,-468.338"/>
<polygon fill="black" stroke="black" points="1238.34,-468.169 1234.84,-458.169 1231.34,-468.169 1238.34,-468.169"/>
</g>
<!-- ONE_WAY_SUPPORT\nCONVICTION\nLOEVINGER\nSEBAG_SCHOENAUER\nCOUNTER_EXAMPLE_RATE\nCERTAINTY_FACTOR\nCENTERED_CONFIDENCE\nADDED_VALUE\nLEVERAGE\nCONFIDENCE -->
<g id="node25" class="node"><title>ONE_WAY_SUPPORT\nCONVICTION\nLOEVINGER\nSEBAG_SCHOENAUER\nCOUNTER_EXAMPLE_RATE\nCERTAINTY_FACTOR\nCENTERED_CONFIDENCE\nADDED_VALUE\nLEVERAGE\nCONFIDENCE</title>
<ellipse fill="none" stroke="black" cx="1504.84" cy="-439.696" rx="137.358" ry="111.946"/>
<text text-anchor="middle" x="1504.84" y="-503.496" font-family="Times,serif" font-size="14.00">ONE_WAY_SUPPORT</text>
<text text-anchor="middle" x="1504.84" y="-488.496" font-family="Times,serif" font-size="14.00">CONVICTION</text>
<text text-anchor="middle" x="1504.84" y="-473.496" font-family="Times,serif" font-size="14.00">LOEVINGER</text>
<text text-anchor="middle" x="1504.84" y="-458.496" font-family="Times,serif" font-size="14.00">SEBAG_SCHOENAUER</text>
<text text-anchor="middle" x="1504.84" y="-443.496" font-family="Times,serif" font-size="14.00">COUNTER_EXAMPLE_RATE</text>
<text text-anchor="middle" x="1504.84" y="-428.496" font-family="Times,serif" font-size="14.00">CERTAINTY_FACTOR</text>
<text text-anchor="middle" x="1504.84" y="-413.496" font-family="Times,serif" font-size="14.00">CENTERED_CONFIDENCE</text>
<text text-anchor="middle" x="1504.84" y="-398.496" font-family="Times,serif" font-size="14.00">ADDED_VALUE</text>
<text text-anchor="middle" x="1504.84" y="-383.496" font-family="Times,serif" font-size="14.00">LEVERAGE</text>
<text text-anchor="middle" x="1504.84" y="-368.496" font-family="Times,serif" font-size="14.00">CONFIDENCE</text>
</g>
<!-- n29 (0.50 &#45; 11)&#45;&gt;ONE_WAY_SUPPORT\nCONVICTION\nLOEVINGER\nSEBAG_SCHOENAUER\nCOUNTER_EXAMPLE_RATE\nCERTAINTY_FACTOR\nCENTERED_CONFIDENCE\nADDED_VALUE\nLEVERAGE\nCONFIDENCE -->
<g id="edge24" class="edge"><title>n29 (0.50 &#45; 11)&#45;&gt;ONE_WAY_SUPPORT\nCONVICTION\nLOEVINGER\nSEBAG_SCHOENAUER\nCOUNTER_EXAMPLE_RATE\nCERTAINTY_FACTOR\nCENTERED_CONFIDENCE\nADDED_VALUE\nLEVERAGE\nCONFIDENCE</title>
<path fill="none" stroke="black" d="M1272.83,-590.763C1297.73,-581.164 1330.6,-567.243 1357.84,-551.418 1371.68,-543.378 1385.74,-534.245 1399.39,-524.753"/>
<polygon fill="black" stroke="black" points="1401.68,-527.424 1407.83,-518.803 1397.64,-521.702 1401.68,-527.424"/>
</g>
</g>
</svg>
