<?xml version="1.0" encoding="UTF-8" standalone="no"?>
<!-- Generated by graphviz version 2.38.0 (20140413.2041)
 -->

<!-- Title: dendrogram Pages: 1 -->

<svg
   xmlns:dc="http://purl.org/dc/elements/1.1/"
   xmlns:cc="http://creativecommons.org/ns#"
   xmlns:rdf="http://www.w3.org/1999/02/22-rdf-syntax-ns#"
   xmlns:svg="http://www.w3.org/2000/svg"
   xmlns="http://www.w3.org/2000/svg"
   xmlns:sodipodi="http://sodipodi.sourceforge.net/DTD/sodipodi-0.dtd"
   xmlns:inkscape="http://www.inkscape.org/namespaces/inkscape"
   width="1837pt"
   height="736pt"
   viewBox="0.00 0.00 1837.02 736.47"
   id="svg8846"
   version="1.1"
   inkscape:version="0.48.5 r10040"
   sodipodi:docname="patterns_prods_per_client2-global-NDCG.svg">
  <metadata
     id="metadata9220">
    <rdf:RDF>
      <cc:Work
         rdf:about="">
        <dc:format>image/svg+xml</dc:format>
        <dc:type
           rdf:resource="http://purl.org/dc/dcmitype/StillImage" />
      </cc:Work>
    </rdf:RDF>
  </metadata>
  <defs
     id="defs9218" />
  <sodipodi:namedview
     pagecolor="#ffffff"
     bordercolor="#666666"
     borderopacity="1"
     objecttolerance="10"
     gridtolerance="10"
     guidetolerance="10"
     inkscape:pageopacity="0"
     inkscape:pageshadow="2"
     inkscape:window-width="1920"
     inkscape:window-height="1052"
     id="namedview9216"
     showgrid="false"
     inkscape:zoom="0.64699238"
     inkscape:cx="1148.125"
     inkscape:cy="460"
     inkscape:window-x="0"
     inkscape:window-y="0"
     inkscape:window-maximized="1"
     inkscape:current-layer="svg8846" />
  <polygon
     style="fill:#ffffff;stroke:none"
     id="polygon8851"
     points="1833.02,-732.465 1833.02,4 -4,4 -4,4 -4,-732.465 "
     transform="translate(4,732.465)" />
  <g
     class="node"
     id="node1"
     transform="translate(4,732.465)">
    <title
       id="title8854">n34 (-0.40 - 36)</title>
    <ellipse
       style="fill:none;stroke:#000000"
       sodipodi:ry="18"
       sodipodi:rx="67.688103"
       sodipodi:cy="-710.46503"
       sodipodi:cx="496.84"
       d="m 564.5281,-710.46503 c 0,9.94113 -30.305,18 -67.6881,18 -37.38311,0 -67.68811,-8.05887 -67.68811,-18 0,-9.94112 30.305,-18 67.68811,-18 37.3831,0 67.6881,8.05888 67.6881,18 z"
       id="ellipse8856"
       ry="18"
       rx="67.688103"
       cy="-710.46503"
       cx="496.84" />
    <text
       style="font-size:14px;text-anchor:middle;font-family:'Times,serif'"
       id="text8858"
       font-size="14.00"
       y="-706.76501"
       x="496.84">n34 (-0.40 - 36)</text>
  </g>
  <g
     class="node"
     id="node2"
     transform="translate(4,732.465)">
    <title
       id="title8861">n33 (-0.01 - 4)</title>
    <ellipse
       style="fill:none;stroke:#000000"
       sodipodi:ry="18"
       sodipodi:rx="63.088799"
       sodipodi:cy="-638.46503"
       sodipodi:cx="282.84"
       d="m 345.92879,-638.46503 c 0,9.94113 -28.24581,18 -63.08879,18 -34.84298,0 -63.0888,-8.05887 -63.0888,-18 0,-9.94112 28.24582,-18 63.0888,-18 34.84298,0 63.08879,8.05888 63.08879,18 z"
       id="ellipse8863"
       ry="18"
       rx="63.088799"
       cy="-638.46503"
       cx="282.84" />
    <text
       style="font-size:14px;text-anchor:middle;font-family:'Times,serif'"
       id="text8865"
       font-size="14.00"
       y="-634.76501"
       x="282.84">n33 (-0.01 - 4)</text>
  </g>
  <g
     class="edge"
     id="edge1"
     transform="translate(4,732.465)">
    <title
       id="title8868">n34 (-0.40 - 36)-&gt;n33 (-0.01 - 4)</title>
    <path
       style="fill:none;stroke:#000000"
       inkscape:connector-curvature="0"
       id="path8870"
       d="m 455.832,-696.051 c -35.205,11.515 -86.047,28.146 -123.507,40.399" />
    <polygon
       style="fill:#000000;stroke:#000000"
       id="polygon8872"
       points="331.04,-658.914 333.216,-652.261 333.216,-652.261 322.624,-652.478 " />
  </g>
  <g
     class="node"
     id="node9"
     transform="translate(4,732.465)">
    <title
       id="title8875">n32 (0.36 - 32)</title>
    <ellipse
       style="fill:none;stroke:#000000"
       sodipodi:ry="18"
       sodipodi:rx="64.189003"
       sodipodi:cy="-638.46503"
       sodipodi:cx="710.84003"
       d="m 775.02903,-638.46503 c 0,9.94113 -28.7384,18 -64.189,18 -35.45061,0 -64.18901,-8.05887 -64.18901,-18 0,-9.94112 28.7384,-18 64.18901,-18 35.4506,0 64.189,8.05888 64.189,18 z"
       id="ellipse8877"
       ry="18"
       rx="64.189003"
       cy="-638.46503"
       cx="710.84003" />
    <text
       style="font-size:14px;text-anchor:middle;font-family:'Times,serif'"
       id="text8879"
       font-size="14.00"
       y="-634.76501"
       x="710.84003">n32 (0.36 - 32)</text>
  </g>
  <g
     class="edge"
     id="edge8"
     transform="translate(4,732.465)">
    <title
       id="title8882">n34 (-0.40 - 36)-&gt;n32 (0.36 - 32)</title>
    <path
       style="fill:none;stroke:#000000"
       inkscape:connector-curvature="0"
       id="path8884"
       d="m 537.848,-696.051 c 35.094,11.479 85.726,28.041 123.152,40.283" />
    <polygon
       style="fill:#000000;stroke:#000000"
       id="polygon8886"
       points="660.103,-652.379 662.28,-659.032 662.28,-659.032 670.696,-652.596 " />
  </g>
  <ellipse
     cx="144.84"
     cy="-566.46503"
     rx="59.590099"
     ry="18"
     id="ellipse8891"
     d="m 204.4301,-566.46503 c 0,9.94113 -26.6794,18 -59.5901,18 -32.91071,0 -59.590103,-8.05887 -59.590103,-18 0,-9.94112 26.679393,-18 59.590103,-18 32.9107,0 59.5901,8.05888 59.5901,18 z"
     sodipodi:cx="144.84"
     sodipodi:cy="-566.46503"
     sodipodi:rx="59.590099"
     sodipodi:ry="18"
     style="fill:#ffaaaa;stroke:#000000"
     transform="translate(4,732.465)" />
  <text
     x="148.84"
     y="169.69998"
     font-size="14.00"
     id="text8893"
     style="font-size:14px;text-anchor:middle;font-family:'Times,serif'">ACCURACY</text>
  <g
     class="edge"
     id="edge2"
     transform="translate(4,732.465)">
    <title
       id="title8896">n33 (-0.01 - 4)-&gt;ACCURACY</title>
    <path
       style="fill:none;stroke:#000000"
       inkscape:connector-curvature="0"
       id="path8898"
       d="m 253.236,-622.448 c -20.512,10.404 -48.01,24.352 -70.176,35.596" />
    <polygon
       style="fill:#000000;stroke:#000000"
       id="polygon8900"
       points="181.257,-589.862 184.424,-583.619 184.424,-583.619 173.922,-582.217 " />
  </g>
  <g
     class="node"
     id="node4"
     transform="translate(4,732.465)">
    <title
       id="title8903">n29 (0.72 - 3)</title>
    <ellipse
       style="fill:none;stroke:#000000"
       sodipodi:ry="18"
       sodipodi:rx="59.590099"
       sodipodi:cy="-566.46503"
       sodipodi:cx="282.84"
       d="m 342.4301,-566.46503 c 0,9.94113 -26.6794,18 -59.5901,18 -32.91071,0 -59.5901,-8.05887 -59.5901,-18 0,-9.94112 26.67939,-18 59.5901,-18 32.9107,0 59.5901,8.05888 59.5901,18 z"
       id="ellipse8905"
       ry="18"
       rx="59.590099"
       cy="-566.46503"
       cx="282.84" />
    <text
       style="font-size:14px;text-anchor:middle;font-family:'Times,serif'"
       id="text8907"
       font-size="14.00"
       y="-562.76501"
       x="282.84">n29 (0.72 - 3)</text>
  </g>
  <g
     class="edge"
     id="edge3"
     transform="translate(4,732.465)">
    <title
       id="title8910">n33 (-0.01 - 4)-&gt;n29 (0.72 - 3)</title>
    <path
       style="fill:none;stroke:#000000"
       inkscape:connector-curvature="0"
       id="path8912"
       d="m 282.84,-620.162 c 0,7.714 0,16.984 0,25.584" />
    <polygon
       style="fill:#000000;stroke:#000000"
       id="polygon8914"
       points="279.34,-594.569 286.34,-594.569 286.34,-594.569 282.84,-584.569 " />
  </g>
  <ellipse
     cx="141.84"
     cy="-421.95499"
     rx="63.088799"
     ry="18"
     id="ellipse8919"
     d="m 204.92879,-421.95499 c 0,9.94113 -28.24581,18 -63.08879,18 -34.84298,0 -63.088802,-8.05887 -63.088802,-18 0,-9.94112 28.245822,-18 63.088802,-18 34.84298,0 63.08879,8.05888 63.08879,18 z"
     sodipodi:cx="141.84"
     sodipodi:cy="-421.95499"
     sodipodi:rx="63.088799"
     sodipodi:ry="18"
     style="fill:#d5d5d5;stroke:#000000"
     transform="translate(4,732.465)" />
  <text
     x="145.84"
     y="314.20999"
     font-size="14.00"
     id="text8921"
     style="font-size:14px;text-anchor:middle;font-family:'Times,serif'">SPECIFICITY</text>
  <g
     class="edge"
     id="edge4"
     transform="translate(4,732.465)">
    <title
       id="title8924">n29 (0.72 - 3)-&gt;SPECIFICITY</title>
    <path
       style="fill:none;stroke:#000000"
       inkscape:connector-curvature="0"
       id="path8926"
       d="m 259.672,-549.792 c -13.947,9.938 -31.684,23.493 -45.832,37.327 -20.434,19.981 -40.552,45.641 -54.305,64.36" />
    <polygon
       style="fill:#000000;stroke:#000000"
       id="polygon8928"
       points="156.538,-449.935 162.206,-445.827 162.206,-445.827 153.503,-439.784 " />
  </g>
  <g
     class="node"
     id="node6"
     transform="translate(4,732.465)">
    <title
       id="title8931">n25 (0.85 - 2)</title>
    <ellipse
       style="fill:none;stroke:#000000"
       sodipodi:ry="18"
       sodipodi:rx="59.590099"
       sodipodi:cy="-421.95499"
       sodipodi:cx="282.84"
       d="m 342.4301,-421.95499 c 0,9.94113 -26.6794,18 -59.5901,18 -32.91071,0 -59.5901,-8.05887 -59.5901,-18 0,-9.94112 26.67939,-18 59.5901,-18 32.9107,0 59.5901,8.05888 59.5901,18 z"
       id="ellipse8933"
       ry="18"
       rx="59.590099"
       cy="-421.95499"
       cx="282.84" />
    <text
       style="font-size:14px;text-anchor:middle;font-family:'Times,serif'"
       id="text8935"
       font-size="14.00"
       y="-418.255"
       x="282.84">n25 (0.85 - 2)</text>
  </g>
  <g
     class="edge"
     id="edge5"
     transform="translate(4,732.465)">
    <title
       id="title8938">n29 (0.72 - 3)-&gt;n25 (0.85 - 2)</title>
    <path
       style="fill:none;stroke:#000000"
       inkscape:connector-curvature="0"
       id="path8940"
       d="m 282.84,-548.275 c 0,24.288 0,68.907 0,97.828" />
    <polygon
       style="fill:#000000;stroke:#000000"
       id="polygon8942"
       points="279.34,-450.206 286.34,-450.206 286.34,-450.206 282.84,-440.206 " />
  </g>
  <ellipse
     cx="109.84"
     cy="-183.72301"
     rx="109.681"
     ry="18"
     id="ellipse8947"
     d="m 219.521,-183.72301 c 0,9.94113 -49.10586,18 -109.681,18 -60.575147,0 -109.68100342,-8.05887 -109.68100342,-18 0,-9.94112 49.10585642,-18 109.68100342,-18 60.57514,0 109.681,8.05888 109.681,18 z"
     sodipodi:cx="109.84"
     sodipodi:cy="-183.72301"
     sodipodi:rx="109.681"
     sodipodi:ry="18"
     style="fill:#aaaaff;stroke:#000000"
     transform="translate(4,732.465)" />
  <text
     x="113.84"
     y="552.44202"
     font-size="14.00"
     id="text8949"
     style="font-size:14px;text-anchor:middle;font-family:'Times,serif'">COLLECTIVE_STRENGH</text>
  <g
     class="edge"
     id="edge6"
     transform="translate(4,732.465)">
    <title
       id="title8952">n25 (0.85 - 2)-&gt;COLLECTIVE_STRENGH</title>
    <path
       style="fill:none;stroke:#000000"
       inkscape:connector-curvature="0"
       id="path8954"
       d="m 270.399,-403.966 c -30.039,41.018 -106.656,145.639 -142.081,194.012" />
    <polygon
       style="fill:#000000;stroke:#000000"
       id="polygon8956"
       points="125.486,-212.011 131.134,-207.876 131.134,-207.876 122.402,-201.876 " />
  </g>
  <ellipse
     cx="282.84"
     cy="-183.72301"
     rx="44.6926"
     ry="18"
     id="ellipse8961"
     d="m 327.5326,-183.72301 c 0,9.94113 -20.00956,18 -44.6926,18 -24.68305,0 -44.6926,-8.05887 -44.6926,-18 0,-9.94112 20.00955,-18 44.6926,-18 24.68304,0 44.6926,8.05888 44.6926,18 z"
     sodipodi:cx="282.84"
     sodipodi:cy="-183.72301"
     sodipodi:rx="44.6926"
     sodipodi:ry="18"
     style="fill:#aaaaff;stroke:#000000"
     transform="translate(4,732.465)" />
  <text
     x="286.84"
     y="552.44202"
     font-size="14.00"
     id="text8963"
     style="font-size:14px;text-anchor:middle;font-family:'Times,serif'">RECALL</text>
  <g
     class="edge"
     id="edge7"
     transform="translate(4,732.465)">
    <title
       id="title8966">n25 (0.85 - 2)-&gt;RECALL</title>
    <path
       style="fill:none;stroke:#000000"
       inkscape:connector-curvature="0"
       id="path8968"
       d="m 282.84,-403.585 c 0,40.714 0,142.555 0,191.61" />
    <polygon
       style="fill:#000000;stroke:#000000"
       id="polygon8970"
       points="279.34,-211.801 286.34,-211.8 286.34,-211.8 282.84,-201.8 " />
  </g>
  <g
     class="node"
     id="node10"
     transform="translate(4,732.465)">
    <title
       id="title8973">n31 (0.60 - 13)</title>
    <ellipse
       style="fill:none;stroke:#000000"
       sodipodi:ry="18"
       sodipodi:rx="64.189003"
       sodipodi:cy="-566.46503"
       sodipodi:cx="710.84003"
       d="m 775.02903,-566.46503 c 0,9.94113 -28.7384,18 -64.189,18 -35.45061,0 -64.18901,-8.05887 -64.18901,-18 0,-9.94112 28.7384,-18 64.18901,-18 35.4506,0 64.189,8.05888 64.189,18 z"
       id="ellipse8975"
       ry="18"
       rx="64.189003"
       cy="-566.46503"
       cx="710.84003" />
    <text
       style="font-size:14px;text-anchor:middle;font-family:'Times,serif'"
       id="text8977"
       font-size="14.00"
       y="-562.76501"
       x="710.84003">n31 (0.60 - 13)</text>
  </g>
  <g
     class="edge"
     id="edge9"
     transform="translate(4,732.465)">
    <title
       id="title8980">n32 (0.36 - 32)-&gt;n31 (0.60 - 13)</title>
    <path
       style="fill:none;stroke:#000000"
       inkscape:connector-curvature="0"
       id="path8982"
       d="m 710.84,-620.162 c 0,7.714 0,16.984 0,25.584" />
    <polygon
       style="fill:#000000;stroke:#000000"
       id="polygon8984"
       points="707.34,-594.569 714.34,-594.569 714.34,-594.569 710.84,-584.569 " />
  </g>
  <g
     class="node"
     id="node19"
     transform="translate(4,732.465)">
    <title
       id="title8987">n30 (0.69 - 19)</title>
    <ellipse
       style="fill:none;stroke:#000000"
       sodipodi:ry="18"
       sodipodi:rx="64.189003"
       sodipodi:cy="-566.46503"
       sodipodi:cx="1122.84"
       d="m 1187.029,-566.46503 c 0,9.94113 -28.7384,18 -64.189,18 -35.4506,0 -64.189,-8.05887 -64.189,-18 0,-9.94112 28.7384,-18 64.189,-18 35.4506,0 64.189,8.05888 64.189,18 z"
       id="ellipse8989"
       ry="18"
       rx="64.189003"
       cy="-566.46503"
       cx="1122.84" />
    <text
       style="font-size:14px;text-anchor:middle;font-family:'Times,serif'"
       id="text8991"
       font-size="14.00"
       y="-562.76501"
       x="1122.84">n30 (0.69 - 19)</text>
  </g>
  <g
     class="edge"
     id="edge18"
     transform="translate(4,732.465)">
    <title
       id="title8994">n32 (0.36 - 32)-&gt;n30 (0.69 - 19)</title>
    <path
       style="fill:none;stroke:#000000"
       inkscape:connector-curvature="0"
       id="path8996"
       d="m 764.28,-628.386 c 75.689,12.86 213.893,36.342 294.83,50.093" />
    <polygon
       style="fill:#000000;stroke:#000000"
       id="polygon8998"
       points="1058.72,-574.809 1059.9,-581.71 1059.9,-581.71 1069.17,-576.584 " />
  </g>
  <g
     class="node"
     id="node11"
     transform="translate(4,732.465)">
    <title
       id="title9001">n28 (0.73 - 4)</title>
    <ellipse
       style="fill:none;stroke:#000000"
       sodipodi:ry="18"
       sodipodi:rx="59.590099"
       sodipodi:cy="-421.95499"
       sodipodi:cx="592.84003"
       d="m 652.43013,-421.95499 c 0,9.94113 -26.6794,18 -59.5901,18 -32.91071,0 -59.5901,-8.05887 -59.5901,-18 0,-9.94112 26.67939,-18 59.5901,-18 32.9107,0 59.5901,8.05888 59.5901,18 z"
       id="ellipse9003"
       ry="18"
       rx="59.590099"
       cy="-421.95499"
       cx="592.84003" />
    <text
       style="font-size:14px;text-anchor:middle;font-family:'Times,serif'"
       id="text9005"
       font-size="14.00"
       y="-418.255"
       x="592.84003">n28 (0.73 - 4)</text>
  </g>
  <g
     class="edge"
     id="edge10"
     transform="translate(4,732.465)">
    <title
       id="title9008">n31 (0.60 - 13)-&gt;n28 (0.73 - 4)</title>
    <path
       style="fill:none;stroke:#000000"
       inkscape:connector-curvature="0"
       id="path9010"
       d="m 697.073,-548.839 c -20.584,24.86 -59.525,71.889 -83.543,100.897" />
    <polygon
       style="fill:#000000;stroke:#000000"
       id="polygon9012"
       points="610.567,-449.852 615.959,-445.388 615.959,-445.388 606.885,-439.918 " />
  </g>
  <g
     class="node"
     id="node16"
     transform="translate(4,732.465)">
    <title
       id="title9015">n27 (0.81 - 9)</title>
    <ellipse
       style="fill:none;stroke:#000000"
       sodipodi:ry="18"
       sodipodi:rx="59.590099"
       sodipodi:cy="-421.95499"
       sodipodi:cx="828.84003"
       d="m 888.43013,-421.95499 c 0,9.94113 -26.6794,18 -59.5901,18 -32.91071,0 -59.5901,-8.05887 -59.5901,-18 0,-9.94112 26.67939,-18 59.5901,-18 32.9107,0 59.5901,8.05888 59.5901,18 z"
       id="ellipse9017"
       ry="18"
       rx="59.590099"
       cy="-421.95499"
       cx="828.84003" />
    <text
       style="font-size:14px;text-anchor:middle;font-family:'Times,serif'"
       id="text9019"
       font-size="14.00"
       y="-418.255"
       x="828.84003">n27 (0.81 - 9)</text>
  </g>
  <g
     class="edge"
     id="edge15"
     transform="translate(4,732.465)">
    <title
       id="title9022">n31 (0.60 - 13)-&gt;n27 (0.81 - 9)</title>
    <path
       style="fill:none;stroke:#000000"
       inkscape:connector-curvature="0"
       id="path9024"
       d="m 724.607,-548.839 c 20.584,24.86 59.525,71.889 83.544,100.897" />
    <polygon
       style="fill:#000000;stroke:#000000"
       id="polygon9026"
       points="805.722,-445.388 811.113,-449.852 811.113,-449.852 814.795,-439.918 " />
  </g>
  <g
     class="node"
     id="node12"
     transform="translate(4,732.465)">
    <title
       id="title9029">n24 (0.88 - 2)</title>
    <ellipse
       style="fill:none;stroke:#000000"
       sodipodi:ry="18"
       sodipodi:rx="59.590099"
       sodipodi:cy="-183.72301"
       sodipodi:cx="405.84"
       d="m 465.4301,-183.72301 c 0,9.94113 -26.6794,18 -59.5901,18 -32.91071,0 -59.5901,-8.05887 -59.5901,-18 0,-9.94112 26.67939,-18 59.5901,-18 32.9107,0 59.5901,8.05888 59.5901,18 z"
       id="ellipse9031"
       ry="18"
       rx="59.590099"
       cy="-183.72301"
       cx="405.84" />
    <text
       style="font-size:14px;text-anchor:middle;font-family:'Times,serif'"
       id="text9033"
       font-size="14.00"
       y="-180.02299"
       x="405.84">n24 (0.88 - 2)</text>
  </g>
  <g
     class="edge"
     id="edge11"
     transform="translate(4,732.465)">
    <title
       id="title9036">n28 (0.73 - 4)-&gt;n24 (0.88 - 2)</title>
    <path
       style="fill:none;stroke:#000000"
       inkscape:connector-curvature="0"
       id="path9038"
       d="m 575.084,-404.519 c -24.381,23.056 -68.878,66.917 -101.244,109.073 -21.129,27.521 -41.415,61.941 -54.244,85.035" />
    <polygon
       style="fill:#000000;stroke:#000000"
       id="polygon9040"
       points="416.48,-212.008 422.616,-208.639 422.616,-208.639 414.735,-201.558 " />
  </g>
  <ellipse
     cx="592.84003"
     cy="-183.72301"
     rx="109.703"
     ry="26.7407"
     id="ellipse9045"
     d="m 702.54303,-183.72301 c 0,14.76848 -49.11571,26.7407 -109.703,26.7407 -60.5873,0 -109.70301,-11.97222 -109.70301,-26.7407 0,-14.76848 49.11571,-26.7407 109.70301,-26.7407 60.58729,0 109.703,11.97222 109.703,26.7407 z"
     sodipodi:cx="592.84003"
     sodipodi:cy="-183.72301"
     sodipodi:rx="109.703"
     sodipodi:ry="26.7407"
     style="fill:#d5d5d5;stroke:#000000"
     transform="translate(4,732.465)" />
  <text
     x="596.84003"
     y="544.94202"
     font-size="14.00"
     id="text9047"
     style="font-size:14px;text-anchor:middle;font-family:'Times,serif'">TWO_WAY_SUPPORT</text>
  <text
     x="596.84003"
     y="559.94202"
     font-size="14.00"
     id="text9049"
     style="font-size:14px;text-anchor:middle;font-family:'Times,serif'">PIATETSKY_SHAPIRO</text>
  <g
     class="edge"
     id="edge14"
     transform="translate(4,732.465)">
    <title
       id="title9052">n28 (0.73 - 4)-&gt;TWO_WAY_SUPPORT\nPIATETSKY_SHAPIRO</title>
    <path
       style="fill:none;stroke:#000000"
       inkscape:connector-curvature="0"
       id="path9054"
       d="m 592.84,-403.585 c 0,38.379 0,131.073 0,182.669" />
    <polygon
       style="fill:#000000;stroke:#000000"
       id="polygon9056"
       points="589.34,-220.868 596.34,-220.868 596.34,-220.868 592.84,-210.868 " />
  </g>
  <ellipse
     cx="351.84"
     cy="-18"
     rx="39.793499"
     ry="18"
     id="ellipse9061"
     d="m 391.6335,-18 c 0,9.9411255 -17.81616,18 -39.7935,18 -21.97735,0 -39.7935,-8.0588745 -39.7935,-18 0,-9.941125 17.81615,-18 39.7935,-18 21.97734,0 39.7935,8.058875 39.7935,18 z"
     sodipodi:cx="351.84"
     sodipodi:cy="-18"
     sodipodi:rx="39.793499"
     sodipodi:ry="18"
     style="fill:#aaffaa;stroke:#000000"
     transform="translate(4,732.465)" />
  <text
     x="355.84"
     y="718.16498"
     font-size="14.00"
     id="text9063"
     style="font-size:14px;text-anchor:middle;font-family:'Times,serif'">KAPPA</text>
  <g
     class="edge"
     id="edge12"
     transform="translate(4,732.465)">
    <title
       id="title9066">n24 (0.88 - 2)-&gt;KAPPA</title>
    <path
       style="fill:none;stroke:#000000"
       inkscape:connector-curvature="0"
       id="path9068"
       d="m 400.163,-165.511 c -9.423,28.571 -28.361,85.9876 -39.526,119.8389" />
    <polygon
       style="fill:#000000;stroke:#000000"
       id="polygon9070"
       points="357.25,-46.5743 363.897,-44.3816 363.897,-44.3816 357.441,-35.9812 " />
  </g>
  <ellipse
     cx="459.84"
     cy="-18"
     rx="50.8918"
     ry="18"
     id="ellipse9075"
     d="m 510.7318,-18 c 0,9.9411255 -22.78504,18 -50.8918,18 -28.10677,0 -50.8918,-8.0588745 -50.8918,-18 0,-9.941125 22.78503,-18 50.8918,-18 28.10676,0 50.8918,8.058875 50.8918,18 z"
     sodipodi:cx="459.84"
     sodipodi:cy="-18"
     sodipodi:rx="50.8918"
     sodipodi:ry="18"
     style="fill:#aaffaa;stroke:#000000"
     transform="translate(4,732.465)" />
  <text
     x="463.84"
     y="718.16498"
     font-size="14.00"
     id="text9077"
     style="font-size:14px;text-anchor:middle;font-family:'Times,serif'">JACCARD</text>
  <g
     class="edge"
     id="edge13"
     transform="translate(4,732.465)">
    <title
       id="title9080">n24 (0.88 - 2)-&gt;JACCARD</title>
    <path
       style="fill:none;stroke:#000000"
       inkscape:connector-curvature="0"
       id="path9082"
       d="m 411.517,-165.511 c 9.424,28.571 28.361,85.9876 39.526,119.8389" />
    <polygon
       style="fill:#000000;stroke:#000000"
       id="polygon9084"
       points="447.783,-44.3816 454.431,-46.5743 454.431,-46.5743 454.239,-35.9812 " />
  </g>
  <ellipse
     cx="828.84003"
     cy="-183.72301"
     rx="108.789"
     ry="37.4533"
     id="ellipse9089"
     d="m 937.62903,-183.72301 c 0,20.68489 -48.7065,37.4533 -108.789,37.4533 -60.08251,0 -108.789,-16.76841 -108.789,-37.4533 0,-20.68488 48.70649,-37.4533 108.789,-37.4533 60.0825,0 108.789,16.76842 108.789,37.4533 z"
     sodipodi:cx="828.84003"
     sodipodi:cy="-183.72301"
     sodipodi:rx="108.789"
     sodipodi:ry="37.4533"
     style="fill:#aaffaa;stroke:#000000"
     transform="translate(4,732.465)" />
  <text
     x="832.84003"
     y="537.44202"
     font-size="14.00"
     id="text9091"
     style="font-size:14px;text-anchor:middle;font-family:'Times,serif'">KLOSGEN</text>
  <text
     x="832.84003"
     y="552.44202"
     font-size="14.00"
     id="text9093"
     style="font-size:14px;text-anchor:middle;font-family:'Times,serif'">IMPLICATION_INDEX</text>
  <text
     x="832.84003"
     y="567.44202"
     font-size="14.00"
     id="text9095"
     style="font-size:14px;text-anchor:middle;font-family:'Times,serif'">GINI</text>
  <g
     class="edge"
     id="edge16"
     transform="translate(4,732.465)">
    <title
       id="title9098">n27 (0.81 - 9)-&gt;KLOSGEN\nIMPLICATION_INDEX\nGINI</title>
    <path
       style="fill:none;stroke:#000000"
       inkscape:connector-curvature="0"
       id="path9100"
       d="m 828.84,-403.585 c 0,35.862 0,119.148 0,172.014" />
    <polygon
       style="fill:#000000;stroke:#000000"
       id="polygon9102"
       points="825.34,-231.427 832.34,-231.427 832.34,-231.427 828.84,-221.427 " />
  </g>
  <ellipse
     cx="1122.84"
     cy="-183.72301"
     rx="166.754"
     ry="69.093498"
     id="ellipse9107"
     d="m 1289.594,-183.72301 c 0,38.15929 -74.6583,69.0935 -166.754,69.0935 -92.0957,0 -166.75403,-30.93421 -166.75403,-69.0935 0,-38.15928 74.65833,-69.0935 166.75403,-69.0935 92.0957,0 166.754,30.93422 166.754,69.0935 z"
     sodipodi:cx="1122.84"
     sodipodi:cy="-183.72301"
     sodipodi:rx="166.754"
     sodipodi:ry="69.093498"
     style="fill:#aaffaa;stroke:#000000"
     transform="translate(4,732.465)" />
  <text
     x="1126.84"
     y="514.94202"
     font-size="14.00"
     id="text9109"
     style="font-size:14px;text-anchor:middle;font-family:'Times,serif'">PHI</text>
  <text
     x="1126.84"
     y="529.94202"
     font-size="14.00"
     id="text9111"
     style="font-size:14px;text-anchor:middle;font-family:'Times,serif'">CHI_SQUARE</text>
  <text
     x="1126.84"
     y="544.94202"
     font-size="14.00"
     id="text9113"
     style="font-size:14px;text-anchor:middle;font-family:'Times,serif'">COSINE</text>
  <text
     x="1126.84"
     y="559.94202"
     font-size="14.00"
     id="text9115"
     style="font-size:14px;text-anchor:middle;font-family:'Times,serif'">J_MEASURE</text>
  <text
     x="1126.84"
     y="574.94202"
     font-size="14.00"
     id="text9117"
     style="font-size:14px;text-anchor:middle;font-family:'Times,serif'">TWO_WAY_SUPPORT_VARIATION</text>
  <text
     x="1126.84"
     y="589.94202"
     font-size="14.00"
     id="text9119"
     style="font-size:14px;text-anchor:middle;font-family:'Times,serif'">FISHER_PVAL</text>
  <g
     class="edge"
     id="edge17"
     transform="translate(4,732.465)">
    <title
       id="title9122">n27 (0.81 - 9)-&gt;PHI\nCHI_SQUARE\nCOSINE\nJ_MEASURE\nTWO_WAY_SUPPORT_VARIATION\nFISHER_PVAL</title>
    <path
       style="fill:none;stroke:#000000"
       inkscape:connector-curvature="0"
       id="path9124"
       d="m 849.048,-404.718 c 38.584,31.002 124.726,100.218 190.152,152.792" />
    <polygon
       style="fill:#000000;stroke:#000000"
       id="polygon9126"
       points="1037.09,-249.136 1041.47,-254.593 1041.47,-254.593 1047.08,-245.601 " />
  </g>
  <ellipse
     cx="1122.84"
     cy="-421.95499"
     rx="94.505302"
     ry="90.519302"
     id="ellipse9131"
     d="m 1217.3453,-421.95499 c 0,49.99243 -42.3115,90.51931 -94.5053,90.51931 -52.1939,0 -94.5053,-40.52688 -94.5053,-90.51931 0,-49.99243 42.3114,-90.5193 94.5053,-90.5193 52.1938,0 94.5053,40.52687 94.5053,90.5193 z"
     sodipodi:cx="1122.84"
     sodipodi:cy="-421.95499"
     sodipodi:rx="94.505302"
     sodipodi:ry="90.519302"
     style="fill:#ffffaa;stroke:#000000"
     transform="translate(4,732.465)" />
  <text
     x="1126.84"
     y="261.70999"
     font-size="14.00"
     id="text9133"
     style="font-size:14px;text-anchor:middle;font-family:'Times,serif'">RELATIVE_RISK</text>
  <text
     x="1126.84"
     y="276.70999"
     font-size="14.00"
     id="text9135"
     style="font-size:14px;text-anchor:middle;font-family:'Times,serif'">LIFT</text>
  <text
     x="1126.84"
     y="291.70999"
     font-size="14.00"
     id="text9137"
     style="font-size:14px;text-anchor:middle;font-family:'Times,serif'">YULE_Y</text>
  <text
     x="1126.84"
     y="306.70999"
     font-size="14.00"
     id="text9139"
     style="font-size:14px;text-anchor:middle;font-family:'Times,serif'">YULE_Q</text>
  <text
     x="1126.84"
     y="321.70999"
     font-size="14.00"
     id="text9141"
     style="font-size:14px;text-anchor:middle;font-family:'Times,serif'">ODDS_RATIO</text>
  <text
     x="1126.84"
     y="336.70999"
     font-size="14.00"
     id="text9143"
     style="font-size:14px;text-anchor:middle;font-family:'Times,serif'">ZHANG</text>
  <text
     x="1126.84"
     y="351.70999"
     font-size="14.00"
     id="text9145"
     style="font-size:14px;text-anchor:middle;font-family:'Times,serif'">ODD_MULTIPLIER</text>
  <text
     x="1126.84"
     y="366.70999"
     font-size="14.00"
     id="text9147"
     style="font-size:14px;text-anchor:middle;font-family:'Times,serif'">BAYES</text>
  <g
     class="edge"
     id="edge19"
     transform="translate(4,732.465)">
    <title
       id="title9150">n30 (0.69 - 19)-&gt;RELATIVE_RISK\nLIFT\nYULE_Y\nYULE_Q\nODDS_RATIO\nZHANG\nODD_MULTIPLIER\nBAYES</title>
    <path
       style="fill:none;stroke:#000000"
       inkscape:connector-curvature="0"
       id="path9152"
       d="m 1122.84,-548.275 c 0,7.033 0,15.77 0,25.338" />
    <polygon
       style="fill:#000000;stroke:#000000"
       id="polygon9154"
       points="1119.34,-522.703 1126.34,-522.703 1126.34,-522.703 1122.84,-512.703 " />
  </g>
  <g
     class="node"
     id="node21"
     transform="translate(4,732.465)">
    <title
       id="title9157">n26 (0.83 - 11)</title>
    <ellipse
       style="fill:none;stroke:#000000"
       sodipodi:ry="18"
       sodipodi:rx="64.189003"
       sodipodi:cy="-421.95499"
       sodipodi:cx="1421.84"
       d="m 1486.029,-421.95499 c 0,9.94113 -28.7384,18 -64.189,18 -35.4506,0 -64.189,-8.05887 -64.189,-18 0,-9.94112 28.7384,-18 64.189,-18 35.4506,0 64.189,8.05888 64.189,18 z"
       id="ellipse9159"
       ry="18"
       rx="64.189003"
       cy="-421.95499"
       cx="1421.84" />
    <text
       style="font-size:14px;text-anchor:middle;font-family:'Times,serif'"
       id="text9161"
       font-size="14.00"
       y="-418.255"
       x="1421.84">n26 (0.83 - 11)</text>
  </g>
  <g
     class="edge"
     id="edge20"
     transform="translate(4,732.465)">
    <title
       id="title9164">n30 (0.69 - 19)-&gt;n26 (0.83 - 11)</title>
    <path
       style="fill:none;stroke:#000000"
       inkscape:connector-curvature="0"
       id="path9166"
       d="m 1153.99,-550.617 c 54.52,25.985 167.17,79.673 227.54,108.451" />
    <polygon
       style="fill:#000000;stroke:#000000"
       id="polygon9168"
       points="1380.23,-438.913 1383.24,-445.232 1383.24,-445.232 1390.76,-437.77 " />
  </g>
  <ellipse
     cx="1421.84"
     cy="-183.72301"
     rx="114.28"
     ry="18"
     id="ellipse9173"
     d="m 1536.12,-183.72301 c 0,9.94113 -51.1649,18 -114.28,18 -63.1151,0 -114.28,-8.05887 -114.28,-18 0,-9.94112 51.1649,-18 114.28,-18 63.1151,0 114.28,8.05888 114.28,18 z"
     sodipodi:cx="1421.84"
     sodipodi:cy="-183.72301"
     sodipodi:rx="114.28"
     sodipodi:ry="18"
     style="fill:#ffaaaa;stroke:#000000"
     transform="translate(4,732.465)" />
  <text
     x="1425.84"
     y="552.44202"
     font-size="14.00"
     id="text9175"
     style="font-size:14px;text-anchor:middle;font-family:'Times,serif'">LEAST_CONTRADICTION</text>
  <g
     class="edge"
     id="edge21"
     transform="translate(4,732.465)">
    <title
       id="title9178">n26 (0.83 - 11)-&gt;LEAST_CONTRADICTION</title>
    <path
       style="fill:none;stroke:#000000"
       inkscape:connector-curvature="0"
       id="path9180"
       d="m 1421.84,-403.585 c 0,40.714 0,142.555 0,191.61" />
    <polygon
       style="fill:#000000;stroke:#000000"
       id="polygon9182"
       points="1418.34,-211.801 1425.34,-211.8 1425.34,-211.8 1421.84,-201.8 " />
  </g>
  <ellipse
     cx="1691.84"
     cy="-183.72301"
     rx="137.358"
     ry="111.946"
     id="ellipse9187"
     d="m 1829.198,-183.72301 c 0,61.82607 -61.4973,111.946002 -137.358,111.946002 -75.8608,0 -137.358,-50.119932 -137.358,-111.946002 0,-61.82607 61.4972,-111.946 137.358,-111.946 75.8607,0 137.358,50.11993 137.358,111.946 z"
     sodipodi:cx="1691.84"
     sodipodi:cy="-183.72301"
     sodipodi:rx="137.358"
     sodipodi:ry="111.946"
     style="fill:#ffffaa;stroke:#000000"
     transform="translate(4,732.465)" />
  <text
     x="1695.84"
     y="484.94202"
     font-size="14.00"
     id="text9189"
     style="font-size:14px;text-anchor:middle;font-family:'Times,serif'">ONE_WAY_SUPPORT</text>
  <text
     x="1695.84"
     y="499.94202"
     font-size="14.00"
     id="text9191"
     style="font-size:14px;text-anchor:middle;font-family:'Times,serif'">LEVERAGE</text>
  <text
     x="1695.84"
     y="514.94202"
     font-size="14.00"
     id="text9193"
     style="font-size:14px;text-anchor:middle;font-family:'Times,serif'">SEBAG_SCHOENAUER</text>
  <text
     x="1695.84"
     y="529.94202"
     font-size="14.00"
     id="text9195"
     style="font-size:14px;text-anchor:middle;font-family:'Times,serif'">COUNTER_EXAMPLE_RATE</text>
  <text
     x="1695.84"
     y="544.94202"
     font-size="14.00"
     id="text9197"
     style="font-size:14px;text-anchor:middle;font-family:'Times,serif'">CONFIDENCE</text>
  <text
     x="1695.84"
     y="559.94202"
     font-size="14.00"
     id="text9199"
     style="font-size:14px;text-anchor:middle;font-family:'Times,serif'">CENTERED_CONFIDENCE</text>
  <text
     x="1695.84"
     y="574.94202"
     font-size="14.00"
     id="text9201"
     style="font-size:14px;text-anchor:middle;font-family:'Times,serif'">ADDED_VALUE</text>
  <text
     x="1695.84"
     y="589.94202"
     font-size="14.00"
     id="text9203"
     style="font-size:14px;text-anchor:middle;font-family:'Times,serif'">LOEVINGER</text>
  <text
     x="1695.84"
     y="604.94202"
     font-size="14.00"
     id="text9205"
     style="font-size:14px;text-anchor:middle;font-family:'Times,serif'">CONVICTION</text>
  <text
     x="1695.84"
     y="619.94202"
     font-size="14.00"
     id="text9207"
     style="font-size:14px;text-anchor:middle;font-family:'Times,serif'">CERTAINTY_FACTOR</text>
  <g
     class="edge"
     id="edge22"
     transform="translate(4,732.465)">
    <title
       id="title9210">n26 (0.83 - 11)-&gt;ONE_WAY_SUPPORT\nLEVERAGE\nSEBAG_SCHOENAUER\nCOUNTER_EXAMPLE_RATE\nCONFIDENCE\nCENTERED_CONFIDENCE\nADDED_VALUE\nLOEVINGER\nCONVICTION\nCERTAINTY_FACTOR</title>
    <path
       style="fill:none;stroke:#000000"
       inkscape:connector-curvature="0"
       id="path9212"
       d="m 1440.4,-404.718 c 30.89,27.03 94.99,83.109 150.73,131.879" />
    <polygon
       style="fill:#000000;stroke:#000000"
       id="polygon9214"
       points="1589.1,-269.96 1593.71,-275.228 1593.71,-275.228 1598.93,-266.009 " />
  </g>
</svg>
