<?xml version="1.0" encoding="UTF-8" standalone="no"?>
<!DOCTYPE svg PUBLIC "-//W3C//DTD SVG 1.1//EN"
 "http://www.w3.org/Graphics/SVG/1.1/DTD/svg11.dtd">
<!-- Generated by graphviz version 2.38.0 (20140413.2041)
 -->
<!-- Title: dendrogram Pages: 1 -->
<svg width="1520pt" height="893pt"
 viewBox="0.00 0.00 1520.02 893.32" xmlns="http://www.w3.org/2000/svg" xmlns:xlink="http://www.w3.org/1999/xlink">
<g id="graph0" class="graph" transform="scale(1 1) rotate(0) translate(4 889.318)">
<title>dendrogram</title>
<polygon fill="white" stroke="none" points="-4,4 -4,-889.318 1516.02,-889.318 1516.02,4 -4,4"/>
<!-- n34 (0.15 &#45; 36) -->
<g id="node1" class="node"><title>n34 (0.15 &#45; 36)</title>
<ellipse fill="none" stroke="black" cx="589.84" cy="-867.318" rx="64.189" ry="18"/>
<text text-anchor="middle" x="589.84" y="-863.618" font-family="Times,serif" font-size="14.00">n34 (0.15 &#45; 36)</text>
</g>
<!-- n32 (0.46 &#45; 5) -->
<g id="node2" class="node"><title>n32 (0.46 &#45; 5)</title>
<ellipse fill="none" stroke="black" cx="474.84" cy="-795.318" rx="59.5901" ry="18"/>
<text text-anchor="middle" x="474.84" y="-791.618" font-family="Times,serif" font-size="14.00">n32 (0.46 &#45; 5)</text>
</g>
<!-- n34 (0.15 &#45; 36)&#45;&gt;n32 (0.46 &#45; 5) -->
<g id="edge1" class="edge"><title>n34 (0.15 &#45; 36)&#45;&gt;n32 (0.46 &#45; 5)</title>
<path fill="none" stroke="black" d="M564.318,-850.783C548.089,-840.904 526.878,-827.993 509.18,-817.221"/>
<polygon fill="black" stroke="black" points="510.653,-814.02 500.291,-811.81 507.013,-819.999 510.653,-814.02"/>
</g>
<!-- n33 (0.39 &#45; 31) -->
<g id="node11" class="node"><title>n33 (0.39 &#45; 31)</title>
<ellipse fill="none" stroke="black" cx="796.84" cy="-795.318" rx="64.189" ry="18"/>
<text text-anchor="middle" x="796.84" y="-791.618" font-family="Times,serif" font-size="14.00">n33 (0.39 &#45; 31)</text>
</g>
<!-- n34 (0.15 &#45; 36)&#45;&gt;n33 (0.39 &#45; 31) -->
<g id="edge10" class="edge"><title>n34 (0.15 &#45; 36)&#45;&gt;n33 (0.39 &#45; 31)</title>
<path fill="none" stroke="black" d="M629.263,-852.987C662.93,-841.601 711.512,-825.173 747.707,-812.933"/>
<polygon fill="black" stroke="black" points="749.213,-816.119 757.565,-809.599 746.97,-809.487 749.213,-816.119"/>
</g>
<!-- n26 (0.84 &#45; 2) -->
<g id="node3" class="node"><title>n26 (0.84 &#45; 2)</title>
<ellipse fill="none" stroke="black" cx="282.84" cy="-723.318" rx="59.5901" ry="18"/>
<text text-anchor="middle" x="282.84" y="-719.618" font-family="Times,serif" font-size="14.00">n26 (0.84 &#45; 2)</text>
</g>
<!-- n32 (0.46 &#45; 5)&#45;&gt;n26 (0.84 &#45; 2) -->
<g id="edge2" class="edge"><title>n32 (0.46 &#45; 5)&#45;&gt;n26 (0.84 &#45; 2)</title>
<path fill="none" stroke="black" d="M438.275,-780.987C407.18,-769.65 362.37,-753.313 328.844,-741.09"/>
<polygon fill="black" stroke="black" points="329.864,-737.737 319.27,-737.599 327.466,-744.313 329.864,-737.737"/>
</g>
<!-- n31 (0.69 &#45; 3) -->
<g id="node6" class="node"><title>n31 (0.69 &#45; 3)</title>
<ellipse fill="none" stroke="black" cx="474.84" cy="-723.318" rx="59.5901" ry="18"/>
<text text-anchor="middle" x="474.84" y="-719.618" font-family="Times,serif" font-size="14.00">n31 (0.69 &#45; 3)</text>
</g>
<!-- n32 (0.46 &#45; 5)&#45;&gt;n31 (0.69 &#45; 3) -->
<g id="edge5" class="edge"><title>n32 (0.46 &#45; 5)&#45;&gt;n31 (0.69 &#45; 3)</title>
<path fill="none" stroke="black" d="M474.84,-777.015C474.84,-769.301 474.84,-760.03 474.84,-751.43"/>
<polygon fill="black" stroke="black" points="478.34,-751.422 474.84,-741.422 471.34,-751.422 478.34,-751.422"/>
</g>
<!-- COLLECTIVE_STRENGH -->
<g id="node4" class="node"><title>COLLECTIVE_STRENGH</title>
<ellipse fill="none" stroke="black" cx="109.84" cy="-472.742" rx="109.681" ry="18"/>
<text text-anchor="middle" x="109.84" y="-469.042" font-family="Times,serif" font-size="14.00">COLLECTIVE_STRENGH</text>
</g>
<!-- n26 (0.84 &#45; 2)&#45;&gt;COLLECTIVE_STRENGH -->
<g id="edge3" class="edge"><title>n26 (0.84 &#45; 2)&#45;&gt;COLLECTIVE_STRENGH</title>
<path fill="none" stroke="black" d="M264.186,-706.161C253.213,-696.154 239.454,-682.696 228.84,-669.318 184.206,-613.058 143.296,-538.786 123.089,-499.955"/>
<polygon fill="black" stroke="black" points="126.102,-498.162 118.408,-490.879 119.881,-501.371 126.102,-498.162"/>
</g>
<!-- RECALL -->
<g id="node5" class="node"><title>RECALL</title>
<ellipse fill="none" stroke="black" cx="282.84" cy="-472.742" rx="44.6926" ry="18"/>
<text text-anchor="middle" x="282.84" y="-469.042" font-family="Times,serif" font-size="14.00">RECALL</text>
</g>
<!-- n26 (0.84 &#45; 2)&#45;&gt;RECALL -->
<g id="edge4" class="edge"><title>n26 (0.84 &#45; 2)&#45;&gt;RECALL</title>
<path fill="none" stroke="black" d="M282.84,-705.232C282.84,-662.837 282.84,-552.53 282.84,-501.005"/>
<polygon fill="black" stroke="black" points="286.34,-500.947 282.84,-490.947 279.34,-500.947 286.34,-500.947"/>
</g>
<!-- KLOSGEN -->
<g id="node7" class="node"><title>KLOSGEN</title>
<ellipse fill="none" stroke="black" cx="397.84" cy="-472.742" rx="51.9908" ry="18"/>
<text text-anchor="middle" x="397.84" y="-469.042" font-family="Times,serif" font-size="14.00">KLOSGEN</text>
</g>
<!-- n31 (0.69 &#45; 3)&#45;&gt;KLOSGEN -->
<g id="edge6" class="edge"><title>n31 (0.69 &#45; 3)&#45;&gt;KLOSGEN</title>
<path fill="none" stroke="black" d="M469.548,-705.232C456.388,-662.748 422.103,-552.069 406.185,-500.682"/>
<polygon fill="black" stroke="black" points="409.472,-499.464 403.17,-490.947 402.786,-501.535 409.472,-499.464"/>
</g>
<!-- n24 (0.87 &#45; 2) -->
<g id="node8" class="node"><title>n24 (0.87 &#45; 2)</title>
<ellipse fill="none" stroke="black" cx="527.84" cy="-472.742" rx="59.5901" ry="18"/>
<text text-anchor="middle" x="527.84" y="-469.042" font-family="Times,serif" font-size="14.00">n24 (0.87 &#45; 2)</text>
</g>
<!-- n31 (0.69 &#45; 3)&#45;&gt;n24 (0.87 &#45; 2) -->
<g id="edge7" class="edge"><title>n31 (0.69 &#45; 3)&#45;&gt;n24 (0.87 &#45; 2)</title>
<path fill="none" stroke="black" d="M478.483,-705.232C487.522,-662.837 511.041,-552.53 522.028,-501.005"/>
<polygon fill="black" stroke="black" points="525.51,-501.457 524.172,-490.947 518.663,-499.998 525.51,-501.457"/>
</g>
<!-- PIATETSKY_SHAPIRO -->
<g id="node9" class="node"><title>PIATETSKY_SHAPIRO</title>
<ellipse fill="none" stroke="black" cx="436.84" cy="-222.167" rx="100.983" ry="18"/>
<text text-anchor="middle" x="436.84" y="-218.467" font-family="Times,serif" font-size="14.00">PIATETSKY_SHAPIRO</text>
</g>
<!-- n24 (0.87 &#45; 2)&#45;&gt;PIATETSKY_SHAPIRO -->
<g id="edge8" class="edge"><title>n24 (0.87 &#45; 2)&#45;&gt;PIATETSKY_SHAPIRO</title>
<path fill="none" stroke="black" d="M522.15,-454.624C510.722,-420.476 483.923,-341.551 458.84,-276.167 455.506,-267.475 451.675,-258.068 448.154,-249.625"/>
<polygon fill="black" stroke="black" points="451.316,-248.117 444.211,-240.258 444.865,-250.832 451.316,-248.117"/>
</g>
<!-- SPECIFICITY -->
<g id="node10" class="node"><title>SPECIFICITY</title>
<ellipse fill="none" stroke="black" cx="618.84" cy="-222.167" rx="63.0888" ry="18"/>
<text text-anchor="middle" x="618.84" y="-218.467" font-family="Times,serif" font-size="14.00">SPECIFICITY</text>
</g>
<!-- n24 (0.87 &#45; 2)&#45;&gt;SPECIFICITY -->
<g id="edge9" class="edge"><title>n24 (0.87 &#45; 2)&#45;&gt;SPECIFICITY</title>
<path fill="none" stroke="black" d="M533.531,-454.624C544.959,-420.476 571.757,-341.551 596.84,-276.167 600.174,-267.475 604.006,-258.068 607.527,-249.625"/>
<polygon fill="black" stroke="black" points="610.816,-250.832 611.469,-240.258 604.364,-248.117 610.816,-250.832"/>
</g>
<!-- n30 (0.71 &#45; 11) -->
<g id="node12" class="node"><title>n30 (0.71 &#45; 11)</title>
<ellipse fill="none" stroke="black" cx="796.84" cy="-723.318" rx="64.189" ry="18"/>
<text text-anchor="middle" x="796.84" y="-719.618" font-family="Times,serif" font-size="14.00">n30 (0.71 &#45; 11)</text>
</g>
<!-- n33 (0.39 &#45; 31)&#45;&gt;n30 (0.71 &#45; 11) -->
<g id="edge11" class="edge"><title>n33 (0.39 &#45; 31)&#45;&gt;n30 (0.71 &#45; 11)</title>
<path fill="none" stroke="black" d="M796.84,-777.015C796.84,-769.301 796.84,-760.03 796.84,-751.43"/>
<polygon fill="black" stroke="black" points="800.34,-751.422 796.84,-741.422 793.34,-751.422 800.34,-751.422"/>
</g>
<!-- n27 (0.83 &#45; 20) -->
<g id="node23" class="node"><title>n27 (0.83 &#45; 20)</title>
<ellipse fill="none" stroke="black" cx="1094.84" cy="-723.318" rx="64.189" ry="18"/>
<text text-anchor="middle" x="1094.84" y="-719.618" font-family="Times,serif" font-size="14.00">n27 (0.83 &#45; 20)</text>
</g>
<!-- n33 (0.39 &#45; 31)&#45;&gt;n27 (0.83 &#45; 20) -->
<g id="edge22" class="edge"><title>n33 (0.39 &#45; 31)&#45;&gt;n27 (0.83 &#45; 20)</title>
<path fill="none" stroke="black" d="M844.389,-783.149C896.784,-770.841 981.054,-751.046 1037.18,-737.863"/>
<polygon fill="black" stroke="black" points="1038.03,-741.257 1046.97,-735.563 1036.43,-734.443 1038.03,-741.257"/>
</g>
<!-- TWO_WAY_SUPPORT -->
<g id="node13" class="node"><title>TWO_WAY_SUPPORT</title>
<ellipse fill="none" stroke="black" cx="705.84" cy="-472.742" rx="100.182" ry="18"/>
<text text-anchor="middle" x="705.84" y="-469.042" font-family="Times,serif" font-size="14.00">TWO_WAY_SUPPORT</text>
</g>
<!-- n30 (0.71 &#45; 11)&#45;&gt;TWO_WAY_SUPPORT -->
<g id="edge12" class="edge"><title>n30 (0.71 &#45; 11)&#45;&gt;TWO_WAY_SUPPORT</title>
<path fill="none" stroke="black" d="M790.585,-705.232C775,-662.66 734.345,-551.606 715.585,-500.361"/>
<polygon fill="black" stroke="black" points="718.863,-499.135 712.139,-490.947 712.29,-501.541 718.863,-499.135"/>
</g>
<!-- n29 (0.80 &#45; 10) -->
<g id="node14" class="node"><title>n29 (0.80 &#45; 10)</title>
<ellipse fill="none" stroke="black" cx="887.84" cy="-472.742" rx="64.189" ry="18"/>
<text text-anchor="middle" x="887.84" y="-469.042" font-family="Times,serif" font-size="14.00">n29 (0.80 &#45; 10)</text>
</g>
<!-- n30 (0.71 &#45; 11)&#45;&gt;n29 (0.80 &#45; 10) -->
<g id="edge13" class="edge"><title>n30 (0.71 &#45; 11)&#45;&gt;n29 (0.80 &#45; 10)</title>
<path fill="none" stroke="black" d="M803.095,-705.232C818.68,-662.66 859.335,-551.606 878.096,-500.361"/>
<polygon fill="black" stroke="black" points="881.391,-501.541 881.542,-490.947 874.817,-499.135 881.391,-501.541"/>
</g>
<!-- n25 (0.85 &#45; 5) -->
<g id="node15" class="node"><title>n25 (0.85 &#45; 5)</title>
<ellipse fill="none" stroke="black" cx="823.84" cy="-222.167" rx="59.5901" ry="18"/>
<text text-anchor="middle" x="823.84" y="-218.467" font-family="Times,serif" font-size="14.00">n25 (0.85 &#45; 5)</text>
</g>
<!-- n29 (0.80 &#45; 10)&#45;&gt;n25 (0.85 &#45; 5) -->
<g id="edge14" class="edge"><title>n29 (0.80 &#45; 10)&#45;&gt;n25 (0.85 &#45; 5)</title>
<path fill="none" stroke="black" d="M883.441,-454.657C872.503,-412.173 844.007,-301.493 830.776,-250.106"/>
<polygon fill="black" stroke="black" points="834.153,-249.183 828.27,-240.372 827.374,-250.929 834.153,-249.183"/>
</g>
<!-- n28 (0.82 &#45; 5) -->
<g id="node20" class="node"><title>n28 (0.82 &#45; 5)</title>
<ellipse fill="none" stroke="black" cx="1050.84" cy="-222.167" rx="59.5901" ry="18"/>
<text text-anchor="middle" x="1050.84" y="-218.467" font-family="Times,serif" font-size="14.00">n28 (0.82 &#45; 5)</text>
</g>
<!-- n29 (0.80 &#45; 10)&#45;&gt;n28 (0.82 &#45; 5) -->
<g id="edge19" class="edge"><title>n29 (0.80 &#45; 10)&#45;&gt;n28 (0.82 &#45; 5)</title>
<path fill="none" stroke="black" d="M890.403,-454.656C896.648,-418.121 915.66,-331.25 961.84,-276.167 973.913,-261.766 990.958,-250.292 1006.9,-241.753"/>
<polygon fill="black" stroke="black" points="1008.79,-244.719 1016.12,-237.065 1005.62,-238.479 1008.79,-244.719"/>
</g>
<!-- n23 (0.90 &#45; 2) -->
<g id="node16" class="node"><title>n23 (0.90 &#45; 2)</title>
<ellipse fill="none" stroke="black" cx="578.84" cy="-120.083" rx="59.5901" ry="18"/>
<text text-anchor="middle" x="578.84" y="-116.383" font-family="Times,serif" font-size="14.00">n23 (0.90 &#45; 2)</text>
</g>
<!-- n25 (0.85 &#45; 5)&#45;&gt;n23 (0.90 &#45; 2) -->
<g id="edge15" class="edge"><title>n25 (0.85 &#45; 5)&#45;&gt;n23 (0.90 &#45; 2)</title>
<path fill="none" stroke="black" d="M776.441,-211.074C740.159,-202.366 689.448,-188.042 647.84,-168.167 633.73,-161.426 619.265,-152.011 607.247,-143.37"/>
<polygon fill="black" stroke="black" points="609.094,-140.383 598.969,-137.264 604.939,-146.016 609.094,-140.383"/>
</g>
<!-- J_MEASURE\nTWO_WAY_SUPPORT_VARIATION\nFISHER_PVAL -->
<g id="node19" class="node"><title>J_MEASURE\nTWO_WAY_SUPPORT_VARIATION\nFISHER_PVAL</title>
<ellipse fill="none" stroke="black" cx="823.84" cy="-120.083" rx="166.754" ry="37.4533"/>
<text text-anchor="middle" x="823.84" y="-131.383" font-family="Times,serif" font-size="14.00">J_MEASURE</text>
<text text-anchor="middle" x="823.84" y="-116.383" font-family="Times,serif" font-size="14.00">TWO_WAY_SUPPORT_VARIATION</text>
<text text-anchor="middle" x="823.84" y="-101.383" font-family="Times,serif" font-size="14.00">FISHER_PVAL</text>
</g>
<!-- n25 (0.85 &#45; 5)&#45;&gt;J_MEASURE\nTWO_WAY_SUPPORT_VARIATION\nFISHER_PVAL -->
<g id="edge18" class="edge"><title>n25 (0.85 &#45; 5)&#45;&gt;J_MEASURE\nTWO_WAY_SUPPORT_VARIATION\nFISHER_PVAL</title>
<path fill="none" stroke="black" d="M823.84,-203.733C823.84,-193.746 823.84,-180.69 823.84,-167.913"/>
<polygon fill="black" stroke="black" points="827.34,-167.791 823.84,-157.791 820.34,-167.791 827.34,-167.791"/>
</g>
<!-- JACCARD -->
<g id="node17" class="node"><title>JACCARD</title>
<ellipse fill="none" stroke="black" cx="524.84" cy="-18" rx="50.8918" ry="18"/>
<text text-anchor="middle" x="524.84" y="-14.3" font-family="Times,serif" font-size="14.00">JACCARD</text>
</g>
<!-- n23 (0.90 &#45; 2)&#45;&gt;JACCARD -->
<g id="edge16" class="edge"><title>n23 (0.90 &#45; 2)&#45;&gt;JACCARD</title>
<path fill="none" stroke="black" d="M569.68,-102.106C561.173,-86.3383 548.389,-62.6444 538.645,-44.5853"/>
<polygon fill="black" stroke="black" points="541.694,-42.8658 533.865,-35.727 535.534,-46.1897 541.694,-42.8658"/>
</g>
<!-- KAPPA -->
<g id="node18" class="node"><title>KAPPA</title>
<ellipse fill="none" stroke="black" cx="632.84" cy="-18" rx="39.7935" ry="18"/>
<text text-anchor="middle" x="632.84" y="-14.3" font-family="Times,serif" font-size="14.00">KAPPA</text>
</g>
<!-- n23 (0.90 &#45; 2)&#45;&gt;KAPPA -->
<g id="edge17" class="edge"><title>n23 (0.90 &#45; 2)&#45;&gt;KAPPA</title>
<path fill="none" stroke="black" d="M588.001,-102.106C596.508,-86.3383 609.292,-62.6444 619.036,-44.5853"/>
<polygon fill="black" stroke="black" points="622.147,-46.1897 623.815,-35.727 615.986,-42.8658 622.147,-46.1897"/>
</g>
<!-- COSINE -->
<g id="node21" class="node"><title>COSINE</title>
<ellipse fill="none" stroke="black" cx="1050.84" cy="-120.083" rx="42.4939" ry="18"/>
<text text-anchor="middle" x="1050.84" y="-116.383" font-family="Times,serif" font-size="14.00">COSINE</text>
</g>
<!-- n28 (0.82 &#45; 5)&#45;&gt;COSINE -->
<g id="edge20" class="edge"><title>n28 (0.82 &#45; 5)&#45;&gt;COSINE</title>
<path fill="none" stroke="black" d="M1050.84,-203.733C1050.84,-188.521 1050.84,-166.188 1050.84,-148.571"/>
<polygon fill="black" stroke="black" points="1054.34,-148.317 1050.84,-138.317 1047.34,-148.317 1054.34,-148.317"/>
</g>
<!-- IMPLICATION_INDEX\nPHI\nGINI\nCHI_SQUARE -->
<g id="node22" class="node"><title>IMPLICATION_INDEX\nPHI\nGINI\nCHI_SQUARE</title>
<ellipse fill="none" stroke="black" cx="1219.84" cy="-120.083" rx="108.789" ry="48.1667"/>
<text text-anchor="middle" x="1219.84" y="-138.883" font-family="Times,serif" font-size="14.00">IMPLICATION_INDEX</text>
<text text-anchor="middle" x="1219.84" y="-123.883" font-family="Times,serif" font-size="14.00">PHI</text>
<text text-anchor="middle" x="1219.84" y="-108.883" font-family="Times,serif" font-size="14.00">GINI</text>
<text text-anchor="middle" x="1219.84" y="-93.8833" font-family="Times,serif" font-size="14.00">CHI_SQUARE</text>
</g>
<!-- n28 (0.82 &#45; 5)&#45;&gt;IMPLICATION_INDEX\nPHI\nGINI\nCHI_SQUARE -->
<g id="edge21" class="edge"><title>n28 (0.82 &#45; 5)&#45;&gt;IMPLICATION_INDEX\nPHI\nGINI\nCHI_SQUARE</title>
<path fill="none" stroke="black" d="M1076.88,-205.748C1095.68,-194.614 1122.05,-178.994 1147.04,-164.198"/>
<polygon fill="black" stroke="black" points="1148.98,-167.115 1155.8,-159.008 1145.41,-161.092 1148.98,-167.115"/>
</g>
<!-- LEAST_CONTRADICTION\nACCURACY -->
<g id="node24" class="node"><title>LEAST_CONTRADICTION\nACCURACY</title>
<ellipse fill="none" stroke="black" cx="1094.84" cy="-472.742" rx="124.402" ry="26.7407"/>
<text text-anchor="middle" x="1094.84" y="-476.542" font-family="Times,serif" font-size="14.00">LEAST_CONTRADICTION</text>
<text text-anchor="middle" x="1094.84" y="-461.542" font-family="Times,serif" font-size="14.00">ACCURACY</text>
</g>
<!-- n27 (0.83 &#45; 20)&#45;&gt;LEAST_CONTRADICTION\nACCURACY -->
<g id="edge23" class="edge"><title>n27 (0.83 &#45; 20)&#45;&gt;LEAST_CONTRADICTION\nACCURACY</title>
<path fill="none" stroke="black" d="M1094.84,-705.232C1094.84,-665.128 1094.84,-564.252 1094.84,-509.851"/>
<polygon fill="black" stroke="black" points="1098.34,-509.622 1094.84,-499.622 1091.34,-509.623 1098.34,-509.622"/>
</g>
<!-- RELATIVE_RISK\nYULE_Y\nYULE_Q\nODDS_RATIO\nLEVERAGE\nONE_WAY_SUPPORT\nCONVICTION\nLOEVINGER\nSEBAG_SCHOENAUER\nODD_MULTIPLIER\nCOUNTER_EXAMPLE_RATE\nZHANG\nBAYES\nCENTERED_CONFIDENCE\nCERTAINTY_FACTOR\nADDED_VALUE\nLIFT\nCONFIDENCE -->
<g id="node25" class="node"><title>RELATIVE_RISK\nYULE_Y\nYULE_Q\nODDS_RATIO\nLEVERAGE\nONE_WAY_SUPPORT\nCONVICTION\nLOEVINGER\nSEBAG_SCHOENAUER\nODD_MULTIPLIER\nCOUNTER_EXAMPLE_RATE\nZHANG\nBAYES\nCENTERED_CONFIDENCE\nCERTAINTY_FACTOR\nADDED_VALUE\nLIFT\nCONFIDENCE</title>
<ellipse fill="none" stroke="black" cx="1374.84" cy="-472.742" rx="137.358" ry="196.651"/>
<text text-anchor="middle" x="1374.84" y="-596.542" font-family="Times,serif" font-size="14.00">RELATIVE_RISK</text>
<text text-anchor="middle" x="1374.84" y="-581.542" font-family="Times,serif" font-size="14.00">YULE_Y</text>
<text text-anchor="middle" x="1374.84" y="-566.542" font-family="Times,serif" font-size="14.00">YULE_Q</text>
<text text-anchor="middle" x="1374.84" y="-551.542" font-family="Times,serif" font-size="14.00">ODDS_RATIO</text>
<text text-anchor="middle" x="1374.84" y="-536.542" font-family="Times,serif" font-size="14.00">LEVERAGE</text>
<text text-anchor="middle" x="1374.84" y="-521.542" font-family="Times,serif" font-size="14.00">ONE_WAY_SUPPORT</text>
<text text-anchor="middle" x="1374.84" y="-506.542" font-family="Times,serif" font-size="14.00">CONVICTION</text>
<text text-anchor="middle" x="1374.84" y="-491.542" font-family="Times,serif" font-size="14.00">LOEVINGER</text>
<text text-anchor="middle" x="1374.84" y="-476.542" font-family="Times,serif" font-size="14.00">SEBAG_SCHOENAUER</text>
<text text-anchor="middle" x="1374.84" y="-461.542" font-family="Times,serif" font-size="14.00">ODD_MULTIPLIER</text>
<text text-anchor="middle" x="1374.84" y="-446.542" font-family="Times,serif" font-size="14.00">COUNTER_EXAMPLE_RATE</text>
<text text-anchor="middle" x="1374.84" y="-431.542" font-family="Times,serif" font-size="14.00">ZHANG</text>
<text text-anchor="middle" x="1374.84" y="-416.542" font-family="Times,serif" font-size="14.00">BAYES</text>
<text text-anchor="middle" x="1374.84" y="-401.542" font-family="Times,serif" font-size="14.00">CENTERED_CONFIDENCE</text>
<text text-anchor="middle" x="1374.84" y="-386.542" font-family="Times,serif" font-size="14.00">CERTAINTY_FACTOR</text>
<text text-anchor="middle" x="1374.84" y="-371.542" font-family="Times,serif" font-size="14.00">ADDED_VALUE</text>
<text text-anchor="middle" x="1374.84" y="-356.542" font-family="Times,serif" font-size="14.00">LIFT</text>
<text text-anchor="middle" x="1374.84" y="-341.542" font-family="Times,serif" font-size="14.00">CONFIDENCE</text>
</g>
<!-- n27 (0.83 &#45; 20)&#45;&gt;RELATIVE_RISK\nYULE_Y\nYULE_Q\nODDS_RATIO\nLEVERAGE\nONE_WAY_SUPPORT\nCONVICTION\nLOEVINGER\nSEBAG_SCHOENAUER\nODD_MULTIPLIER\nCOUNTER_EXAMPLE_RATE\nZHANG\nBAYES\nCENTERED_CONFIDENCE\nCERTAINTY_FACTOR\nADDED_VALUE\nLIFT\nCONFIDENCE -->
<g id="edge24" class="edge"><title>n27 (0.83 &#45; 20)&#45;&gt;RELATIVE_RISK\nYULE_Y\nYULE_Q\nODDS_RATIO\nLEVERAGE\nONE_WAY_SUPPORT\nCONVICTION\nLOEVINGER\nSEBAG_SCHOENAUER\nODD_MULTIPLIER\nCOUNTER_EXAMPLE_RATE\nZHANG\nBAYES\nCENTERED_CONFIDENCE\nCERTAINTY_FACTOR\nADDED_VALUE\nLIFT\nCONFIDENCE</title>
<path fill="none" stroke="black" d="M1141.13,-710.702C1168.27,-702.304 1202.17,-688.943 1227.84,-669.318 1244.67,-656.454 1260.51,-641.182 1275.13,-624.927"/>
<polygon fill="black" stroke="black" points="1277.78,-627.214 1281.75,-617.394 1272.52,-622.591 1277.78,-627.214"/>
</g>
</g>
</svg>
