<?xml version="1.0" encoding="UTF-8" standalone="no"?>
<!DOCTYPE svg PUBLIC "-//W3C//DTD SVG 1.1//EN"
 "http://www.w3.org/Graphics/SVG/1.1/DTD/svg11.dtd">
<!-- Generated by graphviz version 2.38.0 (20140413.2041)
 -->
<!-- Title: dendrogram Pages: 1 -->
<svg width="1830pt" height="852pt"
 viewBox="0.00 0.00 1830.02 852.31" xmlns="http://www.w3.org/2000/svg" xmlns:xlink="http://www.w3.org/1999/xlink">
<g id="graph0" class="graph" transform="scale(1 1) rotate(0) translate(4 848.306)">
<title>dendrogram</title>
<polygon fill="white" stroke="none" points="-4,4 -4,-848.306 1826.02,-848.306 1826.02,4 -4,4"/>
<!-- n34 (0.03 &#45; 36) -->
<g id="node1" class="node"><title>n34 (0.03 &#45; 36)</title>
<ellipse fill="none" stroke="black" cx="436.84" cy="-826.306" rx="64.189" ry="18"/>
<text text-anchor="middle" x="436.84" y="-822.606" font-family="Times,serif" font-size="14.00">n34 (0.03 &#45; 36)</text>
</g>
<!-- n32 (0.13 &#45; 3) -->
<g id="node2" class="node"><title>n32 (0.13 &#45; 3)</title>
<ellipse fill="none" stroke="black" cx="300.84" cy="-754.306" rx="59.5901" ry="18"/>
<text text-anchor="middle" x="300.84" y="-750.606" font-family="Times,serif" font-size="14.00">n32 (0.13 &#45; 3)</text>
</g>
<!-- n34 (0.03 &#45; 36)&#45;&gt;n32 (0.13 &#45; 3) -->
<g id="edge1" class="edge"><title>n34 (0.03 &#45; 36)&#45;&gt;n32 (0.13 &#45; 3)</title>
<path fill="none" stroke="black" d="M407.33,-810.117C387.233,-799.773 360.448,-785.986 338.769,-774.828"/>
<polygon fill="black" stroke="black" points="340.319,-771.689 329.825,-770.225 337.115,-777.913 340.319,-771.689"/>
</g>
<!-- n33 (0.05 &#45; 33) -->
<g id="node7" class="node"><title>n33 (0.05 &#45; 33)</title>
<ellipse fill="none" stroke="black" cx="573.84" cy="-754.306" rx="64.189" ry="18"/>
<text text-anchor="middle" x="573.84" y="-750.606" font-family="Times,serif" font-size="14.00">n33 (0.05 &#45; 33)</text>
</g>
<!-- n34 (0.03 &#45; 36)&#45;&gt;n33 (0.05 &#45; 33) -->
<g id="edge6" class="edge"><title>n34 (0.03 &#45; 36)&#45;&gt;n33 (0.05 &#45; 33)</title>
<path fill="none" stroke="black" d="M466.23,-810.289C486.318,-800.025 513.155,-786.313 535.003,-775.15"/>
<polygon fill="black" stroke="black" points="536.714,-778.206 544.026,-770.539 533.529,-771.972 536.714,-778.206"/>
</g>
<!-- RECALL -->
<g id="node3" class="node"><title>RECALL</title>
<ellipse fill="none" stroke="black" cx="177.84" cy="-682.306" rx="44.6926" ry="18"/>
<text text-anchor="middle" x="177.84" y="-678.606" font-family="Times,serif" font-size="14.00">RECALL</text>
</g>
<!-- n32 (0.13 &#45; 3)&#45;&gt;RECALL -->
<g id="edge2" class="edge"><title>n32 (0.13 &#45; 3)&#45;&gt;RECALL</title>
<path fill="none" stroke="black" d="M274.151,-738.117C255.853,-727.703 231.424,-713.8 211.748,-702.603"/>
<polygon fill="black" stroke="black" points="213.223,-699.415 202.801,-697.511 209.761,-705.499 213.223,-699.415"/>
</g>
<!-- n24 (0.64 &#45; 2) -->
<g id="node4" class="node"><title>n24 (0.64 &#45; 2)</title>
<ellipse fill="none" stroke="black" cx="300.84" cy="-682.306" rx="59.5901" ry="18"/>
<text text-anchor="middle" x="300.84" y="-678.606" font-family="Times,serif" font-size="14.00">n24 (0.64 &#45; 2)</text>
</g>
<!-- n32 (0.13 &#45; 3)&#45;&gt;n24 (0.64 &#45; 2) -->
<g id="edge3" class="edge"><title>n32 (0.13 &#45; 3)&#45;&gt;n24 (0.64 &#45; 2)</title>
<path fill="none" stroke="black" d="M300.84,-736.002C300.84,-728.288 300.84,-719.018 300.84,-710.418"/>
<polygon fill="black" stroke="black" points="304.34,-710.41 300.84,-700.41 297.34,-710.41 304.34,-710.41"/>
</g>
<!-- COLLECTIVE_STRENGH -->
<g id="node5" class="node"><title>COLLECTIVE_STRENGH</title>
<ellipse fill="none" stroke="black" cx="109.84" cy="-610.306" rx="109.681" ry="18"/>
<text text-anchor="middle" x="109.84" y="-606.606" font-family="Times,serif" font-size="14.00">COLLECTIVE_STRENGH</text>
</g>
<!-- n24 (0.64 &#45; 2)&#45;&gt;COLLECTIVE_STRENGH -->
<g id="edge4" class="edge"><title>n24 (0.64 &#45; 2)&#45;&gt;COLLECTIVE_STRENGH</title>
<path fill="none" stroke="black" d="M264.465,-667.974C235.529,-657.37 194.653,-642.389 162.196,-630.494"/>
<polygon fill="black" stroke="black" points="163.009,-627.064 152.416,-626.909 160.601,-633.637 163.009,-627.064"/>
</g>
<!-- SPECIFICITY -->
<g id="node6" class="node"><title>SPECIFICITY</title>
<ellipse fill="none" stroke="black" cx="300.84" cy="-610.306" rx="63.0888" ry="18"/>
<text text-anchor="middle" x="300.84" y="-606.606" font-family="Times,serif" font-size="14.00">SPECIFICITY</text>
</g>
<!-- n24 (0.64 &#45; 2)&#45;&gt;SPECIFICITY -->
<g id="edge5" class="edge"><title>n24 (0.64 &#45; 2)&#45;&gt;SPECIFICITY</title>
<path fill="none" stroke="black" d="M300.84,-664.002C300.84,-656.288 300.84,-647.018 300.84,-638.418"/>
<polygon fill="black" stroke="black" points="304.34,-638.41 300.84,-628.41 297.34,-638.41 304.34,-638.41"/>
</g>
<!-- n30 (0.29 &#45; 13) -->
<g id="node8" class="node"><title>n30 (0.29 &#45; 13)</title>
<ellipse fill="none" stroke="black" cx="573.84" cy="-682.306" rx="64.189" ry="18"/>
<text text-anchor="middle" x="573.84" y="-678.606" font-family="Times,serif" font-size="14.00">n30 (0.29 &#45; 13)</text>
</g>
<!-- n33 (0.05 &#45; 33)&#45;&gt;n30 (0.29 &#45; 13) -->
<g id="edge7" class="edge"><title>n33 (0.05 &#45; 33)&#45;&gt;n30 (0.29 &#45; 13)</title>
<path fill="none" stroke="black" d="M573.84,-736.002C573.84,-728.288 573.84,-719.018 573.84,-710.418"/>
<polygon fill="black" stroke="black" points="577.34,-710.41 573.84,-700.41 570.34,-710.41 577.34,-710.41"/>
</g>
<!-- n31 (0.27 &#45; 20) -->
<g id="node23" class="node"><title>n31 (0.27 &#45; 20)</title>
<ellipse fill="none" stroke="black" cx="1120.84" cy="-682.306" rx="64.189" ry="18"/>
<text text-anchor="middle" x="1120.84" y="-678.606" font-family="Times,serif" font-size="14.00">n31 (0.27 &#45; 20)</text>
</g>
<!-- n33 (0.05 &#45; 33)&#45;&gt;n31 (0.27 &#45; 20) -->
<g id="edge22" class="edge"><title>n33 (0.05 &#45; 33)&#45;&gt;n31 (0.27 &#45; 20)</title>
<path fill="none" stroke="black" d="M631.088,-745.98C732.87,-732.955 944.807,-705.833 1053.45,-691.93"/>
<polygon fill="black" stroke="black" points="1054.16,-695.368 1063.63,-690.627 1053.27,-688.424 1054.16,-695.368"/>
</g>
<!-- PIATETSKY_SHAPIRO -->
<g id="node9" class="node"><title>PIATETSKY_SHAPIRO</title>
<ellipse fill="none" stroke="black" cx="482.84" cy="-610.306" rx="100.983" ry="18"/>
<text text-anchor="middle" x="482.84" y="-606.606" font-family="Times,serif" font-size="14.00">PIATETSKY_SHAPIRO</text>
</g>
<!-- n30 (0.29 &#45; 13)&#45;&gt;PIATETSKY_SHAPIRO -->
<g id="edge8" class="edge"><title>n30 (0.29 &#45; 13)&#45;&gt;PIATETSKY_SHAPIRO</title>
<path fill="none" stroke="black" d="M552.734,-665.07C540.847,-655.926 525.806,-644.356 512.724,-634.293"/>
<polygon fill="black" stroke="black" points="514.524,-631.262 504.464,-627.939 510.256,-636.81 514.524,-631.262"/>
</g>
<!-- n28 (0.45 &#45; 12) -->
<g id="node10" class="node"><title>n28 (0.45 &#45; 12)</title>
<ellipse fill="none" stroke="black" cx="665.84" cy="-610.306" rx="64.189" ry="18"/>
<text text-anchor="middle" x="665.84" y="-606.606" font-family="Times,serif" font-size="14.00">n28 (0.45 &#45; 12)</text>
</g>
<!-- n30 (0.29 &#45; 13)&#45;&gt;n28 (0.45 &#45; 12) -->
<g id="edge9" class="edge"><title>n30 (0.29 &#45; 13)&#45;&gt;n28 (0.45 &#45; 12)</title>
<path fill="none" stroke="black" d="M595.178,-665.07C607.486,-655.705 623.139,-643.796 636.583,-633.567"/>
<polygon fill="black" stroke="black" points="638.779,-636.294 644.618,-627.453 634.54,-630.723 638.779,-636.294"/>
</g>
<!-- n27 (0.56 &#45; 3) -->
<g id="node11" class="node"><title>n27 (0.56 &#45; 3)</title>
<ellipse fill="none" stroke="black" cx="384.84" cy="-476.403" rx="59.5901" ry="18"/>
<text text-anchor="middle" x="384.84" y="-472.703" font-family="Times,serif" font-size="14.00">n27 (0.56 &#45; 3)</text>
</g>
<!-- n28 (0.45 &#45; 12)&#45;&gt;n27 (0.56 &#45; 3) -->
<g id="edge10" class="edge"><title>n28 (0.45 &#45; 12)&#45;&gt;n27 (0.56 &#45; 3)</title>
<path fill="none" stroke="black" d="M634.424,-594.559C583.114,-570.473 481.403,-522.73 424.952,-496.231"/>
<polygon fill="black" stroke="black" points="426.167,-492.935 415.627,-491.854 423.192,-499.272 426.167,-492.935"/>
</g>
<!-- n25 (0.61 &#45; 9) -->
<g id="node14" class="node"><title>n25 (0.61 &#45; 9)</title>
<ellipse fill="none" stroke="black" cx="665.84" cy="-476.403" rx="59.5901" ry="18"/>
<text text-anchor="middle" x="665.84" y="-472.703" font-family="Times,serif" font-size="14.00">n25 (0.61 &#45; 9)</text>
</g>
<!-- n28 (0.45 &#45; 12)&#45;&gt;n25 (0.61 &#45; 9) -->
<g id="edge13" class="edge"><title>n28 (0.45 &#45; 12)&#45;&gt;n25 (0.61 &#45; 9)</title>
<path fill="none" stroke="black" d="M665.84,-592.062C665.84,-569.844 665.84,-530.963 665.84,-504.707"/>
<polygon fill="black" stroke="black" points="669.34,-504.651 665.84,-494.651 662.34,-504.651 669.34,-504.651"/>
</g>
<!-- KLOSGEN -->
<g id="node12" class="node"><title>KLOSGEN</title>
<ellipse fill="none" stroke="black" cx="205.84" cy="-291.203" rx="51.9908" ry="18"/>
<text text-anchor="middle" x="205.84" y="-287.503" font-family="Times,serif" font-size="14.00">KLOSGEN</text>
</g>
<!-- n27 (0.56 &#45; 3)&#45;&gt;KLOSGEN -->
<g id="edge11" class="edge"><title>n27 (0.56 &#45; 3)&#45;&gt;KLOSGEN</title>
<path fill="none" stroke="black" d="M367.272,-459.026C343.885,-437.062 301.453,-396.637 266.84,-360.5 253.18,-346.238 238.414,-329.736 226.832,-316.527"/>
<polygon fill="black" stroke="black" points="229.282,-314.011 220.07,-308.776 224.007,-318.613 229.282,-314.011"/>
</g>
<!-- GINI\nIMPLICATION_INDEX -->
<g id="node13" class="node"><title>GINI\nIMPLICATION_INDEX</title>
<ellipse fill="none" stroke="black" cx="384.84" cy="-291.203" rx="108.789" ry="26.7407"/>
<text text-anchor="middle" x="384.84" y="-295.003" font-family="Times,serif" font-size="14.00">GINI</text>
<text text-anchor="middle" x="384.84" y="-280.003" font-family="Times,serif" font-size="14.00">IMPLICATION_INDEX</text>
</g>
<!-- n27 (0.56 &#45; 3)&#45;&gt;GINI\nIMPLICATION_INDEX -->
<g id="edge12" class="edge"><title>n27 (0.56 &#45; 3)&#45;&gt;GINI\nIMPLICATION_INDEX</title>
<path fill="none" stroke="black" d="M384.84,-458.168C384.84,-428.632 384.84,-367.739 384.84,-328.496"/>
<polygon fill="black" stroke="black" points="388.34,-328.288 384.84,-318.288 381.34,-328.288 388.34,-328.288"/>
</g>
<!-- n22 (0.76 &#45; 4) -->
<g id="node15" class="node"><title>n22 (0.76 &#45; 4)</title>
<ellipse fill="none" stroke="black" cx="571.84" cy="-291.203" rx="59.5901" ry="18"/>
<text text-anchor="middle" x="571.84" y="-287.503" font-family="Times,serif" font-size="14.00">n22 (0.76 &#45; 4)</text>
</g>
<!-- n25 (0.61 &#45; 9)&#45;&gt;n22 (0.76 &#45; 4) -->
<g id="edge14" class="edge"><title>n25 (0.61 &#45; 9)&#45;&gt;n22 (0.76 &#45; 4)</title>
<path fill="none" stroke="black" d="M657.165,-458.496C640.657,-426.322 604.63,-356.108 585.086,-318.018"/>
<polygon fill="black" stroke="black" points="588.173,-316.368 580.494,-309.069 581.945,-319.564 588.173,-316.368"/>
</g>
<!-- n21 (0.80 &#45; 5) -->
<g id="node18" class="node"><title>n21 (0.80 &#45; 5)</title>
<ellipse fill="none" stroke="black" cx="758.84" cy="-291.203" rx="59.5901" ry="18"/>
<text text-anchor="middle" x="758.84" y="-287.503" font-family="Times,serif" font-size="14.00">n21 (0.80 &#45; 5)</text>
</g>
<!-- n25 (0.61 &#45; 9)&#45;&gt;n21 (0.80 &#45; 5) -->
<g id="edge17" class="edge"><title>n25 (0.61 &#45; 9)&#45;&gt;n21 (0.80 &#45; 5)</title>
<path fill="none" stroke="black" d="M674.423,-458.496C690.756,-426.322 726.399,-356.108 745.736,-318.018"/>
<polygon fill="black" stroke="black" points="748.873,-319.57 750.278,-309.069 742.631,-316.401 748.873,-319.57"/>
</g>
<!-- TWO_WAY_SUPPORT -->
<g id="node16" class="node"><title>TWO_WAY_SUPPORT</title>
<ellipse fill="none" stroke="black" cx="237.84" cy="-148.43" rx="100.182" ry="18"/>
<text text-anchor="middle" x="237.84" y="-144.73" font-family="Times,serif" font-size="14.00">TWO_WAY_SUPPORT</text>
</g>
<!-- n22 (0.76 &#45; 4)&#45;&gt;TWO_WAY_SUPPORT -->
<g id="edge15" class="edge"><title>n22 (0.76 &#45; 4)&#45;&gt;TWO_WAY_SUPPORT</title>
<path fill="none" stroke="black" d="M559.502,-273.49C546.982,-257.76 526.166,-234.757 502.84,-221.907 440.516,-187.572 415.325,-205.22 346.84,-185.907 328.204,-180.651 308.036,-174.139 290.175,-168.079"/>
<polygon fill="black" stroke="black" points="291.108,-164.699 280.514,-164.769 288.839,-171.321 291.108,-164.699"/>
</g>
<!-- J_MEASURE\nTWO_WAY_SUPPORT_VARIATION\nFISHER_PVAL -->
<g id="node17" class="node"><title>J_MEASURE\nTWO_WAY_SUPPORT_VARIATION\nFISHER_PVAL</title>
<ellipse fill="none" stroke="black" cx="522.84" cy="-148.43" rx="166.754" ry="37.4533"/>
<text text-anchor="middle" x="522.84" y="-159.73" font-family="Times,serif" font-size="14.00">J_MEASURE</text>
<text text-anchor="middle" x="522.84" y="-144.73" font-family="Times,serif" font-size="14.00">TWO_WAY_SUPPORT_VARIATION</text>
<text text-anchor="middle" x="522.84" y="-129.73" font-family="Times,serif" font-size="14.00">FISHER_PVAL</text>
</g>
<!-- n22 (0.76 &#45; 4)&#45;&gt;J_MEASURE\nTWO_WAY_SUPPORT_VARIATION\nFISHER_PVAL -->
<g id="edge16" class="edge"><title>n22 (0.76 &#45; 4)&#45;&gt;J_MEASURE\nTWO_WAY_SUPPORT_VARIATION\nFISHER_PVAL</title>
<path fill="none" stroke="black" d="M565.93,-273.223C559.265,-254.075 548.147,-222.134 538.874,-195.494"/>
<polygon fill="black" stroke="black" points="542.146,-194.247 535.553,-185.953 535.535,-196.548 542.146,-194.247"/>
</g>
<!-- JACCARD -->
<g id="node19" class="node"><title>JACCARD</title>
<ellipse fill="none" stroke="black" cx="758.84" cy="-148.43" rx="50.8918" ry="18"/>
<text text-anchor="middle" x="758.84" y="-144.73" font-family="Times,serif" font-size="14.00">JACCARD</text>
</g>
<!-- n21 (0.80 &#45; 5)&#45;&gt;JACCARD -->
<g id="edge18" class="edge"><title>n21 (0.80 &#45; 5)&#45;&gt;JACCARD</title>
<path fill="none" stroke="black" d="M758.84,-272.942C758.84,-248.984 758.84,-205.395 758.84,-176.93"/>
<polygon fill="black" stroke="black" points="762.34,-176.833 758.84,-166.833 755.34,-176.833 762.34,-176.833"/>
</g>
<!-- n19 (0.86 &#45; 4) -->
<g id="node20" class="node"><title>n19 (0.86 &#45; 4)</title>
<ellipse fill="none" stroke="black" cx="886.84" cy="-148.43" rx="59.5901" ry="18"/>
<text text-anchor="middle" x="886.84" y="-144.73" font-family="Times,serif" font-size="14.00">n19 (0.86 &#45; 4)</text>
</g>
<!-- n21 (0.80 &#45; 5)&#45;&gt;n19 (0.86 &#45; 4) -->
<g id="edge19" class="edge"><title>n21 (0.80 &#45; 5)&#45;&gt;n19 (0.86 &#45; 4)</title>
<path fill="none" stroke="black" d="M774.026,-273.502C796.544,-248.737 838.91,-202.143 864.83,-173.637"/>
<polygon fill="black" stroke="black" points="867.536,-175.863 871.674,-166.11 862.357,-171.154 867.536,-175.863"/>
</g>
<!-- KAPPA -->
<g id="node21" class="node"><title>KAPPA</title>
<ellipse fill="none" stroke="black" cx="821.84" cy="-37.4767" rx="39.7935" ry="18"/>
<text text-anchor="middle" x="821.84" y="-33.7767" font-family="Times,serif" font-size="14.00">KAPPA</text>
</g>
<!-- n19 (0.86 &#45; 4)&#45;&gt;KAPPA -->
<g id="edge20" class="edge"><title>n19 (0.86 &#45; 4)&#45;&gt;KAPPA</title>
<path fill="none" stroke="black" d="M876.684,-130.406C866.033,-112.552 849.175,-84.2956 836.959,-63.8195"/>
<polygon fill="black" stroke="black" points="839.842,-61.819 831.712,-55.0243 833.83,-65.4054 839.842,-61.819"/>
</g>
<!-- COSINE\nPHI\nCHI_SQUARE -->
<g id="node22" class="node"><title>COSINE\nPHI\nCHI_SQUARE</title>
<ellipse fill="none" stroke="black" cx="950.84" cy="-37.4767" rx="71.3357" ry="37.4533"/>
<text text-anchor="middle" x="950.84" y="-48.7767" font-family="Times,serif" font-size="14.00">COSINE</text>
<text text-anchor="middle" x="950.84" y="-33.7767" font-family="Times,serif" font-size="14.00">PHI</text>
<text text-anchor="middle" x="950.84" y="-18.7767" font-family="Times,serif" font-size="14.00">CHI_SQUARE</text>
</g>
<!-- n19 (0.86 &#45; 4)&#45;&gt;COSINE\nPHI\nCHI_SQUARE -->
<g id="edge21" class="edge"><title>n19 (0.86 &#45; 4)&#45;&gt;COSINE\nPHI\nCHI_SQUARE</title>
<path fill="none" stroke="black" d="M896.84,-130.406C904.444,-117.461 915.261,-99.0465 925.219,-82.0945"/>
<polygon fill="black" stroke="black" points="928.279,-83.7949 930.326,-73.3997 922.243,-80.2495 928.279,-83.7949"/>
</g>
<!-- n29 (0.37 &#45; 10) -->
<g id="node24" class="node"><title>n29 (0.37 &#45; 10)</title>
<ellipse fill="none" stroke="black" cx="1120.84" cy="-610.306" rx="64.189" ry="18"/>
<text text-anchor="middle" x="1120.84" y="-606.606" font-family="Times,serif" font-size="14.00">n29 (0.37 &#45; 10)</text>
</g>
<!-- n31 (0.27 &#45; 20)&#45;&gt;n29 (0.37 &#45; 10) -->
<g id="edge23" class="edge"><title>n31 (0.27 &#45; 20)&#45;&gt;n29 (0.37 &#45; 10)</title>
<path fill="none" stroke="black" d="M1120.84,-664.002C1120.84,-656.288 1120.84,-647.018 1120.84,-638.418"/>
<polygon fill="black" stroke="black" points="1124.34,-638.41 1120.84,-628.41 1117.34,-638.41 1124.34,-638.41"/>
</g>
<!-- n18 (0.87 &#45; 10) -->
<g id="node33" class="node"><title>n18 (0.87 &#45; 10)</title>
<ellipse fill="none" stroke="black" cx="1402.84" cy="-610.306" rx="64.189" ry="18"/>
<text text-anchor="middle" x="1402.84" y="-606.606" font-family="Times,serif" font-size="14.00">n18 (0.87 &#45; 10)</text>
</g>
<!-- n31 (0.27 &#45; 20)&#45;&gt;n18 (0.87 &#45; 10) -->
<g id="edge32" class="edge"><title>n31 (0.27 &#45; 20)&#45;&gt;n18 (0.87 &#45; 10)</title>
<path fill="none" stroke="black" d="M1167.41,-669.747C1216.49,-657.562 1293.84,-638.363 1346.37,-625.323"/>
<polygon fill="black" stroke="black" points="1347.34,-628.688 1356.2,-622.882 1345.66,-621.894 1347.34,-628.688"/>
</g>
<!-- n26 (0.60 &#45; 3) -->
<g id="node25" class="node"><title>n26 (0.60 &#45; 3)</title>
<ellipse fill="none" stroke="black" cx="1042.84" cy="-476.403" rx="59.5901" ry="18"/>
<text text-anchor="middle" x="1042.84" y="-472.703" font-family="Times,serif" font-size="14.00">n26 (0.60 &#45; 3)</text>
</g>
<!-- n29 (0.37 &#45; 10)&#45;&gt;n26 (0.60 &#45; 3) -->
<g id="edge24" class="edge"><title>n29 (0.37 &#45; 10)&#45;&gt;n26 (0.60 &#45; 3)</title>
<path fill="none" stroke="black" d="M1110.8,-592.332C1097.41,-569.676 1073.56,-529.354 1057.98,-502.999"/>
<polygon fill="black" stroke="black" points="1060.94,-501.138 1052.84,-494.311 1054.92,-504.701 1060.94,-501.138"/>
</g>
<!-- n23 (0.66 &#45; 7) -->
<g id="node30" class="node"><title>n23 (0.66 &#45; 7)</title>
<ellipse fill="none" stroke="black" cx="1198.84" cy="-476.403" rx="59.5901" ry="18"/>
<text text-anchor="middle" x="1198.84" y="-472.703" font-family="Times,serif" font-size="14.00">n23 (0.66 &#45; 7)</text>
</g>
<!-- n29 (0.37 &#45; 10)&#45;&gt;n23 (0.66 &#45; 7) -->
<g id="edge29" class="edge"><title>n29 (0.37 &#45; 10)&#45;&gt;n23 (0.66 &#45; 7)</title>
<path fill="none" stroke="black" d="M1130.88,-592.332C1144.28,-569.676 1168.12,-529.354 1183.7,-502.999"/>
<polygon fill="black" stroke="black" points="1186.76,-504.701 1188.84,-494.311 1180.74,-501.138 1186.76,-504.701"/>
</g>
<!-- ACCURACY -->
<g id="node26" class="node"><title>ACCURACY</title>
<ellipse fill="none" stroke="black" cx="904.84" cy="-291.203" rx="59.5901" ry="18"/>
<text text-anchor="middle" x="904.84" y="-287.503" font-family="Times,serif" font-size="14.00">ACCURACY</text>
</g>
<!-- n26 (0.60 &#45; 3)&#45;&gt;ACCURACY -->
<g id="edge25" class="edge"><title>n26 (0.60 &#45; 3)&#45;&gt;ACCURACY</title>
<path fill="none" stroke="black" d="M1030.1,-458.496C1005.66,-426.05 952.08,-354.915 923.562,-317.057"/>
<polygon fill="black" stroke="black" points="926.357,-314.95 917.545,-309.069 920.766,-319.162 926.357,-314.95"/>
</g>
<!-- n20 (0.84 &#45; 2) -->
<g id="node27" class="node"><title>n20 (0.84 &#45; 2)</title>
<ellipse fill="none" stroke="black" cx="1042.84" cy="-291.203" rx="59.5901" ry="18"/>
<text text-anchor="middle" x="1042.84" y="-287.503" font-family="Times,serif" font-size="14.00">n20 (0.84 &#45; 2)</text>
</g>
<!-- n26 (0.60 &#45; 3)&#45;&gt;n20 (0.84 &#45; 2) -->
<g id="edge26" class="edge"><title>n26 (0.60 &#45; 3)&#45;&gt;n20 (0.84 &#45; 2)</title>
<path fill="none" stroke="black" d="M1042.84,-458.168C1042.84,-426.307 1042.84,-357.962 1042.84,-319.659"/>
<polygon fill="black" stroke="black" points="1046.34,-319.259 1042.84,-309.259 1039.34,-319.259 1046.34,-319.259"/>
</g>
<!-- RELATIVE_RISK -->
<g id="node28" class="node"><title>RELATIVE_RISK</title>
<ellipse fill="none" stroke="black" cx="1042.84" cy="-148.43" rx="77.9862" ry="18"/>
<text text-anchor="middle" x="1042.84" y="-144.73" font-family="Times,serif" font-size="14.00">RELATIVE_RISK</text>
</g>
<!-- n20 (0.84 &#45; 2)&#45;&gt;RELATIVE_RISK -->
<g id="edge27" class="edge"><title>n20 (0.84 &#45; 2)&#45;&gt;RELATIVE_RISK</title>
<path fill="none" stroke="black" d="M1042.84,-272.942C1042.84,-248.984 1042.84,-205.395 1042.84,-176.93"/>
<polygon fill="black" stroke="black" points="1046.34,-176.833 1042.84,-166.833 1039.34,-176.833 1046.34,-176.833"/>
</g>
<!-- LIFT -->
<g id="node29" class="node"><title>LIFT</title>
<ellipse fill="none" stroke="black" cx="1167.84" cy="-148.43" rx="29.4969" ry="18"/>
<text text-anchor="middle" x="1167.84" y="-144.73" font-family="Times,serif" font-size="14.00">LIFT</text>
</g>
<!-- n20 (0.84 &#45; 2)&#45;&gt;LIFT -->
<g id="edge28" class="edge"><title>n20 (0.84 &#45; 2)&#45;&gt;LIFT</title>
<path fill="none" stroke="black" d="M1057.67,-273.502C1079.92,-248.445 1122.01,-201.041 1147.23,-172.637"/>
<polygon fill="black" stroke="black" points="1150.15,-174.621 1154.17,-164.82 1144.92,-169.974 1150.15,-174.621"/>
</g>
<!-- ONE_WAY_SUPPORT -->
<g id="node31" class="node"><title>ONE_WAY_SUPPORT</title>
<ellipse fill="none" stroke="black" cx="1217.84" cy="-291.203" rx="97.4827" ry="18"/>
<text text-anchor="middle" x="1217.84" y="-287.503" font-family="Times,serif" font-size="14.00">ONE_WAY_SUPPORT</text>
</g>
<!-- n23 (0.66 &#45; 7)&#45;&gt;ONE_WAY_SUPPORT -->
<g id="edge30" class="edge"><title>n23 (0.66 &#45; 7)&#45;&gt;ONE_WAY_SUPPORT</title>
<path fill="none" stroke="black" d="M1200.63,-458.168C1203.93,-426.307 1211.02,-357.962 1214.99,-319.659"/>
<polygon fill="black" stroke="black" points="1218.52,-319.567 1216.07,-309.259 1211.56,-318.844 1218.52,-319.567"/>
</g>
<!-- ODD_MULTIPLIER\nZHANG\nBAYES\nYULE_Y\nYULE_Q\nODDS_RATIO -->
<g id="node32" class="node"><title>ODD_MULTIPLIER\nZHANG\nBAYES\nYULE_Y\nYULE_Q\nODDS_RATIO</title>
<ellipse fill="none" stroke="black" cx="1427.84" cy="-291.203" rx="94.5053" ry="69.0935"/>
<text text-anchor="middle" x="1427.84" y="-325.003" font-family="Times,serif" font-size="14.00">ODD_MULTIPLIER</text>
<text text-anchor="middle" x="1427.84" y="-310.003" font-family="Times,serif" font-size="14.00">ZHANG</text>
<text text-anchor="middle" x="1427.84" y="-295.003" font-family="Times,serif" font-size="14.00">BAYES</text>
<text text-anchor="middle" x="1427.84" y="-280.003" font-family="Times,serif" font-size="14.00">YULE_Y</text>
<text text-anchor="middle" x="1427.84" y="-265.003" font-family="Times,serif" font-size="14.00">YULE_Q</text>
<text text-anchor="middle" x="1427.84" y="-250.003" font-family="Times,serif" font-size="14.00">ODDS_RATIO</text>
</g>
<!-- n23 (0.66 &#45; 7)&#45;&gt;ODD_MULTIPLIER\nZHANG\nBAYES\nYULE_Y\nYULE_Q\nODDS_RATIO -->
<g id="edge31" class="edge"><title>n23 (0.66 &#45; 7)&#45;&gt;ODD_MULTIPLIER\nZHANG\nBAYES\nYULE_Y\nYULE_Q\nODDS_RATIO</title>
<path fill="none" stroke="black" d="M1210.87,-458.723C1223.58,-441.816 1244.79,-415.508 1266.84,-396.5 1289.54,-376.937 1298.65,-376.724 1323.84,-360.5 1332.15,-355.149 1340.81,-349.529 1349.43,-343.907"/>
<polygon fill="black" stroke="black" points="1351.56,-346.694 1358.02,-338.295 1347.74,-340.833 1351.56,-346.694"/>
</g>
<!-- LEAST_CONTRADICTION\nCENTERED_CONFIDENCE\nADDED_VALUE -->
<g id="node34" class="node"><title>LEAST_CONTRADICTION\nCENTERED_CONFIDENCE\nADDED_VALUE</title>
<ellipse fill="none" stroke="black" cx="1402.84" cy="-476.403" rx="126.644" ry="37.4533"/>
<text text-anchor="middle" x="1402.84" y="-487.703" font-family="Times,serif" font-size="14.00">LEAST_CONTRADICTION</text>
<text text-anchor="middle" x="1402.84" y="-472.703" font-family="Times,serif" font-size="14.00">CENTERED_CONFIDENCE</text>
<text text-anchor="middle" x="1402.84" y="-457.703" font-family="Times,serif" font-size="14.00">ADDED_VALUE</text>
</g>
<!-- n18 (0.87 &#45; 10)&#45;&gt;LEAST_CONTRADICTION\nCENTERED_CONFIDENCE\nADDED_VALUE -->
<g id="edge33" class="edge"><title>n18 (0.87 &#45; 10)&#45;&gt;LEAST_CONTRADICTION\nCENTERED_CONFIDENCE\nADDED_VALUE</title>
<path fill="none" stroke="black" d="M1402.84,-592.062C1402.84,-574.908 1402.84,-547.82 1402.84,-524.28"/>
<polygon fill="black" stroke="black" points="1406.34,-524.107 1402.84,-514.107 1399.34,-524.107 1406.34,-524.107"/>
</g>
<!-- LOEVINGER\nCONVICTION\nCERTAINTY_FACTOR\nSEBAG_SCHOENAUER\nCOUNTER_EXAMPLE_RATE\nLEVERAGE\nCONFIDENCE -->
<g id="node35" class="node"><title>LOEVINGER\nCONVICTION\nCERTAINTY_FACTOR\nSEBAG_SCHOENAUER\nCOUNTER_EXAMPLE_RATE\nLEVERAGE\nCONFIDENCE</title>
<ellipse fill="none" stroke="black" cx="1684.84" cy="-476.403" rx="137.358" ry="79.8062"/>
<text text-anchor="middle" x="1684.84" y="-517.703" font-family="Times,serif" font-size="14.00">LOEVINGER</text>
<text text-anchor="middle" x="1684.84" y="-502.703" font-family="Times,serif" font-size="14.00">CONVICTION</text>
<text text-anchor="middle" x="1684.84" y="-487.703" font-family="Times,serif" font-size="14.00">CERTAINTY_FACTOR</text>
<text text-anchor="middle" x="1684.84" y="-472.703" font-family="Times,serif" font-size="14.00">SEBAG_SCHOENAUER</text>
<text text-anchor="middle" x="1684.84" y="-457.703" font-family="Times,serif" font-size="14.00">COUNTER_EXAMPLE_RATE</text>
<text text-anchor="middle" x="1684.84" y="-442.703" font-family="Times,serif" font-size="14.00">LEVERAGE</text>
<text text-anchor="middle" x="1684.84" y="-427.703" font-family="Times,serif" font-size="14.00">CONFIDENCE</text>
</g>
<!-- n18 (0.87 &#45; 10)&#45;&gt;LOEVINGER\nCONVICTION\nCERTAINTY_FACTOR\nSEBAG_SCHOENAUER\nCOUNTER_EXAMPLE_RATE\nLEVERAGE\nCONFIDENCE -->
<g id="edge34" class="edge"><title>n18 (0.87 &#45; 10)&#45;&gt;LOEVINGER\nCONVICTION\nCERTAINTY_FACTOR\nSEBAG_SCHOENAUER\nCOUNTER_EXAMPLE_RATE\nLEVERAGE\nCONFIDENCE</title>
<path fill="none" stroke="black" d="M1441.18,-595.809C1468.72,-585.766 1506.53,-571.262 1538.84,-556.306 1551.59,-550.405 1564.77,-543.891 1577.77,-537.21"/>
<polygon fill="black" stroke="black" points="1579.46,-540.275 1586.73,-532.564 1576.24,-534.061 1579.46,-540.275"/>
</g>
</g>
</svg>
