<?xml version="1.0" encoding="UTF-8" standalone="no"?>
<!DOCTYPE svg PUBLIC "-//W3C//DTD SVG 1.1//EN"
 "http://www.w3.org/Graphics/SVG/1.1/DTD/svg11.dtd">
<!-- Generated by graphviz version 2.38.0 (20140413.2041)
 -->
<!-- Title: dendrogram Pages: 1 -->
<svg width="1270pt" height="911pt"
 viewBox="0.00 0.00 1270.50 911.06" xmlns="http://www.w3.org/2000/svg" xmlns:xlink="http://www.w3.org/1999/xlink">
<g id="graph0" class="graph" transform="scale(1 1) rotate(0) translate(4 907.058)">
<title>dendrogram</title>
<polygon fill="white" stroke="none" points="-4,4 -4,-907.058 1266.5,-907.058 1266.5,4 -4,4"/>
<!-- n34 (0.25 &#45; 36) -->
<g id="node1" class="node"><title>n34 (0.25 &#45; 36)</title>
<ellipse fill="none" stroke="black" cx="420.602" cy="-885.058" rx="64.189" ry="18"/>
<text text-anchor="middle" x="420.602" y="-881.358" font-family="Times,serif" font-size="14.00">n34 (0.25 &#45; 36)</text>
</g>
<!-- n31 (0.66 &#45; 4) -->
<g id="node2" class="node"><title>n31 (0.66 &#45; 4)</title>
<ellipse fill="none" stroke="black" cx="296.602" cy="-813.058" rx="59.5901" ry="18"/>
<text text-anchor="middle" x="296.602" y="-809.358" font-family="Times,serif" font-size="14.00">n31 (0.66 &#45; 4)</text>
</g>
<!-- n34 (0.25 &#45; 36)&#45;&gt;n31 (0.66 &#45; 4) -->
<g id="edge1" class="edge"><title>n34 (0.25 &#45; 36)&#45;&gt;n31 (0.66 &#45; 4)</title>
<path fill="none" stroke="black" d="M393.389,-868.696C375.541,-858.621 352.006,-845.335 332.614,-834.387"/>
<polygon fill="black" stroke="black" points="334.179,-831.252 323.75,-829.384 330.738,-837.348 334.179,-831.252"/>
</g>
<!-- n33 (0.53 &#45; 32) -->
<g id="node7" class="node"><title>n33 (0.53 &#45; 32)</title>
<ellipse fill="none" stroke="black" cx="492.602" cy="-813.058" rx="64.189" ry="18"/>
<text text-anchor="middle" x="492.602" y="-809.358" font-family="Times,serif" font-size="14.00">n33 (0.53 &#45; 32)</text>
</g>
<!-- n34 (0.25 &#45; 36)&#45;&gt;n33 (0.53 &#45; 32) -->
<g id="edge6" class="edge"><title>n34 (0.25 &#45; 36)&#45;&gt;n33 (0.53 &#45; 32)</title>
<path fill="none" stroke="black" d="M437.665,-867.469C446.811,-858.577 458.236,-847.469 468.295,-837.689"/>
<polygon fill="black" stroke="black" points="470.931,-840.008 475.661,-830.528 466.051,-834.989 470.931,-840.008"/>
</g>
<!-- PIATETSKY_SHAPIRO\nSPECIFICITY -->
<g id="node3" class="node"><title>PIATETSKY_SHAPIRO\nSPECIFICITY</title>
<ellipse fill="none" stroke="black" cx="109.602" cy="-732.188" rx="109.703" ry="26.7407"/>
<text text-anchor="middle" x="109.602" y="-735.988" font-family="Times,serif" font-size="14.00">PIATETSKY_SHAPIRO</text>
<text text-anchor="middle" x="109.602" y="-720.988" font-family="Times,serif" font-size="14.00">SPECIFICITY</text>
</g>
<!-- n31 (0.66 &#45; 4)&#45;&gt;PIATETSKY_SHAPIRO\nSPECIFICITY -->
<g id="edge2" class="edge"><title>n31 (0.66 &#45; 4)&#45;&gt;PIATETSKY_SHAPIRO\nSPECIFICITY</title>
<path fill="none" stroke="black" d="M263.17,-797.958C237.94,-787.317 202.592,-772.408 172.168,-759.576"/>
<polygon fill="black" stroke="black" points="173.475,-756.329 162.901,-755.668 170.755,-762.779 173.475,-756.329"/>
</g>
<!-- n26 (0.85 &#45; 2) -->
<g id="node4" class="node"><title>n26 (0.85 &#45; 2)</title>
<ellipse fill="none" stroke="black" cx="296.602" cy="-732.188" rx="59.5901" ry="18"/>
<text text-anchor="middle" x="296.602" y="-728.488" font-family="Times,serif" font-size="14.00">n26 (0.85 &#45; 2)</text>
</g>
<!-- n31 (0.66 &#45; 4)&#45;&gt;n26 (0.85 &#45; 2) -->
<g id="edge3" class="edge"><title>n31 (0.66 &#45; 4)&#45;&gt;n26 (0.85 &#45; 2)</title>
<path fill="none" stroke="black" d="M296.602,-794.944C296.602,-784.919 296.602,-772.024 296.602,-760.613"/>
<polygon fill="black" stroke="black" points="300.102,-760.268 296.602,-750.268 293.102,-760.268 300.102,-760.268"/>
</g>
<!-- COLLECTIVE_STRENGH -->
<g id="node5" class="node"><title>COLLECTIVE_STRENGH</title>
<ellipse fill="none" stroke="black" cx="123.602" cy="-472.742" rx="109.681" ry="18"/>
<text text-anchor="middle" x="123.602" y="-469.042" font-family="Times,serif" font-size="14.00">COLLECTIVE_STRENGH</text>
</g>
<!-- n26 (0.85 &#45; 2)&#45;&gt;COLLECTIVE_STRENGH -->
<g id="edge4" class="edge"><title>n26 (0.85 &#45; 2)&#45;&gt;COLLECTIVE_STRENGH</title>
<path fill="none" stroke="black" d="M280.891,-714.768C269.654,-702.658 254.479,-685.536 242.602,-669.318 200.279,-611.526 158.567,-538.173 137.583,-499.813"/>
<polygon fill="black" stroke="black" points="140.558,-497.958 132.707,-490.845 134.409,-501.302 140.558,-497.958"/>
</g>
<!-- RECALL -->
<g id="node6" class="node"><title>RECALL</title>
<ellipse fill="none" stroke="black" cx="296.602" cy="-472.742" rx="44.6926" ry="18"/>
<text text-anchor="middle" x="296.602" y="-469.042" font-family="Times,serif" font-size="14.00">RECALL</text>
</g>
<!-- n26 (0.85 &#45; 2)&#45;&gt;RECALL -->
<g id="edge5" class="edge"><title>n26 (0.85 &#45; 2)&#45;&gt;RECALL</title>
<path fill="none" stroke="black" d="M296.602,-713.896C296.602,-670.02 296.602,-554.086 296.602,-500.993"/>
<polygon fill="black" stroke="black" points="300.102,-500.958 296.602,-490.958 293.102,-500.958 300.102,-500.958"/>
</g>
<!-- n32 (0.62 &#45; 12) -->
<g id="node8" class="node"><title>n32 (0.62 &#45; 12)</title>
<ellipse fill="none" stroke="black" cx="492.602" cy="-732.188" rx="64.189" ry="18"/>
<text text-anchor="middle" x="492.602" y="-728.488" font-family="Times,serif" font-size="14.00">n32 (0.62 &#45; 12)</text>
</g>
<!-- n33 (0.53 &#45; 32)&#45;&gt;n32 (0.62 &#45; 12) -->
<g id="edge7" class="edge"><title>n33 (0.53 &#45; 32)&#45;&gt;n32 (0.62 &#45; 12)</title>
<path fill="none" stroke="black" d="M492.602,-794.944C492.602,-784.919 492.602,-772.024 492.602,-760.613"/>
<polygon fill="black" stroke="black" points="496.102,-760.268 492.602,-750.268 489.102,-760.268 496.102,-760.268"/>
</g>
<!-- n27 (0.82 &#45; 20) -->
<g id="node21" class="node"><title>n27 (0.82 &#45; 20)</title>
<ellipse fill="none" stroke="black" cx="752.602" cy="-732.188" rx="64.189" ry="18"/>
<text text-anchor="middle" x="752.602" y="-728.488" font-family="Times,serif" font-size="14.00">n27 (0.82 &#45; 20)</text>
</g>
<!-- n33 (0.53 &#45; 32)&#45;&gt;n27 (0.82 &#45; 20) -->
<g id="edge20" class="edge"><title>n33 (0.53 &#45; 32)&#45;&gt;n27 (0.82 &#45; 20)</title>
<path fill="none" stroke="black" d="M534.664,-799.299C579.977,-785.553 652.123,-763.668 700.873,-748.88"/>
<polygon fill="black" stroke="black" points="702.046,-752.181 710.6,-745.929 700.014,-745.483 702.046,-752.181"/>
</g>
<!-- KLOSGEN -->
<g id="node9" class="node"><title>KLOSGEN</title>
<ellipse fill="none" stroke="black" cx="411.602" cy="-472.742" rx="51.9908" ry="18"/>
<text text-anchor="middle" x="411.602" y="-469.042" font-family="Times,serif" font-size="14.00">KLOSGEN</text>
</g>
<!-- n32 (0.62 &#45; 12)&#45;&gt;KLOSGEN -->
<g id="edge8" class="edge"><title>n32 (0.62 &#45; 12)&#45;&gt;KLOSGEN</title>
<path fill="none" stroke="black" d="M487.036,-714.133C482.997,-701.716 477.419,-684.488 472.602,-669.318 453.462,-609.05 431.487,-538.166 419.845,-500.478"/>
<polygon fill="black" stroke="black" points="423.14,-499.288 416.846,-490.765 416.452,-501.352 423.14,-499.288"/>
</g>
<!-- n30 (0.74 &#45; 11) -->
<g id="node10" class="node"><title>n30 (0.74 &#45; 11)</title>
<ellipse fill="none" stroke="black" cx="545.602" cy="-472.742" rx="64.189" ry="18"/>
<text text-anchor="middle" x="545.602" y="-469.042" font-family="Times,serif" font-size="14.00">n30 (0.74 &#45; 11)</text>
</g>
<!-- n32 (0.62 &#45; 12)&#45;&gt;n30 (0.74 &#45; 11) -->
<g id="edge9" class="edge"><title>n32 (0.62 &#45; 12)&#45;&gt;n30 (0.74 &#45; 11)</title>
<path fill="none" stroke="black" d="M496.161,-713.896C505.194,-670.02 529.061,-554.086 539.991,-500.993"/>
<polygon fill="black" stroke="black" points="543.469,-501.459 542.057,-490.958 536.613,-500.047 543.469,-501.459"/>
</g>
<!-- n28 (0.82 &#45; 2) -->
<g id="node11" class="node"><title>n28 (0.82 &#45; 2)</title>
<ellipse fill="none" stroke="black" cx="456.602" cy="-222.167" rx="59.5901" ry="18"/>
<text text-anchor="middle" x="456.602" y="-218.467" font-family="Times,serif" font-size="14.00">n28 (0.82 &#45; 2)</text>
</g>
<!-- n30 (0.74 &#45; 11)&#45;&gt;n28 (0.82 &#45; 2) -->
<g id="edge10" class="edge"><title>n30 (0.74 &#45; 11)&#45;&gt;n28 (0.82 &#45; 2)</title>
<path fill="none" stroke="black" d="M539.484,-454.657C524.273,-412.173 484.646,-301.493 466.247,-250.106"/>
<polygon fill="black" stroke="black" points="469.428,-248.607 462.762,-240.372 462.837,-250.966 469.428,-248.607"/>
</g>
<!-- n29 (0.78 &#45; 9) -->
<g id="node14" class="node"><title>n29 (0.78 &#45; 9)</title>
<ellipse fill="none" stroke="black" cx="634.602" cy="-222.167" rx="59.5901" ry="18"/>
<text text-anchor="middle" x="634.602" y="-218.467" font-family="Times,serif" font-size="14.00">n29 (0.78 &#45; 9)</text>
</g>
<!-- n30 (0.74 &#45; 11)&#45;&gt;n29 (0.78 &#45; 9) -->
<g id="edge13" class="edge"><title>n30 (0.74 &#45; 11)&#45;&gt;n29 (0.78 &#45; 9)</title>
<path fill="none" stroke="black" d="M551.719,-454.657C566.93,-412.173 606.558,-301.493 624.956,-250.106"/>
<polygon fill="black" stroke="black" points="628.366,-250.966 628.441,-240.372 621.775,-248.607 628.366,-250.966"/>
</g>
<!-- COSINE -->
<g id="node12" class="node"><title>COSINE</title>
<ellipse fill="none" stroke="black" cx="296.602" cy="-150.167" rx="42.4939" ry="18"/>
<text text-anchor="middle" x="296.602" y="-146.467" font-family="Times,serif" font-size="14.00">COSINE</text>
</g>
<!-- n28 (0.82 &#45; 2)&#45;&gt;COSINE -->
<g id="edge11" class="edge"><title>n28 (0.82 &#45; 2)&#45;&gt;COSINE</title>
<path fill="none" stroke="black" d="M424.223,-207.001C398.166,-195.601 361.512,-179.565 334.167,-167.601"/>
<polygon fill="black" stroke="black" points="335.48,-164.356 324.916,-163.554 332.674,-170.769 335.48,-164.356"/>
</g>
<!-- TWO_WAY_SUPPORT -->
<g id="node13" class="node"><title>TWO_WAY_SUPPORT</title>
<ellipse fill="none" stroke="black" cx="456.602" cy="-150.167" rx="100.182" ry="18"/>
<text text-anchor="middle" x="456.602" y="-146.467" font-family="Times,serif" font-size="14.00">TWO_WAY_SUPPORT</text>
</g>
<!-- n28 (0.82 &#45; 2)&#45;&gt;TWO_WAY_SUPPORT -->
<g id="edge12" class="edge"><title>n28 (0.82 &#45; 2)&#45;&gt;TWO_WAY_SUPPORT</title>
<path fill="none" stroke="black" d="M456.602,-203.863C456.602,-196.149 456.602,-186.879 456.602,-178.279"/>
<polygon fill="black" stroke="black" points="460.102,-178.271 456.602,-168.271 453.102,-178.271 460.102,-178.271"/>
</g>
<!-- n25 (0.85 &#45; 2) -->
<g id="node15" class="node"><title>n25 (0.85 &#45; 2)</title>
<ellipse fill="none" stroke="black" cx="634.602" cy="-150.167" rx="59.5901" ry="18"/>
<text text-anchor="middle" x="634.602" y="-146.467" font-family="Times,serif" font-size="14.00">n25 (0.85 &#45; 2)</text>
</g>
<!-- n29 (0.78 &#45; 9)&#45;&gt;n25 (0.85 &#45; 2) -->
<g id="edge14" class="edge"><title>n29 (0.78 &#45; 9)&#45;&gt;n25 (0.85 &#45; 2)</title>
<path fill="none" stroke="black" d="M634.602,-203.863C634.602,-196.149 634.602,-186.879 634.602,-178.279"/>
<polygon fill="black" stroke="black" points="638.102,-178.271 634.602,-168.271 631.102,-178.271 638.102,-178.271"/>
</g>
<!-- n24 (0.87 &#45; 7) -->
<g id="node18" class="node"><title>n24 (0.87 &#45; 7)</title>
<ellipse fill="none" stroke="black" cx="859.602" cy="-150.167" rx="59.5901" ry="18"/>
<text text-anchor="middle" x="859.602" y="-146.467" font-family="Times,serif" font-size="14.00">n24 (0.87 &#45; 7)</text>
</g>
<!-- n29 (0.78 &#45; 9)&#45;&gt;n24 (0.87 &#45; 7) -->
<g id="edge17" class="edge"><title>n29 (0.78 &#45; 9)&#45;&gt;n24 (0.87 &#45; 7)</title>
<path fill="none" stroke="black" d="M674.568,-208.733C712.366,-196.973 769.209,-179.289 809.91,-166.626"/>
<polygon fill="black" stroke="black" points="811.12,-169.915 819.629,-163.602 809.041,-163.231 811.12,-169.915"/>
</g>
<!-- JACCARD -->
<g id="node16" class="node"><title>JACCARD</title>
<ellipse fill="none" stroke="black" cx="526.602" cy="-48.0833" rx="50.8918" ry="18"/>
<text text-anchor="middle" x="526.602" y="-44.3833" font-family="Times,serif" font-size="14.00">JACCARD</text>
</g>
<!-- n25 (0.85 &#45; 2)&#45;&gt;JACCARD -->
<g id="edge15" class="edge"><title>n25 (0.85 &#45; 2)&#45;&gt;JACCARD</title>
<path fill="none" stroke="black" d="M616.768,-132.64C598.996,-116.171 571.553,-90.7395 551.609,-72.2578"/>
<polygon fill="black" stroke="black" points="553.818,-69.5324 544.104,-65.3025 549.06,-74.6668 553.818,-69.5324"/>
</g>
<!-- KAPPA -->
<g id="node17" class="node"><title>KAPPA</title>
<ellipse fill="none" stroke="black" cx="634.602" cy="-48.0833" rx="39.7935" ry="18"/>
<text text-anchor="middle" x="634.602" y="-44.3833" font-family="Times,serif" font-size="14.00">KAPPA</text>
</g>
<!-- n25 (0.85 &#45; 2)&#45;&gt;KAPPA -->
<g id="edge16" class="edge"><title>n25 (0.85 &#45; 2)&#45;&gt;KAPPA</title>
<path fill="none" stroke="black" d="M634.602,-131.733C634.602,-116.521 634.602,-94.1877 634.602,-76.5706"/>
<polygon fill="black" stroke="black" points="638.102,-76.3166 634.602,-66.3167 631.102,-76.3167 638.102,-76.3166"/>
</g>
<!-- J_MEASURE\nTWO_WAY_SUPPORT_VARIATION\nFISHER_PVAL -->
<g id="node19" class="node"><title>J_MEASURE\nTWO_WAY_SUPPORT_VARIATION\nFISHER_PVAL</title>
<ellipse fill="none" stroke="black" cx="859.602" cy="-48.0833" rx="166.754" ry="37.4533"/>
<text text-anchor="middle" x="859.602" y="-59.3833" font-family="Times,serif" font-size="14.00">J_MEASURE</text>
<text text-anchor="middle" x="859.602" y="-44.3833" font-family="Times,serif" font-size="14.00">TWO_WAY_SUPPORT_VARIATION</text>
<text text-anchor="middle" x="859.602" y="-29.3833" font-family="Times,serif" font-size="14.00">FISHER_PVAL</text>
</g>
<!-- n24 (0.87 &#45; 7)&#45;&gt;J_MEASURE\nTWO_WAY_SUPPORT_VARIATION\nFISHER_PVAL -->
<g id="edge18" class="edge"><title>n24 (0.87 &#45; 7)&#45;&gt;J_MEASURE\nTWO_WAY_SUPPORT_VARIATION\nFISHER_PVAL</title>
<path fill="none" stroke="black" d="M859.602,-131.733C859.602,-121.746 859.602,-108.69 859.602,-95.9133"/>
<polygon fill="black" stroke="black" points="863.102,-95.7911 859.602,-85.7911 856.102,-95.7912 863.102,-95.7911"/>
</g>
<!-- IMPLICATION_INDEX\nPHI\nGINI\nCHI_SQUARE -->
<g id="node20" class="node"><title>IMPLICATION_INDEX\nPHI\nGINI\nCHI_SQUARE</title>
<ellipse fill="none" stroke="black" cx="1153.6" cy="-48.0833" rx="108.789" ry="48.1667"/>
<text text-anchor="middle" x="1153.6" y="-66.8833" font-family="Times,serif" font-size="14.00">IMPLICATION_INDEX</text>
<text text-anchor="middle" x="1153.6" y="-51.8833" font-family="Times,serif" font-size="14.00">PHI</text>
<text text-anchor="middle" x="1153.6" y="-36.8833" font-family="Times,serif" font-size="14.00">GINI</text>
<text text-anchor="middle" x="1153.6" y="-21.8833" font-family="Times,serif" font-size="14.00">CHI_SQUARE</text>
</g>
<!-- n24 (0.87 &#45; 7)&#45;&gt;IMPLICATION_INDEX\nPHI\nGINI\nCHI_SQUARE -->
<g id="edge19" class="edge"><title>n24 (0.87 &#45; 7)&#45;&gt;IMPLICATION_INDEX\nPHI\nGINI\nCHI_SQUARE</title>
<path fill="none" stroke="black" d="M902.254,-137.449C938.106,-127.332 990.564,-111.9 1035.6,-96.1665 1045.31,-92.7765 1055.39,-89.0602 1065.39,-85.249"/>
<polygon fill="black" stroke="black" points="1066.86,-88.4324 1074.94,-81.5733 1064.35,-81.8997 1066.86,-88.4324"/>
</g>
<!-- LEAST_CONTRADICTION\nACCURACY -->
<g id="node22" class="node"><title>LEAST_CONTRADICTION\nACCURACY</title>
<ellipse fill="none" stroke="black" cx="752.602" cy="-472.742" rx="124.402" ry="26.7407"/>
<text text-anchor="middle" x="752.602" y="-476.542" font-family="Times,serif" font-size="14.00">LEAST_CONTRADICTION</text>
<text text-anchor="middle" x="752.602" y="-461.542" font-family="Times,serif" font-size="14.00">ACCURACY</text>
</g>
<!-- n27 (0.82 &#45; 20)&#45;&gt;LEAST_CONTRADICTION\nACCURACY -->
<g id="edge21" class="edge"><title>n27 (0.82 &#45; 20)&#45;&gt;LEAST_CONTRADICTION\nACCURACY</title>
<path fill="none" stroke="black" d="M752.602,-713.896C752.602,-672.378 752.602,-566.342 752.602,-510.079"/>
<polygon fill="black" stroke="black" points="756.102,-509.852 752.602,-499.852 749.102,-509.852 756.102,-509.852"/>
</g>
<!-- RELATIVE_RISK\nYULE_Y\nYULE_Q\nODDS_RATIO\nLEVERAGE\nONE_WAY_SUPPORT\nCONVICTION\nLOEVINGER\nSEBAG_SCHOENAUER\nODD_MULTIPLIER\nCOUNTER_EXAMPLE_RATE\nZHANG\nBAYES\nCENTERED_CONFIDENCE\nCERTAINTY_FACTOR\nADDED_VALUE\nLIFT\nCONFIDENCE -->
<g id="node23" class="node"><title>RELATIVE_RISK\nYULE_Y\nYULE_Q\nODDS_RATIO\nLEVERAGE\nONE_WAY_SUPPORT\nCONVICTION\nLOEVINGER\nSEBAG_SCHOENAUER\nODD_MULTIPLIER\nCOUNTER_EXAMPLE_RATE\nZHANG\nBAYES\nCENTERED_CONFIDENCE\nCERTAINTY_FACTOR\nADDED_VALUE\nLIFT\nCONFIDENCE</title>
<ellipse fill="none" stroke="black" cx="1032.6" cy="-472.742" rx="137.358" ry="196.651"/>
<text text-anchor="middle" x="1032.6" y="-596.542" font-family="Times,serif" font-size="14.00">RELATIVE_RISK</text>
<text text-anchor="middle" x="1032.6" y="-581.542" font-family="Times,serif" font-size="14.00">YULE_Y</text>
<text text-anchor="middle" x="1032.6" y="-566.542" font-family="Times,serif" font-size="14.00">YULE_Q</text>
<text text-anchor="middle" x="1032.6" y="-551.542" font-family="Times,serif" font-size="14.00">ODDS_RATIO</text>
<text text-anchor="middle" x="1032.6" y="-536.542" font-family="Times,serif" font-size="14.00">LEVERAGE</text>
<text text-anchor="middle" x="1032.6" y="-521.542" font-family="Times,serif" font-size="14.00">ONE_WAY_SUPPORT</text>
<text text-anchor="middle" x="1032.6" y="-506.542" font-family="Times,serif" font-size="14.00">CONVICTION</text>
<text text-anchor="middle" x="1032.6" y="-491.542" font-family="Times,serif" font-size="14.00">LOEVINGER</text>
<text text-anchor="middle" x="1032.6" y="-476.542" font-family="Times,serif" font-size="14.00">SEBAG_SCHOENAUER</text>
<text text-anchor="middle" x="1032.6" y="-461.542" font-family="Times,serif" font-size="14.00">ODD_MULTIPLIER</text>
<text text-anchor="middle" x="1032.6" y="-446.542" font-family="Times,serif" font-size="14.00">COUNTER_EXAMPLE_RATE</text>
<text text-anchor="middle" x="1032.6" y="-431.542" font-family="Times,serif" font-size="14.00">ZHANG</text>
<text text-anchor="middle" x="1032.6" y="-416.542" font-family="Times,serif" font-size="14.00">BAYES</text>
<text text-anchor="middle" x="1032.6" y="-401.542" font-family="Times,serif" font-size="14.00">CENTERED_CONFIDENCE</text>
<text text-anchor="middle" x="1032.6" y="-386.542" font-family="Times,serif" font-size="14.00">CERTAINTY_FACTOR</text>
<text text-anchor="middle" x="1032.6" y="-371.542" font-family="Times,serif" font-size="14.00">ADDED_VALUE</text>
<text text-anchor="middle" x="1032.6" y="-356.542" font-family="Times,serif" font-size="14.00">LIFT</text>
<text text-anchor="middle" x="1032.6" y="-341.542" font-family="Times,serif" font-size="14.00">CONFIDENCE</text>
</g>
<!-- n27 (0.82 &#45; 20)&#45;&gt;RELATIVE_RISK\nYULE_Y\nYULE_Q\nODDS_RATIO\nLEVERAGE\nONE_WAY_SUPPORT\nCONVICTION\nLOEVINGER\nSEBAG_SCHOENAUER\nODD_MULTIPLIER\nCOUNTER_EXAMPLE_RATE\nZHANG\nBAYES\nCENTERED_CONFIDENCE\nCERTAINTY_FACTOR\nADDED_VALUE\nLIFT\nCONFIDENCE -->
<g id="edge22" class="edge"><title>n27 (0.82 &#45; 20)&#45;&gt;RELATIVE_RISK\nYULE_Y\nYULE_Q\nODDS_RATIO\nLEVERAGE\nONE_WAY_SUPPORT\nCONVICTION\nLOEVINGER\nSEBAG_SCHOENAUER\nODD_MULTIPLIER\nCOUNTER_EXAMPLE_RATE\nZHANG\nBAYES\nCENTERED_CONFIDENCE\nCERTAINTY_FACTOR\nADDED_VALUE\nLIFT\nCONFIDENCE</title>
<path fill="none" stroke="black" d="M793.314,-718.193C821.249,-707.924 858.095,-691.599 885.602,-669.318 902.059,-655.986 917.683,-640.428 932.173,-624.017"/>
<polygon fill="black" stroke="black" points="934.849,-626.273 938.749,-616.422 929.557,-621.69 934.849,-626.273"/>
</g>
</g>
</svg>
