<?xml version="1.0" encoding="UTF-8" standalone="no"?>
<!-- Generated by graphviz version 2.38.0 (20140413.2041)
 -->

<!-- Title: dendrogram Pages: 1 -->

<svg
   xmlns:dc="http://purl.org/dc/elements/1.1/"
   xmlns:cc="http://creativecommons.org/ns#"
   xmlns:rdf="http://www.w3.org/1999/02/22-rdf-syntax-ns#"
   xmlns:svg="http://www.w3.org/2000/svg"
   xmlns="http://www.w3.org/2000/svg"
   xmlns:sodipodi="http://sodipodi.sourceforge.net/DTD/sodipodi-0.dtd"
   xmlns:inkscape="http://www.inkscape.org/namespaces/inkscape"
   width="1263pt"
   height="929pt"
   viewBox="0.00 0.00 1262.84 928.80"
   id="svg23008"
   version="1.1"
   inkscape:version="0.48.5 r10040"
   sodipodi:docname="patterns_demo-perTarget-NDCG.svg">
  <metadata
     id="metadata23356">
    <rdf:RDF>
      <cc:Work
         rdf:about="">
        <dc:format>image/svg+xml</dc:format>
        <dc:type
           rdf:resource="http://purl.org/dc/dcmitype/StillImage" />
      </cc:Work>
    </rdf:RDF>
  </metadata>
  <defs
     id="defs23354" />
  <sodipodi:namedview
     pagecolor="#ffffff"
     bordercolor="#666666"
     borderopacity="1"
     objecttolerance="10"
     gridtolerance="10"
     guidetolerance="10"
     inkscape:pageopacity="0"
     inkscape:pageshadow="2"
     inkscape:window-width="1600"
     inkscape:window-height="847"
     id="namedview23352"
     showgrid="false"
     inkscape:zoom="0.47009485"
     inkscape:cx="961.63923"
     inkscape:cy="629.47716"
     inkscape:window-x="0"
     inkscape:window-y="1024"
     inkscape:window-maximized="1"
     inkscape:current-layer="svg23008" />
  <g
     class="node"
     id="node1"
     transform="translate(4,924.798)">
    <title
       id="title23016">n34 (-0.30 - 36)</title>
    <ellipse
       style="fill:none;stroke:#000000"
       sodipodi:ry="18"
       sodipodi:rx="67.688103"
       sodipodi:cy="-902.79797"
       sodipodi:cx="522.24597"
       d="m 589.93407,-902.79797 c 0,9.94112 -30.30499,18 -67.6881,18 -37.38311,0 -67.6881,-8.05888 -67.6881,-18 0,-9.94113 30.30499,-18 67.6881,-18 37.38311,0 67.6881,8.05887 67.6881,18 z"
       id="ellipse23018"
       ry="18"
       rx="67.688103"
       cy="-902.79797"
       cx="522.24597" />
    <text
       style="font-size:14px;text-anchor:middle;font-family:'Times,serif'"
       id="text23020"
       font-size="14.00"
       y="-899.09802"
       x="522.24597">n34 (-0.30 - 36)</text>
  </g>
  <g
     class="node"
     id="node2"
     transform="translate(4,924.798)">
    <title
       id="title23023">n32 (0.03 - 16)</title>
    <ellipse
       style="fill:none;stroke:#000000"
       sodipodi:ry="18"
       sodipodi:rx="64.189003"
       sodipodi:cy="-830.79797"
       sodipodi:cx="419.246"
       d="m 483.43501,-830.79797 c 0,9.94112 -28.7384,18 -64.18901,18 -35.45061,0 -64.189,-8.05888 -64.189,-18 0,-9.94113 28.73839,-18 64.189,-18 35.45061,0 64.18901,8.05887 64.18901,18 z"
       id="ellipse23025"
       ry="18"
       rx="64.189003"
       cy="-830.79797"
       cx="419.246" />
    <text
       style="font-size:14px;text-anchor:middle;font-family:'Times,serif'"
       id="text23027"
       font-size="14.00"
       y="-827.09802"
       x="419.246">n32 (0.03 - 16)</text>
  </g>
  <g
     class="edge"
     id="edge1"
     transform="translate(4,924.798)">
    <title
       id="title23030">n34 (-0.30 - 36)-&gt;n32 (0.03 - 16)</title>
    <path
       style="fill:none;stroke:#000000"
       inkscape:connector-curvature="0"
       id="path23032"
       d="m 498.616,-885.739 c -14.001,9.515 -31.935,21.703 -47.211,32.086" />
    <polygon
       style="fill:#000000;stroke:#000000"
       id="polygon23034"
       points="449.07,-856.299 453.005,-850.509 453.005,-850.509 442.767,-847.783 " />
  </g>
  <g
     class="node"
     id="node19"
     transform="translate(4,924.798)">
    <title
       id="title23037">n33 (-0.02 - 20)</title>
    <ellipse
       style="fill:none;stroke:#000000"
       sodipodi:ry="18"
       sodipodi:rx="67.688103"
       sodipodi:cy="-830.79797"
       sodipodi:cx="626.24597"
       d="m 693.93407,-830.79797 c 0,9.94112 -30.30499,18 -67.6881,18 -37.38311,0 -67.6881,-8.05888 -67.6881,-18 0,-9.94113 30.30499,-18 67.6881,-18 37.38311,0 67.6881,8.05887 67.6881,18 z"
       id="ellipse23039"
       ry="18"
       rx="67.688103"
       cy="-830.79797"
       cx="626.24597" />
    <text
       style="font-size:14px;text-anchor:middle;font-family:'Times,serif'"
       id="text23041"
       font-size="14.00"
       y="-827.09802"
       x="626.24597">n33 (-0.02 - 20)</text>
  </g>
  <g
     class="edge"
     id="edge18"
     transform="translate(4,924.798)">
    <title
       id="title23044">n34 (-0.30 - 36)-&gt;n33 (-0.02 - 20)</title>
    <path
       style="fill:none;stroke:#000000"
       inkscape:connector-curvature="0"
       id="path23046"
       d="m 545.845,-885.914 c 14.26,9.598 32.63,21.962 48.21,32.449" />
    <polygon
       style="fill:#000000;stroke:#000000"
       id="polygon23048"
       points="592.13,-850.542 596.039,-856.349 596.039,-856.349 602.38,-847.862 " />
  </g>
  <g
     class="node"
     id="node3"
     transform="translate(83.754383,815.83779)">
    <title
       id="title23051">n26 (0.87 - 3)</title>
    <ellipse
       style="fill:none;stroke:#000000"
       sodipodi:ry="18"
       sodipodi:rx="59.590099"
       sodipodi:cy="-580.22198"
       sodipodi:cx="222.246"
       d="m 281.8361,-580.22198 c 0,9.94112 -26.67939,18 -59.5901,18 -32.9107,0 -59.5901,-8.05888 -59.5901,-18 0,-9.94113 26.6794,-18 59.5901,-18 32.91071,0 59.5901,8.05887 59.5901,18 z"
       id="ellipse23053"
       ry="18"
       rx="59.590099"
       cy="-580.22198"
       cx="222.246" />
    <text
       style="font-size:14px;text-anchor:middle;font-family:'Times,serif'"
       id="text23055"
       font-size="14.00"
       y="-576.52197"
       x="222.246">n26 (0.87 - 3)</text>
  </g>
  <path
     d="m 397.038,110.539 c -12.09737,7.03967 -77.20682,88.95236 -82.02479,99.24918"
     id="path23060"
     inkscape:connector-curvature="0"
     style="fill:none;stroke:#000000"
     sodipodi:nodetypes="cc" />
  <polygon
     points="230.198,-598.125 231.48,-608.642 237.759,-605.547 237.759,-605.547 "
     id="polygon23062"
     style="fill:#000000;stroke:#000000"
     transform="translate(80.649359,814.7883)" />
  <g
     class="node"
     id="node6"
     transform="translate(4,924.798)">
    <title
       id="title23065">n31 (0.20 - 13)</title>
    <ellipse
       style="fill:none;stroke:#000000"
       sodipodi:ry="18"
       sodipodi:rx="64.189003"
       sodipodi:cy="-580.22198"
       sodipodi:cx="419.246"
       d="m 483.43501,-580.22198 c 0,9.94112 -28.7384,18 -64.18901,18 -35.45061,0 -64.189,-8.05888 -64.189,-18 0,-9.94113 28.73839,-18 64.189,-18 35.45061,0 64.18901,8.05887 64.18901,18 z"
       id="ellipse23067"
       ry="18"
       rx="64.189003"
       cy="-580.22198"
       cx="419.246" />
    <text
       style="font-size:14px;text-anchor:middle;font-family:'Times,serif'"
       id="text23069"
       font-size="14.00"
       y="-576.52197"
       x="419.246">n31 (0.20 - 13)</text>
  </g>
  <g
     class="edge"
     id="edge5"
     transform="translate(4,924.798)">
    <title
       id="title23072">n32 (0.03 - 16)-&gt;n31 (0.20 - 13)</title>
    <path
       style="fill:none;stroke:#000000"
       inkscape:connector-curvature="0"
       id="path23074"
       d="m 419.246,-812.713 c 0,42.396 0,152.702 0,204.228" />
    <polygon
       style="fill:#000000;stroke:#000000"
       id="polygon23076"
       points="415.746,-608.428 422.746,-608.428 422.746,-608.428 419.246,-598.428 " />
  </g>
  <ellipse
     cx="42.2463"
     cy="-320.77701"
     rx="42.4939"
     ry="18"
     id="ellipse23081"
     d="m 84.7402,-320.77701 c 0,9.94113 -19.025167,18 -42.4939,18 -23.468733,0 -42.49390056,-8.05887 -42.49390056,-18 0,-9.94112 19.02516756,-18 42.49390056,-18 23.468733,0 42.4939,8.05888 42.4939,18 z"
     sodipodi:cx="42.2463"
     sodipodi:cy="-320.77701"
     sodipodi:rx="42.4939"
     sodipodi:ry="18"
     style="fill:#aaffaa;stroke:#000000"
     transform="translate(194.16123,690.33936)" />
  <text
     x="236.40753"
     y="373.26236"
     font-size="14.00"
     id="text23083"
     style="font-size:14px;text-anchor:middle;font-family:'Times,serif'">COSINE</text>
  <path
     d="m 294.19038,253.50679 c -30.905,44.203 -23.734,36.36798 -60.1847,88.50098"
     id="path23088"
     inkscape:connector-curvature="0"
     style="fill:none;stroke:#000000"
     sodipodi:nodetypes="cc" />
  <polygon
     points="56.7277,-348.597 62.4646,-344.586 62.4646,-344.586 53.866,-338.396 "
     id="polygon23090"
     style="fill:#000000;stroke:#000000"
     transform="translate(175.09818,688.75077)" />
  <ellipse
     cx="222.246"
     cy="-320.77701"
     rx="119.502"
     ry="26.7407"
     id="ellipse23095"
     d="m 341.748,-320.77701 c 0,14.76848 -53.50287,26.7407 -119.502,26.7407 -65.99913,0 -119.502,-11.97222 -119.502,-26.7407 0,-14.76848 53.50287,-26.7407 119.502,-26.7407 65.99913,0 119.502,11.97222 119.502,26.7407 z"
     sodipodi:cx="222.246"
     sodipodi:cy="-320.77701"
     sodipodi:rx="119.502"
     sodipodi:ry="26.7407"
     style="fill:#aaaaff;stroke:#000000"
     transform="matrix(0.77056427,0,0,1,134.74556,815.83779)" />
  <text
     x="306.0004"
     y="491.2608"
     font-size="14.00"
     id="text23097"
     style="font-size:14px;text-anchor:middle;font-family:'Times,serif'">COLLECTIVE_STRENGH</text>
  <text
     x="306.0004"
     y="506.2608"
     font-size="14.00"
     id="text23099"
     style="font-size:14px;text-anchor:middle;font-family:'Times,serif'">RECALL</text>
  <g
     class="edge"
     id="edge4"
     transform="translate(83.754383,815.83779)">
    <title
       id="title23102">n26 (0.87 - 3)-&gt;COLLECTIVE_STRENGH\nRECALL</title>
    <path
       style="fill:none;stroke:#000000"
       inkscape:connector-curvature="0"
       id="path23104"
       d="m 222.246,-561.931 c 0,41.518 0,147.554 0,203.817" />
    <polygon
       style="fill:#000000;stroke:#000000"
       id="polygon23106"
       points="225.746,-357.886 225.746,-357.886 222.246,-347.886 218.746,-357.886 " />
  </g>
  <g
     class="node"
     id="node7"
     transform="translate(4,924.798)">
    <title
       id="title23109">n29 (0.45 - 2)</title>
    <ellipse
       style="fill:none;stroke:#000000"
       sodipodi:ry="18"
       sodipodi:rx="59.590099"
       sodipodi:cy="-320.77701"
       sodipodi:cx="419.246"
       d="m 478.8361,-320.77701 c 0,9.94113 -26.67939,18 -59.5901,18 -32.9107,0 -59.5901,-8.05887 -59.5901,-18 0,-9.94112 26.6794,-18 59.5901,-18 32.91071,0 59.5901,8.05888 59.5901,18 z"
       id="ellipse23111"
       ry="18"
       rx="59.590099"
       cy="-320.77701"
       cx="419.246" />
    <text
       style="font-size:14px;text-anchor:middle;font-family:'Times,serif'"
       id="text23113"
       font-size="14.00"
       y="-317.077"
       x="419.246">n29 (0.45 - 2)</text>
  </g>
  <g
     class="edge"
     id="edge6"
     transform="translate(4,924.798)">
    <title
       id="title23116">n31 (0.20 - 13)-&gt;n29 (0.45 - 2)</title>
    <path
       style="fill:none;stroke:#000000"
       inkscape:connector-curvature="0"
       id="path23118"
       d="m 419.246,-561.931 c 0,43.877 0,159.811 0,212.904" />
    <polygon
       style="fill:#000000;stroke:#000000"
       id="polygon23120"
       points="415.746,-348.993 422.746,-348.993 422.746,-348.993 419.246,-338.993 " />
  </g>
  <g
     class="node"
     id="node10"
     transform="translate(4,797.18035)">
    <title
       id="title23123">n30 (0.38 - 11)</title>
    <ellipse
       style="fill:none;stroke:#000000"
       sodipodi:ry="18"
       sodipodi:rx="64.189003"
       sodipodi:cy="-320.77701"
       sodipodi:cx="644.24597"
       d="m 708.43497,-320.77701 c 0,9.94113 -28.73839,18 -64.189,18 -35.45061,0 -64.189,-8.05887 -64.189,-18 0,-9.94112 28.73839,-18 64.189,-18 35.45061,0 64.189,8.05888 64.189,18 z"
       id="ellipse23125"
       ry="18"
       rx="64.189003"
       cy="-320.77701"
       cx="644.24597" />
    <text
       style="font-size:14px;text-anchor:middle;font-family:'Times,serif'"
       id="text23127"
       font-size="14.00"
       y="-317.077"
       x="644.24597">n30 (0.38 - 11)</text>
  </g>
  <ellipse
     cx="311.246"
     cy="-209.823"
     rx="50.8918"
     ry="18"
     id="ellipse23139"
     d="m 362.1378,-209.823 c 0,9.94113 -22.78503,18 -50.8918,18 -28.10676,0 -50.8918,-8.05887 -50.8918,-18 0,-9.94112 22.78504,-18 50.8918,-18 28.10677,0 50.8918,8.05888 50.8918,18 z"
     sodipodi:cx="311.246"
     sodipodi:cy="-209.823"
     sodipodi:rx="50.8918"
     sodipodi:ry="18"
     style="fill:#aaffaa;stroke:#000000"
     transform="translate(4,924.798)" />
  <text
     x="315.246"
     y="718.67499"
     font-size="14.00"
     id="text23141"
     style="font-size:14px;text-anchor:middle;font-family:'Times,serif'">JACCARD</text>
  <g
     class="edge"
     id="edge7"
     transform="translate(4,924.798)">
    <title
       id="title23144">n29 (0.45 - 2)-&gt;JACCARD</title>
    <path
       style="fill:none;stroke:#000000"
       inkscape:connector-curvature="0"
       id="path23146"
       d="m 402.843,-303.229 c -18.184,18.345 -47.659,48.081 -68.248,68.851" />
    <polygon
       style="fill:#000000;stroke:#000000"
       id="polygon23148"
       points="332.004,-236.736 336.975,-231.808 336.975,-231.808 327.45,-227.17 " />
  </g>
  <ellipse
     cx="419.246"
     cy="-209.823"
     rx="39.793499"
     ry="18"
     id="ellipse23153"
     d="m 459.0395,-209.823 c 0,9.94113 -17.81616,18 -39.7935,18 -21.97734,0 -39.7935,-8.05887 -39.7935,-18 0,-9.94112 17.81616,-18 39.7935,-18 21.97734,0 39.7935,8.05888 39.7935,18 z"
     sodipodi:cx="419.246"
     sodipodi:cy="-209.823"
     sodipodi:rx="39.793499"
     sodipodi:ry="18"
     style="fill:#aaffaa;stroke:#000000"
     transform="translate(4,924.798)" />
  <text
     x="423.246"
     y="718.67499"
     font-size="14.00"
     id="text23155"
     style="font-size:14px;text-anchor:middle;font-family:'Times,serif'">KAPPA</text>
  <g
     class="edge"
     id="edge8"
     transform="translate(4,924.798)">
    <title
       id="title23158">n29 (0.45 - 2)-&gt;KAPPA</title>
    <path
       style="fill:none;stroke:#000000"
       inkscape:connector-curvature="0"
       id="path23160"
       d="m 419.246,-302.753 c 0,17.249 0,44.207 0,64.479" />
    <polygon
       style="fill:#000000;stroke:#000000"
       id="polygon23162"
       points="415.746,-238.087 422.746,-238.087 422.746,-238.087 419.246,-228.087 " />
  </g>
  <ellipse
     cx="644.24597"
     cy="-209.823"
     rx="166.754"
     ry="48.166698"
     id="ellipse23167"
     d="m 810.99997,-209.823 c 0,26.60173 -74.65831,48.1667 -166.754,48.1667 -92.09569,0 -166.754,-21.56497 -166.754,-48.1667 0,-26.60173 74.65831,-48.1667 166.754,-48.1667 92.09569,0 166.754,21.56497 166.754,48.1667 z"
     sodipodi:cx="644.24597"
     sodipodi:cy="-209.823"
     sodipodi:rx="166.754"
     sodipodi:ry="48.166698"
     style="fill:#aaffaa;stroke:#000000"
     transform="translate(4,797.18035)" />
  <text
     x="648.24597"
     y="568.55731"
     font-size="14.00"
     id="text23169"
     style="font-size:14px;text-anchor:middle;font-family:'Times,serif'">J_MEASURE</text>
  <text
     x="648.24597"
     y="583.55731"
     font-size="14.00"
     id="text23171"
     style="font-size:14px;text-anchor:middle;font-family:'Times,serif'">TWO_WAY_SUPPORT_VARIATION</text>
  <text
     x="648.24597"
     y="598.55731"
     font-size="14.00"
     id="text23173"
     style="font-size:14px;text-anchor:middle;font-family:'Times,serif'">GINI</text>
  <text
     x="648.24597"
     y="613.55731"
     font-size="14.00"
     id="text23175"
     style="font-size:14px;text-anchor:middle;font-family:'Times,serif'">CHI_SQUARE</text>
  <g
     class="edge"
     id="edge10"
     transform="translate(4,797.18035)">
    <title
       id="title23178">n30 (0.38 - 11)-&gt;J_MEASURE\nTWO_WAY_SUPPORT_VARIATION\nGINI\nCHI_SQUARE</title>
    <path
       style="fill:none;stroke:#000000"
       inkscape:connector-curvature="0"
       id="path23180"
       d="m 644.246,-302.753 c 0,9.445 0,21.802 0,34.377" />
    <polygon
       style="fill:#000000;stroke:#000000"
       id="polygon23182"
       points="647.746,-268.295 647.746,-268.295 644.246,-258.295 640.746,-268.295 " />
  </g>
  <g
     class="node"
     id="node12"
     transform="translate(4,797.18035)">
    <title
       id="title23185">n28 (0.67 - 7)</title>
    <ellipse
       style="fill:none;stroke:#000000"
       sodipodi:ry="18"
       sodipodi:rx="59.590099"
       sodipodi:cy="-209.823"
       sodipodi:cx="889.24597"
       d="m 948.83607,-209.823 c 0,9.94113 -26.6794,18 -59.5901,18 -32.9107,0 -59.5901,-8.05887 -59.5901,-18 0,-9.94112 26.6794,-18 59.5901,-18 32.9107,0 59.5901,8.05888 59.5901,18 z"
       id="ellipse23187"
       ry="18"
       rx="59.590099"
       cy="-209.823"
       cx="889.24597" />
    <text
       style="font-size:14px;text-anchor:middle;font-family:'Times,serif'"
       id="text23189"
       font-size="14.00"
       y="-206.123"
       x="889.24597">n28 (0.67 - 7)</text>
  </g>
  <g
     class="edge"
     id="edge11"
     transform="translate(4,797.18035)">
    <title
       id="title23192">n30 (0.38 - 11)-&gt;n28 (0.67 - 7)</title>
    <path
       style="fill:none;stroke:#000000"
       inkscape:connector-curvature="0"
       id="path23194"
       d="m 688.584,-307.697 c 36.397,10.735 88.746,28.076 131.662,49.79 13.849,7.008 28.178,16.385 40.166,24.926" />
    <polygon
       style="fill:#000000;stroke:#000000"
       id="polygon23196"
       points="862.662,-235.672 862.662,-235.672 868.686,-226.956 858.542,-230.013 " />
  </g>
  <g
     class="node"
     id="node13"
     transform="translate(4,797.18035)">
    <title
       id="title23199">n27 (0.79 - 3)</title>
    <ellipse
       style="fill:none;stroke:#000000"
       sodipodi:ry="18"
       sodipodi:rx="59.590099"
       sodipodi:cy="-107.74"
       sodipodi:cx="788.24597"
       d="m 847.83607,-107.74 c 0,9.941128 -26.6794,18.000002 -59.5901,18.000002 -32.9107,0 -59.5901,-8.058874 -59.5901,-18.000002 0,-9.94112 26.6794,-18 59.5901,-18 32.9107,0 59.5901,8.05888 59.5901,18 z"
       id="ellipse23201"
       ry="18"
       rx="59.590099"
       cy="-107.74"
       cx="788.24597" />
    <text
       style="font-size:14px;text-anchor:middle;font-family:'Times,serif'"
       id="text23203"
       font-size="14.00"
       y="-104.04"
       x="788.24597">n27 (0.79 - 3)</text>
  </g>
  <g
     class="edge"
     id="edge12"
     transform="translate(4,797.18035)">
    <title
       id="title23206">n28 (0.67 - 7)-&gt;n27 (0.79 - 3)</title>
    <path
       style="fill:none;stroke:#000000"
       inkscape:connector-curvature="0"
       id="path23208"
       d="m 872.568,-192.297 c -16.374,16.226 -41.529,41.152 -60.105,59.56" />
    <polygon
       style="fill:#000000;stroke:#000000"
       id="polygon23210"
       points="814.516,-129.844 814.516,-129.844 804.949,-125.291 809.589,-134.816 " />
  </g>
  <g
     class="node"
     id="node16"
     transform="translate(-25.486656,769.09782)">
    <title
       id="title23213">n25 (0.90 - 4)</title>
    <ellipse
       style="fill:none;stroke:#000000"
       sodipodi:ry="18"
       sodipodi:rx="59.590099"
       sodipodi:cy="-107.74"
       sodipodi:cx="990.24597"
       d="m 1049.8361,-107.74 c 0,9.941128 -26.6794,18.000002 -59.59013,18.000002 -32.9107,0 -59.5901,-8.058874 -59.5901,-18.000002 0,-9.94112 26.6794,-18 59.5901,-18 32.91073,0 59.59013,8.05888 59.59013,18 z"
       id="ellipse23215"
       ry="18"
       rx="59.590099"
       cy="-107.74"
       cx="990.24597" />
    <text
       style="font-size:14px;text-anchor:middle;font-family:'Times,serif'"
       id="text23217"
       font-size="14.00"
       y="-104.04"
       x="990.24597">n25 (0.90 - 4)</text>
  </g>
  <g
     class="edge"
     id="edge15"
     transform="translate(4,797.18035)">
    <title
       id="title23220">n28 (0.67 - 7)-&gt;n25 (0.90 - 4)</title>
    <path
       style="fill:none;stroke:#000000"
       inkscape:connector-curvature="0"
       id="path23222"
       d="m 905.924,-192.297 c 16.375,16.226 12.93442,12.55742 31.51142,30.96542"
       sodipodi:nodetypes="cc" />
    <polygon
       style="fill:#000000;stroke:#000000"
       id="polygon23224"
       points="968.904,-134.816 973.543,-125.291 963.977,-129.844 968.904,-134.816 "
       transform="translate(-29.388873,-29.388873)" />
  </g>
  <ellipse
     cx="596.24597"
     cy="-26.8701"
     rx="100.182"
     ry="18"
     id="ellipse23229"
     d="m 696.42797,-26.8701 c 0,9.941125 -44.85301,18 -100.182,18 -55.32899,0 -100.182,-8.058875 -100.182,-18 0,-9.941126 44.85301,-18 100.182,-18 55.32899,0 100.182,8.058874 100.182,18 z"
     sodipodi:cx="596.24597"
     sodipodi:cy="-26.8701"
     sodipodi:rx="100.182"
     sodipodi:ry="18"
     style="fill:#aaffaa;stroke:#000000"
     transform="translate(4,797.18035)" />
  <text
     x="600.24597"
     y="774.01025"
     font-size="14.00"
     id="text23231"
     style="font-size:14px;text-anchor:middle;font-family:'Times,serif'">IMPLICATION_INDEX</text>
  <g
     class="edge"
     id="edge13"
     transform="translate(4,797.18035)">
    <title
       id="title23234">n27 (0.79 - 3)-&gt;IMPLICATION_INDEX</title>
    <path
       style="fill:none;stroke:#000000"
       inkscape:connector-curvature="0"
       id="path23236"
       d="m 754.362,-92.8213 c -30.701,12.6118 -76.258,31.3254 -110.595,45.4305" />
    <polygon
       style="fill:#000000;stroke:#000000"
       id="polygon23238"
       points="644.982,-44.1059 644.982,-44.1059 634.402,-43.5436 642.322,-50.5809 " />
  </g>
  <ellipse
     cx="788.24597"
     cy="-26.8701"
     rx="74.493202"
     ry="26.7407"
     id="ellipse23243"
     d="m 862.73917,-26.8701 c 0,14.768481 -33.35174,26.74069975 -74.4932,26.74069975 -41.14146,0 -74.4932,-11.97221875 -74.4932,-26.74069975 0,-14.768481 33.35174,-26.7407 74.4932,-26.7407 41.14146,0 74.4932,11.972219 74.4932,26.7407 z"
     sodipodi:cx="788.24597"
     sodipodi:cy="-26.8701"
     sodipodi:rx="74.493202"
     sodipodi:ry="26.7407"
     style="fill:#aaffaa;stroke:#000000"
     transform="translate(4,797.18035)" />
  <text
     x="792.24597"
     y="766.51025"
     font-size="14.00"
     id="text23245"
     style="font-size:14px;text-anchor:middle;font-family:'Times,serif'">PHI</text>
  <text
     x="792.24597"
     y="781.51025"
     font-size="14.00"
     id="text23247"
     style="font-size:14px;text-anchor:middle;font-family:'Times,serif'">FISHER_PVAL</text>
  <g
     class="edge"
     id="edge14"
     transform="translate(4,797.18035)">
    <title
       id="title23250">n27 (0.79 - 3)-&gt;PHI\nFISHER_PVAL</title>
    <path
       style="fill:none;stroke:#000000"
       inkscape:connector-curvature="0"
       id="path23252"
       d="m 788.246,-89.6265 c 0,7.4895 0,16.5807 0,25.4585" />
    <polygon
       style="fill:#000000;stroke:#000000"
       id="polygon23254"
       points="791.746,-63.9529 791.746,-63.9529 788.246,-53.953 784.746,-63.953 " />
  </g>
  <ellipse
     cx="990.24597"
     cy="-26.8701"
     rx="109.703"
     ry="26.7407"
     id="ellipse23259"
     d="m 1099.949,-26.8701 c 0,14.768481 -49.1157,26.74069975 -109.70303,26.74069975 -60.58729,0 -109.703,-11.97221875 -109.703,-26.74069975 0,-14.768481 49.11571,-26.7407 109.703,-26.7407 60.58733,0 109.70303,11.972219 109.70303,26.7407 z"
     sodipodi:cx="990.24597"
     sodipodi:cy="-26.8701"
     sodipodi:rx="109.703"
     sodipodi:ry="26.7407"
     style="fill:#d5d5d5;stroke:#000000"
     transform="translate(-25.486656,769.09782)" />
  <text
     x="964.75934"
     y="738.42767"
     font-size="14.00"
     id="text23261"
     style="font-size:14px;text-anchor:middle;font-family:'Times,serif'">PIATETSKY_SHAPIRO</text>
  <text
     x="964.75934"
     y="753.42767"
     font-size="14.00"
     id="text23263"
     style="font-size:14px;text-anchor:middle;font-family:'Times,serif'">TWO_WAY_SUPPORT</text>
  <g
     class="edge"
     id="edge16"
     transform="translate(-25.486656,769.09782)">
    <title
       id="title23266">n25 (0.90 - 4)-&gt;PIATETSKY_SHAPIRO\nTWO_WAY_SUPPORT</title>
    <path
       style="fill:none;stroke:#000000"
       inkscape:connector-curvature="0"
       id="path23268"
       d="m 990.246,-89.6265 c 0,7.4895 0,16.5807 0,25.4585" />
    <polygon
       style="fill:#000000;stroke:#000000"
       id="polygon23270"
       points="993.746,-63.9529 990.246,-53.953 986.746,-63.953 993.746,-63.9529 " />
  </g>
  <ellipse
     cx="1186.25"
     cy="-26.8701"
     rx="68.678802"
     ry="26.7407"
     id="ellipse23275"
     d="m 1254.9288,-26.8701 c 0,14.768481 -30.7485,26.74069975 -68.6788,26.74069975 -37.9303,0 -68.6788,-11.97221875 -68.6788,-26.74069975 0,-14.768481 30.7485,-26.7407 68.6788,-26.7407 37.9303,0 68.6788,11.972219 68.6788,26.7407 z"
     sodipodi:cx="1186.25"
     sodipodi:cy="-26.8701"
     sodipodi:rx="68.678802"
     sodipodi:ry="26.7407"
     style="fill:#d5d5d5;stroke:#000000"
     transform="translate(-67.61045,720.51504)" />
  <text
     x="1118.6395"
     y="689.84491"
     font-size="14.00"
     id="text23277"
     style="font-size:14px;text-anchor:middle;font-family:'Times,serif'">KLOSGEN</text>
  <text
     x="1118.6395"
     y="704.84491"
     font-size="14.00"
     id="text23279"
     style="font-size:14px;text-anchor:middle;font-family:'Times,serif'">SPECIFICITY</text>
  <path
     d="m 999.35334,676.27652 c 29.12996,11.7225 5.36606,2.0383 39.32606,15.7033"
     id="path23284"
     inkscape:connector-curvature="0"
     style="fill:none;stroke:#000000"
     sodipodi:nodetypes="cc" />
  <polygon
     points="1131.53,-53.6609 1131.53,-53.6609 1139.5,-46.6808 1128.92,-47.1669 "
     id="polygon23286"
     style="fill:#000000;stroke:#000000"
     transform="translate(-90.638124,742.41942)" />
  <ellipse
     cx="626.24597"
     cy="-580.22198"
     rx="124.402"
     ry="26.7407"
     id="ellipse23291"
     d="m 750.64797,-580.22198 c 0,14.76848 -55.69667,26.74069 -124.402,26.74069 -68.70533,0 -124.402,-11.97221 -124.402,-26.74069 0,-14.76849 55.69667,-26.7407 124.402,-26.7407 68.70533,0 124.402,11.97221 124.402,26.7407 z"
     sodipodi:cx="626.24597"
     sodipodi:cy="-580.22198"
     sodipodi:rx="124.402"
     sodipodi:ry="26.7407"
     style="fill:#ffaaaa;stroke:#000000"
     transform="translate(4,924.798)" />
  <text
     x="630.24597"
     y="340.77603"
     font-size="14.00"
     id="text23293"
     style="font-size:14px;text-anchor:middle;font-family:'Times,serif'">LEAST_CONTRADICTION</text>
  <text
     x="630.24597"
     y="355.77603"
     font-size="14.00"
     id="text23295"
     style="font-size:14px;text-anchor:middle;font-family:'Times,serif'">ACCURACY</text>
  <g
     class="edge"
     id="edge19"
     transform="translate(4,924.798)">
    <title
       id="title23298">n33 (-0.02 - 20)-&gt;LEAST_CONTRADICTION\nACCURACY</title>
    <path
       style="fill:none;stroke:#000000"
       inkscape:connector-curvature="0"
       id="path23300"
       d="m 626.246,-812.713 c 0,40.105 0,140.981 0,195.382" />
    <polygon
       style="fill:#000000;stroke:#000000"
       id="polygon23302"
       points="622.746,-617.103 629.746,-617.103 629.746,-617.103 626.246,-607.103 " />
  </g>
  <ellipse
     cx="906.24597"
     cy="-580.22198"
     rx="137.358"
     ry="196.651"
     id="ellipse23307"
     d="m 1043.604,-580.22198 c 0,108.60734 -61.4973,196.651 -137.35803,196.651 -75.86073,0 -137.358,-88.04366 -137.358,-196.651 0,-108.60735 61.49727,-196.65101 137.358,-196.65101 75.86073,0 137.35803,88.04366 137.35803,196.65101 z"
     sodipodi:cx="906.24597"
     sodipodi:cy="-580.22198"
     sodipodi:rx="137.358"
     sodipodi:ry="196.651"
     style="fill:#ffffaa;stroke:#000000"
     transform="translate(4,924.798)" />
  <text
     x="910.24597"
     y="220.77603"
     font-size="14.00"
     id="text23309"
     style="font-size:14px;text-anchor:middle;font-family:'Times,serif'">RELATIVE_RISK</text>
  <text
     x="910.24597"
     y="235.77603"
     font-size="14.00"
     id="text23311"
     style="font-size:14px;text-anchor:middle;font-family:'Times,serif'">YULE_Y</text>
  <text
     x="910.24597"
     y="250.77603"
     font-size="14.00"
     id="text23313"
     style="font-size:14px;text-anchor:middle;font-family:'Times,serif'">YULE_Q</text>
  <text
     x="910.24597"
     y="265.77603"
     font-size="14.00"
     id="text23315"
     style="font-size:14px;text-anchor:middle;font-family:'Times,serif'">ODDS_RATIO</text>
  <text
     x="910.24597"
     y="280.77603"
     font-size="14.00"
     id="text23317"
     style="font-size:14px;text-anchor:middle;font-family:'Times,serif'">LEVERAGE</text>
  <text
     x="910.24597"
     y="295.77603"
     font-size="14.00"
     id="text23319"
     style="font-size:14px;text-anchor:middle;font-family:'Times,serif'">ONE_WAY_SUPPORT</text>
  <text
     x="910.24597"
     y="310.77603"
     font-size="14.00"
     id="text23321"
     style="font-size:14px;text-anchor:middle;font-family:'Times,serif'">ZHANG</text>
  <text
     x="910.24597"
     y="325.77603"
     font-size="14.00"
     id="text23323"
     style="font-size:14px;text-anchor:middle;font-family:'Times,serif'">ODD_MULTIPLIER</text>
  <text
     x="910.24597"
     y="340.77603"
     font-size="14.00"
     id="text23325"
     style="font-size:14px;text-anchor:middle;font-family:'Times,serif'">SEBAG_SCHOENAUER</text>
  <text
     x="910.24597"
     y="355.77603"
     font-size="14.00"
     id="text23327"
     style="font-size:14px;text-anchor:middle;font-family:'Times,serif'">COUNTER_EXAMPLE_RATE</text>
  <text
     x="910.24597"
     y="370.77603"
     font-size="14.00"
     id="text23329"
     style="font-size:14px;text-anchor:middle;font-family:'Times,serif'">LOEVINGER</text>
  <text
     x="910.24597"
     y="385.77603"
     font-size="14.00"
     id="text23331"
     style="font-size:14px;text-anchor:middle;font-family:'Times,serif'">CONVICTION</text>
  <text
     x="910.24597"
     y="400.77603"
     font-size="14.00"
     id="text23333"
     style="font-size:14px;text-anchor:middle;font-family:'Times,serif'">BAYES</text>
  <text
     x="910.24597"
     y="415.776"
     font-size="14.00"
     id="text23335"
     style="font-size:14px;text-anchor:middle;font-family:'Times,serif'">CENTERED_CONFIDENCE</text>
  <text
     x="910.24597"
     y="430.776"
     font-size="14.00"
     id="text23337"
     style="font-size:14px;text-anchor:middle;font-family:'Times,serif'">CERTAINTY_FACTOR</text>
  <text
     x="910.24597"
     y="445.776"
     font-size="14.00"
     id="text23339"
     style="font-size:14px;text-anchor:middle;font-family:'Times,serif'">ADDED_VALUE</text>
  <text
     x="910.24597"
     y="460.776"
     font-size="14.00"
     id="text23341"
     style="font-size:14px;text-anchor:middle;font-family:'Times,serif'">LIFT</text>
  <text
     x="910.24597"
     y="475.776"
     font-size="14.00"
     id="text23343"
     style="font-size:14px;text-anchor:middle;font-family:'Times,serif'">CONFIDENCE</text>
  <g
     class="edge"
     id="edge20"
     transform="translate(4,924.798)">
    <title
       id="title23346">n33 (-0.02 - 20)-&gt;RELATIVE_RISK\nYULE_Y\nYULE_Q\nODDS_RATIO\nLEVERAGE\nONE_WAY_SUPPORT\nZHANG\nODD_MULTIPLIER\nSEBAG_SCHOENAUER\nCOUNTER_EXAMPLE_RATE\nLOEVINGER\nCONVICTION\nBAYES\nCENTERED_CONFIDENCE\nCERTAINTY_FACTOR\nADDED_VALUE\nLIFT\nCONFIDENCE</title>
    <path
       style="fill:none;stroke:#000000"
       inkscape:connector-curvature="0"
       id="path23348"
       d="m 673.474,-817.889 c 26.987,8.414 60.398,21.692 85.772,41.091 16.826,12.864 32.674,28.136 47.287,44.391" />
    <polygon
       style="fill:#000000;stroke:#000000"
       id="polygon23350"
       points="803.927,-730.071 809.182,-734.695 809.182,-734.695 813.16,-724.875 " />
  </g>
  <path
     d="m 425.125,362.645 c 32.0835,32.30733 126.83361,90.86282 162.84378,101.66992"
     id="path23132"
     inkscape:connector-curvature="0"
     style="fill:none;stroke:#000000"
     sodipodi:nodetypes="cc" />
  <polygon
     points="584.152,-337.912 584.152,-337.912 592.811,-331.807 582.235,-331.18 "
     id="polygon23134"
     style="fill:#000000;stroke:#000000"
     transform="matrix(0.98846494,0.1514499,-0.1514499,0.98846494,-44.401807,704.42048)" />
</svg>
