<?xml version="1.0" encoding="UTF-8" standalone="no"?>
<!DOCTYPE svg PUBLIC "-//W3C//DTD SVG 1.1//EN"
 "http://www.w3.org/Graphics/SVG/1.1/DTD/svg11.dtd">
<!-- Generated by graphviz version 2.38.0 (20140413.2041)
 -->
<!-- Title: dendrogram Pages: 1 -->
<svg width="1157pt" height="707pt"
 viewBox="0.00 0.00 1157.02 706.89" xmlns="http://www.w3.org/2000/svg" xmlns:xlink="http://www.w3.org/1999/xlink">
<g id="graph0" class="graph" transform="scale(1 1) rotate(0) translate(4 702.891)">
<title>dendrogram</title>
<polygon fill="white" stroke="none" points="-4,4 -4,-702.891 1153.02,-702.891 1153.02,4 -4,4"/>
<!-- n34 (0.08 &#45; 36) -->
<g id="node1" class="node"><title>n34 (0.08 &#45; 36)</title>
<ellipse fill="none" stroke="black" cx="367.84" cy="-680.891" rx="64.189" ry="18"/>
<text text-anchor="middle" x="367.84" y="-677.191" font-family="Times,serif" font-size="14.00">n34 (0.08 &#45; 36)</text>
</g>
<!-- n32 (0.45 &#45; 6) -->
<g id="node2" class="node"><title>n32 (0.45 &#45; 6)</title>
<ellipse fill="none" stroke="black" cx="296.84" cy="-608.891" rx="59.5901" ry="18"/>
<text text-anchor="middle" x="296.84" y="-605.191" font-family="Times,serif" font-size="14.00">n32 (0.45 &#45; 6)</text>
</g>
<!-- n34 (0.08 &#45; 36)&#45;&gt;n32 (0.45 &#45; 6) -->
<g id="edge1" class="edge"><title>n34 (0.08 &#45; 36)&#45;&gt;n32 (0.45 &#45; 6)</title>
<path fill="none" stroke="black" d="M351.014,-663.302C341.995,-654.41 330.728,-643.302 320.809,-633.522"/>
<polygon fill="black" stroke="black" points="323.124,-630.89 313.545,-626.361 318.209,-635.875 323.124,-630.89"/>
</g>
<!-- n33 (0.26 &#45; 30) -->
<g id="node9" class="node"><title>n33 (0.26 &#45; 30)</title>
<ellipse fill="none" stroke="black" cx="438.84" cy="-608.891" rx="64.189" ry="18"/>
<text text-anchor="middle" x="438.84" y="-605.191" font-family="Times,serif" font-size="14.00">n33 (0.26 &#45; 30)</text>
</g>
<!-- n34 (0.08 &#45; 36)&#45;&gt;n33 (0.26 &#45; 30) -->
<g id="edge8" class="edge"><title>n34 (0.08 &#45; 36)&#45;&gt;n33 (0.26 &#45; 30)</title>
<path fill="none" stroke="black" d="M384.666,-663.302C393.685,-654.41 404.952,-643.302 414.872,-633.522"/>
<polygon fill="black" stroke="black" points="417.471,-635.875 422.135,-626.361 412.557,-630.89 417.471,-635.875"/>
</g>
<!-- COLLECTIVE_STRENGH -->
<g id="node3" class="node"><title>COLLECTIVE_STRENGH</title>
<ellipse fill="none" stroke="black" cx="109.84" cy="-536.891" rx="109.681" ry="18"/>
<text text-anchor="middle" x="109.84" y="-533.191" font-family="Times,serif" font-size="14.00">COLLECTIVE_STRENGH</text>
</g>
<!-- n32 (0.45 &#45; 6)&#45;&gt;COLLECTIVE_STRENGH -->
<g id="edge2" class="edge"><title>n32 (0.45 &#45; 6)&#45;&gt;COLLECTIVE_STRENGH</title>
<path fill="none" stroke="black" d="M260.785,-594.395C232.507,-583.81 192.784,-568.94 161.185,-557.112"/>
<polygon fill="black" stroke="black" points="162.254,-553.774 151.661,-553.546 159.8,-560.33 162.254,-553.774"/>
</g>
<!-- n30 (0.70 &#45; 5) -->
<g id="node4" class="node"><title>n30 (0.70 &#45; 5)</title>
<ellipse fill="none" stroke="black" cx="297.84" cy="-536.891" rx="59.5901" ry="18"/>
<text text-anchor="middle" x="297.84" y="-533.191" font-family="Times,serif" font-size="14.00">n30 (0.70 &#45; 5)</text>
</g>
<!-- n32 (0.45 &#45; 6)&#45;&gt;n30 (0.70 &#45; 5) -->
<g id="edge3" class="edge"><title>n32 (0.45 &#45; 6)&#45;&gt;n30 (0.70 &#45; 5)</title>
<path fill="none" stroke="black" d="M297.087,-590.588C297.198,-582.874 297.33,-573.604 297.453,-565.004"/>
<polygon fill="black" stroke="black" points="300.953,-565.045 297.596,-554.996 293.953,-564.945 300.953,-565.045"/>
</g>
<!-- KAPPA\nPIATETSKY_SHAPIRO -->
<g id="node5" class="node"><title>KAPPA\nPIATETSKY_SHAPIRO</title>
<ellipse fill="none" stroke="black" cx="132.84" cy="-456.021" rx="109.703" ry="26.7407"/>
<text text-anchor="middle" x="132.84" y="-459.821" font-family="Times,serif" font-size="14.00">KAPPA</text>
<text text-anchor="middle" x="132.84" y="-444.821" font-family="Times,serif" font-size="14.00">PIATETSKY_SHAPIRO</text>
</g>
<!-- n30 (0.70 &#45; 5)&#45;&gt;KAPPA\nPIATETSKY_SHAPIRO -->
<g id="edge4" class="edge"><title>n30 (0.70 &#45; 5)&#45;&gt;KAPPA\nPIATETSKY_SHAPIRO</title>
<path fill="none" stroke="black" d="M267.192,-521.241C245.777,-511.005 216.523,-497.022 190.78,-484.717"/>
<polygon fill="black" stroke="black" points="192.008,-481.424 181.476,-480.269 188.989,-487.74 192.008,-481.424"/>
</g>
<!-- n28 (0.82 &#45; 3) -->
<g id="node6" class="node"><title>n28 (0.82 &#45; 3)</title>
<ellipse fill="none" stroke="black" cx="319.84" cy="-456.021" rx="59.5901" ry="18"/>
<text text-anchor="middle" x="319.84" y="-452.321" font-family="Times,serif" font-size="14.00">n28 (0.82 &#45; 3)</text>
</g>
<!-- n30 (0.70 &#45; 5)&#45;&gt;n28 (0.82 &#45; 3) -->
<g id="edge5" class="edge"><title>n30 (0.70 &#45; 5)&#45;&gt;n28 (0.82 &#45; 3)</title>
<path fill="none" stroke="black" d="M302.614,-518.778C305.468,-508.546 309.156,-495.325 312.387,-483.742"/>
<polygon fill="black" stroke="black" points="315.76,-484.674 315.076,-474.102 309.018,-482.794 315.76,-484.674"/>
</g>
<!-- SPECIFICITY -->
<g id="node7" class="node"><title>SPECIFICITY</title>
<ellipse fill="none" stroke="black" cx="251.84" cy="-196.576" rx="63.0888" ry="18"/>
<text text-anchor="middle" x="251.84" y="-192.876" font-family="Times,serif" font-size="14.00">SPECIFICITY</text>
</g>
<!-- n28 (0.82 &#45; 3)&#45;&gt;SPECIFICITY -->
<g id="edge6" class="edge"><title>n28 (0.82 &#45; 3)&#45;&gt;SPECIFICITY</title>
<path fill="none" stroke="black" d="M315.273,-437.73C303.659,-393.762 272.934,-277.435 258.95,-224.495"/>
<polygon fill="black" stroke="black" points="262.325,-223.567 256.388,-214.792 255.558,-225.354 262.325,-223.567"/>
</g>
<!-- JACCARD\nRECALL -->
<g id="node8" class="node"><title>JACCARD\nRECALL</title>
<ellipse fill="none" stroke="black" cx="387.84" cy="-196.576" rx="55.3091" ry="26.7407"/>
<text text-anchor="middle" x="387.84" y="-200.376" font-family="Times,serif" font-size="14.00">JACCARD</text>
<text text-anchor="middle" x="387.84" y="-185.376" font-family="Times,serif" font-size="14.00">RECALL</text>
</g>
<!-- n28 (0.82 &#45; 3)&#45;&gt;JACCARD\nRECALL -->
<g id="edge7" class="edge"><title>n28 (0.82 &#45; 3)&#45;&gt;JACCARD\nRECALL</title>
<path fill="none" stroke="black" d="M324.408,-437.73C335.425,-396.019 363.641,-289.191 378.448,-233.134"/>
<polygon fill="black" stroke="black" points="381.88,-233.847 381.05,-223.284 375.112,-232.059 381.88,-233.847"/>
</g>
<!-- ACCURACY -->
<g id="node10" class="node"><title>ACCURACY</title>
<ellipse fill="none" stroke="black" cx="437.84" cy="-536.891" rx="59.5901" ry="18"/>
<text text-anchor="middle" x="437.84" y="-533.191" font-family="Times,serif" font-size="14.00">ACCURACY</text>
</g>
<!-- n33 (0.26 &#45; 30)&#45;&gt;ACCURACY -->
<g id="edge9" class="edge"><title>n33 (0.26 &#45; 30)&#45;&gt;ACCURACY</title>
<path fill="none" stroke="black" d="M438.593,-590.588C438.483,-582.874 438.35,-573.604 438.228,-565.004"/>
<polygon fill="black" stroke="black" points="441.727,-564.945 438.085,-554.996 434.728,-565.045 441.727,-564.945"/>
</g>
<!-- n31 (0.62 &#45; 29) -->
<g id="node11" class="node"><title>n31 (0.62 &#45; 29)</title>
<ellipse fill="none" stroke="black" cx="579.84" cy="-536.891" rx="64.189" ry="18"/>
<text text-anchor="middle" x="579.84" y="-533.191" font-family="Times,serif" font-size="14.00">n31 (0.62 &#45; 29)</text>
</g>
<!-- n33 (0.26 &#45; 30)&#45;&gt;n31 (0.62 &#45; 29) -->
<g id="edge10" class="edge"><title>n33 (0.26 &#45; 30)&#45;&gt;n31 (0.62 &#45; 29)</title>
<path fill="none" stroke="black" d="M469.088,-592.875C489.998,-582.494 518.011,-568.587 540.632,-557.357"/>
<polygon fill="black" stroke="black" points="542.242,-560.465 549.642,-552.883 539.129,-554.195 542.242,-560.465"/>
</g>
<!-- LEAST_CONTRADICTION -->
<g id="node12" class="node"><title>LEAST_CONTRADICTION</title>
<ellipse fill="none" stroke="black" cx="555.84" cy="-456.021" rx="114.28" ry="18"/>
<text text-anchor="middle" x="555.84" y="-452.321" font-family="Times,serif" font-size="14.00">LEAST_CONTRADICTION</text>
</g>
<!-- n31 (0.62 &#45; 29)&#45;&gt;LEAST_CONTRADICTION -->
<g id="edge11" class="edge"><title>n31 (0.62 &#45; 29)&#45;&gt;LEAST_CONTRADICTION</title>
<path fill="none" stroke="black" d="M574.633,-518.778C571.519,-508.546 567.496,-495.325 563.971,-483.742"/>
<polygon fill="black" stroke="black" points="567.297,-482.65 561.038,-474.102 560.601,-484.687 567.297,-482.65"/>
</g>
<!-- n29 (0.80 &#45; 28) -->
<g id="node13" class="node"><title>n29 (0.80 &#45; 28)</title>
<ellipse fill="none" stroke="black" cx="752.84" cy="-456.021" rx="64.189" ry="18"/>
<text text-anchor="middle" x="752.84" y="-452.321" font-family="Times,serif" font-size="14.00">n29 (0.80 &#45; 28)</text>
</g>
<!-- n31 (0.62 &#45; 29)&#45;&gt;n29 (0.80 &#45; 28) -->
<g id="edge12" class="edge"><title>n31 (0.62 &#45; 29)&#45;&gt;n29 (0.80 &#45; 28)</title>
<path fill="none" stroke="black" d="M611.975,-521.241C640.047,-508.444 680.965,-489.789 711.476,-475.879"/>
<polygon fill="black" stroke="black" points="712.938,-479.06 720.585,-471.727 710.034,-472.69 712.938,-479.06"/>
</g>
<!-- COSINE\nTWO_WAY_SUPPORT\nKLOSGEN\nGINI\nIMPLICATION_INDEX\nPHI\nCHI_SQUARE\nFISHER_PVAL\nTWO_WAY_SUPPORT_VARIATION\nJ_MEASURE -->
<g id="node14" class="node"><title>COSINE\nTWO_WAY_SUPPORT\nKLOSGEN\nGINI\nIMPLICATION_INDEX\nPHI\nCHI_SQUARE\nFISHER_PVAL\nTWO_WAY_SUPPORT_VARIATION\nJ_MEASURE</title>
<ellipse fill="none" stroke="black" cx="689.84" cy="-196.576" rx="166.754" ry="111.946"/>
<text text-anchor="middle" x="689.84" y="-260.376" font-family="Times,serif" font-size="14.00">COSINE</text>
<text text-anchor="middle" x="689.84" y="-245.376" font-family="Times,serif" font-size="14.00">TWO_WAY_SUPPORT</text>
<text text-anchor="middle" x="689.84" y="-230.376" font-family="Times,serif" font-size="14.00">KLOSGEN</text>
<text text-anchor="middle" x="689.84" y="-215.376" font-family="Times,serif" font-size="14.00">GINI</text>
<text text-anchor="middle" x="689.84" y="-200.376" font-family="Times,serif" font-size="14.00">IMPLICATION_INDEX</text>
<text text-anchor="middle" x="689.84" y="-185.376" font-family="Times,serif" font-size="14.00">PHI</text>
<text text-anchor="middle" x="689.84" y="-170.376" font-family="Times,serif" font-size="14.00">CHI_SQUARE</text>
<text text-anchor="middle" x="689.84" y="-155.376" font-family="Times,serif" font-size="14.00">FISHER_PVAL</text>
<text text-anchor="middle" x="689.84" y="-140.376" font-family="Times,serif" font-size="14.00">TWO_WAY_SUPPORT_VARIATION</text>
<text text-anchor="middle" x="689.84" y="-125.376" font-family="Times,serif" font-size="14.00">J_MEASURE</text>
</g>
<!-- n29 (0.80 &#45; 28)&#45;&gt;COSINE\nTWO_WAY_SUPPORT\nKLOSGEN\nGINI\nIMPLICATION_INDEX\nPHI\nCHI_SQUARE\nFISHER_PVAL\nTWO_WAY_SUPPORT_VARIATION\nJ_MEASURE -->
<g id="edge13" class="edge"><title>n29 (0.80 &#45; 28)&#45;&gt;COSINE\nTWO_WAY_SUPPORT\nKLOSGEN\nGINI\nIMPLICATION_INDEX\nPHI\nCHI_SQUARE\nFISHER_PVAL\nTWO_WAY_SUPPORT_VARIATION\nJ_MEASURE</title>
<path fill="none" stroke="black" d="M748.609,-437.73C742.466,-412.627 730.551,-363.939 719.047,-316.926"/>
<polygon fill="black" stroke="black" points="722.377,-315.81 716.6,-306.929 715.578,-317.474 722.377,-315.81"/>
</g>
<!-- RELATIVE_RISK\nYULE_Y\nYULE_Q\nODDS_RATIO\nLIFT\nODD_MULTIPLIER\nZHANG\nBAYES\nLEVERAGE\nCOUNTER_EXAMPLE_RATE\nSEBAG_SCHOENAUER\nCONFIDENCE\nONE_WAY_SUPPORT\nCENTERED_CONFIDENCE\nADDED_VALUE\nLOEVINGER\nCONVICTION\nCERTAINTY_FACTOR -->
<g id="node15" class="node"><title>RELATIVE_RISK\nYULE_Y\nYULE_Q\nODDS_RATIO\nLIFT\nODD_MULTIPLIER\nZHANG\nBAYES\nLEVERAGE\nCOUNTER_EXAMPLE_RATE\nSEBAG_SCHOENAUER\nCONFIDENCE\nONE_WAY_SUPPORT\nCENTERED_CONFIDENCE\nADDED_VALUE\nLOEVINGER\nCONVICTION\nCERTAINTY_FACTOR</title>
<ellipse fill="none" stroke="black" cx="1011.84" cy="-196.576" rx="137.358" ry="196.651"/>
<text text-anchor="middle" x="1011.84" y="-320.376" font-family="Times,serif" font-size="14.00">RELATIVE_RISK</text>
<text text-anchor="middle" x="1011.84" y="-305.376" font-family="Times,serif" font-size="14.00">YULE_Y</text>
<text text-anchor="middle" x="1011.84" y="-290.376" font-family="Times,serif" font-size="14.00">YULE_Q</text>
<text text-anchor="middle" x="1011.84" y="-275.376" font-family="Times,serif" font-size="14.00">ODDS_RATIO</text>
<text text-anchor="middle" x="1011.84" y="-260.376" font-family="Times,serif" font-size="14.00">LIFT</text>
<text text-anchor="middle" x="1011.84" y="-245.376" font-family="Times,serif" font-size="14.00">ODD_MULTIPLIER</text>
<text text-anchor="middle" x="1011.84" y="-230.376" font-family="Times,serif" font-size="14.00">ZHANG</text>
<text text-anchor="middle" x="1011.84" y="-215.376" font-family="Times,serif" font-size="14.00">BAYES</text>
<text text-anchor="middle" x="1011.84" y="-200.376" font-family="Times,serif" font-size="14.00">LEVERAGE</text>
<text text-anchor="middle" x="1011.84" y="-185.376" font-family="Times,serif" font-size="14.00">COUNTER_EXAMPLE_RATE</text>
<text text-anchor="middle" x="1011.84" y="-170.376" font-family="Times,serif" font-size="14.00">SEBAG_SCHOENAUER</text>
<text text-anchor="middle" x="1011.84" y="-155.376" font-family="Times,serif" font-size="14.00">CONFIDENCE</text>
<text text-anchor="middle" x="1011.84" y="-140.376" font-family="Times,serif" font-size="14.00">ONE_WAY_SUPPORT</text>
<text text-anchor="middle" x="1011.84" y="-125.376" font-family="Times,serif" font-size="14.00">CENTERED_CONFIDENCE</text>
<text text-anchor="middle" x="1011.84" y="-110.376" font-family="Times,serif" font-size="14.00">ADDED_VALUE</text>
<text text-anchor="middle" x="1011.84" y="-95.3757" font-family="Times,serif" font-size="14.00">LOEVINGER</text>
<text text-anchor="middle" x="1011.84" y="-80.3757" font-family="Times,serif" font-size="14.00">CONVICTION</text>
<text text-anchor="middle" x="1011.84" y="-65.3757" font-family="Times,serif" font-size="14.00">CERTAINTY_FACTOR</text>
</g>
<!-- n29 (0.80 &#45; 28)&#45;&gt;RELATIVE_RISK\nYULE_Y\nYULE_Q\nODDS_RATIO\nLIFT\nODD_MULTIPLIER\nZHANG\nBAYES\nLEVERAGE\nCOUNTER_EXAMPLE_RATE\nSEBAG_SCHOENAUER\nCONFIDENCE\nONE_WAY_SUPPORT\nCENTERED_CONFIDENCE\nADDED_VALUE\nLOEVINGER\nCONVICTION\nCERTAINTY_FACTOR -->
<g id="edge14" class="edge"><title>n29 (0.80 &#45; 28)&#45;&gt;RELATIVE_RISK\nYULE_Y\nYULE_Q\nODDS_RATIO\nLIFT\nODD_MULTIPLIER\nZHANG\nBAYES\nLEVERAGE\nCOUNTER_EXAMPLE_RATE\nSEBAG_SCHOENAUER\nCONFIDENCE\nONE_WAY_SUPPORT\nCENTERED_CONFIDENCE\nADDED_VALUE\nLOEVINGER\nCONVICTION\nCERTAINTY_FACTOR</title>
<path fill="none" stroke="black" d="M787.624,-440.723C811.298,-429.909 842.454,-413.466 865.84,-393.151 881.578,-379.48 896.659,-363.84 910.755,-347.493"/>
<polygon fill="black" stroke="black" points="913.803,-349.31 917.594,-339.417 908.461,-344.787 913.803,-349.31"/>
</g>
</g>
</svg>
