<?xml version="1.0" encoding="UTF-8" standalone="no"?>
<!-- Generated by graphviz version 2.38.0 (20140413.2041)
 -->

<!-- Title: dendrogram Pages: 1 -->

<svg
   xmlns:dc="http://purl.org/dc/elements/1.1/"
   xmlns:cc="http://creativecommons.org/ns#"
   xmlns:rdf="http://www.w3.org/1999/02/22-rdf-syntax-ns#"
   xmlns:svg="http://www.w3.org/2000/svg"
   xmlns="http://www.w3.org/2000/svg"
   xmlns:sodipodi="http://sodipodi.sourceforge.net/DTD/sodipodi-0.dtd"
   xmlns:inkscape="http://www.inkscape.org/namespaces/inkscape"
   width="1956pt"
   height="993pt"
   viewBox="0.00 0.00 1956.44 992.83"
   id="svg13408"
   version="1.1"
   inkscape:version="0.48.5 r10040"
   sodipodi:docname="patterns_demo-global-NDCG.svg">
  <metadata
     id="metadata13938">
    <rdf:RDF>
      <cc:Work
         rdf:about="">
        <dc:format>image/svg+xml</dc:format>
        <dc:type
           rdf:resource="http://purl.org/dc/dcmitype/StillImage" />
      </cc:Work>
    </rdf:RDF>
  </metadata>
  <defs
     id="defs13936" />
  <sodipodi:namedview
     pagecolor="#ffffff"
     bordercolor="#666666"
     borderopacity="1"
     objecttolerance="10"
     gridtolerance="10"
     guidetolerance="10"
     inkscape:pageopacity="0"
     inkscape:pageshadow="2"
     inkscape:window-width="1920"
     inkscape:window-height="1052"
     id="namedview13934"
     showgrid="false"
     inkscape:zoom="0.60763037"
     inkscape:cx="1044.0606"
     inkscape:cy="572.69787"
     inkscape:window-x="0"
     inkscape:window-y="0"
     inkscape:window-maximized="1"
     inkscape:current-layer="svg13408" />
  <polygon
     style="fill:#ffffff;stroke:none"
     id="polygon13413"
     points="1952.44,-988.833 1952.44,4 -4,4 -4,4 -4,-988.833 "
     transform="translate(4,988.833)" />
  <g
     class="node"
     id="node1"
     transform="translate(4,988.833)">
    <title
       id="title13416">n34 (-0.38 - 36)</title>
    <ellipse
       style="fill:none;stroke:#000000"
       sodipodi:ry="18"
       sodipodi:rx="67.688103"
       sodipodi:cy="-966.83301"
       sodipodi:cx="367.84"
       d="m 435.5281,-966.83301 c 0,9.94113 -30.305,18 -67.6881,18 -37.38311,0 -67.68811,-8.05887 -67.68811,-18 0,-9.94112 30.305,-18 67.68811,-18 37.3831,0 67.6881,8.05888 67.6881,18 z"
       id="ellipse13418"
       ry="18"
       rx="67.688103"
       cy="-966.83301"
       cx="367.84" />
    <text
       style="font-size:14px;text-anchor:middle;font-family:'Times,serif'"
       id="text13420"
       font-size="14.00"
       y="-963.133"
       x="367.84">n34 (-0.38 - 36)</text>
  </g>
  <g
     class="node"
     id="node2"
     transform="translate(4,988.833)">
    <title
       id="title13423">n32 (-0.09 - 4)</title>
    <ellipse
       style="fill:none;stroke:#000000"
       sodipodi:ry="18"
       sodipodi:rx="63.088799"
       sodipodi:cy="-894.83301"
       sodipodi:cx="204.84"
       d="m 267.92879,-894.83301 c 0,9.94113 -28.24581,18 -63.08879,18 -34.84298,0 -63.0888,-8.05887 -63.0888,-18 0,-9.94112 28.24582,-18 63.0888,-18 34.84298,0 63.08879,8.05888 63.08879,18 z"
       id="ellipse13425"
       ry="18"
       rx="63.088799"
       cy="-894.83301"
       cx="204.84" />
    <text
       style="font-size:14px;text-anchor:middle;font-family:'Times,serif'"
       id="text13427"
       font-size="14.00"
       y="-891.133"
       x="204.84">n32 (-0.09 - 4)</text>
  </g>
  <g
     class="edge"
     id="edge1"
     transform="translate(4,988.833)">
    <title
       id="title13430">n34 (-0.38 - 36)-&gt;n32 (-0.09 - 4)</title>
    <path
       style="fill:none;stroke:#000000"
       inkscape:connector-curvature="0"
       id="path13432"
       d="m 333.67,-951.158 c -25.026,10.747 -59.163,25.407 -86.01,36.937" />
    <polygon
       style="fill:#000000;stroke:#000000"
       id="polygon13434"
       points="245.936,-917.29 248.699,-910.858 248.699,-910.858 238.129,-910.128 " />
  </g>
  <g
     class="node"
     id="node9"
     transform="translate(4,988.833)">
    <title
       id="title13437">n33 (-0.19 - 32)</title>
    <ellipse
       style="fill:none;stroke:#000000"
       sodipodi:ry="18"
       sodipodi:rx="67.688103"
       sodipodi:cy="-894.83301"
       sodipodi:cx="531.84003"
       d="m 599.52813,-894.83301 c 0,9.94113 -30.305,18 -67.6881,18 -37.38311,0 -67.68811,-8.05887 -67.68811,-18 0,-9.94112 30.305,-18 67.68811,-18 37.3831,0 67.6881,8.05888 67.6881,18 z"
       id="ellipse13439"
       ry="18"
       rx="67.688103"
       cy="-894.83301"
       cx="531.84003" />
    <text
       style="font-size:14px;text-anchor:middle;font-family:'Times,serif'"
       id="text13441"
       font-size="14.00"
       y="-891.133"
       x="531.84003">n33 (-0.19 - 32)</text>
  </g>
  <g
     class="edge"
     id="edge8"
     transform="translate(4,988.833)">
    <title
       id="title13444">n34 (-0.38 - 36)-&gt;n33 (-0.19 - 32)</title>
    <path
       style="fill:none;stroke:#000000"
       inkscape:connector-curvature="0"
       id="path13446"
       d="m 402.22,-951.158 c 25.038,10.687 59.14,25.243 86.082,36.742" />
    <polygon
       style="fill:#000000;stroke:#000000"
       id="polygon13448"
       points="486.934,-911.194 489.682,-917.632 489.682,-917.632 497.506,-910.488 " />
  </g>
  <ellipse
     cx="66.840302"
     cy="-822.83301"
     rx="59.590099"
     ry="18"
     id="ellipse13453"
     d="m 126.4304,-822.83301 c 0,9.94113 -26.679395,18 -59.590098,18 -32.910704,0 -59.5900998,-8.05887 -59.5900998,-18 0,-9.94112 26.6793958,-18 59.5900998,-18 32.910703,0 59.590098,8.05888 59.590098,18 z"
     sodipodi:cx="66.840302"
     sodipodi:cy="-822.83301"
     sodipodi:rx="59.590099"
     sodipodi:ry="18"
     style="fill:#ffaaaa;stroke:#000000"
     transform="translate(4,988.833)" />
  <text
     x="70.840302"
     y="169.7"
     font-size="14.00"
     id="text13455"
     style="font-size:14px;text-anchor:middle;font-family:'Times,serif'">ACCURACY</text>
  <g
     class="edge"
     id="edge2"
     transform="translate(4,988.833)">
    <title
       id="title13458">n32 (-0.09 - 4)-&gt;ACCURACY</title>
    <path
       style="fill:none;stroke:#000000"
       inkscape:connector-curvature="0"
       id="path13460"
       d="m 175.236,-878.816 c -20.512,10.405 -48.01,24.353 -70.176,35.597" />
    <polygon
       style="fill:#000000;stroke:#000000"
       id="polygon13462"
       points="103.257,-846.229 106.424,-839.987 106.424,-839.987 95.9221,-838.584 " />
  </g>
  <g
     class="node"
     id="node4"
     transform="translate(4,988.833)">
    <title
       id="title13465">n28 (0.47 - 3)</title>
    <ellipse
       style="fill:none;stroke:#000000"
       sodipodi:ry="18"
       sodipodi:rx="59.590099"
       sodipodi:cy="-822.83301"
       sodipodi:cx="204.84"
       d="m 264.4301,-822.83301 c 0,9.94113 -26.6794,18 -59.5901,18 -32.91071,0 -59.5901,-8.05887 -59.5901,-18 0,-9.94112 26.67939,-18 59.5901,-18 32.9107,0 59.5901,8.05888 59.5901,18 z"
       id="ellipse13467"
       ry="18"
       rx="59.590099"
       cy="-822.83301"
       cx="204.84" />
    <text
       style="font-size:14px;text-anchor:middle;font-family:'Times,serif'"
       id="text13469"
       font-size="14.00"
       y="-819.133"
       x="204.84">n28 (0.47 - 3)</text>
  </g>
  <g
     class="edge"
     id="edge3"
     transform="translate(4,988.833)">
    <title
       id="title13472">n32 (-0.09 - 4)-&gt;n28 (0.47 - 3)</title>
    <path
       style="fill:none;stroke:#000000"
       inkscape:connector-curvature="0"
       id="path13474"
       d="m 204.84,-876.529 c 0,7.714 0,16.984 0,25.584" />
    <polygon
       style="fill:#000000;stroke:#000000"
       id="polygon13476"
       points="201.34,-850.937 208.34,-850.937 208.34,-850.937 204.84,-840.937 " />
  </g>
  <ellipse
     cx="81.840302"
     cy="-720.74902"
     rx="44.6926"
     ry="18"
     id="ellipse13481"
     d="m 126.5329,-720.74902 c 0,9.94112 -20.00956,18 -44.692598,18 -24.683042,0 -44.692601,-8.05888 -44.692601,-18 0,-9.94113 20.009559,-18 44.692601,-18 24.683038,0 44.692598,8.05887 44.692598,18 z"
     sodipodi:cx="81.840302"
     sodipodi:cy="-720.74902"
     sodipodi:rx="44.6926"
     sodipodi:ry="18"
     style="fill:#aaaaff;stroke:#000000"
     transform="translate(4,988.833)" />
  <text
     x="85.840302"
     y="271.784"
     font-size="14.00"
     id="text13483"
     style="font-size:14px;text-anchor:middle;font-family:'Times,serif'">RECALL</text>
  <g
     class="edge"
     id="edge4"
     transform="translate(4,988.833)">
    <title
       id="title13486">n28 (0.47 - 3)-&gt;RECALL</title>
    <path
       style="fill:none;stroke:#000000"
       inkscape:connector-curvature="0"
       id="path13488"
       d="m 183.435,-805.931 c -13.762,10.356 -31.933,24.276 -47.595,37.098 -9.528,7.801 -19.762,16.61 -28.732,24.48" />
    <polygon
       style="fill:#000000;stroke:#000000"
       id="polygon13490"
       points="104.782,-746.968 109.415,-741.72 109.415,-741.72 99.601,-737.727 " />
  </g>
  <g
     class="node"
     id="node6"
     transform="translate(4,988.833)">
    <title
       id="title13493">n23 (0.79 - 2)</title>
    <ellipse
       style="fill:none;stroke:#000000"
       sodipodi:ry="18"
       sodipodi:rx="59.590099"
       sodipodi:cy="-720.74902"
       sodipodi:cx="204.84"
       d="m 264.4301,-720.74902 c 0,9.94112 -26.6794,18 -59.5901,18 -32.91071,0 -59.5901,-8.05888 -59.5901,-18 0,-9.94113 26.67939,-18 59.5901,-18 32.9107,0 59.5901,8.05887 59.5901,18 z"
       id="ellipse13495"
       ry="18"
       rx="59.590099"
       cy="-720.74902"
       cx="204.84" />
    <text
       style="font-size:14px;text-anchor:middle;font-family:'Times,serif'"
       id="text13497"
       font-size="14.00"
       y="-717.04901"
       x="204.84">n23 (0.79 - 2)</text>
  </g>
  <g
     class="edge"
     id="edge5"
     transform="translate(4,988.833)">
    <title
       id="title13500">n28 (0.47 - 3)-&gt;n23 (0.79 - 2)</title>
    <path
       style="fill:none;stroke:#000000"
       inkscape:connector-curvature="0"
       id="path13502"
       d="m 204.84,-804.399 c 0,15.212 0,37.545 0,55.162" />
    <polygon
       style="fill:#000000;stroke:#000000"
       id="polygon13504"
       points="201.34,-748.983 208.34,-748.983 208.34,-748.983 204.84,-738.983 " />
  </g>
  <ellipse
     cx="109.84"
     cy="-546.15601"
     rx="109.681"
     ry="18"
     id="ellipse13509"
     d="m 219.521,-546.15601 c 0,9.94113 -49.10586,18 -109.681,18 -60.575147,0 -109.68100342,-8.05887 -109.68100342,-18 0,-9.94112 49.10585642,-18 109.68100342,-18 60.57514,0 109.681,8.05888 109.681,18 z"
     sodipodi:cx="109.84"
     sodipodi:cy="-546.15601"
     sodipodi:rx="109.681"
     sodipodi:ry="18"
     style="fill:#aaaaff;stroke:#000000"
     transform="translate(4,988.833)" />
  <text
     x="113.84"
     y="446.37701"
     font-size="14.00"
     id="text13511"
     style="font-size:14px;text-anchor:middle;font-family:'Times,serif'">COLLECTIVE_STRENGH</text>
  <g
     class="edge"
     id="edge6"
     transform="translate(4,988.833)">
    <title
       id="title13514">n23 (0.79 - 2)-&gt;COLLECTIVE_STRENGH</title>
    <path
       style="fill:none;stroke:#000000"
       inkscape:connector-curvature="0"
       id="path13516"
       d="m 195.558,-702.886 c -16.629,30.211 -51.603,93.751 -71.352,129.63" />
    <polygon
       style="fill:#000000;stroke:#000000"
       id="polygon13518"
       points="121.057,-574.792 127.189,-571.417 127.189,-571.417 119.301,-564.344 " />
  </g>
  <ellipse
     cx="300.84"
     cy="-546.15601"
     rx="63.088799"
     ry="18"
     id="ellipse13523"
     d="m 363.92879,-546.15601 c 0,9.94113 -28.24581,18 -63.08879,18 -34.84298,0 -63.0888,-8.05887 -63.0888,-18 0,-9.94112 28.24582,-18 63.0888,-18 34.84298,0 63.08879,8.05888 63.08879,18 z"
     sodipodi:cx="300.84"
     sodipodi:cy="-546.15601"
     sodipodi:rx="63.088799"
     sodipodi:ry="18"
     style="fill:#d5d5d5;stroke:#000000"
     transform="translate(4,988.833)" />
  <text
     x="304.84"
     y="446.37701"
     font-size="14.00"
     id="text13525"
     style="font-size:14px;text-anchor:middle;font-family:'Times,serif'">SPECIFICITY</text>
  <g
     class="edge"
     id="edge7"
     transform="translate(4,988.833)">
    <title
       id="title13528">n23 (0.79 - 2)-&gt;SPECIFICITY</title>
    <path
       style="fill:none;stroke:#000000"
       inkscape:connector-curvature="0"
       id="path13530"
       d="m 214.22,-702.886 c 16.847,30.289 52.329,94.079 72.257,129.907" />
    <polygon
       style="fill:#000000;stroke:#000000"
       id="polygon13532"
       points="283.503,-571.126 289.62,-574.528 289.62,-574.528 291.423,-564.088 " />
  </g>
  <g
     class="node"
     id="node10"
     transform="translate(4,988.833)">
    <title
       id="title13535">n25 (0.70 - 5)</title>
    <ellipse
       style="fill:none;stroke:#000000"
       sodipodi:ry="18"
       sodipodi:rx="59.590099"
       sodipodi:cy="-822.83301"
       sodipodi:cx="531.84003"
       d="m 591.43013,-822.83301 c 0,9.94113 -26.6794,18 -59.5901,18 -32.91071,0 -59.5901,-8.05887 -59.5901,-18 0,-9.94112 26.67939,-18 59.5901,-18 32.9107,0 59.5901,8.05888 59.5901,18 z"
       id="ellipse13537"
       ry="18"
       rx="59.590099"
       cy="-822.83301"
       cx="531.84003" />
    <text
       style="font-size:14px;text-anchor:middle;font-family:'Times,serif'"
       id="text13539"
       font-size="14.00"
       y="-819.133"
       x="531.84003">n25 (0.70 - 5)</text>
  </g>
  <g
     class="edge"
     id="edge9"
     transform="translate(4,988.833)">
    <title
       id="title13542">n33 (-0.19 - 32)-&gt;n25 (0.70 - 5)</title>
    <path
       style="fill:none;stroke:#000000"
       inkscape:connector-curvature="0"
       id="path13544"
       d="m 531.84,-876.529 c 0,7.714 0,16.984 0,25.584" />
    <polygon
       style="fill:#000000;stroke:#000000"
       id="polygon13546"
       points="528.34,-850.937 535.34,-850.937 535.34,-850.937 531.84,-840.937 " />
  </g>
  <g
     class="node"
     id="node13"
     transform="translate(4,988.833)">
    <title
       id="title13549">n31 (0.05 - 27)</title>
    <ellipse
       style="fill:none;stroke:#000000"
       sodipodi:ry="18"
       sodipodi:rx="64.189003"
       sodipodi:cy="-822.83301"
       sodipodi:cx="881.84003"
       d="m 946.02903,-822.83301 c 0,9.94113 -28.7384,18 -64.189,18 -35.45061,0 -64.18901,-8.05887 -64.18901,-18 0,-9.94112 28.7384,-18 64.18901,-18 35.4506,0 64.189,8.05888 64.189,18 z"
       id="ellipse13551"
       ry="18"
       rx="64.189003"
       cy="-822.83301"
       cx="881.84003" />
    <text
       style="font-size:14px;text-anchor:middle;font-family:'Times,serif'"
       id="text13553"
       font-size="14.00"
       y="-819.133"
       x="881.84003">n31 (0.05 - 27)</text>
  </g>
  <g
     class="edge"
     id="edge12"
     transform="translate(4,988.833)">
    <title
       id="title13556">n33 (-0.19 - 32)-&gt;n31 (0.05 - 27)</title>
    <path
       style="fill:none;stroke:#000000"
       inkscape:connector-curvature="0"
       id="path13558"
       d="m 584.239,-883.353 c 63.395,12.679 169.928,33.986 236.855,47.371" />
    <polygon
       style="fill:#000000;stroke:#000000"
       id="polygon13560"
       points="820.584,-832.515 821.957,-839.379 821.957,-839.379 831.077,-833.985 " />
  </g>
  <ellipse
     cx="396.84"
     cy="-720.74902"
     rx="114.28"
     ry="18"
     id="ellipse13565"
     d="m 511.12,-720.74902 c 0,9.94112 -51.1649,18 -114.28,18 -63.1151,0 -114.28,-8.05888 -114.28,-18 0,-9.94113 51.1649,-18 114.28,-18 63.1151,0 114.28,8.05887 114.28,18 z"
     sodipodi:cx="396.84"
     sodipodi:cy="-720.74902"
     sodipodi:rx="114.28"
     sodipodi:ry="18"
     style="fill:#ffaaaa;stroke:#000000"
     transform="translate(4,988.833)" />
  <text
     x="400.84"
     y="271.784"
     font-size="14.00"
     id="text13567"
     style="font-size:14px;text-anchor:middle;font-family:'Times,serif'">LEAST_CONTRADICTION</text>
  <g
     class="edge"
     id="edge10"
     transform="translate(4,988.833)">
    <title
       id="title13570">n25 (0.70 - 5)-&gt;LEAST_CONTRADICTION</title>
    <path
       style="fill:none;stroke:#000000"
       inkscape:connector-curvature="0"
       id="path13572"
       d="m 510.449,-805.974 c -22.31,16.54 -57.494,42.623 -82.797,61.382" />
    <polygon
       style="fill:#000000;stroke:#000000"
       id="polygon13574"
       points="425.431,-747.303 429.6,-741.679 429.6,-741.679 419.483,-738.535 " />
  </g>
  <ellipse
     cx="666.84003"
     cy="-720.74902"
     rx="137.358"
     ry="48.166698"
     id="ellipse13579"
     d="m 804.19803,-720.74902 c 0,26.60173 -61.49727,48.1667 -137.358,48.1667 -75.86073,0 -137.358,-21.56497 -137.358,-48.1667 0,-26.60174 61.49727,-48.1667 137.358,-48.1667 75.86073,0 137.358,21.56496 137.358,48.1667 z"
     sodipodi:cx="666.84003"
     sodipodi:cy="-720.74902"
     sodipodi:rx="137.358"
     sodipodi:ry="48.166698"
     style="fill:#ffffaa;stroke:#000000"
     transform="translate(4,988.833)" />
  <text
     x="670.84003"
     y="249.28398"
     font-size="14.00"
     id="text13581"
     style="font-size:14px;text-anchor:middle;font-family:'Times,serif'">LEVERAGE</text>
  <text
     x="670.84003"
     y="264.284"
     font-size="14.00"
     id="text13583"
     style="font-size:14px;text-anchor:middle;font-family:'Times,serif'">COUNTER_EXAMPLE_RATE</text>
  <text
     x="670.84003"
     y="279.284"
     font-size="14.00"
     id="text13585"
     style="font-size:14px;text-anchor:middle;font-family:'Times,serif'">SEBAG_SCHOENAUER</text>
  <text
     x="670.84003"
     y="294.284"
     font-size="14.00"
     id="text13587"
     style="font-size:14px;text-anchor:middle;font-family:'Times,serif'">CONFIDENCE</text>
  <g
     class="edge"
     id="edge11"
     transform="translate(4,988.833)">
    <title
       id="title13590">n25 (0.70 - 5)-&gt;LEVERAGE\nCOUNTER_EXAMPLE_RATE\nSEBAG_SCHOENAUER\nCONFIDENCE</title>
    <path
       style="fill:none;stroke:#000000"
       inkscape:connector-curvature="0"
       id="path13592"
       d="m 553.231,-805.974 c 12.971,9.616 30.292,22.457 47.493,35.209" />
    <polygon
       style="fill:#000000;stroke:#000000"
       id="polygon13594"
       points="599.021,-767.67 603.19,-773.294 603.19,-773.294 609.139,-764.527 " />
  </g>
  <g
     class="node"
     id="node14"
     transform="translate(4,988.833)">
    <title
       id="title13597">n29 (0.38 - 6)</title>
    <ellipse
       style="fill:none;stroke:#000000"
       sodipodi:ry="18"
       sodipodi:rx="59.590099"
       sodipodi:cy="-720.74902"
       sodipodi:cx="881.84003"
       d="m 941.43013,-720.74902 c 0,9.94112 -26.6794,18 -59.5901,18 -32.91071,0 -59.5901,-8.05888 -59.5901,-18 0,-9.94113 26.67939,-18 59.5901,-18 32.9107,0 59.5901,8.05887 59.5901,18 z"
       id="ellipse13599"
       ry="18"
       rx="59.590099"
       cy="-720.74902"
       cx="881.84003" />
    <text
       style="font-size:14px;text-anchor:middle;font-family:'Times,serif'"
       id="text13601"
       font-size="14.00"
       y="-717.04901"
       x="881.84003">n29 (0.38 - 6)</text>
  </g>
  <g
     class="edge"
     id="edge13"
     transform="translate(4,988.833)">
    <title
       id="title13604">n31 (0.05 - 27)-&gt;n29 (0.38 - 6)</title>
    <path
       style="fill:none;stroke:#000000"
       inkscape:connector-curvature="0"
       id="path13606"
       d="m 881.84,-804.399 c 0,15.212 0,37.545 0,55.162" />
    <polygon
       style="fill:#000000;stroke:#000000"
       id="polygon13608"
       points="878.34,-748.983 885.34,-748.983 885.34,-748.983 881.84,-738.983 " />
  </g>
  <g
     class="node"
     id="node21"
     transform="translate(4,988.833)">
    <title
       id="title13611">n30 (0.37 - 21)</title>
    <ellipse
       style="fill:none;stroke:#000000"
       sodipodi:ry="18"
       sodipodi:rx="64.189003"
       sodipodi:cy="-720.74902"
       sodipodi:cx="1071.84"
       d="m 1136.029,-720.74902 c 0,9.94112 -28.7384,18 -64.189,18 -35.4506,0 -64.189,-8.05888 -64.189,-18 0,-9.94113 28.7384,-18 64.189,-18 35.4506,0 64.189,8.05887 64.189,18 z"
       id="ellipse13613"
       ry="18"
       rx="64.189003"
       cy="-720.74902"
       cx="1071.84" />
    <text
       style="font-size:14px;text-anchor:middle;font-family:'Times,serif'"
       id="text13615"
       font-size="14.00"
       y="-717.04901"
       x="1071.84">n30 (0.37 - 21)</text>
  </g>
  <g
     class="edge"
     id="edge20"
     transform="translate(4,988.833)">
    <title
       id="title13618">n31 (0.05 - 27)-&gt;n30 (0.37 - 21)</title>
    <path
       style="fill:none;stroke:#000000"
       inkscape:connector-curvature="0"
       id="path13620"
       d="m 910.697,-806.632 c 32.877,17.318 86.737,45.689 123.043,64.813" />
    <polygon
       style="fill:#000000;stroke:#000000"
       id="polygon13622"
       points="1032.54,-738.492 1035.81,-744.686 1035.81,-744.686 1043.02,-736.929 " />
  </g>
  <g
     class="node"
     id="node15"
     transform="translate(4,988.833)">
    <title
       id="title13625">n21 (0.82 - 2)</title>
    <ellipse
       style="fill:none;stroke:#000000"
       sodipodi:ry="18"
       sodipodi:rx="59.590099"
       sodipodi:cy="-546.15601"
       sodipodi:cx="725.84003"
       d="m 785.43013,-546.15601 c 0,9.94113 -26.6794,18 -59.5901,18 -32.91071,0 -59.5901,-8.05887 -59.5901,-18 0,-9.94112 26.67939,-18 59.5901,-18 32.9107,0 59.5901,8.05888 59.5901,18 z"
       id="ellipse13627"
       ry="18"
       rx="59.590099"
       cy="-546.15601"
       cx="725.84003" />
    <text
       style="font-size:14px;text-anchor:middle;font-family:'Times,serif'"
       id="text13629"
       font-size="14.00"
       y="-542.45599"
       x="725.84003">n21 (0.82 - 2)</text>
  </g>
  <g
     class="edge"
     id="edge14"
     transform="translate(4,988.833)">
    <title
       id="title13632">n29 (0.38 - 6)-&gt;n21 (0.82 - 2)</title>
    <path
       style="fill:none;stroke:#000000"
       inkscape:connector-curvature="0"
       id="path13634"
       d="m 866.882,-703.2 c -27.721,30.67 -87.174,96.446 -119.328,132.02" />
    <polygon
       style="fill:#000000;stroke:#000000"
       id="polygon13636"
       points="744.862,-573.421 750.055,-568.727 750.055,-568.727 740.753,-563.655 " />
  </g>
  <g
     class="node"
     id="node18"
     transform="translate(4,988.833)">
    <title
       id="title13639">n22 (0.80 - 4)</title>
    <ellipse
       style="fill:none;stroke:#000000"
       sodipodi:ry="18"
       sodipodi:rx="59.590099"
       sodipodi:cy="-546.15601"
       sodipodi:cx="881.84003"
       d="m 941.43013,-546.15601 c 0,9.94113 -26.6794,18 -59.5901,18 -32.91071,0 -59.5901,-8.05887 -59.5901,-18 0,-9.94112 26.67939,-18 59.5901,-18 32.9107,0 59.5901,8.05888 59.5901,18 z"
       id="ellipse13641"
       ry="18"
       rx="59.590099"
       cy="-546.15601"
       cx="881.84003" />
    <text
       style="font-size:14px;text-anchor:middle;font-family:'Times,serif'"
       id="text13643"
       font-size="14.00"
       y="-542.45599"
       x="881.84003">n22 (0.80 - 4)</text>
  </g>
  <g
     class="edge"
     id="edge17"
     transform="translate(4,988.833)">
    <title
       id="title13646">n29 (0.38 - 6)-&gt;n22 (0.80 - 4)</title>
    <path
       style="fill:none;stroke:#000000"
       inkscape:connector-curvature="0"
       id="path13648"
       d="m 881.84,-702.569 c 0,29.981 0,92.082 0,128.045" />
    <polygon
       style="fill:#000000;stroke:#000000"
       id="polygon13650"
       points="878.34,-574.267 885.34,-574.267 885.34,-574.267 881.84,-564.267 " />
  </g>
  <ellipse
     cx="614.84003"
     cy="-382.17001"
     rx="42.4939"
     ry="18"
     id="ellipse13655"
     d="m 657.33393,-382.17001 c 0,9.94112 -19.02517,18 -42.4939,18 -23.46874,0 -42.4939,-8.05888 -42.4939,-18 0,-9.94113 19.02516,-18 42.4939,-18 23.46873,0 42.4939,8.05887 42.4939,18 z"
     sodipodi:cx="614.84003"
     sodipodi:cy="-382.17001"
     sodipodi:rx="42.4939"
     sodipodi:ry="18"
     style="fill:#aaffaa;stroke:#000000"
     transform="translate(4,988.833)" />
  <text
     x="618.84003"
     y="610.36298"
     font-size="14.00"
     id="text13657"
     style="font-size:14px;text-anchor:middle;font-family:'Times,serif'">COSINE</text>
  <g
     class="edge"
     id="edge15"
     transform="translate(4,988.833)">
    <title
       id="title13660">n21 (0.82 - 2)-&gt;COSINE</title>
    <path
       style="fill:none;stroke:#000000"
       inkscape:connector-curvature="0"
       id="path13662"
       d="m 714.379,-528.431 c -19.627,28.642 -59.762,87.213 -82.619,120.569" />
    <polygon
       style="fill:#000000;stroke:#000000"
       id="polygon13664"
       points="628.839,-409.791 634.613,-405.834 634.613,-405.834 626.073,-399.563 " />
  </g>
  <ellipse
     cx="725.84003"
     cy="-382.17001"
     rx="50.8918"
     ry="18"
     id="ellipse13669"
     d="m 776.73183,-382.17001 c 0,9.94112 -22.78504,18 -50.8918,18 -28.10677,0 -50.8918,-8.05888 -50.8918,-18 0,-9.94113 22.78503,-18 50.8918,-18 28.10676,0 50.8918,8.05887 50.8918,18 z"
     sodipodi:cx="725.84003"
     sodipodi:cy="-382.17001"
     sodipodi:rx="50.8918"
     sodipodi:ry="18"
     style="fill:#aaffaa;stroke:#000000"
     transform="translate(4,988.833)" />
  <text
     x="729.84003"
     y="610.36298"
     font-size="14.00"
     id="text13671"
     style="font-size:14px;text-anchor:middle;font-family:'Times,serif'">JACCARD</text>
  <g
     class="edge"
     id="edge16"
     transform="translate(4,988.833)">
    <title
       id="title13674">n21 (0.82 - 2)-&gt;JACCARD</title>
    <path
       style="fill:none;stroke:#000000"
       inkscape:connector-curvature="0"
       id="path13676"
       d="m 725.84,-528.127 c 0,27.999 0,83.999 0,117.607" />
    <polygon
       style="fill:#000000;stroke:#000000"
       id="polygon13678"
       points="722.34,-410.459 729.34,-410.459 729.34,-410.459 725.84,-400.459 " />
  </g>
  <ellipse
     cx="823.84003"
     cy="-382.17001"
     rx="29.496901"
     ry="18"
     id="ellipse13683"
     d="m 853.33693,-382.17001 c 0,9.94112 -13.20621,18 -29.4969,18 -16.29069,0 -29.4969,-8.05888 -29.4969,-18 0,-9.94113 13.20621,-18 29.4969,-18 16.29069,0 29.4969,8.05887 29.4969,18 z"
     sodipodi:cx="823.84003"
     sodipodi:cy="-382.17001"
     sodipodi:rx="29.496901"
     sodipodi:ry="18"
     style="fill:#aaffaa;stroke:#000000"
     transform="translate(4,988.833)" />
  <text
     x="827.84003"
     y="610.36298"
     font-size="14.00"
     id="text13685"
     style="font-size:14px;text-anchor:middle;font-family:'Times,serif'">GINI</text>
  <g
     class="edge"
     id="edge18"
     transform="translate(4,988.833)">
    <title
       id="title13688">n22 (0.80 - 4)-&gt;GINI</title>
    <path
       style="fill:none;stroke:#000000"
       inkscape:connector-curvature="0"
       id="path13690"
       d="m 875.743,-528.127 c -10.122,28.268 -30.462,85.075 -42.454,118.568" />
    <polygon
       style="fill:#000000;stroke:#000000"
       id="polygon13692"
       points="829.932,-410.566 836.522,-408.206 836.522,-408.206 829.856,-399.971 " />
  </g>
  <ellipse
     cx="1037.84"
     cy="-382.17001"
     rx="166.754"
     ry="37.4533"
     id="ellipse13697"
     d="m 1204.594,-382.17001 c 0,20.68488 -74.6583,37.4533 -166.754,37.4533 -92.09572,0 -166.75403,-16.76842 -166.75403,-37.4533 0,-20.68489 74.65831,-37.4533 166.75403,-37.4533 92.0957,0 166.754,16.76841 166.754,37.4533 z"
     sodipodi:cx="1037.84"
     sodipodi:cy="-382.17001"
     sodipodi:rx="166.754"
     sodipodi:ry="37.4533"
     style="fill:#aaffaa;stroke:#000000"
     transform="translate(4,988.833)" />
  <text
     x="1041.84"
     y="595.36298"
     font-size="14.00"
     id="text13699"
     style="font-size:14px;text-anchor:middle;font-family:'Times,serif'">CHI_SQUARE</text>
  <text
     x="1041.84"
     y="610.36298"
     font-size="14.00"
     id="text13701"
     style="font-size:14px;text-anchor:middle;font-family:'Times,serif'">TWO_WAY_SUPPORT_VARIATION</text>
  <text
     x="1041.84"
     y="625.36298"
     font-size="14.00"
     id="text13703"
     style="font-size:14px;text-anchor:middle;font-family:'Times,serif'">J_MEASURE</text>
  <g
     class="edge"
     id="edge19"
     transform="translate(4,988.833)">
    <title
       id="title13706">n22 (0.80 - 4)-&gt;CHI_SQUARE\nTWO_WAY_SUPPORT_VARIATION\nJ_MEASURE</title>
    <path
       style="fill:none;stroke:#000000"
       inkscape:connector-curvature="0"
       id="path13708"
       d="m 897.678,-528.647 c 17.245,17.971 45.643,47.547 70.162,73 9.188,9.538 19.063,19.772 28.415,29.458" />
    <polygon
       style="fill:#000000;stroke:#000000"
       id="polygon13710"
       points="993.821,-423.672 998.856,-428.535 998.856,-428.535 1003.29,-418.91 " />
  </g>
  <ellipse
     cx="1071.84"
     cy="-546.15601"
     rx="94.505302"
     ry="90.519302"
     id="ellipse13715"
     d="m 1166.3453,-546.15601 c 0,49.99243 -42.3115,90.51931 -94.5053,90.51931 -52.1939,0 -94.50534,-40.52688 -94.50534,-90.51931 0,-49.99243 42.31144,-90.5193 94.50534,-90.5193 52.1938,0 94.5053,40.52687 94.5053,90.5193 z"
     sodipodi:cx="1071.84"
     sodipodi:cy="-546.15601"
     sodipodi:rx="94.505302"
     sodipodi:ry="90.519302"
     style="fill:#ffffaa;stroke:#000000"
     transform="translate(4,988.833)" />
  <text
     x="1075.84"
     y="393.87701"
     font-size="14.00"
     id="text13717"
     style="font-size:14px;text-anchor:middle;font-family:'Times,serif'">RELATIVE_RISK</text>
  <text
     x="1075.84"
     y="408.87701"
     font-size="14.00"
     id="text13719"
     style="font-size:14px;text-anchor:middle;font-family:'Times,serif'">YULE_Y</text>
  <text
     x="1075.84"
     y="423.87701"
     font-size="14.00"
     id="text13721"
     style="font-size:14px;text-anchor:middle;font-family:'Times,serif'">YULE_Q</text>
  <text
     x="1075.84"
     y="438.87701"
     font-size="14.00"
     id="text13723"
     style="font-size:14px;text-anchor:middle;font-family:'Times,serif'">ODDS_RATIO</text>
  <text
     x="1075.84"
     y="453.87701"
     font-size="14.00"
     id="text13725"
     style="font-size:14px;text-anchor:middle;font-family:'Times,serif'">LIFT</text>
  <text
     x="1075.84"
     y="468.87701"
     font-size="14.00"
     id="text13727"
     style="font-size:14px;text-anchor:middle;font-family:'Times,serif'">BAYES</text>
  <text
     x="1075.84"
     y="483.87701"
     font-size="14.00"
     id="text13729"
     style="font-size:14px;text-anchor:middle;font-family:'Times,serif'">ZHANG</text>
  <text
     x="1075.84"
     y="498.87701"
     font-size="14.00"
     id="text13731"
     style="font-size:14px;text-anchor:middle;font-family:'Times,serif'">ODD_MULTIPLIER</text>
  <g
     class="edge"
     id="edge21"
     transform="translate(4,988.833)">
    <title
       id="title13734">n30 (0.37 - 21)-&gt;RELATIVE_RISK\nYULE_Y\nYULE_Q\nODDS_RATIO\nLIFT\nBAYES\nZHANG\nODD_MULTIPLIER</title>
    <path
       style="fill:none;stroke:#000000"
       inkscape:connector-curvature="0"
       id="path13736"
       d="m 1071.84,-702.569 c 0,13.617 0,33.86 0,55.272" />
    <polygon
       style="fill:#000000;stroke:#000000"
       id="polygon13738"
       points="1068.34,-647.059 1075.34,-647.059 1075.34,-647.059 1071.84,-637.059 " />
  </g>
  <g
     class="node"
     id="node23"
     transform="translate(4,988.833)">
    <title
       id="title13741">n27 (0.52 - 13)</title>
    <ellipse
       style="fill:none;stroke:#000000"
       sodipodi:ry="18"
       sodipodi:rx="64.189003"
       sodipodi:cy="-546.15601"
       sodipodi:cx="1282.84"
       d="m 1347.029,-546.15601 c 0,9.94113 -28.7384,18 -64.189,18 -35.4506,0 -64.189,-8.05887 -64.189,-18 0,-9.94112 28.7384,-18 64.189,-18 35.4506,0 64.189,8.05888 64.189,18 z"
       id="ellipse13743"
       ry="18"
       rx="64.189003"
       cy="-546.15601"
       cx="1282.84" />
    <text
       style="font-size:14px;text-anchor:middle;font-family:'Times,serif'"
       id="text13745"
       font-size="14.00"
       y="-542.45599"
       x="1282.84">n27 (0.52 - 13)</text>
  </g>
  <g
     class="edge"
     id="edge22"
     transform="translate(4,988.833)">
    <title
       id="title13748">n30 (0.37 - 21)-&gt;n27 (0.52 - 13)</title>
    <path
       style="fill:none;stroke:#000000"
       inkscape:connector-curvature="0"
       id="path13750"
       d="m 1092.28,-703.646 c 21.05,16.64 54.75,43.43 83.56,66.98 27.43,22.428 58.46,48.457 80.01,66.645" />
    <polygon
       style="fill:#000000;stroke:#000000"
       id="polygon13752"
       points="1253.72,-567.238 1258.24,-572.585 1258.24,-572.585 1263.62,-563.458 " />
  </g>
  <g
     class="node"
     id="node24"
     transform="translate(4,988.833)">
    <title
       id="title13755">n19 (0.87 - 6)</title>
    <ellipse
       style="fill:none;stroke:#000000"
       sodipodi:ry="18"
       sodipodi:rx="59.590099"
       sodipodi:cy="-382.17001"
       sodipodi:cx="1282.84"
       d="m 1342.4301,-382.17001 c 0,9.94112 -26.6794,18 -59.5901,18 -32.9107,0 -59.5901,-8.05888 -59.5901,-18 0,-9.94113 26.6794,-18 59.5901,-18 32.9107,0 59.5901,8.05887 59.5901,18 z"
       id="ellipse13757"
       ry="18"
       rx="59.590099"
       cy="-382.17001"
       cx="1282.84" />
    <text
       style="font-size:14px;text-anchor:middle;font-family:'Times,serif'"
       id="text13759"
       font-size="14.00"
       y="-378.47"
       x="1282.84">n19 (0.87 - 6)</text>
  </g>
  <g
     class="edge"
     id="edge23"
     transform="translate(4,988.833)">
    <title
       id="title13762">n27 (0.52 - 13)-&gt;n19 (0.87 - 6)</title>
    <path
       style="fill:none;stroke:#000000"
       inkscape:connector-curvature="0"
       id="path13764"
       d="m 1282.84,-528.127 c 0,27.999 0,83.999 0,117.607" />
    <polygon
       style="fill:#000000;stroke:#000000"
       id="polygon13766"
       points="1279.34,-410.459 1286.34,-410.459 1286.34,-410.459 1282.84,-400.459 " />
  </g>
  <g
     class="node"
     id="node27"
     transform="translate(4,988.833)">
    <title
       id="title13769">n26 (0.70 - 7)</title>
    <ellipse
       style="fill:none;stroke:#000000"
       sodipodi:ry="18"
       sodipodi:rx="59.590099"
       sodipodi:cy="-382.17001"
       sodipodi:cx="1466.84"
       d="m 1526.4301,-382.17001 c 0,9.94112 -26.6794,18 -59.5901,18 -32.9107,0 -59.5901,-8.05888 -59.5901,-18 0,-9.94113 26.6794,-18 59.5901,-18 32.9107,0 59.5901,8.05887 59.5901,18 z"
       id="ellipse13771"
       ry="18"
       rx="59.590099"
       cy="-382.17001"
       cx="1466.84" />
    <text
       style="font-size:14px;text-anchor:middle;font-family:'Times,serif'"
       id="text13773"
       font-size="14.00"
       y="-378.47"
       x="1466.84">n26 (0.70 - 7)</text>
  </g>
  <g
     class="edge"
     id="edge26"
     transform="translate(4,988.833)">
    <title
       id="title13776">n27 (0.52 - 13)-&gt;n26 (0.70 - 7)</title>
    <path
       style="fill:none;stroke:#000000"
       inkscape:connector-curvature="0"
       id="path13778"
       d="m 1301.5,-528.733 c 33.01,29.061 101.76,89.592 139.38,122.708" />
    <polygon
       style="fill:#000000;stroke:#000000"
       id="polygon13780"
       points="1438.59,-403.377 1443.22,-408.631 1443.22,-408.631 1448.41,-399.396 " />
  </g>
  <ellipse
     cx="1029.84"
     cy="-271.21701"
     rx="108.375"
     ry="37.4533"
     id="ellipse13785"
     d="m 1138.215,-271.21701 c 0,20.68489 -48.5212,37.4533 -108.375,37.4533 -59.85389,0 -108.37503,-16.76841 -108.37503,-37.4533 0,-20.68489 48.52114,-37.4533 108.37503,-37.4533 59.8538,0 108.375,16.76841 108.375,37.4533 z"
     sodipodi:cx="1029.84"
     sodipodi:cy="-271.21701"
     sodipodi:rx="108.375"
     sodipodi:ry="37.4533"
     style="fill:#ffffaa;stroke:#000000"
     transform="translate(4,988.833)" />
  <text
     x="1033.84"
     y="706.31598"
     font-size="14.00"
     id="text13787"
     style="font-size:14px;text-anchor:middle;font-family:'Times,serif'">LOEVINGER</text>
  <text
     x="1033.84"
     y="721.31598"
     font-size="14.00"
     id="text13789"
     style="font-size:14px;text-anchor:middle;font-family:'Times,serif'">CONVICTION</text>
  <text
     x="1033.84"
     y="736.31598"
     font-size="14.00"
     id="text13791"
     style="font-size:14px;text-anchor:middle;font-family:'Times,serif'">CERTAINTY_FACTOR</text>
  <g
     class="edge"
     id="edge24"
     transform="translate(4,988.833)">
    <title
       id="title13794">n19 (0.87 - 6)-&gt;LOEVINGER\nCONVICTION\nCERTAINTY_FACTOR</title>
    <path
       style="fill:none;stroke:#000000"
       inkscape:connector-curvature="0"
       id="path13796"
       d="m 1255.99,-366.085 c -12.63,6.863 -27.99,14.885 -42.15,21.392 -32.51,14.941 -69.05,29.729 -100.94,42.012" />
    <polygon
       style="fill:#000000;stroke:#000000"
       id="polygon13798"
       points="1111.24,-305.797 1113.75,-299.259 1113.75,-299.259 1103.16,-298.952 " />
  </g>
  <ellipse
     cx="1282.84"
     cy="-271.21701"
     rx="126.644"
     ry="37.4533"
     id="ellipse13803"
     d="m 1409.484,-271.21701 c 0,20.68489 -56.7005,37.4533 -126.644,37.4533 -69.9436,0 -126.644,-16.76841 -126.644,-37.4533 0,-20.68489 56.7004,-37.4533 126.644,-37.4533 69.9435,0 126.644,16.76841 126.644,37.4533 z"
     sodipodi:cx="1282.84"
     sodipodi:cy="-271.21701"
     sodipodi:rx="126.644"
     sodipodi:ry="37.4533"
     style="fill:#ffffaa;stroke:#000000"
     transform="translate(4,988.833)" />
  <text
     x="1286.84"
     y="706.31598"
     font-size="14.00"
     id="text13805"
     style="font-size:14px;text-anchor:middle;font-family:'Times,serif'">CENTERED_CONFIDENCE</text>
  <text
     x="1286.84"
     y="721.31598"
     font-size="14.00"
     id="text13807"
     style="font-size:14px;text-anchor:middle;font-family:'Times,serif'">ONE_WAY_SUPPORT</text>
  <text
     x="1286.84"
     y="736.31598"
     font-size="14.00"
     id="text13809"
     style="font-size:14px;text-anchor:middle;font-family:'Times,serif'">ADDED_VALUE</text>
  <g
     class="edge"
     id="edge25"
     transform="translate(4,988.833)">
    <title
       id="title13812">n19 (0.87 - 6)-&gt;CENTERED_CONFIDENCE\nONE_WAY_SUPPORT\nADDED_VALUE</title>
    <path
       style="fill:none;stroke:#000000"
       inkscape:connector-curvature="0"
       id="path13814"
       d="m 1282.84,-364.146 c 0,12.077 0,28.915 0,44.884" />
    <polygon
       style="fill:#000000;stroke:#000000"
       id="polygon13816"
       points="1279.34,-318.952 1286.34,-318.951 1286.34,-318.951 1282.84,-308.952 " />
  </g>
  <ellipse
     cx="1466.84"
     cy="-271.21701"
     rx="39.793499"
     ry="18"
     id="ellipse13821"
     d="m 1506.6335,-271.21701 c 0,9.94112 -17.8162,18 -39.7935,18 -21.9774,0 -39.7935,-8.05888 -39.7935,-18 0,-9.94113 17.8161,-18 39.7935,-18 21.9773,0 39.7935,8.05887 39.7935,18 z"
     sodipodi:cx="1466.84"
     sodipodi:cy="-271.21701"
     sodipodi:rx="39.793499"
     sodipodi:ry="18"
     style="fill:#aaffaa;stroke:#000000"
     transform="translate(4,988.833)" />
  <text
     x="1470.84"
     y="721.31598"
     font-size="14.00"
     id="text13823"
     style="font-size:14px;text-anchor:middle;font-family:'Times,serif'">KAPPA</text>
  <g
     class="edge"
     id="edge27"
     transform="translate(4,988.833)">
    <title
       id="title13826">n26 (0.70 - 7)-&gt;KAPPA</title>
    <path
       style="fill:none;stroke:#000000"
       inkscape:connector-curvature="0"
       id="path13828"
       d="m 1466.84,-364.146 c 0,17.249 0,44.207 0,64.479" />
    <polygon
       style="fill:#000000;stroke:#000000"
       id="polygon13830"
       points="1463.34,-299.481 1470.34,-299.481 1470.34,-299.481 1466.84,-289.481 " />
  </g>
  <g
     class="node"
     id="node29"
     transform="translate(4,988.833)">
    <title
       id="title13833">n24 (0.78 - 6)</title>
    <ellipse
       style="fill:none;stroke:#000000"
       sodipodi:ry="18"
       sodipodi:rx="59.590099"
       sodipodi:cy="-271.21701"
       sodipodi:cx="1583.84"
       d="m 1643.4301,-271.21701 c 0,9.94112 -26.6794,18 -59.5901,18 -32.9107,0 -59.5901,-8.05888 -59.5901,-18 0,-9.94113 26.6794,-18 59.5901,-18 32.9107,0 59.5901,8.05887 59.5901,18 z"
       id="ellipse13835"
       ry="18"
       rx="59.590099"
       cy="-271.21701"
       cx="1583.84" />
    <text
       style="font-size:14px;text-anchor:middle;font-family:'Times,serif'"
       id="text13837"
       font-size="14.00"
       y="-267.517"
       x="1583.84">n24 (0.78 - 6)</text>
  </g>
  <g
     class="edge"
     id="edge28"
     transform="translate(4,988.833)">
    <title
       id="title13840">n26 (0.70 - 7)-&gt;n24 (0.78 - 6)</title>
    <path
       style="fill:none;stroke:#000000"
       inkscape:connector-curvature="0"
       id="path13842"
       d="m 1484.36,-364.859 c 19.73,18.374 51.96,48.388 74.36,69.254" />
    <polygon
       style="fill:#000000;stroke:#000000"
       id="polygon13844"
       points="1556.5,-292.893 1561.27,-298.016 1561.27,-298.016 1566.2,-288.64 " />
  </g>
  <ellipse
     cx="1494.84"
     cy="-179.74001"
     rx="100.182"
     ry="18"
     id="ellipse13849"
     d="m 1595.022,-179.74001 c 0,9.94113 -44.853,18 -100.182,18 -55.329,0 -100.182,-8.05887 -100.182,-18 0,-9.94112 44.853,-18 100.182,-18 55.329,0 100.182,8.05888 100.182,18 z"
     sodipodi:cx="1494.84"
     sodipodi:cy="-179.74001"
     sodipodi:rx="100.182"
     sodipodi:ry="18"
     style="fill:#aaffaa;stroke:#000000"
     transform="translate(4,988.833)" />
  <text
     x="1498.84"
     y="812.79303"
     font-size="14.00"
     id="text13851"
     style="font-size:14px;text-anchor:middle;font-family:'Times,serif'">IMPLICATION_INDEX</text>
  <g
     class="edge"
     id="edge29"
     transform="translate(4,988.833)">
    <title
       id="title13854">n24 (0.78 - 6)-&gt;IMPLICATION_INDEX</title>
    <path
       style="fill:none;stroke:#000000"
       inkscape:connector-curvature="0"
       id="path13856"
       d="m 1567.52,-253.805 c -13.63,13.7 -33.25,33.422 -48.67,48.924" />
    <polygon
       style="fill:#000000;stroke:#000000"
       id="polygon13858"
       points="1516.24,-207.214 1521.2,-202.277 1521.2,-202.277 1511.67,-197.655 " />
  </g>
  <g
     class="node"
     id="node31"
     transform="translate(4,988.833)">
    <title
       id="title13861">n20 (0.85 - 5)</title>
    <ellipse
       style="fill:none;stroke:#000000"
       sodipodi:ry="18"
       sodipodi:rx="59.590099"
       sodipodi:cy="-179.74001"
       sodipodi:cx="1672.84"
       d="m 1732.4301,-179.74001 c 0,9.94113 -26.6794,18 -59.5901,18 -32.9107,0 -59.5901,-8.05887 -59.5901,-18 0,-9.94112 26.6794,-18 59.5901,-18 32.9107,0 59.5901,8.05888 59.5901,18 z"
       id="ellipse13863"
       ry="18"
       rx="59.590099"
       cy="-179.74001"
       cx="1672.84" />
    <text
       style="font-size:14px;text-anchor:middle;font-family:'Times,serif'"
       id="text13865"
       font-size="14.00"
       y="-176.03999"
       x="1672.84">n20 (0.85 - 5)</text>
  </g>
  <g
     class="edge"
     id="edge30"
     transform="translate(4,988.833)">
    <title
       id="title13868">n24 (0.78 - 6)-&gt;n20 (0.85 - 5)</title>
    <path
       style="fill:none;stroke:#000000"
       inkscape:connector-curvature="0"
       id="path13870"
       d="m 1600.16,-253.805 c 13.72,13.787 33.5,33.672 48.96,49.217" />
    <polygon
       style="fill:#000000;stroke:#000000"
       id="polygon13872"
       points="1646.78,-201.972 1651.75,-206.909 1651.75,-206.909 1656.32,-197.35 " />
  </g>
  <ellipse
     cx="1607.84"
     cy="-107.74"
     rx="51.990799"
     ry="18"
     id="ellipse13877"
     d="m 1659.8308,-107.74 c 0,9.941128 -23.2771,18.000002 -51.9908,18.000002 -28.7138,0 -51.9908,-8.058874 -51.9908,-18.000002 0,-9.94112 23.277,-18 51.9908,-18 28.7137,0 51.9908,8.05888 51.9908,18 z"
     sodipodi:cx="1607.84"
     sodipodi:cy="-107.74"
     sodipodi:rx="51.990799"
     sodipodi:ry="18"
     style="fill:#d5d5d5;stroke:#000000"
     transform="translate(4,988.833)" />
  <text
     x="1611.84"
     y="884.79297"
     font-size="14.00"
     id="text13879"
     style="font-size:14px;text-anchor:middle;font-family:'Times,serif'">KLOSGEN</text>
  <g
     class="edge"
     id="edge31"
     transform="translate(4,988.833)">
    <title
       id="title13882">n20 (0.85 - 5)-&gt;KLOSGEN</title>
    <path
       style="fill:none;stroke:#000000"
       inkscape:connector-curvature="0"
       id="path13884"
       d="m 1657.44,-162.151 c -8.18,8.805 -18.37,19.783 -27.39,29.492" />
    <polygon
       style="fill:#000000;stroke:#000000"
       id="polygon13886"
       points="1627.37,-134.92 1632.5,-130.156 1632.5,-130.156 1623.13,-125.21 " />
  </g>
  <g
     class="node"
     id="node33"
     transform="translate(4,988.833)">
    <title
       id="title13889">n18 (0.88 - 4)</title>
    <ellipse
       style="fill:none;stroke:#000000"
       sodipodi:ry="18"
       sodipodi:rx="59.590099"
       sodipodi:cy="-107.74"
       sodipodi:cx="1737.84"
       d="m 1797.4301,-107.74 c 0,9.941128 -26.6794,18.000002 -59.5901,18.000002 -32.9107,0 -59.5901,-8.058874 -59.5901,-18.000002 0,-9.94112 26.6794,-18 59.5901,-18 32.9107,0 59.5901,8.05888 59.5901,18 z"
       id="ellipse13891"
       ry="18"
       rx="59.590099"
       cy="-107.74"
       cx="1737.84" />
    <text
       style="font-size:14px;text-anchor:middle;font-family:'Times,serif'"
       id="text13893"
       font-size="14.00"
       y="-104.04"
       x="1737.84">n18 (0.88 - 4)</text>
  </g>
  <g
     class="edge"
     id="edge32"
     transform="translate(4,988.833)">
    <title
       id="title13896">n20 (0.85 - 5)-&gt;n18 (0.88 - 4)</title>
    <path
       style="fill:none;stroke:#000000"
       inkscape:connector-curvature="0"
       id="path13898"
       d="m 1688.24,-162.151 c 8.18,8.805 18.37,19.783 27.39,29.492" />
    <polygon
       style="fill:#000000;stroke:#000000"
       id="polygon13900"
       points="1713.18,-130.156 1718.31,-134.92 1718.31,-134.92 1722.55,-125.21 " />
  </g>
  <ellipse
     cx="1636.84"
     cy="-26.8701"
     rx="74.493202"
     ry="26.7407"
     id="ellipse13905"
     d="m 1711.3332,-26.8701 c 0,14.768481 -33.3518,26.74069975 -74.4932,26.74069975 -41.1415,0 -74.4932,-11.97221875 -74.4932,-26.74069975 0,-14.768481 33.3517,-26.7407 74.4932,-26.7407 41.1414,0 74.4932,11.972219 74.4932,26.7407 z"
     sodipodi:cx="1636.84"
     sodipodi:cy="-26.8701"
     sodipodi:rx="74.493202"
     sodipodi:ry="26.7407"
     style="fill:#aaffaa;stroke:#000000"
     transform="translate(4,988.833)" />
  <text
     x="1640.84"
     y="958.1629"
     font-size="14.00"
     id="text13907"
     style="font-size:14px;text-anchor:middle;font-family:'Times,serif'">PHI</text>
  <text
     x="1640.84"
     y="973.1629"
     font-size="14.00"
     id="text13909"
     style="font-size:14px;text-anchor:middle;font-family:'Times,serif'">FISHER_PVAL</text>
  <g
     class="edge"
     id="edge33"
     transform="translate(4,988.833)">
    <title
       id="title13912">n18 (0.88 - 4)-&gt;PHI\nFISHER_PVAL</title>
    <path
       style="fill:none;stroke:#000000"
       inkscape:connector-curvature="0"
       id="path13914"
       d="m 1717.4,-90.7796 c -12.04,9.4068 -27.68,21.6154 -41.97,32.7714" />
    <polygon
       style="fill:#000000;stroke:#000000"
       id="polygon13916"
       points="1672.94,-60.5038 1677.25,-54.9866 1677.25,-54.9866 1667.22,-51.5905 " />
  </g>
  <ellipse
     cx="1838.84"
     cy="-26.8701"
     rx="109.703"
     ry="26.7407"
     id="ellipse13921"
     d="m 1948.543,-26.8701 c 0,14.768481 -49.1157,26.74069975 -109.703,26.74069975 -60.5873,0 -109.703,-11.97221875 -109.703,-26.74069975 0,-14.768481 49.1157,-26.7407 109.703,-26.7407 60.5873,0 109.703,11.972219 109.703,26.7407 z"
     sodipodi:cx="1838.84"
     sodipodi:cy="-26.8701"
     sodipodi:rx="109.703"
     sodipodi:ry="26.7407"
     style="fill:#d5d5d5;stroke:#000000"
     transform="translate(4,988.833)" />
  <text
     x="1842.84"
     y="958.1629"
     font-size="14.00"
     id="text13923"
     style="font-size:14px;text-anchor:middle;font-family:'Times,serif'">PIATETSKY_SHAPIRO</text>
  <text
     x="1842.84"
     y="973.1629"
     font-size="14.00"
     id="text13925"
     style="font-size:14px;text-anchor:middle;font-family:'Times,serif'">TWO_WAY_SUPPORT</text>
  <g
     class="edge"
     id="edge34"
     transform="translate(4,988.833)">
    <title
       id="title13928">n18 (0.88 - 4)-&gt;PIATETSKY_SHAPIRO\nTWO_WAY_SUPPORT</title>
    <path
       style="fill:none;stroke:#000000"
       inkscape:connector-curvature="0"
       id="path13930"
       d="m 1758.28,-90.7796 c 11.66,9.1058 26.68,20.8369 40.59,31.6973" />
    <polygon
       style="fill:#000000;stroke:#000000"
       id="polygon13932"
       points="1796.86,-56.211 1801.17,-61.7282 1801.17,-61.7282 1806.9,-52.8149 " />
  </g>
</svg>
