<?xml version="1.0" encoding="UTF-8" standalone="no"?>
<!DOCTYPE svg PUBLIC "-//W3C//DTD SVG 1.1//EN"
 "http://www.w3.org/Graphics/SVG/1.1/DTD/svg11.dtd">
<!-- Generated by graphviz version 2.38.0 (20140413.2041)
 -->
<!-- Title: dendrogram Pages: 1 -->
<svg width="1504pt" height="771pt"
 viewBox="0.00 0.00 1504.27 770.53" xmlns="http://www.w3.org/2000/svg" xmlns:xlink="http://www.w3.org/1999/xlink">
<g id="graph0" class="graph" transform="scale(1 1) rotate(0) translate(4 766.531)">
<title>dendrogram</title>
<polygon fill="white" stroke="none" points="-4,4 -4,-766.531 1500.27,-766.531 1500.27,4 -4,4"/>
<!-- n34 (0.34 &#45; 36) -->
<g id="node1" class="node"><title>n34 (0.34 &#45; 36)</title>
<ellipse fill="none" stroke="black" cx="509.091" cy="-744.531" rx="64.189" ry="18"/>
<text text-anchor="middle" x="509.091" y="-740.831" font-family="Times,serif" font-size="14.00">n34 (0.34 &#45; 36)</text>
</g>
<!-- n33 (0.61 &#45; 7) -->
<g id="node2" class="node"><title>n33 (0.61 &#45; 7)</title>
<ellipse fill="none" stroke="black" cx="387.091" cy="-672.531" rx="59.5901" ry="18"/>
<text text-anchor="middle" x="387.091" y="-668.831" font-family="Times,serif" font-size="14.00">n33 (0.61 &#45; 7)</text>
</g>
<!-- n34 (0.34 &#45; 36)&#45;&gt;n33 (0.61 &#45; 7) -->
<g id="edge1" class="edge"><title>n34 (0.34 &#45; 36)&#45;&gt;n33 (0.61 &#45; 7)</title>
<path fill="none" stroke="black" d="M482.015,-727.996C464.441,-717.912 441.358,-704.668 422.355,-693.764"/>
<polygon fill="black" stroke="black" points="424.087,-690.723 413.671,-688.782 420.603,-696.795 424.087,-690.723"/>
</g>
<!-- n32 (0.65 &#45; 29) -->
<g id="node11" class="node"><title>n32 (0.65 &#45; 29)</title>
<ellipse fill="none" stroke="black" cx="754.091" cy="-672.531" rx="64.189" ry="18"/>
<text text-anchor="middle" x="754.091" y="-668.831" font-family="Times,serif" font-size="14.00">n32 (0.65 &#45; 29)</text>
</g>
<!-- n34 (0.34 &#45; 36)&#45;&gt;n32 (0.65 &#45; 29) -->
<g id="edge10" class="edge"><title>n34 (0.34 &#45; 36)&#45;&gt;n32 (0.65 &#45; 29)</title>
<path fill="none" stroke="black" d="M552.328,-731.178C593.835,-719.319 656.618,-701.38 701.111,-688.668"/>
<polygon fill="black" stroke="black" points="702.221,-691.991 710.875,-685.879 700.298,-685.261 702.221,-691.991"/>
</g>
<!-- COLLECTIVE_STRENGH -->
<g id="node3" class="node"><title>COLLECTIVE_STRENGH</title>
<ellipse fill="none" stroke="black" cx="199.091" cy="-600.531" rx="109.681" ry="18"/>
<text text-anchor="middle" x="199.091" y="-596.831" font-family="Times,serif" font-size="14.00">COLLECTIVE_STRENGH</text>
</g>
<!-- n33 (0.61 &#45; 7)&#45;&gt;COLLECTIVE_STRENGH -->
<g id="edge2" class="edge"><title>n33 (0.61 &#45; 7)&#45;&gt;COLLECTIVE_STRENGH</title>
<path fill="none" stroke="black" d="M350.843,-658.034C322.414,-647.449 282.478,-632.58 250.711,-620.751"/>
<polygon fill="black" stroke="black" points="251.728,-617.395 241.136,-617.186 249.286,-623.955 251.728,-617.395"/>
</g>
<!-- n30 (0.80 &#45; 6) -->
<g id="node4" class="node"><title>n30 (0.80 &#45; 6)</title>
<ellipse fill="none" stroke="black" cx="387.091" cy="-600.531" rx="59.5901" ry="18"/>
<text text-anchor="middle" x="387.091" y="-596.831" font-family="Times,serif" font-size="14.00">n30 (0.80 &#45; 6)</text>
</g>
<!-- n33 (0.61 &#45; 7)&#45;&gt;n30 (0.80 &#45; 6) -->
<g id="edge3" class="edge"><title>n33 (0.61 &#45; 7)&#45;&gt;n30 (0.80 &#45; 6)</title>
<path fill="none" stroke="black" d="M387.091,-654.228C387.091,-646.514 387.091,-637.244 387.091,-628.644"/>
<polygon fill="black" stroke="black" points="390.591,-628.635 387.091,-618.635 383.591,-628.635 390.591,-628.635"/>
</g>
<!-- n26 (0.87 &#45; 2) -->
<g id="node5" class="node"><title>n26 (0.87 &#45; 2)</title>
<ellipse fill="none" stroke="black" cx="249.091" cy="-349.955" rx="59.5901" ry="18"/>
<text text-anchor="middle" x="249.091" y="-346.255" font-family="Times,serif" font-size="14.00">n26 (0.87 &#45; 2)</text>
</g>
<!-- n30 (0.80 &#45; 6)&#45;&gt;n26 (0.87 &#45; 2) -->
<g id="edge4" class="edge"><title>n30 (0.80 &#45; 6)&#45;&gt;n26 (0.87 &#45; 2)</title>
<path fill="none" stroke="black" d="M360.427,-584.329C346.155,-575.018 329.265,-561.938 318.091,-546.531 279.944,-493.935 261.292,-418.31 253.605,-378.257"/>
<polygon fill="black" stroke="black" points="257.004,-377.388 251.761,-368.182 250.119,-378.649 257.004,-377.388"/>
</g>
<!-- n28 (0.86 &#45; 4) -->
<g id="node8" class="node"><title>n28 (0.86 &#45; 4)</title>
<ellipse fill="none" stroke="black" cx="387.091" cy="-349.955" rx="59.5901" ry="18"/>
<text text-anchor="middle" x="387.091" y="-346.255" font-family="Times,serif" font-size="14.00">n28 (0.86 &#45; 4)</text>
</g>
<!-- n30 (0.80 &#45; 6)&#45;&gt;n28 (0.86 &#45; 4) -->
<g id="edge7" class="edge"><title>n30 (0.80 &#45; 6)&#45;&gt;n28 (0.86 &#45; 4)</title>
<path fill="none" stroke="black" d="M387.091,-582.445C387.091,-540.05 387.091,-429.744 387.091,-378.218"/>
<polygon fill="black" stroke="black" points="390.591,-378.161 387.091,-368.161 383.591,-378.161 390.591,-378.161"/>
</g>
<!-- TWO_WAY_SUPPORT -->
<g id="node6" class="node"><title>TWO_WAY_SUPPORT</title>
<ellipse fill="none" stroke="black" cx="100.091" cy="-58.6899" rx="100.182" ry="18"/>
<text text-anchor="middle" x="100.091" y="-54.9899" font-family="Times,serif" font-size="14.00">TWO_WAY_SUPPORT</text>
</g>
<!-- n26 (0.87 &#45; 2)&#45;&gt;TWO_WAY_SUPPORT -->
<g id="edge5" class="edge"><title>n26 (0.87 &#45; 2)&#45;&gt;TWO_WAY_SUPPORT</title>
<path fill="none" stroke="black" d="M240.217,-331.727C215.113,-282.991 143.479,-143.923 113.52,-85.7602"/>
<polygon fill="black" stroke="black" points="116.61,-84.1154 108.919,-76.8282 110.387,-87.3209 116.61,-84.1154"/>
</g>
<!-- KAPPA -->
<g id="node7" class="node"><title>KAPPA</title>
<ellipse fill="none" stroke="black" cx="258.091" cy="-58.6899" rx="39.7935" ry="18"/>
<text text-anchor="middle" x="258.091" y="-54.9899" font-family="Times,serif" font-size="14.00">KAPPA</text>
</g>
<!-- n26 (0.87 &#45; 2)&#45;&gt;KAPPA -->
<g id="edge6" class="edge"><title>n26 (0.87 &#45; 2)&#45;&gt;KAPPA</title>
<path fill="none" stroke="black" d="M249.627,-331.727C251.134,-283.293 255.417,-145.64 257.246,-86.8487"/>
<polygon fill="black" stroke="black" points="260.745,-86.9322 257.558,-76.8282 253.749,-86.7145 260.745,-86.9322"/>
</g>
<!-- RECALL -->
<g id="node9" class="node"><title>RECALL</title>
<ellipse fill="none" stroke="black" cx="378.091" cy="-58.6899" rx="44.6926" ry="18"/>
<text text-anchor="middle" x="378.091" y="-54.9899" font-family="Times,serif" font-size="14.00">RECALL</text>
</g>
<!-- n28 (0.86 &#45; 4)&#45;&gt;RECALL -->
<g id="edge8" class="edge"><title>n28 (0.86 &#45; 4)&#45;&gt;RECALL</title>
<path fill="none" stroke="black" d="M386.555,-331.727C385.048,-283.293 380.765,-145.64 378.936,-86.8487"/>
<polygon fill="black" stroke="black" points="382.434,-86.7145 378.624,-76.8282 375.437,-86.9322 382.434,-86.7145"/>
</g>
<!-- JACCARD\nPIATETSKY_SHAPIRO\nSPECIFICITY -->
<g id="node10" class="node"><title>JACCARD\nPIATETSKY_SHAPIRO\nSPECIFICITY</title>
<ellipse fill="none" stroke="black" cx="550.091" cy="-58.6899" rx="109.703" ry="37.4533"/>
<text text-anchor="middle" x="550.091" y="-69.9899" font-family="Times,serif" font-size="14.00">JACCARD</text>
<text text-anchor="middle" x="550.091" y="-54.9899" font-family="Times,serif" font-size="14.00">PIATETSKY_SHAPIRO</text>
<text text-anchor="middle" x="550.091" y="-39.9899" font-family="Times,serif" font-size="14.00">SPECIFICITY</text>
</g>
<!-- n28 (0.86 &#45; 4)&#45;&gt;JACCARD\nPIATETSKY_SHAPIRO\nSPECIFICITY -->
<g id="edge9" class="edge"><title>n28 (0.86 &#45; 4)&#45;&gt;JACCARD\nPIATETSKY_SHAPIRO\nSPECIFICITY</title>
<path fill="none" stroke="black" d="M390.42,-331.867C397.882,-296.418 418.323,-213.206 456.091,-153.38 468.141,-134.292 484.735,-116.093 500.63,-100.897"/>
<polygon fill="black" stroke="black" points="503.431,-103.07 508.354,-93.6879 498.655,-97.9525 503.431,-103.07"/>
</g>
<!-- n29 (0.81 &#45; 9) -->
<g id="node12" class="node"><title>n29 (0.81 &#45; 9)</title>
<ellipse fill="none" stroke="black" cx="754.091" cy="-600.531" rx="59.5901" ry="18"/>
<text text-anchor="middle" x="754.091" y="-596.831" font-family="Times,serif" font-size="14.00">n29 (0.81 &#45; 9)</text>
</g>
<!-- n32 (0.65 &#45; 29)&#45;&gt;n29 (0.81 &#45; 9) -->
<g id="edge11" class="edge"><title>n32 (0.65 &#45; 29)&#45;&gt;n29 (0.81 &#45; 9)</title>
<path fill="none" stroke="black" d="M754.091,-654.228C754.091,-646.514 754.091,-637.244 754.091,-628.644"/>
<polygon fill="black" stroke="black" points="757.591,-628.635 754.091,-618.635 750.591,-628.635 757.591,-628.635"/>
</g>
<!-- n31 (0.70 &#45; 20) -->
<g id="node17" class="node"><title>n31 (0.70 &#45; 20)</title>
<ellipse fill="none" stroke="black" cx="1079.09" cy="-600.531" rx="64.189" ry="18"/>
<text text-anchor="middle" x="1079.09" y="-596.831" font-family="Times,serif" font-size="14.00">n31 (0.70 &#45; 20)</text>
</g>
<!-- n32 (0.65 &#45; 29)&#45;&gt;n31 (0.70 &#45; 20) -->
<g id="edge16" class="edge"><title>n32 (0.65 &#45; 29)&#45;&gt;n31 (0.70 &#45; 20)</title>
<path fill="none" stroke="black" d="M803.452,-660.9C861.484,-648.4 957.734,-627.67 1019.77,-614.308"/>
<polygon fill="black" stroke="black" points="1020.76,-617.675 1029.8,-612.148 1019.29,-610.832 1020.76,-617.675"/>
</g>
<!-- J_MEASURE\nTWO_WAY_SUPPORT_VARIATION\nFISHER_PVAL -->
<g id="node13" class="node"><title>J_MEASURE\nTWO_WAY_SUPPORT_VARIATION\nFISHER_PVAL</title>
<ellipse fill="none" stroke="black" cx="632.091" cy="-349.955" rx="166.754" ry="37.4533"/>
<text text-anchor="middle" x="632.091" y="-361.255" font-family="Times,serif" font-size="14.00">J_MEASURE</text>
<text text-anchor="middle" x="632.091" y="-346.255" font-family="Times,serif" font-size="14.00">TWO_WAY_SUPPORT_VARIATION</text>
<text text-anchor="middle" x="632.091" y="-331.255" font-family="Times,serif" font-size="14.00">FISHER_PVAL</text>
</g>
<!-- n29 (0.81 &#45; 9)&#45;&gt;J_MEASURE\nTWO_WAY_SUPPORT_VARIATION\nFISHER_PVAL -->
<g id="edge12" class="edge"><title>n29 (0.81 &#45; 9)&#45;&gt;J_MEASURE\nTWO_WAY_SUPPORT_VARIATION\nFISHER_PVAL</title>
<path fill="none" stroke="black" d="M745.706,-582.445C727.092,-544.521 681.807,-452.251 654.361,-396.33"/>
<polygon fill="black" stroke="black" points="657.498,-394.779 649.95,-387.344 651.214,-397.863 657.498,-394.779"/>
</g>
<!-- n27 (0.86 &#45; 6) -->
<g id="node14" class="node"><title>n27 (0.86 &#45; 6)</title>
<ellipse fill="none" stroke="black" cx="877.091" cy="-349.955" rx="59.5901" ry="18"/>
<text text-anchor="middle" x="877.091" y="-346.255" font-family="Times,serif" font-size="14.00">n27 (0.86 &#45; 6)</text>
</g>
<!-- n29 (0.81 &#45; 9)&#45;&gt;n27 (0.86 &#45; 6) -->
<g id="edge13" class="edge"><title>n29 (0.81 &#45; 9)&#45;&gt;n27 (0.86 &#45; 6)</title>
<path fill="none" stroke="black" d="M774.582,-583.441C785.771,-573.757 799.131,-560.604 808.091,-546.531 842.898,-491.863 862.87,-417.384 871.661,-377.979"/>
<polygon fill="black" stroke="black" points="875.111,-378.581 873.8,-368.067 868.269,-377.104 875.111,-378.581"/>
</g>
<!-- COSINE -->
<g id="node15" class="node"><title>COSINE</title>
<ellipse fill="none" stroke="black" cx="794.091" cy="-58.6899" rx="42.4939" ry="18"/>
<text text-anchor="middle" x="794.091" y="-54.9899" font-family="Times,serif" font-size="14.00">COSINE</text>
</g>
<!-- n27 (0.86 &#45; 6)&#45;&gt;COSINE -->
<g id="edge14" class="edge"><title>n27 (0.86 &#45; 6)&#45;&gt;COSINE</title>
<path fill="none" stroke="black" d="M872.148,-331.727C858.221,-283.192 818.589,-145.068 801.779,-86.4838"/>
<polygon fill="black" stroke="black" points="805.131,-85.475 799.009,-76.8282 798.403,-87.4057 805.131,-85.475"/>
</g>
<!-- KLOSGEN\nIMPLICATION_INDEX\nGINI\nPHI\nCHI_SQUARE -->
<g id="node16" class="node"><title>KLOSGEN\nIMPLICATION_INDEX\nGINI\nPHI\nCHI_SQUARE</title>
<ellipse fill="none" stroke="black" cx="963.091" cy="-58.6899" rx="108.789" ry="58.8803"/>
<text text-anchor="middle" x="963.091" y="-84.9899" font-family="Times,serif" font-size="14.00">KLOSGEN</text>
<text text-anchor="middle" x="963.091" y="-69.9899" font-family="Times,serif" font-size="14.00">IMPLICATION_INDEX</text>
<text text-anchor="middle" x="963.091" y="-54.9899" font-family="Times,serif" font-size="14.00">GINI</text>
<text text-anchor="middle" x="963.091" y="-39.9899" font-family="Times,serif" font-size="14.00">PHI</text>
<text text-anchor="middle" x="963.091" y="-24.9899" font-family="Times,serif" font-size="14.00">CHI_SQUARE</text>
</g>
<!-- n27 (0.86 &#45; 6)&#45;&gt;KLOSGEN\nIMPLICATION_INDEX\nGINI\nPHI\nCHI_SQUARE -->
<g id="edge15" class="edge"><title>n27 (0.86 &#45; 6)&#45;&gt;KLOSGEN\nIMPLICATION_INDEX\nGINI\nPHI\nCHI_SQUARE</title>
<path fill="none" stroke="black" d="M882.213,-331.727C893.949,-292.254 923.302,-193.521 943.224,-126.514"/>
<polygon fill="black" stroke="black" points="946.596,-127.452 946.091,-116.869 939.887,-125.457 946.596,-127.452"/>
</g>
<!-- LEAST_CONTRADICTION\nACCURACY -->
<g id="node18" class="node"><title>LEAST_CONTRADICTION\nACCURACY</title>
<ellipse fill="none" stroke="black" cx="1079.09" cy="-349.955" rx="124.402" ry="26.7407"/>
<text text-anchor="middle" x="1079.09" y="-353.755" font-family="Times,serif" font-size="14.00">LEAST_CONTRADICTION</text>
<text text-anchor="middle" x="1079.09" y="-338.755" font-family="Times,serif" font-size="14.00">ACCURACY</text>
</g>
<!-- n31 (0.70 &#45; 20)&#45;&gt;LEAST_CONTRADICTION\nACCURACY -->
<g id="edge17" class="edge"><title>n31 (0.70 &#45; 20)&#45;&gt;LEAST_CONTRADICTION\nACCURACY</title>
<path fill="none" stroke="black" d="M1079.09,-582.445C1079.09,-542.341 1079.09,-441.465 1079.09,-387.064"/>
<polygon fill="black" stroke="black" points="1082.59,-386.836 1079.09,-376.836 1075.59,-386.836 1082.59,-386.836"/>
</g>
<!-- YULE_Y\nYULE_Q\nODDS_RATIO\nRELATIVE_RISK\nLEVERAGE\nONE_WAY_SUPPORT\nCONVICTION\nLOEVINGER\nSEBAG_SCHOENAUER\nODD_MULTIPLIER\nCOUNTER_EXAMPLE_RATE\nZHANG\nBAYES\nCENTERED_CONFIDENCE\nCERTAINTY_FACTOR\nADDED_VALUE\nLIFT\nCONFIDENCE -->
<g id="node19" class="node"><title>YULE_Y\nYULE_Q\nODDS_RATIO\nRELATIVE_RISK\nLEVERAGE\nONE_WAY_SUPPORT\nCONVICTION\nLOEVINGER\nSEBAG_SCHOENAUER\nODD_MULTIPLIER\nCOUNTER_EXAMPLE_RATE\nZHANG\nBAYES\nCENTERED_CONFIDENCE\nCERTAINTY_FACTOR\nADDED_VALUE\nLIFT\nCONFIDENCE</title>
<ellipse fill="none" stroke="black" cx="1359.09" cy="-349.955" rx="137.358" ry="196.651"/>
<text text-anchor="middle" x="1359.09" y="-473.755" font-family="Times,serif" font-size="14.00">YULE_Y</text>
<text text-anchor="middle" x="1359.09" y="-458.755" font-family="Times,serif" font-size="14.00">YULE_Q</text>
<text text-anchor="middle" x="1359.09" y="-443.755" font-family="Times,serif" font-size="14.00">ODDS_RATIO</text>
<text text-anchor="middle" x="1359.09" y="-428.755" font-family="Times,serif" font-size="14.00">RELATIVE_RISK</text>
<text text-anchor="middle" x="1359.09" y="-413.755" font-family="Times,serif" font-size="14.00">LEVERAGE</text>
<text text-anchor="middle" x="1359.09" y="-398.755" font-family="Times,serif" font-size="14.00">ONE_WAY_SUPPORT</text>
<text text-anchor="middle" x="1359.09" y="-383.755" font-family="Times,serif" font-size="14.00">CONVICTION</text>
<text text-anchor="middle" x="1359.09" y="-368.755" font-family="Times,serif" font-size="14.00">LOEVINGER</text>
<text text-anchor="middle" x="1359.09" y="-353.755" font-family="Times,serif" font-size="14.00">SEBAG_SCHOENAUER</text>
<text text-anchor="middle" x="1359.09" y="-338.755" font-family="Times,serif" font-size="14.00">ODD_MULTIPLIER</text>
<text text-anchor="middle" x="1359.09" y="-323.755" font-family="Times,serif" font-size="14.00">COUNTER_EXAMPLE_RATE</text>
<text text-anchor="middle" x="1359.09" y="-308.755" font-family="Times,serif" font-size="14.00">ZHANG</text>
<text text-anchor="middle" x="1359.09" y="-293.755" font-family="Times,serif" font-size="14.00">BAYES</text>
<text text-anchor="middle" x="1359.09" y="-278.755" font-family="Times,serif" font-size="14.00">CENTERED_CONFIDENCE</text>
<text text-anchor="middle" x="1359.09" y="-263.755" font-family="Times,serif" font-size="14.00">CERTAINTY_FACTOR</text>
<text text-anchor="middle" x="1359.09" y="-248.755" font-family="Times,serif" font-size="14.00">ADDED_VALUE</text>
<text text-anchor="middle" x="1359.09" y="-233.755" font-family="Times,serif" font-size="14.00">LIFT</text>
<text text-anchor="middle" x="1359.09" y="-218.755" font-family="Times,serif" font-size="14.00">CONFIDENCE</text>
</g>
<!-- n31 (0.70 &#45; 20)&#45;&gt;YULE_Y\nYULE_Q\nODDS_RATIO\nRELATIVE_RISK\nLEVERAGE\nONE_WAY_SUPPORT\nCONVICTION\nLOEVINGER\nSEBAG_SCHOENAUER\nODD_MULTIPLIER\nCOUNTER_EXAMPLE_RATE\nZHANG\nBAYES\nCENTERED_CONFIDENCE\nCERTAINTY_FACTOR\nADDED_VALUE\nLIFT\nCONFIDENCE -->
<g id="edge18" class="edge"><title>n31 (0.70 &#45; 20)&#45;&gt;YULE_Y\nYULE_Q\nODDS_RATIO\nRELATIVE_RISK\nLEVERAGE\nONE_WAY_SUPPORT\nCONVICTION\nLOEVINGER\nSEBAG_SCHOENAUER\nODD_MULTIPLIER\nCOUNTER_EXAMPLE_RATE\nZHANG\nBAYES\nCENTERED_CONFIDENCE\nCERTAINTY_FACTOR\nADDED_VALUE\nLIFT\nCONFIDENCE</title>
<path fill="none" stroke="black" d="M1125.38,-587.915C1152.52,-579.517 1186.42,-566.157 1212.09,-546.531 1228.92,-533.667 1244.77,-518.395 1259.38,-502.14"/>
<polygon fill="black" stroke="black" points="1262.03,-504.428 1266,-494.608 1256.77,-499.804 1262.03,-504.428"/>
</g>
</g>
</svg>
