<?xml version="1.0" encoding="UTF-8" standalone="no"?>
<!DOCTYPE svg PUBLIC "-//W3C//DTD SVG 1.1//EN"
 "http://www.w3.org/Graphics/SVG/1.1/DTD/svg11.dtd">
<!-- Generated by graphviz version 2.38.0 (20140413.2041)
 -->
<!-- Title: dendrogram Pages: 1 -->
<svg width="906pt" height="920pt"
 viewBox="0.00 0.00 905.63 920.44" xmlns="http://www.w3.org/2000/svg" xmlns:xlink="http://www.w3.org/1999/xlink">
<g id="graph0" class="graph" transform="scale(1 1) rotate(0) translate(4 916.438)">
<title>dendrogram</title>
<polygon fill="white" stroke="none" points="-4,4 -4,-916.438 901.63,-916.438 901.63,4 -4,4"/>
<!-- n34 (0.39 &#45; 36) -->
<g id="node1" class="node"><title>n34 (0.39 &#45; 36)</title>
<ellipse fill="none" stroke="black" cx="227.451" cy="-894.438" rx="64.189" ry="18"/>
<text text-anchor="middle" x="227.451" y="-890.738" font-family="Times,serif" font-size="14.00">n34 (0.39 &#45; 36)</text>
</g>
<!-- LEAST_CONTRADICTION\nACCURACY -->
<g id="node2" class="node"><title>LEAST_CONTRADICTION\nACCURACY</title>
<ellipse fill="none" stroke="black" cx="124.451" cy="-813.568" rx="124.402" ry="26.7407"/>
<text text-anchor="middle" x="124.451" y="-817.368" font-family="Times,serif" font-size="14.00">LEAST_CONTRADICTION</text>
<text text-anchor="middle" x="124.451" y="-802.368" font-family="Times,serif" font-size="14.00">ACCURACY</text>
</g>
<!-- n34 (0.39 &#45; 36)&#45;&gt;LEAST_CONTRADICTION\nACCURACY -->
<g id="edge1" class="edge"><title>n34 (0.39 &#45; 36)&#45;&gt;LEAST_CONTRADICTION\nACCURACY</title>
<path fill="none" stroke="black" d="M206.109,-877.096C194.287,-868.044 179.192,-856.485 165.204,-845.774"/>
<polygon fill="black" stroke="black" points="167.197,-842.891 157.129,-839.59 162.941,-848.449 167.197,-842.891"/>
</g>
<!-- n33 (0.49 &#45; 34) -->
<g id="node3" class="node"><title>n33 (0.49 &#45; 34)</title>
<ellipse fill="none" stroke="black" cx="331.451" cy="-813.568" rx="64.189" ry="18"/>
<text text-anchor="middle" x="331.451" y="-809.868" font-family="Times,serif" font-size="14.00">n33 (0.49 &#45; 34)</text>
</g>
<!-- n34 (0.39 &#45; 36)&#45;&gt;n33 (0.49 &#45; 34) -->
<g id="edge2" class="edge"><title>n34 (0.39 &#45; 36)&#45;&gt;n33 (0.49 &#45; 34)</title>
<path fill="none" stroke="black" d="M248.748,-877.287C264.171,-865.591 285.208,-849.636 302.205,-836.747"/>
<polygon fill="black" stroke="black" points="304.329,-839.528 310.182,-830.697 300.1,-833.951 304.329,-839.528"/>
</g>
<!-- n30 (0.83 &#45; 4) -->
<g id="node4" class="node"><title>n30 (0.83 &#45; 4)</title>
<ellipse fill="none" stroke="black" cx="208.451" cy="-732.698" rx="59.5901" ry="18"/>
<text text-anchor="middle" x="208.451" y="-728.998" font-family="Times,serif" font-size="14.00">n30 (0.83 &#45; 4)</text>
</g>
<!-- n33 (0.49 &#45; 34)&#45;&gt;n30 (0.83 &#45; 4) -->
<g id="edge3" class="edge"><title>n33 (0.49 &#45; 34)&#45;&gt;n30 (0.83 &#45; 4)</title>
<path fill="none" stroke="black" d="M306.856,-796.797C287.962,-784.682 261.694,-767.838 241.05,-754.601"/>
<polygon fill="black" stroke="black" points="242.892,-751.624 232.584,-749.172 239.113,-757.517 242.892,-751.624"/>
</g>
<!-- n32 (0.61 &#45; 30) -->
<g id="node9" class="node"><title>n32 (0.61 &#45; 30)</title>
<ellipse fill="none" stroke="black" cx="453.451" cy="-732.698" rx="64.189" ry="18"/>
<text text-anchor="middle" x="453.451" y="-728.998" font-family="Times,serif" font-size="14.00">n32 (0.61 &#45; 30)</text>
</g>
<!-- n33 (0.49 &#45; 34)&#45;&gt;n32 (0.61 &#45; 30) -->
<g id="edge8" class="edge"><title>n33 (0.49 &#45; 34)&#45;&gt;n32 (0.61 &#45; 30)</title>
<path fill="none" stroke="black" d="M355.846,-796.797C374.381,-784.814 400.072,-768.206 420.444,-755.036"/>
<polygon fill="black" stroke="black" points="422.6,-757.81 429.098,-749.441 418.8,-751.931 422.6,-757.81"/>
</g>
<!-- JACCARD\nCOSINE -->
<g id="node5" class="node"><title>JACCARD\nCOSINE</title>
<ellipse fill="none" stroke="black" cx="75.4508" cy="-630.614" rx="55.3091" ry="26.7407"/>
<text text-anchor="middle" x="75.4508" y="-634.414" font-family="Times,serif" font-size="14.00">JACCARD</text>
<text text-anchor="middle" x="75.4508" y="-619.414" font-family="Times,serif" font-size="14.00">COSINE</text>
</g>
<!-- n30 (0.83 &#45; 4)&#45;&gt;JACCARD\nCOSINE -->
<g id="edge4" class="edge"><title>n30 (0.83 &#45; 4)&#45;&gt;JACCARD\nCOSINE</title>
<path fill="none" stroke="black" d="M187.377,-715.839C167.458,-700.85 137.124,-678.024 113.058,-659.914"/>
<polygon fill="black" stroke="black" points="114.929,-656.941 104.834,-653.725 110.72,-662.535 114.929,-656.941"/>
</g>
<!-- n28 (0.90 &#45; 2) -->
<g id="node6" class="node"><title>n28 (0.90 &#45; 2)</title>
<ellipse fill="none" stroke="black" cx="208.451" cy="-630.614" rx="59.5901" ry="18"/>
<text text-anchor="middle" x="208.451" y="-626.914" font-family="Times,serif" font-size="14.00">n28 (0.90 &#45; 2)</text>
</g>
<!-- n30 (0.83 &#45; 4)&#45;&gt;n28 (0.90 &#45; 2) -->
<g id="edge5" class="edge"><title>n30 (0.83 &#45; 4)&#45;&gt;n28 (0.90 &#45; 2)</title>
<path fill="none" stroke="black" d="M208.451,-714.264C208.451,-699.052 208.451,-676.719 208.451,-659.102"/>
<polygon fill="black" stroke="black" points="211.951,-658.848 208.451,-648.848 204.951,-658.848 211.951,-658.848"/>
</g>
<!-- COLLECTIVE_STRENGH -->
<g id="node7" class="node"><title>COLLECTIVE_STRENGH</title>
<ellipse fill="none" stroke="black" cx="150.451" cy="-349.955" rx="109.681" ry="18"/>
<text text-anchor="middle" x="150.451" y="-346.255" font-family="Times,serif" font-size="14.00">COLLECTIVE_STRENGH</text>
</g>
<!-- n28 (0.90 &#45; 2)&#45;&gt;COLLECTIVE_STRENGH -->
<g id="edge6" class="edge"><title>n28 (0.90 &#45; 2)&#45;&gt;COLLECTIVE_STRENGH</title>
<path fill="none" stroke="black" d="M204.91,-612.602C195.182,-565.867 167.986,-435.204 156.115,-378.167"/>
<polygon fill="black" stroke="black" points="159.483,-377.176 154.019,-368.099 152.63,-378.602 159.483,-377.176"/>
</g>
<!-- RECALL -->
<g id="node8" class="node"><title>RECALL</title>
<ellipse fill="none" stroke="black" cx="323.451" cy="-349.955" rx="44.6926" ry="18"/>
<text text-anchor="middle" x="323.451" y="-346.255" font-family="Times,serif" font-size="14.00">RECALL</text>
</g>
<!-- n28 (0.90 &#45; 2)&#45;&gt;RECALL -->
<g id="edge7" class="edge"><title>n28 (0.90 &#45; 2)&#45;&gt;RECALL</title>
<path fill="none" stroke="black" d="M223.529,-612.985C237.286,-597.008 257.275,-571.651 269.451,-546.531 296.907,-489.889 312.344,-417.027 319.164,-378.189"/>
<polygon fill="black" stroke="black" points="322.64,-378.623 320.861,-368.179 315.738,-377.453 322.64,-378.623"/>
</g>
<!-- GINI\nCHI_SQUARE\nJ_MEASURE\nTWO_WAY_SUPPORT_VARIATION -->
<g id="node10" class="node"><title>GINI\nCHI_SQUARE\nJ_MEASURE\nTWO_WAY_SUPPORT_VARIATION</title>
<ellipse fill="none" stroke="black" cx="453.451" cy="-630.614" rx="166.754" ry="48.1667"/>
<text text-anchor="middle" x="453.451" y="-649.414" font-family="Times,serif" font-size="14.00">GINI</text>
<text text-anchor="middle" x="453.451" y="-634.414" font-family="Times,serif" font-size="14.00">CHI_SQUARE</text>
<text text-anchor="middle" x="453.451" y="-619.414" font-family="Times,serif" font-size="14.00">J_MEASURE</text>
<text text-anchor="middle" x="453.451" y="-604.414" font-family="Times,serif" font-size="14.00">TWO_WAY_SUPPORT_VARIATION</text>
</g>
<!-- n32 (0.61 &#45; 30)&#45;&gt;GINI\nCHI_SQUARE\nJ_MEASURE\nTWO_WAY_SUPPORT_VARIATION -->
<g id="edge9" class="edge"><title>n32 (0.61 &#45; 30)&#45;&gt;GINI\nCHI_SQUARE\nJ_MEASURE\nTWO_WAY_SUPPORT_VARIATION</title>
<path fill="none" stroke="black" d="M453.451,-714.264C453.451,-707.026 453.451,-698.175 453.451,-688.987"/>
<polygon fill="black" stroke="black" points="456.951,-688.945 453.451,-678.945 449.951,-688.945 456.951,-688.945"/>
</g>
<!-- n31 (0.74 &#45; 26) -->
<g id="node11" class="node"><title>n31 (0.74 &#45; 26)</title>
<ellipse fill="none" stroke="black" cx="702.451" cy="-630.614" rx="64.189" ry="18"/>
<text text-anchor="middle" x="702.451" y="-626.914" font-family="Times,serif" font-size="14.00">n31 (0.74 &#45; 26)</text>
</g>
<!-- n32 (0.61 &#45; 30)&#45;&gt;n31 (0.74 &#45; 26) -->
<g id="edge10" class="edge"><title>n32 (0.61 &#45; 30)&#45;&gt;n31 (0.74 &#45; 26)</title>
<path fill="none" stroke="black" d="M502.217,-720.925C538.311,-712.026 588.168,-697.764 629.451,-678.698 644.357,-671.813 659.788,-662.268 672.602,-653.571"/>
<polygon fill="black" stroke="black" points="674.798,-656.307 681.015,-647.729 670.805,-650.558 674.798,-656.307"/>
</g>
<!-- n29 (0.87 &#45; 8) -->
<g id="node12" class="node"><title>n29 (0.87 &#45; 8)</title>
<ellipse fill="none" stroke="black" cx="545.451" cy="-349.955" rx="59.5901" ry="18"/>
<text text-anchor="middle" x="545.451" y="-346.255" font-family="Times,serif" font-size="14.00">n29 (0.87 &#45; 8)</text>
</g>
<!-- n31 (0.74 &#45; 26)&#45;&gt;n29 (0.87 &#45; 8) -->
<g id="edge11" class="edge"><title>n31 (0.74 &#45; 26)&#45;&gt;n29 (0.87 &#45; 8)</title>
<path fill="none" stroke="black" d="M680.075,-613.474C660.354,-598.212 632.093,-573.656 614.451,-546.531 579.116,-492.203 559.359,-417.586 550.742,-378.069"/>
<polygon fill="black" stroke="black" points="554.134,-377.192 548.649,-368.128 547.284,-378.634 554.134,-377.192"/>
</g>
<!-- LEVERAGE\nRELATIVE_RISK\nYULE_Y\nYULE_Q\nODDS_RATIO\nONE_WAY_SUPPORT\nCONVICTION\nLOEVINGER\nSEBAG_SCHOENAUER\nODD_MULTIPLIER\nCOUNTER_EXAMPLE_RATE\nZHANG\nBAYES\nCENTERED_CONFIDENCE\nCERTAINTY_FACTOR\nADDED_VALUE\nLIFT\nCONFIDENCE -->
<g id="node15" class="node"><title>LEVERAGE\nRELATIVE_RISK\nYULE_Y\nYULE_Q\nODDS_RATIO\nONE_WAY_SUPPORT\nCONVICTION\nLOEVINGER\nSEBAG_SCHOENAUER\nODD_MULTIPLIER\nCOUNTER_EXAMPLE_RATE\nZHANG\nBAYES\nCENTERED_CONFIDENCE\nCERTAINTY_FACTOR\nADDED_VALUE\nLIFT\nCONFIDENCE</title>
<ellipse fill="none" stroke="black" cx="760.451" cy="-349.955" rx="137.358" ry="196.651"/>
<text text-anchor="middle" x="760.451" y="-473.755" font-family="Times,serif" font-size="14.00">LEVERAGE</text>
<text text-anchor="middle" x="760.451" y="-458.755" font-family="Times,serif" font-size="14.00">RELATIVE_RISK</text>
<text text-anchor="middle" x="760.451" y="-443.755" font-family="Times,serif" font-size="14.00">YULE_Y</text>
<text text-anchor="middle" x="760.451" y="-428.755" font-family="Times,serif" font-size="14.00">YULE_Q</text>
<text text-anchor="middle" x="760.451" y="-413.755" font-family="Times,serif" font-size="14.00">ODDS_RATIO</text>
<text text-anchor="middle" x="760.451" y="-398.755" font-family="Times,serif" font-size="14.00">ONE_WAY_SUPPORT</text>
<text text-anchor="middle" x="760.451" y="-383.755" font-family="Times,serif" font-size="14.00">CONVICTION</text>
<text text-anchor="middle" x="760.451" y="-368.755" font-family="Times,serif" font-size="14.00">LOEVINGER</text>
<text text-anchor="middle" x="760.451" y="-353.755" font-family="Times,serif" font-size="14.00">SEBAG_SCHOENAUER</text>
<text text-anchor="middle" x="760.451" y="-338.755" font-family="Times,serif" font-size="14.00">ODD_MULTIPLIER</text>
<text text-anchor="middle" x="760.451" y="-323.755" font-family="Times,serif" font-size="14.00">COUNTER_EXAMPLE_RATE</text>
<text text-anchor="middle" x="760.451" y="-308.755" font-family="Times,serif" font-size="14.00">ZHANG</text>
<text text-anchor="middle" x="760.451" y="-293.755" font-family="Times,serif" font-size="14.00">BAYES</text>
<text text-anchor="middle" x="760.451" y="-278.755" font-family="Times,serif" font-size="14.00">CENTERED_CONFIDENCE</text>
<text text-anchor="middle" x="760.451" y="-263.755" font-family="Times,serif" font-size="14.00">CERTAINTY_FACTOR</text>
<text text-anchor="middle" x="760.451" y="-248.755" font-family="Times,serif" font-size="14.00">ADDED_VALUE</text>
<text text-anchor="middle" x="760.451" y="-233.755" font-family="Times,serif" font-size="14.00">LIFT</text>
<text text-anchor="middle" x="760.451" y="-218.755" font-family="Times,serif" font-size="14.00">CONFIDENCE</text>
</g>
<!-- n31 (0.74 &#45; 26)&#45;&gt;LEVERAGE\nRELATIVE_RISK\nYULE_Y\nYULE_Q\nODDS_RATIO\nONE_WAY_SUPPORT\nCONVICTION\nLOEVINGER\nSEBAG_SCHOENAUER\nODD_MULTIPLIER\nCOUNTER_EXAMPLE_RATE\nZHANG\nBAYES\nCENTERED_CONFIDENCE\nCERTAINTY_FACTOR\nADDED_VALUE\nLIFT\nCONFIDENCE -->
<g id="edge14" class="edge"><title>n31 (0.74 &#45; 26)&#45;&gt;LEVERAGE\nRELATIVE_RISK\nYULE_Y\nYULE_Q\nODDS_RATIO\nONE_WAY_SUPPORT\nCONVICTION\nLOEVINGER\nSEBAG_SCHOENAUER\nODD_MULTIPLIER\nCOUNTER_EXAMPLE_RATE\nZHANG\nBAYES\nCENTERED_CONFIDENCE\nCERTAINTY_FACTOR\nADDED_VALUE\nLIFT\nCONFIDENCE</title>
<path fill="none" stroke="black" d="M705.992,-612.602C709.058,-597.869 713.861,-574.794 719.373,-548.314"/>
<polygon fill="black" stroke="black" points="722.822,-548.917 721.433,-538.413 715.969,-547.49 722.822,-548.917"/>
</g>
<!-- TWO_WAY_SUPPORT\nPIATETSKY_SHAPIRO\nSPECIFICITY -->
<g id="node13" class="node"><title>TWO_WAY_SUPPORT\nPIATETSKY_SHAPIRO\nSPECIFICITY</title>
<ellipse fill="none" stroke="black" cx="427.451" cy="-58.6899" rx="109.703" ry="37.4533"/>
<text text-anchor="middle" x="427.451" y="-69.9899" font-family="Times,serif" font-size="14.00">TWO_WAY_SUPPORT</text>
<text text-anchor="middle" x="427.451" y="-54.9899" font-family="Times,serif" font-size="14.00">PIATETSKY_SHAPIRO</text>
<text text-anchor="middle" x="427.451" y="-39.9899" font-family="Times,serif" font-size="14.00">SPECIFICITY</text>
</g>
<!-- n29 (0.87 &#45; 8)&#45;&gt;TWO_WAY_SUPPORT\nPIATETSKY_SHAPIRO\nSPECIFICITY -->
<g id="edge12" class="edge"><title>n29 (0.87 &#45; 8)&#45;&gt;TWO_WAY_SUPPORT\nPIATETSKY_SHAPIRO\nSPECIFICITY</title>
<path fill="none" stroke="black" d="M538.423,-331.727C520.537,-287.881 472.824,-170.917 446.153,-105.536"/>
<polygon fill="black" stroke="black" points="449.236,-103.828 442.218,-95.8911 442.755,-106.472 449.236,-103.828"/>
</g>
<!-- IMPLICATION_INDEX\nKAPPA\nKLOSGEN\nFISHER_PVAL\nPHI -->
<g id="node14" class="node"><title>IMPLICATION_INDEX\nKAPPA\nKLOSGEN\nFISHER_PVAL\nPHI</title>
<ellipse fill="none" stroke="black" cx="663.451" cy="-58.6899" rx="108.789" ry="58.8803"/>
<text text-anchor="middle" x="663.451" y="-84.9899" font-family="Times,serif" font-size="14.00">IMPLICATION_INDEX</text>
<text text-anchor="middle" x="663.451" y="-69.9899" font-family="Times,serif" font-size="14.00">KAPPA</text>
<text text-anchor="middle" x="663.451" y="-54.9899" font-family="Times,serif" font-size="14.00">KLOSGEN</text>
<text text-anchor="middle" x="663.451" y="-39.9899" font-family="Times,serif" font-size="14.00">FISHER_PVAL</text>
<text text-anchor="middle" x="663.451" y="-24.9899" font-family="Times,serif" font-size="14.00">PHI</text>
</g>
<!-- n29 (0.87 &#45; 8)&#45;&gt;IMPLICATION_INDEX\nKAPPA\nKLOSGEN\nFISHER_PVAL\nPHI -->
<g id="edge13" class="edge"><title>n29 (0.87 &#45; 8)&#45;&gt;IMPLICATION_INDEX\nKAPPA\nKLOSGEN\nFISHER_PVAL\nPHI</title>
<path fill="none" stroke="black" d="M550.564,-331.9C561.062,-297.535 586.43,-217.756 614.451,-153.38 618.614,-143.814 623.344,-133.877 628.184,-124.207"/>
<polygon fill="black" stroke="black" points="631.434,-125.537 632.843,-115.037 625.193,-122.367 631.434,-125.537"/>
</g>
</g>
</svg>
