<?xml version="1.0" encoding="UTF-8" standalone="no"?>
<!-- Generated by graphviz version 2.38.0 (20140413.2041)
 -->

<!-- Title: dendrogram Pages: 1 -->

<svg
   xmlns:dc="http://purl.org/dc/elements/1.1/"
   xmlns:cc="http://creativecommons.org/ns#"
   xmlns:rdf="http://www.w3.org/1999/02/22-rdf-syntax-ns#"
   xmlns:svg="http://www.w3.org/2000/svg"
   xmlns="http://www.w3.org/2000/svg"
   xmlns:sodipodi="http://sodipodi.sourceforge.net/DTD/sodipodi-0.dtd"
   xmlns:inkscape="http://www.inkscape.org/namespaces/inkscape"
   width="1175pt"
   height="767pt"
   viewBox="0.00 0.00 1175.06 767.06"
   id="svg2"
   version="1.1"
   inkscape:version="0.48.5 r10040"
   sodipodi:docname="patterns_demo-perTarget-SPEARMAN.svg">
  <metadata
     id="metadata246">
    <rdf:RDF>
      <cc:Work
         rdf:about="">
        <dc:format>image/svg+xml</dc:format>
        <dc:type
           rdf:resource="http://purl.org/dc/dcmitype/StillImage" />
      </cc:Work>
    </rdf:RDF>
  </metadata>
  <defs
     id="defs244" />
  <sodipodi:namedview
     pagecolor="#ffffff"
     bordercolor="#666666"
     borderopacity="1"
     objecttolerance="10"
     gridtolerance="10"
     guidetolerance="10"
     inkscape:pageopacity="0"
     inkscape:pageshadow="2"
     inkscape:window-width="1920"
     inkscape:window-height="1052"
     id="namedview242"
     showgrid="false"
     inkscape:zoom="0.43125"
     inkscape:cx="1149.5381"
     inkscape:cy="730.22494"
     inkscape:window-x="0"
     inkscape:window-y="0"
     inkscape:window-maximized="1"
     inkscape:current-layer="svg2" />
  <g
     class="node"
     id="node1"
     transform="translate(4,763.058)">
    <title
       id="title10">n34 (0.14 - 36)</title>
    <ellipse
       style="fill:none;stroke:#000000"
       sodipodi:ry="18"
       sodipodi:rx="64.189003"
       sodipodi:cy="-741.05798"
       sodipodi:cx="512.87701"
       d="m 577.06602,-741.05798 c 0,9.94112 -28.7384,18 -64.18901,18 -35.4506,0 -64.189,-8.05888 -64.189,-18 0,-9.94113 28.7384,-18 64.189,-18 35.45061,0 64.18901,8.05887 64.18901,18 z"
       id="ellipse12"
       ry="18"
       rx="64.189003"
       cy="-741.05798"
       cx="512.87701" />
    <text
       style="font-size:14px;text-anchor:middle;font-family:'Times,serif'"
       id="text14"
       font-size="14.00"
       y="-737.35797"
       x="512.87701">n34 (0.14 - 36)</text>
  </g>
  <g
     class="node"
     id="node2"
     transform="translate(4,763.058)">
    <title
       id="title17">n32 (0.38 - 8)</title>
    <ellipse
       style="fill:none;stroke:#000000"
       sodipodi:ry="18"
       sodipodi:rx="59.590099"
       sodipodi:cy="-669.05798"
       sodipodi:cx="411.87701"
       d="m 471.46711,-669.05798 c 0,9.94112 -26.67939,18 -59.5901,18 -32.9107,0 -59.5901,-8.05888 -59.5901,-18 0,-9.94113 26.6794,-18 59.5901,-18 32.91071,0 59.5901,8.05887 59.5901,18 z"
       id="ellipse19"
       ry="18"
       rx="59.590099"
       cy="-669.05798"
       cx="411.87701" />
    <text
       style="font-size:14px;text-anchor:middle;font-family:'Times,serif'"
       id="text21"
       font-size="14.00"
       y="-665.35797"
       x="411.87701">n32 (0.38 - 8)</text>
  </g>
  <g
     class="edge"
     id="edge1"
     transform="translate(4,763.058)">
    <title
       id="title24">n34 (0.14 - 36)-&gt;n32 (0.38 - 8)</title>
    <path
       style="fill:none;stroke:#000000"
       inkscape:connector-curvature="0"
       id="path26"
       d="m 489.959,-724.174 c -13.818,9.577 -31.609,21.907 -46.718,32.379" />
    <polygon
       style="fill:#000000;stroke:#000000"
       id="polygon28"
       points="440.93,-694.452 444.918,-688.699 444.918,-688.699 434.705,-685.879 " />
  </g>
  <g
     class="node"
     id="node9"
     transform="translate(4,763.058)">
    <title
       id="title31">n33 (0.25 - 28)</title>
    <ellipse
       style="fill:none;stroke:#000000"
       sodipodi:ry="18"
       sodipodi:rx="64.189003"
       sodipodi:cy="-669.05798"
       sodipodi:cx="613.87701"
       d="m 678.06602,-669.05798 c 0,9.94112 -28.7384,18 -64.18901,18 -35.4506,0 -64.189,-8.05888 -64.189,-18 0,-9.94113 28.7384,-18 64.189,-18 35.45061,0 64.18901,8.05887 64.18901,18 z"
       id="ellipse33"
       ry="18"
       rx="64.189003"
       cy="-669.05798"
       cx="613.87701" />
    <text
       style="font-size:14px;text-anchor:middle;font-family:'Times,serif'"
       id="text35"
       font-size="14.00"
       y="-665.35797"
       x="613.87701">n33 (0.25 - 28)</text>
  </g>
  <g
     class="edge"
     id="edge8"
     transform="translate(4,763.058)">
    <title
       id="title38">n34 (0.14 - 36)-&gt;n33 (0.25 - 28)</title>
    <path
       style="fill:none;stroke:#000000"
       inkscape:connector-curvature="0"
       id="path40"
       d="m 535.796,-724.174 c 13.72,9.509 31.358,21.734 46.398,32.157" />
    <polygon
       style="fill:#000000;stroke:#000000"
       id="polygon42"
       points="580.487,-688.941 584.475,-694.695 584.475,-694.695 590.7,-686.122 " />
  </g>
  <ellipse
     cx="166.877"
     cy="-566.97498"
     rx="166.754"
     ry="48.166698"
     id="ellipse47"
     d="m 333.631,-566.97498 c 0,26.60174 -74.65831,48.1667 -166.754,48.1667 -92.095691,0 -166.7539989,-21.56496 -166.7539989,-48.1667 0,-26.60173 74.6583079,-48.16669 166.7539989,-48.16669 92.09569,0 166.754,21.56496 166.754,48.16669 z"
     sodipodi:cx="166.877"
     sodipodi:cy="-566.97498"
     sodipodi:rx="166.754"
     sodipodi:ry="48.166698"
     style="fill:#aaffaa;stroke:#000000"
     transform="matrix(0.70285295,0,0,0.76593598,157.12444,671.23475)" />
  <text
     x="275.79333"
     y="215.15344"
     font-size="14.00"
     id="text49"
     style="font-size:14px;text-anchor:middle;font-family:'Times,serif'">GINI</text>
  <text
     x="275.79333"
     y="230.15344"
     font-size="14.00"
     id="text51"
     style="font-size:14px;text-anchor:middle;font-family:'Times,serif'">CHI_SQUARE</text>
  <text
     x="275.79333"
     y="245.15344"
     font-size="14.00"
     id="text53"
     style="font-size:14px;text-anchor:middle;font-family:'Times,serif'">TWO_WAY_SUPPORT_VARIATION</text>
  <text
     x="275.79333"
     y="260.15344"
     font-size="14.00"
     id="text55"
     style="font-size:14px;text-anchor:middle;font-family:'Times,serif'">J_MEASURE</text>
  <path
     d="m 381.811,108.916 c -3.11537,6.67596 -66.91659,72.89303 -82.86498,90.35724"
     id="path60"
     inkscape:connector-curvature="0"
     style="fill:none;stroke:#000000"
     sodipodi:nodetypes="cc" />
  <polygon
     points="269.573,-613.707 272.22,-607.227 272.22,-607.227 261.639,-606.685 "
     id="polygon62"
     style="fill:#000000;stroke:#000000"
     transform="matrix(0.85145041,-0.52443512,0.52443512,0.85145041,394.73537,853.67943)" />
  <g
     class="node"
     id="node4"
     transform="translate(19.742043,763.71392)">
    <title
       id="title65">n31 (0.63 - 4)</title>
    <ellipse
       style="fill:none;stroke:#000000"
       sodipodi:ry="18"
       sodipodi:rx="59.590099"
       sodipodi:cy="-566.97498"
       sodipodi:cx="411.87701"
       d="m 471.46711,-566.97498 c 0,9.94113 -26.67939,18 -59.5901,18 -32.9107,0 -59.5901,-8.05887 -59.5901,-18 0,-9.94112 26.6794,-18 59.5901,-18 32.91071,0 59.5901,8.05888 59.5901,18 z"
       id="ellipse67"
       ry="18"
       rx="59.590099"
       cy="-566.97498"
       cx="411.87701" />
    <text
       style="font-size:14px;text-anchor:middle;font-family:'Times,serif'"
       id="text69"
       font-size="14.00"
       y="-563.27502"
       x="411.87701">n31 (0.63 - 4)</text>
  </g>
  <g
     class="edge"
     id="edge3"
     transform="translate(4,763.058)">
    <title
       id="title72">n32 (0.38 - 8)-&gt;n31 (0.63 - 4)</title>
    <path
       style="fill:none;stroke:#000000"
       inkscape:connector-curvature="0"
       id="path74"
       d="m 411.877,-650.625 c 0,15.213 0,37.546 0,55.163" />
    <polygon
       style="fill:#000000;stroke:#000000"
       id="polygon76"
       points="408.377,-595.208 415.377,-595.208 415.377,-595.208 411.877,-585.208 " />
  </g>
  <ellipse
     cx="338.87701"
     cy="-286.31601"
     rx="50.8918"
     ry="18"
     id="ellipse81"
     d="m 389.76881,-286.31601 c 0,9.94113 -22.78503,18 -50.8918,18 -28.10676,0 -50.8918,-8.05887 -50.8918,-18 0,-9.94113 22.78504,-18 50.8918,-18 28.10677,0 50.8918,8.05887 50.8918,18 z"
     sodipodi:cx="338.87701"
     sodipodi:cy="-286.31601"
     sodipodi:rx="50.8918"
     sodipodi:ry="18"
     style="fill:#ead5c0;stroke:#000000"
     transform="translate(4,665.98207)" />
  <text
     x="342.87701"
     y="383.36606"
     font-size="14.00"
     id="text83"
     style="font-size:14px;text-anchor:middle;font-family:'Times,serif'">JACCARD</text>
  <g
     class="edge"
     id="edge4"
     transform="translate(4,763.058)">
    <title
       id="title86">n31 (0.63 - 4)-&gt;JACCARD</title>
    <path
       style="fill:none;stroke:#000000"
       inkscape:connector-curvature="0"
       id="path88"
       d="m 407.421,-548.963 c -12.269,46.833 -26.20861,90.74677 -41.10061,147.59477"
       sodipodi:nodetypes="cc" />
    <polygon
       style="fill:#000000;stroke:#000000"
       id="polygon90"
       points="349.288,-313.246 349.288,-313.246 343.368,-304.459 342.517,-315.02 "
       transform="translate(22.726415,-96.00751)" />
  </g>
  <g
     class="node"
     id="node6"
     transform="translate(4,665.98207)">
    <title
       id="title93">n30 (0.77 - 3)</title>
    <ellipse
       style="fill:none;stroke:#000000"
       sodipodi:ry="18"
       sodipodi:rx="59.590099"
       sodipodi:cy="-286.31601"
       sodipodi:cx="466.87701"
       d="m 526.46711,-286.31601 c 0,9.94113 -26.67939,18 -59.5901,18 -32.9107,0 -59.5901,-8.05887 -59.5901,-18 0,-9.94113 26.6794,-18 59.5901,-18 32.91071,0 59.5901,8.05887 59.5901,18 z"
       id="ellipse95"
       ry="18"
       rx="59.590099"
       cy="-286.31601"
       cx="466.87701" />
    <text
       style="font-size:14px;text-anchor:middle;font-family:'Times,serif'"
       id="text97"
       font-size="14.00"
       y="-282.616"
       x="466.87701">n30 (0.77 - 3)</text>
  </g>
  <path
     d="m 419.235,214.095 c 9.224,46.736 18.31704,90.20277 29.57404,147.24077"
     id="path102"
     inkscape:connector-curvature="0"
     style="fill:none;stroke:#000000"
     sodipodi:nodetypes="cc" />
  <polygon
     points="463.494,-304.459 458.123,-313.592 464.991,-314.948 464.991,-314.948 "
     id="polygon104"
     style="fill:#000000;stroke:#000000"
     transform="translate(-14.088371,665.19527)" />
  <ellipse
     cx="378.87701"
     cy="-26.8701"
     rx="109.681"
     ry="18"
     id="ellipse109"
     d="m 488.55801,-26.8701 c 0,9.941125 -49.10585,18 -109.681,18 -60.57514,0 -109.681,-8.058875 -109.681,-18 0,-9.941126 49.10586,-18 109.681,-18 60.57515,0 109.681,8.058874 109.681,18 z"
     sodipodi:cx="378.87701"
     sodipodi:cy="-26.8701"
     sodipodi:rx="109.681"
     sodipodi:ry="18"
     style="fill:#aaaaff;stroke:#000000"
     transform="translate(4,665.98207)" />
  <text
     x="382.87701"
     y="642.81195"
     font-size="14.00"
     id="text111"
     style="font-size:14px;text-anchor:middle;font-family:'Times,serif'">COLLECTIVE_STRENGH</text>
  <g
     class="edge"
     id="edge6"
     transform="translate(4,665.98207)">
    <title
       id="title114">n30 (0.77 - 3)-&gt;COLLECTIVE_STRENGH</title>
    <path
       style="fill:none;stroke:#000000"
       inkscape:connector-curvature="0"
       id="path116"
       d="m 460.967,-268.024 c -15.03,43.968 -54.792,160.295 -72.888,213.235" />
    <polygon
       style="fill:#000000;stroke:#000000"
       id="polygon118"
       points="391.308,-53.4167 391.308,-53.4167 384.762,-45.0863 384.685,-55.6808 " />
  </g>
  <ellipse
     cx="555.87701"
     cy="-26.8701"
     rx="48.5816"
     ry="26.7407"
     id="ellipse123"
     d="m 604.45861,-26.8701 c 0,14.768481 -21.75072,26.74069975 -48.5816,26.74069975 -26.83087,0 -48.5816,-11.97221875 -48.5816,-26.74069975 0,-14.768481 21.75073,-26.7407 48.5816,-26.7407 26.83088,0 48.5816,11.972219 48.5816,26.7407 z"
     sodipodi:cx="555.87701"
     sodipodi:cy="-26.8701"
     sodipodi:rx="48.5816"
     sodipodi:ry="26.7407"
     style="fill:#aaaaff;stroke:#000000"
     transform="translate(4,665.98207)" />
  <text
     x="559.87701"
     y="635.31195"
     font-size="14.00"
     id="text125"
     style="font-size:14px;text-anchor:middle;font-family:'Times,serif'">COSINE</text>
  <text
     x="559.87701"
     y="650.31195"
     font-size="14.00"
     id="text127"
     style="font-size:14px;text-anchor:middle;font-family:'Times,serif'">RECALL</text>
  <g
     class="edge"
     id="edge7"
     transform="translate(4,665.98207)">
    <title
       id="title130">n30 (0.77 - 3)-&gt;COSINE\nRECALL</title>
    <path
       style="fill:none;stroke:#000000"
       inkscape:connector-curvature="0"
       id="path132"
       d="m 472.855,-268.024 c 14.449,41.797 51.504,148.982 70.85,204.9444" />
    <polygon
       style="fill:#000000;stroke:#000000"
       id="polygon134"
       points="547.03,-64.1734 547.03,-64.1734 546.99,-53.5786 540.414,-61.8862 " />
  </g>
  <ellipse
     cx="613.87701"
     cy="-566.97498"
     rx="124.402"
     ry="26.7407"
     id="ellipse139"
     d="m 738.27901,-566.97498 c 0,14.76849 -55.69667,26.7407 -124.402,26.7407 -68.70532,0 -124.402,-11.97221 -124.402,-26.7407 0,-14.76848 55.69668,-26.7407 124.402,-26.7407 68.70533,0 124.402,11.97222 124.402,26.7407 z"
     sodipodi:cx="613.87701"
     sodipodi:cy="-566.97498"
     sodipodi:rx="124.402"
     sodipodi:ry="26.7407"
     style="fill:#ffaaaa;stroke:#000000"
     transform="translate(4,763.058)" />
  <text
     x="617.87701"
     y="192.28297"
     font-size="14.00"
     id="text141"
     style="font-size:14px;text-anchor:middle;font-family:'Times,serif'">LEAST_CONTRADICTION</text>
  <text
     x="617.87701"
     y="207.28297"
     font-size="14.00"
     id="text143"
     style="font-size:14px;text-anchor:middle;font-family:'Times,serif'">ACCURACY</text>
  <g
     class="edge"
     id="edge9"
     transform="translate(4,763.058)">
    <title
       id="title146">n33 (0.25 - 28)-&gt;LEAST_CONTRADICTION\nACCURACY</title>
    <path
       style="fill:none;stroke:#000000"
       inkscape:connector-curvature="0"
       id="path148"
       d="m 613.877,-650.625 c 0,12.864 0,30.819 0,46.709" />
    <polygon
       style="fill:#000000;stroke:#000000"
       id="polygon150"
       points="610.377,-603.846 617.377,-603.846 617.377,-603.846 613.877,-593.846 " />
  </g>
  <g
     class="node"
     id="node11"
     transform="translate(4,763.058)">
    <title
       id="title153">n29 (0.90 - 26)</title>
    <ellipse
       style="fill:none;stroke:#000000"
       sodipodi:ry="18"
       sodipodi:rx="64.189003"
       sodipodi:cy="-566.97498"
       sodipodi:cx="820.87701"
       d="m 885.06602,-566.97498 c 0,9.94113 -28.7384,18 -64.18901,18 -35.4506,0 -64.189,-8.05887 -64.189,-18 0,-9.94112 28.7384,-18 64.189,-18 35.45061,0 64.18901,8.05888 64.18901,18 z"
       id="ellipse155"
       ry="18"
       rx="64.189003"
       cy="-566.97498"
       cx="820.87701" />
    <text
       style="font-size:14px;text-anchor:middle;font-family:'Times,serif'"
       id="text157"
       font-size="14.00"
       y="-563.27502"
       x="820.87701">n29 (0.90 - 26)</text>
  </g>
  <g
     class="edge"
     id="edge10"
     transform="translate(4,763.058)">
    <title
       id="title160">n33 (0.25 - 28)-&gt;n29 (0.90 - 26)</title>
    <path
       style="fill:none;stroke:#000000"
       inkscape:connector-curvature="0"
       id="path162"
       d="m 652.844,-654.722 c 26.971,9.756 63.386,23.983 94.033,39.664 14.539,7.439 29.884,16.909 42.808,25.402" />
    <polygon
       style="fill:#000000;stroke:#000000"
       id="polygon164"
       points="787.945,-586.609 791.831,-592.432 791.831,-592.432 798.206,-583.969 " />
  </g>
  <ellipse
     cx="764.87701"
     cy="-286.31601"
     rx="109.703"
     ry="90.519302"
     id="ellipse169"
     d="m 874.58002,-286.31601 c 0,49.99243 -49.11571,90.5193 -109.70301,90.5193 -60.58729,0 -109.703,-40.52687 -109.703,-90.5193 0,-49.99243 49.11571,-90.5193 109.703,-90.5193 60.5873,0 109.70301,40.52687 109.70301,90.5193 z"
     sodipodi:cx="764.87701"
     sodipodi:cy="-286.31601"
     sodipodi:rx="109.703"
     sodipodi:ry="90.519302"
     style="fill:#d5d5d5;stroke:#000000"
     transform="matrix(0.928595,0,0,0.92070835,-49.258266,589.47361)" />
  <text
     x="660.3468"
     y="282.30743"
     font-size="14.00"
     id="text171"
     style="font-size:14px;text-anchor:middle;font-family:'Times,serif'">FISHER_PVAL</text>
  <text
     x="660.3468"
     y="297.30743"
     font-size="14.00"
     id="text173"
     style="font-size:14px;text-anchor:middle;font-family:'Times,serif'">IMPLICATION_INDEX</text>
  <text
     x="660.3468"
     y="312.30743"
     font-size="14.00"
     id="text175"
     style="font-size:14px;text-anchor:middle;font-family:'Times,serif'">KAPPA</text>
  <text
     x="660.3468"
     y="327.30743"
     font-size="14.00"
     id="text177"
     style="font-size:14px;text-anchor:middle;font-family:'Times,serif'">PHI</text>
  <text
     x="660.3468"
     y="342.30743"
     font-size="14.00"
     id="text179"
     style="font-size:14px;text-anchor:middle;font-family:'Times,serif'">KLOSGEN</text>
  <text
     x="660.3468"
     y="357.30743"
     font-size="14.00"
     id="text181"
     style="font-size:14px;text-anchor:middle;font-family:'Times,serif'">TWO_WAY_SUPPORT</text>
  <text
     x="660.3468"
     y="372.30743"
     font-size="14.00"
     id="text183"
     style="font-size:14px;text-anchor:middle;font-family:'Times,serif'">PIATETSKY_SHAPIRO</text>
  <text
     x="660.3468"
     y="387.30743"
     font-size="14.00"
     id="text185"
     style="font-size:14px;text-anchor:middle;font-family:'Times,serif'">SPECIFICITY</text>
  <path
     sodipodi:nodetypes="cc"
     d="m 821.458,214.095 c -16.9167,7.36006 -63.03674,24.44578 -93.80142,42.20704"
     id="path190"
     inkscape:connector-curvature="0"
     style="fill:none;stroke:#000000" />
  <polygon
     points="788.065,-384.934 788.065,-384.934 782.663,-375.819 781.202,-386.313 "
     id="polygon192"
     style="fill:#000000;stroke:#000000"
     transform="matrix(0.69779102,0.71630139,-0.71630139,0.69779102,-88.571767,-41.385818)" />
  <ellipse
     cx="1029.88"
     cy="-286.31601"
     rx="137.358"
     ry="196.651"
     id="ellipse197"
     d="m 1167.238,-286.31601 c 0,108.60735 -61.4973,196.651001 -137.358,196.651001 -75.86072,0 -137.358,-88.043651 -137.358,-196.651001 0,-108.60735 61.49728,-196.651 137.358,-196.651 75.8607,0 137.358,88.04365 137.358,196.651 z"
     sodipodi:cx="1029.88"
     sodipodi:cy="-286.31601"
     sodipodi:rx="137.358"
     sodipodi:ry="196.651"
     style="fill:#ffffaa;stroke:#000000"
     transform="matrix(0.90510893,0,0,0.76361224,-52.116807,684.16787)" />
  <text
     x="880.69275"
     y="340.42163"
     font-size="14.00"
     id="text199"
     style="font-size:14px;text-anchor:middle;font-family:'Times,serif'">LEVERAGE</text>
  <text
     x="880.69275"
     y="355.42163"
     font-size="14.00"
     id="text201"
     style="font-size:14px;text-anchor:middle;font-family:'Times,serif'">RELATIVE_RISK</text>
  <text
     x="880.69275"
     y="370.42163"
     font-size="14.00"
     id="text203"
     style="font-size:14px;text-anchor:middle;font-family:'Times,serif'">YULE_Y</text>
  <text
     x="880.69275"
     y="385.42163"
     font-size="14.00"
     id="text205"
     style="font-size:14px;text-anchor:middle;font-family:'Times,serif'">YULE_Q</text>
  <text
     x="880.69275"
     y="400.42163"
     font-size="14.00"
     id="text207"
     style="font-size:14px;text-anchor:middle;font-family:'Times,serif'">ODDS_RATIO</text>
  <text
     x="880.69275"
     y="415.42163"
     font-size="14.00"
     id="text209"
     style="font-size:14px;text-anchor:middle;font-family:'Times,serif'">ONE_WAY_SUPPORT</text>
  <text
     x="880.69275"
     y="430.42163"
     font-size="14.00"
     id="text211"
     style="font-size:14px;text-anchor:middle;font-family:'Times,serif'">ZHANG</text>
  <text
     x="880.69275"
     y="445.42163"
     font-size="14.00"
     id="text213"
     style="font-size:14px;text-anchor:middle;font-family:'Times,serif'">LOEVINGER</text>
  <text
     x="880.69275"
     y="460.42163"
     font-size="14.00"
     id="text215"
     style="font-size:14px;text-anchor:middle;font-family:'Times,serif'">CONVICTION</text>
  <text
     x="880.69275"
     y="475.42163"
     font-size="14.00"
     id="text217"
     style="font-size:14px;text-anchor:middle;font-family:'Times,serif'">ODD_MULTIPLIER</text>
  <text
     x="880.69275"
     y="490.42163"
     font-size="14.00"
     id="text219"
     style="font-size:14px;text-anchor:middle;font-family:'Times,serif'">SEBAG_SCHOENAUER</text>
  <text
     x="880.69275"
     y="505.42163"
     font-size="14.00"
     id="text221"
     style="font-size:14px;text-anchor:middle;font-family:'Times,serif'">COUNTER_EXAMPLE_RATE</text>
  <text
     x="880.69275"
     y="520.42163"
     font-size="14.00"
     id="text223"
     style="font-size:14px;text-anchor:middle;font-family:'Times,serif'">BAYES</text>
  <text
     x="880.69275"
     y="535.42163"
     font-size="14.00"
     id="text225"
     style="font-size:14px;text-anchor:middle;font-family:'Times,serif'">CENTERED_CONFIDENCE</text>
  <text
     x="880.69275"
     y="550.42163"
     font-size="14.00"
     id="text227"
     style="font-size:14px;text-anchor:middle;font-family:'Times,serif'">CERTAINTY_FACTOR</text>
  <text
     x="880.69275"
     y="565.42163"
     font-size="14.00"
     id="text229"
     style="font-size:14px;text-anchor:middle;font-family:'Times,serif'">ADDED_VALUE</text>
  <text
     x="880.69275"
     y="580.42163"
     font-size="14.00"
     id="text231"
     style="font-size:14px;text-anchor:middle;font-family:'Times,serif'">LIFT</text>
  <text
     x="880.69275"
     y="595.42163"
     font-size="14.00"
     id="text233"
     style="font-size:14px;text-anchor:middle;font-family:'Times,serif'">CONFIDENCE</text>
  <g
     class="edge"
     id="edge12"
     transform="translate(4,763.058)">
    <title
       id="title236">n29 (0.90 - 26)-&gt;LEVERAGE\nRELATIVE_RISK\nYULE_Y\nYULE_Q\nODDS_RATIO\nONE_WAY_SUPPORT\nZHANG\nLOEVINGER\nCONVICTION\nODD_MULTIPLIER\nSEBAG_SCHOENAUER\nCOUNTER_EXAMPLE_RATE\nBAYES\nCENTERED_CONFIDENCE\nCERTAINTY_FACTOR\nADDED_VALUE\nLIFT\nCONFIDENCE</title>
    <path
       style="fill:none;stroke:#000000"
       inkscape:connector-curvature="0"
       id="path238"
       d="m 833.704,-549.135 c 6.14848,12.62108 42.07317,97.77157 42.64591,98.61061"
       sodipodi:nodetypes="cc" />
    <polygon
       style="fill:#000000;stroke:#000000"
       id="polygon240"
       points="930.072,-421.29 921.279,-427.2 926.884,-431.394 926.884,-431.394 "
       transform="matrix(0.97725326,0.21207562,-0.21207562,0.97725326,-120.52229,-235.19947)" />
  </g>
</svg>
