<?xml version="1.0" encoding="UTF-8" standalone="no"?>
<!-- Generated by graphviz version 2.38.0 (20140413.2041)
 -->

<!-- Title: dendrogram Pages: 1 -->

<svg
   xmlns:dc="http://purl.org/dc/elements/1.1/"
   xmlns:cc="http://creativecommons.org/ns#"
   xmlns:rdf="http://www.w3.org/1999/02/22-rdf-syntax-ns#"
   xmlns:svg="http://www.w3.org/2000/svg"
   xmlns="http://www.w3.org/2000/svg"
   xmlns:sodipodi="http://sodipodi.sourceforge.net/DTD/sodipodi-0.dtd"
   xmlns:inkscape="http://www.inkscape.org/namespaces/inkscape"
   width="1415pt"
   height="745pt"
   viewBox="0.00 0.00 1414.87 744.83"
   id="svg17155"
   version="1.1"
   inkscape:version="0.48.5 r10040"
   sodipodi:docname="patterns_prods_per_ticket-global-KENDAL.svg">
  <metadata
     id="metadata17555">
    <rdf:RDF>
      <cc:Work
         rdf:about="">
        <dc:format>image/svg+xml</dc:format>
        <dc:type
           rdf:resource="http://purl.org/dc/dcmitype/StillImage" />
      </cc:Work>
    </rdf:RDF>
  </metadata>
  <defs
     id="defs17553" />
  <sodipodi:namedview
     pagecolor="#ffffff"
     bordercolor="#666666"
     borderopacity="1"
     objecttolerance="10"
     gridtolerance="10"
     guidetolerance="10"
     inkscape:pageopacity="0"
     inkscape:pageshadow="2"
     inkscape:window-width="1920"
     inkscape:window-height="1052"
     id="namedview17551"
     showgrid="false"
     inkscape:zoom="0.59393222"
     inkscape:cx="923.96291"
     inkscape:cy="541.89879"
     inkscape:window-x="0"
     inkscape:window-y="0"
     inkscape:window-maximized="1"
     inkscape:current-layer="svg17155" />
  <polygon
     style="fill:#ffffff;stroke:none"
     id="polygon17160"
     points="1410.87,-740.825 1410.87,4 -4,4 -4,4 -4,-740.825 "
     transform="translate(4,740.825)" />
  <g
     class="node"
     id="node1"
     transform="translate(4,740.825)">
    <title
       id="title17163">n34 (0.06 - 36)</title>
    <ellipse
       style="fill:none;stroke:#000000"
       sodipodi:ry="18"
       sodipodi:rx="64.189003"
       sodipodi:cy="-718.82501"
       sodipodi:cx="381.69601"
       d="m 445.88502,-718.82501 c 0,9.94112 -28.7384,18 -64.18901,18 -35.4506,0 -64.189,-8.05888 -64.189,-18 0,-9.94113 28.7384,-18 64.189,-18 35.45061,0 64.18901,8.05887 64.18901,18 z"
       id="ellipse17165"
       ry="18"
       rx="64.189003"
       cy="-718.82501"
       cx="381.69601" />
    <text
       style="font-size:14px;text-anchor:middle;font-family:'Times,serif'"
       id="text17167"
       font-size="14.00"
       y="-715.125"
       x="381.69601">n34 (0.06 - 36)</text>
  </g>
  <g
     class="node"
     id="node2"
     transform="translate(4,740.825)">
    <title
       id="title17170">n32 (0.31 - 6)</title>
    <ellipse
       style="fill:none;stroke:#000000"
       sodipodi:ry="18"
       sodipodi:rx="59.590099"
       sodipodi:cy="-646.82501"
       sodipodi:cx="306.69601"
       d="m 366.28611,-646.82501 c 0,9.94112 -26.67939,18 -59.5901,18 -32.9107,0 -59.59009,-8.05888 -59.59009,-18 0,-9.94113 26.67939,-18 59.59009,-18 32.91071,0 59.5901,8.05887 59.5901,18 z"
       id="ellipse17172"
       ry="18"
       rx="59.590099"
       cy="-646.82501"
       cx="306.69601" />
    <text
       style="font-size:14px;text-anchor:middle;font-family:'Times,serif'"
       id="text17174"
       font-size="14.00"
       y="-643.125"
       x="306.69601">n32 (0.31 - 6)</text>
  </g>
  <g
     class="edge"
     id="edge1"
     transform="translate(4,740.825)">
    <title
       id="title17177">n34 (0.06 - 36)-&gt;n32 (0.31 - 6)</title>
    <path
       style="fill:none;stroke:#000000"
       inkscape:connector-curvature="0"
       id="path17179"
       d="m 363.922,-701.236 c -9.691,9.044 -21.838,20.381 -32.445,30.281" />
    <polygon
       style="fill:#000000;stroke:#000000"
       id="polygon17181"
       points="329.006,-673.436 333.782,-668.318 333.782,-668.318 324.083,-664.054 " />
  </g>
  <g
     class="node"
     id="node13"
     transform="translate(4,740.825)">
    <title
       id="title17184">n33 (0.23 - 30)</title>
    <ellipse
       style="fill:none;stroke:#000000"
       sodipodi:ry="18"
       sodipodi:rx="64.189003"
       sodipodi:cy="-646.82501"
       sodipodi:cx="456.69601"
       d="m 520.88502,-646.82501 c 0,9.94112 -28.7384,18 -64.18901,18 -35.4506,0 -64.189,-8.05888 -64.189,-18 0,-9.94113 28.7384,-18 64.189,-18 35.45061,0 64.18901,8.05887 64.18901,18 z"
       id="ellipse17186"
       ry="18"
       rx="64.189003"
       cy="-646.82501"
       cx="456.69601" />
    <text
       style="font-size:14px;text-anchor:middle;font-family:'Times,serif'"
       id="text17188"
       font-size="14.00"
       y="-643.125"
       x="456.69601">n33 (0.23 - 30)</text>
  </g>
  <g
     class="edge"
     id="edge12"
     transform="translate(4,740.825)">
    <title
       id="title17191">n34 (0.06 - 36)-&gt;n33 (0.23 - 30)</title>
    <path
       style="fill:none;stroke:#000000"
       inkscape:connector-curvature="0"
       id="path17193"
       d="m 399.469,-701.236 c 9.621,8.979 21.663,20.218 32.215,30.067" />
    <polygon
       style="fill:#000000;stroke:#000000"
       id="polygon17195"
       points="429.35,-668.56 434.127,-673.677 434.127,-673.677 439.049,-664.295 " />
  </g>
  <ellipse
     cx="118.696"
     cy="-574.82501"
     rx="109.681"
     ry="18"
     id="ellipse17200"
     d="m 228.377,-574.82501 c 0,9.94112 -49.10586,18 -109.681,18 -60.575144,0 -109.6810006,-8.05888 -109.6810006,-18 0,-9.94113 49.1058566,-18 109.6810006,-18 60.57514,0 109.681,8.05887 109.681,18 z"
     sodipodi:cx="118.696"
     sodipodi:cy="-574.82501"
     sodipodi:rx="109.681"
     sodipodi:ry="18"
     style="fill:#aaaaff;stroke:#000000"
     transform="translate(4,740.825)" />
  <text
     x="122.696"
     y="169.7"
     font-size="14.00"
     id="text17202"
     style="font-size:14px;text-anchor:middle;font-family:'Times,serif'">COLLECTIVE_STRENGH</text>
  <g
     class="edge"
     id="edge2"
     transform="translate(4,740.825)">
    <title
       id="title17205">n32 (0.31 - 6)-&gt;COLLECTIVE_STRENGH</title>
    <path
       style="fill:none;stroke:#000000"
       inkscape:connector-curvature="0"
       id="path17207"
       d="m 270.447,-632.329 c -28.429,10.585 -68.364,25.455 -100.132,37.283" />
    <polygon
       style="fill:#000000;stroke:#000000"
       id="polygon17209"
       points="168.89,-598.25 171.333,-591.69 171.333,-591.69 160.74,-591.48 " />
  </g>
  <g
     class="node"
     id="node4"
     transform="translate(4,740.825)">
    <title
       id="title17212">n30 (0.57 - 5)</title>
    <ellipse
       style="fill:none;stroke:#000000"
       sodipodi:ry="18"
       sodipodi:rx="59.590099"
       sodipodi:cy="-574.82501"
       sodipodi:cx="306.69601"
       d="m 366.28611,-574.82501 c 0,9.94112 -26.67939,18 -59.5901,18 -32.9107,0 -59.59009,-8.05888 -59.59009,-18 0,-9.94113 26.67939,-18 59.59009,-18 32.91071,0 59.5901,8.05887 59.5901,18 z"
       id="ellipse17214"
       ry="18"
       rx="59.590099"
       cy="-574.82501"
       cx="306.69601" />
    <text
       style="font-size:14px;text-anchor:middle;font-family:'Times,serif'"
       id="text17216"
       font-size="14.00"
       y="-571.125"
       x="306.69601">n30 (0.57 - 5)</text>
  </g>
  <g
     class="edge"
     id="edge3"
     transform="translate(4,740.825)">
    <title
       id="title17219">n32 (0.31 - 6)-&gt;n30 (0.57 - 5)</title>
    <path
       style="fill:none;stroke:#000000"
       inkscape:connector-curvature="0"
       id="path17221"
       d="m 306.696,-628.522 c 0,7.714 0,16.984 0,25.584" />
    <polygon
       style="fill:#000000;stroke:#000000"
       id="polygon17223"
       points="303.196,-602.93 310.196,-602.93 310.196,-602.93 306.696,-592.93 " />
  </g>
  <g
     class="node"
     id="node5"
     transform="translate(4,740.825)">
    <title
       id="title17226">n23 (0.86 - 2)</title>
    <ellipse
       style="fill:none;stroke:#000000"
       sodipodi:ry="18"
       sodipodi:rx="59.590099"
       sodipodi:cy="-502.82501"
       sodipodi:cx="164.696"
       d="m 224.2861,-502.82501 c 0,9.94112 -26.6794,18 -59.5901,18 -32.9107,0 -59.5901,-8.05888 -59.5901,-18 0,-9.94113 26.6794,-18 59.5901,-18 32.9107,0 59.5901,8.05887 59.5901,18 z"
       id="ellipse17228"
       ry="18"
       rx="59.590099"
       cy="-502.82501"
       cx="164.696" />
    <text
       style="font-size:14px;text-anchor:middle;font-family:'Times,serif'"
       id="text17230"
       font-size="14.00"
       y="-499.125"
       x="164.696">n23 (0.86 - 2)</text>
  </g>
  <g
     class="edge"
     id="edge4"
     transform="translate(4,740.825)">
    <title
       id="title17233">n30 (0.57 - 5)-&gt;n23 (0.86 - 2)</title>
    <path
       style="fill:none;stroke:#000000"
       inkscape:connector-curvature="0"
       id="path17235"
       d="m 276.928,-559.151 c -21.301,10.5 -50.178,24.735 -73.306,36.137" />
    <polygon
       style="fill:#000000;stroke:#000000"
       id="polygon17237"
       points="201.846,-526.041 204.941,-519.763 204.941,-519.763 194.424,-518.48 " />
  </g>
  <g
     class="node"
     id="node8"
     transform="translate(4,740.825)">
    <title
       id="title17240">n28 (0.64 - 3)</title>
    <ellipse
       style="fill:none;stroke:#000000"
       sodipodi:ry="18"
       sodipodi:rx="59.590099"
       sodipodi:cy="-502.82501"
       sodipodi:cx="306.69601"
       d="m 366.28611,-502.82501 c 0,9.94112 -26.67939,18 -59.5901,18 -32.9107,0 -59.59009,-8.05888 -59.59009,-18 0,-9.94113 26.67939,-18 59.59009,-18 32.91071,0 59.5901,8.05887 59.5901,18 z"
       id="ellipse17242"
       ry="18"
       rx="59.590099"
       cy="-502.82501"
       cx="306.69601" />
    <text
       style="font-size:14px;text-anchor:middle;font-family:'Times,serif'"
       id="text17244"
       font-size="14.00"
       y="-499.125"
       x="306.69601">n28 (0.64 - 3)</text>
  </g>
  <g
     class="edge"
     id="edge7"
     transform="translate(4,740.825)">
    <title
       id="title17247">n30 (0.57 - 5)-&gt;n28 (0.64 - 3)</title>
    <path
       style="fill:none;stroke:#000000"
       inkscape:connector-curvature="0"
       id="path17249"
       d="m 306.696,-556.522 c 0,7.714 0,16.984 0,25.584" />
    <polygon
       style="fill:#000000;stroke:#000000"
       id="polygon17251"
       points="303.196,-530.93 310.196,-530.93 310.196,-530.93 306.696,-520.93 " />
  </g>
  <ellipse
     cx="50.695499"
     cy="-430.82501"
     rx="50.8918"
     ry="18"
     id="ellipse17256"
     d="m 101.5873,-430.82501 c 0,9.94112 -22.785036,18 -50.891801,18 -28.106765,0 -50.89179951,-8.05888 -50.89179951,-18 0,-9.94113 22.78503451,-18 50.89179951,-18 28.106765,0 50.891801,8.05887 50.891801,18 z"
     sodipodi:cx="50.695499"
     sodipodi:cy="-430.82501"
     sodipodi:rx="50.8918"
     sodipodi:ry="18"
     style="fill:#aaffaa;stroke:#000000"
     transform="translate(4,740.825)" />
  <text
     x="54.695499"
     y="313.70001"
     font-size="14.00"
     id="text17258"
     style="font-size:14px;text-anchor:middle;font-family:'Times,serif'">JACCARD</text>
  <g
     class="edge"
     id="edge5"
     transform="translate(4,740.825)">
    <title
       id="title17261">n23 (0.86 - 2)-&gt;JACCARD</title>
    <path
       style="fill:none;stroke:#000000"
       inkscape:connector-curvature="0"
       id="path17263"
       d="m 139.678,-486.464 c -16.409,10.076 -38.047,23.362 -55.8764,34.31" />
    <polygon
       style="fill:#000000;stroke:#000000"
       id="polygon17265"
       points="81.5633,-454.887 85.2262,-448.921 85.2262,-448.921 74.8731,-446.671 " />
  </g>
  <ellipse
     cx="164.696"
     cy="-430.82501"
     rx="44.6926"
     ry="18"
     id="ellipse17270"
     d="m 209.3886,-430.82501 c 0,9.94112 -20.00956,18 -44.6926,18 -24.68304,0 -44.6926,-8.05888 -44.6926,-18 0,-9.94113 20.00956,-18 44.6926,-18 24.68304,0 44.6926,8.05887 44.6926,18 z"
     sodipodi:cx="164.696"
     sodipodi:cy="-430.82501"
     sodipodi:rx="44.6926"
     sodipodi:ry="18"
     style="fill:#aaaaff;stroke:#000000"
     transform="translate(4,740.825)" />
  <text
     x="168.696"
     y="313.70001"
     font-size="14.00"
     id="text17272"
     style="font-size:14px;text-anchor:middle;font-family:'Times,serif'">RECALL</text>
  <g
     class="edge"
     id="edge6"
     transform="translate(4,740.825)">
    <title
       id="title17275">n23 (0.86 - 2)-&gt;RECALL</title>
    <path
       style="fill:none;stroke:#000000"
       inkscape:connector-curvature="0"
       id="path17277"
       d="m 164.696,-484.522 c 0,7.714 0,16.984 0,25.584" />
    <polygon
       style="fill:#000000;stroke:#000000"
       id="polygon17279"
       points="161.196,-458.93 168.196,-458.93 168.196,-458.93 164.696,-448.93 " />
  </g>
  <ellipse
     cx="290.69601"
     cy="-430.82501"
     rx="63.088799"
     ry="18"
     id="ellipse17284"
     d="m 353.78481,-430.82501 c 0,9.94112 -28.24581,18 -63.0888,18 -34.84298,0 -63.08879,-8.05888 -63.08879,-18 0,-9.94113 28.24581,-18 63.08879,-18 34.84299,0 63.0888,8.05887 63.0888,18 z"
     sodipodi:cx="290.69601"
     sodipodi:cy="-430.82501"
     sodipodi:rx="63.088799"
     sodipodi:ry="18"
     style="fill:#d5d5d5;stroke:#000000"
     transform="translate(4,740.825)" />
  <text
     x="294.69601"
     y="313.70001"
     font-size="14.00"
     id="text17286"
     style="font-size:14px;text-anchor:middle;font-family:'Times,serif'">SPECIFICITY</text>
  <g
     class="edge"
     id="edge8"
     transform="translate(4,740.825)">
    <title
       id="title17289">n28 (0.64 - 3)-&gt;SPECIFICITY</title>
    <path
       style="fill:none;stroke:#000000"
       inkscape:connector-curvature="0"
       id="path17291"
       d="m 302.74,-484.522 c -1.763,7.714 -3.882,16.984 -5.847,25.584" />
    <polygon
       style="fill:#000000;stroke:#000000"
       id="polygon17293"
       points="293.421,-459.458 300.245,-457.898 300.245,-457.898 294.605,-448.93 " />
  </g>
  <g
     class="node"
     id="node10"
     transform="translate(4,740.825)">
    <title
       id="title17296">n26 (0.80 - 2)</title>
    <ellipse
       style="fill:none;stroke:#000000"
       sodipodi:ry="18"
       sodipodi:rx="59.590099"
       sodipodi:cy="-430.82501"
       sodipodi:cx="431.69601"
       d="m 491.28611,-430.82501 c 0,9.94112 -26.67939,18 -59.5901,18 -32.9107,0 -59.59009,-8.05888 -59.59009,-18 0,-9.94113 26.67939,-18 59.59009,-18 32.91071,0 59.5901,8.05887 59.5901,18 z"
       id="ellipse17298"
       ry="18"
       rx="59.590099"
       cy="-430.82501"
       cx="431.69601" />
    <text
       style="font-size:14px;text-anchor:middle;font-family:'Times,serif'"
       id="text17300"
       font-size="14.00"
       y="-427.125"
       x="431.69601">n26 (0.80 - 2)</text>
  </g>
  <g
     class="edge"
     id="edge9"
     transform="translate(4,740.825)">
    <title
       id="title17303">n28 (0.64 - 3)-&gt;n26 (0.80 - 2)</title>
    <path
       style="fill:none;stroke:#000000"
       inkscape:connector-curvature="0"
       id="path17305"
       d="m 333.819,-486.637 c 18.182,10.182 42.32,23.7 62.075,34.763" />
    <polygon
       style="fill:#000000;stroke:#000000"
       id="polygon17307"
       points="394.19,-448.817 397.61,-454.925 397.61,-454.925 404.625,-446.985 " />
  </g>
  <ellipse
     cx="273.69601"
     cy="-265.103"
     rx="39.793499"
     ry="18"
     id="ellipse17312"
     d="m 313.48951,-265.103 c 0,9.94113 -17.81615,18 -39.7935,18 -21.97734,0 -39.79349,-8.05887 -39.79349,-18 0,-9.94112 17.81615,-18 39.79349,-18 21.97735,0 39.7935,8.05888 39.7935,18 z"
     sodipodi:cx="273.69601"
     sodipodi:cy="-265.103"
     sodipodi:rx="39.793499"
     sodipodi:ry="18"
     style="fill:#aaffaa;stroke:#000000"
     transform="translate(4,740.825)" />
  <text
     x="277.69601"
     y="479.422"
     font-size="14.00"
     id="text17314"
     style="font-size:14px;text-anchor:middle;font-family:'Times,serif'">KAPPA</text>
  <g
     class="edge"
     id="edge10"
     transform="translate(4,740.825)">
    <title
       id="title17317">n26 (0.80 - 2)-&gt;KAPPA</title>
    <path
       style="fill:none;stroke:#000000"
       inkscape:connector-curvature="0"
       id="path17319"
       d="m 390.26,-417.803 c -22.694,8.369 -49.912,21.565 -68.564,40.978 -22.609,23.53 -35.475,59.412 -42.084,83.907" />
    <polygon
       style="fill:#000000;stroke:#000000"
       id="polygon17321"
       points="276.209,-293.739 282.996,-292.024 282.996,-292.024 277.152,-283.186 " />
  </g>
  <ellipse
     cx="431.69601"
     cy="-265.103"
     rx="100.983"
     ry="18"
     id="ellipse17326"
     d="m 532.67902,-265.103 c 0,9.94113 -45.21163,18 -100.98301,18 -55.77137,0 -100.983,-8.05887 -100.983,-18 0,-9.94112 45.21163,-18 100.983,-18 55.77138,0 100.98301,8.05888 100.98301,18 z"
     sodipodi:cx="431.69601"
     sodipodi:cy="-265.103"
     sodipodi:rx="100.983"
     sodipodi:ry="18"
     style="fill:#d5d5d5;stroke:#000000"
     transform="translate(4,740.825)" />
  <text
     x="435.69601"
     y="479.422"
     font-size="14.00"
     id="text17328"
     style="font-size:14px;text-anchor:middle;font-family:'Times,serif'">PIATETSKY_SHAPIRO</text>
  <g
     class="edge"
     id="edge11"
     transform="translate(4,740.825)">
    <title
       id="title17331">n26 (0.80 - 2)-&gt;PIATETSKY_SHAPIRO</title>
    <path
       style="fill:none;stroke:#000000"
       inkscape:connector-curvature="0"
       id="path17333"
       d="m 431.696,-412.614 c 0,28.3 0,84.9 0,118.869" />
    <polygon
       style="fill:#000000;stroke:#000000"
       id="polygon17335"
       points="428.196,-293.577 435.196,-293.576 435.196,-293.576 431.696,-283.577 " />
  </g>
  <ellipse
     cx="456.69601"
     cy="-574.82501"
     rx="59.590099"
     ry="18"
     id="ellipse17340"
     d="m 516.28611,-574.82501 c 0,9.94112 -26.67939,18 -59.5901,18 -32.9107,0 -59.59009,-8.05888 -59.59009,-18 0,-9.94113 26.67939,-18 59.59009,-18 32.91071,0 59.5901,8.05887 59.5901,18 z"
     sodipodi:cx="456.69601"
     sodipodi:cy="-574.82501"
     sodipodi:rx="59.590099"
     sodipodi:ry="18"
     style="fill:#ffaaaa;stroke:#000000"
     transform="translate(4,740.825)" />
  <text
     x="460.69601"
     y="169.7"
     font-size="14.00"
     id="text17342"
     style="font-size:14px;text-anchor:middle;font-family:'Times,serif'">ACCURACY</text>
  <g
     class="edge"
     id="edge13"
     transform="translate(4,740.825)">
    <title
       id="title17345">n33 (0.23 - 30)-&gt;ACCURACY</title>
    <path
       style="fill:none;stroke:#000000"
       inkscape:connector-curvature="0"
       id="path17347"
       d="m 456.696,-628.522 c 0,7.714 0,16.984 0,25.584" />
    <polygon
       style="fill:#000000;stroke:#000000"
       id="polygon17349"
       points="453.196,-602.93 460.196,-602.93 460.196,-602.93 456.696,-592.93 " />
  </g>
  <g
     class="node"
     id="node15"
     transform="translate(4,740.825)">
    <title
       id="title17352">n31 (0.47 - 29)</title>
    <ellipse
       style="fill:none;stroke:#000000"
       sodipodi:ry="18"
       sodipodi:rx="64.189003"
       sodipodi:cy="-574.82501"
       sodipodi:cx="614.69598"
       d="m 678.88499,-574.82501 c 0,9.94112 -28.7384,18 -64.18901,18 -35.4506,0 -64.189,-8.05888 -64.189,-18 0,-9.94113 28.7384,-18 64.189,-18 35.45061,0 64.18901,8.05887 64.18901,18 z"
       id="ellipse17354"
       ry="18"
       rx="64.189003"
       cy="-574.82501"
       cx="614.69598" />
    <text
       style="font-size:14px;text-anchor:middle;font-family:'Times,serif'"
       id="text17356"
       font-size="14.00"
       y="-571.125"
       x="614.69598">n31 (0.47 - 29)</text>
  </g>
  <g
     class="edge"
     id="edge14"
     transform="translate(4,740.825)">
    <title
       id="title17359">n33 (0.23 - 30)-&gt;n31 (0.47 - 29)</title>
    <path
       style="fill:none;stroke:#000000"
       inkscape:connector-curvature="0"
       id="path17361"
       d="m 489.433,-631.321 c 24.071,10.664 56.988,25.247 83.038,36.788" />
    <polygon
       style="fill:#000000;stroke:#000000"
       id="polygon17363"
       points="571.168,-591.282 574.003,-597.682 574.003,-597.682 581.728,-590.431 " />
  </g>
  <ellipse
     cx="614.69598"
     cy="-502.82501"
     rx="114.28"
     ry="18"
     id="ellipse17368"
     d="m 728.97598,-502.82501 c 0,9.94112 -51.1649,18 -114.28,18 -63.1151,0 -114.27999,-8.05888 -114.27999,-18 0,-9.94113 51.16489,-18 114.27999,-18 63.1151,0 114.28,8.05887 114.28,18 z"
     sodipodi:cx="614.69598"
     sodipodi:cy="-502.82501"
     sodipodi:rx="114.28"
     sodipodi:ry="18"
     style="fill:#ffaaaa;stroke:#000000"
     transform="translate(4,740.825)" />
  <text
     x="618.69598"
     y="241.7"
     font-size="14.00"
     id="text17370"
     style="font-size:14px;text-anchor:middle;font-family:'Times,serif'">LEAST_CONTRADICTION</text>
  <g
     class="edge"
     id="edge15"
     transform="translate(4,740.825)">
    <title
       id="title17373">n31 (0.47 - 29)-&gt;LEAST_CONTRADICTION</title>
    <path
       style="fill:none;stroke:#000000"
       inkscape:connector-curvature="0"
       id="path17375"
       d="m 614.696,-556.522 c 0,7.714 0,16.984 0,25.584" />
    <polygon
       style="fill:#000000;stroke:#000000"
       id="polygon17377"
       points="611.196,-530.93 618.196,-530.93 618.196,-530.93 614.696,-520.93 " />
  </g>
  <g
     class="node"
     id="node17"
     transform="translate(4,740.825)">
    <title
       id="title17380">n29 (0.64 - 28)</title>
    <ellipse
       style="fill:none;stroke:#000000"
       sodipodi:ry="18"
       sodipodi:rx="64.189003"
       sodipodi:cy="-502.82501"
       sodipodi:cx="842.69598"
       d="m 906.88499,-502.82501 c 0,9.94112 -28.7384,18 -64.18901,18 -35.4506,0 -64.189,-8.05888 -64.189,-18 0,-9.94113 28.7384,-18 64.189,-18 35.45061,0 64.18901,8.05887 64.18901,18 z"
       id="ellipse17382"
       ry="18"
       rx="64.189003"
       cy="-502.82501"
       cx="842.69598" />
    <text
       style="font-size:14px;text-anchor:middle;font-family:'Times,serif'"
       id="text17384"
       font-size="14.00"
       y="-499.125"
       x="842.69598">n29 (0.64 - 28)</text>
  </g>
  <g
     class="edge"
     id="edge16"
     transform="translate(4,740.825)">
    <title
       id="title17387">n31 (0.47 - 29)-&gt;n29 (0.64 - 28)</title>
    <path
       style="fill:none;stroke:#000000"
       inkscape:connector-curvature="0"
       id="path17389"
       d="m 656.249,-561.068 c 37.971,11.658 94.252,28.937 135.039,41.46" />
    <polygon
       style="fill:#000000;stroke:#000000"
       id="polygon17391"
       points="790.456,-516.203 792.51,-522.895 792.51,-522.895 801.043,-516.614 " />
  </g>
  <g
     class="node"
     id="node18"
     transform="translate(4,740.825)">
    <title
       id="title17394">n27 (0.79 - 10)</title>
    <ellipse
       style="fill:none;stroke:#000000"
       sodipodi:ry="18"
       sodipodi:rx="64.189003"
       sodipodi:cy="-430.82501"
       sodipodi:cx="842.69598"
       d="m 906.88499,-430.82501 c 0,9.94112 -28.7384,18 -64.18901,18 -35.4506,0 -64.189,-8.05888 -64.189,-18 0,-9.94113 28.7384,-18 64.189,-18 35.45061,0 64.18901,8.05887 64.18901,18 z"
       id="ellipse17396"
       ry="18"
       rx="64.189003"
       cy="-430.82501"
       cx="842.69598" />
    <text
       style="font-size:14px;text-anchor:middle;font-family:'Times,serif'"
       id="text17398"
       font-size="14.00"
       y="-427.125"
       x="842.69598">n27 (0.79 - 10)</text>
  </g>
  <g
     class="edge"
     id="edge17"
     transform="translate(4,740.825)">
    <title
       id="title17401">n29 (0.64 - 28)-&gt;n27 (0.79 - 10)</title>
    <path
       style="fill:none;stroke:#000000"
       inkscape:connector-curvature="0"
       id="path17403"
       d="m 842.696,-484.522 c 0,7.714 0,16.984 0,25.584" />
    <polygon
       style="fill:#000000;stroke:#000000"
       id="polygon17405"
       points="839.196,-458.93 846.196,-458.93 846.196,-458.93 842.696,-448.93 " />
  </g>
  <g
     class="node"
     id="node23"
     transform="translate(4,740.825)">
    <title
       id="title17408">n25 (0.84 - 18)</title>
    <ellipse
       style="fill:none;stroke:#000000"
       sodipodi:ry="18"
       sodipodi:rx="64.189003"
       sodipodi:cy="-430.82501"
       sodipodi:cx="1019.7"
       d="m 1083.889,-430.82501 c 0,9.94112 -28.7384,18 -64.189,18 -35.4506,0 -64.18899,-8.05888 -64.18899,-18 0,-9.94113 28.73839,-18 64.18899,-18 35.4506,0 64.189,8.05887 64.189,18 z"
       id="ellipse17410"
       ry="18"
       rx="64.189003"
       cy="-430.82501"
       cx="1019.7" />
    <text
       style="font-size:14px;text-anchor:middle;font-family:'Times,serif'"
       id="text17412"
       font-size="14.00"
       y="-427.125"
       x="1019.7">n25 (0.84 - 18)</text>
  </g>
  <g
     class="edge"
     id="edge22"
     transform="translate(4,740.825)">
    <title
       id="title17415">n29 (0.64 - 28)-&gt;n25 (0.84 - 18)</title>
    <path
       style="fill:none;stroke:#000000"
       inkscape:connector-curvature="0"
       id="path17417"
       d="m 878.514,-487.66 c 27.801,10.995 66.507,26.302 96.362,38.109" />
    <polygon
       style="fill:#000000;stroke:#000000"
       id="polygon17419"
       points="973.646,-446.273 976.221,-452.783 976.221,-452.783 984.233,-445.85 " />
  </g>
  <ellipse
     cx="659.69598"
     cy="-265.103"
     rx="108.789"
     ry="26.7407"
     id="ellipse17424"
     d="m 768.48499,-265.103 c 0,14.76848 -48.7065,26.7407 -108.78901,26.7407 -60.0825,0 -108.789,-11.97222 -108.789,-26.7407 0,-14.76848 48.7065,-26.7407 108.789,-26.7407 60.08251,0 108.78901,11.97222 108.78901,26.7407 z"
     sodipodi:cx="659.69598"
     sodipodi:cy="-265.103"
     sodipodi:rx="108.789"
     sodipodi:ry="26.7407"
     style="fill:none;stroke:#000000"
     transform="translate(4,740.825)" />
  <text
     x="663.69598"
     y="471.922"
     font-size="14.00"
     id="text17426"
     style="font-size:14px;text-anchor:middle;font-family:'Times,serif'">COSINE</text>
  <text
     x="663.69598"
     y="486.922"
     font-size="14.00"
     id="text17428"
     style="font-size:14px;text-anchor:middle;font-family:'Times,serif'">TWO_WAY_SUPPORT</text>
  <g
     class="edge"
     id="edge18"
     transform="translate(4,740.825)">
    <title
       id="title17431">n27 (0.79 - 10)-&gt;COSINE\nTWO_WAY_SUPPORT</title>
    <path
       style="fill:none;stroke:#000000"
       inkscape:connector-curvature="0"
       id="path17433"
       d="m 822.192,-413.709 c -12.947,10.324 -29.922,24.131 -44.496,36.884 -29.38,25.706 -61.632,56.129 -84.983,78.574" />
    <polygon
       style="fill:#000000;stroke:#000000"
       id="polygon17435"
       points="690.231,-300.72 695.089,-295.68 695.089,-295.68 685.46,-291.26 " />
  </g>
  <g
     class="node"
     id="node20"
     transform="translate(4,740.825)">
    <title
       id="title17438">n24 (0.85 - 8)</title>
    <ellipse
       style="fill:none;stroke:#000000"
       sodipodi:ry="18"
       sodipodi:rx="59.590099"
       sodipodi:cy="-265.103"
       sodipodi:cx="846.69598"
       d="m 906.28608,-265.103 c 0,9.94113 -26.67939,18 -59.5901,18 -32.9107,0 -59.5901,-8.05887 -59.5901,-18 0,-9.94112 26.6794,-18 59.5901,-18 32.91071,0 59.5901,8.05888 59.5901,18 z"
       id="ellipse17440"
       ry="18"
       rx="59.590099"
       cy="-265.103"
       cx="846.69598" />
    <text
       style="font-size:14px;text-anchor:middle;font-family:'Times,serif'"
       id="text17442"
       font-size="14.00"
       y="-261.40302"
       x="846.69598">n24 (0.85 - 8)</text>
  </g>
  <g
     class="edge"
     id="edge19"
     transform="translate(4,740.825)">
    <title
       id="title17445">n27 (0.79 - 10)-&gt;n24 (0.85 - 8)</title>
    <path
       style="fill:none;stroke:#000000"
       inkscape:connector-curvature="0"
       id="path17447"
       d="m 843.116,-412.614 c 0.691,28.3 2.074,84.9 2.904,118.869" />
    <polygon
       style="fill:#000000;stroke:#000000"
       id="polygon17449"
       points="842.525,-293.488 849.523,-293.659 849.523,-293.659 846.269,-283.577 " />
  </g>
  <ellipse
     cx="699.69598"
     cy="-58.689899"
     rx="108.789"
     ry="37.4533"
     id="ellipse17454"
     d="m 808.48499,-58.689899 c 0,20.684886 -48.7065,37.4533 -108.78901,37.4533 -60.0825,0 -108.789,-16.768414 -108.789,-37.4533 0,-20.684887 48.7065,-37.453301 108.789,-37.453301 60.08251,0 108.78901,16.768414 108.78901,37.453301 z"
     sodipodi:cx="699.69598"
     sodipodi:cy="-58.689899"
     sodipodi:rx="108.789"
     sodipodi:ry="37.4533"
     style="fill:none;stroke:#000000"
     transform="translate(4,740.825)" />
  <text
     x="703.69598"
     y="670.83508"
     font-size="14.00"
     id="text17456"
     style="font-size:14px;text-anchor:middle;font-family:'Times,serif'">KLOSGEN</text>
  <text
     x="703.69598"
     y="685.83508"
     font-size="14.00"
     id="text17458"
     style="font-size:14px;text-anchor:middle;font-family:'Times,serif'">GINI</text>
  <text
     x="703.69598"
     y="700.83508"
     font-size="14.00"
     id="text17460"
     style="font-size:14px;text-anchor:middle;font-family:'Times,serif'">IMPLICATION_INDEX</text>
  <g
     class="edge"
     id="edge20"
     transform="translate(4,740.825)">
    <title
       id="title17463">n24 (0.85 - 8)-&gt;KLOSGEN\nGINI\nIMPLICATION_INDEX</title>
    <path
       style="fill:none;stroke:#000000"
       inkscape:connector-curvature="0"
       id="path17465"
       d="m 837.098,-247.132 c -12.738,22.138 -36.319,61.81 -59.402,93.752 -12.352,17.091 -26.904,35.07 -40.072,50.657" />
    <polygon
       style="fill:#000000;stroke:#000000"
       id="polygon17467"
       points="734.702,-104.69 740.031,-100.151 740.031,-100.151 730.882,-94.8074 " />
  </g>
  <ellipse
     cx="993.69598"
     cy="-58.689899"
     rx="166.754"
     ry="58.880299"
     id="ellipse17472"
     d="m 1160.45,-58.689899 c 0,32.518691 -74.6583,58.88029817 -166.75402,58.88029817 -92.09569,0 -166.75399,-26.36160717 -166.75399,-58.88029817 0,-32.518691 74.6583,-58.880301 166.75399,-58.880301 92.09572,0 166.75402,26.36161 166.75402,58.880301 z"
     sodipodi:cx="993.69598"
     sodipodi:cy="-58.689899"
     sodipodi:rx="166.754"
     sodipodi:ry="58.880299"
     style="fill:#aaffaa;stroke:#000000"
     transform="translate(4,740.825)" />
  <text
     x="997.69598"
     y="655.83508"
     font-size="14.00"
     id="text17474"
     style="font-size:14px;text-anchor:middle;font-family:'Times,serif'">PHI</text>
  <text
     x="997.69598"
     y="670.83508"
     font-size="14.00"
     id="text17476"
     style="font-size:14px;text-anchor:middle;font-family:'Times,serif'">CHI_SQUARE</text>
  <text
     x="997.69598"
     y="685.83508"
     font-size="14.00"
     id="text17478"
     style="font-size:14px;text-anchor:middle;font-family:'Times,serif'">FISHER_PVAL</text>
  <text
     x="997.69598"
     y="700.83508"
     font-size="14.00"
     id="text17480"
     style="font-size:14px;text-anchor:middle;font-family:'Times,serif'">TWO_WAY_SUPPORT_VARIATION</text>
  <text
     x="997.69598"
     y="715.83508"
     font-size="14.00"
     id="text17482"
     style="font-size:14px;text-anchor:middle;font-family:'Times,serif'">J_MEASURE</text>
  <g
     class="edge"
     id="edge21"
     transform="translate(4,740.825)">
    <title
       id="title17485">n24 (0.85 - 8)-&gt;PHI\nCHI_SQUARE\nFISHER_PVAL\nTWO_WAY_SUPPORT_VARIATION\nJ_MEASURE</title>
    <path
       style="fill:none;stroke:#000000"
       inkscape:connector-curvature="0"
       id="path17487"
       d="m 856.293,-247.132 c 12.738,22.138 36.319,61.81 59.403,93.752 7.238,10.017 15.232,20.338 23.261,30.304" />
    <polygon
       style="fill:#000000;stroke:#000000"
       id="polygon17489"
       points="936.363,-120.719 941.792,-125.137 941.792,-125.137 945.39,-115.172 " />
  </g>
  <ellipse
     cx="1019.7"
     cy="-265.103"
     rx="94.505302"
     ry="90.519302"
     id="ellipse17494"
     d="m 1114.2053,-265.103 c 0,49.99243 -42.3115,90.51931 -94.5053,90.51931 -52.19383,0 -94.50529,-40.52688 -94.50529,-90.51931 0,-49.99243 42.31146,-90.5193 94.50529,-90.5193 52.1938,0 94.5053,40.52687 94.5053,90.5193 z"
     sodipodi:cx="1019.7"
     sodipodi:cy="-265.103"
     sodipodi:rx="94.505302"
     sodipodi:ry="90.519302"
     style="fill:#ffffaa;stroke:#000000"
     transform="translate(4,740.825)" />
  <text
     x="1023.7"
     y="426.922"
     font-size="14.00"
     id="text17496"
     style="font-size:14px;text-anchor:middle;font-family:'Times,serif'">RELATIVE_RISK</text>
  <text
     x="1023.7"
     y="441.922"
     font-size="14.00"
     id="text17498"
     style="font-size:14px;text-anchor:middle;font-family:'Times,serif'">YULE_Y</text>
  <text
     x="1023.7"
     y="456.922"
     font-size="14.00"
     id="text17500"
     style="font-size:14px;text-anchor:middle;font-family:'Times,serif'">YULE_Q</text>
  <text
     x="1023.7"
     y="471.922"
     font-size="14.00"
     id="text17502"
     style="font-size:14px;text-anchor:middle;font-family:'Times,serif'">ODDS_RATIO</text>
  <text
     x="1023.7"
     y="486.922"
     font-size="14.00"
     id="text17504"
     style="font-size:14px;text-anchor:middle;font-family:'Times,serif'">LIFT</text>
  <text
     x="1023.7"
     y="501.922"
     font-size="14.00"
     id="text17506"
     style="font-size:14px;text-anchor:middle;font-family:'Times,serif'">ODD_MULTIPLIER</text>
  <text
     x="1023.7"
     y="516.922"
     font-size="14.00"
     id="text17508"
     style="font-size:14px;text-anchor:middle;font-family:'Times,serif'">ZHANG</text>
  <text
     x="1023.7"
     y="531.922"
     font-size="14.00"
     id="text17510"
     style="font-size:14px;text-anchor:middle;font-family:'Times,serif'">BAYES</text>
  <g
     class="edge"
     id="edge23"
     transform="translate(4,740.825)">
    <title
       id="title17513">n25 (0.84 - 18)-&gt;RELATIVE_RISK\nYULE_Y\nYULE_Q\nODDS_RATIO\nLIFT\nODD_MULTIPLIER\nZHANG\nBAYES</title>
    <path
       style="fill:none;stroke:#000000"
       inkscape:connector-curvature="0"
       id="path17515"
       d="m 1019.7,-412.614 c 0,11.846 0,28.65 0,46.677" />
    <polygon
       style="fill:#000000;stroke:#000000"
       id="polygon17517"
       points="1016.2,-365.82 1023.2,-365.82 1023.2,-365.82 1019.7,-355.82 " />
  </g>
  <ellipse
     cx="1269.7"
     cy="-265.103"
     rx="137.358"
     ry="111.946"
     id="ellipse17522"
     d="m 1407.058,-265.103 c 0,61.82607 -61.4973,111.946 -137.358,111.946 -75.8608,0 -137.3581,-50.11993 -137.3581,-111.946 0,-61.82606 61.4973,-111.946 137.3581,-111.946 75.8607,0 137.358,50.11994 137.358,111.946 z"
     sodipodi:cx="1269.7"
     sodipodi:cy="-265.103"
     sodipodi:rx="137.358"
     sodipodi:ry="111.946"
     style="fill:#ffffaa;stroke:#000000"
     transform="translate(4,740.825)" />
  <text
     x="1273.7"
     y="411.922"
     font-size="14.00"
     id="text17524"
     style="font-size:14px;text-anchor:middle;font-family:'Times,serif'">LEVERAGE</text>
  <text
     x="1273.7"
     y="426.922"
     font-size="14.00"
     id="text17526"
     style="font-size:14px;text-anchor:middle;font-family:'Times,serif'">COUNTER_EXAMPLE_RATE</text>
  <text
     x="1273.7"
     y="441.922"
     font-size="14.00"
     id="text17528"
     style="font-size:14px;text-anchor:middle;font-family:'Times,serif'">SEBAG_SCHOENAUER</text>
  <text
     x="1273.7"
     y="456.922"
     font-size="14.00"
     id="text17530"
     style="font-size:14px;text-anchor:middle;font-family:'Times,serif'">CONFIDENCE</text>
  <text
     x="1273.7"
     y="471.922"
     font-size="14.00"
     id="text17532"
     style="font-size:14px;text-anchor:middle;font-family:'Times,serif'">ONE_WAY_SUPPORT</text>
  <text
     x="1273.7"
     y="486.922"
     font-size="14.00"
     id="text17534"
     style="font-size:14px;text-anchor:middle;font-family:'Times,serif'">CENTERED_CONFIDENCE</text>
  <text
     x="1273.7"
     y="501.922"
     font-size="14.00"
     id="text17536"
     style="font-size:14px;text-anchor:middle;font-family:'Times,serif'">ADDED_VALUE</text>
  <text
     x="1273.7"
     y="516.922"
     font-size="14.00"
     id="text17538"
     style="font-size:14px;text-anchor:middle;font-family:'Times,serif'">LOEVINGER</text>
  <text
     x="1273.7"
     y="531.922"
     font-size="14.00"
     id="text17540"
     style="font-size:14px;text-anchor:middle;font-family:'Times,serif'">CONVICTION</text>
  <text
     x="1273.7"
     y="546.922"
     font-size="14.00"
     id="text17542"
     style="font-size:14px;text-anchor:middle;font-family:'Times,serif'">CERTAINTY_FACTOR</text>
  <g
     class="edge"
     id="edge24"
     transform="translate(4,740.825)">
    <title
       id="title17545">n25 (0.84 - 18)-&gt;LEVERAGE\nCOUNTER_EXAMPLE_RATE\nSEBAG_SCHOENAUER\nCONFIDENCE\nONE_WAY_SUPPORT\nCENTERED_CONFIDENCE\nADDED_VALUE\nLOEVINGER\nCONVICTION\nCERTAINTY_FACTOR</title>
    <path
       style="fill:none;stroke:#000000"
       inkscape:connector-curvature="0"
       id="path17547"
       d="m 1051.9,-415.238 c 20.96,9.935 48.62,23.879 71.8,38.413 13.28,8.327 26.85,17.55 40.12,27.017" />
    <polygon
       style="fill:#000000;stroke:#000000"
       id="polygon17549"
       points="1161.88,-346.895 1165.97,-352.574 1165.97,-352.574 1172.03,-343.889 " />
  </g>
</svg>
