<?xml version="1.0" encoding="UTF-8" standalone="no"?>
<!-- Generated by graphviz version 2.38.0 (20140413.2041)
 -->

<!-- Title: dendrogram Pages: 1 -->

<svg
   xmlns:dc="http://purl.org/dc/elements/1.1/"
   xmlns:cc="http://creativecommons.org/ns#"
   xmlns:rdf="http://www.w3.org/1999/02/22-rdf-syntax-ns#"
   xmlns:svg="http://www.w3.org/2000/svg"
   xmlns="http://www.w3.org/2000/svg"
   xmlns:sodipodi="http://sodipodi.sourceforge.net/DTD/sodipodi-0.dtd"
   xmlns:inkscape="http://www.inkscape.org/namespaces/inkscape"
   width="1036pt"
   height="881pt"
   viewBox="0.00 0.00 1036.02 881.48"
   id="svg30311"
   version="1.1"
   inkscape:version="0.48.5 r10040"
   sodipodi:docname="patterns_prods_per_ticket-perTarget-NDCG.svg">
  <metadata
     id="metadata30607">
    <rdf:RDF>
      <cc:Work
         rdf:about="">
        <dc:format>image/svg+xml</dc:format>
        <dc:type
           rdf:resource="http://purl.org/dc/dcmitype/StillImage" />
      </cc:Work>
    </rdf:RDF>
  </metadata>
  <defs
     id="defs30605" />
  <sodipodi:namedview
     pagecolor="#ffffff"
     bordercolor="#666666"
     borderopacity="1"
     objecttolerance="10"
     gridtolerance="10"
     guidetolerance="10"
     inkscape:pageopacity="0"
     inkscape:pageshadow="2"
     inkscape:window-width="1920"
     inkscape:window-height="1052"
     id="namedview30603"
     showgrid="false"
     inkscape:zoom="0.75089387"
     inkscape:cx="643.03939"
     inkscape:cy="589.55768"
     inkscape:window-x="0"
     inkscape:window-y="0"
     inkscape:window-maximized="1"
     inkscape:current-layer="svg30311" />
  <g
     class="node"
     id="node1"
     transform="translate(4,877.484)">
    <title
       id="title30319">n34 (-0.60 - 36)</title>
    <ellipse
       style="fill:none;stroke:#000000"
       sodipodi:ry="18"
       sodipodi:rx="67.688103"
       sodipodi:cy="-855.48401"
       sodipodi:cx="409.84601"
       d="m 477.53411,-855.48401 c 0,9.94113 -30.30499,18 -67.6881,18 -37.38311,0 -67.6881,-8.05887 -67.6881,-18 0,-9.94112 30.30499,-18 67.6881,-18 37.38311,0 67.6881,8.05888 67.6881,18 z"
       id="ellipse30321"
       ry="18"
       rx="67.688103"
       cy="-855.48401"
       cx="409.84601" />
    <text
       style="font-size:14px;text-anchor:middle;font-family:'Times,serif'"
       id="text30323"
       font-size="14.00"
       y="-851.784"
       x="409.84601">n34 (-0.60 - 36)</text>
  </g>
  <ellipse
     cx="312.84601"
     cy="-783.48401"
     rx="109.681"
     ry="18"
     id="ellipse30328"
     d="m 422.52701,-783.48401 c 0,9.94113 -49.10586,18 -109.681,18 -60.57515,0 -109.681,-8.05887 -109.681,-18 0,-9.94112 49.10585,-18 109.681,-18 60.57514,0 109.681,8.05888 109.681,18 z"
     sodipodi:cx="312.84601"
     sodipodi:cy="-783.48401"
     sodipodi:rx="109.681"
     sodipodi:ry="18"
     style="fill:#aaaaff;stroke:#000000"
     transform="translate(4,877.484)" />
  <text
     x="316.84601"
     y="97.700005"
     font-size="14.00"
     id="text30330"
     style="font-size:14px;text-anchor:middle;font-family:'Times,serif'">COLLECTIVE_STRENGH</text>
  <g
     class="edge"
     id="edge1"
     transform="translate(4,877.484)">
    <title
       id="title30333">n34 (-0.60 - 36)-&gt;COLLECTIVE_STRENGH</title>
    <path
       style="fill:none;stroke:#000000"
       inkscape:connector-curvature="0"
       id="path30335"
       d="m 387.348,-838.249 c -12.791,9.231 -29.009,20.935 -43.046,31.064" />
    <polygon
       style="fill:#000000;stroke:#000000"
       id="polygon30337"
       points="341.956,-809.808 346.052,-804.132 346.052,-804.132 335.895,-801.118 " />
  </g>
  <g
     class="node"
     id="node3"
     transform="translate(4,877.484)">
    <title
       id="title30340">n33 (-0.15 - 35)</title>
    <ellipse
       style="fill:none;stroke:#000000"
       sodipodi:ry="18"
       sodipodi:rx="67.688103"
       sodipodi:cy="-783.48401"
       sodipodi:cx="507.84601"
       d="m 575.53411,-783.48401 c 0,9.94113 -30.30499,18 -67.6881,18 -37.38311,0 -67.6881,-8.05887 -67.6881,-18 0,-9.94112 30.30499,-18 67.6881,-18 37.38311,0 67.6881,8.05888 67.6881,18 z"
       id="ellipse30342"
       ry="18"
       rx="67.688103"
       cy="-783.48401"
       cx="507.84601" />
    <text
       style="font-size:14px;text-anchor:middle;font-family:'Times,serif'"
       id="text30344"
       font-size="14.00"
       y="-779.784"
       x="507.84601">n33 (-0.15 - 35)</text>
  </g>
  <g
     class="edge"
     id="edge2"
     transform="translate(4,877.484)">
    <title
       id="title30347">n34 (-0.60 - 36)-&gt;n33 (-0.15 - 35)</title>
    <path
       style="fill:none;stroke:#000000"
       inkscape:connector-curvature="0"
       id="path30349"
       d="m 432.576,-838.249 c 13.234,9.453 30.099,21.5 44.509,31.792" />
    <polygon
       style="fill:#000000;stroke:#000000"
       id="polygon30351"
       points="475.068,-803.596 479.137,-809.292 479.137,-809.292 485.24,-800.632 " />
  </g>
  <g
     class="node"
     id="node4"
     transform="translate(4,877.484)">
    <title
       id="title30354">n31 (0.56 - 15)</title>
    <ellipse
       style="fill:none;stroke:#000000"
       sodipodi:ry="18"
       sodipodi:rx="64.189003"
       sodipodi:cy="-711.48401"
       sodipodi:cx="403.84601"
       d="m 468.03501,-711.48401 c 0,9.94113 -28.73839,18 -64.189,18 -35.45061,0 -64.189,-8.05887 -64.189,-18 0,-9.94112 28.73839,-18 64.189,-18 35.45061,0 64.189,8.05888 64.189,18 z"
       id="ellipse30356"
       ry="18"
       rx="64.189003"
       cy="-711.48401"
       cx="403.84601" />
    <text
       style="font-size:14px;text-anchor:middle;font-family:'Times,serif'"
       id="text30358"
       font-size="14.00"
       y="-707.784"
       x="403.84601">n31 (0.56 - 15)</text>
  </g>
  <g
     class="edge"
     id="edge3"
     transform="translate(4,877.484)">
    <title
       id="title30361">n33 (-0.15 - 35)-&gt;n31 (0.56 - 15)</title>
    <path
       style="fill:none;stroke:#000000"
       inkscape:connector-curvature="0"
       id="path30363"
       d="m 484.247,-766.6 c -14.361,9.666 -32.891,22.137 -48.541,32.672" />
    <polygon
       style="fill:#000000;stroke:#000000"
       id="polygon30365"
       points="433.693,-736.793 437.602,-730.986 437.602,-730.986 427.352,-728.306 " />
  </g>
  <g
     class="node"
     id="node15"
     transform="translate(4,877.484)">
    <title
       id="title30368">n32 (0.50 - 20)</title>
    <ellipse
       style="fill:none;stroke:#000000"
       sodipodi:ry="18"
       sodipodi:rx="64.189003"
       sodipodi:cy="-711.48401"
       sodipodi:cx="610.84601"
       d="m 675.03501,-711.48401 c 0,9.94113 -28.73839,18 -64.189,18 -35.45061,0 -64.189,-8.05887 -64.189,-18 0,-9.94112 28.73839,-18 64.189,-18 35.45061,0 64.189,8.05888 64.189,18 z"
       id="ellipse30370"
       ry="18"
       rx="64.189003"
       cy="-711.48401"
       cx="610.84601" />
    <text
       style="font-size:14px;text-anchor:middle;font-family:'Times,serif'"
       id="text30372"
       font-size="14.00"
       y="-707.784"
       x="610.84601">n32 (0.50 - 20)</text>
  </g>
  <g
     class="edge"
     id="edge14"
     transform="translate(4,877.484)">
    <title
       id="title30375">n33 (-0.15 - 35)-&gt;n32 (0.50 - 20)</title>
    <path
       style="fill:none;stroke:#000000"
       inkscape:connector-curvature="0"
       id="path30377"
       d="m 531.476,-766.425 c 14.001,9.515 31.935,21.703 47.212,32.085" />
    <polygon
       style="fill:#000000;stroke:#000000"
       id="polygon30379"
       points="577.088,-731.195 581.022,-736.985 581.022,-736.985 587.326,-728.469 " />
  </g>
  <g
     class="node"
     id="node5"
     transform="translate(101.00394,700.53176)">
    <title
       id="title30382">n28 (0.88 - 4)</title>
    <ellipse
       style="fill:none;stroke:#000000"
       sodipodi:ry="18"
       sodipodi:rx="59.590099"
       sodipodi:cy="-460.909"
       sodipodi:cx="216.84599"
       d="m 276.43609,-460.909 c 0,9.94113 -26.67939,18 -59.5901,18 -32.9107,0 -59.5901,-8.05887 -59.5901,-18 0,-9.94112 26.6794,-18 59.5901,-18 32.91071,0 59.5901,8.05888 59.5901,18 z"
       id="ellipse30384"
       ry="18"
       rx="59.590099"
       cy="-460.909"
       cx="216.84599" />
    <text
       style="font-size:14px;text-anchor:middle;font-family:'Times,serif'"
       id="text30386"
       font-size="14.00"
       y="-457.20901"
       x="216.84599">n28 (0.88 - 4)</text>
  </g>
  <path
     d="m 381.082,182.573 c -12.97192,9.03004 -37.6965,25.1322 -50.07811,37.54409"
     id="path30391"
     inkscape:connector-curvature="0"
     style="fill:none;stroke:#000000"
     sodipodi:nodetypes="cc" />
  <polygon
     points="231.028,-486.633 231.028,-486.633 223.828,-478.861 224.61,-489.427 "
     id="polygon30393"
     style="fill:#000000;stroke:#000000"
     transform="matrix(0.88922549,0.45746916,-0.45746916,0.88922549,-87.555447,544.19212)" />
  <g
     class="node"
     id="node8"
     transform="translate(50.356229,768.94259)">
    <title
       id="title30396">n30 (0.76 - 11)</title>
    <ellipse
       style="fill:none;stroke:#000000"
       sodipodi:ry="18"
       sodipodi:rx="64.189003"
       sodipodi:cy="-460.909"
       sodipodi:cx="403.84601"
       d="m 468.03501,-460.909 c 0,9.94113 -28.73839,18 -64.189,18 -35.45061,0 -64.189,-8.05887 -64.189,-18 0,-9.94112 28.73839,-18 64.189,-18 35.45061,0 64.189,8.05888 64.189,18 z"
       id="ellipse30398"
       ry="18"
       rx="64.189003"
       cy="-460.909"
       cx="403.84601" />
    <text
       style="font-size:14px;text-anchor:middle;font-family:'Times,serif'"
       id="text30400"
       font-size="14.00"
       y="-457.20901"
       x="403.84601">n30 (0.76 - 11)</text>
  </g>
  <g
     class="edge"
     id="edge7"
     transform="translate(4,877.484)">
    <title
       id="title30403">n31 (0.56 - 15)-&gt;n30 (0.76 - 11)</title>
    <path
       style="fill:none;stroke:#000000"
       inkscape:connector-curvature="0"
       id="path30405"
       d="m 403.846,-693.399 c 6.78384,12.99937 40.32615,84.10986 47.10999,102.47042"
       sodipodi:nodetypes="cc" />
    <polygon
       style="fill:#000000;stroke:#000000"
       id="polygon30407"
       points="400.346,-489.114 407.346,-489.114 407.346,-489.114 403.846,-479.114 "
       transform="matrix(0.96708112,-0.25446827,0.25446827,0.96708112,182.49663,-22.819292)" />
  </g>
  <ellipse
     cx="44.846001"
     cy="-190.856"
     rx="44.6926"
     ry="18"
     id="ellipse30412"
     d="m 89.538601,-190.856 c 0,9.94112 -20.009559,18 -44.6926,18 -24.683042,0 -44.69260058,-8.05888 -44.69260058,-18 0,-9.94113 20.00955858,-18 44.69260058,-18 24.683041,0 44.6926,8.05887 44.6926,18 z"
     sodipodi:cx="44.846001"
     sodipodi:cy="-190.856"
     sodipodi:rx="44.6926"
     sodipodi:ry="18"
     style="fill:#aaaaff;stroke:#000000"
     transform="translate(211.86559,591.80207)" />
  <text
     x="256.71158"
     y="404.64606"
     font-size="14.00"
     id="text30414"
     style="font-size:14px;text-anchor:middle;font-family:'Times,serif'">RECALL</text>
  <path
     d="m 307.09094,257.39076 c -5.07969,13.47121 -39.59536,107.84729 -46.55324,122.95978"
     id="path30419"
     inkscape:connector-curvature="0"
     style="fill:none;stroke:#000000"
     sodipodi:nodetypes="cc" />
  <polygon
     points="63.9476,-215.144 55.6013,-208.618 58.0561,-218.924 63.9476,-215.144 "
     id="polygon30421"
     style="fill:#000000;stroke:#000000"
     transform="matrix(0.98610831,-0.16610357,0.16610357,0.98610831,239.85378,596.68817)" />
  <ellipse
     cx="216.84599"
     cy="-190.856"
     rx="109.703"
     ry="37.4533"
     id="ellipse30426"
     d="m 326.549,-190.856 c 0,20.68488 -49.11571,37.4533 -109.70301,37.4533 -60.58729,0 -109.703,-16.76842 -109.703,-37.4533 0,-20.68489 49.11571,-37.4533 109.703,-37.4533 60.5873,0 109.70301,16.76841 109.70301,37.4533 z"
     sodipodi:cx="216.84599"
     sodipodi:cy="-190.856"
     sodipodi:rx="109.703"
     sodipodi:ry="37.4533"
     style="fill:#d5d5d5;stroke:#000000"
     transform="translate(101.00394,700.53176)" />
  <text
     x="317.84995"
     y="498.37576"
     font-size="14.00"
     id="text30428"
     style="font-size:14px;text-anchor:middle;font-family:'Times,serif'">TWO_WAY_SUPPORT</text>
  <text
     x="317.84995"
     y="513.37573"
     font-size="14.00"
     id="text30430"
     style="font-size:14px;text-anchor:middle;font-family:'Times,serif'">PIATETSKY_SHAPIRO</text>
  <text
     x="317.84995"
     y="528.37573"
     font-size="14.00"
     id="text30432"
     style="font-size:14px;text-anchor:middle;font-family:'Times,serif'">SPECIFICITY</text>
  <g
     class="edge"
     id="edge6"
     transform="translate(101.00394,700.53176)">
    <title
       id="title30435">n28 (0.88 - 4)-&gt;TWO_WAY_SUPPORT\nPIATETSKY_SHAPIRO\nSPECIFICITY</title>
    <path
       style="fill:none;stroke:#000000"
       inkscape:connector-curvature="0"
       id="path30437"
       d="m 216.846,-442.733 c 0,40.525 0,143.244 0,203.938" />
    <polygon
       style="fill:#000000;stroke:#000000"
       id="polygon30439"
       points="220.346,-238.703 220.346,-238.703 216.846,-228.703 213.346,-238.703 " />
  </g>
  <g
     class="node"
     id="node9"
     transform="translate(46.639095,768.75431)">
    <title
       id="title30442">n29 (0.87 - 5)</title>
    <ellipse
       style="fill:none;stroke:#000000"
       sodipodi:ry="18"
       sodipodi:rx="59.590099"
       sodipodi:cy="-190.856"
       sodipodi:cx="403.84601"
       d="m 463.43611,-190.856 c 0,9.94112 -26.6794,18 -59.5901,18 -32.9107,0 -59.5901,-8.05888 -59.5901,-18 0,-9.94113 26.6794,-18 59.5901,-18 32.9107,0 59.5901,8.05887 59.5901,18 z"
       id="ellipse30444"
       ry="18"
       rx="59.590099"
       cy="-190.856"
       cx="403.84601" />
    <text
       style="font-size:14px;text-anchor:middle;font-family:'Times,serif'"
       id="text30446"
       font-size="14.00"
       y="-187.15601"
       x="403.84601">n29 (0.87 - 5)</text>
  </g>
  <g
     class="edge"
     id="edge8"
     transform="translate(46.639095,768.75431)">
    <title
       id="title30449">n30 (0.76 - 11)-&gt;n29 (0.87 - 5)</title>
    <path
       style="fill:none;stroke:#000000"
       inkscape:connector-curvature="0"
       id="path30451"
       d="m 403.846,-442.733 c 0,45.39 0,168.802 0,223.8" />
    <polygon
       style="fill:#000000;stroke:#000000"
       id="polygon30453"
       points="407.346,-218.889 407.346,-218.889 403.846,-208.889 400.346,-218.889 " />
  </g>
  <g
     class="node"
     id="node12"
     transform="translate(46.639095,768.75431)">
    <title
       id="title30456">n27 (0.88 - 6)</title>
    <ellipse
       style="fill:none;stroke:#000000"
       sodipodi:ry="18"
       sodipodi:rx="59.590099"
       sodipodi:cy="-190.856"
       sodipodi:cx="640.84601"
       d="m 700.43611,-190.856 c 0,9.94112 -26.6794,18 -59.5901,18 -32.9107,0 -59.5901,-8.05888 -59.5901,-18 0,-9.94113 26.6794,-18 59.5901,-18 32.9107,0 59.5901,8.05887 59.5901,18 z"
       id="ellipse30458"
       ry="18"
       rx="59.590099"
       cy="-190.856"
       cx="640.84601" />
    <text
       style="font-size:14px;text-anchor:middle;font-family:'Times,serif'"
       id="text30460"
       font-size="14.00"
       y="-187.15601"
       x="640.84601">n27 (0.88 - 6)</text>
  </g>
  <g
     class="edge"
     id="edge11"
     transform="translate(46.639095,768.75431)">
    <title
       id="title30463">n30 (0.76 - 11)-&gt;n27 (0.88 - 6)</title>
    <path
       style="fill:none;stroke:#000000"
       inkscape:connector-curvature="0"
       id="path30465"
       d="m 405.878,-442.668 c 5.244,37.219 22.476,125.956 71.968,178.335 28.361,30.015 71.398,48.425 106.129,59.177" />
    <polygon
       style="fill:#000000;stroke:#000000"
       id="polygon30467"
       points="585.398,-208.385 585.398,-208.385 593.995,-202.192 583.413,-201.673 " />
  </g>
  <ellipse
     cx="163.84599"
     cy="-58.689899"
     rx="55.309101"
     ry="26.7407"
     id="ellipse30472"
     d="m 219.15509,-58.689899 c 0,14.76848 -24.76272,26.740699 -55.3091,26.740699 -30.54637,0 -55.3091,-11.972219 -55.3091,-26.740699 0,-14.768481 24.76273,-26.7407 55.3091,-26.7407 30.54638,0 55.3091,11.972219 55.3091,26.7407 z"
     sodipodi:cx="163.84599"
     sodipodi:cy="-58.689899"
     sodipodi:rx="55.309101"
     sodipodi:ry="26.7407"
     style="fill:#aaffaa;stroke:#000000"
     transform="translate(46.639095,768.75431)" />
  <text
     x="210.48509"
     y="706.2644"
     font-size="14.00"
     id="text30474"
     style="font-size:14px;text-anchor:middle;font-family:'Times,serif'">JACCARD</text>
  <text
     x="210.48509"
     y="721.2644"
     font-size="14.00"
     id="text30476"
     style="font-size:14px;text-anchor:middle;font-family:'Times,serif'">KAPPA</text>
  <g
     class="edge"
     id="edge9"
     transform="translate(46.639095,768.75431)">
    <title
       id="title30479">n29 (0.87 - 5)-&gt;JACCARD\nKAPPA</title>
    <path
       style="fill:none;stroke:#000000"
       inkscape:connector-curvature="0"
       id="path30481"
       d="m 377.883,-174.581 c -12.467,6.982 -27.766,15.049 -42.037,21.201 -46.462,20.032 -64.286,10.524 -108,36 -12.359,7.203 -24.415,17.074 -34.669,26.6151" />
    <polygon
       style="fill:#000000;stroke:#000000"
       id="polygon30483"
       points="195.344,-87.9932 195.344,-87.9932 185.711,-83.5827 190.491,-93.0379 " />
  </g>
  <ellipse
     cx="403.84601"
     cy="-58.689899"
     rx="166.754"
     ry="37.4533"
     id="ellipse30488"
     d="m 570.60001,-58.689899 c 0,20.684886 -74.65831,37.4533 -166.754,37.4533 -92.09569,0 -166.754,-16.768414 -166.754,-37.4533 0,-20.684887 74.65831,-37.453301 166.754,-37.453301 92.09569,0 166.754,16.768414 166.754,37.453301 z"
     sodipodi:cx="403.84601"
     sodipodi:cy="-58.689899"
     sodipodi:rx="166.754"
     sodipodi:ry="37.4533"
     style="fill:#aaffaa;stroke:#000000"
     transform="translate(46.639095,768.75431)" />
  <text
     x="450.48511"
     y="698.7644"
     font-size="14.00"
     id="text30490"
     style="font-size:14px;text-anchor:middle;font-family:'Times,serif'">J_MEASURE</text>
  <text
     x="450.48511"
     y="713.7644"
     font-size="14.00"
     id="text30492"
     style="font-size:14px;text-anchor:middle;font-family:'Times,serif'">FISHER_PVAL</text>
  <text
     x="450.48511"
     y="728.7644"
     font-size="14.00"
     id="text30494"
     style="font-size:14px;text-anchor:middle;font-family:'Times,serif'">TWO_WAY_SUPPORT_VARIATION</text>
  <g
     class="edge"
     id="edge10"
     transform="translate(46.639095,768.75431)">
    <title
       id="title30497">n29 (0.87 - 5)-&gt;J_MEASURE\nFISHER_PVAL\nTWO_WAY_SUPPORT_VARIATION</title>
    <path
       style="fill:none;stroke:#000000"
       inkscape:connector-curvature="0"
       id="path30499"
       d="m 403.846,-172.839 c 0,16.868 0,43.469 0,66.641" />
    <polygon
       style="fill:#000000;stroke:#000000"
       id="polygon30501"
       points="407.346,-106.178 407.346,-106.178 403.846,-96.1784 400.346,-106.178 " />
  </g>
  <ellipse
     cx="640.84601"
     cy="-58.689899"
     rx="51.990799"
     ry="18"
     id="ellipse30506"
     d="m 692.83681,-58.689899 c 0,9.941125 -23.27708,18 -51.9908,18 -28.71373,0 -51.9908,-8.058875 -51.9908,-18 0,-9.941126 23.27707,-18 51.9908,-18 28.71372,0 51.9908,8.058874 51.9908,18 z"
     sodipodi:cx="640.84601"
     sodipodi:cy="-58.689899"
     sodipodi:rx="51.990799"
     sodipodi:ry="18"
     style="fill:#d5d5d5;stroke:#000000"
     transform="translate(46.639095,768.75431)" />
  <text
     x="687.48511"
     y="713.7644"
     font-size="14.00"
     id="text30508"
     style="font-size:14px;text-anchor:middle;font-family:'Times,serif'">KLOSGEN</text>
  <g
     class="edge"
     id="edge12"
     transform="translate(46.639095,768.75431)">
    <title
       id="title30511">n27 (0.88 - 6)-&gt;KLOSGEN</title>
    <path
       style="fill:none;stroke:#000000"
       inkscape:connector-curvature="0"
       id="path30513"
       d="m 640.846,-172.839 c 0,21.828 0,59.954 0,85.8576" />
    <polygon
       style="fill:#000000;stroke:#000000"
       id="polygon30515"
       points="644.346,-86.711 644.346,-86.711 640.846,-76.711 637.346,-86.7111 " />
  </g>
  <ellipse
     cx="819.84601"
     cy="-58.689899"
     rx="108.789"
     ry="58.880299"
     id="ellipse30520"
     d="m 928.63501,-58.689899 c 0,32.518691 -48.7065,58.88029817 -108.789,58.88029817 -60.08251,0 -108.789,-26.36160717 -108.789,-58.88029817 0,-32.518691 48.70649,-58.880301 108.789,-58.880301 60.0825,0 108.789,26.36161 108.789,58.880301 z"
     sodipodi:cx="819.84601"
     sodipodi:cy="-58.689899"
     sodipodi:rx="108.789"
     sodipodi:ry="58.880299"
     style="fill:none;stroke:#000000"
     transform="translate(46.639095,768.75431)" />
  <text
     x="866.48511"
     y="683.7644"
     font-size="14.00"
     id="text30522"
     style="font-size:14px;text-anchor:middle;font-family:'Times,serif'">COSINE</text>
  <text
     x="866.48511"
     y="698.7644"
     font-size="14.00"
     id="text30524"
     style="font-size:14px;text-anchor:middle;font-family:'Times,serif'">IMPLICATION_INDEX</text>
  <text
     x="866.48511"
     y="713.7644"
     font-size="14.00"
     id="text30526"
     style="font-size:14px;text-anchor:middle;font-family:'Times,serif'">PHI</text>
  <text
     x="866.48511"
     y="728.7644"
     font-size="14.00"
     id="text30528"
     style="font-size:14px;text-anchor:middle;font-family:'Times,serif'">GINI</text>
  <text
     x="866.48511"
     y="743.7644"
     font-size="14.00"
     id="text30530"
     style="font-size:14px;text-anchor:middle;font-family:'Times,serif'">CHI_SQUARE</text>
  <g
     class="edge"
     id="edge13"
     transform="translate(46.639095,768.75431)">
    <title
       id="title30533">n27 (0.88 - 6)-&gt;COSINE\nIMPLICATION_INDEX\nPHI\nGINI\nCHI_SQUARE</title>
    <path
       style="fill:none;stroke:#000000"
       inkscape:connector-curvature="0"
       id="path30535"
       d="m 662.795,-173.895 c 21.077,15.327 54.104,39.344 84.444,61.406" />
    <polygon
       style="fill:#000000;stroke:#000000"
       id="polygon30537"
       points="749.683,-115.039 749.683,-115.039 755.713,-106.327 745.567,-109.377 " />
  </g>
  <ellipse
     cx="610.84601"
     cy="-460.909"
     rx="124.402"
     ry="26.7407"
     id="ellipse30542"
     d="m 735.24801,-460.909 c 0,14.76848 -55.69667,26.7407 -124.402,26.7407 -68.70533,0 -124.402,-11.97222 -124.402,-26.7407 0,-14.76848 55.69667,-26.7407 124.402,-26.7407 68.70533,0 124.402,11.97222 124.402,26.7407 z"
     sodipodi:cx="610.84601"
     sodipodi:cy="-460.909"
     sodipodi:rx="124.402"
     sodipodi:ry="26.7407"
     style="fill:#ffaaaa;stroke:#000000"
     transform="translate(4,877.484)" />
  <text
     x="614.84601"
     y="412.77499"
     font-size="14.00"
     id="text30544"
     style="font-size:14px;text-anchor:middle;font-family:'Times,serif'">LEAST_CONTRADICTION</text>
  <text
     x="614.84601"
     y="427.77499"
     font-size="14.00"
     id="text30546"
     style="font-size:14px;text-anchor:middle;font-family:'Times,serif'">ACCURACY</text>
  <g
     class="edge"
     id="edge15"
     transform="translate(4,877.484)">
    <title
       id="title30549">n32 (0.50 - 20)-&gt;LEAST_CONTRADICTION\nACCURACY</title>
    <path
       style="fill:none;stroke:#000000"
       inkscape:connector-curvature="0"
       id="path30551"
       d="m 610.846,-693.399 c 0,40.105 0,140.981 0,195.381" />
    <polygon
       style="fill:#000000;stroke:#000000"
       id="polygon30553"
       points="607.346,-497.789 614.346,-497.789 614.346,-497.789 610.846,-487.789 " />
  </g>
  <ellipse
     cx="890.84601"
     cy="-460.909"
     rx="137.358"
     ry="196.651"
     id="ellipse30558"
     d="m 1028.204,-460.909 c 0,108.60735 -61.49726,196.651 -137.35799,196.651 -75.86073,0 -137.358,-88.04365 -137.358,-196.651 0,-108.60735 61.49727,-196.651 137.358,-196.651 75.86073,0 137.35799,88.04365 137.35799,196.651 z"
     sodipodi:cx="890.84601"
     sodipodi:cy="-460.909"
     sodipodi:rx="137.358"
     sodipodi:ry="196.651"
     style="fill:#ffffaa;stroke:#000000"
     transform="translate(4,877.484)" />
  <text
     x="894.84601"
     y="292.77502"
     font-size="14.00"
     id="text30560"
     style="font-size:14px;text-anchor:middle;font-family:'Times,serif'">RELATIVE_RISK</text>
  <text
     x="894.84601"
     y="307.77502"
     font-size="14.00"
     id="text30562"
     style="font-size:14px;text-anchor:middle;font-family:'Times,serif'">YULE_Y</text>
  <text
     x="894.84601"
     y="322.77502"
     font-size="14.00"
     id="text30564"
     style="font-size:14px;text-anchor:middle;font-family:'Times,serif'">YULE_Q</text>
  <text
     x="894.84601"
     y="337.77502"
     font-size="14.00"
     id="text30566"
     style="font-size:14px;text-anchor:middle;font-family:'Times,serif'">ODDS_RATIO</text>
  <text
     x="894.84601"
     y="352.77502"
     font-size="14.00"
     id="text30568"
     style="font-size:14px;text-anchor:middle;font-family:'Times,serif'">LEVERAGE</text>
  <text
     x="894.84601"
     y="367.77499"
     font-size="14.00"
     id="text30570"
     style="font-size:14px;text-anchor:middle;font-family:'Times,serif'">ONE_WAY_SUPPORT</text>
  <text
     x="894.84601"
     y="382.77499"
     font-size="14.00"
     id="text30572"
     style="font-size:14px;text-anchor:middle;font-family:'Times,serif'">ODD_MULTIPLIER</text>
  <text
     x="894.84601"
     y="397.77499"
     font-size="14.00"
     id="text30574"
     style="font-size:14px;text-anchor:middle;font-family:'Times,serif'">LOEVINGER</text>
  <text
     x="894.84601"
     y="412.77499"
     font-size="14.00"
     id="text30576"
     style="font-size:14px;text-anchor:middle;font-family:'Times,serif'">SEBAG_SCHOENAUER</text>
  <text
     x="894.84601"
     y="427.77499"
     font-size="14.00"
     id="text30578"
     style="font-size:14px;text-anchor:middle;font-family:'Times,serif'">CONVICTION</text>
  <text
     x="894.84601"
     y="442.77499"
     font-size="14.00"
     id="text30580"
     style="font-size:14px;text-anchor:middle;font-family:'Times,serif'">COUNTER_EXAMPLE_RATE</text>
  <text
     x="894.84601"
     y="457.77499"
     font-size="14.00"
     id="text30582"
     style="font-size:14px;text-anchor:middle;font-family:'Times,serif'">ZHANG</text>
  <text
     x="894.84601"
     y="472.77499"
     font-size="14.00"
     id="text30584"
     style="font-size:14px;text-anchor:middle;font-family:'Times,serif'">BAYES</text>
  <text
     x="894.84601"
     y="487.77499"
     font-size="14.00"
     id="text30586"
     style="font-size:14px;text-anchor:middle;font-family:'Times,serif'">CENTERED_CONFIDENCE</text>
  <text
     x="894.84601"
     y="502.77499"
     font-size="14.00"
     id="text30588"
     style="font-size:14px;text-anchor:middle;font-family:'Times,serif'">CERTAINTY_FACTOR</text>
  <text
     x="894.84601"
     y="517.77496"
     font-size="14.00"
     id="text30590"
     style="font-size:14px;text-anchor:middle;font-family:'Times,serif'">ADDED_VALUE</text>
  <text
     x="894.84601"
     y="532.77496"
     font-size="14.00"
     id="text30592"
     style="font-size:14px;text-anchor:middle;font-family:'Times,serif'">LIFT</text>
  <text
     x="894.84601"
     y="547.77496"
     font-size="14.00"
     id="text30594"
     style="font-size:14px;text-anchor:middle;font-family:'Times,serif'">CONFIDENCE</text>
  <g
     class="edge"
     id="edge16"
     transform="translate(4,877.484)">
    <title
       id="title30597">n32 (0.50 - 20)-&gt;RELATIVE_RISK\nYULE_Y\nYULE_Q\nODDS_RATIO\nLEVERAGE\nONE_WAY_SUPPORT\nODD_MULTIPLIER\nLOEVINGER\nSEBAG_SCHOENAUER\nCONVICTION\nCOUNTER_EXAMPLE_RATE\nZHANG\nBAYES\nCENTERED_CONFIDENCE\nCERTAINTY_FACTOR\nADDED_VALUE\nLIFT\nCONFIDENCE</title>
    <path
       style="fill:none;stroke:#000000"
       inkscape:connector-curvature="0"
       id="path30599"
       d="m 657.132,-698.868 c 27.148,8.397 61.044,21.758 86.714,41.384 16.826,12.863 32.674,28.136 47.287,44.391" />
    <polygon
       style="fill:#000000;stroke:#000000"
       id="polygon30601"
       points="788.526,-610.757 793.782,-615.381 793.782,-615.381 797.759,-605.561 " />
  </g>
</svg>
