<?xml version="1.0" encoding="UTF-8" standalone="no"?>
<!DOCTYPE svg PUBLIC "-//W3C//DTD SVG 1.1//EN"
 "http://www.w3.org/Graphics/SVG/1.1/DTD/svg11.dtd">
<!-- Generated by graphviz version 2.38.0 (20140413.2041)
 -->
<!-- Title: dendrogram Pages: 1 -->
<svg width="1798pt" height="763pt"
 viewBox="0.00 0.00 1798.22 762.57" xmlns="http://www.w3.org/2000/svg" xmlns:xlink="http://www.w3.org/1999/xlink">
<g id="graph0" class="graph" transform="scale(1 1) rotate(0) translate(4 758.566)">
<title>dendrogram</title>
<polygon fill="white" stroke="none" points="-4,4 -4,-758.566 1794.22,-758.566 1794.22,4 -4,4"/>
<!-- n34 (0.05 &#45; 36) -->
<g id="node1" class="node"><title>n34 (0.05 &#45; 36)</title>
<ellipse fill="none" stroke="black" cx="644.044" cy="-736.566" rx="64.189" ry="18"/>
<text text-anchor="middle" x="644.044" y="-732.866" font-family="Times,serif" font-size="14.00">n34 (0.05 &#45; 36)</text>
</g>
<!-- ACCURACY -->
<g id="node2" class="node"><title>ACCURACY</title>
<ellipse fill="none" stroke="black" cx="573.044" cy="-664.566" rx="59.5901" ry="18"/>
<text text-anchor="middle" x="573.044" y="-660.866" font-family="Times,serif" font-size="14.00">ACCURACY</text>
</g>
<!-- n34 (0.05 &#45; 36)&#45;&gt;ACCURACY -->
<g id="edge1" class="edge"><title>n34 (0.05 &#45; 36)&#45;&gt;ACCURACY</title>
<path fill="none" stroke="black" d="M627.218,-718.977C618.199,-710.085 606.932,-698.976 597.013,-689.196"/>
<polygon fill="black" stroke="black" points="599.328,-686.564 589.75,-682.036 594.413,-691.549 599.328,-686.564"/>
</g>
<!-- n33 (0.11 &#45; 35) -->
<g id="node3" class="node"><title>n33 (0.11 &#45; 35)</title>
<ellipse fill="none" stroke="black" cx="715.044" cy="-664.566" rx="64.189" ry="18"/>
<text text-anchor="middle" x="715.044" y="-660.866" font-family="Times,serif" font-size="14.00">n33 (0.11 &#45; 35)</text>
</g>
<!-- n34 (0.05 &#45; 36)&#45;&gt;n33 (0.11 &#45; 35) -->
<g id="edge2" class="edge"><title>n34 (0.05 &#45; 36)&#45;&gt;n33 (0.11 &#45; 35)</title>
<path fill="none" stroke="black" d="M660.87,-718.977C669.889,-710.085 681.156,-698.976 691.076,-689.196"/>
<polygon fill="black" stroke="black" points="693.675,-691.549 698.339,-682.036 688.761,-686.564 693.675,-691.549"/>
</g>
<!-- n32 (0.32 &#45; 7) -->
<g id="node4" class="node"><title>n32 (0.32 &#45; 7)</title>
<ellipse fill="none" stroke="black" cx="485.044" cy="-592.566" rx="59.5901" ry="18"/>
<text text-anchor="middle" x="485.044" y="-588.866" font-family="Times,serif" font-size="14.00">n32 (0.32 &#45; 7)</text>
</g>
<!-- n33 (0.11 &#45; 35)&#45;&gt;n32 (0.32 &#45; 7) -->
<g id="edge3" class="edge"><title>n33 (0.11 &#45; 35)&#45;&gt;n32 (0.32 &#45; 7)</title>
<path fill="none" stroke="black" d="M673.126,-650.808C634.261,-638.979 576.382,-621.364 535.105,-608.802"/>
<polygon fill="black" stroke="black" points="536.103,-605.447 525.517,-605.883 534.064,-612.143 536.103,-605.447"/>
</g>
<!-- n31 (0.39 &#45; 28) -->
<g id="node15" class="node"><title>n31 (0.39 &#45; 28)</title>
<ellipse fill="none" stroke="black" cx="945.044" cy="-592.566" rx="64.189" ry="18"/>
<text text-anchor="middle" x="945.044" y="-588.866" font-family="Times,serif" font-size="14.00">n31 (0.39 &#45; 28)</text>
</g>
<!-- n33 (0.11 &#45; 35)&#45;&gt;n31 (0.39 &#45; 28) -->
<g id="edge14" class="edge"><title>n33 (0.11 &#45; 35)&#45;&gt;n31 (0.39 &#45; 28)</title>
<path fill="none" stroke="black" d="M756.963,-650.808C795.348,-639.125 852.281,-621.798 893.447,-609.269"/>
<polygon fill="black" stroke="black" points="894.478,-612.614 903.026,-606.354 892.44,-605.917 894.478,-612.614"/>
</g>
<!-- n30 (0.49 &#45; 3) -->
<g id="node5" class="node"><title>n30 (0.49 &#45; 3)</title>
<ellipse fill="none" stroke="black" cx="204.044" cy="-520.566" rx="59.5901" ry="18"/>
<text text-anchor="middle" x="204.044" y="-516.866" font-family="Times,serif" font-size="14.00">n30 (0.49 &#45; 3)</text>
</g>
<!-- n32 (0.32 &#45; 7)&#45;&gt;n30 (0.49 &#45; 3) -->
<g id="edge4" class="edge"><title>n32 (0.32 &#45; 7)&#45;&gt;n30 (0.49 &#45; 3)</title>
<path fill="none" stroke="black" d="M440.519,-580.474C391.234,-568.196 311.767,-548.4 258.735,-535.19"/>
<polygon fill="black" stroke="black" points="259.375,-531.742 248.826,-532.721 257.683,-538.535 259.375,-531.742"/>
</g>
<!-- n26 (0.76 &#45; 4) -->
<g id="node10" class="node"><title>n26 (0.76 &#45; 4)</title>
<ellipse fill="none" stroke="black" cx="485.044" cy="-520.566" rx="59.5901" ry="18"/>
<text text-anchor="middle" x="485.044" y="-516.866" font-family="Times,serif" font-size="14.00">n26 (0.76 &#45; 4)</text>
</g>
<!-- n32 (0.32 &#45; 7)&#45;&gt;n26 (0.76 &#45; 4) -->
<g id="edge9" class="edge"><title>n32 (0.32 &#45; 7)&#45;&gt;n26 (0.76 &#45; 4)</title>
<path fill="none" stroke="black" d="M485.044,-574.262C485.044,-566.548 485.044,-557.278 485.044,-548.678"/>
<polygon fill="black" stroke="black" points="488.545,-548.67 485.044,-538.67 481.545,-548.67 488.545,-548.67"/>
</g>
<!-- SPECIFICITY -->
<g id="node6" class="node"><title>SPECIFICITY</title>
<ellipse fill="none" stroke="black" cx="63.0444" cy="-429.089" rx="63.0888" ry="18"/>
<text text-anchor="middle" x="63.0444" y="-425.389" font-family="Times,serif" font-size="14.00">SPECIFICITY</text>
</g>
<!-- n30 (0.49 &#45; 3)&#45;&gt;SPECIFICITY -->
<g id="edge5" class="edge"><title>n30 (0.49 &#45; 3)&#45;&gt;SPECIFICITY</title>
<path fill="none" stroke="black" d="M179.484,-503.98C156.475,-489.379 121.903,-467.44 96.4036,-451.258"/>
<polygon fill="black" stroke="black" points="98.1151,-448.199 87.7964,-445.796 94.3645,-454.109 98.1151,-448.199"/>
</g>
<!-- n28 (0.63 &#45; 2) -->
<g id="node7" class="node"><title>n28 (0.63 &#45; 2)</title>
<ellipse fill="none" stroke="black" cx="204.044" cy="-429.089" rx="59.5901" ry="18"/>
<text text-anchor="middle" x="204.044" y="-425.389" font-family="Times,serif" font-size="14.00">n28 (0.63 &#45; 2)</text>
</g>
<!-- n30 (0.49 &#45; 3)&#45;&gt;n28 (0.63 &#45; 2) -->
<g id="edge6" class="edge"><title>n30 (0.49 &#45; 3)&#45;&gt;n28 (0.63 &#45; 2)</title>
<path fill="none" stroke="black" d="M204.044,-502.314C204.044,-489.564 204.044,-471.952 204.044,-457.311"/>
<polygon fill="black" stroke="black" points="207.545,-457.288 204.044,-447.288 200.545,-457.288 207.545,-457.288"/>
</g>
<!-- COLLECTIVE_STRENGH -->
<g id="node8" class="node"><title>COLLECTIVE_STRENGH</title>
<ellipse fill="none" stroke="black" cx="135.044" cy="-243.889" rx="109.681" ry="18"/>
<text text-anchor="middle" x="135.044" y="-240.189" font-family="Times,serif" font-size="14.00">COLLECTIVE_STRENGH</text>
</g>
<!-- n28 (0.63 &#45; 2)&#45;&gt;COLLECTIVE_STRENGH -->
<g id="edge7" class="edge"><title>n28 (0.63 &#45; 2)&#45;&gt;COLLECTIVE_STRENGH</title>
<path fill="none" stroke="black" d="M197.677,-411.182C185.641,-379.226 159.471,-309.743 145.06,-271.482"/>
<polygon fill="black" stroke="black" points="148.297,-270.146 141.497,-262.021 141.746,-272.613 148.297,-270.146"/>
</g>
<!-- RECALL -->
<g id="node9" class="node"><title>RECALL</title>
<ellipse fill="none" stroke="black" cx="308.044" cy="-243.889" rx="44.6926" ry="18"/>
<text text-anchor="middle" x="308.044" y="-240.189" font-family="Times,serif" font-size="14.00">RECALL</text>
</g>
<!-- n28 (0.63 &#45; 2)&#45;&gt;RECALL -->
<g id="edge8" class="edge"><title>n28 (0.63 &#45; 2)&#45;&gt;RECALL</title>
<path fill="none" stroke="black" d="M216.712,-411.284C227.298,-396.89 242.476,-375.41 254.044,-355.612 270.399,-327.624 286.317,-293.964 296.583,-271.16"/>
<polygon fill="black" stroke="black" points="299.879,-272.362 300.751,-261.803 293.485,-269.513 299.879,-272.362"/>
</g>
<!-- PIATETSKY_SHAPIRO\nJACCARD -->
<g id="node11" class="node"><title>PIATETSKY_SHAPIRO\nJACCARD</title>
<ellipse fill="none" stroke="black" cx="391.044" cy="-429.089" rx="109.703" ry="26.7407"/>
<text text-anchor="middle" x="391.044" y="-432.889" font-family="Times,serif" font-size="14.00">PIATETSKY_SHAPIRO</text>
<text text-anchor="middle" x="391.044" y="-417.889" font-family="Times,serif" font-size="14.00">JACCARD</text>
</g>
<!-- n26 (0.76 &#45; 4)&#45;&gt;PIATETSKY_SHAPIRO\nJACCARD -->
<g id="edge10" class="edge"><title>n26 (0.76 &#45; 4)&#45;&gt;PIATETSKY_SHAPIRO\nJACCARD</title>
<path fill="none" stroke="black" d="M467.803,-503.154C455.798,-491.726 439.391,-476.109 424.827,-462.246"/>
<polygon fill="black" stroke="black" points="427.069,-459.548 417.412,-455.188 422.242,-464.618 427.069,-459.548"/>
</g>
<!-- n25 (0.78 &#45; 2) -->
<g id="node12" class="node"><title>n25 (0.78 &#45; 2)</title>
<ellipse fill="none" stroke="black" cx="578.044" cy="-429.089" rx="59.5901" ry="18"/>
<text text-anchor="middle" x="578.044" y="-425.389" font-family="Times,serif" font-size="14.00">n25 (0.78 &#45; 2)</text>
</g>
<!-- n26 (0.76 &#45; 4)&#45;&gt;n25 (0.78 &#45; 2) -->
<g id="edge11" class="edge"><title>n26 (0.76 &#45; 4)&#45;&gt;n25 (0.78 &#45; 2)</title>
<path fill="none" stroke="black" d="M502.102,-503.154C516.523,-489.28 537.361,-469.231 553.562,-453.644"/>
<polygon fill="black" stroke="black" points="556.315,-455.852 561.095,-446.396 551.462,-450.807 556.315,-455.852"/>
</g>
<!-- TWO_WAY_SUPPORT -->
<g id="node13" class="node"><title>TWO_WAY_SUPPORT</title>
<ellipse fill="none" stroke="black" cx="490.044" cy="-243.889" rx="100.182" ry="18"/>
<text text-anchor="middle" x="490.044" y="-240.189" font-family="Times,serif" font-size="14.00">TWO_WAY_SUPPORT</text>
</g>
<!-- n25 (0.78 &#45; 2)&#45;&gt;TWO_WAY_SUPPORT -->
<g id="edge12" class="edge"><title>n25 (0.78 &#45; 2)&#45;&gt;TWO_WAY_SUPPORT</title>
<path fill="none" stroke="black" d="M569.923,-411.182C554.573,-379.226 521.197,-309.743 502.818,-271.482"/>
<polygon fill="black" stroke="black" points="505.759,-269.52 498.274,-262.021 499.449,-272.551 505.759,-269.52"/>
</g>
<!-- KAPPA -->
<g id="node14" class="node"><title>KAPPA</title>
<ellipse fill="none" stroke="black" cx="648.044" cy="-243.889" rx="39.7935" ry="18"/>
<text text-anchor="middle" x="648.044" y="-240.189" font-family="Times,serif" font-size="14.00">KAPPA</text>
</g>
<!-- n25 (0.78 &#45; 2)&#45;&gt;KAPPA -->
<g id="edge13" class="edge"><title>n25 (0.78 &#45; 2)&#45;&gt;KAPPA</title>
<path fill="none" stroke="black" d="M584.504,-411.182C596.746,-379.145 623.399,-309.389 637.995,-271.19"/>
<polygon fill="black" stroke="black" points="641.3,-272.346 641.6,-261.755 634.761,-269.847 641.3,-272.346"/>
</g>
<!-- n27 (0.65 &#45; 9) -->
<g id="node16" class="node"><title>n27 (0.65 &#45; 9)</title>
<ellipse fill="none" stroke="black" cx="945.044" cy="-520.566" rx="59.5901" ry="18"/>
<text text-anchor="middle" x="945.044" y="-516.866" font-family="Times,serif" font-size="14.00">n27 (0.65 &#45; 9)</text>
</g>
<!-- n31 (0.39 &#45; 28)&#45;&gt;n27 (0.65 &#45; 9) -->
<g id="edge15" class="edge"><title>n31 (0.39 &#45; 28)&#45;&gt;n27 (0.65 &#45; 9)</title>
<path fill="none" stroke="black" d="M945.044,-574.262C945.044,-566.548 945.044,-557.278 945.044,-548.678"/>
<polygon fill="black" stroke="black" points="948.545,-548.67 945.044,-538.67 941.545,-548.67 948.545,-548.67"/>
</g>
<!-- n29 (0.55 &#45; 19) -->
<g id="node23" class="node"><title>n29 (0.55 &#45; 19)</title>
<ellipse fill="none" stroke="black" cx="1260.04" cy="-520.566" rx="64.189" ry="18"/>
<text text-anchor="middle" x="1260.04" y="-516.866" font-family="Times,serif" font-size="14.00">n29 (0.55 &#45; 19)</text>
</g>
<!-- n31 (0.39 &#45; 28)&#45;&gt;n29 (0.55 &#45; 19) -->
<g id="edge22" class="edge"><title>n31 (0.39 &#45; 28)&#45;&gt;n29 (0.55 &#45; 19)</title>
<path fill="none" stroke="black" d="M993.918,-580.705C1049.87,-568.272 1141.48,-547.914 1201.27,-534.626"/>
<polygon fill="black" stroke="black" points="1202.31,-537.98 1211.32,-532.394 1200.79,-531.147 1202.31,-537.98"/>
</g>
<!-- J_MEASURE\nTWO_WAY_SUPPORT_VARIATION\nFISHER_PVAL -->
<g id="node17" class="node"><title>J_MEASURE\nTWO_WAY_SUPPORT_VARIATION\nFISHER_PVAL</title>
<ellipse fill="none" stroke="black" cx="823.044" cy="-429.089" rx="166.754" ry="37.4533"/>
<text text-anchor="middle" x="823.044" y="-440.389" font-family="Times,serif" font-size="14.00">J_MEASURE</text>
<text text-anchor="middle" x="823.044" y="-425.389" font-family="Times,serif" font-size="14.00">TWO_WAY_SUPPORT_VARIATION</text>
<text text-anchor="middle" x="823.044" y="-410.389" font-family="Times,serif" font-size="14.00">FISHER_PVAL</text>
</g>
<!-- n27 (0.65 &#45; 9)&#45;&gt;J_MEASURE\nTWO_WAY_SUPPORT_VARIATION\nFISHER_PVAL -->
<g id="edge16" class="edge"><title>n27 (0.65 &#45; 9)&#45;&gt;J_MEASURE\nTWO_WAY_SUPPORT_VARIATION\nFISHER_PVAL</title>
<path fill="none" stroke="black" d="M923.233,-503.569C910.802,-494.451 894.604,-482.572 878.869,-471.032"/>
<polygon fill="black" stroke="black" points="880.839,-468.136 870.706,-465.044 876.699,-473.781 880.839,-468.136"/>
</g>
<!-- n24 (0.80 &#45; 6) -->
<g id="node18" class="node"><title>n24 (0.80 &#45; 6)</title>
<ellipse fill="none" stroke="black" cx="1068.04" cy="-429.089" rx="59.5901" ry="18"/>
<text text-anchor="middle" x="1068.04" y="-425.389" font-family="Times,serif" font-size="14.00">n24 (0.80 &#45; 6)</text>
</g>
<!-- n27 (0.65 &#45; 9)&#45;&gt;n24 (0.80 &#45; 6) -->
<g id="edge17" class="edge"><title>n27 (0.65 &#45; 9)&#45;&gt;n24 (0.80 &#45; 6)</title>
<path fill="none" stroke="black" d="M966.751,-503.775C986.478,-489.425 1015.78,-468.111 1037.8,-452.093"/>
<polygon fill="black" stroke="black" points="1040.11,-454.736 1046.14,-446.023 1036,-449.075 1040.11,-454.736"/>
</g>
<!-- KLOSGEN -->
<g id="node19" class="node"><title>KLOSGEN</title>
<ellipse fill="none" stroke="black" cx="992.044" cy="-243.889" rx="51.9908" ry="18"/>
<text text-anchor="middle" x="992.044" y="-240.189" font-family="Times,serif" font-size="14.00">KLOSGEN</text>
</g>
<!-- n24 (0.80 &#45; 6)&#45;&gt;KLOSGEN -->
<g id="edge18" class="edge"><title>n24 (0.80 &#45; 6)&#45;&gt;KLOSGEN</title>
<path fill="none" stroke="black" d="M1061.03,-411.182C1047.74,-379.145 1018.8,-309.389 1002.96,-271.19"/>
<polygon fill="black" stroke="black" points="1006.11,-269.651 999.041,-261.755 999.64,-272.333 1006.11,-269.651"/>
</g>
<!-- n23 (0.82 &#45; 5) -->
<g id="node20" class="node"><title>n23 (0.82 &#45; 5)</title>
<ellipse fill="none" stroke="black" cx="1122.04" cy="-243.889" rx="59.5901" ry="18"/>
<text text-anchor="middle" x="1122.04" y="-240.189" font-family="Times,serif" font-size="14.00">n23 (0.82 &#45; 5)</text>
</g>
<!-- n24 (0.80 &#45; 6)&#45;&gt;n23 (0.82 &#45; 5) -->
<g id="edge19" class="edge"><title>n24 (0.80 &#45; 6)&#45;&gt;n23 (0.82 &#45; 5)</title>
<path fill="none" stroke="black" d="M1073.12,-410.854C1082.56,-378.857 1102.83,-310.061 1114.1,-271.854"/>
<polygon fill="black" stroke="black" points="1117.55,-272.527 1117.02,-261.945 1110.83,-270.547 1117.55,-272.527"/>
</g>
<!-- COSINE -->
<g id="node21" class="node"><title>COSINE</title>
<ellipse fill="none" stroke="black" cx="1037.04" cy="-48.0833" rx="42.4939" ry="18"/>
<text text-anchor="middle" x="1037.04" y="-44.3833" font-family="Times,serif" font-size="14.00">COSINE</text>
</g>
<!-- n23 (0.82 &#45; 5)&#45;&gt;COSINE -->
<g id="edge20" class="edge"><title>n23 (0.82 &#45; 5)&#45;&gt;COSINE</title>
<path fill="none" stroke="black" d="M1114.5,-225.69C1099.56,-191.628 1066.13,-115.41 1048.48,-75.1487"/>
<polygon fill="black" stroke="black" points="1051.67,-73.7191 1044.45,-65.967 1045.26,-76.5307 1051.67,-73.7191"/>
</g>
<!-- PHI\nCHI_SQUARE\nGINI\nIMPLICATION_INDEX -->
<g id="node22" class="node"><title>PHI\nCHI_SQUARE\nGINI\nIMPLICATION_INDEX</title>
<ellipse fill="none" stroke="black" cx="1206.04" cy="-48.0833" rx="108.789" ry="48.1667"/>
<text text-anchor="middle" x="1206.04" y="-66.8833" font-family="Times,serif" font-size="14.00">PHI</text>
<text text-anchor="middle" x="1206.04" y="-51.8833" font-family="Times,serif" font-size="14.00">CHI_SQUARE</text>
<text text-anchor="middle" x="1206.04" y="-36.8833" font-family="Times,serif" font-size="14.00">GINI</text>
<text text-anchor="middle" x="1206.04" y="-21.8833" font-family="Times,serif" font-size="14.00">IMPLICATION_INDEX</text>
</g>
<!-- n23 (0.82 &#45; 5)&#45;&gt;PHI\nCHI_SQUARE\nGINI\nIMPLICATION_INDEX -->
<g id="edge21" class="edge"><title>n23 (0.82 &#45; 5)&#45;&gt;PHI\nCHI_SQUARE\nGINI\nIMPLICATION_INDEX</title>
<path fill="none" stroke="black" d="M1129.5,-225.69C1141.12,-198.875 1164.07,-145.935 1181.82,-104.978"/>
<polygon fill="black" stroke="black" points="1185.1,-106.21 1185.86,-95.6433 1178.68,-103.427 1185.1,-106.21"/>
</g>
<!-- LEAST_CONTRADICTION -->
<g id="node24" class="node"><title>LEAST_CONTRADICTION</title>
<ellipse fill="none" stroke="black" cx="1260.04" cy="-429.089" rx="114.28" ry="18"/>
<text text-anchor="middle" x="1260.04" y="-425.389" font-family="Times,serif" font-size="14.00">LEAST_CONTRADICTION</text>
</g>
<!-- n29 (0.55 &#45; 19)&#45;&gt;LEAST_CONTRADICTION -->
<g id="edge23" class="edge"><title>n29 (0.55 &#45; 19)&#45;&gt;LEAST_CONTRADICTION</title>
<path fill="none" stroke="black" d="M1260.04,-502.314C1260.04,-489.564 1260.04,-471.952 1260.04,-457.311"/>
<polygon fill="black" stroke="black" points="1263.54,-457.288 1260.04,-447.288 1256.54,-457.288 1263.54,-457.288"/>
</g>
<!-- n22 (0.82 &#45; 18) -->
<g id="node25" class="node"><title>n22 (0.82 &#45; 18)</title>
<ellipse fill="none" stroke="black" cx="1457.04" cy="-429.089" rx="64.189" ry="18"/>
<text text-anchor="middle" x="1457.04" y="-425.389" font-family="Times,serif" font-size="14.00">n22 (0.82 &#45; 18)</text>
</g>
<!-- n29 (0.55 &#45; 19)&#45;&gt;n22 (0.82 &#45; 18) -->
<g id="edge24" class="edge"><title>n29 (0.55 &#45; 19)&#45;&gt;n22 (0.82 &#45; 18)</title>
<path fill="none" stroke="black" d="M1294.45,-505.295C1319.23,-494.883 1353.38,-480.256 1383.04,-466.566 1394.53,-461.267 1406.89,-455.285 1418.16,-449.721"/>
<polygon fill="black" stroke="black" points="1419.93,-452.751 1427.33,-445.169 1416.81,-446.481 1419.93,-452.751"/>
</g>
<!-- YULE_Y\nYULE_Q\nODDS_RATIO\nRELATIVE_RISK\nODD_MULTIPLIER\nZHANG\nBAYES\nLIFT -->
<g id="node26" class="node"><title>YULE_Y\nYULE_Q\nODDS_RATIO\nRELATIVE_RISK\nODD_MULTIPLIER\nZHANG\nBAYES\nLIFT</title>
<ellipse fill="none" stroke="black" cx="1403.04" cy="-243.889" rx="94.5053" ry="90.5193"/>
<text text-anchor="middle" x="1403.04" y="-292.689" font-family="Times,serif" font-size="14.00">YULE_Y</text>
<text text-anchor="middle" x="1403.04" y="-277.689" font-family="Times,serif" font-size="14.00">YULE_Q</text>
<text text-anchor="middle" x="1403.04" y="-262.689" font-family="Times,serif" font-size="14.00">ODDS_RATIO</text>
<text text-anchor="middle" x="1403.04" y="-247.689" font-family="Times,serif" font-size="14.00">RELATIVE_RISK</text>
<text text-anchor="middle" x="1403.04" y="-232.689" font-family="Times,serif" font-size="14.00">ODD_MULTIPLIER</text>
<text text-anchor="middle" x="1403.04" y="-217.689" font-family="Times,serif" font-size="14.00">ZHANG</text>
<text text-anchor="middle" x="1403.04" y="-202.689" font-family="Times,serif" font-size="14.00">BAYES</text>
<text text-anchor="middle" x="1403.04" y="-187.689" font-family="Times,serif" font-size="14.00">LIFT</text>
</g>
<!-- n22 (0.82 &#45; 18)&#45;&gt;YULE_Y\nYULE_Q\nODDS_RATIO\nRELATIVE_RISK\nODD_MULTIPLIER\nZHANG\nBAYES\nLIFT -->
<g id="edge25" class="edge"><title>n22 (0.82 &#45; 18)&#45;&gt;YULE_Y\nYULE_Q\nODDS_RATIO\nRELATIVE_RISK\nODD_MULTIPLIER\nZHANG\nBAYES\nLIFT</title>
<path fill="none" stroke="black" d="M1451.96,-410.854C1447.1,-394.353 1439.35,-368.066 1431.44,-341.235"/>
<polygon fill="black" stroke="black" points="1434.71,-339.945 1428.53,-331.342 1428,-341.924 1434.71,-339.945"/>
</g>
<!-- ONE_WAY_SUPPORT\nCONVICTION\nLOEVINGER\nSEBAG_SCHOENAUER\nCOUNTER_EXAMPLE_RATE\nCENTERED_CONFIDENCE\nCERTAINTY_FACTOR\nADDED_VALUE\nLEVERAGE\nCONFIDENCE -->
<g id="node27" class="node"><title>ONE_WAY_SUPPORT\nCONVICTION\nLOEVINGER\nSEBAG_SCHOENAUER\nCOUNTER_EXAMPLE_RATE\nCENTERED_CONFIDENCE\nCERTAINTY_FACTOR\nADDED_VALUE\nLEVERAGE\nCONFIDENCE</title>
<ellipse fill="none" stroke="black" cx="1653.04" cy="-243.889" rx="137.358" ry="111.946"/>
<text text-anchor="middle" x="1653.04" y="-307.689" font-family="Times,serif" font-size="14.00">ONE_WAY_SUPPORT</text>
<text text-anchor="middle" x="1653.04" y="-292.689" font-family="Times,serif" font-size="14.00">CONVICTION</text>
<text text-anchor="middle" x="1653.04" y="-277.689" font-family="Times,serif" font-size="14.00">LOEVINGER</text>
<text text-anchor="middle" x="1653.04" y="-262.689" font-family="Times,serif" font-size="14.00">SEBAG_SCHOENAUER</text>
<text text-anchor="middle" x="1653.04" y="-247.689" font-family="Times,serif" font-size="14.00">COUNTER_EXAMPLE_RATE</text>
<text text-anchor="middle" x="1653.04" y="-232.689" font-family="Times,serif" font-size="14.00">CENTERED_CONFIDENCE</text>
<text text-anchor="middle" x="1653.04" y="-217.689" font-family="Times,serif" font-size="14.00">CERTAINTY_FACTOR</text>
<text text-anchor="middle" x="1653.04" y="-202.689" font-family="Times,serif" font-size="14.00">ADDED_VALUE</text>
<text text-anchor="middle" x="1653.04" y="-187.689" font-family="Times,serif" font-size="14.00">LEVERAGE</text>
<text text-anchor="middle" x="1653.04" y="-172.689" font-family="Times,serif" font-size="14.00">CONFIDENCE</text>
</g>
<!-- n22 (0.82 &#45; 18)&#45;&gt;ONE_WAY_SUPPORT\nCONVICTION\nLOEVINGER\nSEBAG_SCHOENAUER\nCOUNTER_EXAMPLE_RATE\nCENTERED_CONFIDENCE\nCERTAINTY_FACTOR\nADDED_VALUE\nLEVERAGE\nCONFIDENCE -->
<g id="edge26" class="edge"><title>n22 (0.82 &#45; 18)&#45;&gt;ONE_WAY_SUPPORT\nCONVICTION\nLOEVINGER\nSEBAG_SCHOENAUER\nCOUNTER_EXAMPLE_RATE\nCENTERED_CONFIDENCE\nCERTAINTY_FACTOR\nADDED_VALUE\nLEVERAGE\nCONFIDENCE</title>
<path fill="none" stroke="black" d="M1474.78,-411.508C1493.54,-393.977 1524.65,-364.895 1555.68,-335.893"/>
<polygon fill="black" stroke="black" points="1558.22,-338.311 1563.14,-328.925 1553.44,-333.197 1558.22,-338.311"/>
</g>
</g>
</svg>
