<?xml version="1.0" encoding="UTF-8" standalone="no"?>
<!DOCTYPE svg PUBLIC "-//W3C//DTD SVG 1.1//EN"
 "http://www.w3.org/Graphics/SVG/1.1/DTD/svg11.dtd">
<!-- Generated by graphviz version 2.38.0 (20140413.2041)
 -->
<!-- Title: dendrogram Pages: 1 -->
<svg width="2402pt" height="2140pt"
 viewBox="0.00 0.00 2402.22 2140.34" xmlns="http://www.w3.org/2000/svg" xmlns:xlink="http://www.w3.org/1999/xlink">
<g id="graph0" class="graph" transform="scale(1 1) rotate(0) translate(4 2136.34)">
<title>dendrogram</title>
<polygon fill="white" stroke="none" points="-4,4 -4,-2136.34 2398.22,-2136.34 2398.22,4 -4,4"/>
<!-- n34 (0.00 &#45; 36) -->
<g id="node1" class="node"><title>n34 (0.00 &#45; 36)</title>
<ellipse fill="none" stroke="black" cx="135.044" cy="-2114.34" rx="64.189" ry="18"/>
<text text-anchor="middle" x="135.044" y="-2110.64" font-family="Times,serif" font-size="14.00">n34 (0.00 &#45; 36)</text>
</g>
<!-- SPECIFICITY -->
<g id="node2" class="node"><title>SPECIFICITY</title>
<ellipse fill="none" stroke="black" cx="63.0444" cy="-2042.34" rx="63.0888" ry="18"/>
<text text-anchor="middle" x="63.0444" y="-2038.64" font-family="Times,serif" font-size="14.00">SPECIFICITY</text>
</g>
<!-- n34 (0.00 &#45; 36)&#45;&gt;SPECIFICITY -->
<g id="edge1" class="edge"><title>n34 (0.00 &#45; 36)&#45;&gt;SPECIFICITY</title>
<path fill="none" stroke="black" d="M117.981,-2096.75C108.835,-2087.86 97.4096,-2076.75 87.3505,-2066.97"/>
<polygon fill="black" stroke="black" points="89.5947,-2064.27 79.9849,-2059.81 84.7151,-2069.29 89.5947,-2064.27"/>
</g>
<!-- n33 (0.00 &#45; 35) -->
<g id="node3" class="node"><title>n33 (0.00 &#45; 35)</title>
<ellipse fill="none" stroke="black" cx="208.044" cy="-2042.34" rx="64.189" ry="18"/>
<text text-anchor="middle" x="208.044" y="-2038.64" font-family="Times,serif" font-size="14.00">n33 (0.00 &#45; 35)</text>
</g>
<!-- n34 (0.00 &#45; 36)&#45;&gt;n33 (0.00 &#45; 35) -->
<g id="edge2" class="edge"><title>n34 (0.00 &#45; 36)&#45;&gt;n33 (0.00 &#45; 35)</title>
<path fill="none" stroke="black" d="M152.344,-2096.75C161.617,-2087.86 173.202,-2076.75 183.401,-2066.97"/>
<polygon fill="black" stroke="black" points="186.073,-2069.26 190.869,-2059.81 181.228,-2064.21 186.073,-2069.26"/>
</g>
<!-- ACCURACY -->
<g id="node4" class="node"><title>ACCURACY</title>
<ellipse fill="none" stroke="black" cx="137.044" cy="-1970.34" rx="59.5901" ry="18"/>
<text text-anchor="middle" x="137.044" y="-1966.64" font-family="Times,serif" font-size="14.00">ACCURACY</text>
</g>
<!-- n33 (0.00 &#45; 35)&#45;&gt;ACCURACY -->
<g id="edge3" class="edge"><title>n33 (0.00 &#45; 35)&#45;&gt;ACCURACY</title>
<path fill="none" stroke="black" d="M191.218,-2024.75C182.199,-2015.86 170.932,-2004.75 161.013,-1994.97"/>
<polygon fill="black" stroke="black" points="163.328,-1992.34 153.75,-1987.81 158.413,-1997.32 163.328,-1992.34"/>
</g>
<!-- n32 (0.00 &#45; 34) -->
<g id="node5" class="node"><title>n32 (0.00 &#45; 34)</title>
<ellipse fill="none" stroke="black" cx="279.044" cy="-1970.34" rx="64.189" ry="18"/>
<text text-anchor="middle" x="279.044" y="-1966.64" font-family="Times,serif" font-size="14.00">n32 (0.00 &#45; 34)</text>
</g>
<!-- n33 (0.00 &#45; 35)&#45;&gt;n32 (0.00 &#45; 34) -->
<g id="edge4" class="edge"><title>n33 (0.00 &#45; 35)&#45;&gt;n32 (0.00 &#45; 34)</title>
<path fill="none" stroke="black" d="M224.87,-2024.75C233.889,-2015.86 245.156,-2004.75 255.076,-1994.97"/>
<polygon fill="black" stroke="black" points="257.675,-1997.32 262.339,-1987.81 252.761,-1992.34 257.675,-1997.32"/>
</g>
<!-- LIFT -->
<g id="node6" class="node"><title>LIFT</title>
<ellipse fill="none" stroke="black" cx="223.044" cy="-1898.34" rx="29.4969" ry="18"/>
<text text-anchor="middle" x="223.044" y="-1894.64" font-family="Times,serif" font-size="14.00">LIFT</text>
</g>
<!-- n32 (0.00 &#45; 34)&#45;&gt;LIFT -->
<g id="edge5" class="edge"><title>n32 (0.00 &#45; 34)&#45;&gt;LIFT</title>
<path fill="none" stroke="black" d="M265.488,-1952.4C258.378,-1943.51 249.557,-1932.48 241.801,-1922.79"/>
<polygon fill="black" stroke="black" points="244.31,-1920.32 235.33,-1914.7 238.843,-1924.69 244.31,-1920.32"/>
</g>
<!-- n31 (0.00 &#45; 33) -->
<g id="node7" class="node"><title>n31 (0.00 &#45; 33)</title>
<ellipse fill="none" stroke="black" cx="335.044" cy="-1898.34" rx="64.189" ry="18"/>
<text text-anchor="middle" x="335.044" y="-1894.64" font-family="Times,serif" font-size="14.00">n31 (0.00 &#45; 33)</text>
</g>
<!-- n32 (0.00 &#45; 34)&#45;&gt;n31 (0.00 &#45; 33) -->
<g id="edge6" class="edge"><title>n32 (0.00 &#45; 34)&#45;&gt;n31 (0.00 &#45; 33)</title>
<path fill="none" stroke="black" d="M292.6,-1952.4C299.41,-1943.88 307.79,-1933.41 315.299,-1924.02"/>
<polygon fill="black" stroke="black" points="318.099,-1926.12 321.613,-1916.13 312.633,-1921.75 318.099,-1926.12"/>
</g>
<!-- LEVERAGE -->
<g id="node8" class="node"><title>LEVERAGE</title>
<ellipse fill="none" stroke="black" cx="265.044" cy="-1826.34" rx="57.3905" ry="18"/>
<text text-anchor="middle" x="265.044" y="-1822.64" font-family="Times,serif" font-size="14.00">LEVERAGE</text>
</g>
<!-- n31 (0.00 &#45; 33)&#45;&gt;LEVERAGE -->
<g id="edge7" class="edge"><title>n31 (0.00 &#45; 33)&#45;&gt;LEVERAGE</title>
<path fill="none" stroke="black" d="M318.455,-1880.75C309.563,-1871.86 298.455,-1860.75 288.675,-1850.97"/>
<polygon fill="black" stroke="black" points="291.06,-1848.41 281.514,-1843.81 286.111,-1853.36 291.06,-1848.41"/>
</g>
<!-- n30 (0.00 &#45; 32) -->
<g id="node9" class="node"><title>n30 (0.00 &#45; 32)</title>
<ellipse fill="none" stroke="black" cx="405.044" cy="-1826.34" rx="64.189" ry="18"/>
<text text-anchor="middle" x="405.044" y="-1822.64" font-family="Times,serif" font-size="14.00">n30 (0.00 &#45; 32)</text>
</g>
<!-- n31 (0.00 &#45; 33)&#45;&gt;n30 (0.00 &#45; 32) -->
<g id="edge8" class="edge"><title>n31 (0.00 &#45; 33)&#45;&gt;n30 (0.00 &#45; 32)</title>
<path fill="none" stroke="black" d="M351.633,-1880.75C360.525,-1871.86 371.634,-1860.75 381.414,-1850.97"/>
<polygon fill="black" stroke="black" points="383.978,-1853.36 388.574,-1843.81 379.028,-1848.41 383.978,-1853.36"/>
</g>
<!-- CENTERED_CONFIDENCE\nADDED_VALUE -->
<g id="node10" class="node"><title>CENTERED_CONFIDENCE\nADDED_VALUE</title>
<ellipse fill="none" stroke="black" cx="301.044" cy="-1745.47" rx="126.644" ry="26.7407"/>
<text text-anchor="middle" x="301.044" y="-1749.27" font-family="Times,serif" font-size="14.00">CENTERED_CONFIDENCE</text>
<text text-anchor="middle" x="301.044" y="-1734.27" font-family="Times,serif" font-size="14.00">ADDED_VALUE</text>
</g>
<!-- n30 (0.00 &#45; 32)&#45;&gt;CENTERED_CONFIDENCE\nADDED_VALUE -->
<g id="edge9" class="edge"><title>n30 (0.00 &#45; 32)&#45;&gt;CENTERED_CONFIDENCE\nADDED_VALUE</title>
<path fill="none" stroke="black" d="M383.747,-1809.19C371.825,-1800.15 356.548,-1788.56 342.375,-1777.81"/>
<polygon fill="black" stroke="black" points="344.275,-1774.86 334.192,-1771.61 340.045,-1780.44 344.275,-1774.86"/>
</g>
<!-- n29 (0.00 &#45; 30) -->
<g id="node11" class="node"><title>n29 (0.00 &#45; 30)</title>
<ellipse fill="none" stroke="black" cx="510.044" cy="-1745.47" rx="64.189" ry="18"/>
<text text-anchor="middle" x="510.044" y="-1741.77" font-family="Times,serif" font-size="14.00">n29 (0.00 &#45; 30)</text>
</g>
<!-- n30 (0.00 &#45; 32)&#45;&gt;n29 (0.00 &#45; 30) -->
<g id="edge10" class="edge"><title>n30 (0.00 &#45; 32)&#45;&gt;n29 (0.00 &#45; 30)</title>
<path fill="none" stroke="black" d="M426.546,-1809.19C442.118,-1797.49 463.357,-1781.54 480.518,-1768.65"/>
<polygon fill="black" stroke="black" points="482.678,-1771.4 488.571,-1762.6 478.474,-1765.81 482.678,-1771.4"/>
</g>
<!-- RELATIVE_RISK -->
<g id="node12" class="node"><title>RELATIVE_RISK</title>
<ellipse fill="none" stroke="black" cx="430.044" cy="-1664.6" rx="77.9862" ry="18"/>
<text text-anchor="middle" x="430.044" y="-1660.9" font-family="Times,serif" font-size="14.00">RELATIVE_RISK</text>
</g>
<!-- n29 (0.00 &#45; 30)&#45;&gt;RELATIVE_RISK -->
<g id="edge11" class="edge"><title>n29 (0.00 &#45; 30)&#45;&gt;RELATIVE_RISK</title>
<path fill="none" stroke="black" d="M493.078,-1727.74C481.836,-1716.66 466.91,-1701.94 454.405,-1689.62"/>
<polygon fill="black" stroke="black" points="456.564,-1686.83 446.986,-1682.3 451.65,-1691.82 456.564,-1686.83"/>
</g>
<!-- n28 (0.00 &#45; 29) -->
<g id="node13" class="node"><title>n28 (0.00 &#45; 29)</title>
<ellipse fill="none" stroke="black" cx="590.044" cy="-1664.6" rx="64.189" ry="18"/>
<text text-anchor="middle" x="590.044" y="-1660.9" font-family="Times,serif" font-size="14.00">n28 (0.00 &#45; 29)</text>
</g>
<!-- n29 (0.00 &#45; 30)&#45;&gt;n28 (0.00 &#45; 29) -->
<g id="edge12" class="edge"><title>n29 (0.00 &#45; 30)&#45;&gt;n28 (0.00 &#45; 29)</title>
<path fill="none" stroke="black" d="M527.01,-1727.74C538.329,-1716.58 553.381,-1701.75 565.937,-1689.37"/>
<polygon fill="black" stroke="black" points="568.713,-1691.54 573.377,-1682.03 563.799,-1686.56 568.713,-1691.54"/>
</g>
<!-- JACCARD -->
<g id="node14" class="node"><title>JACCARD</title>
<ellipse fill="none" stroke="black" cx="523.044" cy="-1592.6" rx="50.8918" ry="18"/>
<text text-anchor="middle" x="523.044" y="-1588.9" font-family="Times,serif" font-size="14.00">JACCARD</text>
</g>
<!-- n28 (0.00 &#45; 29)&#45;&gt;JACCARD -->
<g id="edge13" class="edge"><title>n28 (0.00 &#45; 29)&#45;&gt;JACCARD</title>
<path fill="none" stroke="black" d="M574.166,-1647.01C565.739,-1638.21 555.231,-1627.23 545.938,-1617.52"/>
<polygon fill="black" stroke="black" points="548.252,-1614.87 538.808,-1610.07 543.195,-1619.71 548.252,-1614.87"/>
</g>
<!-- n27 (0.00 &#45; 28) -->
<g id="node15" class="node"><title>n27 (0.00 &#45; 28)</title>
<ellipse fill="none" stroke="black" cx="656.044" cy="-1592.6" rx="64.189" ry="18"/>
<text text-anchor="middle" x="656.044" y="-1588.9" font-family="Times,serif" font-size="14.00">n27 (0.00 &#45; 28)</text>
</g>
<!-- n28 (0.00 &#45; 29)&#45;&gt;n27 (0.00 &#45; 28) -->
<g id="edge14" class="edge"><title>n28 (0.00 &#45; 29)&#45;&gt;n27 (0.00 &#45; 28)</title>
<path fill="none" stroke="black" d="M605.685,-1647.01C613.987,-1638.21 624.338,-1627.23 633.492,-1617.52"/>
<polygon fill="black" stroke="black" points="636.202,-1619.75 640.516,-1610.07 631.109,-1614.94 636.202,-1619.75"/>
</g>
<!-- LOEVINGER\nCONVICTION\nCERTAINTY_FACTOR -->
<g id="node16" class="node"><title>LOEVINGER\nCONVICTION\nCERTAINTY_FACTOR</title>
<ellipse fill="none" stroke="black" cx="561.044" cy="-1501.12" rx="108.375" ry="37.4533"/>
<text text-anchor="middle" x="561.044" y="-1512.42" font-family="Times,serif" font-size="14.00">LOEVINGER</text>
<text text-anchor="middle" x="561.044" y="-1497.42" font-family="Times,serif" font-size="14.00">CONVICTION</text>
<text text-anchor="middle" x="561.044" y="-1482.42" font-family="Times,serif" font-size="14.00">CERTAINTY_FACTOR</text>
</g>
<!-- n27 (0.00 &#45; 28)&#45;&gt;LOEVINGER\nCONVICTION\nCERTAINTY_FACTOR -->
<g id="edge15" class="edge"><title>n27 (0.00 &#45; 28)&#45;&gt;LOEVINGER\nCONVICTION\nCERTAINTY_FACTOR</title>
<path fill="none" stroke="black" d="M638.62,-1575.19C629.127,-1566.25 616.912,-1554.74 604.996,-1543.52"/>
<polygon fill="black" stroke="black" points="607.321,-1540.9 597.642,-1536.59 602.522,-1546 607.321,-1540.9"/>
</g>
<!-- n26 (0.00 &#45; 25) -->
<g id="node17" class="node"><title>n26 (0.00 &#45; 25)</title>
<ellipse fill="none" stroke="black" cx="752.044" cy="-1501.12" rx="64.189" ry="18"/>
<text text-anchor="middle" x="752.044" y="-1497.42" font-family="Times,serif" font-size="14.00">n26 (0.00 &#45; 25)</text>
</g>
<!-- n27 (0.00 &#45; 28)&#45;&gt;n26 (0.00 &#45; 25) -->
<g id="edge16" class="edge"><title>n27 (0.00 &#45; 28)&#45;&gt;n26 (0.00 &#45; 25)</title>
<path fill="none" stroke="black" d="M673.652,-1575.19C688.445,-1561.4 709.78,-1541.52 726.458,-1525.97"/>
<polygon fill="black" stroke="black" points="729.294,-1528.11 734.223,-1518.73 724.521,-1522.99 729.294,-1528.11"/>
</g>
<!-- YULE_Y\nYULE_Q\nODDS_RATIO -->
<g id="node18" class="node"><title>YULE_Y\nYULE_Q\nODDS_RATIO</title>
<ellipse fill="none" stroke="black" cx="675.044" cy="-1390.17" rx="71.3357" ry="37.4533"/>
<text text-anchor="middle" x="675.044" y="-1401.47" font-family="Times,serif" font-size="14.00">YULE_Y</text>
<text text-anchor="middle" x="675.044" y="-1386.47" font-family="Times,serif" font-size="14.00">YULE_Q</text>
<text text-anchor="middle" x="675.044" y="-1371.47" font-family="Times,serif" font-size="14.00">ODDS_RATIO</text>
</g>
<!-- n26 (0.00 &#45; 25)&#45;&gt;YULE_Y\nYULE_Q\nODDS_RATIO -->
<g id="edge17" class="edge"><title>n26 (0.00 &#45; 25)&#45;&gt;YULE_Y\nYULE_Q\nODDS_RATIO</title>
<path fill="none" stroke="black" d="M740.013,-1483.1C730.708,-1469.93 717.404,-1451.11 705.256,-1433.92"/>
<polygon fill="black" stroke="black" points="708.037,-1431.79 699.408,-1425.64 702.321,-1435.83 708.037,-1431.79"/>
</g>
<!-- n25 (0.00 &#45; 22) -->
<g id="node19" class="node"><title>n25 (0.00 &#45; 22)</title>
<ellipse fill="none" stroke="black" cx="829.044" cy="-1390.17" rx="64.189" ry="18"/>
<text text-anchor="middle" x="829.044" y="-1386.47" font-family="Times,serif" font-size="14.00">n25 (0.00 &#45; 22)</text>
</g>
<!-- n26 (0.00 &#45; 25)&#45;&gt;n25 (0.00 &#45; 22) -->
<g id="edge18" class="edge"><title>n26 (0.00 &#45; 25)&#45;&gt;n25 (0.00 &#45; 22)</title>
<path fill="none" stroke="black" d="M764.076,-1483.1C776.733,-1465.19 796.789,-1436.81 811.27,-1416.32"/>
<polygon fill="black" stroke="black" points="814.184,-1418.26 817.098,-1408.07 808.468,-1414.22 814.184,-1418.26"/>
</g>
<!-- KAPPA -->
<g id="node20" class="node"><title>KAPPA</title>
<ellipse fill="none" stroke="black" cx="768.044" cy="-1298.69" rx="39.7935" ry="18"/>
<text text-anchor="middle" x="768.044" y="-1294.99" font-family="Times,serif" font-size="14.00">KAPPA</text>
</g>
<!-- n25 (0.00 &#45; 22)&#45;&gt;KAPPA -->
<g id="edge19" class="edge"><title>n25 (0.00 &#45; 22)&#45;&gt;KAPPA</title>
<path fill="none" stroke="black" d="M817.571,-1372.34C808.396,-1358.88 795.398,-1339.82 785.02,-1324.59"/>
<polygon fill="black" stroke="black" points="787.785,-1322.44 779.26,-1316.15 782.002,-1326.38 787.785,-1322.44"/>
</g>
<!-- n24 (0.00 &#45; 21) -->
<g id="node21" class="node"><title>n24 (0.00 &#45; 21)</title>
<ellipse fill="none" stroke="black" cx="890.044" cy="-1298.69" rx="64.189" ry="18"/>
<text text-anchor="middle" x="890.044" y="-1294.99" font-family="Times,serif" font-size="14.00">n24 (0.00 &#45; 21)</text>
</g>
<!-- n25 (0.00 &#45; 22)&#45;&gt;n24 (0.00 &#45; 21) -->
<g id="edge20" class="edge"><title>n25 (0.00 &#45; 22)&#45;&gt;n24 (0.00 &#45; 21)</title>
<path fill="none" stroke="black" d="M840.518,-1372.34C849.635,-1358.97 862.527,-1340.06 872.873,-1324.88"/>
<polygon fill="black" stroke="black" points="875.881,-1326.68 878.622,-1316.45 870.097,-1322.74 875.881,-1326.68"/>
</g>
<!-- IMPLICATION_INDEX -->
<g id="node22" class="node"><title>IMPLICATION_INDEX</title>
<ellipse fill="none" stroke="black" cx="799.044" cy="-1226.69" rx="100.182" ry="18"/>
<text text-anchor="middle" x="799.044" y="-1222.99" font-family="Times,serif" font-size="14.00">IMPLICATION_INDEX</text>
</g>
<!-- n24 (0.00 &#45; 21)&#45;&gt;IMPLICATION_INDEX -->
<g id="edge21" class="edge"><title>n24 (0.00 &#45; 21)&#45;&gt;IMPLICATION_INDEX</title>
<path fill="none" stroke="black" d="M868.938,-1281.46C857.051,-1272.31 842.01,-1260.74 828.928,-1250.68"/>
<polygon fill="black" stroke="black" points="830.728,-1247.65 820.668,-1244.33 826.46,-1253.2 830.728,-1247.65"/>
</g>
<!-- n23 (0.00 &#45; 20) -->
<g id="node23" class="node"><title>n23 (0.00 &#45; 20)</title>
<ellipse fill="none" stroke="black" cx="981.044" cy="-1226.69" rx="64.189" ry="18"/>
<text text-anchor="middle" x="981.044" y="-1222.99" font-family="Times,serif" font-size="14.00">n23 (0.00 &#45; 20)</text>
</g>
<!-- n24 (0.00 &#45; 21)&#45;&gt;n23 (0.00 &#45; 20) -->
<g id="edge22" class="edge"><title>n24 (0.00 &#45; 21)&#45;&gt;n23 (0.00 &#45; 20)</title>
<path fill="none" stroke="black" d="M911.15,-1281.46C923.325,-1272.09 938.807,-1260.18 952.105,-1249.95"/>
<polygon fill="black" stroke="black" points="954.261,-1252.71 960.053,-1243.84 949.993,-1247.16 954.261,-1252.71"/>
</g>
<!-- KLOSGEN -->
<g id="node24" class="node"><title>KLOSGEN</title>
<ellipse fill="none" stroke="black" cx="914.044" cy="-1154.69" rx="51.9908" ry="18"/>
<text text-anchor="middle" x="914.044" y="-1150.99" font-family="Times,serif" font-size="14.00">KLOSGEN</text>
</g>
<!-- n23 (0.00 &#45; 20)&#45;&gt;KLOSGEN -->
<g id="edge23" class="edge"><title>n23 (0.00 &#45; 20)&#45;&gt;KLOSGEN</title>
<path fill="none" stroke="black" d="M965.166,-1209.1C956.739,-1200.3 946.231,-1189.32 936.938,-1179.61"/>
<polygon fill="black" stroke="black" points="939.252,-1176.97 929.808,-1172.16 934.195,-1181.81 939.252,-1176.97"/>
</g>
<!-- n22 (0.00 &#45; 19) -->
<g id="node25" class="node"><title>n22 (0.00 &#45; 19)</title>
<ellipse fill="none" stroke="black" cx="1048.04" cy="-1154.69" rx="64.189" ry="18"/>
<text text-anchor="middle" x="1048.04" y="-1150.99" font-family="Times,serif" font-size="14.00">n22 (0.00 &#45; 19)</text>
</g>
<!-- n23 (0.00 &#45; 20)&#45;&gt;n22 (0.00 &#45; 19) -->
<g id="edge24" class="edge"><title>n23 (0.00 &#45; 20)&#45;&gt;n22 (0.00 &#45; 19)</title>
<path fill="none" stroke="black" d="M996.922,-1209.1C1005.35,-1200.3 1015.86,-1189.32 1025.15,-1179.61"/>
<polygon fill="black" stroke="black" points="1027.89,-1181.81 1032.28,-1172.16 1022.84,-1176.97 1027.89,-1181.81"/>
</g>
<!-- ZHANG\nBAYES -->
<g id="node26" class="node"><title>ZHANG\nBAYES</title>
<ellipse fill="none" stroke="black" cx="984.044" cy="-1073.82" rx="45.011" ry="26.7407"/>
<text text-anchor="middle" x="984.044" y="-1077.62" font-family="Times,serif" font-size="14.00">ZHANG</text>
<text text-anchor="middle" x="984.044" y="-1062.62" font-family="Times,serif" font-size="14.00">BAYES</text>
</g>
<!-- n22 (0.00 &#45; 19)&#45;&gt;ZHANG\nBAYES -->
<g id="edge25" class="edge"><title>n22 (0.00 &#45; 19)&#45;&gt;ZHANG\nBAYES</title>
<path fill="none" stroke="black" d="M1034.47,-1136.97C1027.22,-1128.03 1018.05,-1116.73 1009.53,-1106.23"/>
<polygon fill="black" stroke="black" points="1012.2,-1103.97 1003.18,-1098.41 1006.76,-1108.38 1012.2,-1103.97"/>
</g>
<!-- n21 (0.00 &#45; 17) -->
<g id="node27" class="node"><title>n21 (0.00 &#45; 17)</title>
<ellipse fill="none" stroke="black" cx="1112.04" cy="-1073.82" rx="64.189" ry="18"/>
<text text-anchor="middle" x="1112.04" y="-1070.12" font-family="Times,serif" font-size="14.00">n21 (0.00 &#45; 17)</text>
</g>
<!-- n22 (0.00 &#45; 19)&#45;&gt;n21 (0.00 &#45; 17) -->
<g id="edge26" class="edge"><title>n22 (0.00 &#45; 19)&#45;&gt;n21 (0.00 &#45; 17)</title>
<path fill="none" stroke="black" d="M1061.62,-1136.97C1070.44,-1126.09 1082.1,-1111.72 1091.99,-1099.54"/>
<polygon fill="black" stroke="black" points="1094.91,-1101.5 1098.49,-1091.53 1089.47,-1097.09 1094.91,-1101.5"/>
</g>
<!-- COLLECTIVE_STRENGH -->
<g id="node28" class="node"><title>COLLECTIVE_STRENGH</title>
<ellipse fill="none" stroke="black" cx="1016.04" cy="-992.953" rx="109.681" ry="18"/>
<text text-anchor="middle" x="1016.04" y="-989.253" font-family="Times,serif" font-size="14.00">COLLECTIVE_STRENGH</text>
</g>
<!-- n21 (0.00 &#45; 17)&#45;&gt;COLLECTIVE_STRENGH -->
<g id="edge27" class="edge"><title>n21 (0.00 &#45; 17)&#45;&gt;COLLECTIVE_STRENGH</title>
<path fill="none" stroke="black" d="M1092.15,-1056.48C1078.44,-1045.21 1059.99,-1030.06 1044.7,-1017.49"/>
<polygon fill="black" stroke="black" points="1046.52,-1014.46 1036.57,-1010.82 1042.08,-1019.87 1046.52,-1014.46"/>
</g>
<!-- n20 (0.00 &#45; 16) -->
<g id="node29" class="node"><title>n20 (0.00 &#45; 16)</title>
<ellipse fill="none" stroke="black" cx="1208.04" cy="-992.953" rx="64.189" ry="18"/>
<text text-anchor="middle" x="1208.04" y="-989.253" font-family="Times,serif" font-size="14.00">n20 (0.00 &#45; 16)</text>
</g>
<!-- n21 (0.00 &#45; 17)&#45;&gt;n20 (0.00 &#45; 16) -->
<g id="edge28" class="edge"><title>n21 (0.00 &#45; 17)&#45;&gt;n20 (0.00 &#45; 16)</title>
<path fill="none" stroke="black" d="M1131.94,-1056.48C1145.97,-1044.95 1164.94,-1029.36 1180.44,-1016.63"/>
<polygon fill="black" stroke="black" points="1182.67,-1019.33 1188.18,-1010.27 1178.23,-1013.92 1182.67,-1019.33"/>
</g>
<!-- GINI -->
<g id="node30" class="node"><title>GINI</title>
<ellipse fill="none" stroke="black" cx="1152.04" cy="-920.953" rx="29.4969" ry="18"/>
<text text-anchor="middle" x="1152.04" y="-917.253" font-family="Times,serif" font-size="14.00">GINI</text>
</g>
<!-- n20 (0.00 &#45; 16)&#45;&gt;GINI -->
<g id="edge29" class="edge"><title>n20 (0.00 &#45; 16)&#45;&gt;GINI</title>
<path fill="none" stroke="black" d="M1194.49,-975.008C1187.38,-966.12 1178.56,-955.094 1170.8,-945.399"/>
<polygon fill="black" stroke="black" points="1173.31,-942.932 1164.33,-937.31 1167.84,-947.305 1173.31,-942.932"/>
</g>
<!-- n19 (0.00 &#45; 15) -->
<g id="node31" class="node"><title>n19 (0.00 &#45; 15)</title>
<ellipse fill="none" stroke="black" cx="1264.04" cy="-920.953" rx="64.189" ry="18"/>
<text text-anchor="middle" x="1264.04" y="-917.253" font-family="Times,serif" font-size="14.00">n19 (0.00 &#45; 15)</text>
</g>
<!-- n20 (0.00 &#45; 16)&#45;&gt;n19 (0.00 &#45; 15) -->
<g id="edge30" class="edge"><title>n20 (0.00 &#45; 16)&#45;&gt;n19 (0.00 &#45; 15)</title>
<path fill="none" stroke="black" d="M1221.6,-975.008C1228.41,-966.496 1236.79,-956.022 1244.3,-946.635"/>
<polygon fill="black" stroke="black" points="1247.1,-948.737 1250.61,-938.742 1241.63,-944.365 1247.1,-948.737"/>
</g>
<!-- J_MEASURE -->
<g id="node32" class="node"><title>J_MEASURE</title>
<ellipse fill="none" stroke="black" cx="1193.04" cy="-848.953" rx="61.1893" ry="18"/>
<text text-anchor="middle" x="1193.04" y="-845.253" font-family="Times,serif" font-size="14.00">J_MEASURE</text>
</g>
<!-- n19 (0.00 &#45; 15)&#45;&gt;J_MEASURE -->
<g id="edge31" class="edge"><title>n19 (0.00 &#45; 15)&#45;&gt;J_MEASURE</title>
<path fill="none" stroke="black" d="M1247.22,-903.364C1238.2,-894.472 1226.93,-883.364 1217.01,-873.584"/>
<polygon fill="black" stroke="black" points="1219.33,-870.952 1209.75,-866.423 1214.41,-875.936 1219.33,-870.952"/>
</g>
<!-- n18 (0.00 &#45; 14) -->
<g id="node33" class="node"><title>n18 (0.00 &#45; 14)</title>
<ellipse fill="none" stroke="black" cx="1336.04" cy="-848.953" rx="64.189" ry="18"/>
<text text-anchor="middle" x="1336.04" y="-845.253" font-family="Times,serif" font-size="14.00">n18 (0.00 &#45; 14)</text>
</g>
<!-- n19 (0.00 &#45; 15)&#45;&gt;n18 (0.00 &#45; 14) -->
<g id="edge32" class="edge"><title>n19 (0.00 &#45; 15)&#45;&gt;n18 (0.00 &#45; 14)</title>
<path fill="none" stroke="black" d="M1281.11,-903.364C1290.25,-894.472 1301.68,-883.364 1311.74,-873.584"/>
<polygon fill="black" stroke="black" points="1314.37,-875.904 1319.1,-866.423 1309.49,-870.885 1314.37,-875.904"/>
</g>
<!-- ONE_WAY_SUPPORT -->
<g id="node34" class="node"><title>ONE_WAY_SUPPORT</title>
<ellipse fill="none" stroke="black" cx="1246.04" cy="-776.953" rx="97.4827" ry="18"/>
<text text-anchor="middle" x="1246.04" y="-773.253" font-family="Times,serif" font-size="14.00">ONE_WAY_SUPPORT</text>
</g>
<!-- n18 (0.00 &#45; 14)&#45;&gt;ONE_WAY_SUPPORT -->
<g id="edge33" class="edge"><title>n18 (0.00 &#45; 14)&#45;&gt;ONE_WAY_SUPPORT</title>
<path fill="none" stroke="black" d="M1315.17,-831.718C1303.41,-822.574 1288.54,-811.004 1275.6,-800.941"/>
<polygon fill="black" stroke="black" points="1277.47,-797.963 1267.43,-794.587 1273.17,-803.489 1277.47,-797.963"/>
</g>
<!-- n17 (0.00 &#45; 13) -->
<g id="node35" class="node"><title>n17 (0.00 &#45; 13)</title>
<ellipse fill="none" stroke="black" cx="1426.04" cy="-776.953" rx="64.189" ry="18"/>
<text text-anchor="middle" x="1426.04" y="-773.253" font-family="Times,serif" font-size="14.00">n17 (0.00 &#45; 13)</text>
</g>
<!-- n18 (0.00 &#45; 14)&#45;&gt;n17 (0.00 &#45; 13) -->
<g id="edge34" class="edge"><title>n18 (0.00 &#45; 14)&#45;&gt;n17 (0.00 &#45; 13)</title>
<path fill="none" stroke="black" d="M1356.92,-831.718C1368.85,-822.441 1383.98,-810.668 1397.05,-800.504"/>
<polygon fill="black" stroke="black" points="1399.54,-803.003 1405.28,-794.101 1395.24,-797.477 1399.54,-803.003"/>
</g>
<!-- TWO_WAY_SUPPORT -->
<g id="node36" class="node"><title>TWO_WAY_SUPPORT</title>
<ellipse fill="none" stroke="black" cx="1335.04" cy="-704.953" rx="100.182" ry="18"/>
<text text-anchor="middle" x="1335.04" y="-701.253" font-family="Times,serif" font-size="14.00">TWO_WAY_SUPPORT</text>
</g>
<!-- n17 (0.00 &#45; 13)&#45;&gt;TWO_WAY_SUPPORT -->
<g id="edge35" class="edge"><title>n17 (0.00 &#45; 13)&#45;&gt;TWO_WAY_SUPPORT</title>
<path fill="none" stroke="black" d="M1404.94,-759.718C1393.05,-750.574 1378.01,-739.004 1364.93,-728.941"/>
<polygon fill="black" stroke="black" points="1366.73,-725.91 1356.67,-722.587 1362.46,-731.458 1366.73,-725.91"/>
</g>
<!-- n16 (0.00 &#45; 12) -->
<g id="node37" class="node"><title>n16 (0.00 &#45; 12)</title>
<ellipse fill="none" stroke="black" cx="1517.04" cy="-704.953" rx="64.189" ry="18"/>
<text text-anchor="middle" x="1517.04" y="-701.253" font-family="Times,serif" font-size="14.00">n16 (0.00 &#45; 12)</text>
</g>
<!-- n17 (0.00 &#45; 13)&#45;&gt;n16 (0.00 &#45; 12) -->
<g id="edge36" class="edge"><title>n17 (0.00 &#45; 13)&#45;&gt;n16 (0.00 &#45; 12)</title>
<path fill="none" stroke="black" d="M1447.15,-759.718C1459.32,-750.353 1474.81,-738.443 1488.1,-728.214"/>
<polygon fill="black" stroke="black" points="1490.26,-730.972 1496.05,-722.101 1485.99,-725.424 1490.26,-730.972"/>
</g>
<!-- TWO_WAY_SUPPORT_VARIATION -->
<g id="node38" class="node"><title>TWO_WAY_SUPPORT_VARIATION</title>
<ellipse fill="none" stroke="black" cx="1399.04" cy="-632.953" rx="153.273" ry="18"/>
<text text-anchor="middle" x="1399.04" y="-629.253" font-family="Times,serif" font-size="14.00">TWO_WAY_SUPPORT_VARIATION</text>
</g>
<!-- n16 (0.00 &#45; 12)&#45;&gt;TWO_WAY_SUPPORT_VARIATION -->
<g id="edge37" class="edge"><title>n16 (0.00 &#45; 12)&#45;&gt;TWO_WAY_SUPPORT_VARIATION</title>
<path fill="none" stroke="black" d="M1490.86,-688.418C1474.78,-678.883 1453.94,-666.521 1436.18,-655.986"/>
<polygon fill="black" stroke="black" points="1437.61,-652.759 1427.22,-650.667 1434.03,-658.78 1437.61,-652.759"/>
</g>
<!-- n15 (0.00 &#45; 11) -->
<g id="node39" class="node"><title>n15 (0.00 &#45; 11)</title>
<ellipse fill="none" stroke="black" cx="1635.04" cy="-632.953" rx="64.189" ry="18"/>
<text text-anchor="middle" x="1635.04" y="-629.253" font-family="Times,serif" font-size="14.00">n15 (0.00 &#45; 11)</text>
</g>
<!-- n16 (0.00 &#45; 12)&#45;&gt;n15 (0.00 &#45; 11) -->
<g id="edge38" class="edge"><title>n16 (0.00 &#45; 12)&#45;&gt;n15 (0.00 &#45; 11)</title>
<path fill="none" stroke="black" d="M1543.23,-688.418C1560.04,-678.449 1582.05,-665.391 1600.31,-654.56"/>
<polygon fill="black" stroke="black" points="1602.11,-657.557 1608.93,-649.445 1598.54,-651.537 1602.11,-657.557"/>
</g>
<!-- PHI -->
<g id="node40" class="node"><title>PHI</title>
<ellipse fill="none" stroke="black" cx="1580.04" cy="-560.953" rx="27" ry="18"/>
<text text-anchor="middle" x="1580.04" y="-557.253" font-family="Times,serif" font-size="14.00">PHI</text>
</g>
<!-- n15 (0.00 &#45; 11)&#45;&gt;PHI -->
<g id="edge39" class="edge"><title>n15 (0.00 &#45; 11)&#45;&gt;PHI</title>
<path fill="none" stroke="black" d="M1621.73,-615.008C1614.75,-606.12 1606.08,-595.094 1598.47,-585.399"/>
<polygon fill="black" stroke="black" points="1601.04,-583.011 1592.11,-577.31 1595.54,-587.335 1601.04,-583.011"/>
</g>
<!-- n14 (0.00 &#45; 10) -->
<g id="node41" class="node"><title>n14 (0.00 &#45; 10)</title>
<ellipse fill="none" stroke="black" cx="1689.04" cy="-560.953" rx="64.189" ry="18"/>
<text text-anchor="middle" x="1689.04" y="-557.253" font-family="Times,serif" font-size="14.00">n14 (0.00 &#45; 10)</text>
</g>
<!-- n15 (0.00 &#45; 11)&#45;&gt;n14 (0.00 &#45; 10) -->
<g id="edge40" class="edge"><title>n15 (0.00 &#45; 11)&#45;&gt;n14 (0.00 &#45; 10)</title>
<path fill="none" stroke="black" d="M1648.12,-615.008C1654.62,-606.582 1662.6,-596.233 1669.78,-586.92"/>
<polygon fill="black" stroke="black" points="1672.76,-588.798 1676.09,-578.742 1667.21,-584.522 1672.76,-588.798"/>
</g>
<!-- PIATETSKY_SHAPIRO -->
<g id="node42" class="node"><title>PIATETSKY_SHAPIRO</title>
<ellipse fill="none" stroke="black" cx="1600.04" cy="-488.953" rx="100.983" ry="18"/>
<text text-anchor="middle" x="1600.04" y="-485.253" font-family="Times,serif" font-size="14.00">PIATETSKY_SHAPIRO</text>
</g>
<!-- n14 (0.00 &#45; 10)&#45;&gt;PIATETSKY_SHAPIRO -->
<g id="edge41" class="edge"><title>n14 (0.00 &#45; 10)&#45;&gt;PIATETSKY_SHAPIRO</title>
<path fill="none" stroke="black" d="M1668.4,-543.718C1656.78,-534.574 1642.07,-523.004 1629.27,-512.941"/>
<polygon fill="black" stroke="black" points="1631.22,-510.018 1621.19,-506.587 1626.89,-515.52 1631.22,-510.018"/>
</g>
<!-- n13 (0.00 &#45; 9) -->
<g id="node43" class="node"><title>n13 (0.00 &#45; 9)</title>
<ellipse fill="none" stroke="black" cx="1779.04" cy="-488.953" rx="59.5901" ry="18"/>
<text text-anchor="middle" x="1779.04" y="-485.253" font-family="Times,serif" font-size="14.00">n13 (0.00 &#45; 9)</text>
</g>
<!-- n14 (0.00 &#45; 10)&#45;&gt;n13 (0.00 &#45; 9) -->
<g id="edge42" class="edge"><title>n14 (0.00 &#45; 10)&#45;&gt;n13 (0.00 &#45; 9)</title>
<path fill="none" stroke="black" d="M1709.92,-543.718C1721.85,-534.441 1736.98,-522.668 1750.05,-512.504"/>
<polygon fill="black" stroke="black" points="1752.54,-515.003 1758.28,-506.101 1748.24,-509.477 1752.54,-515.003"/>
</g>
<!-- COSINE -->
<g id="node44" class="node"><title>COSINE</title>
<ellipse fill="none" stroke="black" cx="1719.04" cy="-416.953" rx="42.4939" ry="18"/>
<text text-anchor="middle" x="1719.04" y="-413.253" font-family="Times,serif" font-size="14.00">COSINE</text>
</g>
<!-- n13 (0.00 &#45; 9)&#45;&gt;COSINE -->
<g id="edge43" class="edge"><title>n13 (0.00 &#45; 9)&#45;&gt;COSINE</title>
<path fill="none" stroke="black" d="M1764.83,-471.364C1757.35,-462.647 1748.05,-451.799 1739.79,-442.161"/>
<polygon fill="black" stroke="black" points="1742.33,-439.738 1733.16,-434.423 1737.01,-444.294 1742.33,-439.738"/>
</g>
<!-- n12 (0.00 &#45; 8) -->
<g id="node45" class="node"><title>n12 (0.00 &#45; 8)</title>
<ellipse fill="none" stroke="black" cx="1839.04" cy="-416.953" rx="59.5901" ry="18"/>
<text text-anchor="middle" x="1839.04" y="-413.253" font-family="Times,serif" font-size="14.00">n12 (0.00 &#45; 8)</text>
</g>
<!-- n13 (0.00 &#45; 9)&#45;&gt;n12 (0.00 &#45; 8) -->
<g id="edge44" class="edge"><title>n13 (0.00 &#45; 9)&#45;&gt;n12 (0.00 &#45; 8)</title>
<path fill="none" stroke="black" d="M1793.26,-471.364C1800.63,-462.773 1809.76,-452.113 1817.94,-442.581"/>
<polygon fill="black" stroke="black" points="1820.66,-444.78 1824.51,-434.91 1815.35,-440.224 1820.66,-444.78"/>
</g>
<!-- FISHER_PVAL -->
<g id="node46" class="node"><title>FISHER_PVAL</title>
<ellipse fill="none" stroke="black" cx="1766.04" cy="-344.953" rx="68.4888" ry="18"/>
<text text-anchor="middle" x="1766.04" y="-341.253" font-family="Times,serif" font-size="14.00">FISHER_PVAL</text>
</g>
<!-- n12 (0.00 &#45; 8)&#45;&gt;FISHER_PVAL -->
<g id="edge45" class="edge"><title>n12 (0.00 &#45; 8)&#45;&gt;FISHER_PVAL</title>
<path fill="none" stroke="black" d="M1821.74,-399.364C1812.47,-390.472 1800.89,-379.364 1790.69,-369.584"/>
<polygon fill="black" stroke="black" points="1792.86,-366.818 1783.22,-362.423 1788.02,-371.871 1792.86,-366.818"/>
</g>
<!-- n11 (0.00 &#45; 7) -->
<g id="node47" class="node"><title>n11 (0.00 &#45; 7)</title>
<ellipse fill="none" stroke="black" cx="1912.04" cy="-344.953" rx="59.5901" ry="18"/>
<text text-anchor="middle" x="1912.04" y="-341.253" font-family="Times,serif" font-size="14.00">n11 (0.00 &#45; 7)</text>
</g>
<!-- n12 (0.00 &#45; 8)&#45;&gt;n11 (0.00 &#45; 7) -->
<g id="edge46" class="edge"><title>n12 (0.00 &#45; 8)&#45;&gt;n11 (0.00 &#45; 7)</title>
<path fill="none" stroke="black" d="M1856.34,-399.364C1865.62,-390.472 1877.2,-379.364 1887.4,-369.584"/>
<polygon fill="black" stroke="black" points="1890.07,-371.871 1894.87,-362.423 1885.23,-366.818 1890.07,-371.871"/>
</g>
<!-- CHI_SQUARE -->
<g id="node48" class="node"><title>CHI_SQUARE</title>
<ellipse fill="none" stroke="black" cx="1840.04" cy="-272.953" rx="65.7887" ry="18"/>
<text text-anchor="middle" x="1840.04" y="-269.253" font-family="Times,serif" font-size="14.00">CHI_SQUARE</text>
</g>
<!-- n11 (0.00 &#45; 7)&#45;&gt;CHI_SQUARE -->
<g id="edge47" class="edge"><title>n11 (0.00 &#45; 7)&#45;&gt;CHI_SQUARE</title>
<path fill="none" stroke="black" d="M1894.98,-327.364C1885.84,-318.472 1874.41,-307.364 1864.35,-297.584"/>
<polygon fill="black" stroke="black" points="1866.59,-294.885 1856.98,-290.423 1861.72,-299.904 1866.59,-294.885"/>
</g>
<!-- n10 (0.00 &#45; 6) -->
<g id="node49" class="node"><title>n10 (0.00 &#45; 6)</title>
<ellipse fill="none" stroke="black" cx="1983.04" cy="-272.953" rx="59.5901" ry="18"/>
<text text-anchor="middle" x="1983.04" y="-269.253" font-family="Times,serif" font-size="14.00">n10 (0.00 &#45; 6)</text>
</g>
<!-- n11 (0.00 &#45; 7)&#45;&gt;n10 (0.00 &#45; 6) -->
<g id="edge48" class="edge"><title>n11 (0.00 &#45; 7)&#45;&gt;n10 (0.00 &#45; 6)</title>
<path fill="none" stroke="black" d="M1928.87,-327.364C1937.89,-318.472 1949.16,-307.364 1959.08,-297.584"/>
<polygon fill="black" stroke="black" points="1961.68,-299.936 1966.34,-290.423 1956.76,-294.952 1961.68,-299.936"/>
</g>
<!-- LEAST_CONTRADICTION -->
<g id="node50" class="node"><title>LEAST_CONTRADICTION</title>
<ellipse fill="none" stroke="black" cx="1889.04" cy="-200.953" rx="114.28" ry="18"/>
<text text-anchor="middle" x="1889.04" y="-197.253" font-family="Times,serif" font-size="14.00">LEAST_CONTRADICTION</text>
</g>
<!-- n10 (0.00 &#45; 6)&#45;&gt;LEAST_CONTRADICTION -->
<g id="edge49" class="edge"><title>n10 (0.00 &#45; 6)&#45;&gt;LEAST_CONTRADICTION</title>
<path fill="none" stroke="black" d="M1961.71,-256.069C1949.33,-246.85 1933.52,-235.077 1919.82,-224.868"/>
<polygon fill="black" stroke="black" points="1921.71,-221.916 1911.6,-218.751 1917.53,-227.531 1921.71,-221.916"/>
</g>
<!-- n9 (0.00 &#45; 5) -->
<g id="node51" class="node"><title>n9 (0.00 &#45; 5)</title>
<ellipse fill="none" stroke="black" cx="2077.04" cy="-200.953" rx="55.7903" ry="18"/>
<text text-anchor="middle" x="2077.04" y="-197.253" font-family="Times,serif" font-size="14.00">n9 (0.00 &#45; 5)</text>
</g>
<!-- n10 (0.00 &#45; 6)&#45;&gt;n9 (0.00 &#45; 5) -->
<g id="edge50" class="edge"><title>n10 (0.00 &#45; 6)&#45;&gt;n9 (0.00 &#45; 5)</title>
<path fill="none" stroke="black" d="M2004.37,-256.069C2017.11,-246.582 2033.48,-234.392 2047.46,-223.985"/>
<polygon fill="black" stroke="black" points="2049.87,-226.554 2055.8,-217.775 2045.69,-220.94 2049.87,-226.554"/>
</g>
<!-- ODD_MULTIPLIER -->
<g id="node52" class="node"><title>ODD_MULTIPLIER</title>
<ellipse fill="none" stroke="black" cx="1996.04" cy="-128.953" rx="87.1846" ry="18"/>
<text text-anchor="middle" x="1996.04" y="-125.253" font-family="Times,serif" font-size="14.00">ODD_MULTIPLIER</text>
</g>
<!-- n9 (0.00 &#45; 5)&#45;&gt;ODD_MULTIPLIER -->
<g id="edge51" class="edge"><title>n9 (0.00 &#45; 5)&#45;&gt;ODD_MULTIPLIER</title>
<path fill="none" stroke="black" d="M2058.26,-183.718C2047.78,-174.661 2034.54,-163.224 2022.98,-153.229"/>
<polygon fill="black" stroke="black" points="2025.15,-150.477 2015.29,-146.587 2020.57,-155.774 2025.15,-150.477"/>
</g>
<!-- n8 (0.00 &#45; 4) -->
<g id="node53" class="node"><title>n8 (0.00 &#45; 4)</title>
<ellipse fill="none" stroke="black" cx="2157.04" cy="-128.953" rx="55.7903" ry="18"/>
<text text-anchor="middle" x="2157.04" y="-125.253" font-family="Times,serif" font-size="14.00">n8 (0.00 &#45; 4)</text>
</g>
<!-- n9 (0.00 &#45; 5)&#45;&gt;n8 (0.00 &#45; 4) -->
<g id="edge52" class="edge"><title>n9 (0.00 &#45; 5)&#45;&gt;n8 (0.00 &#45; 4)</title>
<path fill="none" stroke="black" d="M2095.6,-183.718C2106.1,-174.53 2119.4,-162.892 2130.94,-152.795"/>
<polygon fill="black" stroke="black" points="2133.37,-155.32 2138.59,-146.101 2128.76,-150.052 2133.37,-155.32"/>
</g>
<!-- RECALL -->
<g id="node54" class="node"><title>RECALL</title>
<ellipse fill="none" stroke="black" cx="2057.04" cy="-37.4767" rx="44.6926" ry="18"/>
<text text-anchor="middle" x="2057.04" y="-33.7767" font-family="Times,serif" font-size="14.00">RECALL</text>
</g>
<!-- n8 (0.00 &#45; 4)&#45;&gt;RECALL -->
<g id="edge53" class="edge"><title>n8 (0.00 &#45; 4)&#45;&gt;RECALL</title>
<path fill="none" stroke="black" d="M2138.7,-111.542C2122.86,-97.3666 2099.81,-76.7459 2082.24,-61.0227"/>
<polygon fill="black" stroke="black" points="2084.39,-58.2437 2074.6,-54.1839 2079.72,-63.4603 2084.39,-58.2437"/>
</g>
<!-- COUNTER_EXAMPLE_RATE\nSEBAG_SCHOENAUER\nCONFIDENCE -->
<g id="node55" class="node"><title>COUNTER_EXAMPLE_RATE\nSEBAG_SCHOENAUER\nCONFIDENCE</title>
<ellipse fill="none" stroke="black" cx="2257.04" cy="-37.4767" rx="137.358" ry="37.4533"/>
<text text-anchor="middle" x="2257.04" y="-48.7767" font-family="Times,serif" font-size="14.00">COUNTER_EXAMPLE_RATE</text>
<text text-anchor="middle" x="2257.04" y="-33.7767" font-family="Times,serif" font-size="14.00">SEBAG_SCHOENAUER</text>
<text text-anchor="middle" x="2257.04" y="-18.7767" font-family="Times,serif" font-size="14.00">CONFIDENCE</text>
</g>
<!-- n8 (0.00 &#45; 4)&#45;&gt;COUNTER_EXAMPLE_RATE\nSEBAG_SCHOENAUER\nCONFIDENCE -->
<g id="edge54" class="edge"><title>n8 (0.00 &#45; 4)&#45;&gt;COUNTER_EXAMPLE_RATE\nSEBAG_SCHOENAUER\nCONFIDENCE</title>
<path fill="none" stroke="black" d="M2175.39,-111.542C2185.19,-102.768 2197.76,-91.525 2210.08,-80.5023"/>
<polygon fill="black" stroke="black" points="2212.57,-82.9681 2217.69,-73.6917 2207.9,-77.7515 2212.57,-82.9681"/>
</g>
</g>
</svg>
