<?xml version="1.0" encoding="UTF-8" standalone="no"?>
<!DOCTYPE svg PUBLIC "-//W3C//DTD SVG 1.1//EN"
 "http://www.w3.org/Graphics/SVG/1.1/DTD/svg11.dtd">
<!-- Generated by graphviz version 2.38.0 (20140413.2041)
 -->
<!-- Title: dendrogram Pages: 1 -->
<svg width="1657pt" height="886pt"
 viewBox="0.00 0.00 1657.41 886.37" xmlns="http://www.w3.org/2000/svg" xmlns:xlink="http://www.w3.org/1999/xlink">
<g id="graph0" class="graph" transform="scale(1 1) rotate(0) translate(4 882.372)">
<title>dendrogram</title>
<polygon fill="white" stroke="none" points="-4,4 -4,-882.372 1653.41,-882.372 1653.41,4 -4,4"/>
<!-- n34 (0.31 &#45; 36) -->
<g id="node1" class="node"><title>n34 (0.31 &#45; 36)</title>
<ellipse fill="none" stroke="black" cx="462.84" cy="-860.372" rx="64.189" ry="18"/>
<text text-anchor="middle" x="462.84" y="-856.672" font-family="Times,serif" font-size="14.00">n34 (0.31 &#45; 36)</text>
</g>
<!-- n28 (0.74 &#45; 3) -->
<g id="node2" class="node"><title>n28 (0.74 &#45; 3)</title>
<ellipse fill="none" stroke="black" cx="297.84" cy="-788.372" rx="59.5901" ry="18"/>
<text text-anchor="middle" x="297.84" y="-784.672" font-family="Times,serif" font-size="14.00">n28 (0.74 &#45; 3)</text>
</g>
<!-- n34 (0.31 &#45; 36)&#45;&gt;n28 (0.74 &#45; 3) -->
<g id="edge1" class="edge"><title>n34 (0.31 &#45; 36)&#45;&gt;n28 (0.74 &#45; 3)</title>
<path fill="none" stroke="black" d="M429.052,-845.037C403.413,-834.16 367.995,-819.134 340.418,-807.435"/>
<polygon fill="black" stroke="black" points="341.592,-804.131 331.02,-803.448 338.858,-810.575 341.592,-804.131"/>
</g>
<!-- n33 (0.42 &#45; 33) -->
<g id="node7" class="node"><title>n33 (0.42 &#45; 33)</title>
<ellipse fill="none" stroke="black" cx="627.84" cy="-788.372" rx="64.189" ry="18"/>
<text text-anchor="middle" x="627.84" y="-784.672" font-family="Times,serif" font-size="14.00">n33 (0.42 &#45; 33)</text>
</g>
<!-- n34 (0.31 &#45; 36)&#45;&gt;n33 (0.42 &#45; 33) -->
<g id="edge6" class="edge"><title>n34 (0.31 &#45; 36)&#45;&gt;n33 (0.42 &#45; 33)</title>
<path fill="none" stroke="black" d="M496.629,-845.037C522.015,-834.267 556.988,-819.43 584.444,-807.782"/>
<polygon fill="black" stroke="black" points="585.975,-810.935 593.814,-803.807 583.241,-804.491 585.975,-810.935"/>
</g>
<!-- COLLECTIVE_STRENGH -->
<g id="node3" class="node"><title>COLLECTIVE_STRENGH</title>
<ellipse fill="none" stroke="black" cx="109.84" cy="-716.372" rx="109.681" ry="18"/>
<text text-anchor="middle" x="109.84" y="-712.672" font-family="Times,serif" font-size="14.00">COLLECTIVE_STRENGH</text>
</g>
<!-- n28 (0.74 &#45; 3)&#45;&gt;COLLECTIVE_STRENGH -->
<g id="edge2" class="edge"><title>n28 (0.74 &#45; 3)&#45;&gt;COLLECTIVE_STRENGH</title>
<path fill="none" stroke="black" d="M261.592,-773.875C233.163,-763.29 193.227,-748.42 161.46,-736.592"/>
<polygon fill="black" stroke="black" points="162.478,-733.236 151.885,-733.027 160.035,-739.796 162.478,-733.236"/>
</g>
<!-- n24 (0.85 &#45; 2) -->
<g id="node4" class="node"><title>n24 (0.85 &#45; 2)</title>
<ellipse fill="none" stroke="black" cx="297.84" cy="-716.372" rx="59.5901" ry="18"/>
<text text-anchor="middle" x="297.84" y="-712.672" font-family="Times,serif" font-size="14.00">n24 (0.85 &#45; 2)</text>
</g>
<!-- n28 (0.74 &#45; 3)&#45;&gt;n24 (0.85 &#45; 2) -->
<g id="edge3" class="edge"><title>n28 (0.74 &#45; 3)&#45;&gt;n24 (0.85 &#45; 2)</title>
<path fill="none" stroke="black" d="M297.84,-770.068C297.84,-762.354 297.84,-753.084 297.84,-744.484"/>
<polygon fill="black" stroke="black" points="301.34,-744.476 297.84,-734.476 294.34,-744.476 301.34,-744.476"/>
</g>
<!-- ACCURACY -->
<g id="node5" class="node"><title>ACCURACY</title>
<ellipse fill="none" stroke="black" cx="156.84" cy="-614.288" rx="59.5901" ry="18"/>
<text text-anchor="middle" x="156.84" y="-610.588" font-family="Times,serif" font-size="14.00">ACCURACY</text>
</g>
<!-- n24 (0.85 &#45; 2)&#45;&gt;ACCURACY -->
<g id="edge4" class="edge"><title>n24 (0.85 &#45; 2)&#45;&gt;ACCURACY</title>
<path fill="none" stroke="black" d="M275.498,-699.513C251.675,-682.603 213.797,-655.717 187.262,-636.882"/>
<polygon fill="black" stroke="black" points="189.258,-634.007 179.078,-631.073 185.206,-639.715 189.258,-634.007"/>
</g>
<!-- SPECIFICITY -->
<g id="node6" class="node"><title>SPECIFICITY</title>
<ellipse fill="none" stroke="black" cx="297.84" cy="-614.288" rx="63.0888" ry="18"/>
<text text-anchor="middle" x="297.84" y="-610.588" font-family="Times,serif" font-size="14.00">SPECIFICITY</text>
</g>
<!-- n24 (0.85 &#45; 2)&#45;&gt;SPECIFICITY -->
<g id="edge5" class="edge"><title>n24 (0.85 &#45; 2)&#45;&gt;SPECIFICITY</title>
<path fill="none" stroke="black" d="M297.84,-697.939C297.84,-682.726 297.84,-660.393 297.84,-642.776"/>
<polygon fill="black" stroke="black" points="301.34,-642.522 297.84,-632.522 294.34,-642.522 301.34,-642.522"/>
</g>
<!-- n27 (0.74 &#45; 5) -->
<g id="node8" class="node"><title>n27 (0.74 &#45; 5)</title>
<ellipse fill="none" stroke="black" cx="627.84" cy="-716.372" rx="59.5901" ry="18"/>
<text text-anchor="middle" x="627.84" y="-712.672" font-family="Times,serif" font-size="14.00">n27 (0.74 &#45; 5)</text>
</g>
<!-- n33 (0.42 &#45; 33)&#45;&gt;n27 (0.74 &#45; 5) -->
<g id="edge7" class="edge"><title>n33 (0.42 &#45; 33)&#45;&gt;n27 (0.74 &#45; 5)</title>
<path fill="none" stroke="black" d="M627.84,-770.068C627.84,-762.354 627.84,-753.084 627.84,-744.484"/>
<polygon fill="black" stroke="black" points="631.34,-744.476 627.84,-734.476 624.34,-744.476 631.34,-744.476"/>
</g>
<!-- n32 (0.48 &#45; 28) -->
<g id="node11" class="node"><title>n32 (0.48 &#45; 28)</title>
<ellipse fill="none" stroke="black" cx="977.84" cy="-716.372" rx="64.189" ry="18"/>
<text text-anchor="middle" x="977.84" y="-712.672" font-family="Times,serif" font-size="14.00">n32 (0.48 &#45; 28)</text>
</g>
<!-- n33 (0.42 &#45; 33)&#45;&gt;n32 (0.48 &#45; 28) -->
<g id="edge10" class="edge"><title>n33 (0.42 &#45; 33)&#45;&gt;n32 (0.48 &#45; 28)</title>
<path fill="none" stroke="black" d="M678.733,-777.193C741.941,-764.552 849.652,-743.009 917.111,-729.518"/>
<polygon fill="black" stroke="black" points="918.051,-732.899 927.17,-727.506 916.678,-726.035 918.051,-732.899"/>
</g>
<!-- LEAST_CONTRADICTION -->
<g id="node9" class="node"><title>LEAST_CONTRADICTION</title>
<ellipse fill="none" stroke="black" cx="492.84" cy="-614.288" rx="114.28" ry="18"/>
<text text-anchor="middle" x="492.84" y="-610.588" font-family="Times,serif" font-size="14.00">LEAST_CONTRADICTION</text>
</g>
<!-- n27 (0.74 &#45; 5)&#45;&gt;LEAST_CONTRADICTION -->
<g id="edge8" class="edge"><title>n27 (0.74 &#45; 5)&#45;&gt;LEAST_CONTRADICTION</title>
<path fill="none" stroke="black" d="M606.449,-699.513C584.139,-682.973 548.955,-656.89 523.652,-638.131"/>
<polygon fill="black" stroke="black" points="525.6,-635.218 515.483,-632.075 521.431,-640.842 525.6,-635.218"/>
</g>
<!-- LEVERAGE\nCOUNTER_EXAMPLE_RATE\nSEBAG_SCHOENAUER\nCONFIDENCE -->
<g id="node10" class="node"><title>LEVERAGE\nCOUNTER_EXAMPLE_RATE\nSEBAG_SCHOENAUER\nCONFIDENCE</title>
<ellipse fill="none" stroke="black" cx="762.84" cy="-614.288" rx="137.358" ry="48.1667"/>
<text text-anchor="middle" x="762.84" y="-633.088" font-family="Times,serif" font-size="14.00">LEVERAGE</text>
<text text-anchor="middle" x="762.84" y="-618.088" font-family="Times,serif" font-size="14.00">COUNTER_EXAMPLE_RATE</text>
<text text-anchor="middle" x="762.84" y="-603.088" font-family="Times,serif" font-size="14.00">SEBAG_SCHOENAUER</text>
<text text-anchor="middle" x="762.84" y="-588.088" font-family="Times,serif" font-size="14.00">CONFIDENCE</text>
</g>
<!-- n27 (0.74 &#45; 5)&#45;&gt;LEVERAGE\nCOUNTER_EXAMPLE_RATE\nSEBAG_SCHOENAUER\nCONFIDENCE -->
<g id="edge9" class="edge"><title>n27 (0.74 &#45; 5)&#45;&gt;LEVERAGE\nCOUNTER_EXAMPLE_RATE\nSEBAG_SCHOENAUER\nCONFIDENCE</title>
<path fill="none" stroke="black" d="M649.231,-699.513C662.202,-689.898 679.523,-677.056 696.724,-664.304"/>
<polygon fill="black" stroke="black" points="699.19,-666.833 705.139,-658.066 695.021,-661.21 699.19,-666.833"/>
</g>
<!-- n31 (0.55 &#45; 7) -->
<g id="node12" class="node"><title>n31 (0.55 &#45; 7)</title>
<ellipse fill="none" stroke="black" cx="977.84" cy="-614.288" rx="59.5901" ry="18"/>
<text text-anchor="middle" x="977.84" y="-610.588" font-family="Times,serif" font-size="14.00">n31 (0.55 &#45; 7)</text>
</g>
<!-- n32 (0.48 &#45; 28)&#45;&gt;n31 (0.55 &#45; 7) -->
<g id="edge11" class="edge"><title>n32 (0.48 &#45; 28)&#45;&gt;n31 (0.55 &#45; 7)</title>
<path fill="none" stroke="black" d="M977.84,-697.939C977.84,-682.726 977.84,-660.393 977.84,-642.776"/>
<polygon fill="black" stroke="black" points="981.34,-642.522 977.84,-632.522 974.34,-642.522 981.34,-642.522"/>
</g>
<!-- n25 (0.84 &#45; 21) -->
<g id="node21" class="node"><title>n25 (0.84 &#45; 21)</title>
<ellipse fill="none" stroke="black" cx="1313.84" cy="-614.288" rx="64.189" ry="18"/>
<text text-anchor="middle" x="1313.84" y="-610.588" font-family="Times,serif" font-size="14.00">n25 (0.84 &#45; 21)</text>
</g>
<!-- n32 (0.48 &#45; 28)&#45;&gt;n25 (0.84 &#45; 21) -->
<g id="edge20" class="edge"><title>n32 (0.48 &#45; 28)&#45;&gt;n25 (0.84 &#45; 21)</title>
<path fill="none" stroke="black" d="M1020.39,-702.696C1081.79,-684.41 1195.1,-650.657 1261.52,-630.872"/>
<polygon fill="black" stroke="black" points="1262.78,-634.149 1271.37,-627.94 1260.78,-627.44 1262.78,-634.149"/>
</g>
<!-- n30 (0.65 &#45; 3) -->
<g id="node13" class="node"><title>n30 (0.65 &#45; 3)</title>
<ellipse fill="none" stroke="black" cx="747.84" cy="-407.876" rx="59.5901" ry="18"/>
<text text-anchor="middle" x="747.84" y="-404.176" font-family="Times,serif" font-size="14.00">n30 (0.65 &#45; 3)</text>
</g>
<!-- n31 (0.55 &#45; 7)&#45;&gt;n30 (0.65 &#45; 3) -->
<g id="edge12" class="edge"><title>n31 (0.55 &#45; 7)&#45;&gt;n30 (0.65 &#45; 3)</title>
<path fill="none" stroke="black" d="M959.407,-596.906C918.596,-560.635 820.523,-473.472 773.643,-431.808"/>
<polygon fill="black" stroke="black" points="775.842,-429.079 766.042,-425.052 771.191,-434.312 775.842,-429.079"/>
</g>
<!-- n26 (0.79 &#45; 4) -->
<g id="node18" class="node"><title>n26 (0.79 &#45; 4)</title>
<ellipse fill="none" stroke="black" cx="977.84" cy="-407.876" rx="59.5901" ry="18"/>
<text text-anchor="middle" x="977.84" y="-404.176" font-family="Times,serif" font-size="14.00">n26 (0.79 &#45; 4)</text>
</g>
<!-- n31 (0.55 &#45; 7)&#45;&gt;n26 (0.79 &#45; 4) -->
<g id="edge17" class="edge"><title>n31 (0.55 &#45; 7)&#45;&gt;n26 (0.79 &#45; 4)</title>
<path fill="none" stroke="black" d="M977.84,-596.212C977.84,-560.816 977.84,-479.178 977.84,-436.306"/>
<polygon fill="black" stroke="black" points="981.34,-436.047 977.84,-426.047 974.34,-436.047 981.34,-436.047"/>
</g>
<!-- RECALL -->
<g id="node14" class="node"><title>RECALL</title>
<ellipse fill="none" stroke="black" cx="624.84" cy="-190.856" rx="44.6926" ry="18"/>
<text text-anchor="middle" x="624.84" y="-187.156" font-family="Times,serif" font-size="14.00">RECALL</text>
</g>
<!-- n30 (0.65 &#45; 3)&#45;&gt;RECALL -->
<g id="edge13" class="edge"><title>n30 (0.65 &#45; 3)&#45;&gt;RECALL</title>
<path fill="none" stroke="black" d="M738.189,-390.004C716.723,-352.478 664.918,-261.917 639.459,-217.412"/>
<polygon fill="black" stroke="black" points="642.451,-215.592 634.447,-208.65 636.374,-219.068 642.451,-215.592"/>
</g>
<!-- n29 (0.74 &#45; 2) -->
<g id="node15" class="node"><title>n29 (0.74 &#45; 2)</title>
<ellipse fill="none" stroke="black" cx="747.84" cy="-190.856" rx="59.5901" ry="18"/>
<text text-anchor="middle" x="747.84" y="-187.156" font-family="Times,serif" font-size="14.00">n29 (0.74 &#45; 2)</text>
</g>
<!-- n30 (0.65 &#45; 3)&#45;&gt;n29 (0.74 &#45; 2) -->
<g id="edge14" class="edge"><title>n30 (0.65 &#45; 3)&#45;&gt;n29 (0.74 &#45; 2)</title>
<path fill="none" stroke="black" d="M747.84,-389.643C747.84,-352.357 747.84,-263.945 747.84,-219.04"/>
<polygon fill="black" stroke="black" points="751.34,-218.872 747.84,-208.872 744.34,-218.872 751.34,-218.872"/>
</g>
<!-- COSINE -->
<g id="node16" class="node"><title>COSINE</title>
<ellipse fill="none" stroke="black" cx="691.84" cy="-48.0833" rx="42.4939" ry="18"/>
<text text-anchor="middle" x="691.84" y="-44.3833" font-family="Times,serif" font-size="14.00">COSINE</text>
</g>
<!-- n29 (0.74 &#45; 2)&#45;&gt;COSINE -->
<g id="edge15" class="edge"><title>n29 (0.74 &#45; 2)&#45;&gt;COSINE</title>
<path fill="none" stroke="black" d="M741.085,-172.876C731.457,-148.672 713.698,-104.03 702.344,-75.4883"/>
<polygon fill="black" stroke="black" points="705.568,-74.1221 698.619,-66.124 699.063,-76.7095 705.568,-74.1221"/>
</g>
<!-- JACCARD -->
<g id="node17" class="node"><title>JACCARD</title>
<ellipse fill="none" stroke="black" cx="802.84" cy="-48.0833" rx="50.8918" ry="18"/>
<text text-anchor="middle" x="802.84" y="-44.3833" font-family="Times,serif" font-size="14.00">JACCARD</text>
</g>
<!-- n29 (0.74 &#45; 2)&#45;&gt;JACCARD -->
<g id="edge16" class="edge"><title>n29 (0.74 &#45; 2)&#45;&gt;JACCARD</title>
<path fill="none" stroke="black" d="M754.475,-172.876C763.931,-148.672 781.373,-104.03 792.524,-75.4883"/>
<polygon fill="black" stroke="black" points="795.803,-76.7121 796.182,-66.124 789.283,-74.1646 795.803,-76.7121"/>
</g>
<!-- GINI -->
<g id="node19" class="node"><title>GINI</title>
<ellipse fill="none" stroke="black" cx="854.84" cy="-190.856" rx="29.4969" ry="18"/>
<text text-anchor="middle" x="854.84" y="-187.156" font-family="Times,serif" font-size="14.00">GINI</text>
</g>
<!-- n26 (0.79 &#45; 4)&#45;&gt;GINI -->
<g id="edge18" class="edge"><title>n26 (0.79 &#45; 4)&#45;&gt;GINI</title>
<path fill="none" stroke="black" d="M968.189,-390.004C946.617,-352.293 894.407,-261.024 869.085,-216.758"/>
<polygon fill="black" stroke="black" points="872.114,-215.004 864.11,-208.062 866.038,-218.48 872.114,-215.004"/>
</g>
<!-- CHI_SQUARE\nTWO_WAY_SUPPORT_VARIATION\nJ_MEASURE -->
<g id="node20" class="node"><title>CHI_SQUARE\nTWO_WAY_SUPPORT_VARIATION\nJ_MEASURE</title>
<ellipse fill="none" stroke="black" cx="1068.84" cy="-190.856" rx="166.754" ry="37.4533"/>
<text text-anchor="middle" x="1068.84" y="-202.156" font-family="Times,serif" font-size="14.00">CHI_SQUARE</text>
<text text-anchor="middle" x="1068.84" y="-187.156" font-family="Times,serif" font-size="14.00">TWO_WAY_SUPPORT_VARIATION</text>
<text text-anchor="middle" x="1068.84" y="-172.156" font-family="Times,serif" font-size="14.00">J_MEASURE</text>
</g>
<!-- n26 (0.79 &#45; 4)&#45;&gt;CHI_SQUARE\nTWO_WAY_SUPPORT_VARIATION\nJ_MEASURE -->
<g id="edge19" class="edge"><title>n26 (0.79 &#45; 4)&#45;&gt;CHI_SQUARE\nTWO_WAY_SUPPORT_VARIATION\nJ_MEASURE</title>
<path fill="none" stroke="black" d="M984.981,-390.004C998.7,-357.586 1029.17,-285.59 1049.35,-237.898"/>
<polygon fill="black" stroke="black" points="1052.7,-238.981 1053.37,-228.408 1046.25,-236.253 1052.7,-238.981"/>
</g>
<!-- n23 (0.87 &#45; 10) -->
<g id="node22" class="node"><title>n23 (0.87 &#45; 10)</title>
<ellipse fill="none" stroke="black" cx="1313.84" cy="-407.876" rx="64.189" ry="18"/>
<text text-anchor="middle" x="1313.84" y="-404.176" font-family="Times,serif" font-size="14.00">n23 (0.87 &#45; 10)</text>
</g>
<!-- n25 (0.84 &#45; 21)&#45;&gt;n23 (0.87 &#45; 10) -->
<g id="edge21" class="edge"><title>n25 (0.84 &#45; 21)&#45;&gt;n23 (0.87 &#45; 10)</title>
<path fill="none" stroke="black" d="M1313.84,-596.212C1313.84,-560.816 1313.84,-479.178 1313.84,-436.306"/>
<polygon fill="black" stroke="black" points="1317.34,-436.047 1313.84,-426.047 1310.34,-436.047 1317.34,-436.047"/>
</g>
<!-- ZHANG\nODD_MULTIPLIER\nYULE_Y\nYULE_Q\nODDS_RATIO\nCENTERED_CONFIDENCE\nIMPLICATION_INDEX\nKAPPA\nRELATIVE_RISK\nBAYES\nLIFT -->
<g id="node27" class="node"><title>ZHANG\nODD_MULTIPLIER\nYULE_Y\nYULE_Q\nODDS_RATIO\nCENTERED_CONFIDENCE\nIMPLICATION_INDEX\nKAPPA\nRELATIVE_RISK\nBAYES\nLIFT</title>
<ellipse fill="none" stroke="black" cx="1522.84" cy="-407.876" rx="126.644" ry="122.159"/>
<text text-anchor="middle" x="1522.84" y="-479.176" font-family="Times,serif" font-size="14.00">ZHANG</text>
<text text-anchor="middle" x="1522.84" y="-464.176" font-family="Times,serif" font-size="14.00">ODD_MULTIPLIER</text>
<text text-anchor="middle" x="1522.84" y="-449.176" font-family="Times,serif" font-size="14.00">YULE_Y</text>
<text text-anchor="middle" x="1522.84" y="-434.176" font-family="Times,serif" font-size="14.00">YULE_Q</text>
<text text-anchor="middle" x="1522.84" y="-419.176" font-family="Times,serif" font-size="14.00">ODDS_RATIO</text>
<text text-anchor="middle" x="1522.84" y="-404.176" font-family="Times,serif" font-size="14.00">CENTERED_CONFIDENCE</text>
<text text-anchor="middle" x="1522.84" y="-389.176" font-family="Times,serif" font-size="14.00">IMPLICATION_INDEX</text>
<text text-anchor="middle" x="1522.84" y="-374.176" font-family="Times,serif" font-size="14.00">KAPPA</text>
<text text-anchor="middle" x="1522.84" y="-359.176" font-family="Times,serif" font-size="14.00">RELATIVE_RISK</text>
<text text-anchor="middle" x="1522.84" y="-344.176" font-family="Times,serif" font-size="14.00">BAYES</text>
<text text-anchor="middle" x="1522.84" y="-329.176" font-family="Times,serif" font-size="14.00">LIFT</text>
</g>
<!-- n25 (0.84 &#45; 21)&#45;&gt;ZHANG\nODD_MULTIPLIER\nYULE_Y\nYULE_Q\nODDS_RATIO\nCENTERED_CONFIDENCE\nIMPLICATION_INDEX\nKAPPA\nRELATIVE_RISK\nBAYES\nLIFT -->
<g id="edge26" class="edge"><title>n25 (0.84 &#45; 21)&#45;&gt;ZHANG\nODD_MULTIPLIER\nYULE_Y\nYULE_Q\nODDS_RATIO\nCENTERED_CONFIDENCE\nIMPLICATION_INDEX\nKAPPA\nRELATIVE_RISK\nBAYES\nLIFT</title>
<path fill="none" stroke="black" d="M1330.59,-596.906C1351.79,-576.167 1390.01,-538.79 1426.81,-502.793"/>
<polygon fill="black" stroke="black" points="1429.45,-505.112 1434.15,-495.618 1424.56,-500.108 1429.45,-505.112"/>
</g>
<!-- n22 (0.89 &#45; 5) -->
<g id="node23" class="node"><title>n22 (0.89 &#45; 5)</title>
<ellipse fill="none" stroke="black" cx="1313.84" cy="-190.856" rx="59.5901" ry="18"/>
<text text-anchor="middle" x="1313.84" y="-187.156" font-family="Times,serif" font-size="14.00">n22 (0.89 &#45; 5)</text>
</g>
<!-- n23 (0.87 &#45; 10)&#45;&gt;n22 (0.89 &#45; 5) -->
<g id="edge22" class="edge"><title>n23 (0.87 &#45; 10)&#45;&gt;n22 (0.89 &#45; 5)</title>
<path fill="none" stroke="black" d="M1313.84,-389.643C1313.84,-352.357 1313.84,-263.945 1313.84,-219.04"/>
<polygon fill="black" stroke="black" points="1317.34,-218.872 1313.84,-208.872 1310.34,-218.872 1317.34,-218.872"/>
</g>
<!-- ONE_WAY_SUPPORT\nADDED_VALUE\nLOEVINGER\nCONVICTION\nCERTAINTY_FACTOR -->
<g id="node26" class="node"><title>ONE_WAY_SUPPORT\nADDED_VALUE\nLOEVINGER\nCONVICTION\nCERTAINTY_FACTOR</title>
<ellipse fill="none" stroke="black" cx="1499.84" cy="-190.856" rx="108.375" ry="58.8803"/>
<text text-anchor="middle" x="1499.84" y="-217.156" font-family="Times,serif" font-size="14.00">ONE_WAY_SUPPORT</text>
<text text-anchor="middle" x="1499.84" y="-202.156" font-family="Times,serif" font-size="14.00">ADDED_VALUE</text>
<text text-anchor="middle" x="1499.84" y="-187.156" font-family="Times,serif" font-size="14.00">LOEVINGER</text>
<text text-anchor="middle" x="1499.84" y="-172.156" font-family="Times,serif" font-size="14.00">CONVICTION</text>
<text text-anchor="middle" x="1499.84" y="-157.156" font-family="Times,serif" font-size="14.00">CERTAINTY_FACTOR</text>
</g>
<!-- n23 (0.87 &#45; 10)&#45;&gt;ONE_WAY_SUPPORT\nADDED_VALUE\nLOEVINGER\nCONVICTION\nCERTAINTY_FACTOR -->
<g id="edge25" class="edge"><title>n23 (0.87 &#45; 10)&#45;&gt;ONE_WAY_SUPPORT\nADDED_VALUE\nLOEVINGER\nCONVICTION\nCERTAINTY_FACTOR</title>
<path fill="none" stroke="black" d="M1321.89,-389.605C1333.89,-364.938 1358.15,-318.914 1386.84,-285.546 1399.04,-271.361 1413.53,-257.607 1428,-245.204"/>
<polygon fill="black" stroke="black" points="1430.62,-247.573 1436.02,-238.458 1426.11,-242.216 1430.62,-247.573"/>
</g>
<!-- KLOSGEN -->
<g id="node24" class="node"><title>KLOSGEN</title>
<ellipse fill="none" stroke="black" cx="1223.84" cy="-48.0833" rx="51.9908" ry="18"/>
<text text-anchor="middle" x="1223.84" y="-44.3833" font-family="Times,serif" font-size="14.00">KLOSGEN</text>
</g>
<!-- n22 (0.89 &#45; 5)&#45;&gt;KLOSGEN -->
<g id="edge23" class="edge"><title>n22 (0.89 &#45; 5)&#45;&gt;KLOSGEN</title>
<path fill="none" stroke="black" d="M1302.98,-172.876C1287.38,-148.461 1258.47,-103.249 1240.25,-74.7442"/>
<polygon fill="black" stroke="black" points="1243.07,-72.664 1234.73,-66.124 1237.17,-76.4346 1243.07,-72.664"/>
</g>
<!-- FISHER_PVAL\nPHI\nTWO_WAY_SUPPORT\nPIATETSKY_SHAPIRO -->
<g id="node25" class="node"><title>FISHER_PVAL\nPHI\nTWO_WAY_SUPPORT\nPIATETSKY_SHAPIRO</title>
<ellipse fill="none" stroke="black" cx="1403.84" cy="-48.0833" rx="109.703" ry="48.1667"/>
<text text-anchor="middle" x="1403.84" y="-66.8833" font-family="Times,serif" font-size="14.00">FISHER_PVAL</text>
<text text-anchor="middle" x="1403.84" y="-51.8833" font-family="Times,serif" font-size="14.00">PHI</text>
<text text-anchor="middle" x="1403.84" y="-36.8833" font-family="Times,serif" font-size="14.00">TWO_WAY_SUPPORT</text>
<text text-anchor="middle" x="1403.84" y="-21.8833" font-family="Times,serif" font-size="14.00">PIATETSKY_SHAPIRO</text>
</g>
<!-- n22 (0.89 &#45; 5)&#45;&gt;FISHER_PVAL\nPHI\nTWO_WAY_SUPPORT\nPIATETSKY_SHAPIRO -->
<g id="edge24" class="edge"><title>n22 (0.89 &#45; 5)&#45;&gt;FISHER_PVAL\nPHI\nTWO_WAY_SUPPORT\nPIATETSKY_SHAPIRO</title>
<path fill="none" stroke="black" d="M1324.7,-172.876C1335.74,-155.606 1353.43,-127.931 1369.29,-103.124"/>
<polygon fill="black" stroke="black" points="1372.37,-104.801 1374.81,-94.4907 1366.47,-101.031 1372.37,-104.801"/>
</g>
</g>
</svg>
