<?xml version="1.0" encoding="UTF-8" standalone="no"?>
<!DOCTYPE svg PUBLIC "-//W3C//DTD SVG 1.1//EN"
 "http://www.w3.org/Graphics/SVG/1.1/DTD/svg11.dtd">
<!-- Generated by graphviz version 2.38.0 (20140413.2041)
 -->
<!-- Title: dendrogram Pages: 1 -->
<svg width="2486pt" height="861pt"
 viewBox="0.00 0.00 2485.72 860.67" xmlns="http://www.w3.org/2000/svg" xmlns:xlink="http://www.w3.org/1999/xlink">
<g id="graph0" class="graph" transform="scale(1 1) rotate(0) translate(4 856.666)">
<title>dendrogram</title>
<polygon fill="white" stroke="none" points="-4,4 -4,-856.666 2481.72,-856.666 2481.72,4 -4,4"/>
<!-- n34 (0.00 &#45; 36) -->
<g id="node1" class="node"><title>n34 (0.00 &#45; 36)</title>
<ellipse fill="none" stroke="black" cx="714.84" cy="-834.666" rx="64.189" ry="18"/>
<text text-anchor="middle" x="714.84" y="-830.966" font-family="Times,serif" font-size="14.00">n34 (0.00 &#45; 36)</text>
</g>
<!-- n32 (0.02 &#45; 12) -->
<g id="node2" class="node"><title>n32 (0.02 &#45; 12)</title>
<ellipse fill="none" stroke="black" cx="520.84" cy="-762.666" rx="64.189" ry="18"/>
<text text-anchor="middle" x="520.84" y="-758.966" font-family="Times,serif" font-size="14.00">n32 (0.02 &#45; 12)</text>
</g>
<!-- n34 (0.00 &#45; 36)&#45;&gt;n32 (0.02 &#45; 12) -->
<g id="edge1" class="edge"><title>n34 (0.00 &#45; 36)&#45;&gt;n32 (0.02 &#45; 12)</title>
<path fill="none" stroke="black" d="M676.975,-820.003C645.862,-808.777 601.626,-792.815 568.177,-780.746"/>
<polygon fill="black" stroke="black" points="569.205,-777.396 558.61,-777.295 566.829,-783.981 569.205,-777.396"/>
</g>
<!-- n33 (0.01 &#45; 24) -->
<g id="node11" class="node"><title>n33 (0.01 &#45; 24)</title>
<ellipse fill="none" stroke="black" cx="908.84" cy="-762.666" rx="64.189" ry="18"/>
<text text-anchor="middle" x="908.84" y="-758.966" font-family="Times,serif" font-size="14.00">n33 (0.01 &#45; 24)</text>
</g>
<!-- n34 (0.00 &#45; 36)&#45;&gt;n33 (0.01 &#45; 24) -->
<g id="edge10" class="edge"><title>n34 (0.00 &#45; 36)&#45;&gt;n33 (0.01 &#45; 24)</title>
<path fill="none" stroke="black" d="M752.706,-820.003C783.818,-808.777 828.055,-792.815 861.503,-780.746"/>
<polygon fill="black" stroke="black" points="862.852,-783.981 871.07,-777.295 860.476,-777.396 862.852,-783.981"/>
</g>
<!-- n30 (0.17 &#45; 3) -->
<g id="node3" class="node"><title>n30 (0.17 &#45; 3)</title>
<ellipse fill="none" stroke="black" cx="295.84" cy="-690.666" rx="59.5901" ry="18"/>
<text text-anchor="middle" x="295.84" y="-686.966" font-family="Times,serif" font-size="14.00">n30 (0.17 &#45; 3)</text>
</g>
<!-- n32 (0.02 &#45; 12)&#45;&gt;n30 (0.17 &#45; 3) -->
<g id="edge2" class="edge"><title>n32 (0.02 &#45; 12)&#45;&gt;n30 (0.17 &#45; 3)</title>
<path fill="none" stroke="black" d="M479.572,-748.827C441.833,-737.086 385.925,-719.693 345.701,-707.178"/>
<polygon fill="black" stroke="black" points="346.678,-703.817 336.09,-704.188 344.599,-710.501 346.678,-703.817"/>
</g>
<!-- n29 (0.22 &#45; 9) -->
<g id="node8" class="node"><title>n29 (0.22 &#45; 9)</title>
<ellipse fill="none" stroke="black" cx="520.84" cy="-690.666" rx="59.5901" ry="18"/>
<text text-anchor="middle" x="520.84" y="-686.966" font-family="Times,serif" font-size="14.00">n29 (0.22 &#45; 9)</text>
</g>
<!-- n32 (0.02 &#45; 12)&#45;&gt;n29 (0.22 &#45; 9) -->
<g id="edge7" class="edge"><title>n32 (0.02 &#45; 12)&#45;&gt;n29 (0.22 &#45; 9)</title>
<path fill="none" stroke="black" d="M520.84,-744.363C520.84,-736.649 520.84,-727.379 520.84,-718.779"/>
<polygon fill="black" stroke="black" points="524.34,-718.77 520.84,-708.77 517.34,-718.77 524.34,-718.77"/>
</g>
<!-- RECALL -->
<g id="node4" class="node"><title>RECALL</title>
<ellipse fill="none" stroke="black" cx="172.84" cy="-546.156" rx="44.6926" ry="18"/>
<text text-anchor="middle" x="172.84" y="-542.456" font-family="Times,serif" font-size="14.00">RECALL</text>
</g>
<!-- n30 (0.17 &#45; 3)&#45;&gt;RECALL -->
<g id="edge3" class="edge"><title>n30 (0.17 &#45; 3)&#45;&gt;RECALL</title>
<path fill="none" stroke="black" d="M271.331,-674.204C257.244,-664.54 239.825,-651.195 226.84,-636.666 209.642,-617.422 194.887,-591.936 185.169,-573.082"/>
<polygon fill="black" stroke="black" points="188.172,-571.264 180.559,-563.896 181.916,-574.403 188.172,-571.264"/>
</g>
<!-- n25 (0.36 &#45; 2) -->
<g id="node5" class="node"><title>n25 (0.36 &#45; 2)</title>
<ellipse fill="none" stroke="black" cx="295.84" cy="-546.156" rx="59.5901" ry="18"/>
<text text-anchor="middle" x="295.84" y="-542.456" font-family="Times,serif" font-size="14.00">n25 (0.36 &#45; 2)</text>
</g>
<!-- n30 (0.17 &#45; 3)&#45;&gt;n25 (0.36 &#45; 2) -->
<g id="edge4" class="edge"><title>n30 (0.17 &#45; 3)&#45;&gt;n25 (0.36 &#45; 2)</title>
<path fill="none" stroke="black" d="M295.84,-672.476C295.84,-648.188 295.84,-603.569 295.84,-574.648"/>
<polygon fill="black" stroke="black" points="299.34,-574.407 295.84,-564.407 292.34,-574.407 299.34,-574.407"/>
</g>
<!-- COLLECTIVE_STRENGH -->
<g id="node6" class="node"><title>COLLECTIVE_STRENGH</title>
<ellipse fill="none" stroke="black" cx="109.84" cy="-371.563" rx="109.681" ry="18"/>
<text text-anchor="middle" x="109.84" y="-367.863" font-family="Times,serif" font-size="14.00">COLLECTIVE_STRENGH</text>
</g>
<!-- n25 (0.36 &#45; 2)&#45;&gt;COLLECTIVE_STRENGH -->
<g id="edge5" class="edge"><title>n25 (0.36 &#45; 2)&#45;&gt;COLLECTIVE_STRENGH</title>
<path fill="none" stroke="black" d="M284.958,-528.116C272.361,-509.156 250.319,-478.222 226.84,-455.647 202.369,-432.118 170.8,-410.097 146.622,-394.646"/>
<polygon fill="black" stroke="black" points="148.402,-391.63 138.076,-389.259 144.67,-397.552 148.402,-391.63"/>
</g>
<!-- SPECIFICITY -->
<g id="node7" class="node"><title>SPECIFICITY</title>
<ellipse fill="none" stroke="black" cx="300.84" cy="-371.563" rx="63.0888" ry="18"/>
<text text-anchor="middle" x="300.84" y="-367.863" font-family="Times,serif" font-size="14.00">SPECIFICITY</text>
</g>
<!-- n25 (0.36 &#45; 2)&#45;&gt;SPECIFICITY -->
<g id="edge6" class="edge"><title>n25 (0.36 &#45; 2)&#45;&gt;SPECIFICITY</title>
<path fill="none" stroke="black" d="M296.338,-527.977C297.207,-497.995 299.006,-435.894 300.047,-399.931"/>
<polygon fill="black" stroke="black" points="303.553,-399.771 300.345,-389.674 296.556,-399.568 303.553,-399.771"/>
</g>
<!-- ACCURACY -->
<g id="node9" class="node"><title>ACCURACY</title>
<ellipse fill="none" stroke="black" cx="433.84" cy="-546.156" rx="59.5901" ry="18"/>
<text text-anchor="middle" x="433.84" y="-542.456" font-family="Times,serif" font-size="14.00">ACCURACY</text>
</g>
<!-- n29 (0.22 &#45; 9)&#45;&gt;ACCURACY -->
<g id="edge8" class="edge"><title>n29 (0.22 &#45; 9)&#45;&gt;ACCURACY</title>
<path fill="none" stroke="black" d="M510.519,-672.759C495.41,-648.01 467.154,-601.725 449.484,-572.781"/>
<polygon fill="black" stroke="black" points="452.346,-570.753 444.149,-564.042 446.372,-574.401 452.346,-570.753"/>
</g>
<!-- RELATIVE_RISK\nYULE_Y\nYULE_Q\nODDS_RATIO\nLIFT\nZHANG\nODD_MULTIPLIER\nBAYES -->
<g id="node10" class="node"><title>RELATIVE_RISK\nYULE_Y\nYULE_Q\nODDS_RATIO\nLIFT\nZHANG\nODD_MULTIPLIER\nBAYES</title>
<ellipse fill="none" stroke="black" cx="606.84" cy="-546.156" rx="94.5053" ry="90.5193"/>
<text text-anchor="middle" x="606.84" y="-594.956" font-family="Times,serif" font-size="14.00">RELATIVE_RISK</text>
<text text-anchor="middle" x="606.84" y="-579.956" font-family="Times,serif" font-size="14.00">YULE_Y</text>
<text text-anchor="middle" x="606.84" y="-564.956" font-family="Times,serif" font-size="14.00">YULE_Q</text>
<text text-anchor="middle" x="606.84" y="-549.956" font-family="Times,serif" font-size="14.00">ODDS_RATIO</text>
<text text-anchor="middle" x="606.84" y="-534.956" font-family="Times,serif" font-size="14.00">LIFT</text>
<text text-anchor="middle" x="606.84" y="-519.956" font-family="Times,serif" font-size="14.00">ZHANG</text>
<text text-anchor="middle" x="606.84" y="-504.956" font-family="Times,serif" font-size="14.00">ODD_MULTIPLIER</text>
<text text-anchor="middle" x="606.84" y="-489.956" font-family="Times,serif" font-size="14.00">BAYES</text>
</g>
<!-- n29 (0.22 &#45; 9)&#45;&gt;RELATIVE_RISK\nYULE_Y\nYULE_Q\nODDS_RATIO\nLIFT\nZHANG\nODD_MULTIPLIER\nBAYES -->
<g id="edge9" class="edge"><title>n29 (0.22 &#45; 9)&#45;&gt;RELATIVE_RISK\nYULE_Y\nYULE_Q\nODDS_RATIO\nLIFT\nZHANG\nODD_MULTIPLIER\nBAYES</title>
<path fill="none" stroke="black" d="M531.043,-672.759C537.217,-662.528 545.613,-648.616 554.571,-633.771"/>
<polygon fill="black" stroke="black" points="557.728,-635.313 559.899,-624.943 551.735,-631.696 557.728,-635.313"/>
</g>
<!-- n31 (0.03 &#45; 11) -->
<g id="node12" class="node"><title>n31 (0.03 &#45; 11)</title>
<ellipse fill="none" stroke="black" cx="908.84" cy="-690.666" rx="64.189" ry="18"/>
<text text-anchor="middle" x="908.84" y="-686.966" font-family="Times,serif" font-size="14.00">n31 (0.03 &#45; 11)</text>
</g>
<!-- n33 (0.01 &#45; 24)&#45;&gt;n31 (0.03 &#45; 11) -->
<g id="edge11" class="edge"><title>n33 (0.01 &#45; 24)&#45;&gt;n31 (0.03 &#45; 11)</title>
<path fill="none" stroke="black" d="M908.84,-744.363C908.84,-736.649 908.84,-727.379 908.84,-718.779"/>
<polygon fill="black" stroke="black" points="912.34,-718.77 908.84,-708.77 905.34,-718.77 912.34,-718.77"/>
</g>
<!-- n28 (0.22 &#45; 13) -->
<g id="node23" class="node"><title>n28 (0.22 &#45; 13)</title>
<ellipse fill="none" stroke="black" cx="1391.84" cy="-690.666" rx="64.189" ry="18"/>
<text text-anchor="middle" x="1391.84" y="-686.966" font-family="Times,serif" font-size="14.00">n28 (0.22 &#45; 13)</text>
</g>
<!-- n33 (0.01 &#45; 24)&#45;&gt;n28 (0.22 &#45; 13) -->
<g id="edge22" class="edge"><title>n33 (0.01 &#45; 24)&#45;&gt;n28 (0.22 &#45; 13)</title>
<path fill="none" stroke="black" d="M964.718,-753.568C1054.45,-740.564 1230.26,-715.084 1325.96,-701.214"/>
<polygon fill="black" stroke="black" points="1326.7,-704.644 1336.09,-699.745 1325.69,-697.716 1326.7,-704.644"/>
</g>
<!-- n27 (0.28 &#45; 5) -->
<g id="node13" class="node"><title>n27 (0.28 &#45; 5)</title>
<ellipse fill="none" stroke="black" cx="779.84" cy="-546.156" rx="59.5901" ry="18"/>
<text text-anchor="middle" x="779.84" y="-542.456" font-family="Times,serif" font-size="14.00">n27 (0.28 &#45; 5)</text>
</g>
<!-- n31 (0.03 &#45; 11)&#45;&gt;n27 (0.28 &#45; 5) -->
<g id="edge12" class="edge"><title>n31 (0.03 &#45; 11)&#45;&gt;n27 (0.28 &#45; 5)</title>
<path fill="none" stroke="black" d="M893.79,-673.04C871.069,-647.939 827.889,-600.237 801.7,-571.305"/>
<polygon fill="black" stroke="black" points="804.101,-568.742 794.795,-563.677 798.911,-573.44 804.101,-568.742"/>
</g>
<!-- n26 (0.34 &#45; 6) -->
<g id="node16" class="node"><title>n26 (0.34 &#45; 6)</title>
<ellipse fill="none" stroke="black" cx="1037.84" cy="-546.156" rx="59.5901" ry="18"/>
<text text-anchor="middle" x="1037.84" y="-542.456" font-family="Times,serif" font-size="14.00">n26 (0.34 &#45; 6)</text>
</g>
<!-- n31 (0.03 &#45; 11)&#45;&gt;n26 (0.34 &#45; 6) -->
<g id="edge15" class="edge"><title>n31 (0.03 &#45; 11)&#45;&gt;n26 (0.34 &#45; 6)</title>
<path fill="none" stroke="black" d="M923.891,-673.04C946.611,-647.939 989.792,-600.237 1015.98,-571.305"/>
<polygon fill="black" stroke="black" points="1018.77,-573.44 1022.89,-563.677 1013.58,-568.742 1018.77,-573.44"/>
</g>
<!-- LEAST_CONTRADICTION -->
<g id="node14" class="node"><title>LEAST_CONTRADICTION</title>
<ellipse fill="none" stroke="black" cx="504.84" cy="-371.563" rx="114.28" ry="18"/>
<text text-anchor="middle" x="504.84" y="-367.863" font-family="Times,serif" font-size="14.00">LEAST_CONTRADICTION</text>
</g>
<!-- n27 (0.28 &#45; 5)&#45;&gt;LEAST_CONTRADICTION -->
<g id="edge13" class="edge"><title>n27 (0.28 &#45; 5)&#45;&gt;LEAST_CONTRADICTION</title>
<path fill="none" stroke="black" d="M770.505,-528.111C758.871,-508.272 737.264,-475.681 710.84,-455.647 704.254,-450.653 614.087,-415.081 555.249,-392.129"/>
<polygon fill="black" stroke="black" points="556.322,-388.791 545.733,-388.421 553.78,-395.313 556.322,-388.791"/>
</g>
<!-- LEVERAGE\nCOUNTER_EXAMPLE_RATE\nSEBAG_SCHOENAUER\nCONFIDENCE -->
<g id="node15" class="node"><title>LEVERAGE\nCOUNTER_EXAMPLE_RATE\nSEBAG_SCHOENAUER\nCONFIDENCE</title>
<ellipse fill="none" stroke="black" cx="774.84" cy="-371.563" rx="137.358" ry="48.1667"/>
<text text-anchor="middle" x="774.84" y="-390.363" font-family="Times,serif" font-size="14.00">LEVERAGE</text>
<text text-anchor="middle" x="774.84" y="-375.363" font-family="Times,serif" font-size="14.00">COUNTER_EXAMPLE_RATE</text>
<text text-anchor="middle" x="774.84" y="-360.363" font-family="Times,serif" font-size="14.00">SEBAG_SCHOENAUER</text>
<text text-anchor="middle" x="774.84" y="-345.363" font-family="Times,serif" font-size="14.00">CONFIDENCE</text>
</g>
<!-- n27 (0.28 &#45; 5)&#45;&gt;LEVERAGE\nCOUNTER_EXAMPLE_RATE\nSEBAG_SCHOENAUER\nCONFIDENCE -->
<g id="edge14" class="edge"><title>n27 (0.28 &#45; 5)&#45;&gt;LEVERAGE\nCOUNTER_EXAMPLE_RATE\nSEBAG_SCHOENAUER\nCONFIDENCE</title>
<path fill="none" stroke="black" d="M779.343,-527.977C778.687,-505.336 777.5,-464.379 776.51,-430.193"/>
<polygon fill="black" stroke="black" points="779.998,-429.723 776.21,-419.829 773.001,-429.926 779.998,-429.723"/>
</g>
<!-- LOEVINGER\nCONVICTION\nCERTAINTY_FACTOR -->
<g id="node17" class="node"><title>LOEVINGER\nCONVICTION\nCERTAINTY_FACTOR</title>
<ellipse fill="none" stroke="black" cx="1037.84" cy="-371.563" rx="108.375" ry="37.4533"/>
<text text-anchor="middle" x="1037.84" y="-382.863" font-family="Times,serif" font-size="14.00">LOEVINGER</text>
<text text-anchor="middle" x="1037.84" y="-367.863" font-family="Times,serif" font-size="14.00">CONVICTION</text>
<text text-anchor="middle" x="1037.84" y="-352.863" font-family="Times,serif" font-size="14.00">CERTAINTY_FACTOR</text>
</g>
<!-- n26 (0.34 &#45; 6)&#45;&gt;LOEVINGER\nCONVICTION\nCERTAINTY_FACTOR -->
<g id="edge16" class="edge"><title>n26 (0.34 &#45; 6)&#45;&gt;LOEVINGER\nCONVICTION\nCERTAINTY_FACTOR</title>
<path fill="none" stroke="black" d="M1037.84,-527.977C1037.84,-502.911 1037.84,-455.392 1037.84,-419.469"/>
<polygon fill="black" stroke="black" points="1041.34,-419.202 1037.84,-409.202 1034.34,-419.202 1041.34,-419.202"/>
</g>
<!-- n18 (0.66 &#45; 3) -->
<g id="node18" class="node"><title>n18 (0.66 &#45; 3)</title>
<ellipse fill="none" stroke="black" cx="1223.84" cy="-371.563" rx="59.5901" ry="18"/>
<text text-anchor="middle" x="1223.84" y="-367.863" font-family="Times,serif" font-size="14.00">n18 (0.66 &#45; 3)</text>
</g>
<!-- n26 (0.34 &#45; 6)&#45;&gt;n18 (0.66 &#45; 3) -->
<g id="edge17" class="edge"><title>n26 (0.34 &#45; 6)&#45;&gt;n18 (0.66 &#45; 3)</title>
<path fill="none" stroke="black" d="M1055.34,-528.919C1088.43,-498.209 1160.31,-431.517 1198.61,-395.971"/>
<polygon fill="black" stroke="black" points="1201.3,-398.251 1206.25,-388.883 1196.54,-393.12 1201.3,-398.251"/>
</g>
<!-- ONE_WAY_SUPPORT -->
<g id="node19" class="node"><title>ONE_WAY_SUPPORT</title>
<ellipse fill="none" stroke="black" cx="1066.84" cy="-269.48" rx="97.4827" ry="18"/>
<text text-anchor="middle" x="1066.84" y="-265.78" font-family="Times,serif" font-size="14.00">ONE_WAY_SUPPORT</text>
</g>
<!-- n18 (0.66 &#45; 3)&#45;&gt;ONE_WAY_SUPPORT -->
<g id="edge18" class="edge"><title>n18 (0.66 &#45; 3)&#45;&gt;ONE_WAY_SUPPORT</title>
<path fill="none" stroke="black" d="M1201.37,-354.757C1187.98,-345.459 1170.59,-333.583 1154.84,-323.48 1138.28,-312.853 1119.64,-301.541 1103.8,-292.108"/>
<polygon fill="black" stroke="black" points="1105.22,-288.88 1094.83,-286.791 1101.65,-294.901 1105.22,-288.88"/>
</g>
<!-- n16 (0.81 &#45; 2) -->
<g id="node20" class="node"><title>n16 (0.81 &#45; 2)</title>
<ellipse fill="none" stroke="black" cx="1241.84" cy="-269.48" rx="59.5901" ry="18"/>
<text text-anchor="middle" x="1241.84" y="-265.78" font-family="Times,serif" font-size="14.00">n16 (0.81 &#45; 2)</text>
</g>
<!-- n18 (0.66 &#45; 3)&#45;&gt;n16 (0.81 &#45; 2) -->
<g id="edge19" class="edge"><title>n18 (0.66 &#45; 3)&#45;&gt;n16 (0.81 &#45; 2)</title>
<path fill="none" stroke="black" d="M1226.89,-353.586C1229.66,-338.201 1233.78,-315.27 1237,-297.39"/>
<polygon fill="black" stroke="black" points="1240.45,-298.003 1238.77,-287.541 1233.56,-296.764 1240.45,-298.003"/>
</g>
<!-- CENTERED_CONFIDENCE -->
<g id="node21" class="node"><title>CENTERED_CONFIDENCE</title>
<ellipse fill="none" stroke="black" cx="1136.84" cy="-197.48" rx="116.18" ry="18"/>
<text text-anchor="middle" x="1136.84" y="-193.78" font-family="Times,serif" font-size="14.00">CENTERED_CONFIDENCE</text>
</g>
<!-- n16 (0.81 &#45; 2)&#45;&gt;CENTERED_CONFIDENCE -->
<g id="edge20" class="edge"><title>n16 (0.81 &#45; 2)&#45;&gt;CENTERED_CONFIDENCE</title>
<path fill="none" stroke="black" d="M1218.28,-252.771C1204.09,-243.316 1185.81,-231.129 1170.17,-220.699"/>
<polygon fill="black" stroke="black" points="1172.05,-217.748 1161.79,-215.113 1168.17,-223.572 1172.05,-217.748"/>
</g>
<!-- ADDED_VALUE -->
<g id="node22" class="node"><title>ADDED_VALUE</title>
<ellipse fill="none" stroke="black" cx="1346.84" cy="-197.48" rx="75.2868" ry="18"/>
<text text-anchor="middle" x="1346.84" y="-193.78" font-family="Times,serif" font-size="14.00">ADDED_VALUE</text>
</g>
<!-- n16 (0.81 &#45; 2)&#45;&gt;ADDED_VALUE -->
<g id="edge21" class="edge"><title>n16 (0.81 &#45; 2)&#45;&gt;ADDED_VALUE</title>
<path fill="none" stroke="black" d="M1265.4,-252.771C1279.79,-243.18 1298.39,-230.778 1314.19,-220.25"/>
<polygon fill="black" stroke="black" points="1316.25,-223.082 1322.63,-214.623 1312.36,-217.258 1316.25,-223.082"/>
</g>
<!-- n17 (0.72 &#45; 2) -->
<g id="node24" class="node"><title>n17 (0.72 &#45; 2)</title>
<ellipse fill="none" stroke="black" cx="1391.84" cy="-546.156" rx="59.5901" ry="18"/>
<text text-anchor="middle" x="1391.84" y="-542.456" font-family="Times,serif" font-size="14.00">n17 (0.72 &#45; 2)</text>
</g>
<!-- n28 (0.22 &#45; 13)&#45;&gt;n17 (0.72 &#45; 2) -->
<g id="edge23" class="edge"><title>n28 (0.22 &#45; 13)&#45;&gt;n17 (0.72 &#45; 2)</title>
<path fill="none" stroke="black" d="M1391.84,-672.476C1391.84,-648.188 1391.84,-603.569 1391.84,-574.648"/>
<polygon fill="black" stroke="black" points="1395.34,-574.407 1391.84,-564.407 1388.34,-574.407 1395.34,-574.407"/>
</g>
<!-- n24 (0.40 &#45; 11) -->
<g id="node27" class="node"><title>n24 (0.40 &#45; 11)</title>
<ellipse fill="none" stroke="black" cx="1582.84" cy="-546.156" rx="64.189" ry="18"/>
<text text-anchor="middle" x="1582.84" y="-542.456" font-family="Times,serif" font-size="14.00">n24 (0.40 &#45; 11)</text>
</g>
<!-- n28 (0.22 &#45; 13)&#45;&gt;n24 (0.40 &#45; 11) -->
<g id="edge26" class="edge"><title>n28 (0.22 &#45; 13)&#45;&gt;n24 (0.40 &#45; 11)</title>
<path fill="none" stroke="black" d="M1413.38,-673.595C1447.57,-648.082 1514.36,-598.248 1553.1,-569.347"/>
<polygon fill="black" stroke="black" points="1555.46,-571.954 1561.38,-563.168 1551.27,-566.343 1555.46,-571.954"/>
</g>
<!-- COSINE -->
<g id="node25" class="node"><title>COSINE</title>
<ellipse fill="none" stroke="black" cx="1343.84" cy="-371.563" rx="42.4939" ry="18"/>
<text text-anchor="middle" x="1343.84" y="-367.863" font-family="Times,serif" font-size="14.00">COSINE</text>
</g>
<!-- n17 (0.72 &#45; 2)&#45;&gt;COSINE -->
<g id="edge24" class="edge"><title>n17 (0.72 &#45; 2)&#45;&gt;COSINE</title>
<path fill="none" stroke="black" d="M1387.06,-527.977C1378.69,-497.866 1361.3,-435.358 1351.32,-399.468"/>
<polygon fill="black" stroke="black" points="1354.65,-398.37 1348.6,-389.674 1347.91,-400.246 1354.65,-398.37"/>
</g>
<!-- JACCARD -->
<g id="node26" class="node"><title>JACCARD</title>
<ellipse fill="none" stroke="black" cx="1454.84" cy="-371.563" rx="50.8918" ry="18"/>
<text text-anchor="middle" x="1454.84" y="-367.863" font-family="Times,serif" font-size="14.00">JACCARD</text>
</g>
<!-- n17 (0.72 &#45; 2)&#45;&gt;JACCARD -->
<g id="edge25" class="edge"><title>n17 (0.72 &#45; 2)&#45;&gt;JACCARD</title>
<path fill="none" stroke="black" d="M1398.11,-527.977C1409.1,-497.866 1431.92,-435.358 1445.02,-399.468"/>
<polygon fill="black" stroke="black" points="1448.45,-400.268 1448.59,-389.674 1441.88,-397.867 1448.45,-400.268"/>
</g>
<!-- n23 (0.44 &#45; 2) -->
<g id="node28" class="node"><title>n23 (0.44 &#45; 2)</title>
<ellipse fill="none" stroke="black" cx="1582.84" cy="-371.563" rx="59.5901" ry="18"/>
<text text-anchor="middle" x="1582.84" y="-367.863" font-family="Times,serif" font-size="14.00">n23 (0.44 &#45; 2)</text>
</g>
<!-- n24 (0.40 &#45; 11)&#45;&gt;n23 (0.44 &#45; 2) -->
<g id="edge27" class="edge"><title>n24 (0.40 &#45; 11)&#45;&gt;n23 (0.44 &#45; 2)</title>
<path fill="none" stroke="black" d="M1582.84,-527.977C1582.84,-497.995 1582.84,-435.894 1582.84,-399.931"/>
<polygon fill="black" stroke="black" points="1586.34,-399.674 1582.84,-389.674 1579.34,-399.674 1586.34,-399.674"/>
</g>
<!-- n22 (0.46 &#45; 9) -->
<g id="node31" class="node"><title>n22 (0.46 &#45; 9)</title>
<ellipse fill="none" stroke="black" cx="1720.84" cy="-371.563" rx="59.5901" ry="18"/>
<text text-anchor="middle" x="1720.84" y="-367.863" font-family="Times,serif" font-size="14.00">n22 (0.46 &#45; 9)</text>
</g>
<!-- n24 (0.40 &#45; 11)&#45;&gt;n22 (0.46 &#45; 9) -->
<g id="edge30" class="edge"><title>n24 (0.40 &#45; 11)&#45;&gt;n22 (0.46 &#45; 9)</title>
<path fill="none" stroke="black" d="M1596.32,-528.293C1620.81,-497.668 1672.68,-432.793 1701.14,-397.203"/>
<polygon fill="black" stroke="black" points="1703.99,-399.237 1707.51,-389.241 1698.53,-394.866 1703.99,-399.237"/>
</g>
<!-- IMPLICATION_INDEX -->
<g id="node29" class="node"><title>IMPLICATION_INDEX</title>
<ellipse fill="none" stroke="black" cx="1437.84" cy="-269.48" rx="100.182" ry="18"/>
<text text-anchor="middle" x="1437.84" y="-265.78" font-family="Times,serif" font-size="14.00">IMPLICATION_INDEX</text>
</g>
<!-- n23 (0.44 &#45; 2)&#45;&gt;IMPLICATION_INDEX -->
<g id="edge28" class="edge"><title>n23 (0.44 &#45; 2)&#45;&gt;IMPLICATION_INDEX</title>
<path fill="none" stroke="black" d="M1560.18,-354.853C1546.97,-345.693 1529.97,-333.922 1514.84,-323.48 1500.38,-313.497 1484.38,-302.477 1470.72,-293.083"/>
<polygon fill="black" stroke="black" points="1472.35,-289.956 1462.13,-287.172 1468.38,-295.723 1472.35,-289.956"/>
</g>
<!-- KAPPA -->
<g id="node30" class="node"><title>KAPPA</title>
<ellipse fill="none" stroke="black" cx="1595.84" cy="-269.48" rx="39.7935" ry="18"/>
<text text-anchor="middle" x="1595.84" y="-265.78" font-family="Times,serif" font-size="14.00">KAPPA</text>
</g>
<!-- n23 (0.44 &#45; 2)&#45;&gt;KAPPA -->
<g id="edge29" class="edge"><title>n23 (0.44 &#45; 2)&#45;&gt;KAPPA</title>
<path fill="none" stroke="black" d="M1585.1,-353.13C1587.08,-337.918 1589.98,-315.585 1592.27,-297.968"/>
<polygon fill="black" stroke="black" points="1595.78,-298.081 1593.6,-287.714 1588.84,-297.179 1595.78,-298.081"/>
</g>
<!-- GINI -->
<g id="node32" class="node"><title>GINI</title>
<ellipse fill="none" stroke="black" cx="1707.84" cy="-269.48" rx="29.4969" ry="18"/>
<text text-anchor="middle" x="1707.84" y="-265.78" font-family="Times,serif" font-size="14.00">GINI</text>
</g>
<!-- n22 (0.46 &#45; 9)&#45;&gt;GINI -->
<g id="edge31" class="edge"><title>n22 (0.46 &#45; 9)&#45;&gt;GINI</title>
<path fill="none" stroke="black" d="M1718.58,-353.13C1716.6,-337.918 1713.7,-315.585 1711.41,-297.968"/>
<polygon fill="black" stroke="black" points="1714.84,-297.179 1710.08,-287.714 1707.9,-298.081 1714.84,-297.179"/>
</g>
<!-- n21 (0.52 &#45; 8) -->
<g id="node33" class="node"><title>n21 (0.52 &#45; 8)</title>
<ellipse fill="none" stroke="black" cx="1814.84" cy="-269.48" rx="59.5901" ry="18"/>
<text text-anchor="middle" x="1814.84" y="-265.78" font-family="Times,serif" font-size="14.00">n21 (0.52 &#45; 8)</text>
</g>
<!-- n22 (0.46 &#45; 9)&#45;&gt;n21 (0.52 &#45; 8) -->
<g id="edge32" class="edge"><title>n22 (0.46 &#45; 9)&#45;&gt;n21 (0.52 &#45; 8)</title>
<path fill="none" stroke="black" d="M1736.36,-354.037C1751.6,-337.811 1775.01,-312.885 1792.3,-294.477"/>
<polygon fill="black" stroke="black" points="1795,-296.717 1799.3,-287.031 1789.9,-291.925 1795,-296.717"/>
</g>
<!-- n19 (0.65 &#45; 3) -->
<g id="node34" class="node"><title>n19 (0.65 &#45; 3)</title>
<ellipse fill="none" stroke="black" cx="1720.84" cy="-197.48" rx="59.5901" ry="18"/>
<text text-anchor="middle" x="1720.84" y="-193.78" font-family="Times,serif" font-size="14.00">n19 (0.65 &#45; 3)</text>
</g>
<!-- n21 (0.52 &#45; 8)&#45;&gt;n19 (0.65 &#45; 3) -->
<g id="edge33" class="edge"><title>n21 (0.52 &#45; 8)&#45;&gt;n19 (0.65 &#45; 3)</title>
<path fill="none" stroke="black" d="M1793.51,-252.596C1780.86,-243.176 1764.63,-231.091 1750.72,-220.732"/>
<polygon fill="black" stroke="black" points="1752.52,-217.709 1742.41,-214.544 1748.34,-223.324 1752.52,-217.709"/>
</g>
<!-- n20 (0.62 &#45; 5) -->
<g id="node37" class="node"><title>n20 (0.62 &#45; 5)</title>
<ellipse fill="none" stroke="black" cx="1907.84" cy="-197.48" rx="59.5901" ry="18"/>
<text text-anchor="middle" x="1907.84" y="-193.78" font-family="Times,serif" font-size="14.00">n20 (0.62 &#45; 5)</text>
</g>
<!-- n21 (0.52 &#45; 8)&#45;&gt;n20 (0.62 &#45; 5) -->
<g id="edge36" class="edge"><title>n21 (0.52 &#45; 8)&#45;&gt;n20 (0.62 &#45; 5)</title>
<path fill="none" stroke="black" d="M1835.94,-252.596C1848.46,-243.176 1864.51,-231.091 1878.28,-220.732"/>
<polygon fill="black" stroke="black" points="1880.61,-223.354 1886.5,-214.544 1876.4,-217.761 1880.61,-223.354"/>
</g>
<!-- KLOSGEN -->
<g id="node35" class="node"><title>KLOSGEN</title>
<ellipse fill="none" stroke="black" cx="1540.84" cy="-116.61" rx="51.9908" ry="18"/>
<text text-anchor="middle" x="1540.84" y="-112.91" font-family="Times,serif" font-size="14.00">KLOSGEN</text>
</g>
<!-- n19 (0.65 &#45; 3)&#45;&gt;KLOSGEN -->
<g id="edge34" class="edge"><title>n19 (0.65 &#45; 3)&#45;&gt;KLOSGEN</title>
<path fill="none" stroke="black" d="M1688.24,-182.197C1658.09,-168.986 1613.19,-149.31 1580.87,-135.149"/>
<polygon fill="black" stroke="black" points="1582.26,-131.936 1571.69,-131.128 1579.45,-138.347 1582.26,-131.936"/>
</g>
<!-- PIATETSKY_SHAPIRO\nTWO_WAY_SUPPORT -->
<g id="node36" class="node"><title>PIATETSKY_SHAPIRO\nTWO_WAY_SUPPORT</title>
<ellipse fill="none" stroke="black" cx="1720.84" cy="-116.61" rx="109.703" ry="26.7407"/>
<text text-anchor="middle" x="1720.84" y="-120.41" font-family="Times,serif" font-size="14.00">PIATETSKY_SHAPIRO</text>
<text text-anchor="middle" x="1720.84" y="-105.41" font-family="Times,serif" font-size="14.00">TWO_WAY_SUPPORT</text>
</g>
<!-- n19 (0.65 &#45; 3)&#45;&gt;PIATETSKY_SHAPIRO\nTWO_WAY_SUPPORT -->
<g id="edge35" class="edge"><title>n19 (0.65 &#45; 3)&#45;&gt;PIATETSKY_SHAPIRO\nTWO_WAY_SUPPORT</title>
<path fill="none" stroke="black" d="M1720.84,-179.367C1720.84,-171.877 1720.84,-162.786 1720.84,-153.908"/>
<polygon fill="black" stroke="black" points="1724.34,-153.693 1720.84,-143.693 1717.34,-153.693 1724.34,-153.693"/>
</g>
<!-- n14 (0.90 &#45; 2) -->
<g id="node38" class="node"><title>n14 (0.90 &#45; 2)</title>
<ellipse fill="none" stroke="black" cx="1907.84" cy="-116.61" rx="59.5901" ry="18"/>
<text text-anchor="middle" x="1907.84" y="-112.91" font-family="Times,serif" font-size="14.00">n14 (0.90 &#45; 2)</text>
</g>
<!-- n20 (0.62 &#45; 5)&#45;&gt;n14 (0.90 &#45; 2) -->
<g id="edge37" class="edge"><title>n20 (0.62 &#45; 5)&#45;&gt;n14 (0.90 &#45; 2)</title>
<path fill="none" stroke="black" d="M1907.84,-179.367C1907.84,-169.341 1907.84,-156.446 1907.84,-145.035"/>
<polygon fill="black" stroke="black" points="1911.34,-144.69 1907.84,-134.69 1904.34,-144.69 1911.34,-144.69"/>
</g>
<!-- n15 (0.89 &#45; 3) -->
<g id="node41" class="node"><title>n15 (0.89 &#45; 3)</title>
<ellipse fill="none" stroke="black" cx="2059.84" cy="-116.61" rx="59.5901" ry="18"/>
<text text-anchor="middle" x="2059.84" y="-112.91" font-family="Times,serif" font-size="14.00">n15 (0.89 &#45; 3)</text>
</g>
<!-- n20 (0.62 &#45; 5)&#45;&gt;n15 (0.89 &#45; 3) -->
<g id="edge40" class="edge"><title>n20 (0.62 &#45; 5)&#45;&gt;n15 (0.89 &#45; 3)</title>
<path fill="none" stroke="black" d="M1936.43,-181.645C1960.66,-169.072 1995.6,-150.943 2022.12,-137.181"/>
<polygon fill="black" stroke="black" points="2023.86,-140.225 2031.12,-132.512 2020.63,-134.011 2023.86,-140.225"/>
</g>
<!-- PHI -->
<g id="node39" class="node"><title>PHI</title>
<ellipse fill="none" stroke="black" cx="1794.84" cy="-26.8701" rx="27" ry="18"/>
<text text-anchor="middle" x="1794.84" y="-23.1701" font-family="Times,serif" font-size="14.00">PHI</text>
</g>
<!-- n14 (0.90 &#45; 2)&#45;&gt;PHI -->
<g id="edge38" class="edge"><title>n14 (0.90 &#45; 2)&#45;&gt;PHI</title>
<path fill="none" stroke="black" d="M1887.11,-99.5173C1868.16,-84.7993 1840.08,-62.9953 1819.88,-47.3093"/>
<polygon fill="black" stroke="black" points="1821.79,-44.3682 1811.75,-40.9997 1817.5,-49.8972 1821.79,-44.3682"/>
</g>
<!-- FISHER_PVAL -->
<g id="node40" class="node"><title>FISHER_PVAL</title>
<ellipse fill="none" stroke="black" cx="1907.84" cy="-26.8701" rx="68.4888" ry="18"/>
<text text-anchor="middle" x="1907.84" y="-23.1701" font-family="Times,serif" font-size="14.00">FISHER_PVAL</text>
</g>
<!-- n14 (0.90 &#45; 2)&#45;&gt;FISHER_PVAL -->
<g id="edge39" class="edge"><title>n14 (0.90 &#45; 2)&#45;&gt;FISHER_PVAL</title>
<path fill="none" stroke="black" d="M1907.84,-98.2755C1907.84,-85.9384 1907.84,-69.1165 1907.84,-55.0094"/>
<polygon fill="black" stroke="black" points="1911.34,-54.8701 1907.84,-44.8701 1904.34,-54.8702 1911.34,-54.8701"/>
</g>
<!-- CHI_SQUARE -->
<g id="node42" class="node"><title>CHI_SQUARE</title>
<ellipse fill="none" stroke="black" cx="2059.84" cy="-26.8701" rx="65.7887" ry="18"/>
<text text-anchor="middle" x="2059.84" y="-23.1701" font-family="Times,serif" font-size="14.00">CHI_SQUARE</text>
</g>
<!-- n15 (0.89 &#45; 3)&#45;&gt;CHI_SQUARE -->
<g id="edge41" class="edge"><title>n15 (0.89 &#45; 3)&#45;&gt;CHI_SQUARE</title>
<path fill="none" stroke="black" d="M2059.84,-98.2755C2059.84,-85.9384 2059.84,-69.1165 2059.84,-55.0094"/>
<polygon fill="black" stroke="black" points="2063.34,-54.8701 2059.84,-44.8701 2056.34,-54.8702 2063.34,-54.8701"/>
</g>
<!-- TWO_WAY_SUPPORT_VARIATION\nJ_MEASURE -->
<g id="node43" class="node"><title>TWO_WAY_SUPPORT_VARIATION\nJ_MEASURE</title>
<ellipse fill="none" stroke="black" cx="2310.84" cy="-26.8701" rx="166.754" ry="26.7407"/>
<text text-anchor="middle" x="2310.84" y="-30.6701" font-family="Times,serif" font-size="14.00">TWO_WAY_SUPPORT_VARIATION</text>
<text text-anchor="middle" x="2310.84" y="-15.6701" font-family="Times,serif" font-size="14.00">J_MEASURE</text>
</g>
<!-- n15 (0.89 &#45; 3)&#45;&gt;TWO_WAY_SUPPORT_VARIATION\nJ_MEASURE -->
<g id="edge42" class="edge"><title>n15 (0.89 &#45; 3)&#45;&gt;TWO_WAY_SUPPORT_VARIATION\nJ_MEASURE</title>
<path fill="none" stroke="black" d="M2097.42,-102.475C2133.29,-89.9332 2188.44,-70.6575 2233.68,-54.841"/>
<polygon fill="black" stroke="black" points="2234.89,-58.126 2243.18,-51.5221 2232.58,-51.5181 2234.89,-58.126"/>
</g>
</g>
</svg>
