<?xml version="1.0" encoding="UTF-8" standalone="no"?>
<!DOCTYPE svg PUBLIC "-//W3C//DTD SVG 1.1//EN"
 "http://www.w3.org/Graphics/SVG/1.1/DTD/svg11.dtd">
<!-- Generated by graphviz version 2.38.0 (20140413.2041)
 -->
<!-- Title: dendrogram Pages: 1 -->
<svg width="1243pt" height="881pt"
 viewBox="0.00 0.00 1243.02 881.48" xmlns="http://www.w3.org/2000/svg" xmlns:xlink="http://www.w3.org/1999/xlink">
<g id="graph0" class="graph" transform="scale(1 1) rotate(0) translate(4 877.484)">
<title>dendrogram</title>
<polygon fill="white" stroke="none" points="-4,4 -4,-877.484 1239.02,-877.484 1239.02,4 -4,4"/>
<!-- n34 (0.03 &#45; 36) -->
<g id="node1" class="node"><title>n34 (0.03 &#45; 36)</title>
<ellipse fill="none" stroke="black" cx="713.84" cy="-855.484" rx="64.189" ry="18"/>
<text text-anchor="middle" x="713.84" y="-851.784" font-family="Times,serif" font-size="14.00">n34 (0.03 &#45; 36)</text>
</g>
<!-- n33 (0.22 &#45; 16) -->
<g id="node2" class="node"><title>n33 (0.22 &#45; 16)</title>
<ellipse fill="none" stroke="black" cx="610.84" cy="-783.484" rx="64.189" ry="18"/>
<text text-anchor="middle" x="610.84" y="-779.784" font-family="Times,serif" font-size="14.00">n33 (0.22 &#45; 16)</text>
</g>
<!-- n34 (0.03 &#45; 36)&#45;&gt;n33 (0.22 &#45; 16) -->
<g id="edge1" class="edge"><title>n34 (0.03 &#45; 36)&#45;&gt;n33 (0.22 &#45; 16)</title>
<path fill="none" stroke="black" d="M690.468,-838.6C676.245,-828.934 657.894,-816.463 642.394,-805.928"/>
<polygon fill="black" stroke="black" points="644.358,-803.032 634.12,-800.306 640.423,-808.821 644.358,-803.032"/>
</g>
<!-- n32 (0.40 &#45; 20) -->
<g id="node17" class="node"><title>n32 (0.40 &#45; 20)</title>
<ellipse fill="none" stroke="black" cx="817.84" cy="-783.484" rx="64.189" ry="18"/>
<text text-anchor="middle" x="817.84" y="-779.784" font-family="Times,serif" font-size="14.00">n32 (0.40 &#45; 20)</text>
</g>
<!-- n34 (0.03 &#45; 36)&#45;&gt;n32 (0.40 &#45; 20) -->
<g id="edge16" class="edge"><title>n34 (0.03 &#45; 36)&#45;&gt;n32 (0.40 &#45; 20)</title>
<path fill="none" stroke="black" d="M737.439,-838.6C751.8,-828.934 770.33,-816.463 785.981,-805.928"/>
<polygon fill="black" stroke="black" points="787.993,-808.793 794.334,-800.306 784.084,-802.986 787.993,-808.793"/>
</g>
<!-- n31 (0.50 &#45; 4) -->
<g id="node3" class="node"><title>n31 (0.50 &#45; 4)</title>
<ellipse fill="none" stroke="black" cx="297.84" cy="-532.909" rx="59.5901" ry="18"/>
<text text-anchor="middle" x="297.84" y="-529.209" font-family="Times,serif" font-size="14.00">n31 (0.50 &#45; 4)</text>
</g>
<!-- n33 (0.22 &#45; 16)&#45;&gt;n31 (0.50 &#45; 4) -->
<g id="edge2" class="edge"><title>n33 (0.22 &#45; 16)&#45;&gt;n31 (0.50 &#45; 4)</title>
<path fill="none" stroke="black" d="M588.237,-766.566C573.694,-756.204 554.472,-742.283 537.84,-729.484 459.004,-668.82 368.722,-593.653 324.746,-556.658"/>
<polygon fill="black" stroke="black" points="326.739,-553.761 316.836,-549.995 322.229,-559.114 326.739,-553.761"/>
</g>
<!-- n30 (0.52 &#45; 12) -->
<g id="node8" class="node"><title>n30 (0.52 &#45; 12)</title>
<ellipse fill="none" stroke="black" cx="610.84" cy="-532.909" rx="64.189" ry="18"/>
<text text-anchor="middle" x="610.84" y="-529.209" font-family="Times,serif" font-size="14.00">n30 (0.52 &#45; 12)</text>
</g>
<!-- n33 (0.22 &#45; 16)&#45;&gt;n30 (0.52 &#45; 12) -->
<g id="edge7" class="edge"><title>n33 (0.22 &#45; 16)&#45;&gt;n30 (0.52 &#45; 12)</title>
<path fill="none" stroke="black" d="M610.84,-765.399C610.84,-723.003 610.84,-612.697 610.84,-561.171"/>
<polygon fill="black" stroke="black" points="614.34,-561.114 610.84,-551.114 607.34,-561.114 614.34,-561.114"/>
</g>
<!-- COLLECTIVE_STRENGH -->
<g id="node4" class="node"><title>COLLECTIVE_STRENGH</title>
<ellipse fill="none" stroke="black" cx="109.84" cy="-282.333" rx="109.681" ry="18"/>
<text text-anchor="middle" x="109.84" y="-278.633" font-family="Times,serif" font-size="14.00">COLLECTIVE_STRENGH</text>
</g>
<!-- n31 (0.50 &#45; 4)&#45;&gt;COLLECTIVE_STRENGH -->
<g id="edge3" class="edge"><title>n31 (0.50 &#45; 4)&#45;&gt;COLLECTIVE_STRENGH</title>
<path fill="none" stroke="black" d="M285.213,-515.213C252.915,-472.509 167.152,-359.111 128.817,-308.425"/>
<polygon fill="black" stroke="black" points="131.484,-306.148 122.66,-300.283 125.901,-310.371 131.484,-306.148"/>
</g>
<!-- n27 (0.75 &#45; 3) -->
<g id="node5" class="node"><title>n27 (0.75 &#45; 3)</title>
<ellipse fill="none" stroke="black" cx="297.84" cy="-282.333" rx="59.5901" ry="18"/>
<text text-anchor="middle" x="297.84" y="-278.633" font-family="Times,serif" font-size="14.00">n27 (0.75 &#45; 3)</text>
</g>
<!-- n31 (0.50 &#45; 4)&#45;&gt;n27 (0.75 &#45; 3) -->
<g id="edge4" class="edge"><title>n31 (0.50 &#45; 4)&#45;&gt;n27 (0.75 &#45; 3)</title>
<path fill="none" stroke="black" d="M297.84,-514.823C297.84,-472.428 297.84,-362.121 297.84,-310.595"/>
<polygon fill="black" stroke="black" points="301.34,-310.538 297.84,-300.538 294.34,-310.538 301.34,-310.538"/>
</g>
<!-- RECALL -->
<g id="node6" class="node"><title>RECALL</title>
<ellipse fill="none" stroke="black" cx="125.84" cy="-169.643" rx="44.6926" ry="18"/>
<text text-anchor="middle" x="125.84" y="-165.943" font-family="Times,serif" font-size="14.00">RECALL</text>
</g>
<!-- n27 (0.75 &#45; 3)&#45;&gt;RECALL -->
<g id="edge5" class="edge"><title>n27 (0.75 &#45; 3)&#45;&gt;RECALL</title>
<path fill="none" stroke="black" d="M258.738,-268.546C234.428,-259.512 203.262,-245.893 178.84,-228.333 165.867,-219.005 153.639,-206.089 144.204,-194.842"/>
<polygon fill="black" stroke="black" points="146.877,-192.581 137.857,-187.023 141.442,-196.993 146.877,-192.581"/>
</g>
<!-- PIATETSKY_SHAPIRO\nSPECIFICITY -->
<g id="node7" class="node"><title>PIATETSKY_SHAPIRO\nSPECIFICITY</title>
<ellipse fill="none" stroke="black" cx="297.84" cy="-169.643" rx="109.703" ry="26.7407"/>
<text text-anchor="middle" x="297.84" y="-173.443" font-family="Times,serif" font-size="14.00">PIATETSKY_SHAPIRO</text>
<text text-anchor="middle" x="297.84" y="-158.443" font-family="Times,serif" font-size="14.00">SPECIFICITY</text>
</g>
<!-- n27 (0.75 &#45; 3)&#45;&gt;PIATETSKY_SHAPIRO\nSPECIFICITY -->
<g id="edge6" class="edge"><title>n27 (0.75 &#45; 3)&#45;&gt;PIATETSKY_SHAPIRO\nSPECIFICITY</title>
<path fill="none" stroke="black" d="M297.84,-264.038C297.84,-248.852 297.84,-226.259 297.84,-207.098"/>
<polygon fill="black" stroke="black" points="301.34,-206.875 297.84,-196.875 294.34,-206.875 301.34,-206.875"/>
</g>
<!-- n29 (0.63 &#45; 6) -->
<g id="node9" class="node"><title>n29 (0.63 &#45; 6)</title>
<ellipse fill="none" stroke="black" cx="610.84" cy="-282.333" rx="59.5901" ry="18"/>
<text text-anchor="middle" x="610.84" y="-278.633" font-family="Times,serif" font-size="14.00">n29 (0.63 &#45; 6)</text>
</g>
<!-- n30 (0.52 &#45; 12)&#45;&gt;n29 (0.63 &#45; 6) -->
<g id="edge8" class="edge"><title>n30 (0.52 &#45; 12)&#45;&gt;n29 (0.63 &#45; 6)</title>
<path fill="none" stroke="black" d="M610.84,-514.823C610.84,-472.428 610.84,-362.121 610.84,-310.595"/>
<polygon fill="black" stroke="black" points="614.34,-310.538 610.84,-300.538 607.34,-310.538 614.34,-310.538"/>
</g>
<!-- n28 (0.65 &#45; 6) -->
<g id="node14" class="node"><title>n28 (0.65 &#45; 6)</title>
<ellipse fill="none" stroke="black" cx="833.84" cy="-282.333" rx="59.5901" ry="18"/>
<text text-anchor="middle" x="833.84" y="-278.633" font-family="Times,serif" font-size="14.00">n28 (0.65 &#45; 6)</text>
</g>
<!-- n30 (0.52 &#45; 12)&#45;&gt;n28 (0.65 &#45; 6) -->
<g id="edge13" class="edge"><title>n30 (0.52 &#45; 12)&#45;&gt;n28 (0.65 &#45; 6)</title>
<path fill="none" stroke="black" d="M612.539,-514.66C617.15,-477.032 633.249,-386.904 684.84,-336.333 708.005,-313.626 741.523,-300.59 770.905,-293.134"/>
<polygon fill="black" stroke="black" points="771.767,-296.527 780.69,-290.814 770.152,-289.716 771.767,-296.527"/>
</g>
<!-- TWO_WAY_SUPPORT -->
<g id="node10" class="node"><title>TWO_WAY_SUPPORT</title>
<ellipse fill="none" stroke="black" cx="525.84" cy="-169.643" rx="100.182" ry="18"/>
<text text-anchor="middle" x="525.84" y="-165.943" font-family="Times,serif" font-size="14.00">TWO_WAY_SUPPORT</text>
</g>
<!-- n29 (0.63 &#45; 6)&#45;&gt;TWO_WAY_SUPPORT -->
<g id="edge9" class="edge"><title>n29 (0.63 &#45; 6)&#45;&gt;TWO_WAY_SUPPORT</title>
<path fill="none" stroke="black" d="M597.931,-264.522C583.889,-246.236 561.292,-216.81 545.141,-195.777"/>
<polygon fill="black" stroke="black" points="547.738,-193.412 538.871,-187.613 542.186,-197.676 547.738,-193.412"/>
</g>
<!-- n26 (0.88 &#45; 5) -->
<g id="node11" class="node"><title>n26 (0.88 &#45; 5)</title>
<ellipse fill="none" stroke="black" cx="703.84" cy="-169.643" rx="59.5901" ry="18"/>
<text text-anchor="middle" x="703.84" y="-165.943" font-family="Times,serif" font-size="14.00">n26 (0.88 &#45; 5)</text>
</g>
<!-- n29 (0.63 &#45; 6)&#45;&gt;n26 (0.88 &#45; 5) -->
<g id="edge10" class="edge"><title>n29 (0.63 &#45; 6)&#45;&gt;n26 (0.88 &#45; 5)</title>
<path fill="none" stroke="black" d="M624.965,-264.522C640.486,-246.048 665.561,-216.204 683.266,-195.131"/>
<polygon fill="black" stroke="black" points="686.134,-197.158 689.887,-187.25 680.775,-192.655 686.134,-197.158"/>
</g>
<!-- JACCARD\nKAPPA -->
<g id="node12" class="node"><title>JACCARD\nKAPPA</title>
<ellipse fill="none" stroke="black" cx="583.84" cy="-37.4767" rx="55.3091" ry="26.7407"/>
<text text-anchor="middle" x="583.84" y="-41.2767" font-family="Times,serif" font-size="14.00">JACCARD</text>
<text text-anchor="middle" x="583.84" y="-26.2767" font-family="Times,serif" font-size="14.00">KAPPA</text>
</g>
<!-- n26 (0.88 &#45; 5)&#45;&gt;JACCARD\nKAPPA -->
<g id="edge11" class="edge"><title>n26 (0.88 &#45; 5)&#45;&gt;JACCARD\nKAPPA</title>
<path fill="none" stroke="black" d="M688.642,-152.158C669.585,-131.486 636.518,-95.6178 612.616,-69.6907"/>
<polygon fill="black" stroke="black" points="615.18,-67.3076 605.828,-62.3275 610.033,-72.0523 615.18,-67.3076"/>
</g>
<!-- J_MEASURE\nTWO_WAY_SUPPORT_VARIATION\nFISHER_PVAL -->
<g id="node13" class="node"><title>J_MEASURE\nTWO_WAY_SUPPORT_VARIATION\nFISHER_PVAL</title>
<ellipse fill="none" stroke="black" cx="823.84" cy="-37.4767" rx="166.754" ry="37.4533"/>
<text text-anchor="middle" x="823.84" y="-48.7767" font-family="Times,serif" font-size="14.00">J_MEASURE</text>
<text text-anchor="middle" x="823.84" y="-33.7767" font-family="Times,serif" font-size="14.00">TWO_WAY_SUPPORT_VARIATION</text>
<text text-anchor="middle" x="823.84" y="-18.7767" font-family="Times,serif" font-size="14.00">FISHER_PVAL</text>
</g>
<!-- n26 (0.88 &#45; 5)&#45;&gt;J_MEASURE\nTWO_WAY_SUPPORT_VARIATION\nFISHER_PVAL -->
<g id="edge12" class="edge"><title>n26 (0.88 &#45; 5)&#45;&gt;J_MEASURE\nTWO_WAY_SUPPORT_VARIATION\nFISHER_PVAL</title>
<path fill="none" stroke="black" d="M719.038,-152.158C735.2,-134.626 761.438,-106.165 783.617,-82.1075"/>
<polygon fill="black" stroke="black" points="786.453,-84.1954 790.657,-74.4707 781.306,-79.4507 786.453,-84.1954"/>
</g>
<!-- KLOSGEN -->
<g id="node15" class="node"><title>KLOSGEN</title>
<ellipse fill="none" stroke="black" cx="833.84" cy="-169.643" rx="51.9908" ry="18"/>
<text text-anchor="middle" x="833.84" y="-165.943" font-family="Times,serif" font-size="14.00">KLOSGEN</text>
</g>
<!-- n28 (0.65 &#45; 6)&#45;&gt;KLOSGEN -->
<g id="edge14" class="edge"><title>n28 (0.65 &#45; 6)&#45;&gt;KLOSGEN</title>
<path fill="none" stroke="black" d="M833.84,-264.038C833.84,-246.33 833.84,-218.549 833.84,-197.884"/>
<polygon fill="black" stroke="black" points="837.34,-197.817 833.84,-187.817 830.34,-197.817 837.34,-197.817"/>
</g>
<!-- COSINE\nIMPLICATION_INDEX\nGINI\nPHI\nCHI_SQUARE -->
<g id="node16" class="node"><title>COSINE\nIMPLICATION_INDEX\nGINI\nPHI\nCHI_SQUARE</title>
<ellipse fill="none" stroke="black" cx="1012.84" cy="-169.643" rx="108.789" ry="58.8803"/>
<text text-anchor="middle" x="1012.84" y="-195.943" font-family="Times,serif" font-size="14.00">COSINE</text>
<text text-anchor="middle" x="1012.84" y="-180.943" font-family="Times,serif" font-size="14.00">IMPLICATION_INDEX</text>
<text text-anchor="middle" x="1012.84" y="-165.943" font-family="Times,serif" font-size="14.00">GINI</text>
<text text-anchor="middle" x="1012.84" y="-150.943" font-family="Times,serif" font-size="14.00">PHI</text>
<text text-anchor="middle" x="1012.84" y="-135.943" font-family="Times,serif" font-size="14.00">CHI_SQUARE</text>
</g>
<!-- n28 (0.65 &#45; 6)&#45;&gt;COSINE\nIMPLICATION_INDEX\nGINI\nPHI\nCHI_SQUARE -->
<g id="edge15" class="edge"><title>n28 (0.65 &#45; 6)&#45;&gt;COSINE\nIMPLICATION_INDEX\nGINI\nPHI\nCHI_SQUARE</title>
<path fill="none" stroke="black" d="M858.729,-265.942C878.146,-253.935 906.25,-236.556 933.156,-219.918"/>
<polygon fill="black" stroke="black" points="935.173,-222.786 941.838,-214.55 931.492,-216.832 935.173,-222.786"/>
</g>
<!-- LEAST_CONTRADICTION\nACCURACY -->
<g id="node18" class="node"><title>LEAST_CONTRADICTION\nACCURACY</title>
<ellipse fill="none" stroke="black" cx="817.84" cy="-532.909" rx="124.402" ry="26.7407"/>
<text text-anchor="middle" x="817.84" y="-536.709" font-family="Times,serif" font-size="14.00">LEAST_CONTRADICTION</text>
<text text-anchor="middle" x="817.84" y="-521.709" font-family="Times,serif" font-size="14.00">ACCURACY</text>
</g>
<!-- n32 (0.40 &#45; 20)&#45;&gt;LEAST_CONTRADICTION\nACCURACY -->
<g id="edge17" class="edge"><title>n32 (0.40 &#45; 20)&#45;&gt;LEAST_CONTRADICTION\nACCURACY</title>
<path fill="none" stroke="black" d="M817.84,-765.399C817.84,-725.294 817.84,-624.418 817.84,-570.018"/>
<polygon fill="black" stroke="black" points="821.34,-569.789 817.84,-559.789 814.34,-569.789 821.34,-569.789"/>
</g>
<!-- CONVICTION\nYULE_Y\nONE_WAY_SUPPORT\nYULE_Q\nODDS_RATIO\nLOEVINGER\nSEBAG_SCHOENAUER\nODD_MULTIPLIER\nCOUNTER_EXAMPLE_RATE\nZHANG\nCERTAINTY_FACTOR\nRELATIVE_RISK\nBAYES\nCENTERED_CONFIDENCE\nADDED_VALUE\nLEVERAGE\nLIFT\nCONFIDENCE -->
<g id="node19" class="node"><title>CONVICTION\nYULE_Y\nONE_WAY_SUPPORT\nYULE_Q\nODDS_RATIO\nLOEVINGER\nSEBAG_SCHOENAUER\nODD_MULTIPLIER\nCOUNTER_EXAMPLE_RATE\nZHANG\nCERTAINTY_FACTOR\nRELATIVE_RISK\nBAYES\nCENTERED_CONFIDENCE\nADDED_VALUE\nLEVERAGE\nLIFT\nCONFIDENCE</title>
<ellipse fill="none" stroke="black" cx="1097.84" cy="-532.909" rx="137.358" ry="196.651"/>
<text text-anchor="middle" x="1097.84" y="-656.709" font-family="Times,serif" font-size="14.00">CONVICTION</text>
<text text-anchor="middle" x="1097.84" y="-641.709" font-family="Times,serif" font-size="14.00">YULE_Y</text>
<text text-anchor="middle" x="1097.84" y="-626.709" font-family="Times,serif" font-size="14.00">ONE_WAY_SUPPORT</text>
<text text-anchor="middle" x="1097.84" y="-611.709" font-family="Times,serif" font-size="14.00">YULE_Q</text>
<text text-anchor="middle" x="1097.84" y="-596.709" font-family="Times,serif" font-size="14.00">ODDS_RATIO</text>
<text text-anchor="middle" x="1097.84" y="-581.709" font-family="Times,serif" font-size="14.00">LOEVINGER</text>
<text text-anchor="middle" x="1097.84" y="-566.709" font-family="Times,serif" font-size="14.00">SEBAG_SCHOENAUER</text>
<text text-anchor="middle" x="1097.84" y="-551.709" font-family="Times,serif" font-size="14.00">ODD_MULTIPLIER</text>
<text text-anchor="middle" x="1097.84" y="-536.709" font-family="Times,serif" font-size="14.00">COUNTER_EXAMPLE_RATE</text>
<text text-anchor="middle" x="1097.84" y="-521.709" font-family="Times,serif" font-size="14.00">ZHANG</text>
<text text-anchor="middle" x="1097.84" y="-506.709" font-family="Times,serif" font-size="14.00">CERTAINTY_FACTOR</text>
<text text-anchor="middle" x="1097.84" y="-491.709" font-family="Times,serif" font-size="14.00">RELATIVE_RISK</text>
<text text-anchor="middle" x="1097.84" y="-476.709" font-family="Times,serif" font-size="14.00">BAYES</text>
<text text-anchor="middle" x="1097.84" y="-461.709" font-family="Times,serif" font-size="14.00">CENTERED_CONFIDENCE</text>
<text text-anchor="middle" x="1097.84" y="-446.709" font-family="Times,serif" font-size="14.00">ADDED_VALUE</text>
<text text-anchor="middle" x="1097.84" y="-431.709" font-family="Times,serif" font-size="14.00">LEVERAGE</text>
<text text-anchor="middle" x="1097.84" y="-416.709" font-family="Times,serif" font-size="14.00">LIFT</text>
<text text-anchor="middle" x="1097.84" y="-401.709" font-family="Times,serif" font-size="14.00">CONFIDENCE</text>
</g>
<!-- n32 (0.40 &#45; 20)&#45;&gt;CONVICTION\nYULE_Y\nONE_WAY_SUPPORT\nYULE_Q\nODDS_RATIO\nLOEVINGER\nSEBAG_SCHOENAUER\nODD_MULTIPLIER\nCOUNTER_EXAMPLE_RATE\nZHANG\nCERTAINTY_FACTOR\nRELATIVE_RISK\nBAYES\nCENTERED_CONFIDENCE\nADDED_VALUE\nLEVERAGE\nLIFT\nCONFIDENCE -->
<g id="edge18" class="edge"><title>n32 (0.40 &#45; 20)&#45;&gt;CONVICTION\nYULE_Y\nONE_WAY_SUPPORT\nYULE_Q\nODDS_RATIO\nLOEVINGER\nSEBAG_SCHOENAUER\nODD_MULTIPLIER\nCOUNTER_EXAMPLE_RATE\nZHANG\nCERTAINTY_FACTOR\nRELATIVE_RISK\nBAYES\nCENTERED_CONFIDENCE\nADDED_VALUE\nLEVERAGE\nLIFT\nCONFIDENCE</title>
<path fill="none" stroke="black" d="M864.126,-770.868C891.274,-762.471 925.17,-749.11 950.84,-729.484 967.666,-716.621 983.514,-701.348 998.127,-685.093"/>
<polygon fill="black" stroke="black" points="1000.78,-687.381 1004.75,-677.561 995.521,-682.757 1000.78,-687.381"/>
</g>
</g>
</svg>
