<?xml version="1.0" encoding="UTF-8" standalone="no"?>
<!DOCTYPE svg PUBLIC "-//W3C//DTD SVG 1.1//EN"
 "http://www.w3.org/Graphics/SVG/1.1/DTD/svg11.dtd">
<!-- Generated by graphviz version 2.38.0 (20140413.2041)
 -->
<!-- Title: dendrogram Pages: 1 -->
<svg width="1289pt" height="1004pt"
 viewBox="0.00 0.00 1289.02 1004.27" xmlns="http://www.w3.org/2000/svg" xmlns:xlink="http://www.w3.org/1999/xlink">
<g id="graph0" class="graph" transform="scale(1 1) rotate(0) translate(4 1000.27)">
<title>dendrogram</title>
<polygon fill="white" stroke="none" points="-4,4 -4,-1000.27 1285.02,-1000.27 1285.02,4 -4,4"/>
<!-- n34 (0.04 &#45; 36) -->
<g id="node1" class="node"><title>n34 (0.04 &#45; 36)</title>
<ellipse fill="none" stroke="black" cx="299.84" cy="-978.271" rx="64.189" ry="18"/>
<text text-anchor="middle" x="299.84" y="-974.571" font-family="Times,serif" font-size="14.00">n34 (0.04 &#45; 36)</text>
</g>
<!-- ACCURACY -->
<g id="node2" class="node"><title>ACCURACY</title>
<ellipse fill="none" stroke="black" cx="228.84" cy="-906.271" rx="59.5901" ry="18"/>
<text text-anchor="middle" x="228.84" y="-902.571" font-family="Times,serif" font-size="14.00">ACCURACY</text>
</g>
<!-- n34 (0.04 &#45; 36)&#45;&gt;ACCURACY -->
<g id="edge1" class="edge"><title>n34 (0.04 &#45; 36)&#45;&gt;ACCURACY</title>
<path fill="none" stroke="black" d="M283.014,-960.682C273.995,-951.79 262.728,-940.682 252.809,-930.902"/>
<polygon fill="black" stroke="black" points="255.124,-928.27 245.545,-923.741 250.209,-933.254 255.124,-928.27"/>
</g>
<!-- n33 (0.07 &#45; 35) -->
<g id="node3" class="node"><title>n33 (0.07 &#45; 35)</title>
<ellipse fill="none" stroke="black" cx="370.84" cy="-906.271" rx="64.189" ry="18"/>
<text text-anchor="middle" x="370.84" y="-902.571" font-family="Times,serif" font-size="14.00">n33 (0.07 &#45; 35)</text>
</g>
<!-- n34 (0.04 &#45; 36)&#45;&gt;n33 (0.07 &#45; 35) -->
<g id="edge2" class="edge"><title>n34 (0.04 &#45; 36)&#45;&gt;n33 (0.07 &#45; 35)</title>
<path fill="none" stroke="black" d="M316.666,-960.682C325.685,-951.79 336.952,-940.682 346.872,-930.902"/>
<polygon fill="black" stroke="black" points="349.471,-933.254 354.135,-923.741 344.557,-928.27 349.471,-933.254"/>
</g>
<!-- n31 (0.52 &#45; 2) -->
<g id="node4" class="node"><title>n31 (0.52 &#45; 2)</title>
<ellipse fill="none" stroke="black" cx="299.84" cy="-834.271" rx="59.5901" ry="18"/>
<text text-anchor="middle" x="299.84" y="-830.571" font-family="Times,serif" font-size="14.00">n31 (0.52 &#45; 2)</text>
</g>
<!-- n33 (0.07 &#45; 35)&#45;&gt;n31 (0.52 &#45; 2) -->
<g id="edge3" class="edge"><title>n33 (0.07 &#45; 35)&#45;&gt;n31 (0.52 &#45; 2)</title>
<path fill="none" stroke="black" d="M354.014,-888.682C344.995,-879.79 333.728,-868.682 323.809,-858.902"/>
<polygon fill="black" stroke="black" points="326.124,-856.27 316.545,-851.741 321.209,-861.254 326.124,-856.27"/>
</g>
<!-- n32 (0.27 &#45; 33) -->
<g id="node7" class="node"><title>n32 (0.27 &#45; 33)</title>
<ellipse fill="none" stroke="black" cx="441.84" cy="-834.271" rx="64.189" ry="18"/>
<text text-anchor="middle" x="441.84" y="-830.571" font-family="Times,serif" font-size="14.00">n32 (0.27 &#45; 33)</text>
</g>
<!-- n33 (0.07 &#45; 35)&#45;&gt;n32 (0.27 &#45; 33) -->
<g id="edge6" class="edge"><title>n33 (0.07 &#45; 35)&#45;&gt;n32 (0.27 &#45; 33)</title>
<path fill="none" stroke="black" d="M387.666,-888.682C396.685,-879.79 407.952,-868.682 417.872,-858.902"/>
<polygon fill="black" stroke="black" points="420.471,-861.254 425.135,-851.741 415.557,-856.27 420.471,-861.254"/>
</g>
<!-- COLLECTIVE_STRENGH -->
<g id="node5" class="node"><title>COLLECTIVE_STRENGH</title>
<ellipse fill="none" stroke="black" cx="109.84" cy="-762.271" rx="109.681" ry="18"/>
<text text-anchor="middle" x="109.84" y="-758.571" font-family="Times,serif" font-size="14.00">COLLECTIVE_STRENGH</text>
</g>
<!-- n31 (0.52 &#45; 2)&#45;&gt;COLLECTIVE_STRENGH -->
<g id="edge4" class="edge"><title>n31 (0.52 &#45; 2)&#45;&gt;COLLECTIVE_STRENGH</title>
<path fill="none" stroke="black" d="M263.655,-819.94C234.968,-809.371 194.485,-794.456 162.25,-782.58"/>
<polygon fill="black" stroke="black" points="163.127,-779.173 152.534,-779 160.707,-785.742 163.127,-779.173"/>
</g>
<!-- SPECIFICITY -->
<g id="node6" class="node"><title>SPECIFICITY</title>
<ellipse fill="none" stroke="black" cx="300.84" cy="-762.271" rx="63.0888" ry="18"/>
<text text-anchor="middle" x="300.84" y="-758.571" font-family="Times,serif" font-size="14.00">SPECIFICITY</text>
</g>
<!-- n31 (0.52 &#45; 2)&#45;&gt;SPECIFICITY -->
<g id="edge5" class="edge"><title>n31 (0.52 &#45; 2)&#45;&gt;SPECIFICITY</title>
<path fill="none" stroke="black" d="M300.087,-815.968C300.198,-808.254 300.33,-798.984 300.453,-790.384"/>
<polygon fill="black" stroke="black" points="303.953,-790.425 300.596,-780.376 296.953,-790.324 303.953,-790.425"/>
</g>
<!-- n30 (0.54 &#45; 8) -->
<g id="node8" class="node"><title>n30 (0.54 &#45; 8)</title>
<ellipse fill="none" stroke="black" cx="441.84" cy="-762.271" rx="59.5901" ry="18"/>
<text text-anchor="middle" x="441.84" y="-758.571" font-family="Times,serif" font-size="14.00">n30 (0.54 &#45; 8)</text>
</g>
<!-- n32 (0.27 &#45; 33)&#45;&gt;n30 (0.54 &#45; 8) -->
<g id="edge7" class="edge"><title>n32 (0.27 &#45; 33)&#45;&gt;n30 (0.54 &#45; 8)</title>
<path fill="none" stroke="black" d="M441.84,-815.968C441.84,-808.254 441.84,-798.984 441.84,-790.384"/>
<polygon fill="black" stroke="black" points="445.34,-790.376 441.84,-780.376 438.34,-790.376 445.34,-790.376"/>
</g>
<!-- n28 (0.75 &#45; 25) -->
<g id="node17" class="node"><title>n28 (0.75 &#45; 25)</title>
<ellipse fill="none" stroke="black" cx="632.84" cy="-762.271" rx="64.189" ry="18"/>
<text text-anchor="middle" x="632.84" y="-758.571" font-family="Times,serif" font-size="14.00">n28 (0.75 &#45; 25)</text>
</g>
<!-- n32 (0.27 &#45; 33)&#45;&gt;n28 (0.75 &#45; 25) -->
<g id="edge16" class="edge"><title>n32 (0.27 &#45; 33)&#45;&gt;n28 (0.75 &#45; 25)</title>
<path fill="none" stroke="black" d="M479.576,-819.441C510.02,-808.284 553.009,-792.529 585.714,-780.542"/>
<polygon fill="black" stroke="black" points="587.324,-783.68 595.509,-776.953 584.915,-777.108 587.324,-783.68"/>
</g>
<!-- J_MEASURE\nTWO_WAY_SUPPORT_VARIATION\nFISHER_PVAL -->
<g id="node9" class="node"><title>J_MEASURE\nTWO_WAY_SUPPORT_VARIATION\nFISHER_PVAL</title>
<ellipse fill="none" stroke="black" cx="196.84" cy="-670.795" rx="166.754" ry="37.4533"/>
<text text-anchor="middle" x="196.84" y="-682.095" font-family="Times,serif" font-size="14.00">J_MEASURE</text>
<text text-anchor="middle" x="196.84" y="-667.095" font-family="Times,serif" font-size="14.00">TWO_WAY_SUPPORT_VARIATION</text>
<text text-anchor="middle" x="196.84" y="-652.095" font-family="Times,serif" font-size="14.00">FISHER_PVAL</text>
</g>
<!-- n30 (0.54 &#45; 8)&#45;&gt;J_MEASURE\nTWO_WAY_SUPPORT_VARIATION\nFISHER_PVAL -->
<g id="edge8" class="edge"><title>n30 (0.54 &#45; 8)&#45;&gt;J_MEASURE\nTWO_WAY_SUPPORT_VARIATION\nFISHER_PVAL</title>
<path fill="none" stroke="black" d="M405.426,-747.972C375.5,-737.043 331.714,-721.052 291.977,-706.539"/>
<polygon fill="black" stroke="black" points="293.101,-703.224 282.507,-703.081 290.699,-709.799 293.101,-703.224"/>
</g>
<!-- n29 (0.65 &#45; 5) -->
<g id="node10" class="node"><title>n29 (0.65 &#45; 5)</title>
<ellipse fill="none" stroke="black" cx="441.84" cy="-670.795" rx="59.5901" ry="18"/>
<text text-anchor="middle" x="441.84" y="-667.095" font-family="Times,serif" font-size="14.00">n29 (0.65 &#45; 5)</text>
</g>
<!-- n30 (0.54 &#45; 8)&#45;&gt;n29 (0.65 &#45; 5) -->
<g id="edge9" class="edge"><title>n30 (0.54 &#45; 8)&#45;&gt;n29 (0.65 &#45; 5)</title>
<path fill="none" stroke="black" d="M441.84,-744.019C441.84,-731.27 441.84,-713.657 441.84,-699.017"/>
<polygon fill="black" stroke="black" points="445.34,-698.994 441.84,-688.994 438.34,-698.994 445.34,-698.994"/>
</g>
<!-- RECALL -->
<g id="node11" class="node"><title>RECALL</title>
<ellipse fill="none" stroke="black" cx="318.84" cy="-400.742" rx="44.6926" ry="18"/>
<text text-anchor="middle" x="318.84" y="-397.042" font-family="Times,serif" font-size="14.00">RECALL</text>
</g>
<!-- n29 (0.65 &#45; 5)&#45;&gt;RECALL -->
<g id="edge10" class="edge"><title>n29 (0.65 &#45; 5)&#45;&gt;RECALL</title>
<path fill="none" stroke="black" d="M421.808,-653.653C406.305,-640.141 385.421,-619.542 372.84,-597.318 341.672,-542.26 327.658,-468.186 322.07,-428.883"/>
<polygon fill="black" stroke="black" points="325.511,-428.209 320.71,-418.764 318.573,-429.142 325.511,-428.209"/>
</g>
<!-- n26 (0.78 &#45; 4) -->
<g id="node12" class="node"><title>n26 (0.78 &#45; 4)</title>
<ellipse fill="none" stroke="black" cx="441.84" cy="-400.742" rx="59.5901" ry="18"/>
<text text-anchor="middle" x="441.84" y="-397.042" font-family="Times,serif" font-size="14.00">n26 (0.78 &#45; 4)</text>
</g>
<!-- n29 (0.65 &#45; 5)&#45;&gt;n26 (0.78 &#45; 4) -->
<g id="edge11" class="edge"><title>n29 (0.65 &#45; 5)&#45;&gt;n26 (0.78 &#45; 4)</title>
<path fill="none" stroke="black" d="M441.84,-652.619C441.84,-607.229 441.84,-483.817 441.84,-428.819"/>
<polygon fill="black" stroke="black" points="445.34,-428.775 441.84,-418.775 438.34,-428.775 445.34,-428.775"/>
</g>
<!-- PIATETSKY_SHAPIRO\nJACCARD -->
<g id="node13" class="node"><title>PIATETSKY_SHAPIRO\nJACCARD</title>
<ellipse fill="none" stroke="black" cx="282.84" cy="-120.083" rx="109.703" ry="26.7407"/>
<text text-anchor="middle" x="282.84" y="-123.883" font-family="Times,serif" font-size="14.00">PIATETSKY_SHAPIRO</text>
<text text-anchor="middle" x="282.84" y="-108.883" font-family="Times,serif" font-size="14.00">JACCARD</text>
</g>
<!-- n26 (0.78 &#45; 4)&#45;&gt;PIATETSKY_SHAPIRO\nJACCARD -->
<g id="edge12" class="edge"><title>n26 (0.78 &#45; 4)&#45;&gt;PIATETSKY_SHAPIRO\nJACCARD</title>
<path fill="none" stroke="black" d="M438.696,-382.535C431.579,-346.864 411.747,-263.259 372.84,-204.167 360.078,-184.782 341.839,-166.825 325.113,-152.601"/>
<polygon fill="black" stroke="black" points="326.989,-149.611 317.055,-145.929 322.525,-155.002 326.989,-149.611"/>
</g>
<!-- n24 (0.81 &#45; 2) -->
<g id="node14" class="node"><title>n24 (0.81 &#45; 2)</title>
<ellipse fill="none" stroke="black" cx="469.84" cy="-120.083" rx="59.5901" ry="18"/>
<text text-anchor="middle" x="469.84" y="-116.383" font-family="Times,serif" font-size="14.00">n24 (0.81 &#45; 2)</text>
</g>
<!-- n26 (0.78 &#45; 4)&#45;&gt;n24 (0.81 &#45; 2) -->
<g id="edge13" class="edge"><title>n26 (0.78 &#45; 4)&#45;&gt;n24 (0.81 &#45; 2)</title>
<path fill="none" stroke="black" d="M443.55,-382.73C448.246,-335.995 461.375,-205.332 467.106,-148.295"/>
<polygon fill="black" stroke="black" points="470.6,-148.526 468.118,-138.227 463.635,-147.827 470.6,-148.526"/>
</g>
<!-- TWO_WAY_SUPPORT -->
<g id="node15" class="node"><title>TWO_WAY_SUPPORT</title>
<ellipse fill="none" stroke="black" cx="390.84" cy="-18" rx="100.182" ry="18"/>
<text text-anchor="middle" x="390.84" y="-14.3" font-family="Times,serif" font-size="14.00">TWO_WAY_SUPPORT</text>
</g>
<!-- n24 (0.81 &#45; 2)&#45;&gt;TWO_WAY_SUPPORT -->
<g id="edge14" class="edge"><title>n24 (0.81 &#45; 2)&#45;&gt;TWO_WAY_SUPPORT</title>
<path fill="none" stroke="black" d="M456.439,-102.106C443.841,-86.1457 424.833,-62.0644 410.516,-43.9261"/>
<polygon fill="black" stroke="black" points="413.25,-41.7418 404.307,-36.061 407.756,-46.0789 413.25,-41.7418"/>
</g>
<!-- KAPPA -->
<g id="node16" class="node"><title>KAPPA</title>
<ellipse fill="none" stroke="black" cx="548.84" cy="-18" rx="39.7935" ry="18"/>
<text text-anchor="middle" x="548.84" y="-14.3" font-family="Times,serif" font-size="14.00">KAPPA</text>
</g>
<!-- n24 (0.81 &#45; 2)&#45;&gt;KAPPA -->
<g id="edge15" class="edge"><title>n24 (0.81 &#45; 2)&#45;&gt;KAPPA</title>
<path fill="none" stroke="black" d="M483.242,-102.106C496.068,-85.8555 515.541,-61.186 529.941,-42.9427"/>
<polygon fill="black" stroke="black" points="532.71,-45.0841 536.158,-35.0662 527.215,-40.747 532.71,-45.0841"/>
</g>
<!-- n25 (0.81 &#45; 6) -->
<g id="node18" class="node"><title>n25 (0.81 &#45; 6)</title>
<ellipse fill="none" stroke="black" cx="632.84" cy="-670.795" rx="59.5901" ry="18"/>
<text text-anchor="middle" x="632.84" y="-667.095" font-family="Times,serif" font-size="14.00">n25 (0.81 &#45; 6)</text>
</g>
<!-- n28 (0.75 &#45; 25)&#45;&gt;n25 (0.81 &#45; 6) -->
<g id="edge17" class="edge"><title>n28 (0.75 &#45; 25)&#45;&gt;n25 (0.81 &#45; 6)</title>
<path fill="none" stroke="black" d="M632.84,-744.019C632.84,-731.27 632.84,-713.657 632.84,-699.017"/>
<polygon fill="black" stroke="black" points="636.34,-698.994 632.84,-688.994 629.34,-698.994 636.34,-698.994"/>
</g>
<!-- n27 (0.77 &#45; 19) -->
<g id="node23" class="node"><title>n27 (0.77 &#45; 19)</title>
<ellipse fill="none" stroke="black" cx="873.84" cy="-670.795" rx="64.189" ry="18"/>
<text text-anchor="middle" x="873.84" y="-667.095" font-family="Times,serif" font-size="14.00">n27 (0.77 &#45; 19)</text>
</g>
<!-- n28 (0.75 &#45; 25)&#45;&gt;n27 (0.77 &#45; 19) -->
<g id="edge22" class="edge"><title>n28 (0.75 &#45; 25)&#45;&gt;n27 (0.77 &#45; 19)</title>
<path fill="none" stroke="black" d="M669.968,-747.487C712.249,-731.789 781.391,-706.119 827.254,-689.091"/>
<polygon fill="black" stroke="black" points="828.513,-692.357 836.67,-685.595 826.077,-685.794 828.513,-692.357"/>
</g>
<!-- COSINE -->
<g id="node19" class="node"><title>COSINE</title>
<ellipse fill="none" stroke="black" cx="561.84" cy="-400.742" rx="42.4939" ry="18"/>
<text text-anchor="middle" x="561.84" y="-397.042" font-family="Times,serif" font-size="14.00">COSINE</text>
</g>
<!-- n25 (0.81 &#45; 6)&#45;&gt;COSINE -->
<g id="edge18" class="edge"><title>n25 (0.81 &#45; 6)&#45;&gt;COSINE</title>
<path fill="none" stroke="black" d="M628.085,-652.826C623.989,-638.15 617.949,-616.355 612.84,-597.318 596.672,-537.066 578.364,-466.176 568.685,-428.483"/>
<polygon fill="black" stroke="black" points="572.069,-427.585 566.194,-418.768 565.288,-429.324 572.069,-427.585"/>
</g>
<!-- n23 (0.88 &#45; 5) -->
<g id="node20" class="node"><title>n23 (0.88 &#45; 5)</title>
<ellipse fill="none" stroke="black" cx="681.84" cy="-400.742" rx="59.5901" ry="18"/>
<text text-anchor="middle" x="681.84" y="-397.042" font-family="Times,serif" font-size="14.00">n23 (0.88 &#45; 5)</text>
</g>
<!-- n25 (0.81 &#45; 6)&#45;&gt;n23 (0.88 &#45; 5) -->
<g id="edge19" class="edge"><title>n25 (0.81 &#45; 6)&#45;&gt;n23 (0.88 &#45; 5)</title>
<path fill="none" stroke="black" d="M635.98,-652.619C644.277,-607.229 666.837,-483.817 676.891,-428.819"/>
<polygon fill="black" stroke="black" points="680.371,-429.241 678.727,-418.775 673.485,-427.982 680.371,-429.241"/>
</g>
<!-- KLOSGEN -->
<g id="node21" class="node"><title>KLOSGEN</title>
<ellipse fill="none" stroke="black" cx="654.84" cy="-120.083" rx="51.9908" ry="18"/>
<text text-anchor="middle" x="654.84" y="-116.383" font-family="Times,serif" font-size="14.00">KLOSGEN</text>
</g>
<!-- n23 (0.88 &#45; 5)&#45;&gt;KLOSGEN -->
<g id="edge20" class="edge"><title>n23 (0.88 &#45; 5)&#45;&gt;KLOSGEN</title>
<path fill="none" stroke="black" d="M680.192,-382.73C675.664,-335.995 663.003,-205.332 657.477,-148.295"/>
<polygon fill="black" stroke="black" points="660.949,-147.842 656.501,-138.227 653.982,-148.518 660.949,-147.842"/>
</g>
<!-- PHI\nCHI_SQUARE\nGINI\nIMPLICATION_INDEX -->
<g id="node22" class="node"><title>PHI\nCHI_SQUARE\nGINI\nIMPLICATION_INDEX</title>
<ellipse fill="none" stroke="black" cx="833.84" cy="-120.083" rx="108.789" ry="48.1667"/>
<text text-anchor="middle" x="833.84" y="-138.883" font-family="Times,serif" font-size="14.00">PHI</text>
<text text-anchor="middle" x="833.84" y="-123.883" font-family="Times,serif" font-size="14.00">CHI_SQUARE</text>
<text text-anchor="middle" x="833.84" y="-108.883" font-family="Times,serif" font-size="14.00">GINI</text>
<text text-anchor="middle" x="833.84" y="-93.8833" font-family="Times,serif" font-size="14.00">IMPLICATION_INDEX</text>
</g>
<!-- n23 (0.88 &#45; 5)&#45;&gt;PHI\nCHI_SQUARE\nGINI\nIMPLICATION_INDEX -->
<g id="edge21" class="edge"><title>n23 (0.88 &#45; 5)&#45;&gt;PHI\nCHI_SQUARE\nGINI\nIMPLICATION_INDEX</title>
<path fill="none" stroke="black" d="M685.18,-382.66C692.661,-347.224 713.137,-264.034 750.84,-204.167 758.272,-192.366 767.657,-180.941 777.422,-170.532"/>
<polygon fill="black" stroke="black" points="780.136,-172.761 784.577,-163.141 775.107,-167.892 780.136,-172.761"/>
</g>
<!-- LEAST_CONTRADICTION -->
<g id="node24" class="node"><title>LEAST_CONTRADICTION</title>
<ellipse fill="none" stroke="black" cx="873.84" cy="-400.742" rx="114.28" ry="18"/>
<text text-anchor="middle" x="873.84" y="-397.042" font-family="Times,serif" font-size="14.00">LEAST_CONTRADICTION</text>
</g>
<!-- n27 (0.77 &#45; 19)&#45;&gt;LEAST_CONTRADICTION -->
<g id="edge23" class="edge"><title>n27 (0.77 &#45; 19)&#45;&gt;LEAST_CONTRADICTION</title>
<path fill="none" stroke="black" d="M873.84,-652.619C873.84,-607.229 873.84,-483.817 873.84,-428.819"/>
<polygon fill="black" stroke="black" points="877.34,-428.775 873.84,-418.775 870.34,-428.775 877.34,-428.775"/>
</g>
<!-- RELATIVE_RISK\nYULE_Y\nYULE_Q\nODDS_RATIO\nLIFT\nODD_MULTIPLIER\nZHANG\nBAYES\nONE_WAY_SUPPORT\nSEBAG_SCHOENAUER\nCOUNTER_EXAMPLE_RATE\nLEVERAGE\nCONFIDENCE\nLOEVINGER\nCONVICTION\nCENTERED_CONFIDENCE\nCERTAINTY_FACTOR\nADDED_VALUE -->
<g id="node25" class="node"><title>RELATIVE_RISK\nYULE_Y\nYULE_Q\nODDS_RATIO\nLIFT\nODD_MULTIPLIER\nZHANG\nBAYES\nONE_WAY_SUPPORT\nSEBAG_SCHOENAUER\nCOUNTER_EXAMPLE_RATE\nLEVERAGE\nCONFIDENCE\nLOEVINGER\nCONVICTION\nCENTERED_CONFIDENCE\nCERTAINTY_FACTOR\nADDED_VALUE</title>
<ellipse fill="none" stroke="black" cx="1143.84" cy="-400.742" rx="137.358" ry="196.651"/>
<text text-anchor="middle" x="1143.84" y="-524.542" font-family="Times,serif" font-size="14.00">RELATIVE_RISK</text>
<text text-anchor="middle" x="1143.84" y="-509.542" font-family="Times,serif" font-size="14.00">YULE_Y</text>
<text text-anchor="middle" x="1143.84" y="-494.542" font-family="Times,serif" font-size="14.00">YULE_Q</text>
<text text-anchor="middle" x="1143.84" y="-479.542" font-family="Times,serif" font-size="14.00">ODDS_RATIO</text>
<text text-anchor="middle" x="1143.84" y="-464.542" font-family="Times,serif" font-size="14.00">LIFT</text>
<text text-anchor="middle" x="1143.84" y="-449.542" font-family="Times,serif" font-size="14.00">ODD_MULTIPLIER</text>
<text text-anchor="middle" x="1143.84" y="-434.542" font-family="Times,serif" font-size="14.00">ZHANG</text>
<text text-anchor="middle" x="1143.84" y="-419.542" font-family="Times,serif" font-size="14.00">BAYES</text>
<text text-anchor="middle" x="1143.84" y="-404.542" font-family="Times,serif" font-size="14.00">ONE_WAY_SUPPORT</text>
<text text-anchor="middle" x="1143.84" y="-389.542" font-family="Times,serif" font-size="14.00">SEBAG_SCHOENAUER</text>
<text text-anchor="middle" x="1143.84" y="-374.542" font-family="Times,serif" font-size="14.00">COUNTER_EXAMPLE_RATE</text>
<text text-anchor="middle" x="1143.84" y="-359.542" font-family="Times,serif" font-size="14.00">LEVERAGE</text>
<text text-anchor="middle" x="1143.84" y="-344.542" font-family="Times,serif" font-size="14.00">CONFIDENCE</text>
<text text-anchor="middle" x="1143.84" y="-329.542" font-family="Times,serif" font-size="14.00">LOEVINGER</text>
<text text-anchor="middle" x="1143.84" y="-314.542" font-family="Times,serif" font-size="14.00">CONVICTION</text>
<text text-anchor="middle" x="1143.84" y="-299.542" font-family="Times,serif" font-size="14.00">CENTERED_CONFIDENCE</text>
<text text-anchor="middle" x="1143.84" y="-284.542" font-family="Times,serif" font-size="14.00">CERTAINTY_FACTOR</text>
<text text-anchor="middle" x="1143.84" y="-269.542" font-family="Times,serif" font-size="14.00">ADDED_VALUE</text>
</g>
<!-- n27 (0.77 &#45; 19)&#45;&gt;RELATIVE_RISK\nYULE_Y\nYULE_Q\nODDS_RATIO\nLIFT\nODD_MULTIPLIER\nZHANG\nBAYES\nONE_WAY_SUPPORT\nSEBAG_SCHOENAUER\nCOUNTER_EXAMPLE_RATE\nLEVERAGE\nCONFIDENCE\nLOEVINGER\nCONVICTION\nCENTERED_CONFIDENCE\nCERTAINTY_FACTOR\nADDED_VALUE -->
<g id="edge24" class="edge"><title>n27 (0.77 &#45; 19)&#45;&gt;RELATIVE_RISK\nYULE_Y\nYULE_Q\nODDS_RATIO\nLIFT\nODD_MULTIPLIER\nZHANG\nBAYES\nONE_WAY_SUPPORT\nSEBAG_SCHOENAUER\nCOUNTER_EXAMPLE_RATE\nLEVERAGE\nCONFIDENCE\nLOEVINGER\nCONVICTION\nCENTERED_CONFIDENCE\nCERTAINTY_FACTOR\nADDED_VALUE</title>
<path fill="none" stroke="black" d="M906.175,-655.163C932.404,-642.305 969.397,-621.846 996.84,-597.318 1012.7,-583.142 1027.98,-567.029 1042.3,-550.277"/>
<polygon fill="black" stroke="black" points="1045.05,-552.445 1048.81,-542.54 1039.7,-547.938 1045.05,-552.445"/>
</g>
</g>
</svg>
