<?xml version="1.0" encoding="UTF-8" standalone="no"?>
<!DOCTYPE svg PUBLIC "-//W3C//DTD SVG 1.1//EN"
 "http://www.w3.org/Graphics/SVG/1.1/DTD/svg11.dtd">
<!-- Generated by graphviz version 2.38.0 (20140413.2041)
 -->
<!-- Title: dendrogram Pages: 1 -->
<svg width="1773pt" height="779pt"
 viewBox="0.00 0.00 1773.02 778.89" xmlns="http://www.w3.org/2000/svg" xmlns:xlink="http://www.w3.org/1999/xlink">
<g id="graph0" class="graph" transform="scale(1 1) rotate(0) translate(4 774.891)">
<title>dendrogram</title>
<polygon fill="white" stroke="none" points="-4,4 -4,-774.891 1769.02,-774.891 1769.02,4 -4,4"/>
<!-- n34 (0.13 &#45; 36) -->
<g id="node1" class="node"><title>n34 (0.13 &#45; 36)</title>
<ellipse fill="none" stroke="black" cx="823.84" cy="-752.891" rx="64.189" ry="18"/>
<text text-anchor="middle" x="823.84" y="-749.191" font-family="Times,serif" font-size="14.00">n34 (0.13 &#45; 36)</text>
</g>
<!-- n33 (0.49 &#45; 10) -->
<g id="node2" class="node"><title>n33 (0.49 &#45; 10)</title>
<ellipse fill="none" stroke="black" cx="636.84" cy="-680.891" rx="64.189" ry="18"/>
<text text-anchor="middle" x="636.84" y="-677.191" font-family="Times,serif" font-size="14.00">n33 (0.49 &#45; 10)</text>
</g>
<!-- n34 (0.13 &#45; 36)&#45;&gt;n33 (0.49 &#45; 10) -->
<g id="edge1" class="edge"><title>n34 (0.13 &#45; 36)&#45;&gt;n33 (0.49 &#45; 10)</title>
<path fill="none" stroke="black" d="M786.895,-738.062C757.185,-726.94 715.271,-711.251 683.29,-699.279"/>
<polygon fill="black" stroke="black" points="684.301,-695.92 673.709,-695.693 681.847,-702.476 684.301,-695.92"/>
</g>
<!-- n32 (0.49 &#45; 26) -->
<g id="node15" class="node"><title>n32 (0.49 &#45; 26)</title>
<ellipse fill="none" stroke="black" cx="1006.84" cy="-680.891" rx="64.189" ry="18"/>
<text text-anchor="middle" x="1006.84" y="-677.191" font-family="Times,serif" font-size="14.00">n32 (0.49 &#45; 26)</text>
</g>
<!-- n34 (0.13 &#45; 36)&#45;&gt;n32 (0.49 &#45; 26) -->
<g id="edge14" class="edge"><title>n34 (0.13 &#45; 36)&#45;&gt;n32 (0.49 &#45; 26)</title>
<path fill="none" stroke="black" d="M860.433,-737.894C889.234,-726.878 929.551,-711.456 960.587,-699.584"/>
<polygon fill="black" stroke="black" points="962.221,-702.706 970.311,-695.865 959.72,-696.168 962.221,-702.706"/>
</g>
<!-- n31 (0.63 &#45; 4) -->
<g id="node3" class="node"><title>n31 (0.63 &#45; 4)</title>
<ellipse fill="none" stroke="black" cx="297.84" cy="-608.891" rx="59.5901" ry="18"/>
<text text-anchor="middle" x="297.84" y="-605.191" font-family="Times,serif" font-size="14.00">n31 (0.63 &#45; 4)</text>
</g>
<!-- n33 (0.49 &#45; 10)&#45;&gt;n31 (0.63 &#45; 4) -->
<g id="edge2" class="edge"><title>n33 (0.49 &#45; 10)&#45;&gt;n31 (0.63 &#45; 4)</title>
<path fill="none" stroke="black" d="M586.82,-669.563C525.194,-656.838 420.697,-635.26 355.682,-621.835"/>
<polygon fill="black" stroke="black" points="356.1,-618.348 345.599,-619.753 354.685,-625.203 356.1,-618.348"/>
</g>
<!-- n29 (0.68 &#45; 6) -->
<g id="node8" class="node"><title>n29 (0.68 &#45; 6)</title>
<ellipse fill="none" stroke="black" cx="636.84" cy="-608.891" rx="59.5901" ry="18"/>
<text text-anchor="middle" x="636.84" y="-605.191" font-family="Times,serif" font-size="14.00">n29 (0.68 &#45; 6)</text>
</g>
<!-- n33 (0.49 &#45; 10)&#45;&gt;n29 (0.68 &#45; 6) -->
<g id="edge7" class="edge"><title>n33 (0.49 &#45; 10)&#45;&gt;n29 (0.68 &#45; 6)</title>
<path fill="none" stroke="black" d="M636.84,-662.588C636.84,-654.874 636.84,-645.604 636.84,-637.004"/>
<polygon fill="black" stroke="black" points="640.34,-636.996 636.84,-626.996 633.34,-636.996 640.34,-636.996"/>
</g>
<!-- COLLECTIVE_STRENGH -->
<g id="node4" class="node"><title>COLLECTIVE_STRENGH</title>
<ellipse fill="none" stroke="black" cx="109.84" cy="-358.316" rx="109.681" ry="18"/>
<text text-anchor="middle" x="109.84" y="-354.616" font-family="Times,serif" font-size="14.00">COLLECTIVE_STRENGH</text>
</g>
<!-- n31 (0.63 &#45; 4)&#45;&gt;COLLECTIVE_STRENGH -->
<g id="edge3" class="edge"><title>n31 (0.63 &#45; 4)&#45;&gt;COLLECTIVE_STRENGH</title>
<path fill="none" stroke="black" d="M273.352,-592.411C259.271,-582.741 241.852,-569.396 228.84,-554.891 180.64,-501.162 140.939,-425.239 121.935,-385.651"/>
<polygon fill="black" stroke="black" points="125,-383.945 117.558,-376.405 118.674,-386.941 125,-383.945"/>
</g>
<!-- n26 (0.83 &#45; 3) -->
<g id="node5" class="node"><title>n26 (0.83 &#45; 3)</title>
<ellipse fill="none" stroke="black" cx="297.84" cy="-358.316" rx="59.5901" ry="18"/>
<text text-anchor="middle" x="297.84" y="-354.616" font-family="Times,serif" font-size="14.00">n26 (0.83 &#45; 3)</text>
</g>
<!-- n31 (0.63 &#45; 4)&#45;&gt;n26 (0.83 &#45; 3) -->
<g id="edge4" class="edge"><title>n31 (0.63 &#45; 4)&#45;&gt;n26 (0.83 &#45; 3)</title>
<path fill="none" stroke="black" d="M297.84,-590.806C297.84,-548.411 297.84,-438.104 297.84,-386.578"/>
<polygon fill="black" stroke="black" points="301.34,-386.521 297.84,-376.521 294.34,-386.521 301.34,-386.521"/>
</g>
<!-- RECALL -->
<g id="node6" class="node"><title>RECALL</title>
<ellipse fill="none" stroke="black" cx="232.84" cy="-98.8701" rx="44.6926" ry="18"/>
<text text-anchor="middle" x="232.84" y="-95.1701" font-family="Times,serif" font-size="14.00">RECALL</text>
</g>
<!-- n26 (0.83 &#45; 3)&#45;&gt;RECALL -->
<g id="edge5" class="edge"><title>n26 (0.83 &#45; 3)&#45;&gt;RECALL</title>
<path fill="none" stroke="black" d="M293.474,-340.024C282.373,-296.056 253.003,-179.729 239.637,-126.789"/>
<polygon fill="black" stroke="black" points="243.029,-125.925 237.187,-117.086 236.242,-127.639 243.029,-125.925"/>
</g>
<!-- PIATETSKY_SHAPIRO\nSPECIFICITY -->
<g id="node7" class="node"><title>PIATETSKY_SHAPIRO\nSPECIFICITY</title>
<ellipse fill="none" stroke="black" cx="404.84" cy="-98.8701" rx="109.703" ry="26.7407"/>
<text text-anchor="middle" x="404.84" y="-102.67" font-family="Times,serif" font-size="14.00">PIATETSKY_SHAPIRO</text>
<text text-anchor="middle" x="404.84" y="-87.6701" font-family="Times,serif" font-size="14.00">SPECIFICITY</text>
</g>
<!-- n26 (0.83 &#45; 3)&#45;&gt;PIATETSKY_SHAPIRO\nSPECIFICITY -->
<g id="edge6" class="edge"><title>n26 (0.83 &#45; 3)&#45;&gt;PIATETSKY_SHAPIRO\nSPECIFICITY</title>
<path fill="none" stroke="black" d="M302.503,-340.355C312.279,-305.829 336.541,-225.276 366.84,-161.74 371.189,-152.62 376.541,-143.145 381.84,-134.432"/>
<polygon fill="black" stroke="black" points="384.979,-136.013 387.299,-125.675 379.039,-132.31 384.979,-136.013"/>
</g>
<!-- J_MEASURE\nTWO_WAY_SUPPORT_VARIATION\nFISHER_PVAL -->
<g id="node9" class="node"><title>J_MEASURE\nTWO_WAY_SUPPORT_VARIATION\nFISHER_PVAL</title>
<ellipse fill="none" stroke="black" cx="542.84" cy="-358.316" rx="166.754" ry="37.4533"/>
<text text-anchor="middle" x="542.84" y="-369.616" font-family="Times,serif" font-size="14.00">J_MEASURE</text>
<text text-anchor="middle" x="542.84" y="-354.616" font-family="Times,serif" font-size="14.00">TWO_WAY_SUPPORT_VARIATION</text>
<text text-anchor="middle" x="542.84" y="-339.616" font-family="Times,serif" font-size="14.00">FISHER_PVAL</text>
</g>
<!-- n29 (0.68 &#45; 6)&#45;&gt;J_MEASURE\nTWO_WAY_SUPPORT_VARIATION\nFISHER_PVAL -->
<g id="edge8" class="edge"><title>n29 (0.68 &#45; 6)&#45;&gt;J_MEASURE\nTWO_WAY_SUPPORT_VARIATION\nFISHER_PVAL</title>
<path fill="none" stroke="black" d="M630.379,-590.806C616.097,-553.037 581.433,-461.372 560.261,-405.384"/>
<polygon fill="black" stroke="black" points="563.412,-403.82 556.601,-395.704 556.864,-406.296 563.412,-403.82"/>
</g>
<!-- n28 (0.76 &#45; 3) -->
<g id="node10" class="node"><title>n28 (0.76 &#45; 3)</title>
<ellipse fill="none" stroke="black" cx="787.84" cy="-358.316" rx="59.5901" ry="18"/>
<text text-anchor="middle" x="787.84" y="-354.616" font-family="Times,serif" font-size="14.00">n28 (0.76 &#45; 3)</text>
</g>
<!-- n29 (0.68 &#45; 6)&#45;&gt;n28 (0.76 &#45; 3) -->
<g id="edge9" class="edge"><title>n29 (0.68 &#45; 6)&#45;&gt;n28 (0.76 &#45; 3)</title>
<path fill="none" stroke="black" d="M668.97,-593.527C685.856,-584.551 705.714,-571.525 718.84,-554.891 759.278,-503.648 777.047,-426.896 783.973,-386.466"/>
<polygon fill="black" stroke="black" points="787.437,-386.972 785.579,-376.542 780.526,-385.854 787.437,-386.972"/>
</g>
<!-- TWO_WAY_SUPPORT -->
<g id="node11" class="node"><title>TWO_WAY_SUPPORT</title>
<ellipse fill="none" stroke="black" cx="674.84" cy="-98.8701" rx="100.182" ry="18"/>
<text text-anchor="middle" x="674.84" y="-95.1701" font-family="Times,serif" font-size="14.00">TWO_WAY_SUPPORT</text>
</g>
<!-- n28 (0.76 &#45; 3)&#45;&gt;TWO_WAY_SUPPORT -->
<g id="edge10" class="edge"><title>n28 (0.76 &#45; 3)&#45;&gt;TWO_WAY_SUPPORT</title>
<path fill="none" stroke="black" d="M783.533,-340.178C774.405,-305.33 751.262,-224.219 718.84,-161.74 712.229,-149.001 703.282,-135.905 695.181,-125.061"/>
<polygon fill="black" stroke="black" points="697.787,-122.707 688.927,-116.897 692.23,-126.964 697.787,-122.707"/>
</g>
<!-- n27 (0.83 &#45; 2) -->
<g id="node12" class="node"><title>n27 (0.83 &#45; 2)</title>
<ellipse fill="none" stroke="black" cx="852.84" cy="-98.8701" rx="59.5901" ry="18"/>
<text text-anchor="middle" x="852.84" y="-95.1701" font-family="Times,serif" font-size="14.00">n27 (0.83 &#45; 2)</text>
</g>
<!-- n28 (0.76 &#45; 3)&#45;&gt;n27 (0.83 &#45; 2) -->
<g id="edge11" class="edge"><title>n28 (0.76 &#45; 3)&#45;&gt;n27 (0.83 &#45; 2)</title>
<path fill="none" stroke="black" d="M792.206,-340.024C803.307,-296.056 832.677,-179.729 846.044,-126.789"/>
<polygon fill="black" stroke="black" points="849.439,-127.639 848.493,-117.086 842.652,-125.925 849.439,-127.639"/>
</g>
<!-- JACCARD -->
<g id="node13" class="node"><title>JACCARD</title>
<ellipse fill="none" stroke="black" cx="798.84" cy="-18" rx="50.8918" ry="18"/>
<text text-anchor="middle" x="798.84" y="-14.3" font-family="Times,serif" font-size="14.00">JACCARD</text>
</g>
<!-- n27 (0.83 &#45; 2)&#45;&gt;JACCARD -->
<g id="edge12" class="edge"><title>n27 (0.83 &#45; 2)&#45;&gt;JACCARD</title>
<path fill="none" stroke="black" d="M841.388,-81.1437C834.014,-70.3734 824.293,-56.1748 816.004,-44.0686"/>
<polygon fill="black" stroke="black" points="818.813,-41.9762 810.276,-35.7022 813.037,-45.9308 818.813,-41.9762"/>
</g>
<!-- KAPPA -->
<g id="node14" class="node"><title>KAPPA</title>
<ellipse fill="none" stroke="black" cx="906.84" cy="-18" rx="39.7935" ry="18"/>
<text text-anchor="middle" x="906.84" y="-14.3" font-family="Times,serif" font-size="14.00">KAPPA</text>
</g>
<!-- n27 (0.83 &#45; 2)&#45;&gt;KAPPA -->
<g id="edge13" class="edge"><title>n27 (0.83 &#45; 2)&#45;&gt;KAPPA</title>
<path fill="none" stroke="black" d="M864.292,-81.1437C871.716,-70.3006 881.519,-55.9828 889.844,-43.8235"/>
<polygon fill="black" stroke="black" points="892.828,-45.6604 895.59,-35.4318 887.052,-41.7058 892.828,-45.6604"/>
</g>
<!-- n25 (0.88 &#45; 6) -->
<g id="node16" class="node"><title>n25 (0.88 &#45; 6)</title>
<ellipse fill="none" stroke="black" cx="1006.84" cy="-608.891" rx="59.5901" ry="18"/>
<text text-anchor="middle" x="1006.84" y="-605.191" font-family="Times,serif" font-size="14.00">n25 (0.88 &#45; 6)</text>
</g>
<!-- n32 (0.49 &#45; 26)&#45;&gt;n25 (0.88 &#45; 6) -->
<g id="edge15" class="edge"><title>n32 (0.49 &#45; 26)&#45;&gt;n25 (0.88 &#45; 6)</title>
<path fill="none" stroke="black" d="M1006.84,-662.588C1006.84,-654.874 1006.84,-645.604 1006.84,-637.004"/>
<polygon fill="black" stroke="black" points="1010.34,-636.996 1006.84,-626.996 1003.34,-636.996 1010.34,-636.996"/>
</g>
<!-- n30 (0.67 &#45; 20) -->
<g id="node19" class="node"><title>n30 (0.67 &#45; 20)</title>
<ellipse fill="none" stroke="black" cx="1347.84" cy="-608.891" rx="64.189" ry="18"/>
<text text-anchor="middle" x="1347.84" y="-605.191" font-family="Times,serif" font-size="14.00">n30 (0.67 &#45; 20)</text>
</g>
<!-- n32 (0.49 &#45; 26)&#45;&gt;n30 (0.67 &#45; 20) -->
<g id="edge18" class="edge"><title>n32 (0.49 &#45; 26)&#45;&gt;n30 (0.67 &#45; 20)</title>
<path fill="none" stroke="black" d="M1057.16,-669.563C1118.44,-656.982 1221.88,-635.749 1287.42,-622.295"/>
<polygon fill="black" stroke="black" points="1288.5,-625.645 1297.6,-620.206 1287.1,-618.788 1288.5,-625.645"/>
</g>
<!-- KLOSGEN -->
<g id="node17" class="node"><title>KLOSGEN</title>
<ellipse fill="none" stroke="black" cx="917.84" cy="-358.316" rx="51.9908" ry="18"/>
<text text-anchor="middle" x="917.84" y="-354.616" font-family="Times,serif" font-size="14.00">KLOSGEN</text>
</g>
<!-- n25 (0.88 &#45; 6)&#45;&gt;KLOSGEN -->
<g id="edge16" class="edge"><title>n25 (0.88 &#45; 6)&#45;&gt;KLOSGEN</title>
<path fill="none" stroke="black" d="M996.944,-591.09C991.175,-580.855 984.036,-567.382 978.84,-554.891 954.493,-496.357 934.478,-424.523 924.566,-386.285"/>
<polygon fill="black" stroke="black" points="927.914,-385.249 922.043,-376.429 921.132,-386.985 927.914,-385.249"/>
</g>
<!-- COSINE\nGINI\nPHI\nCHI_SQUARE\nIMPLICATION_INDEX -->
<g id="node18" class="node"><title>COSINE\nGINI\nPHI\nCHI_SQUARE\nIMPLICATION_INDEX</title>
<ellipse fill="none" stroke="black" cx="1096.84" cy="-358.316" rx="108.789" ry="58.8803"/>
<text text-anchor="middle" x="1096.84" y="-384.616" font-family="Times,serif" font-size="14.00">COSINE</text>
<text text-anchor="middle" x="1096.84" y="-369.616" font-family="Times,serif" font-size="14.00">GINI</text>
<text text-anchor="middle" x="1096.84" y="-354.616" font-family="Times,serif" font-size="14.00">PHI</text>
<text text-anchor="middle" x="1096.84" y="-339.616" font-family="Times,serif" font-size="14.00">CHI_SQUARE</text>
<text text-anchor="middle" x="1096.84" y="-324.616" font-family="Times,serif" font-size="14.00">IMPLICATION_INDEX</text>
</g>
<!-- n25 (0.88 &#45; 6)&#45;&gt;COSINE\nGINI\nPHI\nCHI_SQUARE\nIMPLICATION_INDEX -->
<g id="edge17" class="edge"><title>n25 (0.88 &#45; 6)&#45;&gt;COSINE\nGINI\nPHI\nCHI_SQUARE\nIMPLICATION_INDEX</title>
<path fill="none" stroke="black" d="M1013.03,-590.806C1025.15,-557.314 1052.62,-481.44 1072.82,-425.646"/>
<polygon fill="black" stroke="black" points="1076.14,-426.77 1076.25,-416.176 1069.56,-424.387 1076.14,-426.77"/>
</g>
<!-- LEAST_CONTRADICTION\nACCURACY -->
<g id="node20" class="node"><title>LEAST_CONTRADICTION\nACCURACY</title>
<ellipse fill="none" stroke="black" cx="1347.84" cy="-358.316" rx="124.402" ry="26.7407"/>
<text text-anchor="middle" x="1347.84" y="-362.116" font-family="Times,serif" font-size="14.00">LEAST_CONTRADICTION</text>
<text text-anchor="middle" x="1347.84" y="-347.116" font-family="Times,serif" font-size="14.00">ACCURACY</text>
</g>
<!-- n30 (0.67 &#45; 20)&#45;&gt;LEAST_CONTRADICTION\nACCURACY -->
<g id="edge19" class="edge"><title>n30 (0.67 &#45; 20)&#45;&gt;LEAST_CONTRADICTION\nACCURACY</title>
<path fill="none" stroke="black" d="M1347.84,-590.806C1347.84,-550.701 1347.84,-449.825 1347.84,-395.425"/>
<polygon fill="black" stroke="black" points="1351.34,-395.196 1347.84,-385.196 1344.34,-395.196 1351.34,-395.196"/>
</g>
<!-- YULE_Y\nYULE_Q\nODDS_RATIO\nRELATIVE_RISK\nCONVICTION\nONE_WAY_SUPPORT\nLOEVINGER\nSEBAG_SCHOENAUER\nODD_MULTIPLIER\nCOUNTER_EXAMPLE_RATE\nZHANG\nCERTAINTY_FACTOR\nBAYES\nCENTERED_CONFIDENCE\nADDED_VALUE\nLEVERAGE\nLIFT\nCONFIDENCE -->
<g id="node21" class="node"><title>YULE_Y\nYULE_Q\nODDS_RATIO\nRELATIVE_RISK\nCONVICTION\nONE_WAY_SUPPORT\nLOEVINGER\nSEBAG_SCHOENAUER\nODD_MULTIPLIER\nCOUNTER_EXAMPLE_RATE\nZHANG\nCERTAINTY_FACTOR\nBAYES\nCENTERED_CONFIDENCE\nADDED_VALUE\nLEVERAGE\nLIFT\nCONFIDENCE</title>
<ellipse fill="none" stroke="black" cx="1627.84" cy="-358.316" rx="137.358" ry="196.651"/>
<text text-anchor="middle" x="1627.84" y="-482.116" font-family="Times,serif" font-size="14.00">YULE_Y</text>
<text text-anchor="middle" x="1627.84" y="-467.116" font-family="Times,serif" font-size="14.00">YULE_Q</text>
<text text-anchor="middle" x="1627.84" y="-452.116" font-family="Times,serif" font-size="14.00">ODDS_RATIO</text>
<text text-anchor="middle" x="1627.84" y="-437.116" font-family="Times,serif" font-size="14.00">RELATIVE_RISK</text>
<text text-anchor="middle" x="1627.84" y="-422.116" font-family="Times,serif" font-size="14.00">CONVICTION</text>
<text text-anchor="middle" x="1627.84" y="-407.116" font-family="Times,serif" font-size="14.00">ONE_WAY_SUPPORT</text>
<text text-anchor="middle" x="1627.84" y="-392.116" font-family="Times,serif" font-size="14.00">LOEVINGER</text>
<text text-anchor="middle" x="1627.84" y="-377.116" font-family="Times,serif" font-size="14.00">SEBAG_SCHOENAUER</text>
<text text-anchor="middle" x="1627.84" y="-362.116" font-family="Times,serif" font-size="14.00">ODD_MULTIPLIER</text>
<text text-anchor="middle" x="1627.84" y="-347.116" font-family="Times,serif" font-size="14.00">COUNTER_EXAMPLE_RATE</text>
<text text-anchor="middle" x="1627.84" y="-332.116" font-family="Times,serif" font-size="14.00">ZHANG</text>
<text text-anchor="middle" x="1627.84" y="-317.116" font-family="Times,serif" font-size="14.00">CERTAINTY_FACTOR</text>
<text text-anchor="middle" x="1627.84" y="-302.116" font-family="Times,serif" font-size="14.00">BAYES</text>
<text text-anchor="middle" x="1627.84" y="-287.116" font-family="Times,serif" font-size="14.00">CENTERED_CONFIDENCE</text>
<text text-anchor="middle" x="1627.84" y="-272.116" font-family="Times,serif" font-size="14.00">ADDED_VALUE</text>
<text text-anchor="middle" x="1627.84" y="-257.116" font-family="Times,serif" font-size="14.00">LEVERAGE</text>
<text text-anchor="middle" x="1627.84" y="-242.116" font-family="Times,serif" font-size="14.00">LIFT</text>
<text text-anchor="middle" x="1627.84" y="-227.116" font-family="Times,serif" font-size="14.00">CONFIDENCE</text>
</g>
<!-- n30 (0.67 &#45; 20)&#45;&gt;YULE_Y\nYULE_Q\nODDS_RATIO\nRELATIVE_RISK\nCONVICTION\nONE_WAY_SUPPORT\nLOEVINGER\nSEBAG_SCHOENAUER\nODD_MULTIPLIER\nCOUNTER_EXAMPLE_RATE\nZHANG\nCERTAINTY_FACTOR\nBAYES\nCENTERED_CONFIDENCE\nADDED_VALUE\nLEVERAGE\nLIFT\nCONFIDENCE -->
<g id="edge20" class="edge"><title>n30 (0.67 &#45; 20)&#45;&gt;YULE_Y\nYULE_Q\nODDS_RATIO\nRELATIVE_RISK\nCONVICTION\nONE_WAY_SUPPORT\nLOEVINGER\nSEBAG_SCHOENAUER\nODD_MULTIPLIER\nCOUNTER_EXAMPLE_RATE\nZHANG\nCERTAINTY_FACTOR\nBAYES\nCENTERED_CONFIDENCE\nADDED_VALUE\nLEVERAGE\nLIFT\nCONFIDENCE</title>
<path fill="none" stroke="black" d="M1394.13,-596.275C1421.27,-587.878 1455.17,-574.517 1480.84,-554.891 1497.67,-542.028 1513.51,-526.755 1528.13,-510.5"/>
<polygon fill="black" stroke="black" points="1530.78,-512.788 1534.75,-502.968 1525.52,-508.165 1530.78,-512.788"/>
</g>
</g>
</svg>
